<?xml version="1.0" encoding="utf-8"?>
<!-- Generator: Adobe Illustrator 23.0.0, SVG Export Plug-In . SVG Version: 6.00 Build 0)  -->
<svg version="1.1" id="图层_1" xmlns="http://www.w3.org/2000/svg" xmlns:xlink="http://www.w3.org/1999/xlink" x="0px" y="0px"
	 viewBox="0 0 38 38" style="enable-background:new 0 0 38 38;" xml:space="preserve">
<style type="text/css">
	.st0{clip-path:url(#SVGID_2_);}
	.st1{fill:none;stroke:#000000;stroke-width:0.1574;stroke-linejoin:round;stroke-miterlimit:10;}
	.st2{fill:none;stroke:#FFFFFF;stroke-width:1.3683;stroke-miterlimit:10;}
	.st3{enable-background:new    ;}
	.st4{fill:#FFFFFF;}
</style>
<g>
	<g>
		<defs>
			<path id="SVGID_1_" d="M34.3-80c0,8.5-6.9,15.3-15.4,15.3S3.6-71.5,3.6-80S10.5-95.3,19-95.3S34.3-88.4,34.3-80z M19-92.3
				c-6.8,0-12.3,5.5-12.3,12.3S12.2-67.7,19-67.7S31.3-73.2,31.3-80C31.3-86.8,25.8-92.3,19-92.3z"/>
		</defs>
		<clipPath id="SVGID_2_">
			<use xlink:href="#SVGID_1_"  style="overflow:visible;"/>
		</clipPath>
		<g class="st0">
			<line class="st1" x1="-66.6" y1="-100.4" x2="47.8" y2="13.9"/>
			<line class="st1" x1="-65.8" y1="-101.2" x2="48.5" y2="13.2"/>
			<line class="st1" x1="-65.1" y1="-101.9" x2="49.2" y2="12.4"/>
			<line class="st1" x1="-64.4" y1="-102.6" x2="49.9" y2="11.7"/>
			<line class="st1" x1="-63.7" y1="-103.3" x2="50.6" y2="11"/>
			<line class="st1" x1="-63" y1="-104" x2="51.3" y2="10.3"/>
			<line class="st1" x1="-62.3" y1="-104.7" x2="52.1" y2="9.6"/>
			<line class="st1" x1="-61.5" y1="-105.5" x2="52.8" y2="8.9"/>
			<line class="st1" x1="-60.8" y1="-106.2" x2="53.5" y2="8.1"/>
			<line class="st1" x1="-60.1" y1="-106.9" x2="54.2" y2="7.4"/>
			<line class="st1" x1="-59.4" y1="-107.6" x2="55" y2="6.7"/>
			<line class="st1" x1="-58.7" y1="-108.3" x2="55.7" y2="6"/>
			<line class="st1" x1="-57.9" y1="-109.1" x2="56.4" y2="5.3"/>
			<line class="st1" x1="-57.2" y1="-109.8" x2="57.1" y2="4.5"/>
			<line class="st1" x1="-56.5" y1="-110.5" x2="57.8" y2="3.8"/>
			<line class="st1" x1="-55.8" y1="-111.2" x2="58.5" y2="3.1"/>
			<line class="st1" x1="-55.1" y1="-111.9" x2="59.3" y2="2.4"/>
			<line class="st1" x1="-54.3" y1="-112.7" x2="60" y2="1.7"/>
			<line class="st1" x1="-53.6" y1="-113.4" x2="60.7" y2="0.9"/>
			<line class="st1" x1="-52.9" y1="-114.1" x2="61.4" y2="0.2"/>
			<line class="st1" x1="-8.4" y1="6" x2="106" y2="-108.3"/>
			<line class="st1" x1="-9.1" y1="5.3" x2="105.3" y2="-109.1"/>
			<line class="st1" x1="-9.8" y1="4.5" x2="104.5" y2="-109.8"/>
			<line class="st1" x1="-10.5" y1="3.8" x2="103.8" y2="-110.5"/>
			<line class="st1" x1="-11.2" y1="3.1" x2="103.1" y2="-111.2"/>
			<line class="st1" x1="-11.9" y1="2.4" x2="102.4" y2="-111.9"/>
			<line class="st1" x1="-12.7" y1="1.7" x2="101.7" y2="-112.7"/>
			<line class="st1" x1="-13.4" y1="0.9" x2="100.9" y2="-113.4"/>
			<line class="st1" x1="-14.1" y1="0.2" x2="100.2" y2="-114.1"/>
		</g>
	</g>
</g>
<rect x="0.6" y="17.6" class="st2" width="3.1" height="2.8"/>
<rect x="3.7" y="14.7" class="st2" width="2.8" height="8.5"/>
<rect x="6.5" y="11.9" class="st2" width="2.8" height="14.2"/>
<rect x="9.3" y="9.3" class="st2" width="2.6" height="19.3"/>
<rect x="34.3" y="17.6" class="st2" width="3.1" height="2.8"/>
<rect x="31.5" y="14.7" class="st2" width="2.8" height="8.5"/>
<rect x="28.7" y="11.9" class="st2" width="2.8" height="14.2"/>
<rect x="26.1" y="9.3" class="st2" width="2.6" height="19.3"/>
<rect x="11.9" y="6.2" class="st2" width="14.2" height="25.5"/>
<g class="st3">
	<path class="st4" d="M17.1,14.9v6.9h-1.6v-5.7h-1.4v-1.3H17.1z"/>
	<path class="st4" d="M19.7,21.6c-0.4-0.3-0.8-0.7-1.1-1.2c-0.3-0.5-0.4-1.2-0.4-1.9c0-0.7,0.1-1.4,0.4-1.9c0.3-0.5,0.6-1,1.1-1.2
		c0.4-0.3,1-0.4,1.5-0.4c0.6,0,1.1,0.1,1.5,0.4c0.4,0.3,0.8,0.7,1.1,1.2c0.3,0.5,0.4,1.2,0.4,1.9c0,0.7-0.1,1.4-0.4,1.9
		c-0.3,0.5-0.6,1-1.1,1.2c-0.5,0.3-1,0.4-1.5,0.4C20.7,22,20.2,21.9,19.7,21.6z M22.3,20.1c0.2-0.4,0.4-0.9,0.4-1.7
		s-0.1-1.3-0.4-1.7c-0.2-0.4-0.6-0.5-1-0.5c-0.4,0-0.7,0.2-1,0.5c-0.2,0.4-0.4,0.9-0.4,1.7s0.1,1.3,0.4,1.7c0.2,0.4,0.6,0.5,1,0.5
		C21.7,20.6,22,20.5,22.3,20.1z"/>
</g>
</svg>
