<?xml version="1.0" encoding="utf-8"?>
<!-- Generator: Adobe Illustrator 24.0.0, SVG Export Plug-In . SVG Version: 6.00 Build 0)  -->
<svg version="1.1" id="图层_1" xmlns="http://www.w3.org/2000/svg" xmlns:xlink="http://www.w3.org/1999/xlink" x="0px" y="0px"
	 viewBox="0 0 37.98 37.98" style="enable-background:new 0 0 37.98 37.98;" xml:space="preserve">
<style type="text/css">
	.st0{fill:none;stroke:#000000;stroke-width:1.3906;stroke-miterlimit:10;}
	.st1{fill:none;stroke:#000000;stroke-width:1.6605;stroke-miterlimit:10;}
	.st2{fill:none;stroke:#000000;stroke-width:0.9441;stroke-miterlimit:10;}
	.st3{fill:#FFFFFF;}
	.st4{fill-rule:evenodd;clip-rule:evenodd;fill:none;stroke:#000000;stroke-width:1.3906;stroke-miterlimit:10;}
	.st5{fill:none;stroke:#000000;stroke-width:0.7087;stroke-miterlimit:10;}
	.st6{fill:none;stroke:#000000;stroke-width:0.7087;stroke-miterlimit:10;stroke-dasharray:1.0038,1.0038;}
	.st7{fill:none;stroke:#000000;stroke-width:0.7087;stroke-miterlimit:10;stroke-dasharray:0.9859,0.9859;}
</style>
<path class="st3" d="M18.99,3.46c4.15,0,8.05,1.62,10.98,4.55c2.93,2.93,4.55,6.83,4.55,10.98s-1.62,8.05-4.55,10.98
	c-2.93,2.93-6.83,4.55-10.98,4.55s-8.05-1.62-10.98-4.55c-2.93-2.93-4.55-6.83-4.55-10.98s1.61-8.05,4.55-10.98
	C10.94,5.08,14.84,3.46,18.99,3.46 M18.99,2.07c-4.33,0-8.66,1.65-11.96,4.95c-6.61,6.61-6.61,17.32,0,23.92
	c3.3,3.3,7.63,4.95,11.96,4.95s8.66-1.65,11.96-4.95c6.61-6.61,6.61-17.32,0-23.92C27.65,3.72,23.32,2.07,18.99,2.07L18.99,2.07z"/>
<path class="st3" d="M18.99,3.46c4.15,0,8.05,1.62,10.98,4.55c2.93,2.93,4.55,6.83,4.55,10.98s-1.62,8.05-4.55,10.98
	c-2.93,2.93-6.83,4.55-10.98,4.55s-8.05-1.62-10.98-4.55c-2.93-2.93-4.55-6.83-4.55-10.98s1.61-8.05,4.55-10.98
	C10.94,5.08,14.84,3.46,18.99,3.46 M18.99,2.07c-4.33,0-8.66,1.65-11.96,4.95c-6.61,6.61-6.61,17.32,0,23.92
	c3.3,3.3,7.63,4.95,11.96,4.95s8.66-1.65,11.96-4.95c6.61-6.61,6.61-17.32,0-23.92C27.65,3.72,23.32,2.07,18.99,2.07L18.99,2.07z"/>
<path class="st3" d="M18.99,8.45c2.82,0,5.46,1.1,7.45,3.09c4.11,4.11,4.11,10.8,0,14.91c-1.99,1.99-4.64,3.09-7.45,3.09
	c-2.82,0-5.46-1.1-7.45-3.09c-4.11-4.11-4.11-10.8,0-14.91C13.53,9.55,16.17,8.45,18.99,8.45 M18.99,7.5
	c-2.94,0-5.88,1.12-8.12,3.36c-4.49,4.49-4.49,11.76,0,16.24c2.24,2.24,5.18,3.36,8.12,3.36s5.88-1.12,8.12-3.36
	c4.49-4.49,4.49-11.76,0-16.24C24.87,8.63,21.93,7.5,18.99,7.5L18.99,7.5z"/>
<g>
	<polygon class="st3" points="15.9,23.48 18.84,23.99 19.95,17.6 	"/>
	<polygon class="st3" points="22.14,22.53 19.19,22.02 18.08,28.41 	"/>
</g>
<g>
	<path class="st3" d="M15.08,12.36v4.79h-0.94v-3.9h-0.81v-0.89H15.08z"/>
	<path class="st3" d="M18.44,14.56c0.27,0.27,0.41,0.63,0.41,1.08c0,0.29-0.06,0.56-0.19,0.8s-0.31,0.43-0.56,0.57
		c-0.25,0.14-0.56,0.22-0.93,0.22c-0.29,0-0.57-0.04-0.84-0.13c-0.28-0.09-0.51-0.21-0.7-0.38l0.37-0.85
		c0.15,0.14,0.33,0.24,0.53,0.32c0.2,0.08,0.41,0.11,0.62,0.11c0.24,0,0.42-0.05,0.55-0.16c0.14-0.11,0.2-0.26,0.2-0.46
		c0-0.21-0.07-0.36-0.21-0.46c-0.14-0.1-0.38-0.16-0.73-0.16h-1.04l0.21-2.69h2.47v0.89h-1.69l-0.06,0.91h0.33
		C17.75,14.16,18.17,14.29,18.44,14.56z"/>
	<path class="st3" d="M25.56,12.36l-1.33,4.79h-1.01l-0.89-3.24l-0.92,3.24h-1l-1.33-4.79h0.97l0.91,3.36l0.96-3.36h0.87l0.93,3.39
		l0.94-3.39H25.56z"/>
</g>
</svg>
