<svg id="图层_1" data-name="图层 1" xmlns="http://www.w3.org/2000/svg" viewBox="0 0 150 150"><defs><style>.cls-1,.cls-2{fill:none;stroke:#fff;stroke-miterlimit:10;}.cls-1{stroke-width:5px;}.cls-2{stroke-width:4px;}</style></defs><title>3 Protective Layers</title><path class="cls-1" d="M129.32,55.41v-38c-27.89,5.1-45.67-4.26-52.61-9.06l-1.3-1L73.4,9C66.47,13.76,48.69,23.14,20.78,18v38s-2.43,64.87,50.8,86.15a23.2,23.2,0,0,0,2.29,1l2-.72C131.79,122.39,129.32,55.41,129.32,55.41Z"/><path class="cls-2" d="M117.52,59.74V30c-21.83,4-35.74-3.34-41.17-7.09l-1-.76-1.57,1.27c-5.43,3.75-19.34,11.09-41.18,7.09V60.25S30.68,111,72.34,127.67a17.81,17.81,0,0,0,1.79.81l1.53-.56C119.46,112.15,117.52,59.74,117.52,59.74Z"/><path class="cls-2" d="M105.29,64.22V43C89.75,45.86,79.84,40.64,76,38l-.72-.54-1.12.91c-3.86,2.67-13.77,7.89-29.32,5V64.58s-1.36,36.16,28.31,48a11.5,11.5,0,0,0,1.27.58l1.1-.4C106.67,101.54,105.29,64.22,105.29,64.22Z"/></svg>