<?xml version="1.0" encoding="utf-8"?>
<!-- Generator: Adobe Illustrator 23.0.0, SVG Export Plug-In . SVG Version: 6.00 Build 0)  -->
<svg version="1.1" id="图层_1" xmlns="http://www.w3.org/2000/svg" xmlns:xlink="http://www.w3.org/1999/xlink" x="0px" y="0px"
	 viewBox="0 0 37.98 37.98" style="enable-background:new 0 0 37.98 37.98;" xml:space="preserve">
<style type="text/css">
	.st0{fill:#FFFFFF;}
	.st1{fill:none;stroke:#FFFFFF;stroke-width:0.9441;stroke-linecap:round;stroke-miterlimit:10;}
	.st2{fill:none;stroke:#FFFFFF;stroke-width:1.3139;stroke-miterlimit:10;}
	.st3{fill:none;stroke:#FFFFFF;stroke-width:1.3906;stroke-miterlimit:10;}
	.st4{fill:none;stroke:#FFFFFF;stroke-width:0.5226;stroke-miterlimit:10;}
	.st5{fill:none;stroke:#FFFFFF;stroke-width:0.9441;stroke-miterlimit:10;}
	.st6{fill:none;stroke:#FFFFFF;stroke-width:0.5915;stroke-miterlimit:10;}
	.st7{fill:#FFFFFF;stroke:#FFFFFF;stroke-width:0;stroke-miterlimit:10;}
	.st8{fill:none;stroke:#FFFFFF;stroke-miterlimit:10;}
	.st9{fill:none;stroke:#FFFFFF;stroke-linecap:round;stroke-linejoin:round;stroke-miterlimit:10;}
	.st10{fill:none;stroke:#FFFFFF;stroke-width:1.3906;stroke-linecap:round;stroke-miterlimit:10;}
	.st11{fill-rule:evenodd;clip-rule:evenodd;fill:none;stroke:#FFFFFF;stroke-width:1.3906;stroke-miterlimit:10;}
	.st12{fill-rule:evenodd;clip-rule:evenodd;fill:none;stroke:#FFFFFF;stroke-width:0.9441;stroke-miterlimit:10;}
	.st13{fill-rule:evenodd;clip-rule:evenodd;fill:none;stroke:#FFFFFF;stroke-width:0.5915;stroke-miterlimit:10;}
	.st14{fill:none;stroke:#FFFFFF;stroke-width:1.4964;stroke-miterlimit:10;}
	.st15{fill:none;stroke:#FFFFFF;stroke-width:1.4979;stroke-linecap:round;stroke-miterlimit:10;}
	.st16{fill:none;stroke:#FFFFFF;stroke-width:0.4896;stroke-miterlimit:10;}
	.st17{fill:none;stroke:#FFFFFF;stroke-width:0.5515;stroke-miterlimit:10;}
	.st18{fill-rule:evenodd;clip-rule:evenodd;fill:none;stroke:#FFFFFF;stroke-width:1.8871;stroke-miterlimit:10;}
	.st19{fill:none;stroke:#FFFFFF;stroke-width:1.3098;stroke-miterlimit:10;}
	.st20{fill:none;stroke:#FFFFFF;stroke-width:1.8871;stroke-linecap:round;stroke-miterlimit:10;}
	.st21{fill-rule:evenodd;clip-rule:evenodd;fill:none;stroke:#FFFFFF;stroke-width:0.6173;stroke-miterlimit:10;}
	.st22{fill-rule:evenodd;clip-rule:evenodd;fill:none;stroke:#FFFFFF;stroke-width:0.3868;stroke-miterlimit:10;}
	.st23{fill:none;stroke:#FFFFFF;stroke-width:1.6605;stroke-miterlimit:10;}
	.st24{fill-rule:evenodd;clip-rule:evenodd;fill:none;stroke:#FFFFFF;stroke-width:1.4489;stroke-miterlimit:10;}
	.st25{fill-rule:evenodd;clip-rule:evenodd;fill:none;stroke:#FFFFFF;stroke-width:0.9077;stroke-miterlimit:10;}
	.st26{fill:none;stroke:#FFFFFF;stroke-width:0.0145;stroke-miterlimit:10;}
	.st27{fill:none;stroke:#FFFFFF;stroke-width:1.1586;stroke-miterlimit:10;}
	.st28{fill:none;stroke:#FFFFFF;stroke-width:1.3665;stroke-miterlimit:10;}
	.st29{fill:none;stroke:#FFFFFF;stroke-width:1.5609;stroke-miterlimit:10;}
	.st30{fill:none;stroke:#FFFFFF;stroke-width:1.6987;stroke-miterlimit:10;}
	.st31{fill:#221814;stroke:#FFFFFF;stroke-miterlimit:10;}
	.st32{fill:none;stroke:#FFFFFF;stroke-width:1.6838;stroke-miterlimit:10;}
	.st33{fill:none;stroke:#FFFFFF;stroke-width:1.2082;stroke-miterlimit:10;}
	.st34{fill:none;stroke:#FFFFFF;stroke-width:1.1058;stroke-miterlimit:10;}
</style>
<g>
	<g>
		<path class="st0" d="M9.88,6.47c3.92,0,7.11,3.19,7.11,7.11c0,3.92-3.19,7.11-7.11,7.11s-7.11-3.19-7.11-7.11
			C2.77,9.66,5.96,6.47,9.88,6.47 M9.88,5.08c-4.7,0-8.5,3.81-8.5,8.5c0,4.7,3.81,8.5,8.5,8.5c4.7,0,8.5-3.81,8.5-8.5
			C18.39,8.89,14.58,5.08,9.88,5.08L9.88,5.08z"/>
	</g>
	<g>
		<path class="st0" d="M18.99,1.36c3.92,0,7.11,3.19,7.11,7.11s-3.19,7.11-7.11,7.11s-7.11-3.19-7.11-7.11S15.07,1.36,18.99,1.36
			 M18.99-0.03c-4.7,0-8.5,3.81-8.5,8.5s3.81,8.5,8.5,8.5c4.7,0,8.5-3.81,8.5-8.5S23.69-0.03,18.99-0.03L18.99-0.03z"/>
	</g>
	<g>
		<path class="st0" d="M28.09,6.47c3.92,0,7.11,3.19,7.11,7.11c0,3.92-3.19,7.11-7.11,7.11s-7.11-3.19-7.11-7.11
			C20.98,9.66,24.17,6.47,28.09,6.47 M28.09,5.08c-4.7,0-8.5,3.81-8.5,8.5c0,4.7,3.81,8.5,8.5,8.5c4.7,0,8.5-3.81,8.5-8.5
			C36.6,8.89,32.79,5.08,28.09,5.08L28.09,5.08z"/>
	</g>
	<g>
		<path class="st0" d="M28.09,17.16c3.92,0,7.11,3.19,7.11,7.11s-3.19,7.11-7.11,7.11s-7.11-3.19-7.11-7.11S24.17,17.16,28.09,17.16
			 M28.09,15.77c-4.7,0-8.5,3.81-8.5,8.5s3.81,8.5,8.5,8.5c4.7,0,8.5-3.81,8.5-8.5S32.79,15.77,28.09,15.77L28.09,15.77z"/>
	</g>
	<g>
		<path class="st0" d="M18.99,22.39c3.92,0,7.11,3.19,7.11,7.11s-3.19,7.11-7.11,7.11s-7.11-3.19-7.11-7.11S15.07,22.39,18.99,22.39
			 M18.99,21c-4.7,0-8.5,3.81-8.5,8.5s3.81,8.5,8.5,8.5c4.7,0,8.5-3.81,8.5-8.5S23.69,21,18.99,21L18.99,21z"/>
	</g>
	<g>
		<path class="st0" d="M9.88,17.16c3.92,0,7.11,3.19,7.11,7.11s-3.19,7.11-7.11,7.11s-7.11-3.19-7.11-7.11S5.96,17.16,9.88,17.16
			 M9.88,15.77c-4.7,0-8.5,3.81-8.5,8.5s3.81,8.5,8.5,8.5c4.7,0,8.5-3.81,8.5-8.5S14.58,15.77,9.88,15.77L9.88,15.77z"/>
	</g>
</g>
</svg>
