<svg id="图层_1" data-name="图层 1" xmlns="http://www.w3.org/2000/svg" viewBox="0 0 595.2 130.27"><defs><style>.cls-1{fill:#fff;}</style></defs><title>9to5toys-logo</title><path class="cls-1" d="M136.9,411.6c0-17.1,6-30.1,17.4-40.6A52.79,52.79,0,0,1,180,358.1a47.89,47.89,0,0,1,14.1-.9A53.8,53.8,0,0,1,227,371a53,53,0,0,1,16.3,26.8,51.29,51.29,0,0,1,1.2,12.9,49.12,49.12,0,0,1-12.2,32.5,53.29,53.29,0,0,1-31,18.3,50.16,50.16,0,0,1-16.4.7,53.93,53.93,0,0,1-34.6-17.7,49.8,49.8,0,0,1-12.5-24.7A64.82,64.82,0,0,1,136.9,411.6Zm53.8-45.1c-3,.4-5.9.6-8.9,1.1a42.43,42.43,0,0,0-25.2,15.1,40.58,40.58,0,0,0-9.5,23.2A43.62,43.62,0,0,0,187,452.6a44.58,44.58,0,0,0,11.5-.5A42.67,42.67,0,0,0,220.7,441a42,42,0,0,0,13.6-27.7,40.57,40.57,0,0,0-1.2-14.7A44.61,44.61,0,0,0,190.7,366.5Z" transform="translate(-0.74 -357.03)"/><path class="cls-1" d="M272.8,358.8h45.9v9H281.9c-.8,0-1.1.1-1.3,1-.9,5.4-2,10.9-2.9,16.3-.6,3.3-1.2,6.5-1.7,9.8a3.75,3.75,0,0,0-.1,1.1c1.7-.8,3.3-1.5,5-2.2a31.36,31.36,0,0,1,13.2-2.5c11.9.6,21,6.1,27.5,16a34.12,34.12,0,0,1,5.6,18.6c.3,14.4-8.1,29.3-23.1,34.6A34.45,34.45,0,0,1,261,441a44.25,44.25,0,0,1-3-11.9v-.4h10a28.35,28.35,0,0,0,2.3,9.1c3.3,7.2,8.5,12.3,16.3,14.2,11.4,2.8,22.4-2.2,27.8-13.1a27,27,0,0,0,2.8-10.8c.4-9.8-4.8-20.5-14.7-25a22.48,22.48,0,0,0-12-2c-7.3.7-13,4.3-17.9,9.5a1.91,1.91,0,0,1-2.4.6c-1.9-.8-3.8-1.4-5.7-2.1a1.1,1.1,0,0,1-.8-1.4c1.3-6.8,2.5-13.6,3.7-20.4,1.1-6.1,2.2-12.1,3.4-18.2.6-3.4,1.3-6.8,1.9-10.2C272.7,359,272.8,358.9,272.8,358.8Z" transform="translate(-0.74 -357.03)"/><path class="cls-1" d="M21.3,460.7c8-11.9,16-23.6,23.9-35.4,0-.1-.1-.1-.1-.2-.3.2-.7.3-1,.5A24.18,24.18,0,0,1,30.9,428c-12.8-1.3-21.1-8.7-26.6-19.8A33.53,33.53,0,0,1,.9,389.8c1.3-14.1,10.9-28.1,26.3-31.6,13.6-3.2,25.2.7,34.4,11.2a34.12,34.12,0,0,1,8.3,18.4,36.84,36.84,0,0,1-4.1,22.8c-3.1,5.5-6.6,10.8-10,16.1C48.4,437.9,41,449,33.6,460.1a1.7,1.7,0,0,1-1.6.9c-2.8-.1-5.7,0-8.5,0A7.8,7.8,0,0,0,21.3,460.7ZM35.8,418v.3a50.63,50.63,0,0,0,6.8-1C52.2,414.7,59,406,60,395.9a28.05,28.05,0,0,0-3-15.8c-5.8-10.8-16.8-15.5-27.7-12.5A25.53,25.53,0,0,0,11.7,399C14.3,408.8,24.1,418.8,35.8,418Z" transform="translate(-0.74 -357.03)"/><path class="cls-1" d="M428.5,383.6c20.8-.2,39.7,17.8,39.3,39.7-.4,20.6-17.1,39.3-39.7,39.1-20.5-.2-39.1-16.6-39.1-39.2A39.48,39.48,0,0,1,428.5,383.6Zm29.3,38.6c-.2-1.8-.2-3.8-.6-5.7a27.58,27.58,0,0,0-10.8-17,28.79,28.79,0,0,0-20.9-6.1,27.27,27.27,0,0,0-16.9,7.9c-8.2,8.1-11.2,18-8.6,29.3a29.2,29.2,0,0,0,26.4,22.2,27,27,0,0,0,15-2.9C452.3,443.9,457.3,434.5,457.8,422.2Z" transform="translate(-0.74 -357.03)"/><path class="cls-1" d="M543.3,385.2a4.78,4.78,0,0,1-.5,1.2c-11.4,26.6-22.7,53.3-34.1,79.9-2.9,6.7-5.8,13.4-8.6,20.1a1.19,1.19,0,0,1-1.3.9h-9.6c.3-.7.5-1.4.8-2,3.6-8.7,7.1-17.3,10.7-25.9a1.91,1.91,0,0,0,0-1.8q-14.1-35.7-28.3-71.3c-.1-.3-.2-.6-.4-1.1h1.2c2.9,0,5.8.1,8.7.1a1,1,0,0,1,1.2.9c7.7,19.3,15.5,38.5,23.2,57.8a7.7,7.7,0,0,1,.6,1.5c.8-1.9,1.5-3.5,2.2-5.1,7.6-18,15.3-35.9,22.9-53.9a1.65,1.65,0,0,1,1.8-1.2c2.3.1,4.6,0,6.9-.1Z" transform="translate(-0.74 -357.03)"/><path class="cls-1" d="M548.8,438.6h5.3c1.2,0,2.5.1,3.7,0,.9-.1,1.1.3,1.1,1.1a12.53,12.53,0,0,0,2.8,7.7,13.55,13.55,0,0,0,13.3,5.2c4.6-.7,9.2-4.3,10.4-8.7,1.5-5.7-.2-11.4-5.7-14.8a42.57,42.57,0,0,0-8.9-3.6,84.36,84.36,0,0,1-8.8-3.4c-6.1-2.9-9.5-8-10.3-14.6-1.4-12.2,6.4-21.2,16.9-23.3a21,21,0,0,1,24,12.8,17,17,0,0,1,1.2,6.9h-7.9c-1.8,0-1.8,0-2.1-1.7a10.09,10.09,0,0,0-8.2-8.5c-5.1-1.2-9.2,0-12.3,4.4a10.67,10.67,0,0,0,2.7,14.6,40.19,40.19,0,0,0,9.3,4c4.2,1.4,8.3,2.8,12,5.3a18.67,18.67,0,0,1,8.6,15.2c.3,6.4-1.2,12.1-5.3,17.1a22,22,0,0,1-13.5,7.8c-7,1.3-13.5.2-19.3-4.3a22.29,22.29,0,0,1-9-16.6c-.1-.7-.1-1.4-.2-2.1C548.7,438.9,548.7,438.8,548.8,438.6Z" transform="translate(-0.74 -357.03)"/><path class="cls-1" d="M334,367.9v-9.2h56.8v9.1H367.7v93H357.5V367.9Z" transform="translate(-0.74 -357.03)"/><path class="cls-1" d="M114,460.8H103.9v-93H80.3v-9h56.8v9H113.9v46.5C114,429.8,114,445.3,114,460.8Z" transform="translate(-0.74 -357.03)"/><path class="cls-1" d="M194.3,393.4v17.9a3.13,3.13,0,0,1-3.3,3.2H166.3c-1.8,0-3-1.2-3.4-3.1a3.94,3.94,0,0,1,2-3.8,2.74,2.74,0,0,1,1.3-.2c6.6-.1,13.2-.1,19.8-.2.9,0,1.1-.3,1.1-1.1,0-10.1.1-20.2.1-30.3a3.41,3.41,0,0,1,2.4-3.5,3.52,3.52,0,0,1,4.1,1.5,3,3,0,0,1,.5,1.6c.1,6.1.1,12,.1,18Z" transform="translate(-0.74 -357.03)"/></svg>