<?xml version="1.0" encoding="UTF-8"?>
<!DOCTYPE svg PUBLIC "-//W3C//DTD SVG 1.1//EN" "http://www.w3.org/Graphics/SVG/1.1/DTD/svg11.dtd">
<!-- Creator: CorelDRAW X6 -->
<svg xmlns="http://www.w3.org/2000/svg" xml:space="preserve" width="207.385mm" height="95.577mm" version="1.1" style="shape-rendering:geometricPrecision; text-rendering:geometricPrecision; image-rendering:optimizeQuality; fill-rule:evenodd; clip-rule:evenodd"
viewBox="0 0 4732 2181"
 xmlns:xlink="http://www.w3.org/1999/xlink">
 <defs>
  <style type="text/css">
   <![CDATA[
    .fil0 {fill:#FEFEFE}
   ]]>
  </style>
 </defs>
 <g id="图层_x0020_1">
  <metadata id="CorelCorpID_0Corel-Layer"/>
  <path class="fil0" d="M4206 676l-953 0c-658,-3 -775,878 76,878l627 0 0 -263 -928 0 351 -401 1128 0 0 1116 -3423 0 313 -451 790 0 -502 -752 -853 1204 -665 0c370,-521 754,-1043 1113,-1570 134,-197 219,-261 454,-261 213,0 360,274 474,441 21,31 43,50 53,85 36,-24 46,-55 73,-90 98,-125 145,-162 283,-244 353,-210 838,-156 1236,-156 234,0 468,0 702,0l-351 464zm-4200 1304c-22,75 12,201 176,201l4313 0c101,0 176,-18 176,-125l0 -1191c0,-56 -52,-107 -89,-124 -45,-21 -134,-14 -199,-14l339 -489c39,-81 -22,-188 -138,-188l-1392 0c-288,0 -620,112 -825,291 -24,21 -67,57 -91,72 -64,-95 -136,-202 -223,-279 -196,-175 -473,-175 -703,-20 -93,63 -154,153 -218,246 -83,122 -172,248 -263,375 -90,125 -863,1165 -863,1245z"/>
 </g>
</svg>
