<?xml version="1.0" encoding="utf-8"?>
<!-- Generator: Adobe Illustrator 24.0.0, SVG Export Plug-In . SVG Version: 6.00 Build 0)  -->
<svg version="1.1" id="图层_1" xmlns="http://www.w3.org/2000/svg" xmlns:xlink="http://www.w3.org/1999/xlink" x="0px" y="0px"
	 viewBox="0 0 37.98 37.98" style="enable-background:new 0 0 37.98 37.98;" xml:space="preserve">
<style type="text/css">
	.st0{fill:none;stroke:#000000;stroke-width:1.3906;stroke-miterlimit:10;}
	.st1{fill:none;stroke:#000000;stroke-width:1.6605;stroke-miterlimit:10;}
	.st2{fill:none;stroke:#000000;stroke-width:0.9441;stroke-miterlimit:10;}
	.st3{fill:#FFFFFF;}
	.st4{fill-rule:evenodd;clip-rule:evenodd;fill:none;stroke:#000000;stroke-width:1.3906;stroke-miterlimit:10;}
	.st5{fill:none;stroke:#000000;stroke-width:0.7087;stroke-miterlimit:10;}
	.st6{fill:none;stroke:#000000;stroke-width:0.7087;stroke-miterlimit:10;stroke-dasharray:1.0038,1.0038;}
	.st7{fill:none;stroke:#000000;stroke-width:0.7087;stroke-miterlimit:10;stroke-dasharray:0.9859,0.9859;}
</style>
<path class="st3" d="M13.75,34.96v1.39H27.8l-3.82-17.75h1.29v-4.22h-3.21l-1.91-0.51l1.24-2.65l-1.88-0.87l3.59-7.71l-1.26-0.59
	l-3.59,7.71h0l-1.48,3.18l-6.36,13.65l1.26,0.59l3.64-7.82l1.88,0.87l1.18-2.54l2.88,0.78c0.22,0.08,0.46,0.13,0.71,0.13h0.59
	l3.52,16.36H13.75z M16.52,18.38l-0.62-0.29l0.22-0.48l2.8-6.02l0.62,0.29L16.52,18.38z M19.56,15.14l0.66,0.18
	c-0.22,0.33-0.35,0.73-0.35,1.17c0,0.06,0.01,0.11,0.02,0.16l-0.91-0.24L19.56,15.14z M21.25,16.49c0-0.4,0.32-0.72,0.72-0.72h1.91
	v1.44h-1.91C21.57,17.2,21.25,16.88,21.25,16.49z"/>
</svg>
