<?xml version="1.0" encoding="utf-8"?>
<!-- Generator: Adobe Illustrator 23.0.0, SVG Export Plug-In . SVG Version: 6.00 Build 0)  -->
<svg version="1.1" id="图层_1" xmlns="http://www.w3.org/2000/svg" xmlns:xlink="http://www.w3.org/1999/xlink" x="0px" y="0px"
	 viewBox="0 0 37.98 37.98" style="enable-background:new 0 0 37.98 37.98;" xml:space="preserve">
<style type="text/css">
	.st0{fill:none;stroke:#FFFFFF;stroke-width:1.3906;stroke-miterlimit:10;}
</style>
<g>
	<path class="st0" d="M23.75,11.49c0,0,2.22-1.31,4.06,0c0.49,0.35,1.93,1.39,3.29,2.37c1.47,1.07,2.86,2.07,2.86,2.07
		s2.74,1.85-0.38,3.8c-1.12,0.7-20.33,12.29-20.33,12.29s-1.24,0.86-2.57-0.12s-7.05-6.35-7.05-6.35s-2.1-1.79,0.28-3.17
		c0.25-0.14,1.74-0.97,3.81-2.1C13.5,17.11,23.75,11.49,23.75,11.49z"/>
	<path class="st0" d="M4.36,22.14C2,23.46,1,25.3,2.68,26.93c0.69,0.67,4.34,4.19,6.31,5.98c0.97,0.88,2.24,1.41,3.55,1.33
		c0.56-0.04,1.14-0.18,1.68-0.52c1.5-0.93,14.58-8.84,19.9-12.04c3.57-2.15,1.65-4.4-0.17-5.74"/>
	<path class="st0" d="M5.35,14.42L25.06,4.13c0,0,1.97-1.01,4.06,0.25c1.2,0.73,4.89,3.47,5.96,4.36c1.06,0.88,1.55,2.09,0,3.02
		c-1.55,0.93-19.79,11.44-19.79,11.44s-2.51,1.77-4.62,0.02c-1.88-1.56-6.21-5-6.21-5S2.07,16.16,5.35,14.42z"/>
</g>
</svg>
