<?xml version="1.0" encoding="utf-8"?>
<!-- Generator: Adobe Illustrator 23.0.0, SVG Export Plug-In . SVG Version: 6.00 Build 0)  -->
<svg version="1.1" id="图层_1" xmlns="http://www.w3.org/2000/svg" xmlns:xlink="http://www.w3.org/1999/xlink" x="0px" y="0px"
	 viewBox="0 0 37.98 37.98" style="enable-background:new 0 0 37.98 37.98;" xml:space="preserve">
<style type="text/css">
	.st0{fill:#FFFFFF;}
	.st1{fill:none;stroke:#FFFFFF;stroke-width:0.9441;stroke-linecap:round;stroke-miterlimit:10;}
	.st2{fill:none;stroke:#FFFFFF;stroke-width:1.3139;stroke-miterlimit:10;}
	.st3{fill:none;stroke:#FFFFFF;stroke-width:1.3906;stroke-miterlimit:10;}
	.st4{fill:none;stroke:#FFFFFF;stroke-width:0.5226;stroke-miterlimit:10;}
	.st5{fill:none;stroke:#FFFFFF;stroke-width:0.9441;stroke-miterlimit:10;}
	.st6{fill:none;stroke:#FFFFFF;stroke-width:0.5915;stroke-miterlimit:10;}
	.st7{fill:#FFFFFF;stroke:#FFFFFF;stroke-width:0;stroke-miterlimit:10;}
	.st8{fill:none;stroke:#FFFFFF;stroke-miterlimit:10;}
	.st9{fill:none;stroke:#FFFFFF;stroke-linecap:round;stroke-linejoin:round;stroke-miterlimit:10;}
	.st10{fill:none;stroke:#FFFFFF;stroke-width:1.3906;stroke-linecap:round;stroke-miterlimit:10;}
	.st11{fill-rule:evenodd;clip-rule:evenodd;fill:none;stroke:#FFFFFF;stroke-width:1.3906;stroke-miterlimit:10;}
	.st12{fill-rule:evenodd;clip-rule:evenodd;fill:none;stroke:#FFFFFF;stroke-width:0.9441;stroke-miterlimit:10;}
	.st13{fill-rule:evenodd;clip-rule:evenodd;fill:none;stroke:#FFFFFF;stroke-width:0.5915;stroke-miterlimit:10;}
	.st14{fill:none;stroke:#FFFFFF;stroke-width:1.4964;stroke-miterlimit:10;}
	.st15{fill:none;stroke:#FFFFFF;stroke-width:1.4979;stroke-linecap:round;stroke-miterlimit:10;}
	.st16{fill:none;stroke:#FFFFFF;stroke-width:0.4896;stroke-miterlimit:10;}
	.st17{fill:none;stroke:#FFFFFF;stroke-width:0.5515;stroke-miterlimit:10;}
	.st18{fill-rule:evenodd;clip-rule:evenodd;fill:none;stroke:#FFFFFF;stroke-width:1.8871;stroke-miterlimit:10;}
	.st19{fill:none;stroke:#FFFFFF;stroke-width:1.3098;stroke-miterlimit:10;}
	.st20{fill:none;stroke:#FFFFFF;stroke-width:1.8871;stroke-linecap:round;stroke-miterlimit:10;}
	.st21{fill-rule:evenodd;clip-rule:evenodd;fill:none;stroke:#FFFFFF;stroke-width:0.6173;stroke-miterlimit:10;}
	.st22{fill-rule:evenodd;clip-rule:evenodd;fill:none;stroke:#FFFFFF;stroke-width:0.3868;stroke-miterlimit:10;}
	.st23{fill:none;stroke:#FFFFFF;stroke-width:1.6605;stroke-miterlimit:10;}
	.st24{fill-rule:evenodd;clip-rule:evenodd;fill:none;stroke:#FFFFFF;stroke-width:1.4489;stroke-miterlimit:10;}
	.st25{fill-rule:evenodd;clip-rule:evenodd;fill:none;stroke:#FFFFFF;stroke-width:0.9077;stroke-miterlimit:10;}
	.st26{fill:none;stroke:#FFFFFF;stroke-width:0.0145;stroke-miterlimit:10;}
	.st27{fill:none;stroke:#FFFFFF;stroke-width:1.1586;stroke-miterlimit:10;}
	.st28{fill:none;stroke:#FFFFFF;stroke-width:1.3665;stroke-miterlimit:10;}
	.st29{fill:none;stroke:#FFFFFF;stroke-width:1.5609;stroke-miterlimit:10;}
	.st30{fill:none;stroke:#FFFFFF;stroke-width:1.6987;stroke-miterlimit:10;}
	.st31{fill:#221814;stroke:#FFFFFF;stroke-miterlimit:10;}
	.st32{fill:none;stroke:#FFFFFF;stroke-width:1.6838;stroke-miterlimit:10;}
	.st33{fill:none;stroke:#FFFFFF;stroke-width:1.2082;stroke-miterlimit:10;}
	.st34{fill:none;stroke:#FFFFFF;stroke-width:1.1058;stroke-miterlimit:10;}
</style>
<g>
	<g>
		<line class="st3" x1="7.39" y1="24.42" x2="9.79" y2="26.82"/>
	</g>
	<g>
		<line class="st3" x1="7.29" y1="19.1" x2="9.69" y2="21.5"/>
	</g>
	<g>
		<line class="st3" x1="4.78" y1="29.43" x2="7.17" y2="27.04"/>
	</g>
	<g>
		<line class="st3" x1="10" y1="24.21" x2="12.4" y2="21.81"/>
	</g>
	<g>
		<line class="st3" x1="4.68" y1="18.89" x2="7.08" y2="16.49"/>
	</g>
	<g>
		<line class="st3" x1="4.78" y1="24.21" x2="7.17" y2="21.81"/>
	</g>
	<g>
		<line class="st3" x1="7.61" y1="8.97" x2="10" y2="11.36"/>
	</g>
	<g>
		<line class="st3" x1="7.51" y1="3.64" x2="9.9" y2="6.04"/>
	</g>
	<g>
		<line class="st3" x1="4.99" y1="13.98" x2="7.39" y2="11.58"/>
	</g>
	<g>
		<line class="st3" x1="10.22" y1="8.75" x2="12.62" y2="6.35"/>
	</g>
	<g>
		<line class="st3" x1="4.99" y1="8.75" x2="7.39" y2="6.35"/>
	</g>
	<g>
		<line class="st3" x1="12.72" y1="19.09" x2="15.12" y2="21.49"/>
	</g>
	<g>
		<line class="st3" x1="7.5" y1="13.87" x2="9.89" y2="16.26"/>
	</g>
	<g>
		<line class="st3" x1="17.95" y1="13.87" x2="20.34" y2="16.26"/>
	</g>
	<g>
		<line class="st3" x1="12.72" y1="8.64" x2="15.12" y2="11.04"/>
	</g>
	<g>
		<line class="st3" x1="12.62" y1="13.77" x2="15.02" y2="16.17"/>
	</g>
	<g>
		<line class="st3" x1="17.85" y1="8.54" x2="20.25" y2="10.94"/>
	</g>
	<g>
		<line class="st3" x1="15.34" y1="18.88" x2="17.73" y2="16.48"/>
	</g>
	<g>
		<line class="st3" x1="10.11" y1="18.88" x2="12.51" y2="16.48"/>
	</g>
	<g>
		<line class="st3" x1="10.01" y1="13.55" x2="12.41" y2="11.16"/>
	</g>
	<g>
		<line class="st3" x1="20.56" y1="13.65" x2="22.96" y2="11.25"/>
	</g>
	<g>
		<line class="st3" x1="15.24" y1="8.33" x2="17.63" y2="5.93"/>
	</g>
	<g>
		<line class="st3" x1="15.34" y1="13.65" x2="17.73" y2="11.25"/>
	</g>
	<g>
		<line class="st3" x1="12.94" y1="3.63" x2="15.34" y2="6.03"/>
	</g>
	<g>
		<line class="st3" x1="23.28" y1="8.53" x2="25.68" y2="10.93"/>
	</g>
	<g>
		<line class="st3" x1="18.06" y1="3.31" x2="20.45" y2="5.71"/>
	</g>
	<g>
		<line class="st3" x1="28.51" y1="3.31" x2="30.9" y2="5.71"/>
	</g>
	<g>
		<line class="st3" x1="23.18" y1="3.21" x2="25.58" y2="5.61"/>
	</g>
	<g>
		<line class="st3" x1="25.89" y1="8.32" x2="28.29" y2="5.92"/>
	</g>
	<g>
		<line class="st3" x1="20.67" y1="8.32" x2="23.06" y2="5.92"/>
	</g>
	<g>
		<line class="st3" x1="7.28" y1="29.76" x2="9.68" y2="32.15"/>
	</g>
	<g>
		<line class="st3" x1="12.41" y1="29.66" x2="14.81" y2="32.06"/>
	</g>
	<g>
		<line class="st3" x1="4.57" y1="34.67" x2="6.97" y2="32.27"/>
	</g>
	<g>
		<line class="st3" x1="15.12" y1="34.77" x2="17.52" y2="32.37"/>
	</g>
	<g>
		<line class="st3" x1="9.8" y1="29.44" x2="12.19" y2="27.05"/>
	</g>
	<g>
		<line class="st3" x1="9.89" y1="34.77" x2="12.29" y2="32.37"/>
	</g>
	<g>
		<line class="st3" x1="20.14" y1="34.34" x2="22.53" y2="31.95"/>
	</g>
	<g>
		<line class="st3" x1="17.84" y1="29.65" x2="20.24" y2="32.05"/>
	</g>
	<g>
		<line class="st3" x1="12.62" y1="24.42" x2="15.01" y2="26.82"/>
	</g>
	<g>
		<line class="st3" x1="23.06" y1="24.42" x2="25.46" y2="26.82"/>
	</g>
	<g>
		<line class="st3" x1="17.84" y1="19.2" x2="20.24" y2="21.6"/>
	</g>
	<g>
		<line class="st3" x1="17.74" y1="24.33" x2="20.14" y2="26.72"/>
	</g>
	<g>
		<line class="st3" x1="22.97" y1="19.1" x2="25.36" y2="21.5"/>
	</g>
	<g>
		<line class="st3" x1="20.45" y1="29.43" x2="22.85" y2="27.04"/>
	</g>
	<g>
		<line class="st3" x1="15.23" y1="29.43" x2="17.62" y2="27.04"/>
	</g>
	<g>
		<line class="st3" x1="15.13" y1="24.11" x2="17.53" y2="21.71"/>
	</g>
	<g>
		<line class="st3" x1="25.68" y1="24.21" x2="28.07" y2="21.81"/>
	</g>
	<g>
		<line class="st3" x1="20.35" y1="18.89" x2="22.75" y2="16.49"/>
	</g>
	<g>
		<line class="st3" x1="20.45" y1="24.21" x2="22.85" y2="21.81"/>
	</g>
	<g>
		<line class="st3" x1="22.96" y1="29.33" x2="25.35" y2="31.72"/>
	</g>
	<g>
		<line class="st3" x1="28.18" y1="24.1" x2="30.58" y2="26.5"/>
	</g>
	<g>
		<line class="st3" x1="28.08" y1="29.23" x2="30.48" y2="31.62"/>
	</g>
	<g>
		<line class="st3" x1="30.79" y1="34.33" x2="33.19" y2="31.94"/>
	</g>
	<g>
		<line class="st3" x1="25.57" y1="34.33" x2="27.97" y2="31.94"/>
	</g>
	<g>
		<line class="st3" x1="25.47" y1="29.01" x2="27.87" y2="26.61"/>
	</g>
	<g>
		<line class="st3" x1="30.7" y1="23.79" x2="33.09" y2="21.39"/>
	</g>
	<g>
		<line class="st3" x1="30.79" y1="29.11" x2="33.19" y2="26.71"/>
	</g>
	<g>
		<line class="st3" x1="28.4" y1="19.09" x2="30.79" y2="21.49"/>
	</g>
	<g>
		<line class="st3" x1="23.17" y1="13.87" x2="25.57" y2="16.26"/>
	</g>
	<g>
		<line class="st3" x1="28.4" y1="8.64" x2="30.79" y2="11.04"/>
	</g>
	<g>
		<line class="st3" x1="28.3" y1="13.77" x2="30.7" y2="16.17"/>
	</g>
	<g>
		<line class="st3" x1="31.01" y1="18.88" x2="33.41" y2="16.48"/>
	</g>
	<g>
		<line class="st3" x1="25.78" y1="18.88" x2="28.18" y2="16.48"/>
	</g>
	<g>
		<line class="st3" x1="25.69" y1="13.55" x2="28.08" y2="11.16"/>
	</g>
	<g>
		<line class="st3" x1="30.91" y1="8.33" x2="33.31" y2="5.93"/>
	</g>
	<g>
		<line class="st3" x1="31.01" y1="13.65" x2="33.41" y2="11.25"/>
	</g>
</g>
</svg>
