<?xml version="1.0" encoding="utf-8"?>
<!-- Generator: Adobe Illustrator 16.0.0, SVG Export Plug-In . SVG Version: 6.00 Build 0)  -->
<!DOCTYPE svg PUBLIC "-//W3C//DTD SVG 1.1//EN" "http://www.w3.org/Graphics/SVG/1.1/DTD/svg11.dtd">
<svg version="1.1" id="图层_1" xmlns="http://www.w3.org/2000/svg" xmlns:xlink="http://www.w3.org/1999/xlink" x="0px" y="0px"
	 width="150.072px" height="150px" viewBox="232.564 319.8 150.072 150" enable-background="new 232.564 319.8 150.072 150"
	 xml:space="preserve">
<g>
	<g>
		<path fill="#FFFFFF" d="M307.6,469.8c-41.359,0-75.036-33.677-75.036-75.036S266.24,319.8,307.6,319.8
			s75.036,33.604,75.036,74.964S348.959,469.8,307.6,469.8z M307.6,323.605c-39.277,0-71.23,31.881-71.23,71.158
			c0,39.277,31.954,71.23,71.23,71.23c39.277,0,71.23-31.953,71.23-71.23C378.83,355.487,346.877,323.605,307.6,323.605z"/>
	</g>
	<g>
		<g>
			<path fill="#FFFFFF" d="M342.281,410.992l-23.48-15.366l23.48-17.233v9.478h25.635v13.858h-25.635V410.992z M322.105,395.626
				l18.238,11.919v-7.755h25.634v-10.052h-25.634v-7.611L322.105,395.626z"/>
		</g>
		<g>
			<path fill="#FFFFFF" d="M272.918,410.992v-9.335h-25.634v-13.858h25.634v-9.478l23.48,17.233L272.918,410.992z M249.223,399.79
				h25.634v7.684l18.238-11.92l-18.238-13.355v7.54h-25.634V399.79z"/>
		</g>
		<g>
			<path fill="#FFFFFF" d="M309.969,445.099h-3.805c-3.159,0-5.672-2.585-5.672-5.672v-89.253c0-3.16,2.585-5.673,5.672-5.673h3.805
				c3.16,0,5.673,2.585,5.673,5.673v89.253C315.642,442.586,313.129,445.099,309.969,445.099z M306.164,346.368
				c-2.083,0-3.806,1.723-3.806,3.806v89.253c0,2.082,1.723,3.806,3.806,3.806h3.805c2.083,0,3.806-1.724,3.806-3.806v-89.253
				c0-2.083-1.723-3.806-3.806-3.806H306.164z"/>
		</g>
	</g>
</g>
</svg>
