<?xml version="1.0" encoding="utf-8"?>
<!-- Generator: Adobe Illustrator 23.0.0, SVG Export Plug-In . SVG Version: 6.00 Build 0)  -->
<svg version="1.1" id="图层_1" xmlns="http://www.w3.org/2000/svg" xmlns:xlink="http://www.w3.org/1999/xlink" x="0px" y="0px"
	 viewBox="0 0 37.98 37.98" style="enable-background:new 0 0 37.98 37.98;" xml:space="preserve">
<style type="text/css">
	.st0{fill:none;stroke:#fff;stroke-width:1.391;stroke-linejoin:round;stroke-miterlimit:10;}
	.st1{clip-path:url(#SVGID_2_);}
	.st2{fill:none;stroke:#fff;stroke-width:0.1574;stroke-linejoin:round;stroke-miterlimit:10;}
	.st3{fill:none;stroke:#fff;stroke-width:1.3476;stroke-linejoin:round;stroke-miterlimit:10;}
</style>
<g>
	
		<rect x="13.23" y="11.92" transform="matrix(0.1271 -0.9919 0.9919 0.1271 -1.0873 28.5968)" class="st0" width="4.95" height="6"/>
	
		<rect x="9.12" y="12.4" transform="matrix(0.1271 -0.9919 0.9919 0.1271 -4.7045 23.2434)" class="st0" width="3.47" height="3.78"/>
	<path class="st0" d="M18.53,15.66c0,0,8.22,0.11,8.22,7.28s0,14.03,0,14.03"/>
	<rect x="15.02" y="24.98" class="st0" width="4.95" height="6"/>
	<rect x="15.75" y="30.98" class="st0" width="3.47" height="3.78"/>
	
		<rect x="24.28" y="5.07" transform="matrix(-1 -7.936141e-07 7.936141e-07 -1 53.5056 16.1305)" class="st0" width="4.95" height="6"/>
	
		<rect x="25.02" y="1.29" transform="matrix(-1 -9.616898e-07 9.616898e-07 -1 53.5056 6.3509)" class="st0" width="3.47" height="3.78"/>
	<line class="st0" x1="26.75" y1="11.06" x2="26.75" y2="37.98"/>
	<path class="st0" d="M17.49,25.2c0-2.56,2.07-4.63,4.63-4.63h0c2.56,0,4.63,2.07,4.63,4.63v4.21"/>
</g>
<g>
	<g>
		<defs>
			<path id="SVGID_1_" d="M92.33,18.99c0,8.48-6.87,15.35-15.35,15.35s-15.35-6.87-15.35-15.35S68.5,3.64,76.98,3.64
				S92.33,10.52,92.33,18.99z M76.98,6.69c-6.79,0-12.3,5.51-12.3,12.3s5.51,12.3,12.3,12.3c6.79,0,12.3-5.51,12.3-12.3
				S83.77,6.69,76.98,6.69z"/>
		</defs>
		<clipPath id="SVGID_2_">
			<use xlink:href="#SVGID_1_"  style="overflow:visible;"/>
		</clipPath>
		<g class="st1">
			<line class="st2" x1="-8.58" y1="-1.48" x2="105.75" y2="112.84"/>
			<line class="st2" x1="-7.86" y1="-2.2" x2="106.46" y2="112.12"/>
			<line class="st2" x1="-7.14" y1="-2.92" x2="107.18" y2="111.4"/>
			<line class="st2" x1="-6.42" y1="-3.64" x2="107.9" y2="110.68"/>
			<line class="st2" x1="-5.7" y1="-4.36" x2="108.62" y2="109.96"/>
			<line class="st2" x1="-4.98" y1="-5.08" x2="109.34" y2="109.24"/>
			<line class="st2" x1="-4.26" y1="-5.8" x2="110.06" y2="108.52"/>
			<line class="st2" x1="-3.54" y1="-6.52" x2="110.78" y2="107.81"/>
			<line class="st2" x1="-2.83" y1="-7.23" x2="111.5" y2="107.09"/>
			<line class="st2" x1="-2.11" y1="-7.95" x2="112.21" y2="106.37"/>
			<line class="st2" x1="-1.39" y1="-8.67" x2="112.93" y2="105.65"/>
			<line class="st2" x1="-0.67" y1="-9.39" x2="113.65" y2="104.93"/>
			<line class="st2" x1="0.05" y1="-10.11" x2="114.37" y2="104.21"/>
			<line class="st2" x1="0.77" y1="-10.83" x2="115.09" y2="103.49"/>
			<line class="st2" x1="1.49" y1="-11.55" x2="115.81" y2="102.77"/>
			<line class="st2" x1="2.21" y1="-12.27" x2="116.53" y2="102.06"/>
			<line class="st2" x1="2.92" y1="-12.98" x2="117.25" y2="101.34"/>
			<line class="st2" x1="3.64" y1="-13.7" x2="117.96" y2="100.62"/>
			<line class="st2" x1="4.36" y1="-14.42" x2="118.68" y2="99.9"/>
			<line class="st2" x1="5.08" y1="-15.14" x2="119.4" y2="99.18"/>
			<line class="st2" x1="5.8" y1="-15.86" x2="120.12" y2="98.46"/>
			<line class="st2" x1="6.52" y1="-16.58" x2="120.84" y2="97.74"/>
			<line class="st2" x1="7.24" y1="-17.3" x2="121.56" y2="97.02"/>
			<line class="st2" x1="7.96" y1="-18.02" x2="122.28" y2="96.31"/>
			<line class="st2" x1="8.67" y1="-18.73" x2="123" y2="95.59"/>
			<line class="st2" x1="9.39" y1="-19.45" x2="123.71" y2="94.87"/>
			<line class="st2" x1="10.11" y1="-20.17" x2="124.43" y2="94.15"/>
			<line class="st2" x1="10.83" y1="-20.89" x2="125.15" y2="93.43"/>
			<line class="st2" x1="11.55" y1="-21.61" x2="125.87" y2="92.71"/>
			<line class="st2" x1="12.27" y1="-22.33" x2="126.59" y2="91.99"/>
			<line class="st2" x1="12.99" y1="-23.05" x2="127.31" y2="91.27"/>
			<line class="st2" x1="13.71" y1="-23.76" x2="128.03" y2="90.56"/>
			<line class="st2" x1="14.42" y1="-24.48" x2="128.75" y2="89.84"/>
			<line class="st2" x1="15.14" y1="-25.2" x2="129.46" y2="89.12"/>
			<line class="st2" x1="15.86" y1="-25.92" x2="130.18" y2="88.4"/>
			<line class="st2" x1="16.58" y1="-26.64" x2="130.9" y2="87.68"/>
			<line class="st2" x1="17.3" y1="-27.36" x2="131.62" y2="86.96"/>
			<line class="st2" x1="18.02" y1="-28.08" x2="132.34" y2="86.24"/>
			<line class="st2" x1="18.74" y1="-28.8" x2="133.06" y2="85.52"/>
			<line class="st2" x1="19.46" y1="-29.51" x2="133.78" y2="84.81"/>
			<line class="st2" x1="20.17" y1="-30.23" x2="134.5" y2="84.09"/>
			<line class="st2" x1="20.89" y1="-30.95" x2="135.21" y2="83.37"/>
			<line class="st2" x1="21.61" y1="-31.67" x2="135.93" y2="82.65"/>
			<line class="st2" x1="22.33" y1="-32.39" x2="136.65" y2="81.93"/>
			<line class="st2" x1="23.05" y1="-33.11" x2="137.37" y2="81.21"/>
			<line class="st2" x1="23.77" y1="-33.83" x2="138.09" y2="80.49"/>
			<line class="st2" x1="24.49" y1="-34.55" x2="138.81" y2="79.77"/>
			<line class="st2" x1="25.21" y1="-35.26" x2="139.53" y2="79.06"/>
			<line class="st2" x1="25.92" y1="-35.98" x2="140.24" y2="78.34"/>
			<line class="st2" x1="26.64" y1="-36.7" x2="140.96" y2="77.62"/>
			<line class="st2" x1="27.36" y1="-37.42" x2="141.68" y2="76.9"/>
			<line class="st2" x1="28.08" y1="-38.14" x2="142.4" y2="76.18"/>
			<line class="st2" x1="28.8" y1="-38.86" x2="143.12" y2="75.46"/>
			<line class="st2" x1="29.52" y1="-39.58" x2="143.84" y2="74.74"/>
			<line class="st2" x1="30.24" y1="-40.3" x2="144.56" y2="74.03"/>
			<line class="st2" x1="30.96" y1="-41.01" x2="145.28" y2="73.31"/>
			<line class="st2" x1="31.67" y1="-41.73" x2="145.99" y2="72.59"/>
			<line class="st2" x1="32.39" y1="-42.45" x2="146.71" y2="71.87"/>
			<line class="st2" x1="33.11" y1="-43.17" x2="147.43" y2="71.15"/>
			<line class="st2" x1="33.83" y1="-43.89" x2="148.15" y2="70.43"/>
			<line class="st2" x1="34.55" y1="-44.61" x2="148.87" y2="69.71"/>
			<line class="st2" x1="35.27" y1="-45.33" x2="149.59" y2="68.99"/>
			<line class="st2" x1="35.99" y1="-46.05" x2="150.31" y2="68.28"/>
			<line class="st2" x1="36.71" y1="-46.76" x2="151.03" y2="67.56"/>
			<line class="st2" x1="37.42" y1="-47.48" x2="151.74" y2="66.84"/>
			<line class="st2" x1="37.42" y1="92.71" x2="151.74" y2="-21.61"/>
			<line class="st2" x1="36.71" y1="91.99" x2="151.03" y2="-22.33"/>
			<line class="st2" x1="35.99" y1="91.27" x2="150.31" y2="-23.05"/>
			<line class="st2" x1="35.27" y1="90.56" x2="149.59" y2="-23.76"/>
			<line class="st2" x1="34.55" y1="89.84" x2="148.87" y2="-24.48"/>
			<line class="st2" x1="33.83" y1="89.12" x2="148.15" y2="-25.2"/>
			<line class="st2" x1="33.11" y1="88.4" x2="147.43" y2="-25.92"/>
			<line class="st2" x1="32.39" y1="87.68" x2="146.71" y2="-26.64"/>
			<line class="st2" x1="31.67" y1="86.96" x2="145.99" y2="-27.36"/>
			<line class="st2" x1="30.96" y1="86.24" x2="145.28" y2="-28.08"/>
			<line class="st2" x1="30.24" y1="85.52" x2="144.56" y2="-28.8"/>
			<line class="st2" x1="29.52" y1="84.81" x2="143.84" y2="-29.51"/>
			<line class="st2" x1="28.8" y1="84.09" x2="143.12" y2="-30.23"/>
			<line class="st2" x1="28.08" y1="83.37" x2="142.4" y2="-30.95"/>
			<line class="st2" x1="27.36" y1="82.65" x2="141.68" y2="-31.67"/>
			<line class="st2" x1="26.64" y1="81.93" x2="140.96" y2="-32.39"/>
			<line class="st2" x1="25.92" y1="81.21" x2="140.24" y2="-33.11"/>
			<line class="st2" x1="25.21" y1="80.49" x2="139.53" y2="-33.83"/>
			<line class="st2" x1="24.49" y1="79.77" x2="138.81" y2="-34.55"/>
			<line class="st2" x1="23.77" y1="79.06" x2="138.09" y2="-35.26"/>
			<line class="st2" x1="23.05" y1="78.34" x2="137.37" y2="-35.98"/>
			<line class="st2" x1="22.33" y1="77.62" x2="136.65" y2="-36.7"/>
			<line class="st2" x1="21.61" y1="76.9" x2="135.93" y2="-37.42"/>
			<line class="st2" x1="20.89" y1="76.18" x2="135.21" y2="-38.14"/>
			<line class="st2" x1="20.17" y1="75.46" x2="134.5" y2="-38.86"/>
			<line class="st2" x1="19.46" y1="74.74" x2="133.78" y2="-39.58"/>
			<line class="st2" x1="18.74" y1="74.03" x2="133.06" y2="-40.3"/>
			<line class="st2" x1="18.02" y1="73.31" x2="132.34" y2="-41.01"/>
			<line class="st2" x1="17.3" y1="72.59" x2="131.62" y2="-41.73"/>
			<line class="st2" x1="16.58" y1="71.87" x2="130.9" y2="-42.45"/>
			<line class="st2" x1="15.86" y1="71.15" x2="130.18" y2="-43.17"/>
			<line class="st2" x1="15.14" y1="70.43" x2="129.46" y2="-43.89"/>
			<line class="st2" x1="14.42" y1="69.71" x2="128.75" y2="-44.61"/>
			<line class="st2" x1="13.71" y1="68.99" x2="128.03" y2="-45.33"/>
			<line class="st2" x1="12.99" y1="68.28" x2="127.31" y2="-46.05"/>
			<line class="st2" x1="12.27" y1="67.56" x2="126.59" y2="-46.76"/>
			<line class="st2" x1="11.55" y1="66.84" x2="125.87" y2="-47.48"/>
			<line class="st2" x1="10.83" y1="66.12" x2="125.15" y2="-48.2"/>
			<line class="st2" x1="10.11" y1="65.4" x2="124.43" y2="-48.92"/>
			<line class="st2" x1="9.39" y1="64.68" x2="123.71" y2="-49.64"/>
			<line class="st2" x1="8.67" y1="63.96" x2="123" y2="-50.36"/>
			<line class="st2" x1="7.96" y1="63.24" x2="122.28" y2="-51.08"/>
			<line class="st2" x1="7.24" y1="62.53" x2="121.56" y2="-51.8"/>
			<line class="st2" x1="6.52" y1="61.81" x2="120.84" y2="-52.51"/>
			<line class="st2" x1="5.8" y1="61.09" x2="120.12" y2="-53.23"/>
			<line class="st2" x1="5.08" y1="60.37" x2="119.4" y2="-53.95"/>
			<line class="st2" x1="4.36" y1="59.65" x2="118.68" y2="-54.67"/>
			<line class="st2" x1="3.64" y1="58.93" x2="117.96" y2="-55.39"/>
			<line class="st2" x1="2.92" y1="58.21" x2="117.25" y2="-56.11"/>
			<line class="st2" x1="2.21" y1="57.49" x2="116.53" y2="-56.83"/>
			<line class="st2" x1="1.49" y1="56.78" x2="115.81" y2="-57.55"/>
			<line class="st2" x1="0.77" y1="56.06" x2="115.09" y2="-58.26"/>
			<line class="st2" x1="0.05" y1="55.34" x2="114.37" y2="-58.98"/>
			<line class="st2" x1="-0.67" y1="54.62" x2="113.65" y2="-59.7"/>
			<line class="st2" x1="-1.39" y1="53.9" x2="112.93" y2="-60.42"/>
			<line class="st2" x1="-2.11" y1="53.18" x2="112.21" y2="-61.14"/>
			<line class="st2" x1="-2.83" y1="52.46" x2="111.5" y2="-61.86"/>
			<line class="st2" x1="-3.54" y1="51.74" x2="110.78" y2="-62.58"/>
			<line class="st2" x1="-4.26" y1="51.03" x2="110.06" y2="-63.3"/>
			<line class="st2" x1="-4.98" y1="50.31" x2="109.34" y2="-64.01"/>
			<line class="st2" x1="-5.7" y1="49.59" x2="108.62" y2="-64.73"/>
			<line class="st2" x1="-6.42" y1="48.87" x2="107.9" y2="-65.45"/>
			<line class="st2" x1="-7.14" y1="48.15" x2="107.18" y2="-66.17"/>
			<line class="st2" x1="-7.86" y1="47.43" x2="106.46" y2="-66.89"/>
			<line class="st2" x1="-8.58" y1="46.71" x2="105.75" y2="-67.61"/>
			<line class="st2" x1="-9.29" y1="45.99" x2="105.03" y2="-68.33"/>
			<line class="st2" x1="-10.01" y1="45.28" x2="104.31" y2="-69.05"/>
			<line class="st2" x1="-10.73" y1="44.56" x2="103.59" y2="-69.76"/>
		</g>
	</g>
</g>
</svg>
