<svg xmlns="http://www.w3.org/2000/svg" xmlns:xlink="http://www.w3.org/1999/xlink" viewBox="0 0 32 32"><defs><style>.cls-1{fill:none;}.cls-2{clip-path:url(#clip-path);}.cls-3{clip-path:url(#clip-path-2);}.cls-4{fill:#82995b;}</style><clipPath id="clip-path" transform="translate(0 0)"><circle class="cls-1" cx="16" cy="16" r="16"/></clipPath><clipPath id="clip-path-2" transform="translate(0 0)"><rect class="cls-1" width="32" height="32" transform="translate(32 32) rotate(180)"/></clipPath></defs><title>黑黄斜纹</title><g id="图层_2" data-name="图层 2"><g id="图层_1-2" data-name="图层 1"><g class="cls-2"><g class="cls-3"><rect class="cls-4" x="28" y="8" width="4" height="8"/><rect x="28" width="4" height="8"/><rect x="24" width="4" height="4"/><rect class="cls-4" x="24" y="4" width="4" height="8"/><rect class="cls-4" x="20" width="4" height="8"/><rect class="cls-4" x="16" width="4" height="4"/><rect x="28" y="16" width="4" height="8"/><rect class="cls-4" x="28" y="24" width="4" height="8"/><rect class="cls-4" x="24" y="20" width="4" height="8"/><rect class="cls-4" x="20" y="16" width="4" height="8"/><rect x="24" y="12" width="4" height="8"/><rect x="20" y="8" width="4" height="8"/><rect x="16" y="4" width="4" height="8"/><rect class="cls-4" x="16" y="12" width="4" height="8"/><rect class="cls-4" x="12" y="8" width="4" height="8"/><rect class="cls-4" x="8" y="4" width="4" height="8"/><rect class="cls-4" x="4" width="4" height="8"/><rect x="12" width="4" height="8"/><rect x="8" width="4" height="4"/><rect x="20" y="24" width="4" height="8"/><rect x="24" y="28" width="4" height="4"/><rect x="16" y="20" width="4" height="8"/><rect class="cls-4" x="16" y="28" width="4" height="4"/><rect class="cls-4" x="12" y="24" width="4" height="8"/><rect class="cls-4" x="8" y="20" width="4" height="8"/><rect x="12" y="16" width="4" height="8"/><rect x="8" y="12" width="4" height="8"/><rect x="4" y="8" width="4" height="8"/><rect class="cls-4" x="4" y="16" width="4" height="8"/><rect class="cls-4" y="12" width="4" height="8"/><rect y="4" width="4" height="8"/><rect x="8" y="28" width="4" height="4"/><rect class="cls-4" y="28" width="4" height="4"/><rect x="4" y="24" width="4" height="8"/><rect y="20" width="4" height="8"/><rect class="cls-4" width="4" height="4"/></g></g></g></g></svg>