<?xml version="1.0" encoding="utf-8"?>
<!-- Generator: Adobe Illustrator 23.0.0, SVG Export Plug-In . SVG Version: 6.00 Build 0)  -->
<svg version="1.1" id="图层_1" xmlns="http://www.w3.org/2000/svg" xmlns:xlink="http://www.w3.org/1999/xlink" x="0px" y="0px"
	 viewBox="0 0 37.98 37.98" style="enable-background:new 0 0 37.98 37.98;" xml:space="preserve">
<style type="text/css">
	.st0{clip-path:url(#SVGID_2_);}
	.st1{fill:none;stroke:#000000;stroke-width:0.1574;stroke-linejoin:round;stroke-miterlimit:10;}
	.st2{fill:none;stroke:#000000;stroke-width:0.9441;stroke-linecap:round;stroke-miterlimit:10;}
	.st3{fill:none;stroke:#000000;stroke-width:1.3139;stroke-miterlimit:10;}
	.st4{fill:none;stroke:#000000;stroke-width:1.3906;stroke-miterlimit:10;}
	.st5{fill:none;stroke:#000000;stroke-width:0.5226;stroke-miterlimit:10;}
	.st6{fill:none;stroke:#000000;stroke-width:0.9441;stroke-miterlimit:10;}
	.st7{fill:none;stroke:#000000;stroke-width:0.5915;stroke-miterlimit:10;}
	.st8{fill:none;stroke:#000000;stroke-miterlimit:10;}
	.st9{fill:none;stroke:#000000;stroke-linecap:round;stroke-linejoin:round;stroke-miterlimit:10;}
	.st10{fill:none;stroke:#000000;stroke-width:1.3906;stroke-linecap:round;stroke-miterlimit:10;}
	.st11{fill-rule:evenodd;clip-rule:evenodd;fill:none;stroke:#000000;stroke-width:1.3906;stroke-miterlimit:10;}
	.st12{fill-rule:evenodd;clip-rule:evenodd;fill:none;stroke:#000000;stroke-width:0.9441;stroke-miterlimit:10;}
	.st13{fill-rule:evenodd;clip-rule:evenodd;fill:none;stroke:#000000;stroke-width:0.5915;stroke-miterlimit:10;}
	.st14{fill:none;stroke:#000000;stroke-width:1.4964;stroke-miterlimit:10;}
	.st15{fill:none;stroke:#000000;stroke-width:1.4979;stroke-linecap:round;stroke-miterlimit:10;}
	.st16{fill:none;stroke:#000000;stroke-width:0.4896;stroke-miterlimit:10;}
	.st17{fill:none;stroke:#000000;stroke-width:0.5515;stroke-miterlimit:10;}
	.st18{fill-rule:evenodd;clip-rule:evenodd;fill:none;stroke:#000000;stroke-width:1.8871;stroke-miterlimit:10;}
	.st19{fill:none;stroke:#000000;stroke-width:1.3098;stroke-miterlimit:10;}
	.st20{fill:none;stroke:#000000;stroke-width:1.8871;stroke-linecap:round;stroke-miterlimit:10;}
	.st21{fill-rule:evenodd;clip-rule:evenodd;fill:none;stroke:#000000;stroke-width:0.6173;stroke-miterlimit:10;}
	.st22{fill-rule:evenodd;clip-rule:evenodd;fill:none;stroke:#000000;stroke-width:0.3868;stroke-miterlimit:10;}
	.st23{fill-rule:evenodd;clip-rule:evenodd;fill:none;stroke:#000000;stroke-width:1.4489;stroke-miterlimit:10;}
	.st24{fill-rule:evenodd;clip-rule:evenodd;fill:none;stroke:#000000;stroke-width:0.9077;stroke-miterlimit:10;}
	.st25{fill:none;stroke:#000000;stroke-width:0.0145;stroke-miterlimit:10;}
	.st26{fill:none;stroke:#000000;stroke-width:1.1586;stroke-miterlimit:10;}
	.st27{fill:none;stroke:#000000;stroke-width:1.3665;stroke-miterlimit:10;}
	.st28{fill:none;stroke:#000000;stroke-width:1.5609;stroke-miterlimit:10;}
	.st29{fill:none;stroke:#000000;stroke-width:1.6987;stroke-miterlimit:10;}
	.st30{fill:#221814;}
	.st31{fill:none;}
	.st32{fill:none;stroke:#000000;stroke-width:1.6838;stroke-miterlimit:10;}
	.st33{fill:none;stroke:#000000;stroke-width:1.6605;stroke-miterlimit:10;}
	.st34{fill:none;stroke:#000000;stroke-width:1.2082;stroke-miterlimit:10;}
	.st35{fill:none;stroke:#000000;stroke-width:1.1058;stroke-miterlimit:10;}
	.st36{fill:none;stroke:#000000;stroke-width:1.391;stroke-linejoin:round;stroke-miterlimit:10;}
	.st37{fill:none;stroke:#000000;stroke-width:1.3476;stroke-linejoin:round;stroke-miterlimit:10;}
	.st38{fill:none;stroke:#000000;stroke-width:0.7027;stroke-miterlimit:10;}
	.st39{fill:none;stroke:#FFFFFF;stroke-width:0.818;stroke-miterlimit:22.926;}
	.st40{opacity:0.5;fill:none;stroke:#FFFFFF;stroke-width:0.818;stroke-miterlimit:10;}
	.st41{opacity:0.5;fill:#FFFFFF;}
	.st42{fill:#FFFFFF;}
	.st43{fill:none;stroke:#000000;stroke-width:0.818;stroke-miterlimit:22.926;}
	.st44{opacity:0.5;fill:none;stroke:#231815;stroke-width:0.818;stroke-miterlimit:10;}
	.st45{opacity:0.5;fill:#231815;}
	.st46{fill:none;stroke:#FFFFFF;stroke-width:1.3906;stroke-linecap:round;stroke-miterlimit:10;}
	.st47{fill:none;stroke:#FFFFFF;stroke-width:0.7027;stroke-miterlimit:10;}
	.st48{fill:none;stroke:#231815;stroke-width:0.215;stroke-miterlimit:10;}
	.st49{fill:none;stroke:#231815;stroke-width:0.209;stroke-miterlimit:10;}
	.st50{fill:none;stroke:#FFFFFF;stroke-width:0.186;stroke-miterlimit:10;}
	.st51{fill:none;stroke:#231815;stroke-width:0.186;stroke-miterlimit:10;}
</style>
<path class="st46" d="M30.3,4.81c-0.38,0.3-0.63,0.76-0.63,1.28v26.63c0,0.49,0.22,0.93,0.56,1.23"/>
<path class="st46" d="M30.26,4.68c-0.12-0.21-0.55-0.22-0.55-0.22h-1.77H10.99c-0.94,0-1.7,0.76-1.7,1.7v26.58
	c0,0.94,0.76,1.7,1.7,1.7h7.73c0,0,0.27,0.01,0.31-0.06c0.04-0.07,0.12-0.08,0.15-0.08H21c0,0,0.12-0.01,0.15,0.05
	c0.03,0.05,0.13,0.08,0.22,0.08c0.09,0,8.19,0.01,8.19,0.01c0.23,0,0.45-0.09,0.58-0.14c0.14-0.05,0.16-0.2,0.16-0.28"/>
<path class="st47" d="M14.67,10.65h-2.34c-0.56,0-1.02-0.46-1.02-1.02V7.33c0-0.56,0.46-1.02,1.02-1.02h2.34
	c0.56,0,1.02,0.46,1.02,1.02v2.29C15.69,10.19,15.23,10.65,14.67,10.65z"/>
<path class="st50" d="M19.76,32.85c0,0.08-0.07,0.15-0.15,0.15c-0.08,0-0.15-0.07-0.15-0.15c0-0.08,0.07-0.15,0.15-0.15
	C19.7,32.7,19.76,32.77,19.76,32.85z"/>
<path class="st50" d="M20.35,32.85c0,0.08-0.07,0.15-0.15,0.15c-0.08,0-0.15-0.07-0.15-0.15c0-0.08,0.07-0.15,0.15-0.15
	C20.28,32.7,20.35,32.77,20.35,32.85z"/>
<path class="st50" d="M20.93,32.85c0,0.08-0.07,0.15-0.15,0.15c-0.08,0-0.15-0.07-0.15-0.15c0-0.08,0.07-0.15,0.15-0.15
	C20.87,32.7,20.93,32.77,20.93,32.85z"/>
</svg>
