<?xml version="1.0" encoding="utf-8"?>
<!-- Generator: Adobe Illustrator 23.0.0, SVG Export Plug-In . SVG Version: 6.00 Build 0)  -->
<svg version="1.1" id="图层_1" xmlns="http://www.w3.org/2000/svg" xmlns:xlink="http://www.w3.org/1999/xlink" x="0px" y="0px"
	 viewBox="0 0 37.98 37.98" style="enable-background:new 0 0 37.98 37.98;" xml:space="preserve">
<style type="text/css">
	.st0{fill:#FFFFFF;}
</style>
<g>
	<path class="st0" d="M18.99,4.12c3.97,0,7.71,1.55,10.52,4.36s4.36,6.54,4.36,10.52s-1.55,7.71-4.36,10.52
		c-2.81,2.81-6.54,4.36-10.52,4.36s-7.71-1.55-10.52-4.36c-2.81-2.81-4.36-6.54-4.36-10.52s1.55-7.71,4.36-10.52
		S15.02,4.12,18.99,4.12 M18.99,2.94c-4.11,0-8.22,1.57-11.35,4.7c-6.27,6.27-6.27,16.43,0,22.7c3.13,3.13,7.24,4.7,11.35,4.7
		s8.22-1.57,11.35-4.7c6.27-6.27,6.27-16.43,0-22.7C27.21,4.51,23.1,2.94,18.99,2.94L18.99,2.94z"/>
</g>
<g>
	<g>
		<path class="st0" d="M18.99,4.33c3.92,0,7.6,1.53,10.37,4.29c2.77,2.77,4.29,6.45,4.29,10.37s-1.53,7.6-4.29,10.37
			c-2.77,2.77-6.45,4.29-10.37,4.29s-7.6-1.53-10.37-4.29c-2.77-2.77-4.29-6.45-4.29-10.37s1.53-7.6,4.29-10.37
			C11.39,5.85,15.08,4.33,18.99,4.33 M18.99,2.94c-4.11,0-8.22,1.57-11.35,4.7c-6.27,6.27-6.27,16.43,0,22.7
			c3.13,3.13,7.24,4.7,11.35,4.7s8.22-1.57,11.35-4.7c6.27-6.27,6.27-16.43,0-22.7C27.21,4.51,23.1,2.94,18.99,2.94L18.99,2.94z"/>
	</g>
</g>
<g>
	<path class="st0" d="M18.99,8.89c2.7,0,5.23,1.05,7.14,2.96c3.94,3.94,3.94,10.34,0,14.28c-1.91,1.91-4.44,2.96-7.14,2.96
		s-5.23-1.05-7.14-2.96c-3.94-3.94-3.94-10.34,0-14.28C13.76,9.95,16.3,8.89,18.99,8.89 M18.99,8.09c-2.79,0-5.58,1.06-7.71,3.19
		c-4.26,4.26-4.26,11.16,0,15.41c2.13,2.13,4.92,3.19,7.71,3.19s5.58-1.06,7.71-3.19c4.26-4.26,4.26-11.16,0-15.41
		C24.57,9.16,21.78,8.09,18.99,8.09L18.99,8.09z"/>
</g>
<g>
	<path class="st0" d="M18.99,12.67c1.69,0,3.28,0.66,4.47,1.85c1.19,1.19,1.85,2.78,1.85,4.47s-0.66,3.28-1.85,4.47
		c-1.19,1.19-2.78,1.85-4.47,1.85c-1.69,0-3.28-0.66-4.47-1.85c-1.19-1.19-1.85-2.78-1.85-4.47s0.66-3.28,1.85-4.47
		C15.71,13.32,17.3,12.67,18.99,12.67 M18.99,12.16c-1.75,0-3.5,0.67-4.83,2c-2.67,2.67-2.67,6.99,0,9.66c1.33,1.33,3.08,2,4.83,2
		s3.5-0.67,4.83-2c2.67-2.67,2.67-6.99,0-9.66C22.49,12.83,20.74,12.16,18.99,12.16L18.99,12.16z"/>
</g>
<g>
	<polygon class="st0" points="16.19,19.41 18.84,19.87 19.83,14.14 	"/>
	<polygon class="st0" points="21.79,18.57 19.15,18.11 18.15,23.84 	"/>
</g>
</svg>
