<?xml version="1.0" encoding="utf-8"?>
<!-- Generator: Adobe Illustrator 16.0.0, SVG Export Plug-In . SVG Version: 6.00 Build 0)  -->
<!DOCTYPE svg PUBLIC "-//W3C//DTD SVG 1.1//EN" "http://www.w3.org/Graphics/SVG/1.1/DTD/svg11.dtd">
<svg version="1.1" id="图层_1" xmlns="http://www.w3.org/2000/svg" xmlns:xlink="http://www.w3.org/1999/xlink" x="0px" y="0px"
	 width="100px" height="100px" viewBox="247.64 370.945 100 100" enable-background="new 247.64 370.945 100 100"
	 xml:space="preserve">
<g>
	<line fill="none" stroke="#FFFFFF" stroke-miterlimit="10" x1="297.64" y1="384.07" x2="297.64" y2="457.82"/>
	<g>
		<path fill="#FFFFFF" d="M297.64,372.195c26.875,0,48.75,21.875,48.75,48.75c0,26.875-21.875,48.75-48.75,48.75
			s-48.75-21.875-48.75-48.75C248.89,394.07,270.765,372.195,297.64,372.195 M297.64,370.945c-27.625,0-50,22.375-50,50
			c0,27.625,22.375,50,50,50s50-22.375,50-50C347.64,393.32,325.265,370.945,297.64,370.945L297.64,370.945z"/>
	</g>
	<g>
		<line fill="none" stroke="#FFFFFF" stroke-width="4" stroke-miterlimit="10" x1="268.64" y1="398.82" x2="291.39" y2="398.82"/>
		<line fill="none" stroke="#FFFFFF" stroke-width="4" stroke-miterlimit="10" x1="268.64" y1="407.695" x2="291.39" y2="407.695"/>
		<line fill="none" stroke="#FFFFFF" stroke-width="4" stroke-miterlimit="10" x1="268.64" y1="416.57" x2="291.39" y2="416.57"/>
		<line fill="none" stroke="#FFFFFF" stroke-width="4" stroke-miterlimit="10" x1="306.89" y1="398.82" x2="329.64" y2="398.82"/>
		<line fill="none" stroke="#FFFFFF" stroke-width="4" stroke-miterlimit="10" x1="306.89" y1="407.695" x2="329.64" y2="407.695"/>
		<line fill="none" stroke="#FFFFFF" stroke-width="4" stroke-miterlimit="10" x1="306.89" y1="416.57" x2="329.64" y2="416.57"/>
		<line fill="none" stroke="#FFFFFF" stroke-width="4" stroke-miterlimit="10" x1="268.64" y1="425.32" x2="291.39" y2="425.32"/>
		
			<line fill="none" stroke="#FFFFFF" stroke-width="4" stroke-miterlimit="10" x1="268.64" y1="434.194" x2="284.015" y2="434.194"/>
		
			<line fill="none" stroke="#FFFFFF" stroke-width="4" stroke-miterlimit="10" x1="268.64" y1="443.069" x2="284.015" y2="443.069"/>
		<g>
			<g>
				
					<line fill="none" stroke="#FFFFFF" stroke-width="4" stroke-miterlimit="10" x1="306.89" y1="425.32" x2="308.765" y2="425.32"/>
				
					<line fill="none" stroke="#FFFFFF" stroke-width="4" stroke-miterlimit="10" stroke-dasharray="3.0379,3.0379" x1="312.515" y1="425.32" x2="325.89" y2="425.32"/>
				
					<line fill="none" stroke="#FFFFFF" stroke-width="4" stroke-miterlimit="10" x1="327.765" y1="425.32" x2="329.64" y2="425.32"/>
			</g>
		</g>
		<g>
			<g>
				
					<line fill="none" stroke="#FFFFFF" stroke-width="4" stroke-miterlimit="10" x1="306.89" y1="434.194" x2="308.765" y2="434.194"/>
				
					<line fill="none" stroke="#FFFFFF" stroke-width="4" stroke-miterlimit="10" stroke-dasharray="3.0842,3.0842" x1="312.64" y1="434.194" x2="318.39" y2="434.194"/>
				
					<line fill="none" stroke="#FFFFFF" stroke-width="4" stroke-miterlimit="10" x1="320.265" y1="434.194" x2="322.14" y2="434.194"/>
			</g>
		</g>
		<g>
			<g>
				
					<line fill="none" stroke="#FFFFFF" stroke-width="4" stroke-miterlimit="10" x1="306.89" y1="443.069" x2="308.765" y2="443.069"/>
				
					<line fill="none" stroke="#FFFFFF" stroke-width="4" stroke-miterlimit="10" stroke-dasharray="3.0842,3.0842" x1="312.64" y1="443.069" x2="318.39" y2="443.069"/>
				
					<line fill="none" stroke="#FFFFFF" stroke-width="4" stroke-miterlimit="10" x1="320.265" y1="443.069" x2="322.14" y2="443.069"/>
			</g>
		</g>
	</g>
</g>
</svg>
