<?xml version="1.0" encoding="utf-8"?>
<!-- Generator: Adobe Illustrator 23.0.0, SVG Export Plug-In . SVG Version: 6.00 Build 0)  -->
<svg version="1.1" id="图层_1" xmlns="http://www.w3.org/2000/svg" xmlns:xlink="http://www.w3.org/1999/xlink" x="0px" y="0px"
	 viewBox="0 0 38 38" style="enable-background:new 0 0 38 38;" xml:space="preserve">
<style type="text/css">
	.st0{fill:#FFFFFF;}
</style>
<path class="st0" d="M19.1,32.9c0.2,0.2,0.4,0.1,0.4-0.2v-0.3c0-0.4-0.2-0.7-0.4-0.9l-0.9-0.8c-0.2-0.2-0.4-0.1-0.4,0.2v0.3
	c0,0.3,0.1,0.7,0.4,0.9L19.1,32.9z M17,30.7l-1,0.8c-0.3,0.2-0.4,0.6-0.4,0.9v0.3c0,0.3,0.2,0.4,0.4,0.2l1-0.8
	c0.3-0.2,0.4-0.6,0.4-0.9v-0.3C17.4,30.6,17.2,30.5,17,30.7z M15.3,32.8v-0.3c0-0.4-0.2-0.7-0.4-0.9l-0.9-0.8c0,0,0,0-0.1,0
	c0.1,0.2,0.1,0.4,0.1,0.7c0,0.3,0.1,0.6,0.1,1l0.8,0.7C15,33.1,15.2,33.1,15.3,32.8z M24.6,31.5c-0.3,0.2-0.4,0.6-0.4,0.9v0.3
	c0,0.3,0.2,0.4,0.4,0.2l0.7-0.6c0-0.6,0.2-1.1,0.4-1.7h-0.1L24.6,31.5z M21.3,30.7l-1,0.8c-0.3,0.2-0.4,0.6-0.4,0.9v0.3
	c0,0.3,0.2,0.4,0.4,0.2l1-0.8c0.3-0.2,0.4-0.6,0.4-0.9v-0.3C21.7,30.6,21.5,30.5,21.3,30.7z M18.2,32.6c-0.2-0.2-0.4-0.1-0.4,0.2
	v0.3c0,0.4,0.2,0.7,0.4,0.9l1,0.8c0.2,0.2,0.4,0.1,0.4-0.2v-0.3c0-0.4-0.2-0.7-0.4-0.9L18.2,32.6z M17.8,34.8V35c0,0,0,0.1,0,0.1
	c0.4,0,0.8,0,1.2,0l-0.8-0.7C18,34.4,17.8,34.4,17.8,34.8z M17,34.6l-0.6,0.5c0.3,0,0.7,0.1,1,0.1c0,0,0-0.1,0-0.1v-0.3
	C17.4,34.5,17.2,34.4,17,34.6z M17.4,33.1v-0.3c0-0.3-0.2-0.4-0.4-0.2L16,33.5c-0.2,0.2-0.4,0.6-0.4,0.9v0.3c0,0.3,0.2,0.4,0.4,0.2
	L17,34C17.2,33.8,17.4,33.5,17.4,33.1z M14.1,32.8c0,0.4,0,0.8,0.1,1.2c0.1,0.5,0.5,0.8,1,0.9l0,0c0.1-0.1,0.1-0.2,0.1-0.2v-0.3
	c0-0.4-0.2-0.7-0.4-0.9L14.1,32.8z M24.2,34.4v0.3c0,0.1,0,0.1,0,0.2l0,0c0.5-0.1,0.9-0.4,1-0.9c0-0.2,0-0.6,0-1l-0.6,0.5
	C24.3,33.7,24.2,34.1,24.2,34.4z M22.4,32.6c-0.2-0.2-0.4-0.1-0.4,0.2v0.3c0,0.4,0.2,0.7,0.4,0.9l1,0.8c0.2,0.2,0.4,0.1,0.4-0.2
	v-0.3c0-0.4-0.2-0.7-0.4-0.9L22.4,32.6z M22.4,30.7c-0.2-0.2-0.4-0.1-0.4,0.2v0.3c0,0.3,0.2,0.7,0.4,0.9l1,0.8
	c0.2,0.2,0.4,0.1,0.4-0.2v-0.3c0-0.4-0.2-0.7-0.4-0.9L22.4,30.7z M22.1,34.8V35c0,0,0,0.1,0,0.1l1-0.1l-0.6-0.5
	C22.2,34.4,22.1,34.4,22.1,34.8z M21.3,34.6l-0.8,0.6c0.4,0,0.8,0,1.2,0c0,0,0-0.1,0-0.1v-0.3C21.7,34.5,21.5,34.4,21.3,34.6z
	 M21.7,33.1v-0.3c0-0.3-0.2-0.4-0.4-0.2l-0.9,0.8c-0.2,0.2-0.4,0.6-0.4,0.9v0.3c0,0.3,0.2,0.4,0.4,0.2l0.9-0.8
	C21.5,33.8,21.7,33.5,21.7,33.1z M19.1,4.6l-0.9,0.8c-0.2,0.2-0.4,0.6-0.4,0.9v0.3C17.7,7,18,7,18.2,6.8L19.1,6
	c0.2-0.2,0.4-0.6,0.4-0.9V4.8C19.5,4.5,19.3,4.4,19.1,4.6z M17,6.8c0.2,0.2,0.4,0.1,0.4-0.2V6.4c0-0.4-0.2-0.7-0.4-0.9l-1-0.8
	c-0.2-0.2-0.4-0.1-0.4,0.2v0.3c0,0.4,0.2,0.7,0.4,0.9L17,6.8z M14.9,6c0.2-0.2,0.4-0.6,0.4-0.9V4.8c0-0.3-0.2-0.4-0.4-0.2L14,5.3
	c0,0.2,0,0.3-0.1,0.4c0,0.4-0.1,0.8-0.3,1.2c0.1,0,0.1-0.1,0.2-0.1L14.9,6z M25.5,6.8c0,0,0.1,0.1,0.2,0.1c0-0.1-0.1-0.2-0.1-0.3
	c-0.1-0.4-0.1-0.8-0.2-1.2l-0.9-0.7c-0.2-0.2-0.4-0.1-0.4,0.2v0.3c0,0.4,0.2,0.7,0.4,0.9L25.5,6.8z M21.3,6.8
	c0.2,0.2,0.4,0.1,0.4-0.2V6.4c0-0.4-0.2-0.7-0.4-0.9l-1-0.8c-0.2-0.2-0.4-0.1-0.4,0.2v0.3c0,0.4,0.2,0.7,0.4,0.9L21.3,6.8z
	 M18.2,4.9l1-0.8c0.3-0.2,0.4-0.6,0.4-0.9V2.9c0-0.3-0.2-0.4-0.4-0.2l-1,0.8c-0.3,0.2-0.4,0.6-0.4,0.9v0.3C17.7,5,17.9,5.1,18.2,4.9
	z M18.2,3l0.6-0.5h-1v0.3C17.8,3.1,18,3.2,18.2,3z M17.4,2.8V2.5l-0.9,0.1L17,3C17.2,3.2,17.4,3.1,17.4,2.8z M17,4.9
	c0.2,0.2,0.4,0.1,0.4-0.2V4.5c0-0.4-0.1-0.7-0.4-0.9l-0.9-0.8c0,0-0.1,0-0.1-0.1h-0.3c0,0.1-0.1,0.1-0.1,0.2v0.3
	c0,0.4,0.2,0.7,0.4,0.9L17,4.9z M15.3,3.2V2.9c0,0,0-0.1,0-0.1h-0.1c-0.5,0.1-0.8,0.5-0.9,0.9c0,0.2-0.1,0.7-0.1,1.1l0.8-0.6
	C15.1,3.9,15.3,3.6,15.3,3.2z M25.4,4.8c0-0.3-0.1-0.6-0.1-0.9c-0.1-0.5-0.5-0.9-1-1c0,0,0,0,0,0v0.3c0,0.4,0.2,0.7,0.4,0.9
	L25.4,4.8z M22.4,4.9l1-0.8c0.3-0.2,0.4-0.6,0.4-0.9V2.9c0-0.1,0-0.1,0-0.2l-0.4,0h0l-1,0.8C22.2,3.7,22.1,4,22,4.4v0.3
	C22,5,22.2,5.1,22.4,4.9z M22.4,6.9l1-0.8c0.3-0.2,0.4-0.6,0.4-0.9V4.8c0-0.3-0.2-0.4-0.4-0.2l-1,0.8C22.2,5.6,22,6,22,6.4v0.3
	C22,7,22.2,7.1,22.4,6.9z M22.5,3l0.4-0.4l-0.8-0.1v0.2C22.1,3.1,22.2,3.2,22.5,3z M21.7,2.8V2.5c-0.3,0-0.7,0-1,0L21.3,3
	C21.5,3.2,21.7,3.1,21.7,2.8z M21.3,4.9c0.2,0.2,0.4,0.1,0.4-0.2V4.5c0-0.4-0.2-0.7-0.4-0.9l-0.9-0.8c-0.2-0.2-0.4-0.1-0.4,0.2v0.3
	c0,0.4,0.2,0.7,0.4,0.9L21.3,4.9z M28.3,13.4v-1.3c0-1.5-1-2.8-2.4-3.2C25.9,8.8,26,8.7,26,8.6V8.3c0-0.4-0.2-0.7-0.4-0.9l-0.9-0.8
	c-0.2-0.2-0.4-0.1-0.4,0.2V7c0,0.4,0.2,0.7,0.4,0.9l0.9,0.8c-0.2,0-0.4-0.1-0.6-0.1h-2.3L23.4,8c0.3-0.2,0.4-0.6,0.4-0.9V6.8
	c0-0.3-0.2-0.4-0.4-0.2l-1,0.8C22.2,7.6,22,7.9,22,8.3v0.3c0,0.1,0,0.1,0,0.2h-0.4c0,0,0-0.1,0-0.1V8.3c0-0.4-0.1-0.7-0.4-0.9
	l-0.9-0.8c-0.2-0.2-0.4-0.1-0.4,0.2V7c0,0.4,0.2,0.7,0.4,0.9l0.9,0.7h-2.9L19.1,8c0.3-0.2,0.4-0.6,0.4-0.9V6.8
	c0-0.3-0.2-0.4-0.4-0.2l-1,0.8c-0.3,0.2-0.4,0.6-0.4,0.9v0.3c0,0,0,0.1,0,0.1h-0.4c0,0,0-0.1,0-0.1V8.3c0-0.4-0.1-0.7-0.4-0.9
	l-0.9-0.8c-0.2-0.2-0.4-0.1-0.4,0.2V7c0,0.4,0.2,0.7,0.4,0.9l0.8,0.7h-2.3c-0.2,0-0.4,0-0.6,0.1L14.8,8c0.3-0.2,0.4-0.6,0.4-0.9V6.8
	c0-0.3-0.2-0.4-0.4-0.2l-1,0.8c-0.2,0.3-0.4,0.6-0.4,1v0.3c0,0.1,0,0.2,0.1,0.3c-1.4,0.4-2.4,1.7-2.4,3.2v13.5
	c0,1.5,0.9,2.8,2.3,3.2c0,0.1,0,0.1,0,0.2v0.3c0,0.4,0.2,0.7,0.4,0.9l1,0.8c0.2,0.2,0.4,0.1,0.4-0.2v-0.3c0-0.4-0.2-0.7-0.4-0.9
	l-0.8-0.6c0.1,0,0.3,0,0.4,0h2.2L16,29.6c-0.3,0.3-0.4,0.6-0.4,1v0.3c0,0.3,0.2,0.4,0.4,0.2l0.9-0.8c0.2-0.2,0.4-0.6,0.4-0.9V29h0.3
	v0.3c0,0.4,0.2,0.7,0.4,0.9l1,0.8c0.2,0.2,0.4,0.1,0.4-0.2v-0.3c0-0.4-0.2-0.7-0.4-0.9L18.4,29H21l-0.7,0.6
	c-0.2,0.2-0.4,0.6-0.4,0.9v0.3c0,0.3,0.2,0.4,0.4,0.2l0.9-0.8c0.2-0.2,0.4-0.6,0.4-0.9V29H22v0.3c0,0.4,0.2,0.7,0.4,0.9l1,0.8
	c0.2,0.2,0.4,0.1,0.4-0.2v-0.3c0-0.4-0.2-0.7-0.4-0.9L22.7,29H25c0.1,0,0.2,0,0.3,0l-0.7,0.6c-0.2,0.2-0.4,0.6-0.4,0.9v0.3
	c0,0.3,0.2,0.4,0.4,0.2l0.9-0.8c0.2-0.3,0.4-0.6,0.4-1V29c0,0,0-0.1,0-0.1c1.4-0.4,2.3-1.7,2.3-3.1v-8.4h0.8v-3.9H28.3z M27.5,13.4
	v12.3c0,1.4-1.1,2.5-2.5,2.5H14.5c-1.4,0-2.6-1.2-2.6-2.6V12.1c0-1.4,1.2-2.6,2.6-2.6h10.4c1.4,0,2.6,1.2,2.6,2.6V13.4z"/>
</svg>
