<svg xmlns="http://www.w3.org/2000/svg" xmlns:xlink="http://www.w3.org/1999/xlink" viewBox="0 0 32 32"><defs><style>.cls-1{fill:none;}.cls-2{clip-path:url(#clip-path);}.cls-3{fill:#1c80d3;}.cls-4{fill:#e88f6b;}.cls-5{fill:#383c42;}.cls-6{fill:#0c0e11;}.cls-7{fill:#8c100a;}.cls-8{fill:#54071f;}.cls-9{fill:#82995b;}</style><clipPath id="clip-path" transform="translate(0 0)"><circle class="cls-1" cx="16" cy="16" r="16"/></clipPath></defs><title>协奏</title><g id="图层_2" data-name="图层 2"><g id="图层_1-2" data-name="图层 1"><g class="cls-2"><rect class="cls-3" x="4" width="4" height="4"/><rect class="cls-4" x="12" width="4" height="4"/><rect class="cls-5" x="8" width="4" height="4"/><rect class="cls-5" x="4" y="4" width="4" height="4"/><rect class="cls-5" x="12" y="4" width="4" height="4"/><rect class="cls-5" x="20" y="4" width="4" height="4"/><rect class="cls-5" x="24" y="16" width="4" height="4"/><rect class="cls-5" x="24" y="20" width="4" height="4"/><rect class="cls-5" x="28" y="28" width="4" height="4"/><rect class="cls-5" x="28" y="12" width="4" height="4"/><rect class="cls-5" x="28" y="16" width="4" height="4"/><rect class="cls-5" y="8" width="4" height="4"/><rect class="cls-5" y="12" width="4" height="4"/><rect class="cls-5" y="24" width="4" height="4"/><rect class="cls-5" y="28" width="4" height="4"/><rect class="cls-5" x="24" width="4" height="4"/><rect class="cls-5" x="28" width="4" height="4"/><rect class="cls-5" x="24" y="4" width="4" height="4"/><rect class="cls-6" x="24" y="8" width="4" height="4"/><rect class="cls-6" x="24" y="12" width="4" height="4"/><rect class="cls-6" x="28" y="4" width="4" height="4"/><rect class="cls-6" x="28" y="8" width="4" height="4"/><rect class="cls-6" x="28" y="20" width="4" height="4"/><rect class="cls-6" x="28" y="24" width="4" height="4"/><rect class="cls-6" y="16" width="4" height="4"/><rect class="cls-6" y="20" width="4" height="4"/><rect class="cls-6" width="4" height="4"/><rect class="cls-6" y="4" width="4" height="4"/><rect class="cls-6" x="24" y="24" width="4" height="4"/><rect class="cls-6" x="24" y="28" width="4" height="4"/><rect class="cls-7" x="16" y="4" width="4" height="4"/><rect class="cls-5" x="16" width="4" height="4"/><rect class="cls-8" x="20" width="4" height="4"/><rect class="cls-9" x="8" y="4" width="4" height="4"/><rect class="cls-3" x="4" y="8" width="4" height="4"/><rect class="cls-4" x="12" y="8" width="4" height="4"/><rect class="cls-5" x="8" y="8" width="4" height="4"/><rect class="cls-5" x="4" y="12" width="4" height="4"/><rect class="cls-5" x="12" y="12" width="4" height="4"/><rect class="cls-5" x="20" y="12" width="4" height="4"/><rect class="cls-7" x="16" y="12" width="4" height="4"/><rect class="cls-5" x="16" y="8" width="4" height="4"/><rect class="cls-8" x="20" y="8" width="4" height="4"/><rect class="cls-9" x="8" y="12" width="4" height="4"/><rect class="cls-3" x="4" y="16" width="4" height="4"/><rect class="cls-4" x="12" y="16" width="4" height="4"/><rect class="cls-5" x="8" y="16" width="4" height="4"/><rect class="cls-5" x="4" y="20" width="4" height="4"/><rect class="cls-5" x="12" y="20" width="4" height="4"/><rect class="cls-5" x="20" y="20" width="4" height="4"/><rect class="cls-7" x="16" y="20" width="4" height="4"/><rect class="cls-5" x="16" y="16" width="4" height="4"/><rect class="cls-8" x="20" y="16" width="4" height="4"/><rect class="cls-9" x="8" y="20" width="4" height="4"/><rect class="cls-3" x="4" y="24" width="4" height="4"/><rect class="cls-4" x="12" y="24" width="4" height="4"/><rect class="cls-5" x="8" y="24" width="4" height="4"/><rect class="cls-5" x="4" y="28" width="4" height="4"/><rect class="cls-5" x="12" y="28" width="4" height="4"/><rect class="cls-5" x="20" y="28" width="4" height="4"/><rect class="cls-7" x="16" y="28" width="4" height="4"/><rect class="cls-5" x="16" y="24" width="4" height="4"/><rect class="cls-8" x="20" y="24" width="4" height="4"/><rect class="cls-9" x="8" y="28" width="4" height="4"/></g></g></g></svg>