<?xml version="1.0" encoding="utf-8"?>
<!-- Generator: Adobe Illustrator 23.0.0, SVG Export Plug-In . SVG Version: 6.00 Build 0)  -->
<svg version="1.1" id="图层_1" xmlns="http://www.w3.org/2000/svg" xmlns:xlink="http://www.w3.org/1999/xlink" x="0px" y="0px"
	 viewBox="0 0 37.98 37.98" style="enable-background:new 0 0 37.98 37.98;" xml:space="preserve">
<style type="text/css">
	.st0{fill:none;stroke:#fff;stroke-width:1.391;stroke-linejoin:round;stroke-miterlimit:10;}
	.st1{clip-path:url(#SVGID_2_);}
	.st2{fill:none;stroke:#fff;stroke-width:0.1574;stroke-linejoin:round;stroke-miterlimit:10;}
	.st3{fill:none;stroke:#fff;stroke-width:1.3476;stroke-linejoin:round;stroke-miterlimit:10;}
</style>
<g>
	<g>
		<defs>
			<path id="SVGID_1_" d="M34.34,18.99c0,8.48-6.87,15.35-15.35,15.35S3.64,27.47,3.64,18.99S10.52,3.64,18.99,3.64
				S34.34,10.52,34.34,18.99z M18.99,6.69c-6.79,0-12.3,5.51-12.3,12.3s5.51,12.3,12.3,12.3s12.3-5.51,12.3-12.3
				S25.78,6.69,18.99,6.69z"/>
		</defs>
		<clipPath id="SVGID_2_">
			<use xlink:href="#SVGID_1_"  style="overflow:visible;"/>
		</clipPath>
		<g class="st1">
			<line class="st2" x1="-66.56" y1="-1.48" x2="47.76" y2="112.84"/>
			<line class="st2" x1="-65.84" y1="-2.2" x2="48.48" y2="112.12"/>
			<line class="st2" x1="-65.12" y1="-2.92" x2="49.2" y2="111.4"/>
			<line class="st2" x1="-64.4" y1="-3.64" x2="49.92" y2="110.68"/>
			<line class="st2" x1="-63.69" y1="-4.36" x2="50.64" y2="109.96"/>
			<line class="st2" x1="-62.97" y1="-5.08" x2="51.35" y2="109.24"/>
			<line class="st2" x1="-62.25" y1="-5.8" x2="52.07" y2="108.52"/>
			<line class="st2" x1="-61.53" y1="-6.52" x2="52.79" y2="107.81"/>
			<line class="st2" x1="-60.81" y1="-7.23" x2="53.51" y2="107.09"/>
			<line class="st2" x1="-60.09" y1="-7.95" x2="54.23" y2="106.37"/>
			<line class="st2" x1="-59.37" y1="-8.67" x2="54.95" y2="105.65"/>
			<line class="st2" x1="-58.65" y1="-9.39" x2="55.67" y2="104.93"/>
			<line class="st2" x1="-57.94" y1="-10.11" x2="56.39" y2="104.21"/>
			<line class="st2" x1="-57.22" y1="-10.83" x2="57.1" y2="103.49"/>
			<line class="st2" x1="-56.5" y1="-11.55" x2="57.82" y2="102.77"/>
			<line class="st2" x1="-55.78" y1="-12.27" x2="58.54" y2="102.06"/>
			<line class="st2" x1="-55.06" y1="-12.98" x2="59.26" y2="101.34"/>
			<line class="st2" x1="-54.34" y1="-13.7" x2="59.98" y2="100.62"/>
			<line class="st2" x1="-53.62" y1="-14.42" x2="60.7" y2="99.9"/>
			<line class="st2" x1="-52.9" y1="-15.14" x2="61.42" y2="99.18"/>
			<line class="st2" x1="-52.19" y1="-15.86" x2="62.14" y2="98.46"/>
			<line class="st2" x1="-51.47" y1="-16.58" x2="62.85" y2="97.74"/>
			<line class="st2" x1="-50.75" y1="-17.3" x2="63.57" y2="97.02"/>
			<line class="st2" x1="-50.03" y1="-18.02" x2="64.29" y2="96.31"/>
			<line class="st2" x1="-49.31" y1="-18.73" x2="65.01" y2="95.59"/>
			<line class="st2" x1="-48.59" y1="-19.45" x2="65.73" y2="94.87"/>
			<line class="st2" x1="-47.87" y1="-20.17" x2="66.45" y2="94.15"/>
			<line class="st2" x1="-47.15" y1="-20.89" x2="67.17" y2="93.43"/>
			<line class="st2" x1="-46.44" y1="-21.61" x2="67.89" y2="92.71"/>
			<line class="st2" x1="-45.72" y1="-22.33" x2="68.6" y2="91.99"/>
			<line class="st2" x1="-45" y1="-23.05" x2="69.32" y2="91.27"/>
			<line class="st2" x1="-44.28" y1="-23.76" x2="70.04" y2="90.56"/>
			<line class="st2" x1="-43.56" y1="-24.48" x2="70.76" y2="89.84"/>
			<line class="st2" x1="-42.84" y1="-25.2" x2="71.48" y2="89.12"/>
			<line class="st2" x1="-42.12" y1="-25.92" x2="72.2" y2="88.4"/>
			<line class="st2" x1="-41.4" y1="-26.64" x2="72.92" y2="87.68"/>
			<line class="st2" x1="-40.69" y1="-27.36" x2="73.64" y2="86.96"/>
			<line class="st2" x1="-39.97" y1="-28.08" x2="74.35" y2="86.24"/>
			<line class="st2" x1="-39.25" y1="-28.8" x2="75.07" y2="85.52"/>
			<line class="st2" x1="-38.53" y1="-29.51" x2="75.79" y2="84.81"/>
			<line class="st2" x1="-37.81" y1="-30.23" x2="76.51" y2="84.09"/>
			<line class="st2" x1="-37.09" y1="-30.95" x2="77.23" y2="83.37"/>
			<line class="st2" x1="-36.37" y1="-31.67" x2="77.95" y2="82.65"/>
			<line class="st2" x1="-35.65" y1="-32.39" x2="78.67" y2="81.93"/>
			<line class="st2" x1="-34.94" y1="-33.11" x2="79.39" y2="81.21"/>
			<line class="st2" x1="-34.22" y1="-33.83" x2="80.1" y2="80.49"/>
			<line class="st2" x1="-33.5" y1="-34.55" x2="80.82" y2="79.77"/>
			<line class="st2" x1="-32.78" y1="-35.26" x2="81.54" y2="79.06"/>
			<line class="st2" x1="-32.06" y1="-35.98" x2="82.26" y2="78.34"/>
			<line class="st2" x1="-31.34" y1="-36.7" x2="82.98" y2="77.62"/>
			<line class="st2" x1="-30.62" y1="-37.42" x2="83.7" y2="76.9"/>
			<line class="st2" x1="-29.9" y1="-38.14" x2="84.42" y2="76.18"/>
			<line class="st2" x1="-29.19" y1="-38.86" x2="85.14" y2="75.46"/>
			<line class="st2" x1="-28.47" y1="-39.58" x2="85.85" y2="74.74"/>
			<line class="st2" x1="-27.75" y1="-40.3" x2="86.57" y2="74.03"/>
			<line class="st2" x1="-27.03" y1="-41.01" x2="87.29" y2="73.31"/>
			<line class="st2" x1="-26.31" y1="-41.73" x2="88.01" y2="72.59"/>
			<line class="st2" x1="-25.59" y1="-42.45" x2="88.73" y2="71.87"/>
			<line class="st2" x1="-24.87" y1="-43.17" x2="89.45" y2="71.15"/>
			<line class="st2" x1="-24.15" y1="-43.89" x2="90.17" y2="70.43"/>
			<line class="st2" x1="-23.44" y1="-44.61" x2="90.89" y2="69.71"/>
			<line class="st2" x1="-22.72" y1="-45.33" x2="91.6" y2="68.99"/>
			<line class="st2" x1="-22" y1="-46.05" x2="92.32" y2="68.28"/>
			<line class="st2" x1="-21.28" y1="-46.76" x2="93.04" y2="67.56"/>
			<line class="st2" x1="-20.56" y1="-47.48" x2="93.76" y2="66.84"/>
			<line class="st2" x1="-19.84" y1="-48.2" x2="94.48" y2="66.12"/>
			<line class="st2" x1="-19.12" y1="-48.92" x2="95.2" y2="65.4"/>
			<line class="st2" x1="-18.4" y1="-49.64" x2="95.92" y2="64.68"/>
			<line class="st2" x1="-17.69" y1="-50.36" x2="96.64" y2="63.96"/>
			<line class="st2" x1="-16.97" y1="-51.08" x2="97.35" y2="63.24"/>
			<line class="st2" x1="-16.25" y1="-51.8" x2="98.07" y2="62.53"/>
			<line class="st2" x1="-15.53" y1="-52.51" x2="98.79" y2="61.81"/>
			<line class="st2" x1="-14.81" y1="-53.23" x2="99.51" y2="61.09"/>
			<line class="st2" x1="-14.09" y1="-53.95" x2="100.23" y2="60.37"/>
			<line class="st2" x1="-13.37" y1="-54.67" x2="100.95" y2="59.65"/>
			<line class="st2" x1="-12.65" y1="-55.39" x2="101.67" y2="58.93"/>
			<line class="st2" x1="-11.94" y1="-56.11" x2="102.39" y2="58.21"/>
			<line class="st2" x1="-11.22" y1="-56.83" x2="103.1" y2="57.49"/>
			<line class="st2" x1="-10.5" y1="-57.55" x2="103.82" y2="56.78"/>
			<line class="st2" x1="-9.78" y1="-58.26" x2="104.54" y2="56.06"/>
			<line class="st2" x1="-9.06" y1="-58.98" x2="105.26" y2="55.34"/>
			<line class="st2" x1="-8.34" y1="-59.7" x2="105.98" y2="54.62"/>
			<line class="st2" x1="-7.62" y1="-60.42" x2="106.7" y2="53.9"/>
			<line class="st2" x1="-6.9" y1="-61.14" x2="107.42" y2="53.18"/>
			<line class="st2" x1="-6.19" y1="-61.86" x2="108.14" y2="52.46"/>
			<line class="st2" x1="-8.34" y1="104.93" x2="105.98" y2="-9.39"/>
			<line class="st2" x1="-9.06" y1="104.21" x2="105.26" y2="-10.11"/>
			<line class="st2" x1="-9.78" y1="103.49" x2="104.54" y2="-10.83"/>
			<line class="st2" x1="-10.5" y1="102.77" x2="103.82" y2="-11.55"/>
			<line class="st2" x1="-11.22" y1="102.06" x2="103.1" y2="-12.27"/>
			<line class="st2" x1="-11.94" y1="101.34" x2="102.39" y2="-12.98"/>
			<line class="st2" x1="-12.65" y1="100.62" x2="101.67" y2="-13.7"/>
			<line class="st2" x1="-13.37" y1="99.9" x2="100.95" y2="-14.42"/>
			<line class="st2" x1="-14.09" y1="99.18" x2="100.23" y2="-15.14"/>
			<line class="st2" x1="-14.81" y1="98.46" x2="99.51" y2="-15.86"/>
			<line class="st2" x1="-15.53" y1="97.74" x2="98.79" y2="-16.58"/>
			<line class="st2" x1="-16.25" y1="97.02" x2="98.07" y2="-17.3"/>
			<line class="st2" x1="-16.97" y1="96.31" x2="97.35" y2="-18.02"/>
			<line class="st2" x1="-17.69" y1="95.59" x2="96.64" y2="-18.73"/>
			<line class="st2" x1="-18.4" y1="94.87" x2="95.92" y2="-19.45"/>
			<line class="st2" x1="-19.12" y1="94.15" x2="95.2" y2="-20.17"/>
			<line class="st2" x1="-19.84" y1="93.43" x2="94.48" y2="-20.89"/>
			<line class="st2" x1="-20.56" y1="92.71" x2="93.76" y2="-21.61"/>
			<line class="st2" x1="-21.28" y1="91.99" x2="93.04" y2="-22.33"/>
			<line class="st2" x1="-22" y1="91.27" x2="92.32" y2="-23.05"/>
			<line class="st2" x1="-22.72" y1="90.56" x2="91.6" y2="-23.76"/>
			<line class="st2" x1="-23.44" y1="89.84" x2="90.89" y2="-24.48"/>
			<line class="st2" x1="-24.15" y1="89.12" x2="90.17" y2="-25.2"/>
			<line class="st2" x1="-24.87" y1="88.4" x2="89.45" y2="-25.92"/>
			<line class="st2" x1="-25.59" y1="87.68" x2="88.73" y2="-26.64"/>
			<line class="st2" x1="-26.31" y1="86.96" x2="88.01" y2="-27.36"/>
			<line class="st2" x1="-27.03" y1="86.24" x2="87.29" y2="-28.08"/>
			<line class="st2" x1="-27.75" y1="85.52" x2="86.57" y2="-28.8"/>
			<line class="st2" x1="-28.47" y1="84.81" x2="85.85" y2="-29.51"/>
			<line class="st2" x1="-29.19" y1="84.09" x2="85.14" y2="-30.23"/>
			<line class="st2" x1="-29.9" y1="83.37" x2="84.42" y2="-30.95"/>
			<line class="st2" x1="-30.62" y1="82.65" x2="83.7" y2="-31.67"/>
			<line class="st2" x1="-31.34" y1="81.93" x2="82.98" y2="-32.39"/>
			<line class="st2" x1="-32.06" y1="81.21" x2="82.26" y2="-33.11"/>
			<line class="st2" x1="-32.78" y1="80.49" x2="81.54" y2="-33.83"/>
			<line class="st2" x1="-33.5" y1="79.77" x2="80.82" y2="-34.55"/>
			<line class="st2" x1="-34.22" y1="79.06" x2="80.1" y2="-35.26"/>
			<line class="st2" x1="-34.94" y1="78.34" x2="79.39" y2="-35.98"/>
			<line class="st2" x1="-35.65" y1="77.62" x2="78.67" y2="-36.7"/>
			<line class="st2" x1="-36.37" y1="76.9" x2="77.95" y2="-37.42"/>
			<line class="st2" x1="-37.09" y1="76.18" x2="77.23" y2="-38.14"/>
			<line class="st2" x1="-37.81" y1="75.46" x2="76.51" y2="-38.86"/>
			<line class="st2" x1="-38.53" y1="74.74" x2="75.79" y2="-39.58"/>
			<line class="st2" x1="-39.25" y1="74.03" x2="75.07" y2="-40.3"/>
			<line class="st2" x1="-39.97" y1="73.31" x2="74.35" y2="-41.01"/>
			<line class="st2" x1="-40.69" y1="72.59" x2="73.64" y2="-41.73"/>
			<line class="st2" x1="-41.4" y1="71.87" x2="72.92" y2="-42.45"/>
			<line class="st2" x1="-42.12" y1="71.15" x2="72.2" y2="-43.17"/>
			<line class="st2" x1="-42.84" y1="70.43" x2="71.48" y2="-43.89"/>
			<line class="st2" x1="-43.56" y1="69.71" x2="70.76" y2="-44.61"/>
			<line class="st2" x1="-44.28" y1="68.99" x2="70.04" y2="-45.33"/>
			<line class="st2" x1="-45" y1="68.28" x2="69.32" y2="-46.05"/>
			<line class="st2" x1="-45.72" y1="67.56" x2="68.6" y2="-46.76"/>
			<line class="st2" x1="-46.44" y1="66.84" x2="67.89" y2="-47.48"/>
			<line class="st2" x1="-47.15" y1="66.12" x2="67.17" y2="-48.2"/>
			<line class="st2" x1="-47.87" y1="65.4" x2="66.45" y2="-48.92"/>
			<line class="st2" x1="-48.59" y1="64.68" x2="65.73" y2="-49.64"/>
			<line class="st2" x1="-49.31" y1="63.96" x2="65.01" y2="-50.36"/>
			<line class="st2" x1="-50.03" y1="63.24" x2="64.29" y2="-51.08"/>
			<line class="st2" x1="-50.75" y1="62.53" x2="63.57" y2="-51.8"/>
			<line class="st2" x1="-51.47" y1="61.81" x2="62.85" y2="-52.51"/>
			<line class="st2" x1="-52.19" y1="61.09" x2="62.14" y2="-53.23"/>
			<line class="st2" x1="-52.9" y1="60.37" x2="61.42" y2="-53.95"/>
			<line class="st2" x1="-53.62" y1="59.65" x2="60.7" y2="-54.67"/>
			<line class="st2" x1="-54.34" y1="58.93" x2="59.98" y2="-55.39"/>
			<line class="st2" x1="-55.06" y1="58.21" x2="59.26" y2="-56.11"/>
			<line class="st2" x1="-55.78" y1="57.49" x2="58.54" y2="-56.83"/>
			<line class="st2" x1="-56.5" y1="56.78" x2="57.82" y2="-57.55"/>
			<line class="st2" x1="-57.22" y1="56.06" x2="57.1" y2="-58.26"/>
			<line class="st2" x1="-57.94" y1="55.34" x2="56.39" y2="-58.98"/>
			<line class="st2" x1="-58.65" y1="54.62" x2="55.67" y2="-59.7"/>
			<line class="st2" x1="-59.37" y1="53.9" x2="54.95" y2="-60.42"/>
			<line class="st2" x1="-60.09" y1="53.18" x2="54.23" y2="-61.14"/>
			<line class="st2" x1="-60.81" y1="52.46" x2="53.51" y2="-61.86"/>
			<line class="st2" x1="-61.53" y1="51.74" x2="52.79" y2="-62.58"/>
			<line class="st2" x1="-62.25" y1="51.03" x2="52.07" y2="-63.3"/>
			<line class="st2" x1="-62.97" y1="50.31" x2="51.35" y2="-64.01"/>
			<line class="st2" x1="-63.69" y1="49.59" x2="50.64" y2="-64.73"/>
			<line class="st2" x1="-64.4" y1="48.87" x2="49.92" y2="-65.45"/>
			<line class="st2" x1="-65.12" y1="48.15" x2="49.2" y2="-66.17"/>
			<line class="st2" x1="-65.84" y1="47.43" x2="48.48" y2="-66.89"/>
			<line class="st2" x1="-66.56" y1="46.71" x2="47.76" y2="-67.61"/>
			<line class="st2" x1="-67.28" y1="45.99" x2="47.04" y2="-68.33"/>
			<line class="st2" x1="-68" y1="45.28" x2="46.32" y2="-69.05"/>
			<line class="st2" x1="-68.72" y1="44.56" x2="45.6" y2="-69.76"/>
		</g>
	</g>
	<circle class="st0" cx="18.99" cy="18.99" r="15.35"/>
	<circle class="st0" cx="18.99" cy="18.99" r="12.3"/>
	<circle class="st0" cx="18.99" cy="12.85" r="6.14"/>
	<circle class="st0" cx="18.99" cy="25.13" r="6.14"/>
	<circle class="st3" cx="27.21" cy="18.94" r="4.06"/>
	<circle class="st3" cx="10.76" cy="18.94" r="4.06"/>
</g>
</svg>
