<?xml version="1.0" encoding="utf-8"?>
<!-- Generator: Adobe Illustrator 16.0.0, SVG Export Plug-In . SVG Version: 6.00 Build 0)  -->
<!DOCTYPE svg PUBLIC "-//W3C//DTD SVG 1.1//EN" "http://www.w3.org/Graphics/SVG/1.1/DTD/svg11.dtd">
<svg version="1.1" id="图层_1" xmlns="http://www.w3.org/2000/svg" xmlns:xlink="http://www.w3.org/1999/xlink" x="0px" y="0px"
	 width="90.015px" height="55.833px" viewBox="0 0 90.015 55.833" enable-background="new 0 0 90.015 55.833" xml:space="preserve">
<g>
	<defs>
		<rect id="SVGID_1_" x="0.015" width="90" height="55.833"/>
	</defs>
	<clipPath id="SVGID_2_">
		<use xlink:href="#SVGID_1_"  overflow="visible"/>
	</clipPath>
	<path clip-path="url(#SVGID_2_)" fill="#F7F9FB" d="M82.759,55.711H7.231C3.238,55.711,0,52.473,0,48.48V7.302
		C0,3.308,3.238,0.07,7.231,0.07h75.527c3.993,0,7.231,3.238,7.231,7.231V48.48C89.99,52.473,86.752,55.711,82.759,55.711
		L82.759,55.711z M82.759,55.711"/>
</g>
<g>
	<path fill="#EA001B" d="M23.024,27.891c0,7.433,6.026,13.459,13.459,13.459c7.433,0,13.458-6.026,13.458-13.459
		c0-7.433-6.025-13.459-13.458-13.459C29.05,14.432,23.024,20.458,23.024,27.891L23.024,27.891z M23.024,27.891"/>
	<path fill="#F79F1A" d="M40.048,27.891c0,7.433,6.026,13.459,13.458,13.459s13.459-6.026,13.459-13.459
		c0-7.433-6.026-13.459-13.459-13.459S40.048,20.458,40.048,27.891L40.048,27.891z M40.048,27.891"/>
</g>
<path fill="#FF5F01" d="M40.073,27.917c0,4.188,1.915,7.932,4.916,10.398c3.036-2.467,4.978-6.231,4.978-10.449
	c0-4.189-1.915-7.932-4.916-10.399C42.014,19.934,40.073,23.698,40.073,27.917L40.073,27.917z M40.073,27.917"/>
</svg>
