<?xml version="1.0" encoding="UTF-8"?>
<!DOCTYPE svg PUBLIC "-//W3C//DTD SVG 1.1//EN" "http://www.w3.org/Graphics/SVG/1.1/DTD/svg11.dtd">
<!-- Creator: CorelDRAW X6 -->
<svg xmlns="http://www.w3.org/2000/svg" xml:space="preserve" width="208.526mm" height="84.6222mm" version="1.1" style="shape-rendering:geometricPrecision; text-rendering:geometricPrecision; image-rendering:optimizeQuality; fill-rule:evenodd; clip-rule:evenodd"
viewBox="0 0 4795 1946"
 xmlns:xlink="http://www.w3.org/1999/xlink">
 <defs>
  <style type="text/css">
   <![CDATA[
    .fil0 {fill:#FEFEFE}
   ]]>
  </style>
 </defs>
 <g id="图层_x0020_1">
  <metadata id="CorelCorpID_0Corel-Layer"/>
  <g id="_957256800">
   <path class="fil0" d="M3114 294c-116,-171 -429,-294 -679,-294 -744,0 -1183,787 -871,1408 363,723 1297,639 1584,209 -22,-34 -275,-232 -285,-238l-47 38c-343,328 -968,77 -968,-441 0,-321 263,-591 578,-591 254,0 320,114 407,147l282 -238z"/>
   <path class="fil0" d="M3814 411c81,3 240,-9 307,6 78,17 142,89 139,182 -3,92 -70,155 -148,168 -82,14 -211,-1 -301,5l1 325c6,40 539,820 545,823l439 -1c-9,-33 -240,-352 -276,-403l-277 -398 47 -29c428,-204 443,-805 28,-1008 -122,-60 -343,-67 -508,-51l4 381z"/>
   <path class="fil0" d="M13 30c-16,41 -16,1722 -6,1890l382 0 -1 -1886c-60,-16 -302,-10 -375,-5z"/>
   <path class="fil0" d="M3337 1927c60,-14 323,-14 381,0l4 -1898 -383 -1 -2 1899z"/>
   <polygon class="fil0" points="2324,1177 3247,1177 3249,794 2325,794 "/>
   <path class="fil0" d="M490 36l248 0c463,0 748,508 444,879 444,325 223,1012 -313,1012l-379 0 0 -376 386 0c195,-68 215,-312 0,-381l-386 0 0 -386 304 0c182,-64 201,-292 0,-357l-304 0 0 -7 0 -383z"/>
  </g>
 </g>
</svg>
