<svg id="图层_1" data-name="图层 1" xmlns="http://www.w3.org/2000/svg" viewBox="0 0 595.32 101.21"><defs><style>.cls-1{fill:#fff;}</style></defs><title>m-trends</title><path class="cls-1" d="M.3,370.9H101.5v101c-.7.2-99.1.3-101.1.1l-.1-.1a.1.1,0,0,1-.1-.1V371.5C.3,371.4.3,371.2.3,370.9Zm45,22.7v22.3H23.2V427H45.5v22.3H56.7V427H79V415.8H56.7V393.5C52.8,393.6,49.1,393.6,45.3,393.6ZM23,443.8H43.9v-3.5a1.49,1.49,0,0,0-.1-.6H23c0,.2-.1.4-.1.6C23,441.4,23,442.6,23,443.8Zm.1,5.5c1.5.2,20.2.1,20.8-.1a12.38,12.38,0,0,0-.1-3.9H23C23.1,446.7,23.1,448,23.1,449.3Zm11-20.7H23v4.1H34.1Zm-11,9.6a100,100,0,0,0,11.1-.1v-3.9a100.65,100.65,0,0,0-11.1.1Z" transform="translate(-0.2 -370.9)"/><path class="cls-1" d="M490,417.9V441h-9.2c-.2-.7-.2-37.7-.1-38.9.2,0,.5-.1.7-.1h7.3a1.43,1.43,0,0,1,1.2.6c5.1,7,10.3,14.1,15.5,21.1a5.5,5.5,0,0,0,.7.9c.3-.3.2-.7.2-1,0-3,0-6-.1-8.9V402.2a71.55,71.55,0,0,1,9.3-.1v38.7c-.3,0-.6.1-.8.1h-7.1a1.36,1.36,0,0,1-1.3-.7c-5.1-7.1-10.3-14.2-15.4-21.3A11.15,11.15,0,0,1,490,417.9Z" transform="translate(-0.2 -370.9)"/><path class="cls-1" d="M524.1,440.9V402.1c.3,0,.5-.1.8-.1,5.6,0,11.1-.1,16.7,0a19.71,19.71,0,0,1,14.9,6.6,18.57,18.57,0,0,1,4.7,11,20.46,20.46,0,0,1-1.5,10.1,18.56,18.56,0,0,1-12.5,10.5,21.21,21.21,0,0,1-5.7.8H524.9A2.2,2.2,0,0,0,524.1,440.9Zm9.4-8.8c.1,0,.2.1.3.1a80.35,80.35,0,0,0,8.5-.1,9.56,9.56,0,0,0,8.6-6.5,10.64,10.64,0,0,0,.6-5.3c-.7-6.5-5.7-9.7-10.4-9.6h-7.6Z" transform="translate(-0.2 -370.9)"/><path class="cls-1" d="M430.3,426.6c2.9,4.8,5.7,9.5,8.6,14.3H428.4l-7.2-12.6h-4.8c-.1,1.4,0,2.8,0,4.2v8.4h-9.3V402.1c.2,0,.3-.1.4-.1,5.3,0,10.5,0,15.8.1a18,18,0,0,1,6.4,1.4c5.8,2.5,8,7.7,7.6,13.2a11.74,11.74,0,0,1-2.8,6.9,11.09,11.09,0,0,1-3.2,2.5A9.29,9.29,0,0,1,430.3,426.6Zm-13.8-6.7c2.5,0,4.9.1,7.3,0a4,4,0,0,0,3.6-3.1c.8-2.8-.8-6.1-4.4-6h-5.7a1.7,1.7,0,0,0-.7.1C416.5,413.9,416.5,416.9,416.5,419.9Z" transform="translate(-0.2 -370.9)"/><path class="cls-1" d="M473,432.2v8.7H444.6c-.2-.6-.2-37.7,0-38.8h28.2v8.7H453.9v6.3a28.1,28.1,0,0,0,2.9.1h11.9v8.2H453.9v6.8c2.1.1,4.2,0,6.3,0H473Z" transform="translate(-0.2 -370.9)"/><path class="cls-1" d="M563.9,429.9c3-.8,6-1.6,8.9-2.4a3.55,3.55,0,0,1,.4.9,8.13,8.13,0,0,0,7.9,4.9,7.42,7.42,0,0,0,2.5-.5,3,3,0,0,0,.6-5.3,17.07,17.07,0,0,0-2.7-1.4c-2-.8-4.1-1.4-6.1-2.2-1.6-.7-3.2-1.4-4.8-2.2a9.65,9.65,0,0,1-4.3-4.4,9.81,9.81,0,0,1,.6-9.8,10.83,10.83,0,0,1,4.4-4.1,17,17,0,0,1,16.9,0,14.07,14.07,0,0,1,6.8,8.5c-2.9.9-5.9,1.6-8.9,2.5-.1-.3-.2-.5-.3-.8a6.92,6.92,0,0,0-8.4-4,7.14,7.14,0,0,0-1.5.8,2.31,2.31,0,0,0-.1,3.6,9.06,9.06,0,0,0,1.6,1.1c1.3.6,2.6,1.1,4,1.6,2,.8,4,1.5,6,2.4a17.34,17.34,0,0,1,4.3,2.7c5.6,4.6,4.3,11.8.8,15.5a14.21,14.21,0,0,1-6,3.6,19.75,19.75,0,0,1-11.3.2,15.63,15.63,0,0,1-10.4-9C564.5,431.4,564.2,430.7,563.9,429.9Z" transform="translate(-0.2 -370.9)"/><path class="cls-1" d="M142.1,402H159a19.78,19.78,0,0,1,14.4,5.9,18.4,18.4,0,0,1,5.2,10.6,19.29,19.29,0,0,1-1.7,11.6A18.63,18.63,0,0,1,164,440.2a19.93,19.93,0,0,1-4.9.6H142C142.1,428,142.1,415,142.1,402Zm6.2,5.8v27.3h10.6a24.52,24.52,0,0,0,2.7-.2,12.47,12.47,0,0,0,9.8-7.9,14.5,14.5,0,0,0,.8-7.7,12.79,12.79,0,0,0-6.6-9.7,15.86,15.86,0,0,0-7.4-1.8h-9.9Z" transform="translate(-0.2 -370.9)"/><path class="cls-1" d="M236.7,411.5c-2.2.6-4.2,1.1-6.3,1.7-.1-.1-.2-.2-.2-.3a13.37,13.37,0,0,0-11.4-5.5,13.16,13.16,0,0,0-10.3,4.5,13,13,0,0,0-3.2,7.5,15.72,15.72,0,0,0,1,8,13,13,0,0,0,10,8.1,15.63,15.63,0,0,0,10.4-1.4,12.58,12.58,0,0,0,5-4.7,2.3,2.3,0,0,0,.4-1.4v-2.6a26.13,26.13,0,0,0-2.8,0h-8.4v-4.9c.6-.2,15.1-.2,16.5-.1V441a28.28,28.28,0,0,1-5.2.1v-4.7a2.74,2.74,0,0,0-.5.4,17.46,17.46,0,0,1-13.3,5.1,19.9,19.9,0,0,1-19.5-20.2c0-7.3,3-13.2,9.2-17.2a20.6,20.6,0,0,1,28.1,6.1C236.3,410.8,236.4,411,236.7,411.5Z" transform="translate(-0.2 -370.9)"/><path class="cls-1" d="M391,440.9h-9.3V410.8H370.1v-8.6c.7-.2,31.2-.2,32.7-.1a78.17,78.17,0,0,1,.1,8.6,26.15,26.15,0,0,1-2.8,0h-8.9v15.1C391,430.8,391,435.8,391,440.9Z" transform="translate(-0.2 -370.9)"/><path class="cls-1" d="M323.3,440.9h-6.6l-3.6-8.7H294.9l-3.6,8.7h-6.6c5.5-13,10.9-25.9,16.4-38.8h5.8C312.4,415,317.8,427.9,323.3,440.9Zm-12.5-14.2c-2.3-5.7-4.5-11.3-6.8-16.9-2.2,5.6-4.5,11.2-6.8,16.9Z" transform="translate(-0.2 -370.9)"/><path class="cls-1" d="M288.1,407.8H275.6v33.1h-6.2V407.8H257a36,36,0,0,1-.1-5.7h31.2Z" transform="translate(-0.2 -370.9)"/><path class="cls-1" d="M334.4,435.1h20c.1,2,0,3.8,0,5.7H328.3V402.1a39.89,39.89,0,0,1,6.1-.1Z" transform="translate(-0.2 -370.9)"/><path class="cls-1" d="M185.7,402.1h6.1v38.7a40.17,40.17,0,0,1-6.1.1Z" transform="translate(-0.2 -370.9)"/><path class="cls-1" d="M245.7,402.1h6.1v38.7a39.61,39.61,0,0,1-6.1.1Z" transform="translate(-0.2 -370.9)"/></svg>