<?xml version="1.0" encoding="utf-8"?>
<!-- Generator: Adobe Illustrator 16.0.0, SVG Export Plug-In . SVG Version: 6.00 Build 0)  -->
<!DOCTYPE svg PUBLIC "-//W3C//DTD SVG 1.1//EN" "http://www.w3.org/Graphics/SVG/1.1/DTD/svg11.dtd">
<svg version="1.1" id="图层_1" xmlns="http://www.w3.org/2000/svg" xmlns:xlink="http://www.w3.org/1999/xlink" x="0px" y="0px"
	 width="586.979px" height="147.82px" viewBox="4.101 347.035 586.979 147.82"
	 enable-background="new 4.101 347.035 586.979 147.82" xml:space="preserve">
<g id="图层_x0020_1">
	<g id="_235336432">
		<g>
			<g>
				<path fill="#FFFFFF" d="M8.201,471.252l19.203,2.4c0.3,2.3,1.1,3.7,2.2,4.601c1.6,1.2,4.201,1.8,7.601,1.8
					c4.4,0,7.701-0.7,9.901-2c1.5-0.9,2.6-2.3,3.3-4.2c0.5-1.4,0.8-4.001,0.8-7.701v-9.302
					c-5.001,6.901-11.302,10.302-19.003,10.302c-8.601,0-15.302-3.7-20.303-10.802c-4-5.7-5.9-12.802-5.9-21.303
					c0-10.602,2.6-18.802,7.701-24.503c5.101-5.701,11.402-8.501,19.003-8.501c7.901,0,14.402,3.5,19.402,10.401v-8.901h15.802
					v57.107c0,7.501-0.6,13.102-1.9,16.902c-1.3,3.7-3,6.601-5.201,8.801c-2.3,2.101-5.201,3.701-9.001,4.901
					c-3.701,1.2-8.501,1.8-14.202,1.8c-10.801,0-18.502-1.9-23.003-5.501c-4.5-3.7-6.801-8.4-6.801-14.002
					C8.201,472.752,8.201,472.052,8.201,471.252L8.201,471.252z M23.303,433.947c0,6.7,1.3,11.701,4,14.802s5.801,4.7,9.701,4.7
					c4.201,0,7.601-1.6,10.501-4.801c2.9-3.3,4.201-8.001,4.201-14.302c0-6.601-1.4-11.501-4-14.702
					c-2.8-3.101-6.101-4.801-10.301-4.801c-4.001,0-7.401,1.6-10.001,4.701C24.604,422.745,23.303,427.646,23.303,433.947
					L23.303,433.947z"/>
				<path fill="#FFFFFF" d="M37.905,494.855c-11.302,0-19.203-2.001-24.204-6.001c-5-4.001-7.501-9.302-7.501-15.603
					c0-0.6,0-1.3,0.1-2.2l0.1-2.101l22.803,2.801l0.2,1.5c0.2,1.7,0.7,2.801,1.4,3.301c1.3,1,3.5,1.4,6.401,1.4
					c4,0,7.001-0.601,8.901-1.7c1.1-0.7,2-1.801,2.6-3.301c0.3-0.8,0.7-2.7,0.7-7.001v-4.001
					c-4.701,4.601-10.602,7.001-17.103,7.001c-9.201,0-16.602-4-21.903-11.701c-4.201-6.001-6.301-13.602-6.301-22.503
					c0-11.102,2.7-19.703,8.201-25.704c5.5-6.001,12.401-9.101,20.603-9.101c6.801,0,12.602,2.4,17.603,7.101v-5.701h19.603v59.108
					c0,7.801-0.6,13.502-2,17.402c-1.4,4.001-3.301,7.201-5.701,9.602c-2.5,2.3-5.701,4.2-9.701,5.4S43.806,494.755,37.905,494.855
					L37.905,494.855z M10.001,473.452c0,5.001,2,9.102,6,12.401c4.201,3.301,11.502,5.101,21.703,5.101
					c5.501,0,10.102-0.6,13.602-1.7c3.5-1.1,6.201-2.7,8.201-4.5c2-1.9,3.5-4.501,4.701-8.001c1.2-3.501,1.8-9.002,1.8-16.202
					v-55.108H54.307v12.902l-3.5-4.701c-4.8-6.401-10.701-9.601-18.002-9.601c-7.101,0-12.901,2.6-17.602,7.801
					c-4.801,5.201-7.201,13.002-7.201,23.003c0,8.102,1.9,14.902,5.501,20.203c4.601,6.701,10.801,10.001,18.702,10.001
					c7.101,0,12.802-3.101,17.402-9.501l3.5-4.801v15.302c0,4.001-0.3,6.802-0.9,8.401c-0.9,2.4-2.4,4.2-4.201,5.201
					c-2.6,1.5-6.101,2.3-10.801,2.3c-4,0-6.801-0.7-8.701-2.2c-1.3-0.9-2.2-2.4-2.7-4.4L10.001,473.452L10.001,473.452z
					 M36.905,455.35c-4.4,0-8.201-1.8-11.101-5.4c-3-3.501-4.301-8.802-4.301-16.103c0-6.9,1.5-12.102,4.301-15.602
					c3-3.5,6.801-5.401,11.501-5.401s8.701,1.9,11.801,5.501c3.101,3.5,4.501,8.901,4.501,16.002c0,6.801-1.601,12.002-4.701,15.603
					C45.506,453.55,41.505,455.35,36.905,455.35L36.905,455.35z M37.205,416.745c-3.5,0-6.201,1.3-8.501,4
					c-2.301,2.8-3.5,7.201-3.5,13.102c0,6.201,1.2,10.802,3.5,13.602c2.3,2.701,4.9,4.001,8.201,4.001c3.5,0,6.501-1.4,9.001-4.2
					c2.5-2.9,3.7-7.201,3.7-13.002c0-6.101-1.2-10.602-3.7-13.402C43.606,418.145,40.706,416.745,37.205,416.745z"/>
			</g>
			<g>
				<path fill="#FFFFFF" d="M97.213,422.846l-15.302-2.801c1.7-6.101,4.601-10.602,8.901-13.602c4.201-3,10.501-4.401,18.603-4.401
					c7.501,0,13.102,0.9,16.802,2.7c3.701,1.8,6.201,4.001,7.801,6.801c1.5,2.8,2.3,7.801,2.3,15.102l-0.2,19.603
					c0,5.602,0.3,9.702,0.8,12.302c0.5,2.7,1.6,5.501,3.101,8.602h-16.703c-0.4-1.101-1-2.801-1.6-4.9c-0.3-1.001-0.5-1.7-0.6-2.001
					c-2.9,2.801-5.901,4.901-9.301,6.301c-3.3,1.4-6.801,2.101-10.501,2.101c-6.5,0-11.701-1.8-15.502-5.301
					c-3.7-3.5-5.601-8.101-5.601-13.502c0-3.5,0.9-6.801,2.6-9.601c1.7-2.9,4.201-4.901,7.201-6.501
					c3.101-1.501,7.601-2.801,13.402-4.001c7.901-1.5,13.302-2.9,16.402-4.2v-1.7c0-3.301-0.8-5.501-2.4-6.901
					c-1.601-1.4-4.601-2.1-9.102-2.1c-3,0-5.301,0.6-7.001,1.8C99.713,417.745,98.313,419.845,97.213,422.846L97.213,422.846z
					 M119.816,436.547c-2.2,0.7-5.5,1.601-10.301,2.601c-4.601,1-7.701,2-9.201,3c-2.2,1.601-3.3,3.501-3.3,5.901s0.9,4.4,2.7,6.101
					s4,2.601,6.701,2.601c3.1,0,5.9-1,8.701-3.001c2.1-1.5,3.3-3.3,4-5.5c0.4-1.501,0.7-4.201,0.7-8.201V436.547L119.816,436.547
					L119.816,436.547z"/>
				<path fill="#FFFFFF" d="M101.414,470.452c-7.001,0-12.702-2.001-16.902-5.801c-4.2-4.001-6.301-9.002-6.301-14.902
					c0-4.001,1-7.501,2.9-10.602s4.601-5.501,8.001-7.201c3.301-1.6,7.801-3,13.902-4c6.701-1.301,11.702-2.501,14.802-3.501v-0.399
					c0-2.701-0.6-4.401-1.7-5.401c-0.9-0.7-2.9-1.6-7.801-1.6c-2.6,0-4.5,0.5-5.901,1.4c-1.3,0.9-2.5,2.7-3.3,5.201l-0.6,1.601
					l-19.002-3.501l0.6-2.1c1.9-6.601,5-11.501,9.701-14.702c4.5-3.101,11.102-4.801,19.803-4.801c7.901,0,13.602,0.9,17.603,2.9
					c4,2,6.901,4.501,8.601,7.601c1.7,3.101,2.5,8.301,2.5,16.002l-0.2,19.603c0,5.401,0.3,9.502,0.8,11.902
					c0.5,2.5,1.5,5.2,2.9,8.101l1.4,2.801h-21.203l-0.5-1.301c-0.4-1-0.9-2.4-1.4-4.2c-2.4,2-4.801,3.501-7.501,4.601
					C109.215,469.651,105.414,470.452,101.414,470.452L101.414,470.452z M108.415,412.944c4.901,0,8.401,0.8,10.401,2.601
					c2.101,1.8,3.101,4.5,3.101,8.401v3.001l-1.2,0.5c-3.101,1.399-8.701,2.8-16.802,4.2c-5.601,1.101-10.001,2.4-12.902,3.7
					c-2.8,1.4-4.801,3.301-6.401,5.701c-1.5,2.5-2.3,5.4-2.3,8.601c0,4.901,1.7,8.901,5.001,12.002
					c3.3,3.101,8.201,4.801,14.102,4.801c3.5,0,6.701-0.7,9.801-2c3.101-1.301,5.901-3.301,8.601-5.901l2.201-2.1l1.1,2.8
					c0.1,0.4,0.4,1.101,0.7,2.2c0.4,1.4,0.8,2.601,1.1,3.501h12.102c-0.9-2.2-1.5-4.201-2-6.201c-0.6-2.9-0.9-7.001-0.9-12.701
					l0.2-19.604c0-8.701-1.101-12.401-2-14.102c-1.3-2.4-3.701-4.3-6.901-5.9c-3.3-1.701-8.801-2.5-15.902-2.5
					c-7.801,0-13.702,1.4-17.602,4c-3.301,2.4-5.801,5.901-7.501,10.602l11.601,2.1c1.101-2.6,2.5-4.4,4.201-5.601
					C102.214,413.644,104.914,412.944,108.415,412.944z M106.415,458.65c-3.301,0-5.901-1.101-8.101-3.101
					c-2.201-2.101-3.301-4.601-3.301-7.501c0-3.101,1.4-5.601,4.201-7.501c1.8-1.2,4.801-2.2,9.901-3.301
					c4.5-1,8.001-1.9,10.101-2.601l2.601-0.899v6.001c0,4.2-0.2,7.101-0.8,8.801c-0.8,2.601-2.4,4.801-4.701,6.601
					C113.215,457.45,109.915,458.65,106.415,458.65L106.415,458.65z M117.916,439.147c-2.101,0.601-4.601,1.2-7.901,1.9
					c-5.5,1.2-7.701,2.101-8.501,2.7c-1.7,1.2-2.5,2.601-2.5,4.301c0,1.9,0.7,3.301,2.101,4.7c1.4,1.4,3.1,2.001,5.301,2.001
					c2.7,0,5.101-0.9,7.501-2.701c1.7-1.3,2.8-2.8,3.3-4.5c0.3-0.9,0.6-2.9,0.6-7.701L117.916,439.147L117.916,439.147
					L117.916,439.147z"/>
			</g>
			<g>
				<path fill="#FFFFFF" d="M211.329,467.151h-15.602v-9.401c-2.601,3.7-5.601,6.301-9.201,8.102c-3.5,1.8-7.101,2.7-10.602,2.7
					c-7.301,0-13.602-3.001-18.703-8.901c-5.201-5.901-7.801-14.102-7.801-24.703c0-10.802,2.601-18.903,7.601-24.604
					c5.001-5.601,11.502-8.401,19.203-8.401c7.101,0,13.202,3,18.502,8.901v-31.604h16.902v87.912H211.329z M166.322,433.847
					c0,6.801,1,11.702,2.9,14.702c2.801,4.4,6.501,6.601,11.302,6.601c3.8,0,7.201-1.7,9.901-4.9c2.8-3.301,4-8.201,4-14.802
					c0-7.301-1.3-12.502-4-15.802c-2.701-3.301-6.001-4.801-10.202-4.801c-4,0-7.301,1.6-10.101,4.701
					C167.623,422.846,166.223,427.546,166.322,433.847L166.322,433.847z"/>
				<path fill="#FFFFFF" d="M175.724,470.452c-7.901,0-14.702-3.101-20.203-9.502c-5.501-6.2-8.301-15.002-8.301-25.903
					c0-11.201,2.8-19.902,8.101-25.903c5.401-6.001,12.402-9.101,20.703-9.101c6.101,0,11.701,2.1,16.502,6.101v-28.904h20.703
					v91.712h-19.502v-6c-2,1.899-4,3.5-6.401,4.5C183.625,469.451,179.624,470.452,175.724,470.452L175.724,470.452z
					 M175.924,403.943c-7.201,0-13.002,2.6-17.803,7.801c-4.7,5.201-7.101,13.001-7.101,23.303c0,10.001,2.5,17.902,7.301,23.403
					s10.602,8.201,17.402,8.201c3.3,0,6.601-0.8,9.901-2.5c3.3-1.601,6.101-4.201,8.501-7.502l3.5-4.9v13.502h11.702V381.34h-13.001
					v34.805l-3.5-3.801C188.125,406.643,182.524,404.043,175.924,403.943L175.924,403.943z M180.524,457.15
					c-5.501,0-10.001-2.601-13.002-7.502c-2.1-3.3-3.1-8.601-3.1-15.802c0-6.701,1.5-11.901,4.5-15.502
					c3.101-3.701,6.901-5.401,11.501-5.401c4.701,0,8.601,1.9,11.702,5.501c3,3.701,4.4,9.201,4.4,17.102
					c0,7.001-1.5,12.302-4.5,16.002C188.925,455.25,185.025,457.15,180.524,457.15L180.524,457.15z M180.424,416.845
					c-3.5,0-6.201,1.4-8.601,4c-2.4,2.8-3.5,7.201-3.5,12.902c0,6.4,0.9,11.001,2.6,13.701c2.4,3.801,5.501,5.602,9.802,5.602
					c3.3,0,6-1.4,8.401-4.201c2.4-3,3.701-7.501,3.701-13.502c0-6.801-1.2-11.701-3.5-14.501
					C186.825,418.245,183.925,416.845,180.424,416.845L180.424,416.845z"/>
			</g>
			<g>
				<path fill="#FFFFFF" d="M226.331,471.252l19.203,2.4c0.3,2.3,1.1,3.7,2.2,4.601c1.6,1.2,4.201,1.8,7.601,1.8
					c4.4,0,7.701-0.7,9.901-2c1.5-0.9,2.6-2.3,3.3-4.2c0.5-1.4,0.8-4.001,0.8-7.701v-9.302
					c-5.001,6.901-11.302,10.302-19.002,10.302c-8.602,0-15.302-3.7-20.303-10.802c-4-5.7-5.9-12.802-5.9-21.303
					c0-10.602,2.6-18.802,7.701-24.503c5.101-5.701,11.502-8.501,19.103-8.501c7.901,0,14.402,3.5,19.403,10.401v-8.901h15.702
					v57.107c0,7.501-0.6,13.102-1.9,16.902c-1.3,3.7-3,6.601-5.201,8.801c-2.3,2.101-5.201,3.701-9.001,4.901
					c-3.701,1.2-8.501,1.8-14.202,1.8c-10.801,0-18.502-1.9-23.003-5.501c-4.5-3.7-6.801-8.4-6.801-14.002
					C226.23,472.752,226.23,472.052,226.331,471.252L226.331,471.252z M241.333,433.947c0,6.7,1.3,11.701,4,14.802
					s5.801,4.7,9.701,4.7c4.201,0,7.601-1.6,10.501-4.801c2.9-3.3,4.201-8.001,4.201-14.302c0-6.601-1.4-11.501-4-14.702
					c-2.8-3.101-6.101-4.801-10.301-4.801c-4,0-7.401,1.6-10.001,4.701C242.633,422.745,241.433,427.646,241.333,433.947
					L241.333,433.947z"/>
				<path fill="#FFFFFF" d="M255.935,494.855c-11.302,0-19.203-2.001-24.203-6.001c-5.001-4.001-7.501-9.302-7.501-15.603
					c0-0.6,0-1.3,0.1-2.2l0.1-2.101l22.803,2.801l0.2,1.5c0.2,1.7,0.7,2.801,1.4,3.301c1.3,1,3.5,1.4,6.401,1.4
					c4,0,7.001-0.601,8.901-1.7c1.1-0.7,2-1.801,2.6-3.301c0.3-0.8,0.7-2.7,0.7-7.001v-4.001
					c-4.701,4.601-10.602,7.001-17.102,7.001c-9.202,0-16.603-4-21.903-11.701c-4.2-6.001-6.201-13.602-6.201-22.403
					c0-11.102,2.8-19.802,8.201-25.803c5.5-6.001,12.401-9.101,20.603-9.101c6.801,0,12.602,2.4,17.603,7.101v-5.701h19.502v59.108
					c0,7.802-0.6,13.502-2,17.402c-1.4,4.001-3.3,7.201-5.701,9.602c-2.5,2.3-5.701,4.2-9.702,5.4
					C266.836,494.255,261.936,494.855,255.935,494.855L255.935,494.855z M228.231,473.452c0,5.001,2,9.102,6,12.401
					c4.201,3.301,11.501,5.101,21.703,5.101c5.5,0,10.101-0.6,13.602-1.7c3.5-1.1,6.201-2.7,8.201-4.5c2-1.9,3.5-4.501,4.701-8.001
					c1.2-3.501,1.8-9.002,1.8-16.202v-55.108h-11.802v12.902l-3.5-4.701c-4.701-6.401-10.602-9.601-17.903-9.601
					c-7.101,0-12.901,2.6-17.602,7.801s-7.201,13.002-7.201,23.104c0,8.101,1.9,14.901,5.501,20.202
					c4.601,6.701,10.801,10.002,18.702,10.002c7.101,0,12.802-3.101,17.402-9.502l3.5-4.8v15.302c0,4-0.3,6.801-0.9,8.401
					c-0.9,2.399-2.4,4.2-4.201,5.2c-2.6,1.5-6.101,2.301-10.801,2.301c-4,0-6.801-0.7-8.701-2.2c-1.3-0.9-2.2-2.4-2.701-4.401
					L228.231,473.452L228.231,473.452z M255.034,455.35c-4.4,0-8.201-1.8-11.101-5.4c-3-3.501-4.301-8.802-4.301-16.103
					c0-6.9,1.5-12.102,4.301-15.602c3-3.5,6.801-5.401,11.501-5.401s8.701,1.9,11.801,5.501c3.101,3.5,4.501,8.901,4.501,16.002
					c0,6.801-1.601,12.002-4.701,15.603C263.735,453.55,259.635,455.35,255.034,455.35L255.034,455.35z M255.334,416.745
					c-3.5,0-6.201,1.3-8.501,4c-2.3,2.8-3.5,7.201-3.5,13.102c0,6.201,1.2,10.802,3.5,13.602c2.3,2.701,4.9,4.001,8.201,4.001
					c3.5,0,6.501-1.4,9.001-4.2c2.5-2.9,3.701-7.201,3.701-13.002c0-6.101-1.2-10.602-3.701-13.402
					C261.735,418.145,258.835,416.745,255.334,416.745z"/>
			</g>
			<g>
				<path fill="#FFFFFF" d="M339.646,446.748l16.803,2.9c-2.201,6.102-5.502,10.802-10.303,14.002
					c-4.6,3.301-10.5,4.801-17.402,4.801c-11,0-19.201-3.7-24.604-10.801c-4.199-5.801-6.3-13.103-6.3-21.903
					c0-10.602,2.8-18.803,8.302-24.803c5.5-6.001,12.5-9.001,20.902-9.001c9.5,0,17.002,3.101,22.402,9.401
					c5.4,6.201,8.102,15.802,7.902,28.704h-42.307c0.1,5,1.5,8.901,4,11.701c2.602,2.801,5.801,4.201,9.701,4.201
					c2.701,0,4.801-0.7,6.602-2.201C337.345,452.35,338.746,450.049,339.646,446.748L339.646,446.748z M340.646,429.847
					c-0.1-4.801-1.4-8.602-3.701-11.102c-2.4-2.6-5.301-3.8-8.801-3.8c-3.701,0-6.701,1.4-9.102,4c-2.4,2.7-3.5,6.301-3.5,11.001
					h25.104V429.847z"/>
				<path fill="#FFFFFF" d="M328.744,470.452c-11.701,0-20.402-4.001-26.104-11.702c-4.4-6.101-6.7-13.901-6.7-23.103
					c0-11.002,3.001-19.803,8.802-26.104c5.9-6.301,13.4-9.601,22.303-9.601c10.002,0,18.102,3.3,23.902,10.101
					c5.801,6.601,8.602,16.703,8.301,30.104v1.9h-42.004c0.398,3.501,1.5,6.301,3.5,8.401c2.301,2.4,4.9,3.5,8.301,3.5
					c2.199,0,4-0.6,5.4-1.8c1.5-1.2,2.701-3.101,3.5-5.901l0.5-1.7l20.604,3.501l-0.801,2.2c-2.299,6.501-6,11.502-11,15.002
					C342.246,468.752,336.044,470.452,328.744,470.452z M327.144,403.943c-7.9,0-14.303,2.8-19.402,8.301
					c-5.102,5.5-7.801,13.401-7.801,23.503c0,8.401,2,15.402,5.9,20.803c4.9,6.701,12.402,10.102,23.004,10.102
					c6.5,0,12-1.5,16.4-4.4c3.701-2.601,6.602-6.201,8.703-11.002l-12.902-2.2c-1,2.801-2.4,4.801-4.201,6.301
					c-2.199,1.7-4.801,2.601-7.9,2.601c-4.4,0-8.201-1.601-11.102-4.701c-3-3.1-4.4-7.501-4.602-12.901v-2h42.207
					c-0.102-11.302-2.602-19.903-7.402-25.404C342.847,406.843,336.044,403.943,327.144,403.943L327.144,403.943z M342.646,431.847
					h-29.104v-2c0-5.001,1.301-9.202,4-12.202c2.701-3,6.301-4.601,10.602-4.601c4,0,7.4,1.5,10.201,4.401s4.201,7.101,4.301,12.402
					V431.847L342.646,431.847z M317.443,427.846h21.104c-0.4-3.3-1.4-6.001-3.102-7.801c-2.1-2.2-4.4-3.101-7.301-3.101
					c-3.1,0-5.6,1.101-7.701,3.301C318.744,422.146,317.744,424.646,317.443,427.846L317.443,427.846z"/>
			</g>
			<g>
				<path fill="#FFFFFF" d="M400.154,403.443v13.402h-11.502v25.604c0,5.2,0.1,8.201,0.301,9.101c0.199,0.9,0.699,1.601,1.5,2.2
					c0.801,0.601,1.801,0.9,2.9,0.9c1.6,0,3.801-0.5,6.801-1.6l1.5,13.001c-4,1.7-8.4,2.601-13.301,2.601
					c-3.102,0-5.801-0.5-8.201-1.5c-2.5-1-4.201-2.4-5.301-4.001c-1.201-1.6-2-3.8-2.4-6.601c-0.4-2-0.5-5.9-0.5-11.802v-27.704
					h-7.902v-13.402h7.701v-12.802l16.902-9.901v22.503H400.154L400.154,403.443z"/>
				<path fill="#FFFFFF" d="M388.251,470.452c-3.299,0-6.301-0.601-9-1.7c-2.801-1.2-4.801-2.801-6.201-4.601
					c-1.301-1.9-2.201-4.301-2.701-7.401c-0.398-2.101-0.6-6.001-0.6-12.102v-25.804h-7.701v-17.302h7.701v-11.902l20.803-12.102
					v23.903h11.502v17.402h-11.502v23.703c0,7.001,0.201,8.401,0.301,8.602c0.1,0.399,0.299,0.7,0.799,1
					c0.4,0.3,1.002,0.5,1.701,0.5c0.9,0,2.701-0.3,6.102-1.5l2.4-0.9l1.9,17.002l-1.301,0.601
					C398.154,469.552,393.453,470.452,388.251,470.452L388.251,470.452z M366.05,414.944h7.699v29.704
					c0,5.801,0.201,9.701,0.5,11.501c0.4,2.501,1.102,4.401,2.102,5.801c0.9,1.301,2.5,2.4,4.5,3.301c2.201,0.9,4.701,1.4,7.502,1.4
					c4.199,0,7.9-0.601,11.201-1.9l-1-9.201c-2.102,0.6-3.701,1-5.102,1c-1.6,0-2.9-0.4-4-1.2c-1.201-0.8-1.9-1.9-2.301-3.301
					c-0.199-0.8-0.4-2.5-0.4-9.601v-27.504h11.502v-9.501h-11.701V384.44l-13.002,7.601v13.502h-7.5V414.944z"/>
			</g>
			<g>
				<path fill="#FFFFFF" d="M448.761,446.748l16.801,2.9c-2.199,6.102-5.5,10.802-10.301,14.002
					c-4.6,3.301-10.502,4.801-17.402,4.801c-11.002,0-19.203-3.7-24.604-10.801c-4.201-5.801-6.301-13.103-6.301-21.903
					c0-10.602,2.801-18.803,8.301-24.803c5.502-6.001,12.502-9.001,20.904-9.001c9.5,0,17.002,3.101,22.402,9.401
					c5.4,6.201,8.102,15.802,7.9,28.704h-42.105c0.1,5,1.5,8.901,4,11.701c2.602,2.801,5.801,4.201,9.701,4.201
					c2.701,0,4.801-0.7,6.602-2.201C446.46,452.35,447.861,450.049,448.761,446.748L448.761,446.748z M449.761,429.847
					c-0.102-4.801-1.4-8.602-3.701-11.102c-2.4-2.6-5.301-3.8-8.801-3.8c-3.701,0-6.701,1.4-9.102,4c-2.4,2.7-3.5,6.301-3.5,11.001
					h25.104V429.847z"/>
				<path fill="#FFFFFF" d="M437.859,470.452c-11.701,0-20.402-4.001-26.104-11.702c-4.4-6.101-6.701-13.901-6.701-23.103
					c0-11.002,3-19.803,8.801-26.104c5.902-6.301,13.402-9.601,22.305-9.601c10,0,18.102,3.3,23.902,10.101
					c5.801,6.601,8.602,16.703,8.301,30.104v1.9h-42.006c0.4,3.501,1.5,6.301,3.5,8.401c2.301,2.4,4.902,3.5,8.303,3.5
					c2.199,0,4-0.6,5.4-1.8c1.5-1.2,2.699-3.101,3.5-5.901l0.5-1.7l20.803,3.501l-0.801,2.2c-2.299,6.501-6,11.502-11,15.002
					C451.56,468.752,445.16,470.452,437.859,470.452z M436.259,403.943c-7.902,0-14.303,2.8-19.402,8.301
					c-5.102,5.5-7.801,13.401-7.801,23.503c0,8.401,2,15.402,5.9,20.803c4.9,6.701,12.4,10.102,23.002,10.102
					c6.502,0,12.002-1.5,16.402-4.4c3.701-2.601,6.602-6.201,8.701-11.002l-12.701-2.2c-1,2.801-2.4,4.801-4.201,6.301
					c-2.199,1.7-4.801,2.601-7.9,2.601c-4.4,0-8.201-1.601-11.102-4.701c-3-3.1-4.4-7.501-4.602-12.901v-2h42.207
					c-0.1-11.302-2.602-19.903-7.402-25.404C451.96,406.843,445.16,403.943,436.259,403.943L436.259,403.943z M451.662,431.847
					h-29.105v-2c0-5.001,1.301-9.202,4.002-12.202c2.799-3.1,6.301-4.601,10.602-4.601c4,0,7.4,1.5,10.201,4.401
					s4.199,7.101,4.301,12.402V431.847L451.662,431.847z M426.558,427.846h21.102c-0.398-3.3-1.4-6.001-3.1-7.801
					c-2.1-2.2-4.4-3.101-7.301-3.101c-3.102,0-5.602,1.101-7.701,3.301C427.857,422.146,426.857,424.646,426.558,427.846
					L426.558,427.846z"/>
			</g>
			<g>
				<path fill="#FFFFFF" d="M516.97,446.748l16.803,2.9c-2.201,6.102-5.502,10.802-10.303,14.002
					c-4.6,3.301-10.502,4.801-17.402,4.801c-11.002,0-19.203-3.7-24.604-10.801c-4.199-5.801-6.301-13.103-6.301-21.903
					c0-10.602,2.801-18.803,8.301-24.803c5.502-6.001,12.502-9.001,20.904-9.001c9.5,0,17.002,3.101,22.402,9.401
					c5.4,6.201,8.102,15.802,7.9,28.704h-42.205c0.1,5,1.5,8.901,4,11.701c2.602,2.801,5.801,4.201,9.701,4.201
					c2.701,0,4.801-0.7,6.602-2.201C514.769,452.35,516.07,450.049,516.97,446.748L516.97,446.748z M517.97,429.847
					c-0.1-4.801-1.4-8.602-3.701-11.102c-2.4-2.6-5.301-3.8-8.801-3.8c-3.701,0-6.701,1.4-9.102,4c-2.4,2.7-3.5,6.301-3.5,11.001
					h25.104V429.847z"/>
				<path fill="#FFFFFF" d="M506.068,470.452c-11.701,0-20.402-4.001-26.104-11.702c-4.4-6.101-6.701-13.901-6.701-23.103
					c0-11.002,3.002-19.803,8.803-26.104c5.9-6.301,13.4-9.601,22.303-9.601c10,0,18.102,3.3,23.902,10.101
					c5.801,6.601,8.602,16.703,8.301,30.104v1.9h-42.006c0.4,3.501,1.5,6.301,3.502,8.401c2.299,2.4,4.9,3.5,8.301,3.5
					c2.199,0,4-0.6,5.4-1.8c1.5-1.2,2.701-3.101,3.5-5.901l0.5-1.7l20.803,3.501l-0.799,2.2
					c-2.301,6.501-6.002,11.502-11.002,15.002C519.669,468.651,513.47,470.452,506.068,470.452z M504.369,403.943
					c-7.902,0-14.303,2.8-19.402,8.301c-5.102,5.5-7.803,13.401-7.803,23.503c0,8.401,2.002,15.402,5.902,20.803
					c4.9,6.701,12.4,10.102,23.002,10.102c6.502,0,12.002-1.5,16.402-4.4c3.701-2.601,6.602-6.201,8.701-11.002l-12.701-2.2
					c-1,2.801-2.4,4.801-4.201,6.301c-2.199,1.7-4.801,2.601-7.9,2.601c-4.4,0-8.201-1.601-11.102-4.701
					c-3-3.1-4.4-7.501-4.602-12.901v-2h42.207c-0.102-11.302-2.602-19.903-7.402-25.404
					C520.271,406.843,513.369,403.943,504.369,403.943L504.369,403.943z M519.97,431.847h-29.104v-2c0-5.001,1.299-9.202,4-12.202
					s6.301-4.601,10.602-4.601c4,0,7.4,1.5,10.201,4.401s4.201,7.101,4.301,12.402V431.847L519.97,431.847z M494.867,427.846h21.104
					c-0.4-3.3-1.4-6.001-3.102-7.801c-2.1-2.2-4.4-3.101-7.301-3.101c-3.1,0-5.6,1.101-7.701,3.301
					C496.066,422.146,495.066,424.646,494.867,427.846L494.867,427.846z"/>
			</g>
			<g>
				<path fill="#FFFFFF" d="M564.576,467.151h-16.902v-63.708h15.604v9.101c2.699-4.201,5.1-7.101,7.199-8.501
					c2.201-1.4,4.502-2.101,7.303-2.101c3.799,0,7.5,1.1,11,3.101l-5.199,14.702c-2.9-1.9-5.402-2.801-7.902-2.801
					c-2.4,0-4.301,0.7-6,2c-1.701,1.3-3,3.701-3.801,7c-1,3.301-1.4,10.502-1.4,21.304v19.702h0.1V467.151z"/>
				<path fill="#FFFFFF" d="M566.376,468.951h-20.703v-67.409h19.502v4.801c1.502-1.8,2.9-3.101,4.201-4
					c2.5-1.601,5.201-2.4,8.301-2.4c4.201,0,8.201,1.2,12.002,3.5l1.4,0.8l-6.602,18.502l-2.1-1.4
					c-4.801-3.101-9.002-3.101-11.701-0.9c-1.301,1-2.4,3.1-3.102,6c-0.898,3.301-1.398,10.302-1.398,20.804L566.376,468.951
					L566.376,468.951L566.376,468.951z M549.673,465.151h12.902v-17.603c0-11.102,0.5-18.303,1.5-21.803
					c1.1-3.801,2.602-6.501,4.502-8.102c3.5-2.8,8.6-3.3,14.102-0.5l3.801-11.001c-2.801-1.4-5.701-2.2-8.701-2.2
					c-2.4,0-4.402,0.6-6.201,1.8c-1.9,1.2-4.201,3.8-6.602,7.801l-3.701,5.701v-13.902h-11.701L549.673,465.151L549.673,465.151z"/>
			</g>
		</g>
		<g>
			<g>
				<path fill="#FFFFFF" d="M114.416,360.037v7.201h-6.201v13.802c0,2.8,0.1,4.401,0.2,4.901s0.4,0.9,0.8,1.2
					c0.4,0.3,0.9,0.5,1.6,0.5c0.9,0,2.1-0.3,3.701-0.9l0.8,7.001c-2.1,0.9-4.5,1.4-7.201,1.4c-1.7,0-3.101-0.3-4.401-0.8
					c-1.3-0.6-2.3-1.3-2.9-2.2c-0.6-0.9-1.1-2.1-1.3-3.5c-0.2-1.1-0.3-3.1-0.3-6.401v-14.902h-4.201v-7.201h4.201v-6.801
					l9.101-5.301v12.102h6.201v-0.1H114.416z"/>
			</g>
			<g>
				<path fill="#FFFFFF" d="M129.817,347.035v17.402c3-3.5,6.401-5.101,10.501-5.101c2.101,0,4,0.4,5.601,1.2c1.7,0.8,3,1.8,3.7,3
					c0.9,1.2,1.4,2.601,1.8,4.001c0.3,1.5,0.5,3.7,0.5,6.801v20.103h-9.101v-18.103c0-3.5-0.2-5.9-0.5-6.801c-0.3-1-1-1.8-1.8-2.3
					c-0.9-0.6-2-0.9-3.301-0.9c-1.5,0-2.9,0.4-4,1.1c-1.1,0.7-2.1,1.9-2.6,3.3c-0.6,1.5-0.8,3.701-0.8,6.501v17.202h-9.101v-47.206
					h9.001L129.817,347.035L129.817,347.035z"/>
			</g>
			<g>
				<path fill="#FFFFFF" d="M180.924,383.44l9.101,1.5c-1.2,3.3-3,5.801-5.5,7.601c-2.5,1.8-5.601,2.601-9.401,2.601
					c-5.901,0-10.401-2-13.202-5.801c-2.3-3.101-3.3-7.001-3.3-11.802c0-5.701,1.5-10.201,4.4-13.302
					c3-3.3,6.701-4.801,11.202-4.801c5.101,0,9.101,1.701,12.001,5.001c3,3.3,4.301,8.501,4.201,15.502h-22.703
					c0.1,2.701,0.8,4.701,2.2,6.301c1.4,1.5,3.101,2.3,5.201,2.3c1.4,0,2.601-0.4,3.5-1.2
					C179.724,386.34,180.424,385.24,180.924,383.44L180.924,383.44z M181.424,374.339c-0.1-2.7-0.8-4.601-2.1-6.001
					c-1.3-1.4-2.9-2.1-4.701-2.1c-2,0-3.701,0.7-4.901,2.2c-1.3,1.5-2,3.3-1.9,5.901H181.424z"/>
			</g>
		</g>
	</g>
</g>
</svg>
