<?xml version="1.0" encoding="UTF-8"?>
<!DOCTYPE svg PUBLIC "-//W3C//DTD SVG 1.1//EN" "http://www.w3.org/Graphics/SVG/1.1/DTD/svg11.dtd">
<!-- Creator: CorelDRAW X6 -->
<svg xmlns="http://www.w3.org/2000/svg" xml:space="preserve" width="206.328mm" height="28.409mm" version="1.1" style="shape-rendering:geometricPrecision; text-rendering:geometricPrecision; image-rendering:optimizeQuality; fill-rule:evenodd; clip-rule:evenodd;fill:#fff;"
viewBox="0 0 20720 2853"
 xmlns:xlink="http://www.w3.org/1999/xlink">
 <defs>
  <style type="text/css">
   <![CDATA[
    .fil0 {fill:#fff}
   ]]>
  </style>
 </defs>
 <g id="图层_x0020_1">
  <metadata id="CorelCorpID_0Corel-Layer"/>
  <g id="_644047376">
   <polygon class="fil0" points="834,520 722,1079 1705,1079 1623,1472 647,1472 493,2242 0,2242 423,126 2022,126 1940,519 834,519 "/>
   <polygon class="fil0" points="2348,0 2820,0 2373,2243 1901,2243 "/>
   <path class="fil0" d="M3229 2176c-124,-61 -220,-146 -287,-255 -68,-110 -101,-237 -101,-382 0,-179 42,-340 127,-484 85,-143 202,-256 351,-338 149,-83 317,-124 505,-124 165,0 309,30 432,91 123,61 218,146 286,255 67,110 101,237 101,382 0,179 -42,340 -125,484 -84,143 -201,256 -351,338 -150,83 -319,124 -506,124 -163,0 -307,-30 -431,-91zm706 -367c73,-45 129,-108 169,-189 40,-80 61,-173 61,-278 0,-111 -32,-198 -97,-263 -64,-64 -155,-97 -272,-97 -93,0 -175,23 -248,68 -73,45 -129,108 -169,189 -40,81 -61,173 -61,278 0,111 33,198 98,263 66,64 157,97 273,97 91,0 173,-23 245,-68z"/>
   <path class="fil0" d="M4979 2220c-126,-31 -224,-72 -295,-123l181 -342c70,46 157,84 258,112 102,28 204,42 307,42 107,0 186,-13 239,-41 52,-27 79,-66 79,-117 0,-40 -23,-69 -69,-88 -46,-18 -121,-37 -224,-57 -117,-22 -213,-46 -289,-73 -75,-26 -141,-69 -197,-129 -55,-60 -83,-141 -83,-243 0,-179 75,-319 225,-420 150,-101 347,-151 591,-151 113,0 222,12 329,36 107,24 197,57 272,100l-169 345c-133,-83 -293,-124 -480,-124 -103,0 -181,15 -234,45 -53,30 -80,68 -80,115 0,42 23,73 69,92 46,19 124,40 233,62 115,22 209,46 283,71 74,25 137,67 192,125 55,58 81,138 81,239 0,181 -76,321 -228,420 -152,99 -349,148 -591,148 -141,1 -275,-15 -401,-46z"/>
   <path class="fil0" d="M6584 2220c-126,-31 -224,-72 -295,-123l181 -342c70,46 157,84 258,112 102,28 204,42 307,42 107,0 186,-13 239,-41 52,-27 79,-66 79,-117 0,-40 -23,-69 -69,-88 -46,-18 -121,-37 -224,-57 -117,-22 -213,-46 -289,-73 -75,-26 -141,-69 -197,-129 -55,-60 -83,-141 -83,-243 0,-179 75,-319 225,-420 150,-101 347,-151 591,-151 113,0 222,12 329,36 107,24 197,57 272,100l-169 345c-133,-83 -293,-124 -480,-124 -103,0 -181,15 -234,45 -53,30 -80,68 -80,115 0,42 23,73 69,92 46,19 124,40 233,62 115,22 209,46 283,71 74,25 137,67 192,125 55,58 81,138 81,239 0,181 -76,321 -228,420 -152,99 -349,148 -591,148 -141,1 -275,-15 -401,-46z"/>
   <path class="fil0" d="M9904 616l-1082 1735c-117,189 -230,320 -340,393 -110,73 -244,109 -404,109 -85,0 -168,-13 -249,-39 -81,-26 -146,-61 -192,-103l218 -338c73,67 159,100 260,100 61,0 113,-15 157,-45 44,-30 90,-81 136,-154l15 -27 -375 -1629 472 0 242 1106 677 -1106 466 0 0 0z"/>
   <path class="fil0" d="M11217 2164c-158,-77 -280,-184 -364,-323 -85,-139 -127,-299 -127,-480 0,-240 55,-456 165,-648 110,-192 264,-344 464,-455 199,-111 428,-166 686,-166 189,0 357,32 502,97 145,64 255,157 329,278l-354 290c-113,-165 -283,-248 -511,-248 -155,0 -292,36 -411,109 -119,73 -211,171 -277,296 -66,125 -98,264 -98,417 0,163 52,293 156,388 104,96 249,143 437,143 224,0 411,-81 562,-245l290 296c-210,244 -508,366 -895,366 -212,0 -397,-38 -555,-114z"/>
   <path class="fil0" d="M14760 616l-323 1626 -447 0 30 -160c-135,123 -301,184 -499,184 -127,0 -244,-29 -351,-88 -107,-58 -192,-142 -255,-252 -63,-110 -95,-239 -95,-388 0,-179 40,-341 119,-485 80,-144 188,-257 325,-338 137,-81 288,-123 453,-123 250,0 426,81 529,245l42 -221 472 0 0 0zm-846 1192c73,-45 129,-108 169,-189 40,-80 61,-173 61,-278 0,-111 -33,-198 -98,-263 -66,-64 -157,-97 -273,-97 -93,0 -175,23 -248,68 -73,45 -129,108 -169,189 -40,81 -61,173 -61,278 0,111 33,198 98,263 66,64 157,97 273,97 93,0 175,-23 248,-68z"/>
   <path class="fil0" d="M15859 644c100,-34 217,-51 352,-51l-85 435c-56,-4 -93,-6 -109,-6 -143,0 -258,35 -343,106 -86,70 -143,180 -174,329l-157 786 -472 0 323 -1626 447 0 -39 193c71,-77 156,-132 256,-166z"/>
   <path class="fil0" d="M16861 1668c-4,16 -6,38 -6,67 0,105 57,157 172,157 62,0 126,-19 190,-57l69 335c-105,64 -240,97 -405,97 -153,0 -276,-40 -369,-121 -93,-80 -139,-191 -139,-332 0,-40 5,-88 15,-142l130 -656 -251 0 73 -363 251 0 79 -396 472 0 -79 396 405 0 -73 363 -405 0 -130 652z"/>
   <path class="fil0" d="M19221 1556l-1245 0c16,222 156,332 420,332 83,0 162,-13 237,-39 75,-26 142,-63 198,-112l196 311c-91,73 -194,127 -311,163 -117,36 -240,55 -369,55 -167,0 -314,-30 -440,-89 -126,-60 -222,-145 -290,-255 -68,-111 -101,-239 -101,-384 0,-179 41,-341 123,-485 81,-144 195,-257 340,-338 145,-81 310,-123 496,-123 157,0 294,29 410,88 116,58 205,142 269,251 63,109 95,235 95,378 0,75 -9,157 -27,248zm-1049 -521c-77,60 -131,142 -163,246l807 0c0,-105 -33,-187 -98,-246 -66,-60 -154,-89 -264,-89 -111,0 -205,30 -281,89z"/>
   <path class="fil0" d="M20368 644c100,-34 217,-51 352,-51l-85 435c-56,-4 -93,-6 -109,-6 -143,0 -258,35 -343,106 -86,70 -143,180 -174,329l-157 786 -472 0 323 -1626 447 0 -39 193c71,-77 156,-132 256,-166z"/>
  </g>
 </g>
</svg>
