<?xml version="1.0" encoding="utf-8"?>
<!-- Generator: Adobe Illustrator 16.0.0, SVG Export Plug-In . SVG Version: 6.00 Build 0)  -->
<!DOCTYPE svg PUBLIC "-//W3C//DTD SVG 1.1//EN" "http://www.w3.org/Graphics/SVG/1.1/DTD/svg11.dtd">
<svg version="1.1" id="图层_1" xmlns="http://www.w3.org/2000/svg" xmlns:xlink="http://www.w3.org/1999/xlink" x="0px" y="0px"
	 width="595.277px" height="155.43px" viewBox="0 343.23 595.277 155.43" enable-background="new 0 343.23 595.277 155.43"
	 xml:space="preserve">
<title>forbes-logo</title>
<g>
	<path fill="#FFFFFF" d="M343.445,498.56c-2.398-0.199-4.799-0.199-7.197-0.6c-9.096-1.299-18.291-2.799-27.387-4.098
		c-1.801-0.3-1.6-1.399-1.6-2.599c0.299-20.191,0.699-40.382,0.799-60.573c0.1-17.292-0.199-34.484-0.5-51.776
		c-0.158-4.672-0.727-9.321-1.699-13.894c-0.639-4.333-4.225-7.627-8.596-7.896c-0.6-0.1-1.199-0.3-1.899-0.4
		c-1.799-0.3-2.399-1.299-2.399-3.099s1.1-2.199,2.499-2.499c13.494-2.599,26.887-5.198,40.381-7.697
		c0.928-0.127,1.863-0.194,2.799-0.2v49.478c1.301-0.5,2.299-0.8,3.199-1.2c10.195-4.498,20.891-5.897,31.686-2.798
		c13.193,3.798,21.291,13.194,26.389,25.588c3.898,9.395,4.498,19.292,3.998,29.386c-0.293,9.059-2.508,17.951-6.498,26.089
		c-7.797,15.293-20.49,24.089-37.082,27.387c-3.898,0.8-7.896,0.7-11.895,1.1c-0.9,0.101-1.801,0.3-2.699,0.4
		C344.98,498.579,344.212,498.546,343.445,498.56z M338.646,444.385L338.646,444.385c0.1,8.596,0,17.092,0.1,25.688
		c0,5.397,0.201,10.795,0.4,16.292c0.1,2.999,0.6,3.499,3.498,3.698c1.998,0.167,4.008,0.134,5.998-0.1
		c6.396-1,10.496-5.098,13.693-10.396c5.498-9.195,7.996-19.391,8.697-30.086c0.35-5.759,0.35-11.533,0-17.292
		c-0.225-7.868-2.387-15.56-6.299-22.39c-5.496-9.496-13.393-12.495-23.889-9.496c-1.371,0.154-2.357,1.392-2.203,2.763
		c0.002,0.012,0.004,0.024,0.004,0.036V444.385z"/>
	<path fill="#FFFFFF" d="M0.3,345.729h19.191c33.185,0,66.27,0.1,99.455,0.1c1.599,0,2.299,0.5,2.299,2.199
		c0.2,12.694,0.5,25.388,0.8,38.083c0,1.599-0.3,2.399-2,2.799c-5.197,1.399-4.998,1.399-7.296-3.599
		c-2.17-5.173-4.709-10.184-7.597-14.993c-4.998-7.896-12.494-12.594-21.89-12.994c-8.696-0.399-17.492-0.1-26.688-0.1
		c-1.299,19.591-1.299,39.282-1.199,58.773c0.2,0.2,0.3,0.399,0.4,0.399c6.297-0.3,12.694-0.2,18.991-0.899
		c3.73-0.488,6.944-2.87,8.496-6.297c1.716-3.731,3.185-7.571,4.398-11.495c0.4-1.299,1-1.899,2.299-1.899
		c1.499,0,2.999-0.2,4.698-0.3c0,0.899,0.1,1.599,0.1,2.199v46.379c0,1.898-0.399,2.499-2.398,2.299
		c-4.099-0.4-3.999-0.3-5.298-4.298c-0.965-3.055-2.168-6.029-3.598-8.896c-2.002-4.246-6.204-7.021-10.896-7.196l-15.393-0.899
		c-1.5-0.101-2,0.499-1.899,1.999c0.5,13.793,0.8,27.587,1.399,41.48c0.319,3.327,0.989,6.61,1.999,9.796
		c1.599,5.598,5.397,8.896,11.295,9.496c2.099,0.199,4.198,0.699,6.297,1.099c1.899,0.4,2.399,1.8,2.099,4.599
		c-0.2,1.799-1.299,1.699-2.599,1.699H2.799c-1.699,0-2.199-0.8-2.599-2.1v-2.099c0.447-1.456,1.776-2.463,3.299-2.499
		c1.499-0.2,2.898-0.6,4.398-0.8c5.697-0.899,9.396-4.298,10.995-9.795c0.979-3.325,1.615-6.741,1.899-10.196
		c0.6-9.495,1.1-19.091,1.2-28.587c0.1-18.791-0.1-37.482-0.4-56.274c-0.165-5.333-0.733-10.646-1.699-15.893
		c-1.2-7.097-4.698-12.494-12.594-13.694c-1.5-0.2-3.099-0.5-4.698-0.6c-1.399-0.1-2.099-0.6-2.099-2.099
		c-0.069-1.112-0.236-2.216-0.5-3.298C0.262,346.839,0.366,346.28,0.3,345.729z"/>
	<path fill="#FFFFFF" d="M157.329,498.56c-1.499-0.199-3.099-0.399-4.598-0.499c-19.391-1.1-33.185-10.596-40.981-28.287
		c-4.798-10.796-5.797-22.29-4.798-34.085c0.899-11.495,4.398-21.99,11.695-31.086c8.696-10.895,19.991-16.893,33.685-18.492
		c9.069-1.228,18.298-0.373,26.988,2.499c12.494,4.298,21.59,12.594,26.588,24.689c7.597,18.392,8.096,37.083,0.1,55.375
		c-6.997,16.093-19.691,25.488-36.784,28.787c-2.518,0.349-5.055,0.549-7.596,0.6c-1.3,0.1-2.499,0.3-3.798,0.399
		C157.672,498.532,157.501,498.566,157.329,498.56z M139.237,441.786c0.1,2.198,0.3,5.597,0.4,9.096
		c0.142,7.848,1.456,15.63,3.898,23.089c1.599,4.798,3.598,9.496,7.396,13.095c4.775,4.857,12.585,4.924,17.443,0.148
		c0.017-0.017,0.033-0.032,0.049-0.049c4.098-3.798,5.997-8.696,7.396-13.993c1.899-7.297,2.399-14.894,2.699-22.391
		c0.5-11.595,0.1-23.089-2.299-34.384c-1.5-7.097-3.998-13.794-9.396-19.092c-5.397-5.297-13.694-5.197-18.491,0.8
		c-2.275,2.984-4.032,6.329-5.198,9.896C139.537,418.496,139.537,429.591,139.237,441.786z"/>
	<path fill="#FFFFFF" d="M464.99,498.56c-3.1-0.3-6.197-0.399-9.297-0.899c-18.791-3.198-31.586-13.894-38.881-31.285
		c-3.6-8.597-4.1-17.593-3.998-26.788c0.199-13.395,4.197-25.489,12.693-35.984c8.297-10.295,19.391-15.793,32.484-17.492
		c7.697-0.899,15.193-0.7,22.59,1.899c12.096,4.298,19.492,13.094,23.689,24.889c2.4,6.797,3.299,13.994,3.799,21.09
		c0.199,2.898-0.199,3.198-2.998,3.198c-19.492,0.101-38.883,0.2-58.375,0.4c-1.199,0-2.299-0.101-2.197,1.699
		c0.299,8.596,1.398,17.092,5.596,24.788c6.197,11.295,15.494,17.593,28.688,17.992c8.197,0.2,15.793-1.399,22.689-6.097
		c1.199-0.8,2.4-1.6,3.699,0c1.299,1.599,1.5,2.898,0.1,4.497c-6.697,8.078-15.863,13.732-26.088,16.093
		c-3.898,0.9-7.996,1.1-11.994,1.6l-1.199,0.3C465.662,498.538,465.326,498.571,464.99,498.56z M449.796,428.892
		c8.596-0.3,16.691-0.6,24.689-0.8c1.199,0,1.699-0.399,1.598-1.6c-0.498-5.297-0.799-10.595-1.598-15.893
		c-0.701-4.798-2-9.496-4.998-13.394c-3-3.898-7.598-4.998-11.695-2.199c-2.422,1.723-4.492,3.895-6.098,6.397
		c-4.498,7.297-5.996,15.593-6.896,23.99c-0.4,3.598-0.199,3.598,3.498,3.498H449.796z"/>
	<path fill="#FFFFFF" d="M549.951,497.96c-10.895,0.8-21.391-1.499-31.785-4.598c-2.199-0.7-3.199-1.699-3.299-4.099
		c-0.1-9.096-0.299-18.191-0.6-27.387c-0.1-2.199,1.6-2.1,2.898-2.399s2.6-0.3,3.199,1.499c2.498,6.797,5.697,13.194,10.494,18.692
		c6.299,7.097,14.193,9.396,23.189,7.496c6.197-1.3,10.195-5.497,11.496-11.895c1.398-6.697-0.6-12.294-6.697-15.692
		c-5.551-3-11.256-5.703-17.092-8.097c-6.697-2.898-13.395-5.598-18.393-11.195c-4.078-4.611-6.504-10.449-6.896-16.593
		c-1.898-20.19,13.094-33.984,30.086-36.883c13.693-2.299,27.088-0.8,40.182,3.599c1.652,0.3,2.789,1.83,2.6,3.498
		c0.1,7.896,0.199,15.793,0.5,23.689c0.1,2.299-1.5,2.499-2.898,2.898c-1.6,0.5-2.5-0.2-3.1-1.699
		c-1.898-4.198-3.598-8.596-5.896-12.594c-3.6-6.397-8.996-10.695-16.594-11.895c-8.996-1.5-16.393,4.498-16.992,13.594
		c-0.4,5.698,1.799,10.195,6.398,13.094c4.896,3.099,10.195,5.598,15.393,8.296c5.896,3.099,11.895,5.697,17.592,9.096
		c5.658,3.307,9.57,8.938,10.695,15.394c3.598,18.791-4.299,34.784-23.391,41.581C564.244,497.86,557.248,498.26,549.951,497.96z"/>
	<path fill="#FFFFFF" d="M258.083,385.611c-0.3,7.596-0.5,14.693-0.8,21.89c0.2,0.1,0.3,0.1,0.5,0.2l1.199-1.799
		c3.399-5.997,7.297-11.395,12.994-15.293c7.004-5.024,15.961-6.468,24.189-3.898c0.766,0.213,1.503,0.515,2.199,0.9
		c1.4,0.6,1.799,1.599,1.199,3.099c-3.198,8.396-6.397,16.892-9.595,25.388c-0.6,1.6-1.299,1.799-2.899,1.2
		c-3.79-1.63-7.7-2.967-11.694-3.998c-5.157-1.012-10.505-0.162-15.093,2.399c-2.045,0.95-3.311,3.045-3.199,5.297
		c0,9.296-0.4,18.491-0.3,27.787c0.2,9.496,0.7,18.892,1.299,28.388c0.209,1.771,0.611,3.514,1.2,5.197
		c1.399,4.698,5.198,6.098,9.496,6.497c1.199,0.1,2.399,0.3,3.598,0.5c1,0.2,2.699,0.399,2.799,0.8
		c0.217,1.595,0.183,3.213-0.1,4.798c0,0.3-1.299,0.499-1.999,0.499c-8.996,0.101-17.992,0.101-26.988,0.101
		c-10.695,0-21.39-0.101-32.085,0c-1.899,0-2.499-0.7-2.399-2.499c0.1-1.799-0.3-3.698,2.699-3.998
		c9.396-1,11.295-6.098,11.495-13.594c0.4-19.092,0.4-38.183,0.5-57.274c-0.082-3.335-0.517-6.652-1.299-9.896
		c-0.899-3.998-3.199-6.797-7.497-7.396c-1.1-0.2-2.199-0.6-3.298-0.7c-1.6-0.2-2.699-0.6-2.699-2.499
		c0-1.899,0.799-2.799,2.699-3.099c7.896-1.499,15.693-3.198,23.589-4.798C244.389,388.21,251.086,387.011,258.083,385.611z"/>
</g>
</svg>
