<?xml version="1.0" encoding="UTF-8"?>
<!DOCTYPE svg PUBLIC "-//W3C//DTD SVG 1.1//EN" "http://www.w3.org/Graphics/SVG/1.1/DTD/svg11.dtd">
<!-- Creator: CorelDRAW X6 -->
<svg xmlns="http://www.w3.org/2000/svg" xml:space="preserve" width="338.667mm" height="57.4552mm" version="1.1" style="shape-rendering:geometricPrecision; text-rendering:geometricPrecision; image-rendering:optimizeQuality; fill-rule:evenodd; clip-rule:evenodd"
viewBox="0 0 33867 5746"
 xmlns:xlink="http://www.w3.org/1999/xlink">
 <defs>
  <style type="text/css">
   <![CDATA[
    .fil0 {fill:white}
   ]]>
  </style>
 </defs>
 <g id="图层_x0020_1">
  <metadata id="CorelCorpID_0Corel-Layer"/>
  <path class="fil0" d="M0 20l0 1537 1050 0 0 4053 1775 0 0 -5591m2998 2125l-831 0 0 -590 418 0 0 -1535 -2191 0 0 5591 1773 0 0 -2114 831 0 0 2114 1778 0 0 -5591 -1778 0m2167 5591l3289 0 0 -1540 -1593 0 0 -651 1013 0 0 -1275 -1013 0 0 -587 1593 0 0 -1537 -3289 0m17272 1892c0,-1207 -892,-1892 -2156,-1892l-1976 0 0 5588 1775 0 0 -1431 1016 1431 2003 0 -1439 -2143c519,-283 778,-799 778,-1553m-2363 619l0 -1040c246,0 548,74 638,344 8,24 13,50 21,77 0,3 0,8 3,11 3,26 8,58 8,90 0,415 -378,519 -669,519m-8104 894l-16 0 -127 -460 -397 -1405 699 0 460 -1540 -3545 0 2032 5588 1820 0 220 -598c0,0 974,-2641 1505,-4080l0 4678 3289 0 0 -1540 -1593 0 0 -651 1011 0 0 -1273 -1011 0 0 -587 1593 0 0 -1540 -4913 0 -1027 3408 0 0zm19071 -1865l0 -1537 -3289 0 0 5588 3289 0 0 -1540 -1595 0 0 -651 1013 0 0 -1270 -1013 0 0 -590m1595 0l0 0 0 0zm-3630 2879l0 -2278 -2508 0 0 1270 934 0 0 452c-71,64 -225,98 -384,98 -651,0 -1132,-513 -1132,-1140 0,-627 468,-1183 1119,-1183 394,0 1328,3 1328,3l0 -1656 -426 0c-794,0 -1585,-64 -2312,312 -574,296 -1029,799 -1270,1397 -140,352 -212,733 -212,1111 0,1585 1244,2921 2855,2921 799,0 1580,-299 2006,-672 3,-386 3,-445 3,-635z"/>
 </g>
</svg>
