<?xml version="1.0" encoding="utf-8"?>
<!-- Generator: Adobe Illustrator 16.0.0, SVG Export Plug-In . SVG Version: 6.00 Build 0)  -->
<!DOCTYPE svg PUBLIC "-//W3C//DTD SVG 1.1//EN" "http://www.w3.org/Graphics/SVG/1.1/DTD/svg11.dtd">
<svg version="1.1" id="图层_1" xmlns="http://www.w3.org/2000/svg" xmlns:xlink="http://www.w3.org/1999/xlink" x="0px" y="0px"
	 width="90px" height="55.647px" viewBox="5 22.176 90 55.647" enable-background="new 5 22.176 90 55.647" xml:space="preserve">
<path fill="#F7F9FB" d="M87.768,77.823H12.232C8.238,77.823,5,74.585,5,70.592V29.409c0-3.994,3.238-7.232,7.232-7.232h75.536
	c3.994,0,7.232,3.238,7.232,7.232v41.183C95,74.585,91.762,77.823,87.768,77.823z"/>
<path fill="#142C97" d="M79.185,39.517c-1.451,0-2.847-0.002-4.242,0.001c-1.527,0.003-2.21,0.462-2.807,1.886
	c-2.01,4.796-4.02,9.592-6.025,14.39c-0.644,1.541-1.277,3.087-1.934,4.675h5.635c0.385-1.05,0.754-2.055,1.127-3.066h6.982
	c0.229,1.032,0.453,2.049,0.678,3.066h4.949C82.089,53.458,80.644,46.515,79.185,39.517z M72.494,53.079
	c0.942-2.608,1.854-5.133,2.768-7.659c0.062,0.005,0.124,0.01,0.187,0.016l1.589,7.643H72.494z M36.195,39.54
	c-1.85,4.681-3.695,9.351-5.539,14.02c-0.05,0.002-0.101,0.005-0.15,0.007c-0.052-0.217-0.113-0.433-0.155-0.652
	c-0.707-3.765-1.406-7.531-2.121-11.293c-0.237-1.248-1.147-2.087-2.388-2.1c-3.074-0.034-6.148-0.011-9.212-0.011
	c-0.133,0.182-0.243,0.343-0.135,0.594c1.648,0.428,3.308,0.873,4.883,1.595c0.921,0.422,1.429,1.083,1.674,2.056
	c1.007,4.005,2.049,8,3.081,11.999c0.41,1.589,0.828,3.177,1.237,4.748h5.738c2.913-6.973,5.821-13.932,8.757-20.961H36.195z
	 M62.016,49.297c-0.717-0.552-1.515-0.968-2.308-1.396c-0.813-0.438-1.669-0.811-2.357-1.447c-0.854-0.791-0.766-1.742,0.212-2.378
	c0.627-0.409,1.33-0.541,2.067-0.575c1.648-0.076,3.209,0.306,4.801,0.954c0.315-1.495,0.617-2.924,0.924-4.378
	c-2.318-0.915-4.639-1.083-6.998-0.798c-1.66,0.201-3.2,0.756-4.572,1.748c-2.887,2.087-4.125,6.828,0.086,9.577
	c0.648,0.423,1.331,0.792,2.003,1.177c0.586,0.334,1.199,0.623,1.762,0.991c0.646,0.422,1.197,0.954,1.077,1.831
	c-0.123,0.882-0.765,1.307-1.523,1.59c-1.086,0.406-2.21,0.347-3.334,0.229c-1.382-0.145-2.661-0.633-3.958-1.24
	c-0.33,1.546-0.647,3.031-0.971,4.55c2.063,0.916,5.541,1.327,7.902,1.012c2.075-0.278,3.995-0.896,5.566-2.355
	C65.181,55.798,65.006,51.605,62.016,49.297z M44.24,39.539c-1.496,7.004-2.98,13.962-4.474,20.958h5.396
	c1.487-6.981,2.971-13.943,4.466-20.958H44.24z"/>
</svg>
