<?xml version="1.0" encoding="utf-8"?>
<!-- Generator: Adobe Illustrator 16.0.0, SVG Export Plug-In . SVG Version: 6.00 Build 0)  -->
<!DOCTYPE svg PUBLIC "-//W3C//DTD SVG 1.1//EN" "http://www.w3.org/Graphics/SVG/1.1/DTD/svg11.dtd">
<svg version="1.1" id="图层_1" xmlns="http://www.w3.org/2000/svg" xmlns:xlink="http://www.w3.org/1999/xlink" x="0px" y="0px"
	 width="90px" height="55.648px" viewBox="5 22.176 90 55.648" enable-background="new 5 22.176 90 55.648" xml:space="preserve">
<path fill="#F7F9FB" d="M87.769,77.824H12.232C8.239,77.824,5,74.586,5,70.591V29.408c0-3.993,3.239-7.232,7.232-7.232h75.536
	c3.993,0,7.231,3.239,7.231,7.232v41.183C95,74.586,91.762,77.824,87.769,77.824z"/>
<path fill="#0079C2" d="M59.869,46.014v2.847h4.366v2.278h-4.366v2.847h4.744l3.607-4.175l-3.227-3.796H59.869z M26.845,50.38h3.606
	l-1.898-4.366L26.845,50.38z"/>
<path fill="#0079C2" d="M82.645,40.89h-9.869l-2.467,3.037l-2.468-3.037H47.533l-2.467,5.504l-2.277-5.504h-9.11v3.416L32.35,40.89
	h-7.402L17.355,59.11h8.731l1.139-3.227h2.847l1.139,3.227h10.438v-0.949l0.569,0.949h25.054l2.846-3.227l2.847,3.227h9.68
	L75.243,50L82.645,40.89z M54.366,56.643h-3.797v-9.68l-3.986,9.68h-2.847l-4.365-9.87v9.87h-6.453L31.4,53.416h-5.694l-1.329,3.227
	h-3.416l5.504-13.286h4.175l5.505,12.526V43.357h5.125l3.796,8.731l3.985-8.731h5.315L54.366,56.643L54.366,56.643z M77.521,56.643
	h-3.796l-3.606-4.365l-3.795,4.365h-9.681V43.357h10.248l3.417,4.176l3.416-4.176h3.796L72.207,50L77.521,56.643z"/>
</svg>
