<?xml version="1.0" encoding="UTF-8"?>
<!DOCTYPE svg PUBLIC "-//W3C//DTD SVG 1.1//EN" "http://www.w3.org/Graphics/SVG/1.1/DTD/svg11.dtd">
<!-- Creator: CorelDRAW X6 -->
<svg xmlns="http://www.w3.org/2000/svg" xml:space="preserve" width="207.523mm" height="26.8327mm" version="1.1" style="shape-rendering:geometricPrecision; text-rendering:geometricPrecision; image-rendering:optimizeQuality; fill-rule:evenodd; clip-rule:evenodd"
viewBox="0 0 4715 610"
 xmlns:xlink="http://www.w3.org/1999/xlink">
 <defs>
  <style type="text/css">
   <![CDATA[
    .fil0 {fill:#FEFEFE;fill-rule:nonzero}
   ]]>
  </style>
 </defs>
 <g id="图层_x0020_1">
  <metadata id="CorelCorpID_0Corel-Layer"/>
  <path class="fil0" d="M0 300c0,174 123,310 299,310 149,0 232,-99 232,-99l-45 -60c0,0 -69,80 -186,80 -120,0 -213,-103 -213,-231 0,-133 92,-222 210,-222 59,0 143,25 143,74l0 33 77 0 0 -58c0,-94 -142,-128 -221,-128 -169,0 -296,129 -296,300zm671 148c0,112 48,162 144,162 84,0 138,-55 155,-97l2 0c0,0 -1,11 -1,24l0 16c0,30 18,47 53,47l78 0 0 -69 -34 0c-12,0 -18,-6 -18,-18l0 -335 -81 0 0 198c0,84 -51,159 -138,159 -67,0 -78,-47 -78,-105l0 -200c0,-36 -16,-52 -54,-52l-79 0 0 69 34 0c12,0 18,6 18,18l0 183zm563 99c0,38 16,53 53,53l80 0 0 -69 -34 0c-12,0 -18,-6 -18,-18l0 -448c0,-38 -16,-53 -53,-53l-80 0 0 69 34 0c12,0 18,6 18,18l0 448zm274 -101c0,141 108,158 161,158 18,0 28,-2 28,-2l0 -72c0,0 -8,2 -19,2 -31,0 -89,-11 -89,-95l0 -194 101 0 0 -65 -101 0 0 -116 -79 0 0 116 -57 0 0 65 55 0 0 203zm483 -58c0,129 101,222 227,222 126,0 228,-94 228,-222 0,-128 -102,-220 -228,-220 -126,0 -227,93 -227,220zm83 0c0,-88 65,-150 144,-150 80,0 145,63 145,150 0,89 -65,152 -145,152 -79,0 -144,-63 -144,-152zm518 212l81 0 0 -357 100 0 0 -65 -100 0 0 -13c0,-78 57,-89 89,-89 13,0 21,2 21,2l0 -69c0,0 -13,-3 -31,-3 -53,0 -159,18 -159,157l0 14 -53 0 0 65 53 0 0 357zm451 0l74 0c38,0 52,-16 54,-53l23 -311c3,-35 2,-88 2,-88l2 0c0,0 18,57 32,88l119 259 70 0 119 -259c14,-32 31,-87 31,-87l2 0c0,0 -1,52 2,87l24 311c3,38 16,53 53,53l74 0 0 -72 -28 0c-12,0 -18,-7 -18,-18l-40 -499 -86 0 -139 312c-14,32 -29,74 -29,74l-2 0c0,0 -15,-43 -29,-74l-139 -312 -86 0 -40 499c-1,12 -7,18 -18,18l-28 0 0 72zm775 -119c0,84 71,129 144,129 101,0 134,-84 134,-84l2 0c0,0 -2,11 -2,25 0,30 15,48 53,48l76 0 0 -69 -34 0c-12,0 -18,-6 -18,-18l0 -180c0,-94 -37,-165 -174,-165 -41,0 -146,10 -146,79l0 42 76 0 0 -24c0,-28 49,-33 69,-33 66,0 94,27 94,101l0 4 -18 0c-71,0 -255,8 -255,144zm82 -4c0,-78 110,-81 171,-81l21 0 0 14c0,63 -44,134 -113,134 -53,0 -79,-33 -79,-68zm417 -89c0,127 93,221 225,221 112,0 172,-73 172,-73l-35 -58c0,0 -52,58 -131,58 -78,0 -149,-54 -149,-150 0,-89 62,-151 144,-151 31,0 78,13 78,43l0 23 73 0 0 -43c0,-72 -101,-93 -152,-93 -136,0 -227,97 -227,221z"/>
 </g>
</svg>
