<?xml version="1.0" encoding="utf-8"?>
<!-- Generator: Adobe Illustrator 23.0.0, SVG Export Plug-In . SVG Version: 6.00 Build 0)  -->
<svg version="1.1" id="图层_1" xmlns="http://www.w3.org/2000/svg" xmlns:xlink="http://www.w3.org/1999/xlink" x="0px" y="0px"
	 viewBox="0 0 37.98 37.98" style="enable-background:new 0 0 37.98 37.98;" xml:space="preserve">
<style type="text/css">
	.st0{fill:#FFFFFF;}
	.st1{fill:none;stroke:#FFFFFF;stroke-width:0.9441;stroke-linecap:round;stroke-miterlimit:10;}
	.st2{fill:none;stroke:#FFFFFF;stroke-width:1.3139;stroke-miterlimit:10;}
	.st3{fill:none;stroke:#FFFFFF;stroke-width:1.3906;stroke-miterlimit:10;}
	.st4{fill:none;stroke:#FFFFFF;stroke-width:0.5226;stroke-miterlimit:10;}
	.st5{fill:none;stroke:#FFFFFF;stroke-width:0.9441;stroke-miterlimit:10;}
	.st6{fill:none;stroke:#FFFFFF;stroke-width:0.5915;stroke-miterlimit:10;}
	.st7{fill:#FFFFFF;stroke:#FFFFFF;stroke-width:0;stroke-miterlimit:10;}
	.st8{fill:none;stroke:#FFFFFF;stroke-miterlimit:10;}
	.st9{fill:none;stroke:#FFFFFF;stroke-linecap:round;stroke-linejoin:round;stroke-miterlimit:10;}
	.st10{fill:none;stroke:#FFFFFF;stroke-width:1.3906;stroke-linecap:round;stroke-miterlimit:10;}
	.st11{fill-rule:evenodd;clip-rule:evenodd;fill:none;stroke:#FFFFFF;stroke-width:1.3906;stroke-miterlimit:10;}
	.st12{fill-rule:evenodd;clip-rule:evenodd;fill:none;stroke:#FFFFFF;stroke-width:0.9441;stroke-miterlimit:10;}
	.st13{fill-rule:evenodd;clip-rule:evenodd;fill:none;stroke:#FFFFFF;stroke-width:0.5915;stroke-miterlimit:10;}
	.st14{fill:none;stroke:#FFFFFF;stroke-width:1.4964;stroke-miterlimit:10;}
	.st15{fill:none;stroke:#FFFFFF;stroke-width:1.4979;stroke-linecap:round;stroke-miterlimit:10;}
	.st16{fill:none;stroke:#FFFFFF;stroke-width:0.4896;stroke-miterlimit:10;}
	.st17{fill:none;stroke:#FFFFFF;stroke-width:0.5515;stroke-miterlimit:10;}
	.st18{fill-rule:evenodd;clip-rule:evenodd;fill:none;stroke:#FFFFFF;stroke-width:1.8871;stroke-miterlimit:10;}
	.st19{fill:none;stroke:#FFFFFF;stroke-width:1.3098;stroke-miterlimit:10;}
	.st20{fill:none;stroke:#FFFFFF;stroke-width:1.8871;stroke-linecap:round;stroke-miterlimit:10;}
	.st21{fill-rule:evenodd;clip-rule:evenodd;fill:none;stroke:#FFFFFF;stroke-width:0.6173;stroke-miterlimit:10;}
	.st22{fill-rule:evenodd;clip-rule:evenodd;fill:none;stroke:#FFFFFF;stroke-width:0.3868;stroke-miterlimit:10;}
	.st23{fill:none;stroke:#FFFFFF;stroke-width:1.6605;stroke-miterlimit:10;}
	.st24{fill-rule:evenodd;clip-rule:evenodd;fill:none;stroke:#FFFFFF;stroke-width:1.4489;stroke-miterlimit:10;}
	.st25{fill-rule:evenodd;clip-rule:evenodd;fill:none;stroke:#FFFFFF;stroke-width:0.9077;stroke-miterlimit:10;}
	.st26{fill:none;stroke:#FFFFFF;stroke-width:0.0145;stroke-miterlimit:10;}
	.st27{fill:none;stroke:#FFFFFF;stroke-width:1.1586;stroke-miterlimit:10;}
	.st28{fill:none;stroke:#FFFFFF;stroke-width:1.3665;stroke-miterlimit:10;}
	.st29{fill:none;stroke:#FFFFFF;stroke-width:1.5609;stroke-miterlimit:10;}
	.st30{fill:none;stroke:#FFFFFF;stroke-width:1.6987;stroke-miterlimit:10;}
	.st31{fill:#221814;stroke:#FFFFFF;stroke-miterlimit:10;}
	.st32{fill:none;stroke:#FFFFFF;stroke-width:1.6838;stroke-miterlimit:10;}
	.st33{fill:none;stroke:#FFFFFF;stroke-width:1.2082;stroke-miterlimit:10;}
	.st34{fill:none;stroke:#FFFFFF;stroke-width:1.1058;stroke-miterlimit:10;}
</style>
<g id="XMLID_5_">
	<path class="st3" d="M9.52,20.06l5.24,9.43H3.07c-0.57,0-1.03-0.46-1.03-1.03V16.01c0,0.57,0.46,1.03,1.03,1.03h6.14L9.52,20.06z"
		/>
	<path class="st3" d="M18.98,12.4v3.61c0,0.57-0.46,1.03-1.03,1.03h-5.38L8.91,14.2l0.3,2.84H3.07c-0.57,0-1.03-0.46-1.03-1.03V12.4
		c0-0.57,0.46-1.03,1.03-1.03h14.88C18.52,11.37,18.98,11.83,18.98,12.4z"/>
	<polygon class="st3" points="9.21,17.04 8.91,14.2 12.57,17.04 13.56,17.81 20.05,29.49 22.32,33.57 18.28,35.82 14.76,29.49 
		9.52,20.06 	"/>
	<path class="st3" d="M35.94,9.51v18.95c0,0.57-0.46,1.03-1.03,1.03H20.05l-6.49-11.68l-0.99-0.77h5.38c0.57,0,1.03-0.46,1.03-1.03
		V12.4c0-0.57-0.46-1.03-1.03-1.03H3.07c-0.57,0-1.03,0.46-1.03,1.03V9.51c0-0.57,0.46-1.03,1.03-1.03h31.84
		C35.48,8.48,35.94,8.94,35.94,9.51z"/>
</g>
</svg>
