<svg id="图层_1" data-name="图层 1" xmlns="http://www.w3.org/2000/svg" viewBox="0 0 38 38"><defs><style>.cls-1{fill:none;stroke:#fff;stroke-miterlimit:10;stroke-width:1.37px;}</style></defs><title>icon</title><path id="_1-3" data-name=" 1-3" class="cls-1" d="M18.93,5c.34,0,.7,1,1.06,1h4c.33,0,.65-1,1-1h5v7h-5c-.54,0-.92,2-.92,2H20s-.45-2-1.09-2H13.94V5Z"/><path id="_1-4" data-name=" 1-4" class="cls-1" d="M11.93,15c.34,0,.7,1,1.06,1h4c.33,0,.65-1,1-1h5v7h-5c-.54,0-.91,2-.91,2H13s-.45-2-1.08-2H6.94V15Z"/><path id="_1-5" data-name=" 1-5" class="cls-1" d="M18.93,24.94c.34,0,.7,1,1.06,1h4c.33,0,.65-1,1-1h5v7h-5c-.54,0-.92,2-.92,2H20s-.45-2-1.09-2H13.94v-7Z"/></svg>