<?xml version="1.0" encoding="utf-8"?>
<!-- Generator: Adobe Illustrator 23.0.0, SVG Export Plug-In . SVG Version: 6.00 Build 0)  -->
<svg version="1.1" id="图层_1" xmlns="http://www.w3.org/2000/svg" xmlns:xlink="http://www.w3.org/1999/xlink" x="0px" y="0px"
	 viewBox="0 0 37.98 37.98" style="enable-background:new 0 0 37.98 37.98;" xml:space="preserve">
<style type="text/css">
	.st0{fill:#FFFFFF;}
	.st1{fill:none;stroke:#FFFFFF;stroke-width:0.9441;stroke-linecap:round;stroke-miterlimit:10;}
	.st2{fill:none;stroke:#FFFFFF;stroke-width:1.3139;stroke-miterlimit:10;}
	.st3{fill:none;stroke:#FFFFFF;stroke-width:1.3906;stroke-miterlimit:10;}
	.st4{fill:none;stroke:#FFFFFF;stroke-width:0.5226;stroke-miterlimit:10;}
	.st5{fill:none;stroke:#FFFFFF;stroke-width:0.9441;stroke-miterlimit:10;}
	.st6{fill:none;stroke:#FFFFFF;stroke-width:0.5915;stroke-miterlimit:10;}
	.st7{fill:#FFFFFF;stroke:#FFFFFF;stroke-width:0;stroke-miterlimit:10;}
	.st8{fill:none;stroke:#FFFFFF;stroke-miterlimit:10;}
	.st9{fill:none;stroke:#FFFFFF;stroke-linecap:round;stroke-linejoin:round;stroke-miterlimit:10;}
	.st10{fill:none;stroke:#FFFFFF;stroke-width:1.3906;stroke-linecap:round;stroke-miterlimit:10;}
	.st11{fill-rule:evenodd;clip-rule:evenodd;fill:none;stroke:#FFFFFF;stroke-width:1.3906;stroke-miterlimit:10;}
	.st12{fill-rule:evenodd;clip-rule:evenodd;fill:none;stroke:#FFFFFF;stroke-width:0.9441;stroke-miterlimit:10;}
	.st13{fill-rule:evenodd;clip-rule:evenodd;fill:none;stroke:#FFFFFF;stroke-width:0.5915;stroke-miterlimit:10;}
	.st14{fill:none;stroke:#FFFFFF;stroke-width:1.4964;stroke-miterlimit:10;}
	.st15{fill:none;stroke:#FFFFFF;stroke-width:1.4979;stroke-linecap:round;stroke-miterlimit:10;}
	.st16{fill:none;stroke:#FFFFFF;stroke-width:0.4896;stroke-miterlimit:10;}
	.st17{fill:none;stroke:#FFFFFF;stroke-width:0.5515;stroke-miterlimit:10;}
	.st18{fill-rule:evenodd;clip-rule:evenodd;fill:none;stroke:#FFFFFF;stroke-width:1.8871;stroke-miterlimit:10;}
	.st19{fill:none;stroke:#FFFFFF;stroke-width:1.3098;stroke-miterlimit:10;}
	.st20{fill:none;stroke:#FFFFFF;stroke-width:1.8871;stroke-linecap:round;stroke-miterlimit:10;}
	.st21{fill-rule:evenodd;clip-rule:evenodd;fill:none;stroke:#FFFFFF;stroke-width:0.6173;stroke-miterlimit:10;}
	.st22{fill-rule:evenodd;clip-rule:evenodd;fill:none;stroke:#FFFFFF;stroke-width:0.3868;stroke-miterlimit:10;}
	.st23{fill:none;stroke:#FFFFFF;stroke-width:1.6605;stroke-miterlimit:10;}
	.st24{fill-rule:evenodd;clip-rule:evenodd;fill:none;stroke:#FFFFFF;stroke-width:1.4489;stroke-miterlimit:10;}
	.st25{fill-rule:evenodd;clip-rule:evenodd;fill:none;stroke:#FFFFFF;stroke-width:0.9077;stroke-miterlimit:10;}
	.st26{fill:none;stroke:#FFFFFF;stroke-width:0.0145;stroke-miterlimit:10;}
	.st27{fill:none;stroke:#FFFFFF;stroke-width:1.1586;stroke-miterlimit:10;}
	.st28{fill:none;stroke:#FFFFFF;stroke-width:1.3665;stroke-miterlimit:10;}
	.st29{fill:none;stroke:#FFFFFF;stroke-width:1.5609;stroke-miterlimit:10;}
	.st30{fill:none;stroke:#FFFFFF;stroke-width:1.6987;stroke-miterlimit:10;}
	.st31{fill:#221814;stroke:#FFFFFF;stroke-miterlimit:10;}
	.st32{fill:none;stroke:#FFFFFF;stroke-width:1.6838;stroke-miterlimit:10;}
	.st33{fill:none;stroke:#FFFFFF;stroke-width:1.2082;stroke-miterlimit:10;}
	.st34{fill:none;stroke:#FFFFFF;stroke-width:1.1058;stroke-miterlimit:10;}
</style>
<g>
	<path class="st7" d="M16.71,9.81c-1.97,1.21-1.74,4.09,0.35,5.06c-0.4,1.14-0.98,2.18-1.9,2.98c-0.41,0.36-0.89,0.46-1.42,0.29
		c-0.17-0.06-0.35-0.11-0.51-0.18c-0.73-0.32-1.46-0.31-2.2-0.01c-1.17,0.47-1.64,0.35-2.46-0.61c-1.17-1.38-1.82-2.99-1.89-4.8
		c-0.05-1.23,0.27-2.36,1.24-3.2c0.84-0.73,1.81-0.96,2.89-0.57c1.36,0.5,1.01,0.45,2.32-0.01c1.27-0.45,2.39-0.22,3.35,0.72
		c0.05,0.05,0.1,0.11,0.15,0.17C16.65,9.71,16.68,9.76,16.71,9.81z"/>
	<path class="st7" d="M14.39,5.49c0.24,1.25-1.06,3.11-2.51,2.91C11.64,7.11,12.97,5.56,14.39,5.49z"/>
</g>
<path class="st7" d="M30.32,23.54l1.28-2.21c0.08-0.13,0.03-0.3-0.1-0.38c-0.13-0.08-0.3-0.03-0.38,0.1l-1.29,2.23
	c-0.98-0.45-2.07-0.71-3.22-0.71c-1.15,0-2.25,0.26-3.23,0.71l-1.29-2.24c-0.08-0.13-0.25-0.18-0.38-0.1
	c-0.13,0.08-0.18,0.25-0.1,0.38l1.28,2.21c-2.14,1.19-3.64,3.38-3.89,5.94h15.23C33.97,26.92,32.46,24.73,30.32,23.54z M23.1,27.33
	c-0.35,0-0.63-0.28-0.63-0.63c0-0.35,0.28-0.63,0.63-0.63c0.35,0,0.63,0.28,0.63,0.63C23.74,27.05,23.45,27.33,23.1,27.33z
	 M30.09,27.33c-0.35,0-0.63-0.28-0.63-0.63c0-0.35,0.28-0.63,0.63-0.63c0.35,0,0.63,0.28,0.63,0.63
	C30.72,27.05,30.44,27.33,30.09,27.33z"/>
<g>
	<path class="st0" d="M11.86,0.69c6.16,0,11.17,5.01,11.17,11.17c0,0.88-0.12,1.8-0.35,2.72l-0.24,0.96l0.96-0.24
		c0.92-0.23,1.84-0.35,2.72-0.35c6.16,0,11.17,5.01,11.17,11.17s-5.01,11.17-11.17,11.17s-11.17-5.01-11.17-11.17
		c0-0.88,0.12-1.8,0.35-2.72l0.24-0.96l-0.96,0.24c-0.92,0.23-1.84,0.35-2.72,0.35c-6.16,0-11.17-5.01-11.17-11.17
		S5.7,0.69,11.86,0.69 M11.86,0.1C5.37,0.1,0.1,5.37,0.1,11.86s5.27,11.76,11.76,11.76c0.99,0,1.94-0.14,2.86-0.37
		c-0.23,0.92-0.37,1.87-0.37,2.86c0,6.5,5.27,11.76,11.76,11.76s11.76-5.27,11.76-11.76s-5.27-11.76-11.76-11.76
		c-0.99,0-1.94,0.14-2.86,0.37c0.23-0.92,0.37-1.87,0.37-2.86C23.62,5.37,18.36,0.1,11.86,0.1L11.86,0.1z"/>
</g>
</svg>
