<?xml version="1.0" encoding="utf-8"?>
<!-- Generator: Adobe Illustrator 23.0.0, SVG Export Plug-In . SVG Version: 6.00 Build 0)  -->
<svg version="1.1" id="图层_1" xmlns="http://www.w3.org/2000/svg" xmlns:xlink="http://www.w3.org/1999/xlink" x="0px" y="0px"
	 viewBox="0 0 70.88 34.02" style="enable-background:new 0 0 70.88 34.02;" xml:space="preserve">
<style type="text/css">
	.st0{fill:#FFFFFF;}
</style>
<g>
	<g>
		<g>
			<g>
				<path class="st0" d="M62.78,0L62.78,0c0.31,0,0.62,0,0.92,0c0.26,0,0.52,0.01,0.78,0.01c0.57,0.01,1.14,0.05,1.7,0.15
					c0.57,0.1,1.1,0.27,1.62,0.53c0.51,0.26,0.97,0.6,1.38,1c0.41,0.4,0.74,0.87,1,1.38c0.26,0.52,0.43,1.05,0.53,1.62
					c0.1,0.56,0.14,1.13,0.16,1.7c0,0.26,0,0.52,0,0.78c0.01,0.31,0.01,0.62,0.01,0.93v17.8c0,0.31,0,0.62-0.01,0.93
					c0,0.26,0,0.52,0,0.78c-0.02,0.57-0.05,1.14-0.16,1.7c-0.1,0.57-0.27,1.1-0.53,1.62c-0.26,0.51-0.6,0.97-1,1.37
					c-0.4,0.41-0.87,0.74-1.38,1c-0.52,0.27-1.05,0.43-1.62,0.54c-0.56,0.1-1.13,0.13-1.7,0.15c-0.26,0.01-0.52,0.01-0.78,0.01
					c-0.31,0-0.62,0-0.92,0H8.11c-0.31,0-0.62,0-0.93,0c-0.26,0-0.52,0-0.78-0.01c-0.57-0.02-1.14-0.05-1.7-0.15
					c-0.57-0.1-1.1-0.27-1.62-0.54c-0.51-0.26-0.97-0.6-1.38-1c-0.41-0.4-0.74-0.87-1-1.37c-0.26-0.52-0.43-1.05-0.53-1.62
					c-0.1-0.56-0.14-1.13-0.15-1.7C0,27.36,0,27.1,0,26.84c0-0.31,0-0.62,0-0.93V8.11C0,7.8,0,7.49,0,7.18C0,6.92,0,6.66,0.01,6.4
					c0.01-0.57,0.05-1.14,0.15-1.7c0.1-0.57,0.27-1.1,0.53-1.62c0.26-0.51,0.6-0.98,1-1.38c0.4-0.4,0.87-0.74,1.38-1
					c0.52-0.26,1.05-0.43,1.62-0.53c0.56-0.1,1.14-0.14,1.7-0.15C6.66,0.01,6.92,0,7.18,0C7.49,0,7.8,0,8.11,0H62.78L62.78,0z
					 M62.78,0.7H8.11l-0.93,0c-0.2,0-0.4,0-0.61,0.01l-0.17,0C5.97,0.72,5.39,0.75,4.82,0.85C4.3,0.94,3.84,1.1,3.39,1.32
					c-0.44,0.23-0.85,0.52-1.2,0.87c-0.35,0.35-0.65,0.75-0.87,1.2C1.1,3.83,0.95,4.29,0.86,4.82c-0.1,0.57-0.13,1.16-0.14,1.6
					C0.71,6.59,0.71,6.77,0.7,6.94l0,0.25v0.92v17.8v0.93l0,0.24c0,0.17,0,0.35,0.01,0.52c0.01,0.45,0.04,1.03,0.14,1.6
					c0.09,0.53,0.24,0.99,0.47,1.43c0.23,0.45,0.52,0.85,0.87,1.19c0.36,0.36,0.76,0.65,1.2,0.88c0.44,0.22,0.9,0.38,1.42,0.47
					c0.55,0.1,1.12,0.13,1.6,0.14c0.25,0,0.51,0.01,0.76,0.01c0.31,0,0.62,0,0.93,0h54.67c0.3,0,0.61,0,0.92,0
					c0.26,0,0.52,0,0.77-0.01c0.48-0.01,1.04-0.04,1.59-0.14c0.53-0.1,0.99-0.25,1.43-0.47c0.44-0.23,0.85-0.52,1.2-0.87
					c0.35-0.35,0.65-0.75,0.88-1.2c0.22-0.44,0.37-0.9,0.46-1.41c0.1-0.54,0.13-1.09,0.15-1.61c0-0.25,0-0.5,0-0.76
					c0.01-0.32,0.01-0.62,0.01-0.93V8.11c0-0.31,0-0.61-0.01-0.91c0-0.27,0-0.53,0-0.79c-0.02-0.5-0.05-1.06-0.15-1.58
					c-0.09-0.52-0.24-0.99-0.46-1.43c-0.23-0.45-0.53-0.85-0.87-1.2c-0.35-0.35-0.76-0.65-1.2-0.88c-0.44-0.22-0.91-0.38-1.42-0.46
					c-0.57-0.1-1.15-0.13-1.6-0.14l-0.14,0c-0.21,0-0.42-0.01-0.63-0.01L62.78,0.7"/>
			</g>
		</g>
		<g>
			<polygon class="st0" points="12.87,11.75 12.87,8.09 12.82,8.09 11.34,11.6 10.74,11.6 9.26,8.09 9.21,8.09 9.21,11.75 
				8.48,11.75 8.48,6.69 9.4,6.69 11.01,10.53 11.07,10.53 12.68,6.69 13.6,6.69 13.6,11.75 12.87,11.75 			"/>
		</g>
		<g>
			<g>
				<path class="st0" d="M17.06,10.34v-0.32l-0.93,0.06c-0.53,0.04-0.77,0.21-0.77,0.55c0,0.34,0.3,0.54,0.71,0.54
					C16.64,11.18,17.06,10.82,17.06,10.34L17.06,10.34z M14.61,10.67c0-0.69,0.51-1.09,1.42-1.14l1.04-0.06V9.14
					c0-0.4-0.27-0.63-0.78-0.63c-0.42,0-0.71,0.15-0.8,0.42h-0.73c0.08-0.66,0.69-1.08,1.56-1.08c0.96,0,1.5,0.48,1.5,1.28v2.61
					h-0.73v-0.54h-0.06c-0.23,0.38-0.65,0.6-1.15,0.6C15.14,11.81,14.61,11.37,14.61,10.67L14.61,10.67z"/>
			</g>
		</g>
		<g>
			<g>
				<path class="st0" d="M19.51,9.84c0,0.81,0.38,1.3,1.02,1.3c0.64,0,1.03-0.5,1.03-1.29c0-0.8-0.4-1.3-1.03-1.3
					C19.9,8.54,19.51,9.03,19.51,9.84L19.51,9.84z M18.73,9.84c0-1.21,0.62-1.97,1.59-1.97c0.52,0,0.96,0.25,1.17,0.67h0.06v-2.1
					h0.75v5.31h-0.72v-0.6h-0.06c-0.23,0.42-0.67,0.67-1.2,0.67C19.35,11.81,18.73,11.05,18.73,9.84L18.73,9.84z"/>
			</g>
		</g>
		<g>
			<g>
				<path class="st0" d="M24.05,9.49h1.93c-0.02-0.6-0.38-0.99-0.94-0.99C24.48,8.5,24.09,8.89,24.05,9.49L24.05,9.49z M26.7,10.72
					c-0.17,0.68-0.78,1.11-1.66,1.11c-1.09,0-1.77-0.75-1.77-1.97s0.69-2,1.76-2c1.06,0,1.71,0.73,1.71,1.93v0.26h-2.7v0.04
					c0.02,0.67,0.41,1.1,1.02,1.1c0.46,0,0.77-0.16,0.91-0.46H26.7L26.7,10.72z"/>
			</g>
		</g>
		<g>
			<path class="st0" d="M29.96,8.58h-0.63V7.95h0.63V7.57c0-0.78,0.42-1.1,1.22-1.1c0.15,0,0.26,0.01,0.41,0.04v0.6
				c-0.07-0.02-0.21-0.03-0.33-0.03c-0.36,0-0.55,0.17-0.55,0.54v0.32h0.85v0.64h-0.84v3.17h-0.75V8.58L29.96,8.58z"/>
		</g>
		<g>
			<g>
				<path class="st0" d="M34.93,9.84c0-0.83-0.37-1.31-1.03-1.31c-0.66,0-1.02,0.48-1.02,1.31c0,0.83,0.37,1.32,1.02,1.32
					C34.56,11.15,34.93,10.67,34.93,9.84L34.93,9.84z M32.1,9.84c0-1.23,0.69-1.98,1.8-1.98c1.11,0,1.8,0.75,1.8,1.98
					c0,1.24-0.68,1.99-1.8,1.99C32.79,11.82,32.1,11.08,32.1,9.84L32.1,9.84z"/>
			</g>
		</g>
		<g>
			<path class="st0" d="M36.65,7.93h0.73v0.59h0.06c0.11-0.38,0.53-0.65,1.03-0.65c0.11,0,0.26,0.01,0.34,0.03v0.74
				c-0.06-0.02-0.29-0.04-0.42-0.04c-0.57,0-0.98,0.36-0.98,0.9v2.26h-0.75V7.93L36.65,7.93z"/>
		</g>
		<g>
			<g>
				<path class="st0" d="M27.63,23.07H27.6l-1.5-6.01h-1.78l-1.5,6.01H22.8l-1.38-6.01h-1.87l2.35,8.43h1.75l1.55-5.77h0.03
					l1.56,5.77h1.77l2.35-8.43h-1.87L27.63,23.07L27.63,23.07z M60.46,17.06v3.38h-3.43v-3.38h-1.75v8.43h1.75v-3.59h3.43v3.59h1.77
					v-8.43H60.46L60.46,17.06z M38.7,18.48h2.51v7h1.74v-7h2.52v-1.43H38.7V18.48L38.7,18.48z M33.87,22.06l0.96-3.35h0.03
					l0.95,3.35H33.87L33.87,22.06z M33.85,17.06l-2.71,8.43h1.75l0.61-2.12h2.67l0.59,2.12h1.87l-2.7-8.43H33.85L33.85,17.06z
					 M50.09,16.96c-2.23,0-3.55,1.44-3.55,3.85v0.95c0,2.43,1.31,3.83,3.53,3.83c2.23,0,3.35-1.36,3.35-2.88v-0.16h-1.68
					c0,0.88-0.42,1.56-1.64,1.56c-1.2,0-1.79-0.75-1.79-2.35V20.8c0-1.58,0.59-2.38,1.79-2.38c1.12,0,1.64,0.73,1.64,1.57h1.68
					v-0.08C53.43,18.27,52.17,16.96,50.09,16.96"/>
			</g>
		</g>
		<g>
			<path class="st0" d="M14.81,15.97c0.4-0.5,0.67-1.16,0.6-1.84c-0.58,0.03-1.29,0.38-1.7,0.88c-0.37,0.42-0.69,1.12-0.61,1.77
				C13.75,16.84,14.4,16.45,14.81,15.97"/>
		</g>
		<g>
			<path class="st0" d="M15.4,16.91c-0.95-0.06-1.75,0.54-2.2,0.54c-0.45,0-1.14-0.51-1.89-0.5c-0.97,0.02-1.88,0.57-2.37,1.44
				c-1.02,1.75-0.27,4.35,0.72,5.78c0.48,0.71,1.06,1.48,1.82,1.46c0.72-0.03,1-0.47,1.88-0.47c0.88,0,1.13,0.47,1.89,0.45
				c0.79-0.01,1.29-0.71,1.77-1.41c0.55-0.8,0.78-1.58,0.79-1.63c-0.01-0.01-1.53-0.59-1.54-2.33c-0.01-1.45,1.19-2.15,1.24-2.19
				C16.83,17.05,15.77,16.93,15.4,16.91"/>
		</g>
	</g>
</g>
</svg>
