<?xml version="1.0" encoding="utf-8"?>
<!-- Generator: Adobe Illustrator 23.0.0, SVG Export Plug-In . SVG Version: 6.00 Build 0)  -->
<svg version="1.1" id="图层_1" xmlns="http://www.w3.org/2000/svg" xmlns:xlink="http://www.w3.org/1999/xlink" x="0px" y="0px"
	 viewBox="0 0 73.32 37.98" style="enable-background:new 0 0 73.32 37.98;" xml:space="preserve">
<style type="text/css">
	.st0{clip-path:url(#SVGID_2_);}
	.st1{fill:none;stroke:#000000;stroke-width:0.1574;stroke-linejoin:round;stroke-miterlimit:10;}
	.st2{fill:none;stroke:#000000;stroke-width:0.9441;stroke-linecap:round;stroke-miterlimit:10;}
	.st3{fill:none;stroke:#000000;stroke-width:1.3139;stroke-miterlimit:10;}
	.st4{fill:none;stroke:#000000;stroke-width:1.3906;stroke-miterlimit:10;}
	.st5{fill:none;stroke:#000000;stroke-width:0.5226;stroke-miterlimit:10;}
	.st6{fill:none;stroke:#000000;stroke-width:0.9441;stroke-miterlimit:10;}
	.st7{fill:none;stroke:#000000;stroke-width:0.5915;stroke-miterlimit:10;}
	.st8{fill:none;stroke:#000000;stroke-miterlimit:10;}
	.st9{fill:none;stroke:#000000;stroke-linecap:round;stroke-linejoin:round;stroke-miterlimit:10;}
	.st10{fill:none;stroke:#000000;stroke-width:1.3906;stroke-linecap:round;stroke-miterlimit:10;}
	.st11{fill-rule:evenodd;clip-rule:evenodd;fill:none;stroke:#000000;stroke-width:1.3906;stroke-miterlimit:10;}
	.st12{fill-rule:evenodd;clip-rule:evenodd;fill:none;stroke:#000000;stroke-width:0.9441;stroke-miterlimit:10;}
	.st13{fill-rule:evenodd;clip-rule:evenodd;fill:none;stroke:#000000;stroke-width:0.5915;stroke-miterlimit:10;}
	.st14{fill:none;stroke:#000000;stroke-width:1.4964;stroke-miterlimit:10;}
	.st15{fill:none;stroke:#FFFFFF;stroke-width:0.9441;stroke-miterlimit:10;}
	.st16{fill:none;stroke:#000000;stroke-width:1.4979;stroke-linecap:round;stroke-miterlimit:10;}
	.st17{fill:#FFFFFF;}
	.st18{fill:none;stroke:#000000;stroke-width:0.4896;stroke-miterlimit:10;}
	.st19{fill:none;stroke:#000000;stroke-width:0.5515;stroke-miterlimit:10;}
	.st20{fill-rule:evenodd;clip-rule:evenodd;fill:none;stroke:#000000;stroke-width:1.8871;stroke-miterlimit:10;}
	.st21{fill:none;stroke:#000000;stroke-width:1.3098;stroke-miterlimit:10;}
	
		.st22{fill-rule:evenodd;clip-rule:evenodd;fill:none;stroke:#FFFFFF;stroke-width:1.3906;stroke-linecap:round;stroke-linejoin:round;stroke-miterlimit:10;}
	.st23{fill:none;stroke:#FFFFFF;stroke-width:1.3906;stroke-linecap:round;stroke-linejoin:round;stroke-miterlimit:10;}
	.st24{fill:none;stroke:#000000;stroke-width:1.8871;stroke-linecap:round;stroke-miterlimit:10;}
	.st25{fill-rule:evenodd;clip-rule:evenodd;fill:none;stroke:#000000;stroke-width:0.6173;stroke-miterlimit:10;}
	.st26{fill-rule:evenodd;clip-rule:evenodd;fill:none;stroke:#000000;stroke-width:0.3868;stroke-miterlimit:10;}
	.st27{fill-rule:evenodd;clip-rule:evenodd;fill:none;stroke:#000000;stroke-width:1.4489;stroke-miterlimit:10;}
	.st28{fill-rule:evenodd;clip-rule:evenodd;fill:none;stroke:#000000;stroke-width:0.9077;stroke-miterlimit:10;}
	.st29{fill:none;stroke:#000000;stroke-width:0.0145;stroke-miterlimit:10;}
	.st30{fill:none;stroke:#000000;stroke-width:1.1586;stroke-miterlimit:10;}
	.st31{fill:none;stroke:#FFFFFF;stroke-width:1.3906;stroke-miterlimit:10;}
	.st32{fill:none;stroke:#FFFFFF;stroke-width:1.1586;stroke-miterlimit:10;}
	.st33{fill:none;stroke:#000000;stroke-width:1.3665;stroke-miterlimit:10;}
	.st34{fill:none;stroke:#000000;stroke-width:1.5609;stroke-miterlimit:10;}
	.st35{fill:none;stroke:#000000;stroke-width:1.6987;stroke-miterlimit:10;}
	.st36{fill:#221814;}
	.st37{fill:none;}
	.st38{fill:none;stroke:#000000;stroke-width:1.6838;stroke-miterlimit:10;}
	.st39{fill:none;stroke:#000000;stroke-width:1.6605;stroke-miterlimit:10;}
	.st40{fill:none;stroke:#000000;stroke-width:1.2082;stroke-miterlimit:10;}
	.st41{fill:none;stroke:#000000;stroke-width:1.1058;stroke-miterlimit:10;}
	.st42{fill:none;stroke:#000000;stroke-width:1.391;stroke-linejoin:round;stroke-miterlimit:10;}
	.st43{fill:none;stroke:#000000;stroke-width:1.3476;stroke-linejoin:round;stroke-miterlimit:10;}
	.st44{fill:none;stroke:#000000;stroke-width:0.7027;stroke-miterlimit:10;}
	.st45{fill:none;stroke:#FFFFFF;stroke-width:0.818;stroke-miterlimit:22.926;}
	.st46{opacity:0.5;fill:none;stroke:#FFFFFF;stroke-width:0.818;stroke-miterlimit:10;}
	.st47{opacity:0.5;fill:#FFFFFF;}
	.st48{fill:none;stroke:#000000;stroke-width:0.818;stroke-miterlimit:22.926;}
	.st49{opacity:0.5;fill:none;stroke:#231815;stroke-width:0.818;stroke-miterlimit:10;}
	.st50{opacity:0.5;fill:#231815;}
	.st51{fill:none;stroke:#231815;stroke-width:0.215;stroke-miterlimit:10;}
	.st52{fill:none;stroke:#231815;stroke-width:0.209;stroke-miterlimit:10;}
	.st53{fill:none;stroke:#231815;stroke-width:0.186;stroke-miterlimit:10;}
	.st54{fill:none;stroke:#FFFFFF;stroke-width:0.7027;stroke-miterlimit:10;}
	.st55{fill:none;stroke:#FFFFFF;stroke-width:1.3906;stroke-linecap:round;stroke-miterlimit:10;}
	.st56{fill:#14B8D5;}
	.st57{fill:#C3E5EE;}
	.st58{fill:#FFFFFF;stroke:#FFFFFF;stroke-width:0.25;stroke-miterlimit:10;}
	.st59{stroke:#000000;stroke-width:0.25;stroke-miterlimit:10;}
	.st60{fill:none;stroke:#FFFFFF;stroke-width:2;stroke-linecap:round;stroke-miterlimit:10;}
	.st61{fill:none;stroke:#FFFFFF;stroke-miterlimit:10;}
	.st62{fill:none;stroke:#FFFFFF;stroke-width:2;stroke-miterlimit:10;}
</style>
<g>
	<g>
		<g>
			<g>
				<path class="st17" d="M63.79,2.31L63.79,2.31c0.31,0,0.62,0,0.92,0c0.26,0,0.52,0.01,0.78,0.01c0.57,0.01,1.14,0.05,1.7,0.15
					c0.57,0.1,1.1,0.27,1.62,0.53c0.51,0.26,0.97,0.6,1.38,1c0.41,0.4,0.74,0.87,1,1.38c0.26,0.52,0.43,1.05,0.53,1.62
					c0.1,0.56,0.14,1.13,0.16,1.7c0,0.26,0,0.52,0,0.78c0.01,0.31,0.01,0.62,0.01,0.93v17.8c0,0.31,0,0.62-0.01,0.93
					c0,0.26,0,0.52,0,0.78c-0.02,0.57-0.05,1.14-0.16,1.7c-0.1,0.57-0.27,1.1-0.53,1.62c-0.26,0.51-0.6,0.97-1,1.37
					c-0.4,0.41-0.87,0.74-1.38,1c-0.52,0.27-1.05,0.43-1.62,0.54c-0.56,0.1-1.13,0.13-1.7,0.15c-0.26,0.01-0.52,0.01-0.78,0.01
					c-0.31,0-0.62,0-0.92,0H9.12c-0.31,0-0.62,0-0.93,0c-0.26,0-0.52,0-0.78-0.01c-0.57-0.02-1.14-0.05-1.7-0.15
					c-0.57-0.1-1.1-0.27-1.62-0.54c-0.51-0.26-0.97-0.6-1.38-1c-0.41-0.4-0.74-0.87-1-1.37c-0.26-0.52-0.43-1.05-0.53-1.62
					c-0.1-0.56-0.14-1.13-0.15-1.7c-0.01-0.26-0.01-0.52-0.01-0.78c0-0.31,0-0.62,0-0.93v-17.8c0-0.31,0-0.62,0-0.93
					c0-0.26,0-0.52,0.01-0.78c0.01-0.57,0.05-1.14,0.15-1.7c0.1-0.57,0.27-1.1,0.53-1.62c0.26-0.51,0.6-0.98,1-1.38
					c0.4-0.4,0.87-0.74,1.38-1c0.52-0.26,1.05-0.43,1.62-0.53c0.56-0.1,1.14-0.14,1.7-0.15c0.26,0,0.52-0.01,0.78-0.01
					c0.31,0,0.62,0,0.93,0H63.79L63.79,2.31z M63.79,3.02H9.12l-0.93,0c-0.2,0-0.4,0-0.61,0.01l-0.17,0
					C6.98,3.04,6.4,3.06,5.83,3.17C5.31,3.26,4.85,3.41,4.41,3.64c-0.44,0.23-0.85,0.52-1.2,0.87c-0.35,0.35-0.65,0.75-0.87,1.2
					c-0.22,0.44-0.38,0.9-0.47,1.42c-0.1,0.57-0.13,1.16-0.14,1.6C1.72,8.91,1.72,9.08,1.72,9.25l0,0.25v0.92v17.8v0.93l0,0.24
					c0,0.17,0,0.35,0.01,0.52c0.01,0.45,0.04,1.03,0.14,1.6c0.09,0.53,0.24,0.99,0.47,1.43c0.23,0.45,0.52,0.85,0.87,1.19
					c0.36,0.36,0.76,0.65,1.2,0.88c0.44,0.22,0.9,0.38,1.42,0.47c0.55,0.1,1.12,0.13,1.6,0.14c0.25,0,0.51,0.01,0.76,0.01
					c0.31,0,0.62,0,0.93,0h54.67c0.3,0,0.61,0,0.92,0c0.26,0,0.52,0,0.77-0.01c0.48-0.01,1.04-0.04,1.59-0.14
					c0.53-0.1,0.99-0.25,1.43-0.47c0.44-0.23,0.85-0.52,1.2-0.87c0.35-0.35,0.65-0.75,0.88-1.2c0.22-0.44,0.37-0.9,0.46-1.41
					c0.1-0.54,0.13-1.09,0.15-1.61c0-0.25,0-0.5,0-0.76c0.01-0.32,0.01-0.62,0.01-0.93v-17.8c0-0.31,0-0.61-0.01-0.91
					c0-0.27,0-0.53,0-0.79c-0.02-0.5-0.05-1.06-0.15-1.58c-0.09-0.52-0.24-0.99-0.46-1.43c-0.23-0.45-0.53-0.85-0.87-1.2
					c-0.35-0.35-0.76-0.65-1.2-0.88c-0.44-0.22-0.91-0.38-1.42-0.46c-0.57-0.1-1.15-0.13-1.6-0.14l-0.14,0
					c-0.21,0-0.42-0.01-0.63-0.01L63.79,3.02"/>
			</g>
		</g>
		<g>
			<polygon class="st17" points="13.89,14.06 13.89,10.41 13.84,10.41 12.35,13.92 11.76,13.92 10.27,10.41 10.22,10.41 
				10.22,14.06 9.49,14.06 9.49,9 10.41,9 12.02,12.85 12.08,12.85 13.7,9 14.62,9 14.62,14.06 13.89,14.06 			"/>
		</g>
		<g>
			<g>
				<path class="st17" d="M18.08,12.66v-0.32l-0.93,0.06c-0.53,0.04-0.77,0.21-0.77,0.55c0,0.34,0.3,0.54,0.71,0.54
					C17.66,13.49,18.08,13.13,18.08,12.66L18.08,12.66z M15.62,12.98c0-0.69,0.51-1.09,1.42-1.14l1.04-0.06v-0.33
					c0-0.4-0.27-0.63-0.78-0.63c-0.42,0-0.71,0.15-0.8,0.42h-0.73c0.08-0.66,0.69-1.08,1.56-1.08c0.96,0,1.5,0.48,1.5,1.28v2.61
					H18.1v-0.54h-0.06c-0.23,0.38-0.65,0.6-1.15,0.6C16.16,14.13,15.62,13.68,15.62,12.98L15.62,12.98z"/>
			</g>
		</g>
		<g>
			<g>
				<path class="st17" d="M20.53,12.15c0,0.81,0.38,1.3,1.02,1.3c0.64,0,1.03-0.5,1.03-1.29c0-0.8-0.4-1.3-1.03-1.3
					C20.91,10.86,20.53,11.35,20.53,12.15L20.53,12.15z M19.75,12.15c0-1.21,0.62-1.97,1.59-1.97c0.52,0,0.96,0.25,1.17,0.67h0.06
					v-2.1h0.75v5.31H22.6v-0.6h-0.06c-0.23,0.42-0.67,0.67-1.2,0.67C20.36,14.13,19.75,13.36,19.75,12.15L19.75,12.15z"/>
			</g>
		</g>
		<g>
			<g>
				<path class="st17" d="M25.06,11.8h1.93c-0.02-0.6-0.38-0.99-0.94-0.99C25.5,10.81,25.11,11.21,25.06,11.8L25.06,11.8z
					 M27.72,13.03c-0.17,0.68-0.78,1.11-1.66,1.11c-1.09,0-1.77-0.75-1.77-1.97s0.69-2,1.76-2c1.06,0,1.71,0.73,1.71,1.93v0.26h-2.7
					v0.04c0.02,0.67,0.41,1.1,1.02,1.1c0.46,0,0.77-0.16,0.91-0.46H27.72L27.72,13.03z"/>
			</g>
		</g>
		<g>
			<path class="st17" d="M30.97,10.9h-0.63v-0.64h0.63V9.89c0-0.78,0.42-1.1,1.22-1.1c0.15,0,0.26,0.01,0.41,0.04v0.6
				c-0.07-0.02-0.21-0.03-0.33-0.03c-0.36,0-0.55,0.17-0.55,0.54v0.32h0.85v0.64h-0.84v3.17h-0.75V10.9L30.97,10.9z"/>
		</g>
		<g>
			<g>
				<path class="st17" d="M35.95,12.15c0-0.83-0.37-1.31-1.03-1.31c-0.66,0-1.02,0.48-1.02,1.31c0,0.83,0.37,1.32,1.02,1.32
					C35.57,13.47,35.95,12.98,35.95,12.15L35.95,12.15z M33.12,12.15c0-1.23,0.69-1.98,1.8-1.98c1.11,0,1.8,0.75,1.8,1.98
					c0,1.24-0.68,1.99-1.8,1.99C33.8,14.14,33.12,13.39,33.12,12.15L33.12,12.15z"/>
			</g>
		</g>
		<g>
			<path class="st17" d="M37.66,10.24h0.73v0.59h0.06c0.11-0.38,0.53-0.65,1.03-0.65c0.11,0,0.26,0.01,0.34,0.03v0.74
				c-0.06-0.02-0.29-0.04-0.42-0.04c-0.57,0-0.98,0.36-0.98,0.9v2.26h-0.75V10.24L37.66,10.24z"/>
		</g>
		<g>
			<g>
				<path class="st17" d="M28.65,25.38h-0.03l-1.5-6.01h-1.78l-1.5,6.01h-0.03l-1.38-6.01h-1.87l2.35,8.43h1.75l1.55-5.77h0.03
					l1.56,5.77h1.77l2.35-8.43h-1.87L28.65,25.38L28.65,25.38z M61.48,19.37v3.38h-3.43v-3.38h-1.75v8.43h1.75v-3.59h3.43v3.59h1.77
					v-8.43H61.48L61.48,19.37z M39.71,20.8h2.51v7h1.74v-7h2.52v-1.43h-6.77V20.8L39.71,20.8z M34.88,24.38l0.96-3.35h0.03
					l0.95,3.35H34.88L34.88,24.38z M34.87,19.37l-2.71,8.43h1.75l0.61-2.12h2.67l0.59,2.12h1.87l-2.7-8.43H34.87L34.87,19.37z
					 M51.1,19.27c-2.23,0-3.55,1.44-3.55,3.85v0.95c0,2.43,1.31,3.83,3.53,3.83c2.23,0,3.35-1.36,3.35-2.88v-0.16h-1.68
					c0,0.88-0.42,1.56-1.64,1.56c-1.2,0-1.79-0.75-1.79-2.35v-0.95c0-1.58,0.59-2.38,1.79-2.38c1.12,0,1.64,0.73,1.64,1.57h1.68
					v-0.08C54.44,20.59,53.18,19.27,51.1,19.27"/>
			</g>
		</g>
		<g>
			<path class="st17" d="M15.83,18.29c0.4-0.5,0.67-1.16,0.6-1.84c-0.58,0.03-1.29,0.38-1.7,0.88c-0.37,0.42-0.69,1.12-0.61,1.77
				C14.77,19.15,15.42,18.77,15.83,18.29"/>
		</g>
		<g>
			<path class="st17" d="M16.42,19.22c-0.95-0.06-1.75,0.54-2.2,0.54c-0.45,0-1.14-0.51-1.89-0.5c-0.97,0.02-1.88,0.57-2.37,1.44
				c-1.02,1.75-0.27,4.35,0.72,5.78c0.48,0.71,1.06,1.48,1.82,1.46c0.72-0.03,1-0.47,1.88-0.47c0.88,0,1.13,0.47,1.89,0.45
				c0.79-0.01,1.29-0.71,1.77-1.41c0.55-0.8,0.78-1.58,0.79-1.63c-0.01-0.01-1.53-0.59-1.54-2.33c-0.01-1.45,1.19-2.15,1.24-2.19
				C17.84,19.36,16.78,19.25,16.42,19.22"/>
		</g>
	</g>
</g>
</svg>
