<?xml version="1.0" encoding="UTF-8"?>
<!DOCTYPE svg PUBLIC "-//W3C//DTD SVG 1.1//EN" "http://www.w3.org/Graphics/SVG/1.1/DTD/svg11.dtd">
<!-- Creator: CorelDRAW X6 -->
<svg xmlns="http://www.w3.org/2000/svg" xml:space="preserve" width="206.797mm" height="83.0683mm" version="1.1" style="shape-rendering:geometricPrecision; text-rendering:geometricPrecision; image-rendering:optimizeQuality; fill-rule:evenodd; clip-rule:evenodd"
viewBox="0 0 4682 1881"
 xmlns:xlink="http://www.w3.org/1999/xlink">
 <defs>
  <style type="text/css">
   <![CDATA[
    .fil0 {fill:#FEFEFE;fill-rule:nonzero}
   ]]>
  </style>
 </defs>
 <g id="图层_x0020_1">
  <metadata id="CorelCorpID_0Corel-Layer"/>
  <g id="_973944272">
   <path class="fil0" d="M79 1215l-79 201 47 0 15 -41 83 0 16 41 47 0 -83 -201 -46 0zm-4 122c5,-13 9,-26 14,-39 3,-10 9,-26 11,-36 1,-4 1,-8 2,-12 2,14 4,20 13,46 5,13 10,27 15,41l-55 0zm336 -122l0 201 44 0 0 -76 15 0c21,0 43,0 59,-16 17,-17 18,-37 18,-46 0,-19 -7,-31 -11,-38 -13,-18 -32,-24 -54,-25 -6,0 -11,0 -17,0l-54 0zm44 36l18 0c7,0 11,1 14,1 6,2 17,8 17,25 0,5 -1,19 -17,24 -5,1 -9,1 -15,1l-17 0 0 -51zm297 -36l0 201 44 0 0 -76 15 0c21,0 43,0 59,-16 17,-17 18,-37 18,-46 0,-19 -7,-31 -11,-38 -13,-18 -32,-24 -54,-25 -6,0 -11,0 -17,0l-54 0zm44 36l18 0c7,0 11,1 14,1 6,2 17,8 17,25 0,5 -1,19 -17,24 -5,1 -9,1 -15,1l-17 0 0 -51zm296 -36l0 201 112 0 0 -40 -69 0 0 -161 -44 0zm322 0l0 201 114 0 0 -40 -70 0 0 -43 69 0 0 -39 -69 0 0 -40 71 0 0 -39 -114 0z"/>
   <path class="fil0" d="M2488 1216l0 201 44 0 0 -76 15 0c21,0 43,0 59,-16 17,-17 18,-37 18,-46 0,-19 -7,-31 -11,-38 -13,-18 -32,-24 -54,-25 -6,0 -11,0 -17,0l-54 0zm44 36l18 0c7,0 11,1 14,1 6,2 17,8 17,25 0,5 -1,19 -17,24 -5,1 -9,1 -15,1l-17 0 0 -51zm296 -36l0 201 42 0 0 -85 53 85 52 0 -58 -85c13,-3 16,-4 22,-8 16,-10 23,-30 23,-48 0,-5 -1,-20 -9,-34 -13,-20 -34,-25 -55,-26 -5,0 -11,0 -16,0l-54 0zm43 35l15 0c11,0 21,1 29,10 5,6 6,14 6,17 0,7 -2,12 -4,14 -7,11 -18,12 -30,13l-16 0 0 -53zm404 -40c-43,0 -81,23 -98,63 -8,20 -9,38 -9,45 0,47 26,72 40,83 26,19 57,20 67,20 43,0 81,-19 98,-61 8,-19 9,-36 9,-44 0,-36 -16,-60 -24,-70 -20,-24 -46,-32 -57,-34 -11,-3 -22,-3 -26,-3zm1 42c26,0 42,15 48,22 14,16 15,35 15,43 0,19 -8,39 -23,51 -7,5 -18,13 -38,13 -26,0 -51,-13 -61,-38 -5,-11 -5,-21 -5,-26 0,-28 17,-45 24,-51 15,-12 33,-13 40,-13z"/>
   <g>
    <path class="fil0" d="M187 983c0,1 -2,2 -5,4 -5,2 -10,3 -15,4 -5,1 -11,2 -16,4 -8,2 -16,3 -24,5 -8,1 -16,2 -25,2 -25,-2 -46,-10 -64,-23 -8,-6 -14,-13 -16,-21 -3,-8 -5,-16 -5,-25 0,-5 0,-9 1,-14 0,-5 1,-10 1,-14 1,-7 3,-14 5,-21 3,-7 5,-14 7,-21 4,-13 8,-25 12,-36 4,-11 8,-23 12,-36 5,-18 12,-36 18,-55 7,-18 13,-36 18,-55 5,-18 12,-36 19,-53 7,-17 13,-34 18,-53 5,-17 11,-34 18,-50 6,-16 13,-33 19,-49 6,-16 13,-33 19,-49 6,-16 13,-32 20,-48 5,-10 8,-20 11,-29 3,-10 6,-19 10,-29 2,-4 3,-7 3,-10 0,-3 2,-7 3,-10 2,-5 0,-7 -4,-7 -15,-3 -29,-11 -42,-25 -2,-2 -4,-3 -7,-3 -3,0 -5,-2 -8,-3 0,-1 0,-1 1,-1 1,-1 2,-1 3,-1 1,0 1,0 1,-2 0,-2 -1,-3 -3,-3 -3,0 -3,0 -2,-1 1,0 2,-1 2,-2 1,-4 0,-7 -3,-10 -1,-1 -2,-1 -2,-1 0,0 -1,0 -2,-1 -3,-3 -3,-4 0,-4 4,-2 4,-3 0,-3 -3,-3 -4,-6 -3,-10 0,-4 -1,-6 -3,-8 -2,-2 -1,-5 3,-8 1,-1 3,-2 7,-4 7,0 14,-1 20,-3 6,-2 13,-4 19,-5 12,-3 23,-5 35,-7 11,-2 23,-4 35,-5 13,-2 25,-4 36,-5 11,-2 23,-4 36,-7 31,-5 62,-10 92,-16 30,-6 61,-11 92,-16 20,-3 40,-5 59,-8 20,-3 40,-5 61,-8 5,-1 10,-1 15,-1 5,0 10,0 15,0 4,-1 7,-1 10,0 3,1 6,2 10,3 4,2 6,5 8,8 0,2 -1,3 -3,4 -4,1 -4,3 0,7 2,4 1,7 -3,11 -2,2 -5,3 -8,4 -4,1 -6,3 -8,5l-1 1c0,0 0,0 1,1 1,1 0,2 -1,3 -6,3 -13,6 -19,10l-1 1c3,0 5,0 8,-1 2,0 5,-1 8,-2 -1,4 -4,5 -8,5 -7,0 -14,1 -21,3 -7,2 -14,4 -21,5 -4,1 -7,2 -10,3 -3,1 -7,1 -10,1 -18,4 -37,7 -55,10 -19,3 -38,6 -57,11 -4,2 -7,3 -10,2 -3,0 -7,-1 -12,-1 -3,-5 -6,-6 -9,-5 -3,1 -6,2 -8,4 -7,5 -17,8 -29,12 -12,3 -23,6 -33,8 -2,0 -4,2 -5,5 -2,7 -4,15 -8,22 -3,7 -7,15 -12,22 -1,2 -1,5 -1,8 -2,5 -4,9 -5,13 -2,4 -4,8 -5,13 -5,10 -9,20 -12,29 -4,9 -7,19 -10,29l-20 61c-5,11 -9,22 -12,33 -4,11 -8,21 -14,31 -5,10 -9,23 -14,38 -2,3 -3,5 -5,8 -1,3 -2,5 -2,8 0,1 2,1 5,1 46,-17 95,-30 145,-39 50,-9 101,-20 153,-33 9,-2 18,-4 27,-5 9,-2 18,-4 27,-5 5,-1 9,-1 14,-1 5,0 10,0 14,0 2,0 3,0 3,1 1,1 0,2 -1,4 -7,5 -14,7 -20,8 -6,2 -12,4 -17,7 -5,3 -11,5 -17,7 3,2 5,2 8,1 3,-1 5,-2 8,-1 -1,5 -5,7 -11,7 -8,0 -13,3 -14,10 -1,4 -5,5 -11,5 -8,2 -16,4 -23,7 -7,3 -15,5 -23,7 2,1 3,1 5,1 1,0 5,0 10,-1 -3,2 -6,3 -9,3 -3,0 -6,1 -9,2 -8,2 -17,4 -26,5 -9,2 -20,5 -33,10 -1,1 -1,2 -1,3 0,1 0,2 -1,2l-25 8c-9,3 -18,5 -27,8 -9,3 -18,6 -27,11 -1,1 -2,2 -4,4 -2,2 -4,3 -5,3 -7,4 -15,8 -23,12 -8,4 -15,9 -20,14 -5,5 -10,8 -16,10 -6,2 -12,4 -17,6 -5,1 -8,4 -10,8 -2,5 -6,7 -10,7 -5,2 -10,3 -17,3 -7,0 -12,3 -14,8 -3,4 -6,5 -11,5 -7,-2 -13,-1 -17,3 -4,4 -8,9 -10,16 -5,13 -9,26 -14,39 -5,13 -10,26 -14,39 -2,5 -4,11 -8,16 -3,5 -6,11 -8,16 -2,4 -3,6 -3,8 -4,10 -7,20 -11,30 -4,10 -7,20 -11,30 -4,12 -9,25 -15,40 -2,4 -2,6 0,8 0,0 2,0 7,0 7,-2 14,-4 21,-5 7,-2 14,-4 21,-5 38,-10 76,-20 114,-29 38,-9 76,-19 115,-29 7,-3 15,-5 23,-6 8,-1 16,-3 24,-5 5,-1 9,-1 13,-1 4,0 8,2 13,5 2,1 4,1 5,1 2,0 4,1 5,3 -6,7 -13,10 -20,10 -4,0 -9,1 -16,3 -5,0 -7,2 -7,7 0,5 -1,8 -4,10 -3,2 -5,4 -7,5 -1,0 -1,1 -1,3 2,-2 4,-2 6,-1 2,1 5,1 8,0 2,-2 3,-1 3,3 0,1 -1,1 -3,1 -6,0 -11,3 -14,10 -2,2 -4,3 -7,3 -3,0 -5,1 -7,2 -7,0 -13,2 -18,7 -2,1 -3,1 -5,1 -1,0 -3,0 -5,1 -6,2 -12,4 -18,7 -5,3 -11,5 -16,7 -7,3 -15,5 -23,8 -8,2 -15,4 -23,6l-29 8c-15,5 -31,9 -47,14 -16,5 -32,9 -47,14 -7,2 -15,4 -22,7 -7,3 -15,5 -22,8 -4,0 -6,1 -7,4 6,2 12,2 18,0 5,-2 11,-4 16,-5zm203 -746c-5,5 -8,12 -8,20 5,-7 7,-14 8,-20zm-7 641c3,0 5,0 5,-1l0 -1 -4 0c-1,0 -1,0 -1,1 0,0 0,1 -1,1l1 1zm106 -33c-4,0 -5,0 -5,1l1 1c3,3 4,2 4,-3zm-105 64c-3,0 -5,1 -7,3 3,0 5,-1 7,-3zm788 -251c5,3 6,6 1,11 0,1 0,2 -1,3 -9,10 -18,20 -27,29 -9,9 -19,17 -32,23 -6,4 -14,5 -22,5 -5,1 -12,2 -20,3 -8,1 -16,2 -25,2 -8,0 -16,0 -24,-2 -8,-2 -14,-5 -18,-10 -4,-4 -7,-5 -11,-5 -5,-1 -9,-3 -12,-5 -4,-2 -7,-5 -11,-8 -6,-6 -12,-10 -16,-12 -3,0 -5,-1 -6,-3 -1,-2 -3,-4 -5,-6 -5,-5 -8,-5 -10,0 -7,15 -15,28 -23,41 -8,13 -16,26 -23,40 -26,51 -58,101 -96,151 -6,7 -12,15 -17,23 -5,8 -11,16 -18,23 -6,7 -13,13 -20,18 -7,5 -14,10 -23,14 -1,0 -2,0 -2,1 0,0 -2,1 -3,1 -5,-1 -11,-2 -16,-2 -5,0 -11,-2 -16,-3 -7,-3 -13,-7 -16,-14 -3,-6 -5,-13 -5,-20 -1,-5 -1,-11 -1,-17 0,-6 0,-12 0,-18 1,-10 0,-20 -1,-30 -2,-10 -3,-20 -4,-30l-4 -41c-2,-20 -3,-40 -3,-60 0,-20 0,-40 0,-61 1,-15 1,-29 0,-43 -1,-14 -2,-28 -4,-43 -1,-7 -1,-15 -1,-23 0,-8 0,-15 -1,-23l-1 0 0 -20c0,-10 0,-20 1,-31 1,-11 2,-22 4,-33 0,-5 1,-9 3,-12 2,-4 4,-7 6,-11 1,-1 2,-2 3,-2 1,0 2,-1 3,-2 11,-5 21,-6 30,-5 8,2 16,3 25,3 8,0 16,1 23,3 7,1 13,4 18,7 5,3 9,8 12,16 1,2 2,3 2,5 0,1 1,3 2,5 7,8 12,18 13,28 1,10 1,21 -1,31 -1,3 -1,6 -1,11 1,6 2,13 2,18 0,6 1,12 1,17 0,6 0,14 -1,23 -1,9 -2,19 -4,29 -2,10 -4,20 -5,29 -2,9 -3,17 -4,23 -1,13 -3,25 -5,37 -2,12 -4,24 -5,37 -1,11 -1,22 -1,33 0,11 0,22 -1,33 0,4 0,6 1,7 2,1 3,0 4,-1 1,-2 2,-3 3,-4 15,-24 29,-47 43,-70 14,-23 28,-46 42,-70 7,-12 14,-23 19,-35 5,-11 11,-23 18,-33 7,-13 16,-24 26,-34 10,-10 21,-19 34,-27 7,-5 15,-5 24,-1 9,4 14,10 16,18 2,7 4,14 6,20 2,6 4,13 5,20 1,9 4,18 10,26 3,7 9,12 19,14 11,3 21,3 30,1 4,0 7,0 11,0 4,0 7,1 11,3 1,0 1,0 1,-1 6,-3 12,-5 18,-8 5,-2 11,-6 16,-10 5,-5 11,-8 16,-12 5,-3 11,-6 16,-8 7,-2 13,-1 17,2 4,3 9,6 14,8 1,1 0,3 -1,7 -3,4 -2,6 3,8zm339 19c10,0 13,5 8,16 -3,5 -5,9 -5,14 -1,5 -2,9 -4,14 -2,5 -3,8 -5,12 -1,3 -3,7 -5,10 -2,4 -4,7 -5,10 -2,3 -4,5 -5,8 -2,4 -4,7 -5,10 -2,3 -4,7 -5,12 -3,5 -5,10 -8,16 -3,6 -5,11 -7,16 -1,2 -2,3 -3,5 -1,1 -2,3 -3,5 -7,10 -14,20 -21,29 -7,10 -14,19 -21,29 -4,5 -7,9 -9,14 -2,5 -5,10 -9,16 -7,13 -15,25 -24,35 -9,11 -18,22 -28,34 -5,6 -10,12 -16,17 -6,5 -14,8 -22,10 -4,1 -7,3 -9,5 -2,2 -5,4 -8,6 -8,6 -16,10 -25,10 -3,-1 -5,-1 -8,-1 -3,0 -5,0 -8,-1 -4,-1 -7,-2 -10,-3 -3,-1 -7,-1 -12,0 -7,1 -15,0 -23,-4 -8,-4 -16,-8 -25,-14 -8,-6 -16,-12 -23,-19 -7,-7 -13,-13 -18,-17 -11,-10 -19,-22 -24,-35 -5,-13 -8,-27 -10,-42 -3,-20 -4,-40 -3,-59 1,-19 4,-38 8,-57 7,-33 17,-65 28,-96 11,-31 24,-61 38,-91 10,-23 21,-44 33,-65 12,-20 25,-41 39,-62 18,-27 39,-50 61,-68 4,-3 7,-6 10,-9 3,-3 6,-6 10,-9 16,-15 34,-26 52,-34 6,-3 11,-4 15,-3 8,2 17,3 25,2 9,0 17,2 24,6 5,3 9,5 14,8 5,3 9,7 13,12 2,5 4,9 8,12 3,4 6,8 9,12 3,5 5,9 5,14 1,5 2,9 3,14 1,5 1,11 1,16 0,5 0,11 2,16 1,5 0,10 -3,16 -2,5 -3,9 -3,12 0,4 -2,8 -3,12 0,2 -1,4 -3,5 -7,11 -14,22 -19,33 -5,11 -11,22 -18,34 0,0 -1,2 -3,5 -4,5 -7,9 -11,14 -4,5 -6,10 -8,16 -1,4 -3,7 -5,10 -3,3 -5,5 -7,8 -7,9 -14,18 -21,27 -7,9 -14,18 -21,27 -9,10 -18,20 -26,29 -8,10 -17,19 -27,28 -5,5 -10,8 -15,12 -5,3 -11,7 -16,10 -8,5 -16,10 -23,16 -7,6 -15,12 -22,18 -2,1 -3,2 -3,2 0,0 -1,1 -3,1 -15,1 -22,8 -23,22 -1,10 -2,20 -4,29 -2,10 -2,19 0,29 1,5 1,11 1,16 0,5 0,11 0,16 0,7 1,14 4,20l0 1c2,2 5,5 8,11 2,2 3,3 3,4 1,0 2,0 3,1l0 1c6,6 13,7 20,1 14,-8 27,-17 41,-25 14,-9 26,-19 37,-32 5,-5 9,-9 13,-14 4,-5 8,-10 13,-14 6,-7 13,-14 18,-21 6,-7 12,-14 18,-21 6,-6 13,-13 18,-19 6,-6 12,-13 17,-20 8,-10 16,-20 25,-31 8,-10 16,-21 25,-32 4,-5 7,-9 10,-14 3,-5 6,-10 9,-14 4,-5 9,-8 15,-8zm-224 -76c-2,6 -4,13 -6,19 -2,6 -5,13 -9,19 7,-7 14,-14 21,-20 7,-6 13,-13 20,-20 13,-15 25,-31 37,-48 12,-16 21,-34 29,-52 4,-8 7,-16 11,-23 4,-7 7,-15 10,-23 2,-5 4,-11 5,-16 2,-5 3,-11 3,-16 -3,0 -4,0 -4,0 -5,4 -9,7 -13,10 -4,3 -8,7 -12,12 -5,6 -10,13 -14,20 -4,7 -8,13 -13,20 -5,7 -9,14 -14,20 -5,6 -10,13 -15,20 -7,8 -12,18 -15,30 -1,5 -2,8 -3,12 -1,3 -2,7 -4,10 -2,5 -4,9 -7,14 -3,5 -5,9 -7,14zm728 -187c5,16 3,26 -5,30 -7,4 -14,8 -21,12 -7,5 -14,9 -21,14 -6,3 -13,5 -19,8 -6,3 -13,6 -19,10 -5,2 -9,4 -12,6 -4,2 -8,6 -12,10 -2,2 -5,5 -11,8 -9,5 -18,11 -26,17 -8,6 -17,11 -26,16 -8,5 -16,12 -23,18 -7,7 -15,13 -22,20 -2,2 -4,3 -5,5 -2,1 -4,3 -5,5 -4,3 -7,6 -10,10 -3,4 -6,8 -8,14 -2,7 -5,13 -10,18 -5,5 -10,9 -14,14 -4,4 -6,7 -7,10 -3,5 -6,9 -9,13 -3,4 -6,8 -9,13 -5,6 -9,13 -12,18 -4,6 -8,12 -12,17 0,0 -1,2 -3,5 -2,9 -5,18 -9,25 -4,8 -8,16 -12,24 -2,3 -3,6 -5,9 -1,3 -3,6 -5,9 -2,7 -5,13 -9,18 -4,5 -8,11 -12,17 -4,6 -7,12 -10,18 -3,5 -6,11 -10,18 -4,7 -8,14 -12,20 -4,6 -8,13 -13,20 -2,4 -4,5 -8,5 -3,0 -7,0 -10,1 -3,0 -5,-1 -7,-3 -4,-2 -7,-3 -10,-3 -3,0 -7,0 -10,0 -4,0 -5,0 -5,0 -4,-4 -7,-7 -10,-9 -3,-2 -6,-6 -8,-10 -2,-5 -4,-9 -5,-11 -6,-8 -8,-17 -5,-27 2,-5 3,-9 3,-12 0,-4 0,-8 0,-12 1,-8 2,-16 4,-23 2,-7 4,-15 5,-22 2,-11 5,-22 8,-32 4,-10 7,-21 11,-31 1,-2 2,-4 3,-5 1,-2 1,-4 1,-7 5,-14 11,-32 18,-56 8,-24 17,-51 27,-83 5,-15 9,-31 14,-46 5,-15 10,-30 16,-46 5,-11 9,-22 14,-32 5,-10 9,-21 14,-32 0,-2 0,-3 1,-4 1,-1 1,-2 1,-4 2,-5 5,-10 9,-12 4,-3 8,-5 13,-7 0,0 0,0 1,0 7,2 15,4 23,5 8,2 15,7 20,15 1,2 3,4 7,5 5,5 8,12 12,21 3,10 4,18 2,24 -1,3 -2,5 -2,8 0,2 -1,5 -1,8 0,5 0,8 -1,10 -5,8 -8,17 -10,26 -2,9 -5,18 -9,26 -2,5 -3,9 -3,13 0,4 -2,8 -3,13 4,-1 6,-2 8,-5 2,-2 4,-4 5,-6 10,-7 20,-15 29,-23 10,-8 19,-15 29,-21 12,-7 23,-15 35,-23 11,-8 23,-16 35,-23 10,-6 20,-12 30,-17 10,-5 20,-9 31,-13 8,-3 16,-4 25,-4 6,0 12,-1 18,-4 5,-4 11,-6 17,-6 6,0 12,-2 18,-3 9,-2 15,1 18,10z"/>
    <path class="fil0" d="M2263 699c-3,5 -6,9 -10,14 -4,5 -6,10 -7,18 0,4 -1,7 -3,10 -2,3 -4,6 -5,9 -5,9 -11,18 -17,26 -6,8 -12,16 -17,25 -5,5 -9,11 -12,16 -4,5 -7,11 -11,18 -8,13 -18,24 -29,33 -7,7 -13,15 -16,22 -4,6 -9,12 -15,16 -3,2 -6,4 -9,5 -3,2 -6,4 -9,7 -5,5 -11,9 -17,12 -6,4 -12,7 -18,11 -5,3 -10,4 -15,5 -5,0 -11,0 -16,-1 -8,-2 -16,-4 -24,-7 -8,-3 -15,-8 -21,-15l-18 -18c-14,-11 -21,-25 -23,-44 -2,-18 0,-35 5,-50 3,-14 5,-27 8,-41 3,-14 6,-27 10,-41 9,-39 24,-79 44,-119 5,-10 9,-20 13,-29 4,-9 8,-19 13,-29 5,-10 9,-20 14,-31 5,-10 10,-21 15,-31l33 -57c5,-6 9,-12 14,-16 5,-4 10,-8 16,-13 0,-1 1,-1 3,-1 7,1 14,1 20,1 6,0 13,1 20,3l4 4c6,9 10,19 10,30 0,5 0,8 1,10 3,3 4,6 4,9 0,3 0,6 -1,9 -2,5 -3,9 -5,12 -1,4 -3,7 -5,11 -5,12 -9,23 -13,34 -4,11 -8,22 -13,33l-8 20c-4,8 -7,17 -10,25 -3,9 -7,17 -12,25 -4,7 -8,15 -12,22 -4,7 -8,15 -10,22 -3,7 -6,15 -9,23 -3,8 -7,15 -10,23 -6,14 -12,27 -16,41 -4,14 -9,27 -14,41 -2,5 -4,11 -5,20 -2,6 -2,12 1,18 2,5 5,11 9,16 3,3 5,2 8,-1l37 -37c9,-11 18,-22 25,-34 8,-12 15,-23 23,-34 6,-9 12,-18 18,-27 5,-9 10,-18 15,-27 5,-10 10,-20 16,-29 6,-9 12,-19 17,-29 5,-8 9,-16 14,-25 5,-8 9,-16 12,-25 6,-16 15,-31 25,-45 5,-9 8,-19 10,-30 0,-6 0,-12 1,-18 1,-5 2,-11 4,-18 2,-5 3,-11 4,-17 1,-6 1,-12 0,-17 -1,-7 0,-14 4,-20 4,-6 8,-12 12,-18 4,-5 9,-7 15,-6 6,0 12,3 18,6 13,7 23,19 31,34 0,1 1,2 3,4 7,7 11,15 12,25 0,9 2,19 3,29 1,10 1,20 0,29 -1,3 -1,5 -1,8 0,3 1,5 1,8 0,10 0,20 -1,31 -1,11 -1,21 -1,31 0,7 0,14 0,21 0,7 0,14 1,21 0,5 -1,11 -3,20 -1,10 -2,20 -2,30 0,10 -1,20 -2,30 -1,6 -2,12 -2,18 0,5 -2,11 -3,16 -2,6 -3,13 -3,19 0,6 -2,13 -3,20 5,-3 9,-5 14,-8 5,-3 9,-5 14,-7 4,-2 7,-4 10,-5 3,-2 7,-3 12,-4 2,-1 4,-2 5,-3 2,-1 4,-2 5,-4 17,-14 38,-26 61,-38 13,-7 25,-15 38,-22 13,-7 25,-14 38,-20 3,-2 5,-3 8,-3 3,0 5,-2 8,-3 3,-2 5,-1 8,1 0,0 0,2 0,7 -5,13 -11,21 -20,25 -3,1 -6,3 -10,7 -5,5 -10,8 -15,12 -5,3 -10,7 -15,10 -7,5 -14,9 -20,12 -6,4 -13,8 -19,14 -2,2 -4,3 -6,5 -2,1 -5,3 -8,5 -6,4 -10,7 -12,11 -2,4 -4,6 -7,8 -3,2 -5,4 -8,5 -5,3 -8,6 -11,11 -5,7 -11,13 -18,16 -5,4 -10,7 -15,10 -5,3 -9,6 -14,11 -2,2 -4,3 -5,3 -5,4 -10,8 -15,14 -3,5 -6,10 -11,15 -11,11 -17,23 -18,35 0,5 -1,11 -2,16 -1,5 -3,10 -3,14 -2,10 -3,19 -5,28 -1,9 -3,18 -6,27 -3,7 -5,15 -7,23 -2,8 -4,16 -7,23 -2,5 -3,11 -4,16 -1,5 -2,10 -3,16 -2,14 -5,25 -10,35 -2,4 -3,7 -5,11 -1,4 -3,8 -3,12 -2,5 -5,10 -11,18 -4,5 -6,9 -7,13 -1,4 -2,8 -4,13 -1,4 -2,7 -3,10 -1,3 -3,7 -5,10 -1,1 -1,2 -1,3 0,1 0,2 -1,4 -2,5 -4,11 -6,16 -2,5 -4,11 -6,18 -2,4 -3,7 -5,10 -1,3 -3,6 -5,10 -2,6 -4,12 -7,18 -3,5 -5,11 -7,18 -2,5 -4,9 -6,14 -2,5 -5,10 -8,16 -3,5 -6,11 -9,16 -3,5 -7,10 -10,16 -5,7 -9,15 -14,23 -5,8 -10,16 -15,23 -4,5 -7,10 -10,16 -3,6 -7,11 -10,16l-1 1c-7,5 -13,12 -16,19 -4,7 -9,14 -15,20 -5,4 -9,10 -12,18 -4,8 -9,17 -16,26 -5,5 -9,11 -13,16 -4,5 -9,10 -14,15 -2,2 -3,4 -5,5 -1,2 -3,3 -6,4 -2,2 -3,3 -3,4 -7,12 -16,21 -26,27 -2,1 -3,2 -3,3 0,1 -1,2 -2,3 -3,5 -6,7 -10,8 -4,2 -7,4 -10,6 -3,2 -5,5 -8,8 -5,5 -9,8 -14,11 -5,3 -10,5 -16,8 -2,1 -3,2 -4,3 -1,1 -2,2 -4,3 -5,4 -11,7 -16,10 -5,3 -10,5 -16,7 -5,2 -11,4 -16,5 -5,2 -11,3 -18,3 -3,0 -5,0 -7,1 -7,1 -15,2 -22,3 -7,1 -15,2 -22,1l-5 0c-9,4 -20,2 -31,-4 -9,-5 -17,-10 -23,-16l-8 -8c-5,-5 -10,-11 -14,-17 -4,-6 -7,-13 -11,-20 -1,-2 -2,-3 -3,-5 -1,-1 -2,-3 -3,-5 -4,-6 -5,-13 -4,-18 1,-6 2,-13 4,-20 2,-7 4,-14 7,-20 3,-6 5,-13 5,-20 0,-5 2,-12 7,-19 5,-7 9,-15 13,-23 4,-8 8,-16 13,-24 2,-5 4,-8 8,-12 3,-3 6,-7 8,-12 5,-7 9,-15 13,-23 4,-8 8,-15 13,-23 7,-13 15,-25 22,-35 7,-11 15,-22 23,-34 7,-10 15,-20 23,-31 8,-10 17,-21 26,-31l37 -37c5,-4 9,-9 14,-16 5,-6 11,-13 16,-19 5,-6 10,-13 16,-19 8,-10 16,-20 25,-29 8,-10 16,-19 25,-29 12,-12 23,-25 34,-38 7,-8 15,-16 23,-25 8,-8 16,-16 25,-25l49 -49c7,-7 14,-14 21,-20 7,-6 14,-12 23,-18 3,-2 5,-4 8,-5 2,-2 5,-4 8,-5 2,-2 3,-5 3,-8 2,-13 4,-25 7,-38 3,-13 5,-25 7,-38 2,-13 4,-25 6,-38 2,-12 4,-25 6,-38 2,-10 3,-20 5,-31 1,-11 3,-21 5,-31 0,-1 0,-1 -1,-1zm-60 334c-2,2 -3,3 -3,3 0,0 -1,0 -2,1 -5,5 -9,11 -13,16 -4,5 -8,11 -13,16 -5,5 -10,10 -12,14 -5,8 -11,16 -17,23 -6,7 -12,14 -18,21 -5,5 -9,10 -14,14 -5,4 -9,8 -14,13 -3,5 -6,8 -10,12 -4,3 -7,7 -10,10 -5,6 -10,12 -17,16 -7,5 -13,10 -18,15 -5,5 -9,9 -13,14 -4,5 -7,11 -9,17 -2,3 -5,6 -8,10 -3,4 -6,7 -9,10 -3,3 -6,7 -9,12 -5,6 -9,12 -13,18 -4,5 -8,11 -13,16 -6,7 -13,15 -19,23 -6,8 -12,16 -18,25 -15,24 -32,45 -49,66 -2,4 -3,6 -4,7 -1,5 -3,10 -5,14 -2,4 -5,8 -8,12 -2,4 -4,7 -5,10 -2,3 -4,6 -5,10 -4,10 -8,19 -12,27 -5,8 -9,16 -14,25 -2,4 -3,5 -3,5 1,3 1,5 0,8 -1,2 -1,4 -1,6 -1,4 -2,7 -3,10 -1,3 -2,6 -2,10 0,6 -2,13 -7,20 -4,4 -3,7 1,10 1,1 2,3 4,7 1,2 2,3 3,5 1,1 2,3 3,5 5,9 13,11 23,7 3,-1 5,-2 8,-3 3,-1 5,-3 8,-5 9,-5 17,-10 25,-16 7,-6 15,-13 22,-20 5,-5 11,-9 16,-14 5,-5 10,-11 15,-17 5,-7 11,-15 17,-22 6,-7 13,-15 20,-22 2,-2 3,-4 5,-6 1,-2 3,-4 5,-6 5,-6 9,-13 13,-19 4,-6 8,-13 13,-19 5,-7 9,-14 14,-20 5,-6 9,-13 14,-20 5,-9 9,-18 14,-26 5,-8 9,-17 14,-26 5,-10 11,-20 16,-30 5,-10 11,-20 16,-30 3,-3 5,-6 7,-11 2,-5 4,-11 7,-16 3,-5 5,-11 8,-16 7,-15 15,-31 22,-47 7,-16 14,-32 20,-47 5,-13 10,-26 15,-39 5,-13 10,-27 12,-40 2,-7 4,-14 5,-21 2,-7 4,-14 5,-21z"/>
    <path class="fil0" d="M3215 550c5,7 8,14 11,20 3,6 4,14 4,23 -1,7 -2,15 -3,22 -1,7 -2,15 -4,22 -2,5 -3,11 -4,16 -1,5 -2,10 -4,14 -2,5 -4,11 -7,16 -3,5 -5,11 -8,16 -2,4 -3,7 -3,10 0,3 -2,5 -3,8 0,2 -1,5 -3,11 -3,8 -5,16 -8,25 -3,8 -5,17 -8,26 -2,9 -5,18 -8,26 -4,8 -7,16 -11,23 -2,7 -4,14 -5,19 -1,5 -2,9 -3,12 -1,4 -3,8 -3,12 -2,4 -3,7 -3,10 0,3 -1,7 -3,12 -2,7 -3,15 -4,22 -1,7 -1,15 -1,22 -1,2 -1,4 -1,6 0,2 1,5 1,9 4,-3 7,-5 11,-8 4,-2 7,-5 11,-8 5,-5 9,-6 13,-5 4,1 7,5 8,10 2,8 0,15 -4,19 -3,4 -6,7 -9,10 -3,3 -7,7 -10,10 -1,1 -2,1 -3,1l-1 0c-5,1 -9,2 -14,3 -5,1 -9,3 -14,5l-4 0c-10,-2 -19,-5 -27,-8 -8,-4 -15,-9 -22,-16 -5,-4 -8,-8 -10,-14 -2,-5 -4,-11 -6,-16 -4,-5 -7,-14 -10,-25l0 -3c1,-10 1,-20 0,-30 -1,-10 0,-20 1,-30 1,-10 2,-20 4,-29 2,-10 4,-19 5,-29 2,-9 3,-18 4,-27 1,-9 2,-17 4,-25 2,-5 3,-10 3,-16 0,-6 1,-11 2,-16 3,-11 5,-22 8,-33 3,-11 6,-21 10,-31 4,-10 8,-20 12,-30 5,-10 9,-20 14,-30 1,-5 0,-7 -4,-7 -5,0 -10,2 -12,5 -5,5 -11,8 -18,7 -2,0 -3,0 -5,1 -1,1 -3,2 -5,3 -3,3 -5,6 -8,9 -3,3 -6,6 -10,9 -5,5 -10,9 -15,14 -5,5 -8,10 -11,18 -3,7 -6,13 -11,18l-15 15c-3,4 -5,7 -8,10 -3,3 -5,7 -7,10l-20 29c-3,3 -5,6 -6,10 -1,4 -3,8 -5,10 -5,7 -9,14 -13,21 -4,7 -8,14 -13,21 -2,4 -4,8 -6,12 -2,4 -4,8 -6,12 -2,2 -3,4 -4,7 -1,3 -2,5 -4,7 -3,5 -5,11 -8,16 -2,5 -4,10 -6,14 -2,3 -3,6 -3,9 0,3 0,7 -1,10 -2,5 -4,11 -8,16 -3,5 -7,10 -10,14 -1,1 -2,2 -2,3 0,1 -1,3 -2,5 -6,12 -13,20 -19,25 -5,5 -12,8 -19,8 -3,-1 -5,-1 -8,0 -3,1 -5,1 -8,0 -3,-1 -5,-2 -8,-3 -3,-1 -5,-3 -8,-5 -2,-2 -4,-3 -7,-3 -3,0 -5,0 -7,-1 -7,-2 -11,-6 -11,-14 -1,-2 -1,-4 -1,-5 0,-2 0,-3 -1,-4 -5,-5 -7,-10 -8,-16 0,-6 -1,-12 -2,-18l1 -44c1,-6 2,-13 3,-20 1,-7 2,-14 4,-21 1,-7 2,-14 2,-20 0,-6 2,-12 3,-18 2,-9 4,-17 5,-23 3,-11 6,-22 9,-33 3,-11 6,-22 8,-34 2,-9 4,-18 7,-28 3,-10 5,-19 7,-29 1,-4 2,-7 3,-10 1,-3 1,-6 1,-10l-4 0c2,-4 4,-9 5,-16 2,-5 0,-7 -4,-8 -5,-2 -11,-4 -16,-7 -5,-3 -10,-5 -16,-8 -5,-3 -8,-7 -8,-14 1,-2 3,-4 5,-5 3,-2 5,-3 7,-3l25 -4c7,-1 15,-3 23,-7l1 -1c2,-3 3,-5 3,-8 0,-3 2,-6 3,-10 2,-9 4,-18 7,-27 3,-9 5,-18 8,-27 2,-7 4,-14 6,-20 2,-6 5,-13 8,-20 3,-7 5,-14 8,-20 2,-6 4,-12 6,-18 2,-4 3,-7 4,-10 -4,0 -5,1 -3,4 0,0 -2,1 -5,3 -4,0 -7,0 -11,1 -4,0 -7,1 -11,1 -12,1 -23,3 -35,5 -11,2 -23,5 -35,8 -4,1 -6,4 -8,10 -5,13 -9,25 -14,36 -5,11 -10,23 -14,35 -10,25 -20,51 -30,76 -10,25 -20,51 -29,77 -5,11 -9,22 -12,33 -4,11 -7,23 -11,35 -4,14 -7,27 -11,40 -4,13 -6,27 -8,42l-4 37c-1,10 -2,20 -3,30 -1,10 -2,20 -3,30 -1,7 -1,15 -1,22 0,7 1,15 1,22 0,2 0,3 1,4 0,1 1,2 1,4 -2,11 -1,21 2,30 3,9 8,18 13,27 2,3 5,5 10,7 3,0 5,0 7,-1 5,-4 10,-6 14,-8 5,-4 9,-6 14,-7 5,-1 10,-2 14,-4 4,-1 6,0 8,4 0,7 -1,13 -3,16 -5,9 -11,16 -19,21 -8,5 -17,10 -26,14 -5,2 -9,3 -13,4 -4,1 -8,2 -13,3 -26,5 -50,-1 -70,-19 -5,-4 -9,-8 -14,-12 -5,-5 -8,-9 -11,-14 -5,-7 -9,-14 -12,-21 -4,-7 -7,-14 -11,-21 -6,-15 -10,-30 -12,-46 -2,-16 -3,-32 -4,-48 -1,-44 4,-88 15,-134 5,-19 10,-38 16,-57 6,-19 12,-38 18,-56 5,-14 10,-28 15,-42 5,-14 10,-28 15,-42 8,-25 19,-48 33,-70 4,-5 6,-10 7,-14 -6,0 -12,0 -18,1 -5,0 -11,1 -16,2 -14,2 -27,4 -41,7 -14,3 -27,4 -41,3 -8,0 -16,0 -25,-1 -8,-1 -16,-3 -23,-7 -5,-3 -11,-5 -16,-5 -5,-1 -11,-2 -18,-4 -22,-3 -41,-15 -57,-37 -3,-5 -6,-10 -9,-15 -3,-5 -6,-12 -8,-19 0,-5 1,-8 2,-11 1,-3 3,-6 5,-10 1,-2 2,-2 4,0 1,1 2,1 3,0 3,-2 5,-3 6,-3 1,0 3,0 6,1 15,7 28,13 40,16 5,2 9,3 14,3 5,0 9,1 14,2 15,0 30,1 45,2 15,1 30,1 45,-1 17,0 35,-3 53,-8 10,-3 20,-4 31,-5 10,0 21,-1 31,-1 10,0 15,0 16,-1 1,0 4,-5 10,-13 10,-15 20,-29 29,-43 9,-14 19,-28 30,-40 4,-5 7,-10 10,-15 3,-5 7,-10 10,-15 5,-7 10,-14 15,-19 5,-5 12,-10 19,-14 2,-2 3,-3 4,-3 5,-6 12,-7 20,-3 12,5 21,14 29,26 2,4 3,6 3,8 -2,5 -3,9 -3,12 0,4 -2,7 -5,11 -2,1 -3,3 -3,7 2,5 2,10 1,14 -1,4 -3,8 -6,12 -5,7 -9,15 -13,23 -4,8 -8,16 -13,25 -3,5 -4,8 -3,10 15,0 31,0 47,0 16,0 32,0 47,-1 1,-1 1,-2 1,-3 5,-10 9,-20 14,-31 5,-11 10,-21 16,-31 3,-6 5,-12 8,-18 3,-5 5,-11 8,-16 5,-10 10,-20 16,-29 6,-9 13,-19 20,-29 5,-8 11,-16 17,-24 6,-8 12,-15 17,-23 3,-5 6,-9 10,-13 4,-4 8,-8 12,-13 5,-6 11,-13 16,-18 5,-6 11,-12 16,-17 11,-9 22,-18 34,-26 3,-2 6,-4 10,-5 4,-2 7,-4 10,-5 6,-4 13,-5 19,-5 5,-1 9,0 13,2 4,2 8,5 13,8 7,5 14,11 19,17 5,6 10,13 15,20 5,6 8,13 10,20 2,5 4,11 5,16 2,5 2,11 1,18 -4,23 -6,45 -7,68 -1,23 -6,45 -16,66 -18,40 -42,77 -71,111 -7,9 -14,18 -21,26 -7,8 -13,16 -20,25 -2,3 -4,5 -6,7 -2,2 -4,4 -6,5 -7,7 -14,14 -20,20 -6,6 -13,12 -19,18 -5,5 -9,9 -14,13 -5,4 -9,8 -14,13 -3,3 -5,5 -8,8 -3,3 -6,5 -10,8 -2,2 -4,3 -6,5 -2,1 -5,3 -8,5 -8,3 -14,9 -16,18 0,1 0,2 -1,2 0,0 -1,1 -1,2l-4 12c-2,4 -3,7 -4,11 -1,4 -2,7 -4,11 -1,2 -1,4 -1,5 0,2 0,4 -1,5 -1,1 -1,2 -1,3 0,1 0,2 -1,4 -2,7 -4,13 -7,16 0,1 0,2 -1,3 -2,9 -4,18 -6,26 -2,8 -5,16 -8,25 -1,2 -1,4 -1,6 0,2 1,4 1,6 -1,5 -2,9 -2,13 0,4 -1,8 -2,13l-4 25c1,0 1,0 1,1 0,0 0,1 1,1 0,-1 1,-2 3,-4 6,-10 13,-20 19,-29 6,-10 13,-19 20,-28 6,-7 12,-14 17,-21 5,-7 10,-14 16,-21 8,-10 17,-19 27,-26 10,-7 20,-15 30,-22 6,-5 13,-8 19,-11 6,-3 13,-6 20,-10 7,-5 12,-10 15,-14 6,-6 15,-10 26,-12 3,-1 5,-2 8,-3 2,-1 5,-1 8,0 5,2 10,3 15,4 5,1 10,4 15,8 1,2 4,3 8,3 5,2 10,4 14,6 4,2 8,6 12,10 5,5 10,10 12,14zm-212 -162c0,1 0,1 1,1l4 -4c6,-5 12,-11 17,-16 5,-5 11,-11 17,-18 8,-7 16,-15 23,-23 7,-8 13,-17 20,-26 5,-6 9,-12 14,-18 5,-5 10,-11 14,-18 2,-4 3,-7 4,-10 3,-7 6,-14 10,-20 4,-6 7,-13 10,-20 3,-6 6,-12 9,-17 3,-5 6,-10 8,-16 2,-5 3,-9 3,-14 0,-5 2,-9 3,-14 1,-4 2,-7 3,-10 1,-3 2,-7 1,-10 0,-10 -1,-20 -4,-31 0,-2 -1,-3 -3,-4 -2,-1 -4,-1 -5,0 -3,2 -6,5 -10,11 -2,2 -3,4 -5,7 -1,3 -3,5 -5,8 -2,2 -3,4 -3,8 0,3 -1,6 -2,8 -5,7 -9,14 -12,20 -4,6 -8,13 -12,20 -4,5 -7,9 -10,14 -3,5 -6,10 -10,14 -3,5 -5,9 -8,14 -3,5 -5,9 -7,14 -2,4 -4,7 -6,11 -2,4 -4,8 -6,12 -2,5 -4,9 -5,14 -2,5 -4,10 -7,14 -3,4 -5,8 -7,12 -2,4 -4,8 -5,13 -4,10 -9,21 -15,33 -1,4 -2,7 -2,11 0,4 -2,7 -3,10 -2,4 -3,7 -4,11 -1,4 -2,7 -4,11zm446 104c11,-1 21,2 31,8 10,6 20,13 30,21 6,5 11,10 15,15 4,5 7,11 11,18 3,7 3,14 2,20 -1,6 -3,12 -5,17 -5,13 -10,26 -18,40 -4,7 -7,15 -11,23 -4,8 -8,15 -12,23 -4,8 -7,17 -11,26 -4,9 -7,18 -11,26 -5,15 -11,28 -16,41 -5,13 -10,26 -14,41 -5,16 -11,32 -17,47 -6,15 -12,30 -18,46 -5,9 -9,18 -13,27 -4,9 -8,18 -12,27 0,1 -1,2 -3,4 -5,1 -10,3 -13,8 -3,4 -7,8 -12,10 -10,5 -19,3 -26,-8 -4,-5 -10,-8 -18,-8 -8,-2 -13,-9 -15,-20 1,-4 2,-7 3,-11 1,-4 2,-8 3,-12 0,-5 0,-7 -1,-8 -6,-5 -10,-12 -10,-19 0,-7 -1,-15 -1,-22 0,-7 1,-14 3,-21 2,-7 4,-14 6,-21 9,-33 18,-66 27,-98 9,-33 20,-65 34,-96 8,-18 16,-37 24,-55 8,-19 15,-37 23,-55 1,-2 2,-5 4,-11 5,-7 9,-13 14,-16 5,-3 13,-4 25,-2zm85 -55c0,0 0,0 -1,1 -7,-2 -11,-3 -12,-2 -1,0 -1,3 -1,8 -2,0 -4,-1 -7,-4 -2,-2 -4,-3 -7,-5 -3,-1 -5,-3 -8,-5 -2,-1 -3,-1 -3,1 0,1 -1,2 -3,2 -4,-5 -7,-10 -10,-12 -5,-5 -7,-9 -7,-14 0,-5 1,-9 3,-14 1,-10 2,-17 4,-22 2,-5 5,-12 10,-22 0,5 1,6 2,5 1,-1 3,-4 5,-8 2,-4 4,-8 5,-13 2,-5 4,-8 5,-10 2,-2 3,-3 2,-4 0,-1 0,-2 1,-3 5,-8 13,-11 22,-10 3,0 6,0 9,1 3,0 6,1 9,1 5,1 10,2 15,3 5,1 9,3 14,5 2,2 4,3 8,3 3,0 6,2 8,3 9,5 16,11 22,17 5,6 9,13 11,21 1,5 -1,11 -7,16 -5,4 -8,5 -10,3 -2,-1 -6,0 -14,3 -1,1 -2,1 -2,1 0,0 -1,0 -2,1 -8,1 -14,5 -16,12 -5,10 -15,18 -27,23 -1,0 -1,0 -1,1 0,0 0,1 -1,1 -7,1 -12,5 -14,12z"/>
    <path class="fil0" d="M4283 605c-2,3 -3,6 -2,10 0,4 -1,7 -5,10 -3,2 -5,4 -8,7 -2,3 -4,5 -6,8 -3,3 -5,5 -8,8 -2,3 -5,5 -8,8 -5,4 -8,10 -10,18 -1,5 -4,9 -8,14 -5,5 -9,8 -13,12 -4,3 -8,7 -12,12 -15,15 -28,29 -40,44 -9,11 -18,21 -27,31 -9,10 -19,20 -29,30 -2,2 -4,4 -5,5 -2,2 -4,4 -5,5 -7,8 -15,15 -24,20 -9,5 -18,10 -27,14 -1,1 -2,1 -3,1 -1,0 -2,0 -3,1 -5,5 -10,7 -15,7 -5,0 -11,-1 -18,-3 -7,-2 -13,-4 -18,-5 -13,-5 -23,-13 -31,-24 -8,-10 -14,-22 -18,-35 -2,-4 -3,-7 -3,-11 0,-4 -1,-8 -2,-12 -2,-6 -2,-13 -2,-18 0,-6 1,-12 2,-18 1,-7 2,-15 2,-22 0,-7 2,-15 3,-22 0,-5 1,-12 3,-23 2,-11 4,-22 6,-33l0 -10c0,-8 0,-16 1,-24 1,-8 2,-15 4,-23 2,-5 2,-10 1,-14 -6,5 -11,10 -15,16 -4,6 -7,12 -11,17 -8,14 -18,26 -29,37 -5,6 -10,13 -15,20 -5,7 -9,14 -14,21 -5,5 -9,11 -13,17 -4,6 -8,12 -13,17 -10,10 -17,21 -20,33 -5,10 -10,19 -16,28 -6,9 -13,17 -20,25 -5,8 -12,16 -18,23 -7,7 -13,14 -17,23 -5,7 -9,14 -13,20 -4,6 -8,13 -13,20 -6,7 -13,15 -18,23 -6,8 -13,15 -20,23 -7,7 -17,12 -29,14 -12,2 -22,0 -30,-4l-7 -7c-3,-5 -6,-8 -11,-11 -6,-4 -11,-8 -13,-14 -2,-5 -4,-12 -5,-19 -3,-15 -2,-32 3,-49 4,-17 7,-34 9,-51 2,-17 6,-33 12,-50 2,-7 4,-15 7,-22 3,-7 5,-15 7,-22l74 -236c2,0 4,-1 5,-2 2,-1 4,-3 5,-5 2,-1 4,-2 5,-2 2,0 4,1 5,3 2,2 4,2 5,1 2,-1 4,-2 5,-2 5,-1 9,-1 10,1 1,1 2,5 1,10 0,5 3,7 8,7 5,1 9,4 11,8 3,5 6,9 9,14 3,5 7,9 12,12 10,5 14,15 12,27 -2,14 -3,27 -5,41 -1,14 -4,27 -8,41l0 4c6,-5 12,-12 18,-22 10,-15 21,-31 33,-46 12,-15 25,-29 38,-42 5,-4 8,-7 11,-11 3,-4 6,-8 10,-12 7,-7 16,-15 26,-22 11,-8 25,-12 41,-12l33 -4c16,-3 31,0 44,7 6,4 13,7 18,11 6,4 11,9 16,16 2,4 4,9 5,16 2,37 -1,72 -10,105 -7,33 -13,64 -16,93 -1,8 -2,16 -4,24 -2,8 -4,16 -5,24 0,2 0,5 -1,10 -1,5 -2,10 -3,15 1,0 4,-1 10,-3 7,-3 16,-7 26,-14 10,-7 19,-15 28,-22 9,-7 18,-15 28,-22 13,-8 24,-18 34,-29 10,-11 21,-22 33,-32 7,-7 15,-14 23,-19 8,-5 16,-12 23,-19 2,-1 3,-2 4,-3 1,-1 2,-3 4,-5 8,-9 16,-10 25,-1l0 1zm398 94c2,5 2,11 1,17 -1,6 -1,12 -1,17 -1,7 -2,14 -3,21 -1,7 -3,14 -5,21 -1,6 -2,12 -3,18 -1,5 -1,12 0,19 1,9 0,18 -2,25 -2,8 -4,16 -6,24 -5,18 -9,36 -13,53 -4,17 -8,34 -13,53 -2,5 -3,11 -5,16 -1,5 -3,10 -3,14 -3,10 -5,19 -8,28 -3,9 -5,18 -7,28 0,3 -1,7 -3,12 -2,9 -4,18 -8,26 -3,8 -6,17 -9,27 -2,5 -3,9 -3,14 0,5 -2,10 -3,14l-1 0 -4 12c-6,18 -12,36 -18,54 -5,18 -12,36 -19,54 -5,14 -10,27 -15,40 -5,13 -10,26 -15,39 -4,10 -8,20 -12,29 -4,9 -8,18 -13,27 -5,9 -8,18 -12,27 -3,9 -7,18 -10,26 -3,5 -5,9 -7,14 -5,10 -9,20 -13,29 -4,10 -8,19 -13,29 -2,4 -4,7 -5,11 -2,4 -4,7 -5,11 -2,5 -5,10 -8,18 -1,3 -2,5 -3,7 -1,2 -2,4 -4,7 -3,4 -5,7 -8,11 -2,4 -5,7 -8,11 -8,13 -17,26 -27,40 -7,7 -14,14 -20,21 -6,7 -12,14 -16,23 -3,5 -6,9 -10,14 -4,5 -7,9 -11,14 -2,2 -4,4 -5,7 -2,3 -4,5 -5,8 -5,5 -9,9 -13,14 -4,5 -8,10 -13,14l3 3c-9,7 -18,15 -27,22 -9,7 -19,15 -30,23l-20 16c-5,4 -10,7 -15,11 -5,4 -11,6 -16,8 -7,6 -16,12 -26,18 -3,2 -6,3 -11,4 -5,1 -9,2 -14,3 -7,2 -14,4 -20,5 -6,2 -13,3 -20,4 -5,0 -8,0 -11,1 -3,1 -6,1 -11,1 -2,0 -4,1 -7,4l1 -1c0,0 1,-1 3,-3 -11,1 -21,0 -31,-3 -10,-3 -19,-8 -29,-13 -7,-5 -14,-10 -20,-15 -6,-5 -13,-11 -20,-18 -1,-1 -4,-3 -8,-7l-4 -8c-2,-3 -4,-6 -8,-9 -3,-3 -6,-6 -8,-8 -7,-7 -13,-15 -16,-25 -4,-9 -8,-18 -12,-26 -2,-2 -3,-4 -3,-8 0,-3 0,-6 -1,-8 -5,-21 -11,-41 -18,-61 -5,-16 -7,-33 -8,-50 0,-17 0,-35 2,-52 3,-31 8,-63 16,-97 5,-18 11,-36 18,-53 6,-17 14,-35 22,-52 7,-15 14,-29 21,-44 7,-15 14,-30 23,-46 5,-8 9,-16 14,-24 5,-8 9,-16 14,-24 6,-10 13,-20 19,-29 6,-10 12,-19 18,-29 5,-7 10,-13 15,-18 5,-5 11,-11 16,-17 -2,7 -5,13 -11,18 -5,5 -10,10 -12,16 -3,6 -6,12 -10,17 -4,5 -8,11 -12,18 7,-1 12,-4 14,-8 2,-5 5,-9 10,-12 0,3 -1,5 -3,8 -2,2 -3,5 -1,9 4,-5 7,-8 9,-12 2,-3 2,-8 1,-14 -2,-1 -1,-3 3,-7 3,-4 5,-7 8,-11 2,-4 4,-8 6,-12 4,-5 8,-10 12,-14 4,-4 8,-8 12,-13 -2,6 -5,12 -8,16 -4,5 -6,10 -8,18 5,-5 8,-9 12,-13 3,-4 8,-8 16,-13 -2,4 -3,6 -5,8 -1,2 -3,4 -5,7 1,2 2,2 2,1 0,-1 2,-2 3,-1 -4,5 -7,11 -10,16 -3,5 -6,10 -10,16 -2,3 -4,6 -6,10 -2,4 -5,7 -8,11 -3,7 -7,15 -12,22 -3,2 -4,4 -4,7l0 4c1,1 2,0 4,-1 3,-5 6,-7 10,-8 2,1 2,2 1,3 -1,1 -1,2 0,4 2,1 3,0 3,-3 0,-3 1,-4 4,-4 3,2 4,5 4,11 2,-1 3,-3 3,-7 0,-5 3,-6 8,-5 0,0 0,0 1,1 1,2 0,3 -1,4 -2,1 -2,2 -1,4 1,2 2,2 4,1 2,-1 2,0 1,3 -1,3 0,5 3,5 3,0 3,1 0,4 -1,2 -2,3 -3,4 -1,1 -1,2 -1,4 -2,3 -4,5 -5,8 -2,2 -2,6 0,10 5,-5 10,-12 14,-18 4,-7 8,-13 12,-17 2,1 1,3 -1,5 -6,9 -10,18 -11,27 -1,5 -4,12 -8,19 0,3 -3,3 -8,1 -2,3 -3,6 -3,9 0,3 -2,6 -3,9 -5,11 -10,21 -15,31 -5,10 -11,19 -16,29 -7,10 -13,21 -17,32 -4,11 -8,23 -13,36 -2,6 -4,13 -5,18 -2,6 -4,12 -5,18 -2,7 -3,15 -5,22 -1,7 -3,15 -3,22 -2,13 -3,25 -4,38 -1,13 -2,25 -4,38 0,5 0,9 -1,13 0,4 -1,8 -1,13l0 57c0,7 1,14 2,21 1,7 3,14 5,21 0,5 2,10 5,14 4,5 7,9 9,14 2,5 6,10 10,14 2,4 2,6 1,8 0,2 0,4 1,6 1,2 1,5 1,8 0,5 1,10 4,12 3,2 6,3 9,3 3,0 6,2 8,3 17,5 34,4 49,-3 5,-2 11,-4 16,-6 5,-2 10,-4 15,-6 2,-2 3,-3 5,-3 1,0 3,-2 5,-3 5,-4 9,-7 13,-10 4,-3 8,-6 13,-10 13,-8 24,-17 33,-27 10,-10 19,-20 29,-32 2,-1 3,-2 3,-3 0,-1 2,-2 3,-4 5,-7 9,-13 11,-16 3,-4 5,-7 8,-10 2,-3 5,-6 8,-9 8,-9 15,-19 20,-29 5,-10 11,-20 17,-30 8,-15 16,-31 23,-46 7,-15 14,-31 20,-47 5,-12 10,-23 16,-34 6,-11 11,-23 16,-35 7,-15 14,-31 20,-48 6,-16 13,-32 20,-48 17,-42 34,-86 49,-134 4,-11 8,-22 12,-32 4,-10 8,-21 10,-32 3,-7 5,-15 7,-23 2,-8 4,-16 5,-23 5,-15 9,-31 13,-46 4,-15 8,-30 13,-46 3,-10 5,-20 8,-31 2,-10 4,-21 6,-31 5,-24 9,-48 14,-72 5,-24 8,-48 10,-72 2,-9 4,-18 6,-27 2,-9 3,-18 3,-27l0 -14c0,-13 0,-25 1,-37 1,-12 2,-24 4,-37l0 -5c-5,2 -8,4 -10,8 -2,3 -4,6 -6,8 -4,4 -7,7 -9,10 -2,3 -5,7 -9,10 -3,3 -4,5 -4,8 0,5 -1,8 -3,11 -2,3 -5,5 -8,8 -9,9 -18,18 -27,28 -9,10 -18,20 -26,31 -5,6 -10,13 -16,18 -6,6 -11,13 -16,20 -2,2 -3,3 -5,5 -1,1 -3,3 -5,5 -3,3 -6,5 -10,8 -4,2 -5,6 -5,10 -6,3 -11,7 -13,13 -2,6 -7,10 -14,12 -5,2 -9,3 -11,3 -5,2 -9,3 -14,2 -5,0 -10,-1 -15,-1 -1,0 -2,0 -4,0 -2,0 -4,0 -5,-1 -2,-4 -5,-6 -9,-7 -4,-1 -8,-2 -12,-4 -3,-2 -5,-3 -8,-4 -2,-1 -4,-3 -6,-5 -2,-2 -4,-3 -7,-5 -3,-1 -5,-3 -7,-5 -5,-4 -10,-9 -14,-15 -2,-2 -3,-3 -3,-5 0,-1 -1,-3 -2,-3 -15,-15 -20,-34 -14,-56 2,-5 3,-9 4,-13 1,-4 2,-8 4,-13 2,-5 3,-11 3,-16 0,-5 0,-10 0,-14 0,-7 1,-14 3,-20 2,-6 5,-13 8,-20 8,-24 18,-47 31,-69 12,-22 25,-44 38,-65 10,-15 20,-29 31,-42 11,-12 23,-25 35,-38 16,-18 32,-33 46,-45 11,-9 25,-16 41,-22 15,-5 27,-1 38,12 5,5 10,6 18,5 17,-2 32,4 44,18 5,6 7,11 8,15 0,5 1,9 4,10 2,0 3,2 3,5 0,5 0,9 1,13 0,4 0,8 -1,13 -2,9 -7,17 -14,24 -8,7 -16,10 -24,10 -8,-2 -14,-5 -18,-10 -10,-7 -16,-18 -18,-31 -4,0 -6,1 -7,3 -1,2 -2,4 -4,5 -9,15 -17,33 -25,52 -5,11 -10,22 -15,33 -5,11 -10,22 -18,32 -3,5 -5,9 -6,14 -1,5 -3,10 -5,14 -5,8 -9,16 -13,25 -4,8 -9,16 -14,25 -5,7 -9,15 -13,23 -4,8 -7,17 -9,27 10,-12 20,-23 31,-32 10,-10 20,-21 29,-33 5,-8 11,-15 18,-22 6,-6 13,-13 20,-20 5,-5 11,-11 16,-18 5,-6 11,-12 16,-18 2,-3 4,-6 7,-9 3,-3 7,-4 12,-3 4,1 8,-1 14,-7 5,-4 10,-6 12,-7 5,-2 8,-2 10,0 4,2 7,4 10,5 3,2 7,4 10,5 5,7 11,12 18,14 10,5 18,10 25,18 6,7 12,15 18,23 9,12 14,24 15,36 1,12 0,25 -1,38l0 16zm-610 566c-1,0 -1,1 -1,4l0 1 1 0c1,0 1,-1 1,-4 0,-1 0,-1 -1,-1zm-14 -23c-2,0 -3,1 -3,3 0,2 1,3 3,3 0,-1 0,-2 1,-2 1,0 1,-1 1,-2 0,-1 -1,-1 -3,-1zm0 -78c0,2 0,3 -1,3 -1,0 -1,2 0,3l1 -1c0,-1 0,-2 1,-2 0,0 0,-2 -1,-3zm132 -153c-3,-4 -2,-7 1,-11 5,-2 8,-5 10,-10 2,-5 4,-8 7,-10 3,-2 6,-4 10,-6 3,-1 5,-2 8,-3 2,-1 5,-1 9,1 5,2 6,3 5,4 -2,5 -2,10 0,12 2,2 2,4 1,5 -1,2 -3,4 -5,5 -3,3 -3,5 0,5 2,2 3,2 4,1 1,-1 1,-3 1,-5 2,-2 3,-3 3,-5 0,-1 2,-3 5,-5 3,2 4,4 3,6 0,2 0,4 2,6 2,-1 3,-2 4,-3 1,-1 2,-2 4,-4 1,2 1,4 1,7 0,3 2,5 6,7 0,1 0,2 -1,3 -3,0 -4,0 -3,1 0,1 1,2 1,4 2,4 1,5 -1,5 -5,0 -7,2 -5,7 0,3 -1,3 -3,1 -3,-1 -5,-1 -8,0 -3,1 -5,-1 -5,-5l-1 0c-1,0 -2,0 -3,1 -3,3 -5,5 -7,5 0,1 0,2 -1,3 -1,1 -2,0 -4,-1 0,0 -1,-1 -3,-3 -2,0 -3,1 -3,3 0,2 -2,2 -3,0 -1,-1 0,-4 3,-8 1,-1 0,-4 -1,-10 -5,3 -7,5 -8,5 -2,5 -4,7 -6,8 -2,0 -5,1 -9,2 0,-3 2,-5 5,-7 4,-4 6,-7 7,-10 2,-2 2,-4 1,-5 -2,-4 -3,-6 -3,-7 0,-1 0,-3 1,-5 -4,1 -6,3 -8,6 -2,3 -4,6 -7,8zm-94 142c-5,5 -8,11 -11,16 -3,5 -6,10 -11,14 4,-5 6,-11 8,-18 1,-6 6,-10 14,-12zm1 -46c0,-3 2,-7 5,-12 8,-11 17,-21 27,-31 2,-2 3,-3 5,-4 1,-1 3,0 5,4 0,1 1,1 3,1 -4,2 -6,5 -7,10 0,5 -3,9 -10,14 -2,2 -3,4 -3,6 0,2 -3,4 -6,6 -2,0 -3,1 -5,2 -1,1 -3,1 -5,-1 -2,-2 -3,-2 -5,1 -1,2 -3,4 -5,5zm10 64c0,7 -3,13 -8,16 -1,-6 2,-12 8,-16z"/>
   </g>
  </g>
 </g>
</svg>
