<?xml version="1.0" encoding="utf-8"?>
<!-- Generator: Adobe Illustrator 16.0.0, SVG Export Plug-In . SVG Version: 6.00 Build 0)  -->
<!DOCTYPE svg PUBLIC "-//W3C//DTD SVG 1.1//EN" "http://www.w3.org/Graphics/SVG/1.1/DTD/svg11.dtd">
<svg version="1.1" id="图层_1" xmlns="http://www.w3.org/2000/svg" xmlns:xlink="http://www.w3.org/1999/xlink" x="0px" y="0px"
	 width="150px" height="150px" viewBox="222.64 345.945 150 150" enable-background="new 222.64 345.945 150 150"
	 xml:space="preserve">
<g>
	<path fill="#FFFFFF" d="M352.946,476.172h-110.61c-10.861,0-19.695-8.834-19.695-19.695v-71.063
		c0-10.861,8.834-19.695,19.695-19.695h110.61c10.861,0,19.694,8.833,19.694,19.695v71.063
		C372.64,467.338,363.807,476.172,352.946,476.172z M242.335,373.442c-6.6,0-11.97,5.37-11.97,11.97v71.062
		c0,6.6,5.37,11.971,11.97,11.971h110.61c6.6,0,11.97-5.371,11.97-11.971v-71.061c0-6.6-5.37-11.97-11.97-11.97h-110.61V373.442z"/>
	<path fill="#FFFFFF" d="M280.804,454.771c-18.654,0-33.831-15.178-33.831-33.832s15.177-33.83,33.831-33.83
		c18.654,0,33.831,15.177,33.831,33.831C314.635,439.596,299.458,454.771,280.804,454.771z M280.804,394.835
		c-14.392,0-26.106,11.715-26.106,26.106s11.715,26.105,26.106,26.105c14.391,0,26.106-11.715,26.106-26.105
		S295.197,394.835,280.804,394.835z"/>
	<path fill="#FFFFFF" d="M346.61,400.628c-5.325,0-9.656-4.329-9.656-9.655c0-5.327,4.329-9.656,9.656-9.656
		c5.326,0,9.655,4.329,9.655,9.656C356.265,396.299,351.934,400.628,346.61,400.628z M346.61,385.18
		c-3.191,0-5.794,2.603-5.794,5.793s2.603,5.793,5.794,5.793c3.189,0,5.792-2.603,5.792-5.793S349.799,385.18,346.61,385.18z"/>
</g>
</svg>
