<?xml version="1.0" encoding="utf-8"?>
<!-- Generator: Adobe Illustrator 16.0.0, SVG Export Plug-In . SVG Version: 6.00 Build 0)  -->
<!DOCTYPE svg PUBLIC "-//W3C//DTD SVG 1.1//EN" "http://www.w3.org/Graphics/SVG/1.1/DTD/svg11.dtd">
<svg version="1.1" id="图层_1" xmlns="http://www.w3.org/2000/svg" xmlns:xlink="http://www.w3.org/1999/xlink" x="0px" y="0px"
	 width="150px" height="150px" viewBox="222.64 345.945 150 150" enable-background="new 222.64 345.945 150 150"
	 xml:space="preserve">
<g>
	<path fill="#FFFFFF" d="M350.031,453.967h-57.043c-12.465,0-22.609-10.146-22.609-22.609v-57.052
		c-0.001-12.465,10.145-22.611,22.609-22.611h57.043c12.464,0,22.609,10.146,22.609,22.611v57.052
		C372.64,443.82,362.495,453.967,350.031,453.967z M292.987,359.799c-8.001,0-14.506,6.505-14.506,14.506v57.052
		c0,8,6.505,14.506,14.506,14.506h57.043c8.001,0,14.506-6.506,14.506-14.506v-57.052c0-8.001-6.505-14.506-14.506-14.506H292.987z"
		/>
	<g>
		<path fill="#FFFFFF" d="M339.256,430.955h-35.413c-5.754,0-10.373-4.619-10.373-10.373v-35.415
			c0-5.754,4.619-10.373,10.373-10.373h35.413c5.754,0,10.372,4.618,10.372,10.373v35.414
			C349.628,426.335,345.01,430.955,339.256,430.955z M343.956,420.419v-35.17c0-2.675-2.188-4.863-4.861-4.863h-35.171
			c-2.674,0-4.861,2.188-4.861,4.863v35.17c0,2.675,2.188,4.862,4.861,4.862h35.171
			C341.769,425.363,343.956,423.174,343.956,420.419z"/>
		<path fill="#FFFFFF" d="M335.772,402.997c0,7.86-6.402,14.181-14.181,14.181c-7.86,0-14.182-6.402-14.182-14.181
			c0-7.86,6.402-14.181,14.182-14.181C329.37,388.733,335.772,395.135,335.772,402.997z M321.508,393.758
			c-5.106,0-9.238,4.132-9.238,9.239c0,5.106,4.132,9.238,9.238,9.238s9.238-4.132,9.238-9.238
			C330.747,397.89,326.615,393.758,321.508,393.758z"/>
		<circle fill="#FFFFFF" cx="337.149" cy="388.166" r="3.646"/>
	</g>
	<path fill="#212327" d="M328.317,457.152h-59.985v-72.633h41.59c10.117,0,18.396,8.279,18.396,18.396
		C328.317,402.916,328.317,451.564,328.317,457.152z"/>
	<path fill="#FFFFFF" d="M303.844,490.195h-62.4c-10.368,0-18.804-8.436-18.804-18.803v-62.401c0-10.366,8.436-18.804,18.804-18.804
		h62.402c10.366,0,18.795,8.436,18.795,18.804v62.401C322.641,481.76,314.212,490.195,303.844,490.195z M241.444,398.292
		c-5.896,0-10.699,4.803-10.699,10.699v62.401c0,5.896,4.803,10.701,10.699,10.701h62.402c5.896,0,10.691-4.805,10.691-10.701
		v-62.401c0-5.896-4.795-10.699-10.691-10.699H241.444L241.444,398.292z"/>
	<path fill="#FFFFFF" d="M286.824,439.787h-8.752v32.252h-13.209v-32.01h-7.212v-11.102h6.969c0-3.322,0-6.239,0-9.238
		c0-8.753,6.726-11.265,12.723-11.265c4.052,0,10.21,0,10.21,0l0,0v11.021c-0.891,0-4.213,0-5.916,0
		c-0.243,0-3.808-0.162-3.808,3.242c0,1.378,0,6.239,0,6.239h9.724L286.824,439.787z"/>
</g>
</svg>
