<?xml version="1.0" encoding="utf-8"?>
<!-- Generator: Adobe Illustrator 16.0.0, SVG Export Plug-In . SVG Version: 6.00 Build 0)  -->
<!DOCTYPE svg PUBLIC "-//W3C//DTD SVG 1.1//EN" "http://www.w3.org/Graphics/SVG/1.1/DTD/svg11.dtd">
<svg version="1.1" id="图层_1" xmlns="http://www.w3.org/2000/svg" xmlns:xlink="http://www.w3.org/1999/xlink" x="0px" y="0px"
	 width="150px" height="150px" viewBox="222.64 345.945 150 150" enable-background="new 222.64 345.945 150 150"
	 xml:space="preserve">
<g>
	<path fill="#FFFFFF" d="M342.798,489.975h-90.317c-9.539,0-17.301-7.762-17.301-17.308v-56.28h124.921v56.278
		C360.1,482.213,352.338,489.975,342.798,489.975z M243.265,424.474v48.191c0,5.173,4.051,9.223,9.216,9.223H342.8
		c5.078,0,9.216-4.138,9.216-9.223v-48.191H243.265z"/>
	<path fill="#FFFFFF" d="M363.662,424.474H231.618c-4.952,0-8.978-4.027-8.978-8.971v-19.654c0-4.942,4.026-8.971,8.978-8.971
		h132.043c4.951,0,8.979,4.027,8.979,8.971v19.654C372.64,420.447,368.613,424.474,363.662,424.474z M231.618,394.965
		c-0.513,0-0.892,0.372-0.892,0.884v19.654c0,0.513,0.379,0.884,0.892,0.884h132.043c0.529,0,0.892-0.466,0.892-0.884v-19.654
		c0-0.513-0.379-0.884-0.892-0.884H231.618z"/>
	<g>
		<g>
			<g>
				<path fill="#FFFFFF" d="M301.721,394.965h-21.106c-8.624,0-16.251-4.911-19.916-12.815c-3.498-7.565-2.377-16.14,2.929-22.386
					c0.277-0.481,0.933-1.129,1.375-1.556c0.505-0.505,1.098-1.003,1.595-1.406c6.167-5.235,14.75-6.357,22.308-2.866
					c7.904,3.664,12.815,11.292,12.815,19.923V394.965z M279.872,360c-2.921,0-5.755,1.027-8.125,3.033
					c-0.379,0.316-0.743,0.607-1.042,0.908l-0.024,0.032c-0.213,0.197-0.498,0.481-0.6,0.631c-3.577,4.264-4.232,9.405-2.045,14.143
					c1.824,3.932,6.081,8.133,12.58,8.133h13.021v-13.021c0-6.506-4.201-10.763-8.125-12.579
					C283.663,360.417,281.752,360,279.872,360z"/>
			</g>
			<g>
				<path fill="#FFFFFF" d="M314.657,394.965h-21.1v-21.108c0-8.631,4.911-16.259,12.816-19.923
					c7.557-3.514,16.14-2.377,22.386,2.938c0.34,0.197,0.932,0.75,1.516,1.335c0.441,0.434,1.098,1.081,1.666,1.942
					c5.014,5.86,6.135,14.435,2.637,21.992C330.916,390.052,323.288,394.965,314.657,394.965z M301.643,386.878h13.014
					c6.507,0,10.764-4.201,12.587-8.133c2.188-4.738,1.532-9.879-1.753-13.755c-0.396-0.537-0.68-0.821-0.892-1.018l-0.024-0.032
					c-0.221-0.221-0.418-0.458-0.687-0.631c-4.24-3.577-9.389-4.233-14.119-2.03c-3.925,1.816-8.126,6.071-8.126,12.579V386.878
					L301.643,386.878z"/>
			</g>
		</g>
	</g>
	<rect x="293.636" y="390.921" fill="#FFFFFF" width="8.087" height="95.01"/>
</g>
</svg>
