<?xml version="1.0" encoding="utf-8"?>
<!-- Generator: Adobe Illustrator 24.0.0, SVG Export Plug-In . SVG Version: 6.00 Build 0)  -->
<svg version="1.1" id="图层_1" xmlns="http://www.w3.org/2000/svg" xmlns:xlink="http://www.w3.org/1999/xlink" x="0px" y="0px"
	 viewBox="0 0 37.98 37.98" style="enable-background:new 0 0 37.98 37.98;" xml:space="preserve">
<style type="text/css">
	.st0{fill:none;stroke:#000000;stroke-width:1.3906;stroke-miterlimit:10;}
	.st1{fill:#FFFFFF;}
	.st2{fill:none;stroke:#000000;stroke-width:1.6605;stroke-miterlimit:10;}
	.st3{fill:none;stroke:#000000;stroke-width:0.9441;stroke-miterlimit:10;}
	.st4{fill-rule:evenodd;clip-rule:evenodd;fill:none;stroke:#000000;stroke-width:1.3906;stroke-miterlimit:10;}
	.st5{fill:none;stroke:#000000;stroke-width:0.7087;stroke-miterlimit:10;}
	.st6{fill:none;stroke:#000000;stroke-width:0.7087;stroke-miterlimit:10;stroke-dasharray:1.0038,1.0038;}
	.st7{fill:none;stroke:#000000;stroke-width:0.7087;stroke-miterlimit:10;stroke-dasharray:0.9859,0.9859;}
</style>
<g>
	<path class="st1" d="M25.61,36.66l-0.05-32.2l3.79-3.14v32.24L25.61,36.66z M26.96,5.11L27,33.71l0.97-0.8V4.28L26.96,5.11z"/>
	<g>
		<g>
			
				<rect x="23.17" y="27.35" transform="matrix(0.8922 -0.4516 0.4516 0.8922 -9.9897 13.5615)" class="st1" width="0.5" height="0.71"/>
			<path class="st1" d="M10.82,34.49l-0.32-0.63l0.9-0.45l0.32,0.63L10.82,34.49z M12.61,33.58l-0.32-0.63l0.9-0.45l0.32,0.63
				L12.61,33.58z M14.4,32.68l-0.32-0.63l0.9-0.45l0.32,0.63L14.4,32.68z M16.19,31.77l-0.32-0.63l0.9-0.45l0.32,0.63L16.19,31.77z
				 M17.98,30.86l-0.32-0.63l0.9-0.45l0.32,0.63L17.98,30.86z M19.77,29.95l-0.32-0.63l0.9-0.45l0.32,0.63L19.77,29.95z
				 M21.56,29.05l-0.32-0.63l0.9-0.45l0.32,0.63L21.56,29.05z"/>
			
				<rect x="9.29" y="34.39" transform="matrix(0.8922 -0.4516 0.4516 0.8922 -14.6622 8.0528)" class="st1" width="0.5" height="0.71"/>
		</g>
		<g>
			
				<rect x="23.06" y="10.03" transform="matrix(0.4212 -0.907 0.907 0.4212 4.2273 27.1828)" class="st1" width="0.71" height="0.5"/>
			<path class="st1" d="M22.14,10.08l-0.89-0.42l0.3-0.64l0.89,0.42L22.14,10.08z M20.35,9.25l-0.89-0.42l0.3-0.64l0.89,0.42
				L20.35,9.25z M18.56,8.42l-0.89-0.41l0.3-0.64l0.89,0.41L18.56,8.42z M16.78,7.59l-0.89-0.41l0.3-0.64l0.89,0.41L16.78,7.59z
				 M14.99,6.76l-0.89-0.42l0.3-0.64l0.89,0.42L14.99,6.76z M13.2,5.93L12.3,5.52l0.3-0.64l0.89,0.42L13.2,5.93z M11.41,5.1
				l-0.89-0.41l0.3-0.64l0.89,0.41L11.41,5.1z"/>
			
				<rect x="9.19" y="3.6" transform="matrix(0.4209 -0.9071 0.9071 0.4209 2.0378 10.8841)" class="st1" width="0.71" height="0.5"/>
		</g>
	</g>
</g>
</svg>
