<?xml version="1.0" encoding="utf-8"?>
<!-- Generator: Adobe Illustrator 23.0.0, SVG Export Plug-In . SVG Version: 6.00 Build 0)  -->
<svg version="1.1" id="图层_1" xmlns="http://www.w3.org/2000/svg" xmlns:xlink="http://www.w3.org/1999/xlink" x="0px" y="0px"
	 viewBox="0 0 37.98 37.98" style="enable-background:new 0 0 37.98 37.98;" xml:space="preserve">
<style type="text/css">
	.st0{fill:none;stroke:#FFFFFF;stroke-width:1.3906;stroke-miterlimit:10;}
	.st1{fill:#221814;}
	.st2{fill:none;}
	.st3{fill:#FFFFFF;}
</style>
<g>
	<path class="st0" d="M15.74,20.38h0.42c0.99,0.14,3.11,0.56,3.81,3.39c0.85,3.53,0.56,6.92-3.25,8.75
		c-2.97,1.55-7.2-0.14-9.32-3.25c-2.26-3.25-1.27-5.37,2.68-5.65c1.13-0.14,2.26-0.42,3.25-0.71
		C14.75,22.64,16.16,21.65,15.74,20.38L15.74,20.38z"/>
	<path class="st0" d="M32.54,21.09c1.55,2.97-0.14,7.2-3.25,9.32c-3.25,2.26-5.37,1.27-5.65-2.68c-0.14-1.13-0.42-2.26-0.71-3.25
		c-0.28-1.41-1.27-2.68-2.54-2.4v-0.42c0.14-0.99,0.56-3.11,3.39-3.81C27.32,17.13,30.57,17.42,32.54,21.09L32.54,21.09z"/>
	<path class="st0" d="M14.33,10.07c0.14,1.13,0.42,2.26,0.71,3.25c0.28,1.41,1.27,2.68,2.54,2.4v0.42
		c-0.14,0.99-0.56,3.11-3.39,3.81c-3.53,0.85-6.92,0.56-8.75-3.25c-1.55-2.97,0.14-7.2,3.25-9.32C11.93,5.27,14.05,6.26,14.33,10.07
		L14.33,10.07z"/>
	<path class="st0" d="M30.57,8.66c2.26,3.25,1.27,5.37-2.68,5.65c-1.13,0.14-2.26,0.42-3.25,0.71c-1.41,0.28-2.68,1.27-2.4,2.54
		h-0.42c-0.99-0.14-3.11-0.56-3.81-3.39c-0.85-3.53-0.56-6.92,3.25-8.75C24.07,3.86,28.31,5.56,30.57,8.66L30.57,8.66z"/>
	<path class="st1" d="M22.38,7.96"/>
	<rect x="4.85" y="4.82" class="st2" width="28.29" height="28.34"/>
	<path class="st3" d="M18.99,14.73c-2.4,0-4.24,1.84-4.24,4.24c0,2.4,1.84,4.24,4.24,4.24c2.4,0,4.24-1.84,4.24-4.24
		C23.22,16.57,21.39,14.73,18.99,14.73L18.99,14.73z M18.99,17.56c0.85,0,1.41,0.56,1.41,1.41c0,0.85-0.56,1.41-1.41,1.41
		c-0.85,0-1.41-0.56-1.41-1.41C17.58,18.12,18.14,17.56,18.99,17.56L18.99,17.56z M18.99,17.56"/>
</g>
</svg>
