<?xml version="1.0" encoding="utf-8"?>
<!-- Generator: Adobe Illustrator 22.1.0, SVG Export Plug-In . SVG Version: 6.00 Build 0)  -->
<svg version="1.1" id="图层_1" xmlns="http://www.w3.org/2000/svg" xmlns:xlink="http://www.w3.org/1999/xlink" x="0px" y="0px"
	 viewBox="0 0 37.98 37.98" style="enable-background:new 0 0 37.98 37.98;" xml:space="preserve">
<style type="text/css">
	.st0{clip-path:url(#SVGID_2_);}
	.st1{fill:none;stroke:#000000;stroke-width:0.1574;stroke-linejoin:round;stroke-miterlimit:10;}
	.st2{fill:none;stroke:#000000;stroke-width:0.9441;stroke-linecap:round;stroke-miterlimit:10;}
	.st3{fill:none;stroke:#000000;stroke-width:1.3139;stroke-miterlimit:10;}
	.st4{fill:none;stroke:#000000;stroke-width:1.3906;stroke-miterlimit:10;}
	.st5{fill:none;stroke:#000000;stroke-width:0.5226;stroke-miterlimit:10;}
	.st6{fill:none;stroke:#000000;stroke-width:0.9441;stroke-miterlimit:10;}
	.st7{fill:none;stroke:#000000;stroke-width:0.5915;stroke-miterlimit:10;}
	.st8{fill:none;stroke:#000000;stroke-miterlimit:10;}
	.st9{fill:none;stroke:#000000;stroke-linecap:round;stroke-linejoin:round;stroke-miterlimit:10;}
	.st10{fill:none;stroke:#000000;stroke-width:1.3906;stroke-linecap:round;stroke-miterlimit:10;}
	.st11{fill-rule:evenodd;clip-rule:evenodd;fill:none;stroke:#000000;stroke-width:1.3906;stroke-miterlimit:10;}
	.st12{fill-rule:evenodd;clip-rule:evenodd;fill:none;stroke:#000000;stroke-width:0.9441;stroke-miterlimit:10;}
	.st13{fill-rule:evenodd;clip-rule:evenodd;fill:none;stroke:#000000;stroke-width:0.5915;stroke-miterlimit:10;}
	.st14{fill:none;stroke:#000000;stroke-width:1.4964;stroke-miterlimit:10;}
	.st15{fill:none;stroke:#000000;stroke-width:1.4979;stroke-linecap:round;stroke-miterlimit:10;}
	.st16{fill:none;stroke:#000000;stroke-width:0.4896;stroke-miterlimit:10;}
	.st17{fill:none;stroke:#000000;stroke-width:0.5515;stroke-miterlimit:10;}
	.st18{fill-rule:evenodd;clip-rule:evenodd;fill:none;stroke:#000000;stroke-width:1.8871;stroke-miterlimit:10;}
	.st19{fill:none;stroke:#000000;stroke-width:1.3098;stroke-miterlimit:10;}
	.st20{fill:none;stroke:#000000;stroke-width:1.8871;stroke-linecap:round;stroke-miterlimit:10;}
	.st21{fill-rule:evenodd;clip-rule:evenodd;fill:none;stroke:#000000;stroke-width:0.6173;stroke-miterlimit:10;}
	.st22{fill-rule:evenodd;clip-rule:evenodd;fill:none;stroke:#000000;stroke-width:0.3868;stroke-miterlimit:10;}
	.st23{fill:none;stroke:#FFFFFF;stroke-width:1.6605;stroke-miterlimit:10;}
	.st24{fill-rule:evenodd;clip-rule:evenodd;fill:none;stroke:#000000;stroke-width:1.4489;stroke-miterlimit:10;}
	.st25{fill-rule:evenodd;clip-rule:evenodd;fill:none;stroke:#000000;stroke-width:0.9077;stroke-miterlimit:10;}
	.st26{fill:none;stroke:#000000;stroke-width:0.0145;stroke-miterlimit:10;}
	.st27{fill:none;stroke:#000000;stroke-width:1.1586;stroke-miterlimit:10;}
	.st28{fill:none;stroke:#000000;stroke-width:1.3665;stroke-miterlimit:10;}
	.st29{fill:none;stroke:#000000;stroke-width:1.5609;stroke-miterlimit:10;}
	.st30{fill:none;stroke:#000000;stroke-width:1.6987;stroke-miterlimit:10;}
	.st31{fill:none;stroke:#FFFFFF;stroke-width:1.3906;stroke-linecap:round;stroke-miterlimit:10;}
	.st32{fill:#221814;}
	.st33{fill:none;}
	.st34{fill:none;stroke:#000000;stroke-width:1.6838;stroke-miterlimit:10;}
	.st35{fill:none;stroke:#000000;stroke-width:1.6605;stroke-miterlimit:10;}
	.st36{fill:none;stroke:#000000;stroke-width:1.2082;stroke-miterlimit:10;}
	.st37{fill:none;stroke:#000000;stroke-width:1.1058;stroke-miterlimit:10;}
	.st38{fill:none;stroke:#000000;stroke-width:1.391;stroke-linejoin:round;stroke-miterlimit:10;}
	.st39{fill:none;stroke:#000000;stroke-width:1.3476;stroke-linejoin:round;stroke-miterlimit:10;}
	.st40{fill:#231815;}
	.st41{fill:none;stroke:#231815;stroke-width:0.168;stroke-miterlimit:22.926;}
	.st42{fill:#932023;}
	.st43{fill:none;stroke:#9A1E23;stroke-width:0.084;stroke-miterlimit:22.926;}
	.st44{fill:none;stroke:#231815;stroke-width:0.839;stroke-miterlimit:10;}
	.st45{fill:none;stroke:#9A1E23;stroke-width:0.839;stroke-miterlimit:22.926;}
	.st46{fill:none;stroke:#FFFFFF;stroke-width:0.7027;stroke-miterlimit:10;}
	.st47{fill:none;stroke:#9A1E23;stroke-width:0.818;stroke-miterlimit:22.926;}
	.st48{fill:none;stroke:#231815;stroke-width:0.818;stroke-miterlimit:10;}
	.st49{fill:none;stroke:#231815;stroke-width:0.215;stroke-miterlimit:10;}
	.st50{fill:none;stroke:#231815;stroke-width:0.209;stroke-miterlimit:10;}
	.st51{fill:none;stroke:#FFFFFF;stroke-width:0.186;stroke-miterlimit:10;}
	.st52{fill:#9A1E23;}
	.st53{fill:#FFFFFF;}
</style>
<path class="st23" d="M15.1,18.96c-3.51-0.96-6.08-4.16-6.08-7.97c0-4.56,3.7-8.26,8.26-8.26c4.56,0,8.26,3.7,8.26,8.26
	c0,3.49-2.17,6.48-5.23,7.69"/>
<path class="st23" d="M15.44,15.45c-0.83-0.37-1.55-0.96-2.06-1.71"/>
<path class="st23" d="M21.55,8.24c0.51,0.78,0.81,1.71,0.81,2.71c0,1.65-0.81,3.11-2.05,4"/>
<path class="st23" d="M12.71,12.34c-0.13-0.44-0.2-0.91-0.2-1.4c0-2.72,2.21-4.93,4.93-4.93c1.07,0,2.06,0.34,2.87,0.92"/>
<path class="st23" d="M9.93,27.16c0,0,3.81,5.88,4.46,7.04c0.65,1.15,1.3,2.01,2.86,2.01h9.18c1.55,0,2.82-1.26,2.83-2.81V22.8
	c0,0,0.02-2.13-1.79-2.13c-1.61,0-5.81,0.08-5.81,0.08s-1.55,0.1-1.55-2.11v-5.57c0,0-0.3-2.26-2.26-2.26
	c-1.96,0-2.26,1.86-2.26,1.86V22.7l-0.02,3.61l-1.87-2.1c0,0-1.88-2.42-3.68-0.51C8.67,25.14,9.93,27.16,9.93,27.16z"/>
</svg>
