<svg id="图层_1" data-name="图层 1" xmlns="http://www.w3.org/2000/svg" viewBox="0 0 38 38"><defs><style>.cls-1{fill:none;stroke:#fff;stroke-miterlimit:10;stroke-width:1.37px;}</style></defs><title>icon</title><path id="_1-2" data-name=" 1-2" class="cls-1" d="M15.94,4.37c.34,0,.71,1,1.07,1h4c.34,0,.67-1,1-1h5.11v7.14H22c-.55,0-.93,2-.93,2H17s-.47-2-1.11-2h-5V4.37Z"/><path id="_1-3" data-name=" 1-3" class="cls-1" d="M15.94,14.57c.34,0,.71,1,1.07,1h4c.34,0,.67-1,1-1h5.11V21.7H22c-.55,0-.93,2-.93,2H17s-.47-2-1.11-2h-5V14.57Z"/><path id="_1-4" data-name=" 1-4" class="cls-1" d="M15.94,24.76c.34,0,.71,1,1.07,1h4c.34,0,.67-1,1-1h5.11V31.9H22c-.55,0-.93,2-.93,2H17s-.47-2-1.11-2h-5V24.76Z"/></svg>