<svg id="图层_1" data-name="图层 1" xmlns="http://www.w3.org/2000/svg" viewBox="0 0 595.55 155.5"><defs><style>.cls-1{fill:#fff;}</style></defs><title>forbes-logo</title><path class="cls-1" d="M342.3,498.2c-2.4-.2-4.8-.2-7.2-.6-9.1-1.3-18.3-2.8-27.4-4.1-1.8-.3-1.6-1.4-1.6-2.6.3-20.2.7-40.4.8-60.6.1-17.3-.2-34.5-.5-51.8a80,80,0,0,0-1.7-13.9,9.27,9.27,0,0,0-8.6-7.9c-.6-.1-1.2-.3-1.9-.4-1.8-.3-2.4-1.3-2.4-3.1s1.1-2.2,2.5-2.5c13.5-2.6,26.9-5.2,40.4-7.7a21.58,21.58,0,0,1,2.8-.2v49.5c1.3-.5,2.3-.8,3.2-1.2,10.2-4.5,20.9-5.9,31.7-2.8,13.2,3.8,21.3,13.2,26.4,25.6,3.9,9.4,4.5,19.3,4,29.4a64,64,0,0,1-6.5,26.1c-7.8,15.3-20.5,24.1-37.1,27.4-3.9.8-7.9.7-11.9,1.1-.9.1-1.8.3-2.7.4A18.48,18.48,0,0,0,342.3,498.2ZM337.5,444h0c.1,8.6,0,17.1.1,25.7,0,5.4.2,10.8.4,16.3.1,3,.6,3.5,3.5,3.7a30.09,30.09,0,0,0,6-.1c6.4-1,10.5-5.1,13.7-10.4,5.5-9.2,8-19.4,8.7-30.1a142.65,142.65,0,0,0,0-17.3,47.81,47.81,0,0,0-6.3-22.4c-5.5-9.5-13.4-12.5-23.9-9.5a2.5,2.5,0,0,0-2.2,2.8Z" transform="translate(1.3 -342.8)"/><path class="cls-1" d="M-1,345.3H18.2c33.2,0,66.3.1,99.5.1,1.6,0,2.3.5,2.3,2.2.2,12.7.5,25.4.8,38.1,0,1.6-.3,2.4-2,2.8-5.2,1.4-5,1.4-7.3-3.6a117.2,117.2,0,0,0-7.6-15c-5-7.9-12.5-12.6-21.9-13-8.7-.4-17.5-.1-26.7-.1-1.3,19.6-1.3,39.3-1.2,58.8.2.2.3.4.4.4,6.3-.3,12.7-.2,19-.9a10.88,10.88,0,0,0,8.5-6.3,94,94,0,0,0,4.4-11.5c.4-1.3,1-1.9,2.3-1.9,1.5,0,3-.2,4.7-.3,0,.9.1,1.6.1,2.2v46.4c0,1.9-.4,2.5-2.4,2.3-4.1-.4-4-.3-5.3-4.3a61.41,61.41,0,0,0-3.6-8.9,12.57,12.57,0,0,0-10.9-7.2l-15.4-.9c-1.5-.1-2,.5-1.9,2,.5,13.8.8,27.6,1.4,41.5a47.37,47.37,0,0,0,2,9.8c1.6,5.6,5.4,8.9,11.3,9.5,2.1.2,4.2.7,6.3,1.1,1.9.4,2.4,1.8,2.1,4.6-.2,1.8-1.3,1.7-2.6,1.7H1.5c-1.7,0-2.2-.8-2.6-2.1v-2.1a3.54,3.54,0,0,1,3.3-2.5c1.5-.2,2.9-.6,4.4-.8,5.7-.9,9.4-4.3,11-9.8a50.92,50.92,0,0,0,1.9-10.2c.6-9.5,1.1-19.1,1.2-28.6.1-18.8-.1-37.5-.4-56.3a105.89,105.89,0,0,0-1.7-15.9c-1.2-7.1-4.7-12.5-12.6-13.7-1.5-.2-3.1-.5-4.7-.6-1.4-.1-2.1-.6-2.1-2.1a18.81,18.81,0,0,0-.5-3.3A2.71,2.71,0,0,0-1,345.3Z" transform="translate(1.3 -342.8)"/><path class="cls-1" d="M156.1,498.2c-1.5-.2-3.1-.4-4.6-.5-19.4-1.1-33.2-10.6-41-28.3-4.8-10.8-5.8-22.3-4.8-34.1.9-11.5,4.4-22,11.7-31.1,8.7-10.9,20-16.9,33.7-18.5a60.27,60.27,0,0,1,27,2.5c12.5,4.3,21.6,12.6,26.6,24.7,7.6,18.4,8.1,37.1.1,55.4-7,16.1-19.7,25.5-36.8,28.8a64.83,64.83,0,0,1-7.6.6c-1.3.1-2.5.3-3.8.4A1.09,1.09,0,0,1,156.1,498.2ZM138,441.4c.1,2.2.3,5.6.4,9.1a78.8,78.8,0,0,0,3.9,23.1c1.6,4.8,3.6,9.5,7.4,13.1a12.34,12.34,0,0,0,17.5.1c4.1-3.8,6-8.7,7.4-14,1.9-7.3,2.4-14.9,2.7-22.4.5-11.6.1-23.1-2.3-34.4-1.5-7.1-4-13.8-9.4-19.1s-13.7-5.2-18.5.8a33.51,33.51,0,0,0-5.2,9.9C138.3,418.1,138.3,429.2,138,441.4Z" transform="translate(1.3 -342.8)"/><path class="cls-1" d="M463.9,498.2c-3.1-.3-6.2-.4-9.3-.9-18.8-3.2-31.6-13.9-38.9-31.3-3.6-8.6-4.1-17.6-4-26.8.2-13.4,4.2-25.5,12.7-36,8.3-10.3,19.4-15.8,32.5-17.5,7.7-.9,15.2-.7,22.6,1.9,12.1,4.3,19.5,13.1,23.7,24.9,2.4,6.8,3.3,14,3.8,21.1.2,2.9-.2,3.2-3,3.2-19.5.1-38.9.2-58.4.4-1.2,0-2.3-.1-2.2,1.7.3,8.6,1.4,17.1,5.6,24.8,6.2,11.3,15.5,17.6,28.7,18,8.2.2,15.8-1.4,22.7-6.1,1.2-.8,2.4-1.6,3.7,0s1.5,2.9.1,4.5a47.9,47.9,0,0,1-26.1,16.1c-3.9.9-8,1.1-12,1.6l-1.2.3A3.75,3.75,0,0,1,463.9,498.2Zm-15.2-69.7c8.6-.3,16.7-.6,24.7-.8,1.2,0,1.7-.4,1.6-1.6-.5-5.3-.8-10.6-1.6-15.9-.7-4.8-2-9.5-5-13.4s-7.6-5-11.7-2.2a23.25,23.25,0,0,0-6.1,6.4c-4.5,7.3-6,15.6-6.9,24-.4,3.6-.2,3.6,3.5,3.5Z" transform="translate(1.3 -342.8)"/><path class="cls-1" d="M548.9,497.6c-10.9.8-21.4-1.5-31.8-4.6-2.2-.7-3.2-1.7-3.3-4.1-.1-9.1-.3-18.2-.6-27.4-.1-2.2,1.6-2.1,2.9-2.4s2.6-.3,3.2,1.5c2.5,6.8,5.7,13.2,10.5,18.7,6.3,7.1,14.2,9.4,23.2,7.5,6.2-1.3,10.2-5.5,11.5-11.9,1.4-6.7-.6-12.3-6.7-15.7a178.07,178.07,0,0,0-17.1-8.1c-6.7-2.9-13.4-5.6-18.4-11.2a27.73,27.73,0,0,1-6.9-16.6c-1.9-20.2,13.1-34,30.1-36.9,13.7-2.3,27.1-.8,40.2,3.6a3.19,3.19,0,0,1,2.6,3.5c.1,7.9.2,15.8.5,23.7.1,2.3-1.5,2.5-2.9,2.9-1.6.5-2.5-.2-3.1-1.7-1.9-4.2-3.6-8.6-5.9-12.6-3.6-6.4-9-10.7-16.6-11.9-9-1.5-16.4,4.5-17,13.6-.4,5.7,1.8,10.2,6.4,13.1,4.9,3.1,10.2,5.6,15.4,8.3,5.9,3.1,11.9,5.7,17.6,9.1a22.26,22.26,0,0,1,10.7,15.4c3.6,18.8-4.3,34.8-23.4,41.6C563.2,497.5,556.2,497.9,548.9,497.6Z" transform="translate(1.3 -342.8)"/><path class="cls-1" d="M256.9,385.2c-.3,7.6-.5,14.7-.8,21.9.2.1.3.1.5.2l1.2-1.8c3.4-6,7.3-11.4,13-15.3a27.47,27.47,0,0,1,24.2-3.9,10.2,10.2,0,0,1,2.2.9c1.4.6,1.8,1.6,1.2,3.1-3.2,8.4-6.4,16.9-9.6,25.4-.6,1.6-1.3,1.8-2.9,1.2a80.7,80.7,0,0,0-11.7-4,22.21,22.21,0,0,0-15.1,2.4,5.54,5.54,0,0,0-3.2,5.3c0,9.3-.4,18.5-.3,27.8.2,9.5.7,18.9,1.3,28.4a24.43,24.43,0,0,0,1.2,5.2c1.4,4.7,5.2,6.1,9.5,6.5,1.2.1,2.4.3,3.6.5,1,.2,2.7.4,2.8.8a15.46,15.46,0,0,1-.1,4.8c0,.3-1.3.5-2,.5-9,.1-18,.1-27,.1-10.7,0-21.4-.1-32.1,0-1.9,0-2.5-.7-2.4-2.5s-.3-3.7,2.7-4c9.4-1,11.3-6.1,11.5-13.6.4-19.1.4-38.2.5-57.3a47.13,47.13,0,0,0-1.3-9.9c-.9-4-3.2-6.8-7.5-7.4-1.1-.2-2.2-.6-3.3-.7-1.6-.2-2.7-.6-2.7-2.5s.8-2.8,2.7-3.1c7.9-1.5,15.7-3.2,23.6-4.8C243.2,387.8,249.9,386.6,256.9,385.2Z" transform="translate(1.3 -342.8)"/></svg>