<?xml version="1.0" encoding="utf-8"?>
<!-- Generator: Adobe Illustrator 23.0.0, SVG Export Plug-In . SVG Version: 6.00 Build 0)  -->
<svg version="1.1" id="图层_1" xmlns="http://www.w3.org/2000/svg" xmlns:xlink="http://www.w3.org/1999/xlink" x="0px" y="0px"
	 viewBox="0 0 255.56 576.35" style="enable-background:new 0 0 255.56 576.35;" xml:space="preserve">
<style type="text/css">
	.st0{fill:none;stroke:#FFFFFF;stroke-width:3.4384;stroke-linecap:round;stroke-linejoin:round;stroke-miterlimit:10;}
	.st1{fill:none;stroke:#FFFFFF;stroke-width:2.0013;stroke-linecap:round;stroke-linejoin:round;stroke-miterlimit:10;}
	.st2{fill:none;stroke:#FFFFFF;stroke-width:2;stroke-linecap:round;stroke-linejoin:round;stroke-miterlimit:10;}
	.st3{fill:none;stroke:#FFFFFF;stroke-width:3.4955;stroke-linecap:round;stroke-linejoin:round;stroke-miterlimit:10;}
	.st4{fill:none;stroke:#FFFFFF;stroke-width:2;stroke-miterlimit:10;}
	.st5{fill:none;stroke:#FFFFFF;stroke-width:3.9287;stroke-linecap:round;stroke-linejoin:round;stroke-miterlimit:10;}
	.st6{fill:none;stroke:#FFFFFF;stroke-width:3.8798;stroke-linecap:round;stroke-linejoin:round;stroke-miterlimit:10;}
	.st7{fill:none;stroke:#FFFFFF;stroke-width:3.8798;stroke-miterlimit:10;}
	.st8{fill:none;stroke:#424447;stroke-width:2.8346;stroke-miterlimit:10;}
	.st9{fill:none;stroke:#FFFFFF;stroke-width:3.6905;stroke-linecap:round;stroke-linejoin:round;stroke-miterlimit:10;}
	.st10{fill:none;stroke:#434547;stroke-width:2.4094;stroke-miterlimit:10;}
</style>
<g>
	<path class="st5" d="M192.13,457.52c0,0,25.2,17.35-7.17,27.31c-32.37,9.96-27.16-3.22-12.96-7.34s25.33,0.34,18.42,21.29
		s-50.39-2.87-46.93,21c3.45,23.87-6.8,37.56,2.79,46.49c9.6,8.93,30.32,10.48,46.44,4.64s7.69-23.47-15.72-19
		s-21.83,6.04-17.6-0.13c4.12-6.01,6.27-4.72,16.06-6.44c9.79-1.72,16.09-1.01,14.56-14.57s-6.86-22.62-2.83-26.74"/>
	<path class="st5" d="M47.21,227.4c-12.22-12.85-7.39-24.26-7.39-24.26c6.78,3.7,4.23,2.89,6.4,20.73
		c0.55,4.54,6.17,12.66,4.18,19.07c-9.1,29.24-10.35,42.2-9.51,65.13c0.94,25.33-28.78-3.04-36.51-21.59
		c-7.73-18.55,5.08-28.23,9.71-51.93s1.67-32.1,9.33-37.53c8.84-6.27,7.1-14.85,10.7-21.72s43.32-18.44,51.4-21.25
		c9.93-3.46,9.94-17.4,9.33-24.16"/>
	<path class="st5" d="M95.09,140.66c0,0-0.14-16.72-6.93-25.21c-24.5-30.63-2.19-17.8,15.77-15.21c17.96,2.59,19.34-6.7,28.28-24.98
		c9.74-19.92,27.06-9.22,20.45-4.61c-8.58,5.98-16.56,18.31-17.07,31.81c-0.29,7.6,4.18,19.52-6.3,18.08
		c-5.34-0.73-26.13-3.41-34.19-0.98C76.7,125.12,69.8,105.44,63.2,80.3s-2.93-44.19,12.31-61.38c11.66-13.16,35.81-18.2,54.35-16.7
		s38.75,13.57,47.01,30.32s-14.82,10.64-14.82,10.64s10.23,4.6,10.51,20.09c0.28,15.24-13.22,40.63-19.97,41.39
		s-3.9-18.08,3.03-21.43c6.93-3.34,18.12-1.13,17.14,13.07s-2.16,20.49-15.07,31.43c-4.95,4.2-6.74,9.96-7.07,15.47
		c0,0-1.03,7.29,3.56,12.04c4.68,4.85,14.09,3.23,14.09,3.23c11.98-3.99,43.53-1.61,54,16.6c10.48,18.2,7.52,23.01,16.93,39.5
		s6.44,28.85,4.55,36.92c-1.89,8.07-25.42,13.74-29.19,11.51c-3.78-2.23,5.86-7.31,20.24-9.59c14.38-2.28,12.56,41.02,13.42,64.37
		c0.86,23.36-2.06,18.38,3.61,30.4c5.67,12.02-3.09,24.04-13.74,29.37c-10.65,5.32-17,9.27-14.77-5.5
		c2.23-14.77-1.2-14.77-1.2-14.77s-8.59,17-11.16,9.96c-2.58-7.04,3.78-16.14,7.9-27.13s-4.46-10.82-6.87-20.61
		c-2.4-9.79-0.72-14.21-1.98-29.43c-0.52-6.27,0.1-40.6-9.95-52.83c-2.99-3.64-7.55-6.44-9.66-18.29
		c-0.72-4.06,0.47-14.71,6.05-5.41c3.86,6.44,1.35,13.38,2.82,33.05c1.81,24.18,4.3,67.26,1.78,75.73
		c-3.74,12.56-21.41,17.44-31.71,14.35c-9.02-2.7-5.34-9.54,8.15-9.72c9.57-0.13,19.2,3.18,21.01,11.59
		c6.24,29.05,11.61,92.88,10.79,116.97c-1.03,30.22-4.15-14.86-66.97,0c-39.26,9.28-15.08,1.17-15.77-18.41
		c-0.07-2.12,34.81-6.62,34.59-9.68c-0.17-2.47-37.29-2.17-37.52-5.09c-2.17-27.05-4.53-70.44,0.17-76.8
		c5.84-7.9,30.57,1.37,15.11,4.81c-14.44,3.21-57.9-3.4-88.97-12.39c-2.4-0.69-11.19-1.58-11.38,6.62
		c-0.18,7.93,6.47,21.52,5.3,27.66c-7.34,38.65-8.74,91.63-5.31,105.36s-6.67-8.47,31.8-7.44c38.47,1.03,65.93-0.06,46.01-4.53
		s-20.59-11.96-15.79,13.11c4.81,25.07,4.81,46.02,2.06,56.67s-30.22,6.87-16.49,0s25.85-0.5,30.22,6.64
		c3.81,6.22,10.65,23.24-14.43,28.73c-25.07,5.5-54.27-1.03-40.53-9.62s14.77-9.27,12.36-25.07c-2.4-15.8-16.39-26.11-17.17-51.18
		c-0.23-7.32-0.54-10.7,3.25-14.38"/>
	<path class="st5" d="M52.22,305.81c4.04,39.43,67.83,31.52,87.22,28.56c19.39-2.95,14.71-34.67,9.56-72.23
		c-4.95-36.08-14.03-40.07-24.31-45.02c-10.27-4.95-33.1-4.68-44.62,9.32c-11.52,14-19.45,63.12-20.81,84.86
		c-1.13,18.04,1.38,29.83,15.86,32.89c11.28,2.38,13,4.4,55.12,6.31c42.12,1.91,44.05-19.55,45.1-33.18
		c2.11-27.64,0.73-66.54-15.88-96.05s-10.17-38.13-7.13-46.18s19.87-22.53,19.87-22.53c-7.58-4.11-20.35,0.71-34.1,8.98
		c-13.75,8.27-20.4,10.59-27.43,9.7c-7.03-0.89-16.27-14.29-22.21-17.51c-11.46-6.2-22.58,0.34-22.58,0.34s18.85,15.79,10.14,29.59
		c-9.67,15.33-21.47,34.05-22.76,45.23c-1.29,11.18-14.14,45.65-12.17,66.96s2.85,51.3,20.25,57.98c17.4,6.68,80.62,9.03,95.55,5.35
		c19.85-4.89,28.32-12.38,31.2-45.53s-1.15-87.56-24.38-113.05s-57.21-25.11-76.8-10.51c-19.59,14.6-26.89,44.13-31.44,68.93
		C55.47,259.02,50.54,289.34,52.22,305.81z"/>
</g>
</svg>
