<svg id="图层_1" data-name="图层 1" xmlns="http://www.w3.org/2000/svg" viewBox="0 0 1921.88 616.95"><defs><style>.cls-1{fill:none;stroke:#424447;stroke-miterlimit:10;stroke-width:2.83px;}</style></defs><title>2021 1202- 切图</title><path class="cls-1" d="M1921.3,123.9s-261-116.38-651.67,133c-337,215.07-768.06,331.67-997.33,193.34C54.63,318.85,1.3,195.52,1.3,195.52"/><path class="cls-1" d="M1921.3,110.3S1660.63,5.41,1272.45,256.35c-34.65,22.39-70.3,44.08-106.64,64.92C845.71,506.39,485.86,581.64,279.72,467,62.61,345.76,1.3,223.67,1.3,223.67"/><path class="cls-1" d="M1921.3,96.71s-260.33-93.4-646,159.13c-34.34,22.47-69.71,44.48-105.66,66.25C845.47,518.44,494,589.11,287.14,483.77,70.58,372.66,1.3,251.82,1.3,251.82"/><path class="cls-1" d="M1921.3,83.11s-260-81.91-643.22,172.22c-34,22.55-69.09,45-104.69,67.59C845.63,531.2,502,596.58,294.56,500.56,78.56,399.57,1.3,280,1.3,280"/><path class="cls-1" d="M1921.3,69.51S1661.64-.91,1280.9,254.82c-33.72,22.63-68.46,45.46-103.73,68.92C845.86,544.1,509.91,604.52,302,517.35,86.33,427,1.3,308.11,1.3,308.11"/><path class="cls-1" d="M1921.3,55.91S1662-3,1283.71,254.31c-33.4,22.71-67.81,46-102.75,70.25C846.19,557.14,518,612,309.4,534.14,94.32,453.87,1.3,336.26,1.3,336.26"/><path class="cls-1" d="M1921.3,42.31s-259-47.44-634.77,211.5c-33.09,22.78-67.16,46.5-101.79,71.58C846.61,570.3,526.12,619.44,316.82,550.94,102.33,480.74,1.3,364.41,1.3,364.41"/><path class="cls-1" d="M1921.3,28.72s-258.66-35.95-632,224.58c-32.77,22.86-66.49,47-100.81,72.91C847.13,583.59,534.35,626.46,324.24,567.73,110.46,507.18,1.3,392.56,1.3,392.56"/><path class="cls-1" d="M1921.3,15.12S1663-9.34,1292.16,252.79q-48.69,34.41-99.84,74.24C848.14,597.49,542.43,633.93,331.65,584.52,118.44,534.08,1.3,420.71,1.3,420.71"/><path class="cls-1" d="M1921.3,1.52s-305-15.33-725.2,326.33C498.85,894.8,1.3,448.85,1.3,448.85"/></svg>