<?xml version="1.0" encoding="utf-8"?>
<!-- Generator: Adobe Illustrator 23.0.0, SVG Export Plug-In . SVG Version: 6.00 Build 0)  -->
<svg version="1.1" id="图层_1" xmlns="http://www.w3.org/2000/svg" xmlns:xlink="http://www.w3.org/1999/xlink" x="0px" y="0px"
	 viewBox="0 0 110.14 88.78" style="enable-background:new 0 0 110.14 88.78;" xml:space="preserve">
<style type="text/css">
	.st0{fill:none;stroke:#434547;stroke-width:1.0935;stroke-miterlimit:10;}
	.st1{fill:none;stroke:#FFFFFF;stroke-width:4.656;stroke-linecap:round;stroke-linejoin:round;stroke-miterlimit:10;}
	.st2{fill:none;stroke:#FFFFFF;stroke-width:3.8204;stroke-linecap:round;stroke-linejoin:round;stroke-miterlimit:10;}
	.st3{fill:none;stroke:#FFFFFF;stroke-width:3.6805;stroke-linecap:round;stroke-linejoin:round;stroke-miterlimit:10;}
	.st4{fill:none;stroke:#FFFFFF;stroke-width:4.2437;stroke-linecap:round;stroke-linejoin:round;stroke-miterlimit:10;}
</style>
<path class="st3" d="M26.83,62.51c0,0-14.63-9.56-22.5,0.33c-7.95,9.99,4.72,23.24,16.24,15.45S45.3,26.12,48.03,7.27
	c0.22-1.55,0.88-6.48-3.42-5.24c-3.42,0.98-1.58,4.27,4.85,5.51c5.78,1.12,48.43,5.29,57.3,3.36c1.01-0.22,1.79-1.13,1.46-2.28
	c-0.68-2.35-4.71-1.58-6.01,2.18c-1.51,4.39-0.46,11.57-7.8,12.96c-6.56,1.24-30.48-3.59-40.89-3.2c-1.03,0.04-1.69,0.42-2.12,1
	c-0.47,0.63-1,4.16-1.01,4.46c-0.04,1.04,0.87,1.37,2.74,1.82c1.37,0.33,2.91,0.46,5.66,0.7c7.61,0.67,19.04,1.94,30.42,2.86
	c1.76,0.14,6.49,0.23,5.22,4.76c-1.5,5.36-12.69,40.86-21.47,47.99c-8.54,6.94-22.41-0.22-19.23-9.61
	c2.34-6.91,11.06-13.57,23.81-6.48"/>
</svg>
