<?xml version="1.0" encoding="utf-8"?>
<!-- Generator: Adobe Illustrator 23.0.0, SVG Export Plug-In . SVG Version: 6.00 Build 0)  -->
<svg version="1.1" id="图层_1" xmlns="http://www.w3.org/2000/svg" xmlns:xlink="http://www.w3.org/1999/xlink" x="0px" y="0px"
	 viewBox="0 0 821.37 800.33" style="enable-background:new 0 0 821.37 800.33;" xml:space="preserve">
<style type="text/css">
	.st0{fill:none;stroke:#FFFFFF;stroke-width:3.6905;stroke-linecap:round;stroke-linejoin:round;stroke-miterlimit:10;}
</style>
<path class="st0" d="M493.87,721.57c-0.03-0.76,1.04-1,1.35-0.3c2.38,5.43,6.39,17.17,6.11,18.98c-0.39,2.47-9.3-0.49-9.2-2.35
	c0.1-1.85,1.49-3.49,12.05-2.8c9.58,0.63,177.68-2.09,205.9-2.12c2.04,0,3.5,1.92,2.93,3.85l-7.5,17.02c0,0-4.2,5.08-14.4,6.82
	c-10.48,1.78-15.2-4.49-7.98-6.49c7.18-2,13.39,4.04,9.12,11.56c-2.01,3.53-14,6.19-17.73-2.53c-0.82-1.91-1.08-3.95-1.24-8.19
	l-145.98,0.86c0,0-0.28,2.57-2.09,5.78c-1.34,2.38-4.83,3.32-6.92,1.35c-1.7-1.61-0.75-7,1.68-6.43c3.6,0.85,10.91,0.39,10.08,8.48
	c-0.86,8.34-12.48,7.08-16.98,4.9c-5.12-2.48-0.16-13.98-4.17-13.44c-4.02,0.54-12.76,0.99-14.13-7.31
	C494.14,745.52,494.13,729.2,493.87,721.57z"/>
<path class="st0" d="M694.15,660.3c3.42,1.67,4.69,6.2,5.56,8.59c4.03,11.09,17.18,50.88,8.72,51.96s-167.4-0.39-205.73-1.53
	c-4.24-0.13-7.19-4.18-5.97-8.17l15.81-43.49c1.34-3.68,4.64-6.31,8.57-6.83c15.99-2.13,59.59-7.09,104.68-4.76
	c39.31,2.03,47.91,1.84,54.63,2.18C688.85,658.67,690.22,658.38,694.15,660.3z"/>
<path class="st0" d="M677.57,660.39c-16.51,5.12-55.48,10.12-55.9,12.89c-0.73,4.88-1.28,13.31-1.28,13.31l-5.05-8.16l0.42-8.3
	c0.45-2,1.98-3.6,3.98-4.17l62.37-16.23c3.69-0.96,7.32,1.7,7.45,5.45l0.54,15.74l-12.1,0.45L677.57,660.39z"/>
<path class="st0" d="M596.42,678.18c-6.17,0.22-17.7,1.85-24.91,3.33c-13.83,2.84-16.11,8.33,4.5,12.64
	c10.38,2.17,37.1,5.27,62.3-3.76c8.22-2.95,14.21-8.42,1.62-13.82c-17.24-7.39-49.2-5.85-59.07-4.74
	c-9.94,1.13-33.59,3.33-37.7,13.32c-3.75,9.12,12.61,15.38,26,17c41.73,5.03,70.37-2.14,81.29-8.45c8.34-4.82,11.07-12.4,3.32-18.6
	c-7.44-5.94-24.78-10.95-61.35-9.77c-33.61,1.09-48.06,6.05-54.62,9.47c-6.58,3.44-15.77,11.78-2.65,22.58
	c14.08,11.6,52.08,15.73,95.53,10.66c46.84-5.47,39.63-26.75,36.66-31c-3.84-5.49-7.96-8.71-15.15-10.79"/>
<g>
	<path class="st0" d="M318.29,480.25c2-18.45-13.03-74.42-16.71-87.81c-0.72-2.61-2.87-4.39-2.83-2.54
		c0.17,7.75-3.39,18.54-17.39,13.4c-3.41-1.25-5.08-6.38-5.38-9.49c-0.47-4.9,1.98-8.27,3.35-9.15c2.72-1.75,3.24-0.55,2.27,17.91
		c-0.64,12.21-8.43,51.46-5.45,85.09"/>
	<path class="st0" d="M282.94,631.29c-15.36,1.41-8.44,12.98,4.01,15.58c12.94,2.7,45.67,6.03,45.13,13.78
		c-0.45,6.42-16.07,5.1-36.64,2.53c-15.97-2-10.18-8.52,3.11-5.66c9.99,2.15,35.61,7.78,35.68,13.98
		c0.07,6.03-33.79,3.47-45.02,1.09c-6.27-1.33-4.72-6.13-0.05-5.82c4.22,0.28,4.14,0.38,18.5,4.38c21.59,6.01,6.4,13.8-19.75,11.55
		c-52.16-4.5-51.63-17.37-66.89-32.81c-7.59-7.69-14.19,11.51-10.55,20.44c6.05,14.85,26.51-12.47,28.08-29.48
		s-4.89-9.51-49.22-0.54c-24.15,4.89-22.74,16.75-17.69,21.04c0.79,0.68,1.29,1.1,3.43,2.81c10.31,8.29,37.7,31.6,41.16,15.43
		c3.96-18.48,28.24-66.7,28.24-66.7c-42.23-14.76-83.62-41.25-86.13-73s0-58.15-2.93-88.66c-2.93-30.52-18-53.82-10.46-68.35
		s45.9-18.8,68.83-31.17c0,0,8.89-4.39,15.11-7.09c3.48-1.51,5.07,1.28,5.8,4.02c0.57,2.17,5.56,34.54,7.86,42.54
		c8.31,28.93,34.7,99.72,47.37,133.31c4.22,11.2-3.43,11.15-11.02,0.46c-10.7-15.07-24.7-35.92-38.96-55.52
		s-29.16-33.81-32.21-40.41c-7.16-15.47-7.08-14.75,8.56-21.77c15.64-7.03-1.19-12.21-15.34-15.42s-12.62-6.42-6.31-10.04
		c3.08-1.76,14.47-9.37,23.62-18.48c6.61-6.58,10.9-11.02,13.86-14.07c10.14-10.41,12.75,2.55,12.75,2.55l13.53,49.48
		c0,0,9.61-6.62,15.59-15.04c13.47-18.97,13.94-16.7,25.4-4.29s19.78,20.36,19.78,20.36s7-23.59,10.22-40.16
		c0.59-3.04,1.61-12.01,1.5-13.37c-0.4-5.18-3.75-4.22-6.48-2.42c-6.62,4.36-6.37,2.7-19.6,11.06c-21.81,13.78-32.62,1.73-40.61-5.4
		c-4.55-4.07-21.07-17.32-21.07-17.32s1.62-3.24,3.73-19.09c2.18-16.43-1.7-24.1-10.32-29.36c-4.76-2.9-12.2-11.36-13.61-19.4
		c-1.4-8.04-5.74-16.71,5.73-18.3c7.22-1,9.26,18.69,11.37,27.62c0.61,2.59,3.36,8.68,5.15,12.65c0,0-16.39,5.52-19.64-23.14
		c-2-17.61,8.56-11.09,7.7-14.41"/>
	<path class="st0" d="M387.36,592.17c3.35-20.94,6.16-35.52,1.28-55.57c-9.57-39.36-4.11-68.73,0.11-89.92
		c4.22-21.19,0.98-32.08-7.03-18.78c-8.02,13.3-50.32,72.04-65.14,89.33c-22.22,25.93-23.18,25.5-2.68-25.53
		c20.76-51.69,24.62-90.75,22.98-121.28c-0.29-5.41-2.72-27.8,13.5-12.9c8.05,7.4,14.37,9.95,19.66,13.29
		c3.09,1.95,14.48,9.43-1.2,9.38c-17.1-0.06-26.37-3.53-13.71,6.65s19.3,4.46,10.65,36.88c-8.65,32.41-19.54,61.87-35.43,88.47
		c-15.88,26.6-26.38,28.13-42.91,38.5c-14.24,8.94-22.63,24.17-22.74,73.65c-0.11,50.44,4.15,81.9-1.75,101.21
		c-6.92,22.66-67.76,15.59-101.97,12.97c0,0,3.23-31.59,2.4-63.55c-0.84-31.96-3.77-27.42-42.71-55.05S79.21,570,90.1,545.26
		s11.85-51.83,22.31-104.2s21.31-56.99,21.31-56.99s34.26,18.09,38.45,61.8s5.86,106.81-16.33,112.99
		c-22.19,6.19-53.59,5.98-59.87,10.72s1.26-12.27,15.49-14.79c14.24-2.53,39.77,14.61,79.98,41.58s42.14,23.96,51.86,23.22
		c15.86-1.22,29.28-1.25,47.68-1.24"/>
	<path class="st0" d="M332.08,660.64c0,0,6.23,0.36,17.58,0.67"/>
	<path class="st0" d="M277.1,642.07c1.21-1.94,7.86-14.8,9.36-17.02c24.58-36.15,20.1-35.53,38.73-35.85
		c17.4-0.29,43.27,1.45,76.58,3.77c4.69,0.33,9.55,3.74,4.19,14.2c-3.97,7.73-9.76,18.11-11.71,24.11c-1.78,5.48,3.28,5.73,6.1,1.81
		c4.3-5.99-2.45-4.35-7.48-4.08c-7.59,0.42-12.84-2.47-26.36-3.66c-13.52-1.2-11.3,5.03-2.06,10.34s27.33,10.37,30.88,9.96
		c4.98-0.57,3.06-4.99-4.86-6.8c-7.92-1.81-21.96-4.93-33.07-3.6c-5.69,0.68-8.8,4.73-4.03,7.86s24.89,10.91,33.67,12.12
		c4.75,0.65,3.86-1.99,2.15-3.3s-21.78-6.7-31.01-5.49c-8.8,1.16-10.24,4.31-1.48,9.77s23.67,9.04,24.38,6.62
		c0.71-2.41-12.18-4.76-19.26-5.45c-9.01-0.89-15.93,0.58-10.94,5.32c5.96,5.66,29.29,9.19,36.31,9.19
		c20.04,0,21.29-6.38,25.03-14.67c0,0-18.03,3.48-10.26,8.18c7.1,4.29,20.75,1.56,20.75,1.56c26.48-33.28,26.61-78.63,27.33-84.25
		c1.87-14.55,7.75-13.06,6.66-26.03c-0.16-1.93-40.63,1.31-40.94-0.99c-0.41-2.99,41.32-8.11,40.61-11.83
		c-0.72-3.79-31.98,1.09-33.07-3.55c-0.22-0.94,24.05-8.56,32.92-10.99c3.83-1.05,6.74-0.22,5.07,4.81
		c-3.93,11.8-9.08-10.57-9.59-13.79c-4.42-27.68-12.09-61.02-11.8-71.32c0.26-9.32-5.31-55.24-17.23-68.76
		c-1.65-1.87-32,0.72-14.48,12.7c2.76,1.89,7.51-18.14-1.23-21.78c-36.27-15.13-65.8-29.64-75.45-34.63s-16.28-4.78-29.41-1.66
		s-21.68,2.91-34.82-7.48c-9.38-7.42-10.63-17.22-6.01-13.82c4.93,3.63,12.27,14.93,38.71,14.96c10.46,0.01,25.17-10.24,32.02-28.66
		c9.12-24.53,1.64-38.4,4.98-60.73s9.09-17.29,3-37.83s-18.24-6.09-23.86-16.36s-6.59-13.68-44.28-8.99s-47.28,25.6-46.14,49.1
		c1.22,25.06,6.31,20.67,6.31,20.67c0.64-9.35,0.36-17.51,8.08-32.02c7.73-14.51,32.77-14.06,47.05-4.23
		c14.28,9.82,19.87,6.74,30.4-2.86s15.35,0.68,16.8,5.74c2.65,9.22,2.63,19.65,2.63,19.65s-1.7,5.14,1.64,8.32
		s10.71-0.33,10.01,9.54c-0.7,9.87-1.05,13.4-1.23,18.75c-0.18,5.36-7.14,8.38-10.48,10.39"/>
</g>
<path class="st0" d="M284.93,645.24c0,0,24.58-46.11,36.2-47.7c11.62-1.58,71.88,2.09,77.28,3.42c2.77,0.68-11.34,27.2-11.34,27.2"
	/>
<path class="st0" d="M278.55,581.3c0,0,3.26,4.37,8.45,4.28c3.4-0.06,6.42-0.09,8.95-4.06c3.95-6.22-0.24-10.08-3.39-10.26
	c-8.2-0.47-15.76,3.63-16.12,24.86c-0.55,32.74,2.71,97.47,4.89,123.22c1.98,23.41,41.2,20.9,82.72,19.41
	c4.13-0.15,7.56-27.32,11.7-27.46l6.42,26.73l20.57-1.03l-7.2-65.08"/>
<path class="st0" d="M1.85,793.81l153.86,1.94c0,0,14.06,0.65,15.12-19.12c1.53-28.42,2.97-62.93-2.59-48.09
	c-5.57,14.84-5.49,28.66-6.95,47.48c-0.35,4.57-2.31,13.28,16.03,13.93c18.34,0.65,84.18,0.92,84.18,0.92s3.83-3.95,3.34-19.27
	s3.19-55.38,10.89-35.55s6.81,37.02,5.36,48.9c-0.18,1.47-3.28,16.45-5.57-2.26s1.47-41.45,3.28-51.94
	c1.8-10.48,25.3-22.5,4.42-17.78c-20.88,4.72-9.42-7.34-3.28-13.15"/>
<path class="st0" d="M399.26,737.15l1.14,61c0,0-8.32,3.75-9.02-13.8c-0.64-16.03,2.06-18.25,14.26,0.38
	c1.6,2.44,5.2,9.36,24.72,9.36c7.44,0,18.28,0.01,22.37,0.07c13.17,0.18,258.16-2.06,258.16-2.06"/>
<path class="st0" d="M257.81,494.66l-34.67-46.19l-35.12-1.56v8.94l40.75,2.29l-40.75,2.87l1.04,67.29c0,0,14.45,1.89,18.36,1.88
	c3.78-0.01,18.74-2.51,25.03-2.82c6.68-0.32,26.73,0.94,26.73,0.94L257.81,494.66"/>
<ellipse class="st0" cx="596.97" cy="684.56" rx="16.66" ry="6.39"/>
<path class="st0" d="M554.64,198.04c-7.27,0.45-20.14,2.33-20.35-5.26c-0.23-8.25,0.78-14.28,3.06-32.89
	c1.42-11.55,13.08-15.33,19.3-19.39c5.57-3.63,10.23-7.24,12.29-9.47c2.89-3.13,4.16-9.07-1.02-9.93c-3.17-0.53-6.93-0.3-8.29-0.17
	c-2.44,0.22-4.61,2.66-5.77,6.8c-0.59,2.1-1.94,3.16-2.49,3.01c-0.55-0.15-1.57-0.57-1.74-5.19c-0.23-6.23,1.78-8.13,1.78-8.13
	s-0.38,4.02-4.62,9.96c-4.24,5.94-9.16,1.68-7.62-4.6c0.49-2,1.57-3.85,3.26-5.26c2.61-2.16,5.68-1.93,5.63,0.79
	c-0.09,4.77-4.57,8.36-9.81,10.67c-7.24,3.19-11.95,2.59-12.17-2.78c-0.14-3.46,1.1-7.47,4.2-9.25c3.31-1.9,5.28,0.39,5.02,2.65
	c-0.26,2.25-1.49,5.56-5.47,8.59c-1.53,1.16-3.26,1.92-4.54,2.2c-3.4,0.74-6.02-1.77-6.59-6.44c-0.77-6.43,2.41-13.31,3.09-14.81
	c0.96-2.12,3.49-5.81,3.43-2.11c-0.06,3.69-6.17,19.63-11.24,23.26c-2.4,1.72-4.63,0.71-5.19-0.08c-1.01-1.42-1.35-4.16,0.28-7.64
	c1.61-3.44,3.36-4.7,4.69-5.2c1.64-0.62,3.3,0.67,2.57,2.63c-0.73,1.96-2.27,4.23-3.28,5.65c-5.16,7.23-11.79,7.23-13.06,6.57
	c-0.89-0.46-0.93-1.84-0.82-2.49c1.09-6.27,2.61-12.49,3.41-13.8c0.8-1.32,1.69-2.56,1.57-1.09c-0.13,1.49-0.9,3.09-1.33,4.07
	c-2.72,6.25-3.8,6.47-6.35,7.37c-1.11,0.39-2.46,0.68-4.76,1.41c-1.51,0.48-4.57,1.64-4.57,4.18c0,2.07,1.15,7.66,5.67,8.65
	c12.44,2.71,23.21,2.61,28.58,11.85c4.94,8.5,2.99,15.83,2.75,28.85c-0.31,17.62,2.23,15.86-4.43,16.24
	c-5.6,0.32-5.6,0.32-13.2,0.87c-4.25,0.31-12.13-0.75-11.12,10.46c1.37,15.13,0.65,20.43,6.59,30.41
	c6.38,10.72,24.89,10.45,30.05,8.97s21.81-4.18,23.34-34.08c0,0-0.87-20.38-1.4-27.52c-0.53-7.14,7.77-21.77,17.53-29.44
	c9.76-7.67,25.91-23.59,10.68-60.01c-15.23-36.42-61.59-28.33-74-24.6c-14.34,4.31-36.59,16.27-36.32,48.72
	c0.31,36.44,24.87,36.48,26.25,52.43c1.26,14.64,0.81,12.49,1.9,20.89c0.81,6.23-1.64,17.73,11.24,17.36
	c14.55-0.42,38.93-1.07,43.98-0.93c6.82,0.19,7.92,10.8-1.24,10.57c-5.58-0.14-24.22,0.55-33.18,1.05c-6,0.34-14.8,1.28-14.99,5.74
	c-0.23,5.35,12.88,4.61,20.61,4.16c1.83-0.11,7.78-0.74,10.76-0.39c2.92,0.34,3.95,2.18,4.09,3.99c0,0,0.73,3.99-4.77,4.29
	c-3.53,0.19-10.43,0-11.78,0.1c-5.17,0.38-11.21,0.22-16.22,0.15c-7.22-0.11-25.33,4.91-24.46,33.07c0,0,0.34,17-15.54,20.01"/>
</svg>
