<?xml version="1.0" encoding="utf-8"?>
<!-- Generator: Adobe Illustrator 23.0.0, SVG Export Plug-In . SVG Version: 6.00 Build 0)  -->
<svg version="1.1" id="图层_1" xmlns="http://www.w3.org/2000/svg" xmlns:xlink="http://www.w3.org/1999/xlink" x="0px" y="0px"
	 viewBox="0 0 70.28 139.72" style="enable-background:new 0 0 70.28 139.72;" xml:space="preserve">
<style type="text/css">
	.st0{fill:none;stroke:#434547;stroke-width:1.0935;stroke-miterlimit:10;}
	.st1{fill:none;stroke:#FFFFFF;stroke-width:4.656;stroke-linecap:round;stroke-linejoin:round;stroke-miterlimit:10;}
	.st2{fill:none;stroke:#FFFFFF;stroke-width:3.8204;stroke-linecap:round;stroke-linejoin:round;stroke-miterlimit:10;}
	.st3{fill:none;stroke:#FFFFFF;stroke-width:3.6805;stroke-linecap:round;stroke-linejoin:round;stroke-miterlimit:10;}
	.st4{fill:none;stroke:#FFFFFF;stroke-width:4.2437;stroke-linecap:round;stroke-linejoin:round;stroke-miterlimit:10;}
</style>
<path class="st2" d="M31.49,96.59c0,0-6.61-7.75-6.46-15.82c0.14-7.61,5.46-17.46,18-18.68C65.63,59.88,72.57,81.56,66,95.35
	c-7.43,15.59-32.03,24.74-50.36,2.45c-16.46-20.02-2.29-43.17,15.99-54.21c16.51-9.96,30.13-12.35,33.09-32.12
	C65.08,9.13,65.1,3,60.18,2.04c-5.97-1.16-8.25,5.48-9.93,10.71c-4.63,14.4-6.74,38.95-6.74,38.95s-1.55,35.13-2.22,46.83
	c-0.61,10.5-2.27,33.23-17.58,38.2c-12.63,4.1-23.65-4.26-21.54-12.51c1.51-5.91,5.58-7.24,8.13-7.51c2.22-0.24,5.29,0.72,6.89,3.03
	c4.45,6.42-2.62,14.16-9.22,11.42"/>
</svg>
