<?xml version="1.0" encoding="utf-8"?>
<!-- Generator: Adobe Illustrator 23.0.0, SVG Export Plug-In . SVG Version: 6.00 Build 0)  -->
<svg version="1.1" id="图层_1" xmlns="http://www.w3.org/2000/svg" xmlns:xlink="http://www.w3.org/1999/xlink" x="0px" y="0px"
	 viewBox="0 0 750 473" style="enable-background:new 0 0 750 473;" xml:space="preserve">
<style type="text/css">
	.st0{fill:none;stroke:#434547;stroke-width:1.0935;stroke-miterlimit:10;}
</style>
<path class="st0" d="M750.04,19.48c-42.45,9.57-64.74,39.73-90.85,73.7c-51.95,67.61-103.22,136.29-215.58,129.8
	c-110.85-6.4-186.59,26.91-232.62,71.94C171.79,333.28,85.24,424.08-0.09,472.22"/>
<path class="st0" d="M750.04,16.69c-2.13,0.4-4.22,0.85-6.28,1.34c-39.87,9.58-62.9,38.21-88.64,70.8
	c-17.89,22.66-35.53,45.83-55.22,66.33c-39.91,41.88-87.77,69.32-158.59,66.75c-58.93-1.94-109.16,4.15-151.05,17.91
	c-33.63,11.05-60.66,28.71-82.48,49.21c-41,38.4-121.35,124.35-207.87,172.13"/>
<path class="st0" d="M750.04,14.01c-3.08,0.5-6.11,1.08-9.09,1.73c-39.53,8.67-63.8,36.59-89.9,68.73
	c-18.08,22.29-35.81,45.42-55.15,66.22c-41.27,44.4-89.33,70.8-156.89,70.14c-57.38-0.56-107.77,3.52-151.13,15.39
	c-33.54,9.18-60.58,26.38-83.31,46.93C161.81,321.6,87.22,403.03-0.09,450.26"/>
<path class="st0" d="M750.04,11.41c-4.01,0.58-7.98,1.26-11.9,2.04c-39.18,7.84-64.71,34.97-91.16,66.67
	c-18.27,21.92-36.04,45.06-55.08,66.1c-42.53,47.02-90.9,72.43-155.18,73.53c-55.83,0.95-106.34,2.98-151.22,12.86
	c-33.42,7.36-60.5,24.05-84.15,44.64c-44.5,38.52-113.7,115.69-201.45,162.23"/>
<path class="st0" d="M750.04,8.87c-4.92,0.65-9.81,1.41-14.71,2.3c-38.82,7.02-65.61,33.35-92.41,64.6
	c-18.47,21.55-36.26,44.71-55.01,65.99c-43.76,49.67-92.47,74.11-153.47,76.92c-54.29,2.5-104.88,2.51-151.3,10.33
	c-33.29,5.61-60.43,21.72-84.98,42.35C151.97,309.96,87.8,383.11-0.09,428.84"/>
<path class="st0" d="M750.04,6.35c-5.77,0.74-11.6,1.58-17.52,2.53c-38.47,6.22-66.51,31.74-93.67,62.54
	c-18.66,21.18-36.46,44.37-54.94,65.88c-44.97,52.34-94.04,75.84-151.77,80.32c-52.75,4.09-103.42,2.13-151.38,7.81
	c-33.14,3.92-60.35,19.39-85.81,40.06c-47.83,38.66-107.29,108-195.03,152.82"/>
<path class="st0" d="M750.04,3.81c-0.45,0.06-0.91,0.12-1.36,0.18c-6.14,0.81-12.45,1.68-18.98,2.6
	c-38.1,5.49-67.41,30.12-94.93,60.47c-18.86,20.81-36.62,44.07-54.87,65.76c-46.05,55.11-95.6,77.62-150.06,83.71
	c-51.19,5.73-101.96,1.85-151.46,5.28c-33,2.29-60.27,17.07-86.64,37.78C142.31,298.32,87.28,364.05-0.09,407.87"/>
<path class="st0" d="M750.04,1.23c-7.27,1.04-14.98,2.06-23.15,3.07c-63.54,7.87-106.75,70.03-150.98,124.05
	c-93.11,113.72-196.22,87.61-299.9,89.85c-94.32,2.04-142.92,113.71-276.09,179.34"/>
</svg>
