<?xml version="1.0" encoding="utf-8"?>
<!-- Generator: Adobe Illustrator 16.0.0, SVG Export Plug-In . SVG Version: 6.00 Build 0)  -->
<!DOCTYPE svg PUBLIC "-//W3C//DTD SVG 1.1//EN" "http://www.w3.org/Graphics/SVG/1.1/DTD/svg11.dtd">
<svg version="1.1" id="图层_1" xmlns="http://www.w3.org/2000/svg" xmlns:xlink="http://www.w3.org/1999/xlink" x="0px" y="0px"
	 width="50.041px" height="793.504px" viewBox="275.449 29.595 50.041 793.504"
	 enable-background="new 275.449 29.595 50.041 793.504" xml:space="preserve">
<g opacity="0.8">
	<path fill="none" stroke="#383A3D" stroke-width="0.1" stroke-miterlimit="10" d="M325.369,29.757c0,0-2.599,0.82-7.055,10.56
		c-3.63,7.93-7.097,12.264-17.785,13.708c-19.113,2.583-20.512,17.334-10.689,21.667c3.221,1.421,7.032,2.62,9.822,4.623
		c5.635,4.042,8.957,10.978,4.334,17.623c-7.329,10.533-22.534,11.267-21.667,23.112c0.942,12.862,23.438,20.085,12.712,58.358
		c-12.712,45.358,23.653,36.457,19.645,78.582c-0.782,8.228-4.854,15.219-15.311,26.29c-14.744,15.605-8.96,39.132-0.494,54.533
		c8.465,15.401,12.471,46.337,5.396,69.104c-2.416,7.769-5.48,16.482-5.48,32.082c0,15.891,10.308,32.922,7.223,51.426
		c-3.756,22.533-20.224,34.957-21.668,61.246c-1.078,19.625,19.356,42.18,23.979,59.514s2.322,33.701-16.468,61.537
		c-23.4,34.668,22.823,46.225,0.867,72.516c-18.885,22.611-23.897,22.738-6.066,39.58c15.601,14.732,2.311,13,0.865,37.268"/>
	<path fill="none" stroke="#383A3D" stroke-width="0.1" stroke-miterlimit="10" d="M325.369,30.271c0,0-1.84,0.659-5.103,6.922
		c-0.536,1.034-1.108,2.19-1.719,3.49c-3.672,7.792-7.381,11.75-17.604,13.278c-19.054,2.852-20.302,17.005-10.784,21.636
		c3.105,1.505,6.873,2.814,9.706,4.854c5.703,4.1,9.274,10.825,4.545,17.458c-7.478,10.484-22.404,11.458-21.505,23.141
		c0.994,12.856,23.71,20.218,12.584,58.358c-13.321,45.551,24.054,36.431,19.741,78.518c-0.855,8.309-5.207,15.156-15.664,26.227
		c-14.744,15.606-8.704,39.259-0.24,54.66c8.129,14.792,12.807,42.977,6.436,66.035c-0.28,1.033-0.592,2.063-0.93,3.083
		c-2.539,7.716-5.975,16.524-5.975,31.909c0,15.822,10.85,33.018,7.928,51.451c-0.107,0.682-0.229,1.357-0.361,2.021
		c-4.295,21.42-20.379,33.646-21.786,59.23c-1.078,19.625,19.772,42.275,24.396,59.609s2.158,33.658-16.757,61.373
		c-22.588,33.166,21.03,46.008,1.707,71.27c-0.346,0.453-0.707,0.908-1.088,1.367c-18.279,21.99-23.072,23.02-6.648,38.869
		c0.327,0.314,0.659,0.635,0.997,0.961c15.152,14.561,0.981,13.107-0.457,37.094"/>
	<path fill="none" stroke="#383A3D" stroke-width="0.1" stroke-miterlimit="10" d="M325.373,30.785c0,0-1.754,0.711-4.898,6.85
		c-0.526,1.037-1.088,2.172-1.688,3.415c-3.697,7.659-7.668,11.238-17.42,12.844c-18.993,3.126-20.091,16.679-10.884,21.604
		c2.992,1.592,6.711,3.007,9.595,5.082c5.774,4.154,9.592,10.672,4.756,17.291c-7.627,10.444-22.278,11.654-21.349,23.178
		c1.05,12.854,23.982,20.351,12.455,58.358c-13.931,45.742,24.454,36.405,19.839,78.455c-0.931,8.39-5.562,15.092-16.017,26.163
		c-14.742,15.607-8.447,39.389,0.019,54.791c8.17,14.867,13.43,42.324,6.598,66.062c-0.295,1.024-0.621,2.051-0.979,3.07
		c-2.664,7.662-6.474,16.568-6.474,31.732c0,15.758,11.39,33.111,8.631,51.475c-0.102,0.686-0.221,1.359-0.35,2.031
		c-4.227,21.561-20.865,33.559-22.275,59.23c-1.078,19.625,20.191,42.373,24.814,59.707c4.621,17.334,1.992,33.619-17.046,61.215
		c-22.185,32.271,20.829,46.205,1.459,71.389c-0.351,0.453-0.714,0.91-1.089,1.365c-18.033,21.809-22.445,23.314-6.221,39.113
		c0.33,0.32,0.659,0.643,0.991,0.971c14.702,14.385-0.344,13.217-1.782,36.912"/>
	<path fill="none" stroke="#383A3D" stroke-width="0.1" stroke-miterlimit="10" d="M325.373,31.297c0,0-1.668,0.763-4.693,6.78
		c-0.52,1.043-1.067,2.152-1.66,3.34c-3.731,7.52-7.95,10.738-17.237,12.414c-18.933,3.415-19.878,16.349-10.979,21.572
		c2.881,1.676,6.553,3.204,9.479,5.313c5.848,4.212,9.912,10.522,4.967,17.126c-7.774,10.392-22.147,11.845-21.187,23.207
		c1.102,12.848,24.255,20.483,12.328,58.358c-14.541,45.936,24.852,36.382,19.936,78.388c-1.002,8.471-5.914,15.029-16.373,26.097
		c-14.742,15.606-8.189,39.516,0.274,54.917c8.214,14.942,14.109,41.683,6.759,66.083c-0.308,1.015-0.648,2.037-1.025,3.063
		c-2.789,7.606-6.969,16.611-6.969,31.557c0,15.689,11.926,33.205,9.334,51.5c-0.097,0.686-0.207,1.365-0.338,2.039
		c-4.16,21.699-21.35,33.471-22.766,59.23c-1.078,19.625,20.606,42.469,25.229,59.803c4.621,17.334,1.828,33.582-17.335,61.055
		c-21.78,31.375,20.63,46.396,1.208,71.506c-0.353,0.457-0.718,0.91-1.089,1.365c-17.791,21.623-21.818,23.609-5.795,39.355
		c0.33,0.324,0.656,0.648,0.981,0.977c14.254,14.211-1.673,13.324-3.106,36.736"/>
	<path fill="none" stroke="#383A3D" stroke-width="0.1" stroke-miterlimit="10" d="M325.373,31.811c0,0-1.584,0.812-4.488,6.708
		c-0.51,1.046-1.047,2.129-1.629,3.265c-3.772,7.381-8.231,10.244-17.053,11.98c-18.869,3.715-19.678,16.04-11.074,21.541
		c2.762,1.765,6.393,3.397,9.365,5.544c5.92,4.267,10.229,10.369,5.178,16.958c-7.93,10.349-22.025,12.039-21.031,23.242
		c1.154,12.842,24.523,20.616,12.196,58.358c-15.149,46.129,25.252,36.354,20.03,78.324c-1.078,8.552-6.267,14.965-16.726,26.033
		c-14.743,15.606-7.933,39.646,0.531,55.047c8.254,15.02,14.801,41.044,6.916,66.107c-0.313,1.004-0.672,2.021-1.074,3.053
		c-2.912,7.552-7.465,16.656-7.465,31.383c0,15.623,12.467,33.305,10.037,51.525c-0.09,0.689-0.201,1.369-0.328,2.049
		c-4.094,21.838-21.837,33.379-23.256,59.229c-1.078,19.625,21.025,42.563,25.648,59.896s1.663,33.543-17.624,60.896
		c-21.375,30.479,20.432,46.594,0.959,71.627c-0.354,0.457-0.719,0.914-1.088,1.367c-17.545,21.436-21.188,23.902-5.371,39.598
		c0.33,0.328,0.656,0.654,0.977,0.984c13.803,14.035-3.002,13.432-4.429,36.559"/>
	<path fill="none" stroke="#383A3D" stroke-width="0.1" stroke-miterlimit="10" d="M325.373,32.325c0,0-1.508,0.858-4.285,6.639
		c-0.502,1.048-1.031,2.109-1.6,3.189c-3.814,7.24-8.517,9.759-16.873,11.55c-18.805,4.03-19.469,15.71-11.172,21.506
		c2.649,1.852,6.231,3.594,9.252,5.772c5.987,4.325,10.547,10.215,5.385,16.793c-8.07,10.299-21.891,12.232-20.862,23.274
		c1.21,12.836,24.8,20.749,12.07,58.358c-15.763,46.32,25.651,36.33,20.128,78.261c-1.15,8.632-6.619,14.899-17.076,25.97
		c-14.744,15.606-7.677,39.773,0.787,55.174c8.299,15.095,15.5,40.412,7.078,66.133c-0.326,0.994-0.701,2.012-1.123,3.042
		c-3.037,7.5-7.963,16.698-7.963,31.208c0,15.557,13.008,33.398,10.742,51.549c-0.086,0.689-0.191,1.375-0.314,2.055
		c-4.026,21.979-22.326,33.293-23.751,59.23c-1.077,19.625,21.443,42.662,26.066,59.996c4.621,17.334,1.502,33.502-17.913,60.732
		c-20.971,29.584,20.23,46.791,0.708,71.746c-0.358,0.457-0.722,0.912-1.093,1.365c-17.301,21.25-20.561,24.197-4.942,39.84
		c0.33,0.332,0.653,0.662,0.968,0.992c13.356,13.861-4.328,13.541-5.752,36.381"/>
	<path fill="none" stroke="#383A3D" stroke-width="0.1" stroke-miterlimit="10" d="M325.373,32.839c0,0-1.41,0.916-4.08,6.567
		c-0.49,1.055-1.014,2.089-1.572,3.114c-3.854,7.099-8.793,9.28-16.688,11.117C284.296,58,283.775,69.019,291.764,75.112
		c2.537,1.936,6.073,3.788,9.139,6.003c6.061,4.38,10.864,10.063,5.596,16.626c-8.219,10.256-21.764,12.426-20.703,23.309
		c1.264,12.833,25.072,20.882,11.939,58.358c-16.371,46.513,26.052,36.304,20.224,78.197c-1.225,8.713-6.975,14.835-17.43,25.906
		c-14.742,15.606-7.419,39.903,1.047,55.305c8.338,15.173,16.209,39.782,7.235,66.156c-0.336,0.985-0.729,1.995-1.174,3.032
		c-3.16,7.445-8.459,16.74-8.459,31.035c0,15.49,13.547,33.494,11.447,51.574c-0.08,0.689-0.18,1.379-0.303,2.063
		c-3.959,22.119-22.811,33.201-24.24,59.229c-1.078,19.625,21.861,42.758,26.484,60.092s1.338,33.465-18.201,60.574
		c-20.567,28.688,20.033,46.984,0.459,71.867c-0.361,0.461-0.725,0.916-1.092,1.365c-17.058,21.064-19.936,24.49-4.52,40.084
		c0.332,0.334,0.653,0.67,0.959,0.998c12.905,13.689-5.656,13.648-7.078,36.203"/>
	<path fill="none" stroke="#383A3D" stroke-width="0.1" stroke-miterlimit="10" d="M325.375,33.351c0,0-1.326,0.965-3.873,6.497
		c-0.481,1.058-0.994,2.066-1.541,3.04c-3.902,6.954-9.07,8.809-16.508,10.687c-18.66,4.715-19.033,15.034-11.362,21.442
		c2.427,2.014,5.911,3.984,9.022,6.231c6.133,4.438,11.186,9.909,5.807,16.461c-8.373,10.21-21.639,12.62-20.546,23.34
		c1.317,12.828,25.343,21.015,11.814,58.358c-16.982,46.707,26.45,36.277,20.317,78.131c-1.299,8.794-7.328,14.771-17.785,25.839
		c-14.742,15.606-7.162,40.03,1.304,55.432c8.381,15.249,16.932,39.155,7.397,66.18c-0.344,0.975-0.756,1.983-1.223,3.023
		c-3.283,7.39-8.955,16.781-8.955,30.857c0,15.424,14.086,33.59,12.147,51.598c-0.075,0.693-0.17,1.385-0.29,2.072
		c-3.894,22.256-23.295,33.113-24.731,59.227c-1.078,19.625,22.278,42.855,26.899,60.189c4.622,17.334,1.174,33.422-18.489,60.412
		c-20.165,27.791,19.833,47.18,0.211,71.984c-0.364,0.461-0.728,0.916-1.093,1.367c-16.813,20.879-19.308,24.783-4.094,40.324
		c0.332,0.342,0.65,0.676,0.953,1.006c12.458,13.512-6.984,13.758-8.4,36.025"/>
	<path fill="none" stroke="#383A3D" stroke-width="0.1" stroke-miterlimit="10" d="M325.375,33.865c0,0-1.238,1.017-3.672,6.425
		c-0.473,1.06-0.979,2.045-1.512,2.964c-3.966,6.804-9.349,8.344-16.322,10.253c-18.579,5.087-18.822,14.708-11.46,21.41
		c2.313,2.101,5.751,4.178,8.908,6.463c6.205,4.492,11.504,9.759,6.018,16.297c-8.518,10.161-21.506,12.81-20.383,23.372
		c1.37,12.822,25.613,21.148,11.684,58.358c-17.592,46.897,26.851,36.254,20.416,78.067c-1.371,8.875-7.678,14.708-18.137,25.776
		c-14.743,15.606-6.905,40.16,1.561,55.562c8.421,15.326,17.707,38.548,7.558,66.205c-0.353,0.968-0.783,1.97-1.271,3.013
		c-3.407,7.336-9.453,16.826-9.453,30.686c0,15.359,14.63,33.688,12.854,51.623c-0.068,0.693-0.16,1.387-0.279,2.078
		c-3.821,22.396-23.782,33.023-25.221,59.225c-1.078,19.625,22.696,42.951,27.319,60.285c4.62,17.334,1.008,33.383-18.779,60.254
		c-19.762,26.896,19.635,47.373-0.04,72.105c-0.367,0.463-0.731,0.92-1.093,1.367c-16.57,20.693-18.678,25.08-3.668,40.57
		c0.332,0.344,0.646,0.682,0.945,1.014c12.007,13.34-8.313,13.863-9.726,35.848"/>
	<path fill="none" stroke="#383A3D" stroke-width="0.1" stroke-miterlimit="10" d="M325.375,34.379c0,0-1.152,1.069-3.467,6.356
		c-4.045,9.245-10.252,10.524-17.623,12.711c-18.49,5.489-18.608,14.379-11.557,21.379c6.516,6.466,23.469,12.969,15.022,22.823
		c-8.666,10.112-21.378,13-20.224,23.401c1.425,12.819,25.886,21.281,11.558,58.358c-18.202,47.091,27.248,36.229,20.512,78.004
		c-1.444,8.956-8.03,14.642-18.489,25.712c-14.743,15.607-6.647,40.288,1.815,55.689c8.465,15.401,18.406,37.916,7.717,66.228
		c-2.873,7.612-11.266,17.912-11.266,33.514c0,15.891,16.375,35.23,13.289,53.734c-3.756,22.535-24.269,32.936-25.713,59.227
		c-1.078,19.625,23.111,43.047,27.733,60.381c4.623,17.334,0.845,33.346-19.066,60.092c-19.355,26.002,19.435,47.57-0.289,72.225
		c-17.334,21.668-19.466,26.404-4.333,42.18c13.578,14.156-8.667,14.445-10.112,36.691"/>
</g>
</svg>
