<?xml version="1.0" encoding="utf-8"?>
<!-- Generator: Adobe Illustrator 23.0.0, SVG Export Plug-In . SVG Version: 6.00 Build 0)  -->
<svg version="1.1" id="图层_1" xmlns="http://www.w3.org/2000/svg" xmlns:xlink="http://www.w3.org/1999/xlink" x="0px" y="0px"
	 viewBox="0 0 1412 627" style="enable-background:new 0 0 1412 627;" xml:space="preserve">
<style type="text/css">
	.st0{fill:none;stroke:#FFFFFF;stroke-width:3.4384;stroke-linecap:round;stroke-linejoin:round;stroke-miterlimit:10;}
	.st1{fill:none;stroke:#FFFFFF;stroke-width:2.0013;stroke-linecap:round;stroke-linejoin:round;stroke-miterlimit:10;}
	.st2{fill:none;stroke:#FFFFFF;stroke-width:2;stroke-linecap:round;stroke-linejoin:round;stroke-miterlimit:10;}
	.st3{fill:none;stroke:#FFFFFF;stroke-width:3.4955;stroke-linecap:round;stroke-linejoin:round;stroke-miterlimit:10;}
	.st4{fill:none;stroke:#FFFFFF;stroke-width:2;stroke-miterlimit:10;}
	.st5{fill:none;stroke:#FFFFFF;stroke-width:3.9287;stroke-linecap:round;stroke-linejoin:round;stroke-miterlimit:10;}
	.st6{fill:none;stroke:#FFFFFF;stroke-width:3.8798;stroke-linecap:round;stroke-linejoin:round;stroke-miterlimit:10;}
	.st7{fill:none;stroke:#FFFFFF;stroke-width:3.8798;stroke-miterlimit:10;}
	.st8{fill:none;stroke:#424447;stroke-width:2.8346;stroke-miterlimit:10;}
	.st9{fill:none;stroke:#FFFFFF;stroke-width:3.6905;stroke-linecap:round;stroke-linejoin:round;stroke-miterlimit:10;}
	.st10{fill:none;stroke:#434547;stroke-width:2.4094;stroke-miterlimit:10;}
</style>
<path class="st6" d="M597,237.49c0,0-14.97-3.78-18.69,6.83c-3.76,10.71,10.64,18.16,18.01,8.26c7.37-9.91,5.61-51.06,2.46-67.7
	c-0.26-1.37-1.13-5.7-4.37-3.41c-2.57,1.82-0.09,4.05,5.64,3.22c5.15-0.74,41.96-9.66,48.81-13.86c0.78-0.48,1.17-1.47,0.56-2.34
	c-1.24-1.78-4.39,0.04-4.39,3.59c0,4.13,2.96,9.86-2.77,13.16c-5.12,2.95-26.48,5.86-35.06,9.21c-0.85,0.33-1.29,0.84-1.48,1.46
	c-0.21,0.67,0.36,3.79,0.44,4.04c0.26,0.89,1.12,0.9,2.81,0.73c1.24-0.13,2.56-0.46,4.93-1.06c6.55-1.65,16.46-3.92,26.22-6.45
	c1.51-0.39,5.48-1.7,5.73,2.48c0.3,4.94,1.19,38.04-4.09,46.6c-5.13,8.32-18.78,6.34-18.83-2.48c-0.04-6.49,5.32-14.63,18.01-12.38"
	/>
<path class="st6" d="M51.18,258.15c0,0-6.53-7.71-6.38-15.73c0.14-7.57,5.39-17.36,17.77-18.57c22.33-2.19,29.18,19.36,22.69,33.07
	c-7.34,15.5-31.64,24.59-49.74,2.43c-16.26-19.9-2.27-42.91,15.8-53.89c16.3-9.9,29.76-12.27,32.68-31.93
	c0.35-2.33,0.37-8.42-4.49-9.37c-5.9-1.15-8.15,5.44-9.81,10.64c-4.57,14.31-6.65,38.72-6.65,38.72s-1.53,34.92-2.2,46.55
	c-0.6,10.44-2.24,33.03-17.36,37.98c-12.47,4.08-23.36-4.23-21.28-12.43c1.49-5.87,5.51-7.2,8.03-7.47c2.19-0.23,5.22,0.72,6.8,3.01
	c4.4,6.38-2.58,14.08-9.1,11.35"/>
<path class="st6" d="M1304.04,53.77c0,0,9.58-26.8-11.39-32.28s-31.75-6.22-34.86-12.79c-0.78-1.65-0.94-4.43,1.09-5.52
	s3.77,1.77,5.74,5.96c1.66,3.53,17.99,35.67,23,52.9c5.09,17.53,2.96,23.53-1.64,28.11c-3.91,3.89-15.17,6.67-19.24-4.18
	c-4.43-11.8,7.1-22.1,16.07-22.88"/>
<path class="st6" d="M861.95,543.4c5.64-13.7,8.05-11.89,10.47-9.42c0,0,44.89,72.54,44.64,88.88
	c-0.25,16.34-39.83-63.42-39.83-63.42s0,45.02-6.8,44.27c-6.8-0.37-3.83-45.77-3.83-45.77s-31.04,64.97-38.34,64.47
	c-7.3-0.5,34.38-67.21,35.86-88.66c1.48-21.45,2.9-160.3,3.09-168.22c0.57-24.12-39.5,11.99-33.64,21.2
	c2.6,4.09,104.08-95.16,109.89-101.9c5.81-6.73,19.59-19.81,19.59-19.81s-66.28-12.84-76.8,1.75
	c-10.51,14.59,62.08,28.68,76.8,31.43s58.49,7.61,61.96-1.37s-31.74-26.86-55.2-29.01c0,0-55.97,52.33-71.68,73.4
	c-15.71,21.07-18.67,26.66-19.97,50.22s-3.33,134.63-3.33,134.63s24.29,5.44,25.9-5.28c1.61-10.72-3.72-98.45-4.5-108.07
	c0,0-4.53,35.87-3.78,65.98c0.74,30.12-2.77,55.54,16.15,59.47c18.92,3.93,77.37,4.12,100.35,0.5
	c23.74-3.74,24.18-11.66,24.86-45.08c0.72-35.29-2.73-87.46-2.73-87.46s-26.81,8.57-67.57,8.06c-39.95-0.5-65.12-2.51-65.99-14.6
	s33.39-16.09,50.58-16.09s31.26,0.42,41.68,0.62c16.95,0.33,39.7,3.62,39.82,12.35c0.12,8.73-50.5,10.71-104.21,8.84
	c-9.82-0.34-20.99-3.23-23.03,2.62c-2.64,7.56,7,12.05,16.39,13.16c21.15,2.49,34.63,3.24,38.51,13.3
	c5.36,13.88,13.21,41.45,0.88,42.66c-13.76,1.36,1.41-34.52,3.82-42.91c1.84-6.38,4.43-8.85,12.49-9.73
	c12.07-1.31,27.58-2.62,33.02-3.62s16.45-3.24,17.07,17.08c0.62,20.33,0.14,41.62-1.47,64.89c-1.28,18.45-0.88,21.65-17.33,23.27
	c-16.45,1.62-55.76,0.11-82.76,0.47c-21.05,0.28-21.86,34.05-23.84,46.79c-1.98,12.74-5.19,46.14-0.74,47.01
	c4.45,0.87,9.62-43.23,12.04-51.53c3.71-12.72,3-19.63,28.1-19.26c17.45,0.26,43.84-2.22,46.72,10.9
	c3.5,15.98,6.18,64.66,10.42,64.54c5.45-0.15,4.8-49.49,6.31-59.36c1.36-8.92,2.82-12.56,7.3-12.6c7.17-0.06,7.05,1.37,7.54,11.22
	c0.39,7.85-8.19,57.42-1.93,57.57c2.13,0.05,10.64-28.18,12.37-42.27c0,0,17.09,35.15,72.05,42.2
	c55.46,7.11,80.31-15.13,99.11-50.55c18.8-35.42,23.08-96-26.96-132.43c-41.72-30.38-86.81-20.36-112.54-2.45
	c-25.72,17.91-40.49,41.03-41.23,77.88c-0.57,28.09,5.92,57.95,34.8,77.96c28.15,19.5,60.4,28.24,94.97,15.21
	s56.64-57.86,53.67-94.52c-2.97-36.66-26.5-68.3-65.44-79.9c-38.03-11.33-76.66,15.76-85.89,28.06c-3.48,4.64-6.69-2.33-7.82-12.74
	c-0.93-8.51-1.05-13.42-1.42-23.66c-0.42-11.67,1.94-19.26,10.14-19.08c28.07,0.62,43.99,1.59,47.58-10.76
	c3.59-12.35,3.73-34.68,2.47-41.43c-1.45-7.8-2-11.97-24.46-12.67c-18.05-0.56-65.77-2.9-74.1-1.46c0,0-17.72,37.9-8.16,39.09
	c8.25,1.03,6.12-4.83,4.27-19.17s-2.95-18.95-2.83-24.61c0.14-6.35,1.73-8.6,17.93-8.36c16.2,0.25,89.65-2.26,90.01,5.96
	c0.28,6.36-32.65,2.9-41.18,2.81c-8.68-0.1-7.03,3.08-8.14,17.67s0.03,31.53-2.37,32.16c-7.39,1.93-4.2-40.67-4.48-45.83
	c-0.34-6.17-7.54-8.11-9.09-0.75c-1.31,6.25-5.85,54.96,5.87,55.74c12.63,0.84,46.99,3.49,55.9-3.12
	c8.9-6.61,6.98-29.01,11.44-29.06c6.12-0.06,1.38,42.94,2.6,46.58c0.57,1.7,4.76,2.08,7.7,1.96c5.35-0.22,6.85,0.39,7.82-23.29
	c0.93-22.6-2.84-21.64-3.46-15.71c-0.92,8.81-1.11,39.84,6.04,39.41c3.93-0.24,4.02-25.3,3.65-49.86l-0.62-21.54
	c0,0,1.02-5.99,11.22-6.83c10.2-0.84,85.36-4.93,86.35,4.68c0.99,9.6-80.71,8.11-88.38,4.74s28.11-3.32,41.46-3.45
	s46.05-0.17,46.05,8.06c0,8.23,1.48,54.25,1.48,54.25s-53.35,3.33-69.43,2.54c-13.28-0.66-20.49-3.45-20.34-6.05
	c0.18-3.32,20.74-6.52,49.9-7.79c33.25-1.45,77.79,1.62,76.97,10.3c-1.64,17.49-71.03,15.38-76.23,14.26
	c-5.19-1.12-0.25-4.24,27.33-4.49c27.58-0.25,76.56-1.47,76.93,14.25s-0.7,25.49-0.7,25.49s-85.93,6.11-104.29-1
	c-3.71-1.36-4.3-4.02-3.93-13.38c0.37-9.35-0.62-11.04,17.19-11.78c17.81-0.75,84.37-0.41,84.18,4.65s-51.53,2.12-52.45,13.22
	s-0.85,117.95-0.85,117.95s-51.32,60.34-56.51,58.36c-5.1-1.94,13.73-21.2,20.16-30.3c0,0,10.07,32.91,13.85,31.18
	c4.08-1.87-2.6-23.86-6.59-38.94c-0.74-2.81,16.48-22.4,22.45-29.09c7.67-8.6,10.24-7.53,20.18,12.11
	c10.54,20.85,26.76,57.31,24.44,57.85c-2.72,0.62-15.13-17.44-28.65-45.66c-3.26-6.81-5.17-12.8,2.12-4
	c7.98,9.63,26.06,45.45,35.34,31.24c9.27-14.22,33.84-53.11,38.55-61.82c10.93-20.19,21.74-14.04,19.54,0.06
	c-0.93,5.95-15.16,9.12-14.91-4.85c0.25-13.97,1.05-169.85,1.05-169.85s-2.54-6.05-14.53-16.4s-95.64-73.7-95.64-73.7l-0.91-22.96
	c0,0-7.07,0.62-37.14,19.16c-31.22,19.25-33.95,24.5-30.61,30.12c3.34,5.61,35.06,3.37,66.59-9.54
	c31.53-12.91,90.15-38.91,86.81-53.12s-78.65,10.48-78.65,10.48l0.19,14.78c0,0-0.19,6.36,5.01,10.66
	c5.19,4.3,94.09,73.37,98.7,76.36c6.35,4.13,8.56-1.84,4.48-4.65s-52.72-6.62-58.1-10.18c-5.38-3.55,30.42-5.8,77.72-5.61
	c47.3,0.19,57.5,3.72,57.5,6.9c0,6.38-72.34,12.37-74.38,2.27c-2.04-10.1,2.98-58.81,2.98-58.81s1.3,69.77,1.3,76.88
	s-8.3,179.84-1.99,192.31c6.31,12.47,37.92,54.98,33.43,58.96c-4.64,4.12-28.54-36.72-33.98-48.19c-5.44-11.47-2.41,8.04-2.29,17.65
	c0.12,9.6,2.04,39.47-4.45,39.66c-8.53,0.25-1.93-61.81-5.35-62.17c-2.69-0.28-34.32,50.57-28.63,52.81
	c6.2,2.45,26.1-36.86,30.03-47.2"/>
<path class="st7" d="M392.99,551.14c-4.86-0.76-9.08-1.72-14.39-5.09c-31.4-20-25.05-22.18-2.9-43.18
	c22.15-21,8.49-33.82-10.68-16.15c-19.17,17.67-35.73,37.55-32.42,55.22C335.89,559.61,360.26,572.14,392.99,551.14
	c32.72-21,29.07-75.1,22.28-84.64c-6.31-8.88-11.8-13.74-31.96-6.77s-62.99,42.2-67.95,59.2"/>
<path class="st6" d="M354.24,398.49c0.49,0.13,17.26,1.44,6.23,28.66c-10.16,25.07-13.79,31.37-20.86,41.01
	c-6.78,9.23-39.12,26.78-35.18,3.11c3.93-23.67,10.01,0.33,14.34-25.8c1.31-7.9,1.91-14.05,2.42-18.85
	c1.36-12.71,2.71-18.76,16.48-16.74c0,0,7.95,0.15,13.18,0.84C350.85,410.71,347.29,396.63,354.24,398.49z"/>
<path class="st7" d="M243.03,296.74c-1.78,4.99-4.79,12.66-5.38,20.81c-2.15,29.68,4.54,40.65,28.15,41.31
	c23.6,0.66,50.38,5.34,43.94,16.83c-6.45,11.5-32.35,15.99-46.2,7.76c-16.37-9.73,7.71-1.42,26.22-6.36
	c15.5-4.14,14.17-17.34,29.54-13.09c11.18,3.09,21.79,7.83,29.6,17.89"/>
<path class="st6" d="M108.94,365.35c12.56-15,9.78-3.86,64.48-20.61c12.52-3.83,14.79-4.58,32.8,1.41
	c13.03,4.33,27.4,16.9,46.31,42.92c22.45,30.88,24.52,38.56,24.52,38.56"/>
<path class="st6" d="M308.44,315.41c-1,3.52-2.91,6.71,3.47,6.54c8.51-0.22,7.49,16.89-0.02,18.2c-10.09,1.76-6,7.98-20.96,18.71
	c-16.68,11.95-43.31,12.25-65.48-13.28c-22.94-26.42-28.27,0.63-35.95,9.57c-8.75,10.19-30.78,5.14-23.06,13.34
	c12.06,12.81,22.61,10.36,39.14,3.03s21.12,3.75,42.85,38.31c3.48,5.53,8.99,12.49,28.62,17.8"/>
<path class="st6" d="M258.82,483.2c38.67-3.75,42.24,27.79,70.5,48.29c28.26,20.5,42.16,40.58,25.27,39.11
	c-60.44-5.24-69.53,26.35-46.96,30.65c17.07,3.25,21.08,11.81,36.14,16.46c18.38,5.67,34.22,4.29,42.12-7.54
	c12.74-19.08-9.44-29.87-26.26-29.37c-16.82,0.5-15.33,12.5-48.47-6.45c-33.14-18.95-7.1-21.7,6.83-21.95
	c13.93-0.25,10.3,19.08,10.3,19.08c-0.67,2.37-7.89,11.85-10.39,13.63c-29.07,20.63-68.15-29.87-70.63-52.37
	c-2.48-22.5,25.45,3.97,27.68,14.45c2.23,10.48,2.92,18.16-13.69,23.41c-15.79,4.99-29.12-23.1-68.25-22.35
	c0,0-2.51-13.94-4.09-27.31c-1.58-13.37-4.82-23.38-10.2-19.17c-5.25,4.1-4.64,12.16-3.71,14.68c12.55,34.17,56.02,8.1,73.48-10.53
	c21.31-22.73,6.12-59.64-4.05-84.44c-10.16-24.8-29.51-41.24-61.33-36.08c-31.82,5.16-38.61,37.77-68.82,31.88
	s-67.46-9.06-86.63,6.21s-40.72,44.17-8.19,117.29s86.17,55.73,101.61,47.24c15.43-8.49,58.42-48.33,49.08-59.35
	s-31.12,9.33-41.48,19.56c-10.36,10.23-23.6,4.54-26.84-3.36c-3.25-7.9-30.38-92.38-35.52-90.65c-5.14,1.73-14.06,5.8-14.06,5.8
	s24.53,64.51,32.7,85.89c15.41,40.32-24.02,32.07-4.3,14.98l-37.58-98.62c-1.25-3.28,0.28-6.98,3.48-8.39l39.77-17.53
	c7.01-3.09,11.17-10.47,10.21-18.12l-2.89-23.1c14.73,7.18,22.52,20.83,28.69,27.63c2.14,2.36,4.16,5.68,5.04,8.73
	c0.67,2.36,1.55,5.36,2.53,8.56c4.63,15.05,15.86,25.28,18.69,27.6c2.84,2.32,4.47,0.98,3.62-1.51c-0.85-2.49-2.05-8.35-2.05-8.35
	s7.32,8.34,11.62,12c4.3,3.66,9.02,3.58,7.49-2.22s-6.62-12.32-6.62-12.32s0.81,1.45,9.06,9.16c8.25,7.71,12.13,2.32,16.35-3.61
	c4.22-5.93,0.85-7.15-7.28-6.1c-8.13,1.06-8.16-7.07-8.16-7.07l-0.3-14.34c0,0,2.13,10.75,10.46,15.41
	c8.33,4.66,3.79-5.61,3.79-5.61l-7.23-14.15c-9.6-16.05-21.8-17.91-28.89-19.73c-7.09-1.82-12.98-7.01-16.21-10.51
	c-12.43-13.46,0.51-24.64-12.16-18.5c-25.46,12.33-26.39-0.53-13.1-14.87"/>
<path class="st6" d="M130.26,499.62L83.3,519.54c0,0-1.95-3.82-2.64-8.3c-0.69-4.48,93.93-36.63,93.93-36.63l31.99-11.68l-3.11-6.84
	l210.11-79.57c0,0,26.37-20.64,37.49-25.43c11.12-4.8,16.37,4.77,4.82,8.88c-11.55,4.11-46.49,9.52-46.49,9.52
	s-130.35,47.56-143.43,52.95c-11.63,4.79-55.51,21.23-66.82,25.26c-1.87,0.67-3.7,0.53-4.66-0.11c-2.57-1.72-2.83-4.87-2.04-6.77
	c0.56-1.34,2.26-2.46,4.04-3.1c24.48-8.87,204.82-74.28,206.92-77.1c2.25-3.03,2.65-5.15,6.53-6.71c3.88-1.56,9.89-8.47,8.15-9.77
	c-2.02-1.51-8.06,0.71-8.77,4.16s12.06,0.24,17.79-1.78c5.73-2.02,8.95-10.74,2.1-8.31c-5.89,2.09-2.8,4.96,1.98,6.1
	c4.78,1.14,14.3-6.84,18.1-11.93s-2.16-5.2-6.71-1.73c-4.55,3.47,4.6,5.47,9.28,4.36c4.68-1.11,12.76-6.57,13.87-6.81
	s15.85,2.91,19.91,14.94c4.06,12.03-5.81,21.96-5.81,21.96s-11.95,2.17-18.34,5.07c-6.39,2.89-4.99,13.54,2.52,8.72
	c10.19-6.54-7.28-8.01-15.07-4.41c-7.79,3.6-7.6,8.22-5.81,9.27c0.85,0.5,4.08,0.83,6.36-2.12c1.85-2.39-1.95-6.19-9.71-2.95
	c-7.76,3.25-9.47,3.86-11.67,8.23c-1.67,3.31,4.48,4.67,6.76,1.77c2.5-3.17-3.28-8.54-9.52-4.61c-6.24,3.93-12.75,1.61-12.75,1.61
	L141.67,495.81c-4.06-8.42-9.46-23.51-9.46-23.51l-58.48,23.14c0,0-3.88-3.36-3.73-7.99c0.12-3.68,10.66-7.05,14.52-8.37
	c9.11-3.11,32.28-12.02,32.28-12.02L130.26,499.62z"/>
<path class="st6" d="M309.2,259.3c3.42,2.25,6.77,5.25,5.66,8.74c-2.49,7.8-14.41-2.75-21.71-9.59
	c-7.31-6.84-20.95-15.12-25.99-6.08c-5.05,9.04-11.05,19.97-8.4,26.05s24.19,14.61,37.84,17.12c10.2,1.87,14.29,0.95,14.84-1.4
	c0.66-2.81,1.21-6.08-18.36-7.67c-10.51-0.85-33.43-7.89-42.36-12.2c-11.98-5.78-26.19-9.47-26.69,3.93
	c-0.22,5.98,1.85,13.78,11.69,17.33c9.39,3.39,30.37,0.27,48.91,9.45c35.15,17.4,54.2,17.92,52.77,6.36
	c-1.13-9.21-11.46-15.1-16.6-17.49c-1.59-0.74-2.32-2.6-1.69-4.24c2.16-5.66,6.45-17.75,5.89-23c-0.51-4.78-9.18-7.98-14.6-9.52
	C307.89,256.37,307.19,257.98,309.2,259.3z"/>
<path class="st6" d="M1068.36,159c-3.35-9.62,0.4-12.51,0.47-18.91c0.15-13.52-10.8-10.85-8.9-2.18c1.01,4.61,4.79,13.3,8.81,21.9
	c3.54,7.57,8.54,15.03,14.62,19.8c11.65,9.16,27.67,5.96,35.39-4.77c7.73-10.73,19.97-36.16,22.89-37.92
	c2.92-1.76,2.33,14.26-1.75,18.37s-9.62,3.97-8.31-9.11c1.31-13.08,5.47-28.17-1.38-34.93s-17.71-2.4-23.83-2.84
	c-6.12-0.44-26.29-6.87-30.95-0.4c-4.66,6.47-13.41,14.7-12.68,3.97c0.73-10.73,8.61-31.79,41.85-31.57
	c33.23,0.22,43.77,21.28,38.88,39.14c-4.45,16.27-16.75,50.61-23.09,62.93c-0.62,1.2-2.91,4.91-2.31,7.64
	c0.87,3.92,4.34,13.64,20.78,4.79c-0.14,10.96-29.61,45.98-42.22,42.61c-18.83-5.04-24.96-33.87-24.39-47.13
	c0,0,0.28-3.83,4.64-1.78c4.36,2.06,2.85,4.29,2.85,4.29c-4.89,8.03-61.5,2.98-70.46,20.48c-8.17,15.96-28.47,44.89-12.39,53.42
	c6.82,3.62,11.56-2.73,6.83-7.31c-5.81-5.63-50.84-16.85-50.84-16.85s30.7-49.34,26.54-51.52c-2.32-1.22-19.84,28.98-31.81,45.36
	c-6.53,8.93-23.62,32.22-19.95,34.98c1.74,1.31,3.1,0.14,8.82-5.05c5.72-5.19,78.53,51.12,88.82,50.04
	c5.52-0.58,7.18-4.82,8.78-9.48c1.39-4.02,3.88-11.33,6.17-21.46c4.93-21.85,7.29-37.42-0.86-31.58
	c-8.15,5.84-1.84,51.62,7.92,56.16l102.52,1.75c0,0-75.47-52.47-85.21-62.48c-12.49-12.84,5.78-2.18,21.55,10.97
	c22.88,19.08,42.92,50.43,48.41,44.99c5.29-5.24-0.44-9.91-13.32-11.31c-13.54-1.47-20.06,5.89-17.94,18.14
	c1.3,7.48,6.51,22.79,24.86,15.9c34.87-13.09,132.26-35.35,132.26-35.35s-47.6-80.14-53.11-74.76
	c-7.54,7.36-18.98,25.74-11.44,29.49c10.02,4.99,6.71-17.88,5.01-31.23c-1.6-12.53-70.79-33.29-77.84-18.66"/>
</svg>
