<?xml version="1.0" encoding="utf-8"?>
<!-- Generator: Adobe Illustrator 23.0.0, SVG Export Plug-In . SVG Version: 6.00 Build 0)  -->
<svg version="1.1" id="图层_1" xmlns="http://www.w3.org/2000/svg" xmlns:xlink="http://www.w3.org/1999/xlink" x="0px" y="0px"
	 viewBox="0 0 808.17 1169.71" style="enable-background:new 0 0 808.17 1169.71;" xml:space="preserve">
<style type="text/css">
	.st0{fill:#1A1B1E;}
	.st1{fill:#FFFFFF;}
	.st2{fill:none;stroke:#434547;stroke-width:1.4173;stroke-miterlimit:10;}
	.st3{fill:#0BBBD3;}
	.st4{fill:none;stroke:#B3B3B3;stroke-miterlimit:10;}
	.st5{fill:none;stroke:#FF0000;stroke-width:7.0866;stroke-miterlimit:10;}
	.st6{fill:none;stroke:#434547;stroke-width:0.9921;stroke-miterlimit:10;}
	.st7{fill:none;stroke:#434547;stroke-width:0.9931;stroke-miterlimit:10;}
	.st8{fill:none;stroke:#434547;stroke-width:1.04;stroke-miterlimit:10;}
	.st9{fill:none;stroke:#434547;stroke-width:0.6478;stroke-miterlimit:10;}
	.st10{fill:none;stroke:#383A3D;stroke-width:0.3402;stroke-miterlimit:10;}
	.st11{fill:#1C80D3;}
	.st12{fill:#E88F6B;}
	.st13{fill:#849B5C;}
	.st14{fill:#8C100A;}
	.st15{fill:#54071F;}
	.st16{fill:none;stroke:#3A3C40;stroke-width:1.1339;stroke-miterlimit:10;}
	.st17{fill:none;stroke:#3A3C40;stroke-width:1.2756;stroke-miterlimit:10;}
	.st18{opacity:0.85;fill:#3A3C40;}
	.st19{opacity:0.5;fill:#3A3C40;}
	.st20{fill:none;stroke:#424447;stroke-width:1.1022;stroke-miterlimit:10;}
	.st21{fill:none;stroke:#383A3D;stroke-width:0.149;stroke-miterlimit:10;}
	.st22{opacity:0.5;}
	.st23{fill:#36393E;}
</style>
<path class="st19" d="M808.17,1.28V0h-55.71h-1.27H669h-1.28h-82.19h-1.28h-82.19h-1.28H418.6h-1.28h-82.19h-1.28h-82.19h-1.28
	h-82.19h-1.28H84.74h-1.28H0v83.46v1.28v82.18v1.28v82.18v1.28v82.18v1.28v82.18v1.28v82.18v1.28v82.18v1.28v82.18v1.28v82.18v1.28
	v82.18v1.28v82.18v1.28v82.18v1.28v82.18v1.28v83.46h83.47h1.28h82.19h1.28h82.19h1.28h82.19h1.28h82.19h1.28h82.19h1.28h82.19h1.28
	h82.19H669h82.2h1.27h55.71v-1.28h-55.7v-82.18h55.7v-1.28h-55.7v-82.18h55.7v-1.28h-55.7v-82.18h55.7v-1.28h-55.7v-82.18h55.7
	v-1.28h-55.7v-82.18h55.7v-1.28h-55.7v-82.18h55.7v-1.28h-55.7V585.5h55.7v-1.28h-55.71v-82.18h55.71v-1.28h-55.7v-82.18h55.7v-1.28
	h-55.7v-82.18h55.7v-1.28h-55.7v-82.18h55.7v-1.28h-55.7V168.2h55.7v-1.28h-55.7V84.74h55.7v-1.28h-55.7V1.28H808.17z
	 M751.19,584.22H669v-82.18h82.19V584.22z M84.74,1002.79h82.19v82.18H84.74V1002.79z M84.74,919.33h82.19v82.18H84.74V919.33z
	 M84.74,835.88h82.19v82.18H84.74V835.88z M84.74,752.42h82.19v82.18H84.74V752.42z M84.74,668.96h82.19v82.18H84.74V668.96z
	 M84.74,585.5h82.19v82.18H84.74V585.5z M84.74,502.04h82.19v82.18H84.74V502.04z M84.74,418.58h82.19v82.18H84.74V418.58z
	 M84.74,335.12h82.19v82.18H84.74V335.12z M84.74,251.66h82.19v82.18H84.74V251.66z M84.74,168.2h82.19v82.18H84.74V168.2z
	 M84.74,84.74h82.19v82.18H84.74V84.74z M751.19,166.92H669V84.74h82.19V166.92z M751.19,250.38H669V168.2h82.19V250.38z
	 M751.19,333.84H669v-82.18h82.19V333.84z M751.19,417.3H669v-82.18h82.19V417.3z M667.72,500.76h-82.19v-82.18h82.19V500.76z
	 M667.72,584.22h-82.19v-82.18h82.19V584.22z M751.19,751.14H669v-82.18h82.19V751.14z M751.19,834.6H669v-82.18h82.19V834.6z
	 M751.19,918.06H669v-82.18h82.19V918.06z M751.19,1001.52H669v-82.18h82.19V1001.52z M168.21,919.33h82.19v82.18h-82.19V919.33z
	 M168.21,835.88h82.19v82.18h-82.19V835.88z M168.21,752.42h82.19v82.18h-82.19V752.42z M168.21,668.96h82.19v82.18h-82.19V668.96z
	 M168.21,585.5h82.19v82.18h-82.19V585.5z M168.21,502.04h82.19v82.18h-82.19V502.04z M168.21,418.58h82.19v82.18h-82.19V418.58z
	 M168.21,335.12h82.19v82.18h-82.19V335.12z M168.21,251.66h82.19v82.18h-82.19V251.66z M168.21,168.2h82.19v82.18h-82.19V168.2z
	 M667.72,250.38h-82.19V168.2h82.19V250.38z M667.72,333.84h-82.19v-82.18h82.19V333.84z M584.26,417.3h-82.19v-82.18h82.19V417.3z
	 M584.26,500.76h-82.19v-82.18h82.19V500.76z M584.26,584.22h-82.19v-82.18h82.19V584.22z M667.72,751.14h-82.19v-82.18h82.19
	V751.14z M667.72,834.6h-82.19v-82.18h82.19V834.6z M667.72,918.06h-82.19v-82.18h82.19V918.06z M251.67,835.88h82.19v82.18h-82.19
	V835.88z M251.67,752.42h82.19v82.18h-82.19V752.42z M251.67,668.96h82.19v82.18h-82.19V668.96z M251.67,585.5h82.19v82.18h-82.19
	V585.5z M251.67,502.04h82.19v82.18h-82.19V502.04z M251.67,418.58h82.19v82.18h-82.19V418.58z M251.67,335.12h82.19v82.18h-82.19
	V335.12z M251.67,251.66h82.19v82.18h-82.19V251.66z M500.79,333.84H418.6v-82.18h82.19V333.84z M500.79,417.3H418.6v-82.18h82.19
	V417.3z M500.79,500.76H418.6v-82.18h82.19V500.76z M500.79,584.22H418.6v-82.18h82.19V584.22z M584.26,751.14h-82.19v-82.18h82.19
	V751.14z M584.26,834.6h-82.19v-82.18h82.19V834.6z M335.14,752.42h82.19v82.18h-82.19V752.42z M335.14,668.96h82.19v82.18h-82.19
	V668.96z M335.14,585.5h82.19v82.18h-82.19V585.5z M335.14,502.04h82.19v82.18h-82.19V502.04z M335.14,418.58h82.19v82.18h-82.19
	V418.58z M335.14,335.12h82.19v82.18h-82.19V335.12z M500.79,751.14H418.6v-82.18h82.19V751.14z M418.6,752.42h82.19v82.18H418.6
	V752.42z M500.79,667.68H418.6V585.5h82.19V667.68z M417.33,333.84h-82.19v-82.18h82.19V333.84z M335.14,835.88h82.19v82.18h-82.19
	V835.88z M418.6,835.88h82.19v82.18H418.6V835.88z M502.07,835.88h82.19v82.18h-82.19V835.88z M584.26,667.68h-82.19V585.5h82.19
	V667.68z M502.07,333.84v-82.18h82.19v82.18H502.07z M584.26,250.38h-82.19V168.2h82.19V250.38z M500.79,250.38H418.6V168.2h82.19
	V250.38z M417.33,250.38h-82.19V168.2h82.19V250.38z M333.86,250.38h-82.19V168.2h82.19V250.38z M251.67,919.33h82.19v82.18h-82.19
	V919.33z M335.14,919.33h82.19v82.18h-82.19V919.33z M418.6,919.33h82.19v82.18H418.6V919.33z M502.07,919.33h82.19v82.18h-82.19
	V919.33z M585.53,919.33h82.19v82.18h-82.19V919.33z M667.72,667.68h-82.19V585.5h82.19V667.68z M585.53,417.3v-82.18h82.19v82.18
	H585.53z M667.72,166.92h-82.19V84.74h82.19V166.92z M584.26,166.92h-82.19V84.74h82.19V166.92z M500.79,166.92H418.6V84.74h82.19
	V166.92z M417.33,166.92h-82.19V84.74h82.19V166.92z M333.86,166.92h-82.19V84.74h82.19V166.92z M250.4,166.92h-82.19V84.74h82.19
	V166.92z M168.21,1002.79h82.19v82.18h-82.19V1002.79z M251.67,1002.79h82.19v82.18h-82.19V1002.79z M335.14,1002.79h82.19v82.18
	h-82.19V1002.79z M418.6,1002.79h82.19v82.18H418.6V1002.79z M502.07,1002.79h82.19v82.18h-82.19V1002.79z M585.53,1002.79h82.19
	v82.18h-82.19V1002.79z M669,1002.79h82.19v82.18H669V1002.79z M751.19,667.68H669V585.5h82.19V667.68z M669,500.76v-82.18h82.19
	v82.18H669z M669,1.28h82.19v82.18H669V1.28z M585.53,1.28h82.19v82.18h-82.19V1.28z M502.07,1.28h82.19v82.18h-82.19V1.28z
	 M418.6,1.28h82.19v82.18H418.6V1.28z M335.14,1.28h82.19v82.18h-82.19V1.28z M251.67,1.28h82.19v82.18h-82.19V1.28z M168.21,1.28
	h82.19v82.18h-82.19V1.28z M84.74,1.28h82.19v82.18H84.74V1.28z M1.28,1.28h82.19v82.18H1.28V1.28z M1.28,84.74h82.19v82.18H1.28
	V84.74z M1.28,168.2h82.19v82.18H1.28V168.2z M1.28,251.66h82.19v82.18H1.28V251.66z M1.28,335.12h82.19v82.18H1.28V335.12z
	 M1.28,418.58h82.19v82.18H1.28V418.58z M1.28,502.04h82.19v82.18H1.28V502.04z M1.28,585.5h82.19v82.18H1.28V585.5z M1.28,668.96
	h82.19v82.18H1.28V668.96z M1.28,752.42h82.19v82.18H1.28V752.42z M1.28,835.88h82.19v82.18H1.28V835.88z M1.28,919.33h82.19v82.18
	H1.28V919.33z M1.28,1002.79h82.19v82.18H1.28V1002.79z M83.47,1168.44H1.28v-82.18h82.19V1168.44z M166.93,1168.44H84.74v-82.18
	h82.19V1168.44z M250.4,1168.44h-82.19v-82.18h82.19V1168.44z M333.86,1168.44h-82.19v-82.18h82.19V1168.44z M417.33,1168.44h-82.19
	v-82.18h82.19V1168.44z M500.79,1168.44H418.6v-82.18h82.19V1168.44z M584.26,1168.44h-82.19v-82.18h82.19V1168.44z M667.72,1168.44
	h-82.19v-82.18h82.19V1168.44z M751.19,1168.44H669v-82.18h82.19V1168.44z"/>
</svg>
