<?xml version="1.0" encoding="utf-8"?>
<!-- Generator: Adobe Illustrator 23.0.0, SVG Export Plug-In . SVG Version: 6.00 Build 0)  -->
<svg version="1.1" id="图层_1" xmlns="http://www.w3.org/2000/svg" xmlns:xlink="http://www.w3.org/1999/xlink" x="0px" y="0px"
	 viewBox="0 0 1891.13 631.13" style="enable-background:new 0 0 1891.13 631.13;" xml:space="preserve">
<style type="text/css">
	.st0{fill:#1A1B1E;}
	.st1{fill:#FFFFFF;}
	.st2{fill:none;stroke:#434547;stroke-width:1.4173;stroke-miterlimit:10;}
	.st3{fill:#0BBBD3;}
	.st4{fill:none;stroke:#B3B3B3;stroke-miterlimit:10;}
	.st5{fill:none;stroke:#FF0000;stroke-width:7.0866;stroke-miterlimit:10;}
	.st6{fill:none;stroke:#434547;stroke-width:0.9921;stroke-miterlimit:10;}
	.st7{fill:none;stroke:#434547;stroke-width:0.9931;stroke-miterlimit:10;}
	.st8{fill:none;stroke:#434547;stroke-width:1.04;stroke-miterlimit:10;}
	.st9{fill:none;stroke:#434547;stroke-width:0.6478;stroke-miterlimit:10;}
	.st10{fill:none;stroke:#383A3D;stroke-width:0.3402;stroke-miterlimit:10;}
	.st11{fill:#1C80D3;}
	.st12{fill:#E88F6B;}
	.st13{fill:#849B5C;}
	.st14{fill:#8C100A;}
	.st15{fill:#54071F;}
	.st16{fill:none;stroke:#3A3C40;stroke-width:1.1339;stroke-miterlimit:10;}
	.st17{fill:none;stroke:#3A3C40;stroke-width:1.2756;stroke-miterlimit:10;}
	.st18{opacity:0.85;fill:#3A3C40;}
	.st19{opacity:0.5;fill:#3A3C40;}
	.st20{fill:none;stroke:#424447;stroke-width:1.1022;stroke-miterlimit:10;}
	.st21{fill:none;stroke:#383A3D;stroke-width:0.149;stroke-miterlimit:10;}
	.st22{opacity:0.5;}
	.st23{fill:#36393E;}
</style>
<path class="st19" d="M1786.13,0H1785h-103.87H1680h-103.87H1575h-103.87H1470h-103.87H1365h-103.87H1260h-103.87H1155h-103.87H1050
	H946.13H945H841.13H840H736.13H735H631.13H630H526.13H525H421.13H420H316.13H315H211.13H210H106.13H105H0v105v1.13V210v1.13V315
	v1.13V420v1.13V525v1.13v105h105h1.13H210h1.13H315h1.13H420h1.13H525h1.13H630h1.13H735h1.13H840h1.13H945h1.13H1050h1.13H1155
	h1.13H1260h1.13H1365h1.13H1470h1.13H1575h1.13H1680h1.13H1785h1.13h105v-105V525V421.13V420V316.13V315V211.13V210V106.13V105V0
	H1786.13z M1681.13,1.13H1785V105h-103.87V1.13z M1785,210h-103.87V106.13H1785V210z M1785,315h-103.87V211.13H1785V315z M1785,420
	h-103.87V316.13H1785V420z M1785,525h-103.87V421.13H1785V525z M106.13,421.13H210V525H106.13V421.13z M106.13,316.13H210V420
	H106.13V316.13z M106.13,211.13H210V315H106.13V211.13z M106.13,106.13H210V210H106.13V106.13z M1680,210h-103.87V106.13H1680V210z
	 M1680,315h-103.87V211.13H1680V315z M1680,420h-103.87V316.13H1680V420z M211.13,316.13H315V420H211.13V316.13z M211.13,211.13H315
	V315H211.13V211.13z M1575,315h-103.87V211.13H1575V315z M1470,315h-103.87V211.13H1470V315z M1365,315h-103.87V211.13H1365V315z
	 M1260,315h-103.87V211.13H1260V315z M1155,315h-103.87V211.13H1155V315z M1050,315H946.13V211.13H1050V315z M945,315H841.13V211.13
	H945V315z M840,315H736.13V211.13H840V315z M735,315H631.13V211.13H735V315z M630,315H526.13V211.13H630V315z M525,315H421.13
	V211.13H525V315z M420,315H316.13V211.13H420V315z M316.13,316.13H420V420H316.13V316.13z M421.13,316.13H525V420H421.13V316.13z
	 M526.13,316.13H630V420H526.13V316.13z M631.13,316.13H735V420H631.13V316.13z M736.13,316.13H840V420H736.13V316.13z
	 M841.13,316.13H945V420H841.13V316.13z M946.13,316.13H1050V420H946.13V316.13z M1051.13,316.13H1155V420h-103.87V316.13z
	 M1156.13,316.13H1260V420h-103.87V316.13z M1261.13,316.13H1365V420h-103.87V316.13z M1366.13,316.13H1470V420h-103.87V316.13z
	 M1471.13,316.13H1575V420h-103.87V316.13z M1575,210h-103.87V106.13H1575V210z M1470,210h-103.87V106.13H1470V210z M1365,210
	h-103.87V106.13H1365V210z M1260,210h-103.87V106.13H1260V210z M1155,210h-103.87V106.13H1155V210z M1050,210H946.13V106.13H1050
	V210z M945,210H841.13V106.13H945V210z M840,210H736.13V106.13H840V210z M735,210H631.13V106.13H735V210z M630,210H526.13V106.13
	H630V210z M525,210H421.13V106.13H525V210z M420,210H316.13V106.13H420V210z M315,210H211.13V106.13H315V210z M211.13,421.13H315
	V525H211.13V421.13z M316.13,421.13H420V525H316.13V421.13z M421.13,421.13H525V525H421.13V421.13z M526.13,421.13H630V525H526.13
	V421.13z M631.13,421.13H735V525H631.13V421.13z M736.13,421.13H840V525H736.13V421.13z M841.13,421.13H945V525H841.13V421.13z
	 M946.13,421.13H1050V525H946.13V421.13z M1051.13,421.13H1155V525h-103.87V421.13z M1156.13,421.13H1260V525h-103.87V421.13z
	 M1261.13,421.13H1365V525h-103.87V421.13z M1366.13,421.13H1470V525h-103.87V421.13z M1471.13,421.13H1575V525h-103.87V421.13z
	 M1576.13,421.13H1680V525h-103.87V421.13z M1576.13,1.13H1680V105h-103.87V1.13z M1471.13,1.13H1575V105h-103.87V1.13z
	 M1366.13,1.13H1470V105h-103.87V1.13z M1261.13,1.13H1365V105h-103.87V1.13z M1156.13,1.13H1260V105h-103.87V1.13z M1051.13,1.13
	H1155V105h-103.87V1.13z M946.13,1.13H1050V105H946.13V1.13z M841.13,1.13H945V105H841.13V1.13z M736.13,1.13H840V105H736.13V1.13z
	 M631.13,1.13H735V105H631.13V1.13z M526.13,1.13H630V105H526.13V1.13z M421.13,1.13H525V105H421.13V1.13z M316.13,1.13H420V105
	H316.13V1.13z M211.13,1.13H315V105H211.13V1.13z M106.13,1.13H210V105H106.13V1.13z M1.13,1.13H105V105H1.13V1.13z M1.13,106.13
	H105V210H1.13V106.13z M1.13,211.13H105V315H1.13V211.13z M1.13,316.13H105V420H1.13V316.13z M1.13,421.13H105V525H1.13V421.13z
	 M105,630H1.13V526.13H105V630z M210,630H106.13V526.13H210V630z M315,630H211.13V526.13H315V630z M420,630H316.13V526.13H420V630z
	 M525,630H421.13V526.13H525V630z M630,630H526.13V526.13H630V630z M735,630H631.13V526.13H735V630z M840,630H736.13V526.13H840V630
	z M945,630H841.13V526.13H945V630z M1050,630H946.13V526.13H1050V630z M1155,630h-103.87V526.13H1155V630z M1260,630h-103.87V526.13
	H1260V630z M1365,630h-103.87V526.13H1365V630z M1470,630h-103.87V526.13H1470V630z M1575,630h-103.87V526.13H1575V630z M1680,630
	h-103.87V526.13H1680V630z M1785,630h-103.87V526.13H1785V630z M1890,630h-103.87V526.13H1890V630z M1890,525h-103.87V421.13H1890
	V525z M1890,420h-103.87V316.13H1890V420z M1890,315h-103.87V211.13H1890V315z M1890,210h-103.87V106.13H1890V210z M1786.13,105
	V1.13H1890V105H1786.13z"/>
</svg>
