<?xml version="1.0" encoding="utf-8"?>
<!-- Generator: Adobe Illustrator 23.0.0, SVG Export Plug-In . SVG Version: 6.00 Build 0)  -->
<svg version="1.1" id="图层_1" xmlns="http://www.w3.org/2000/svg" xmlns:xlink="http://www.w3.org/1999/xlink" x="0px" y="0px"
	 viewBox="0 0 1011 508" style="enable-background:new 0 0 1011 508;" xml:space="preserve">
<style type="text/css">
	.st0{fill:none;stroke:#FFFFFF;stroke-width:3.4384;stroke-linecap:round;stroke-linejoin:round;stroke-miterlimit:10;}
	.st1{fill:none;stroke:#FFFFFF;stroke-width:2.0013;stroke-linecap:round;stroke-linejoin:round;stroke-miterlimit:10;}
	.st2{fill:none;stroke:#FFFFFF;stroke-width:2;stroke-linecap:round;stroke-linejoin:round;stroke-miterlimit:10;}
	.st3{fill:none;stroke:#FFFFFF;stroke-width:3.4955;stroke-linecap:round;stroke-linejoin:round;stroke-miterlimit:10;}
	.st4{fill:none;stroke:#FFFFFF;stroke-width:2;stroke-miterlimit:10;}
	.st5{fill:none;stroke:#FFFFFF;stroke-width:3.9287;stroke-linecap:round;stroke-linejoin:round;stroke-miterlimit:10;}
	.st6{fill:none;stroke:#FFFFFF;stroke-width:3.8798;stroke-linecap:round;stroke-linejoin:round;stroke-miterlimit:10;}
	.st7{fill:none;stroke:#FFFFFF;stroke-width:3.8798;stroke-miterlimit:10;}
	.st8{fill:none;stroke:#424447;stroke-width:2.8346;stroke-miterlimit:10;}
	.st9{fill:none;stroke:#FFFFFF;stroke-width:3.6905;stroke-linecap:round;stroke-linejoin:round;stroke-miterlimit:10;}
	.st10{fill:none;stroke:#434547;stroke-width:2.4094;stroke-miterlimit:10;}
</style>
<path class="st0" d="M357.5,131.1c0,0-11.97-2.99-14.95,5.42c-3.01,8.5,8.51,14.41,14.41,6.55s4.49-40.5,1.96-53.7
	c-0.21-1.08-0.91-4.52-3.49-2.7c-2.06,1.45-0.07,3.21,4.51,2.56c4.12-0.59,33.56-7.66,39.04-10.99c0.62-0.38,0.94-1.17,0.45-1.85
	c-0.99-1.41-3.51,0.03-3.51,2.84c0,3.27,2.36,7.82-2.22,10.44c-4.1,2.34-21.18,4.65-28.04,7.31c-0.68,0.26-1.03,0.67-1.19,1.16
	c-0.17,0.53,0.29,3,0.35,3.21c0.21,0.7,0.89,0.71,2.25,0.58c0.99-0.1,2.05-0.36,3.94-0.84c5.24-1.31,13.16-3.11,20.97-5.12
	c1.21-0.31,4.38-1.35,4.58,1.96c0.24,3.92,0.95,30.17-3.27,36.96c-4.11,6.6-15.02,5.03-15.06-1.96c-0.03-5.15,4.26-11.6,14.41-9.82"
	/>
<path class="st0" d="M973.22,340.83c0,0-5.22-6.11-5.1-12.48c0.11-6,4.31-13.77,14.22-14.73c17.86-1.73,23.34,15.35,18.15,26.23
	c-5.87,12.29-25.31,19.5-39.78,1.93c-13-15.79-1.81-34.04,12.64-42.74c13.04-7.86,23.8-9.74,26.14-25.32
	c0.28-1.85,0.3-6.68-3.59-7.43c-4.72-0.91-6.52,4.32-7.84,8.44c-3.66,11.35-5.32,30.71-5.32,30.71s-1.22,27.69-1.76,36.92
	c-0.48,8.28-1.8,26.2-13.89,30.12c-9.97,3.23-18.69-3.36-17.02-9.86c1.19-4.66,4.41-5.71,6.42-5.92c1.75-0.19,4.18,0.57,5.44,2.39
	c3.52,5.06-2.07,11.17-7.28,9.01"/>
<path class="st0" d="M247.32,37.34c0,0,6.67-18.52-7.94-22.31c-14.61-3.79-22.12-4.3-24.29-8.84c-0.54-1.14-0.65-3.06,0.76-3.81
	s2.63,1.22,4,4.12c1.16,2.44,12.53,24.65,16.02,36.56c3.55,12.11,2.06,16.26-1.14,19.42c-2.72,2.69-10.57,4.61-13.41-2.89
	c-3.09-8.15,4.95-15.27,11.2-15.81"/>
<g>
	<path class="st0" d="M588.49,352.08c-22.45,0.43-35.19,1.09-38.05-7.4s-2.98-23.87-1.98-28.51c1.16-5.37,1.6-8.24,19.56-8.72
		c14.44-0.39,50.44-0.33,57.09,0.66c0,0-1.43,27,4.06,26.51c4.17-0.38,2.94-4.38,3.5-14.34c0.59-10.7,0.09-13.17-0.01-17.06
		c-0.11-4.37-1.38-5.92-14.34-5.75c-12.96,0.17-70.07-2.22-70.82,4.29c-1.21,10.61,3.71,8.01,29.37,9.64
		c6.93,0.44,26.48-2.27,27.15,2.45c1.42,9.98,1.34,23.64,3.3,23.79c6.04,0.47,3.16-18.68,3.39-22.24c0.27-4.25,6.03-5.58,7.27-0.51
		c1.05,4.3,2.51,28.71-3.58,29c-10.1,0.49-58.17,2.61-65.29-1.94c-7.12-4.55-5.58-19.97-9.15-20c-4.9-0.04-1.1,29.55-2.08,32.06
		c-0.46,1.17-3.81,1.43-6.16,1.35c-4.28-0.15-5.48,0.27-6.26-16.03c-0.74-15.56,2.27-14.89,2.77-10.81
		c0.74,6.06,0.89,27.42-4.83,27.12c-3.14-0.16-3.22-17.41-2.92-34.32l0.49-14.83c0,0-0.82-4.12-8.98-4.7
		c-8.16-0.58-68.53-3.42-69.06,3.22c-0.79,9.87,67.55,8.86,73.69,6.55c6.13-2.32-25.3-3.71-35.98-3.8
		c-10.68-0.09-37.01,1.31-37.01,6.97s-1.19,34.05-1.19,34.05s42.67,2.29,55.53,1.75c10.62-0.45,16.38-2.37,16.27-4.16
		c-0.15-2.29-16.59-4.49-39.91-5.36c-26.59-1-62.21,1.12-61.56,7.09c1.31,12.04,56.81,10.59,60.97,9.82s0.2-2.92-21.86-3.09
		c-22.06-0.17-61.23-1.01-61.53,9.81c-0.3,10.81,0.56,19.44,0.56,19.44s68.73,4.2,83.42-0.69c2.96-0.93,3.44-2.77,3.14-9.21
		s0.35-7.89-13.89-8.41c-14.24-0.51-67.34,0.02-67.19,3.5c0.15,3.48,41.22,1.46,41.95,9.1s0.68,79.28,0.68,79.28l45.2,40.17
		c0,0-10.98-14.59-16.12-20.86c0,0-8.06,22.65-11.08,21.46c-3.26-1.29,2.08-16.42,5.27-26.8c0.59-1.93-13.18-15.42-17.95-20.02
		c-6.13-5.92-8.19-5.18-16.14,8.34c-8.43,14.35-21.4,39.45-19.54,39.81c2.18,0.43,12.1-12,22.91-31.43c2.61-4.68,4.13-8.81-1.7-2.75
		c-6.38,6.63-20.84,31.28-28.26,21.5c-7.42-9.78-27.06-36.55-30.83-42.55c-8.74-13.89-15.83-7.81-15.63,0.04
		c0.07,2.77,12.13,6.28,11.93-3.34c-0.2-9.61-0.84-116.9-0.84-116.9s2.03-4.16,11.62-11.29c9.59-7.12,69.74-48.95,69.74-48.95
		l0.73-15.8c0,0,5.66,0.43,29.7,13.19c24.97,13.25,22.85,16.4,20.18,20.26c-2.67,3.86-23.74,2.78-48.97-6.1
		c-25.22-8.88-72.1-26.78-69.43-36.56c2.67-9.78,62.91,7.21,62.91,7.21l-0.15,10.17c0,0,0.15,4.38-4.01,7.34
		s-68.5,48.73-72.19,50.79c-5.08,2.84-6.85-1.27-3.59-3.2s42.17-4.56,46.47-7c4.3-2.45-24.33-3.99-62.16-3.86
		c-37.83,0.13-45.99-0.39-45.99,1.8s57.86,11.46,59.49,4.51s-2.38-40.48-2.38-40.48s-1.04,48.02-1.04,52.91
		c0,4.89,6.64,123.77,1.59,132.36c-5.04,8.58-27.58,36.77-24,39.51c3.71,2.83,20.08-24.2,24.43-32.1c4.35-7.9,1.93,5.54,1.83,12.14
		c-0.1,6.61-1.63,27.16,3.56,27.29c6.82,0.17,1.24-44.49,3.97-44.74c2.15-0.19,25.14,35.94,22.51,36.88
		c-4.92,1.77-20-26.45-23.14-33.57"/>
	<path class="st0" d="M681.24,447c-4.51-9.43-6.44-8.18-8.37-6.48c0,0-35.9,49.93-35.7,61.17s31.86-43.65,31.86-43.65
		s0,30.98,5.44,30.47c5.44-0.26,3.07-31.5,3.07-31.5s24.83,44.72,30.66,44.37c5.84-0.34-27.5-46.26-28.68-61.02
		s-2.32-110.32-2.47-115.78c-0.46-16.6,31.59,8.25,26.9,14.59c-2.08,2.82-83.24-65.5-87.89-70.13
		c-4.65-4.63-15.67-13.63-15.67-13.63s53.01-8.84,61.42,1.2c8.41,10.04-49.65,19.74-61.42,21.63c-11.77,1.89-46.78,5.24-49.55-0.94
		c-2.77-6.18,25.38-18.49,44.15-19.97c0,0,44.77,36.02,57.33,50.52c12.56,14.5,14.94,18.35,15.97,34.57
		c1.04,16.22,2.66,92.66,2.66,92.66s-26.79-37.2-32.87-38.05c0,0-8.46-7.22-17.95,35.51c0,0-3.04,21.73-15.83,39.33
		c-9.03,12.42-24.67,25.36-54.14,29.04c-41.64,5.2-60.34-10.42-74.47-34.79c-14.12-24.37-17.34-66.07,20.26-91.15
		c31.35-20.91,65.23-14.01,84.56-1.69s30.42,28.24,30.98,53.6c0.42,19.33-7.43,40.77-26.15,53.65
		c-20.63,14.2-45.38,19.43-71.36,10.47c-25.98-8.96-42.56-39.82-40.33-65.06c2.23-25.23,20.17-47.09,49.25-55.62
		c29.07-8.53,58.67,9.99,65.6,18.45c2.61,3.19,3.88-0.12,4.73-7.29c0.7-5.86,0.79-9.24,1.07-16.29c0.32-8.03-1.46-13.26-7.62-13.13"
		/>
	<path class="st0" d="M516.77,153.71c-9.48-8.35-6.37-26.17-6.37-26.17s0.76-9.13-2.5-5.8c-3.61,3.69-1.59,11.02-1.59,11.02
		s-5.8-3.02-6.81-10.81c-0.71-5.41-1-7.36,2.17-13.11c3.39-6.14,6.59-11.98,16.12-17.44c9.71-5.57,19.96-5.94,27.58-1.09
		c8.29,5.28,16.93,8.36,18.92,17.96c1.7,8.19-4.85,6.35-19.9,6.23c-8.04-0.07-16.66-0.79-21.56-1.14
		c-6.23-0.45-13.18,1.59-6.15,7.61c3.84,3.29,23.52-0.94,31.07,0.25c6.92,1.09,10.29,2.8,10.83,7.49c0.27,2.38-0.81,8.95,3.38,6.97
		c3.55-1.67-0.39-3.12,1.21-10.86s-6.4-8-6.77-5.17s-0.79,5.52-0.31,12.22c0.47,6.7-0.45,22.86-11.8,25.83
		c-7.73,5.31,7.62,15.15-10.24,18.03c-17.21,2.77-22.89,4.37-7.51,7.02c17.82,3.07,19.87-8.69,28.67-8.32
		c7.71,0.32,33.1,1.43,36.83,12.7c2.94,8.86,6.85,19.3-0.67,15.34c-3.96-2.08,1-10.88,5.97-15.69c2.46-2.38,9.46,25.05,13.73,43.06
		c1.94,8.16-3.1,16.35-11.27,18.26c-10.42,2.45-24.71,6.2-37.23,10.86c-12.1,4.51-15.54-5.51-16.39-10.4
		c-1.4-8.01,3.52-15.2,12.45-14.24c8.49,0.91,14.67,7.04,6.4,12.25c-4.3,2.71-27.54-21.94-42.63-34.42
		c-10.4-8.6-17.03-8.54-8.8-0.14c6.42,6.55,65.9,37.83,65.9,37.83l-23.65,1.8c-9.92,0.75-18.87,6.26-24.01,14.77l-2.59,4.28
		c-0.9,1.49-3.12,1.28-3.73-0.34l-3-7.96c-0.67-1.78-3.17-1.84-3.93-0.1l-4.08,9.41c-1.75,4.04-7.7,3.23-8.31-1.13v0
		c-1.03-7.38-7-13.08-14.41-13.78l-4.16-0.39c-6.44-2.97-6.08-38.58-1.97-43.74c4.77-5.98,3.18,1.37-0.08,15.65
		c-1.51,6.62-3.27,11.37-4.07,14.04c-1.74,5.83-4.55,7.43-8.19,7.81c-6.79,0.71-50.26-33.01-54.03-29.62c-3.77,3.4-4.72,2-5.87,1.14
		c-2.42-1.8,6.83-17.03,11.32-26.47c7.71-16.17,14.34-31.02,15.3-30.87c3.06,0.46-10.88,36.24-10.88,36.24s36.85,15.52,40.68,19.2
		c3.12,3,0.31,6.64-4.19,4.28c-10.61-5.58,2.5-29.66,7.89-40.1c5.91-11.45,40.42-7.28,45.95-12.95
		C522.28,168.18,526.25,162.05,516.77,153.71"/>
</g>
<g>
	<path class="st0" d="M741.91,289.59c0,0-40.31-51.76,6.57-75.99c8.55-4.42,19.73-6.73,44.48-3.44c0,0,11.84,1.18,20.82-12.38
		c8.98-13.56,37.8-24.57,60.71,13.72s1.8,54.02-8.24,57.28c-10.04,3.27-25.86,2.99-32.44,14.91c-6.57,11.92-22.33,43.26-49.81,39.79
		c-27.49-3.47-53.33-39.51-45.63-61.64c7.69-22.13,29.98,16.18,33.08,21.83S785.13,296.95,790,293l-27.21-51.17l7.29-4.21
		c0,0,12.53,8.92,7.27,15.2c-2.39,2.85-2.02,4.09-2.02,4.09l40.26-21.44c0,0-4.46-13.97,12.83-18.98c0,0,6.8-1.6,14.24,4.98
		l122.13-67.51c0,0,5.09-14.62,27.27-21.99c0,0,8.63-4.09,15.44,10.08c0,0,5.59,8.45-4.2,15.09s-25.13,12.5-30.34,10.56
		L849.8,235.27c0,0,2.37,9.57-9.05,16.16c-11.42,6.58-19.92-2.51-19.92-2.51l-34.26,18.79l-3.1-5.65l185.71-101.84
		c0,0,9.63-17.43,21.02-19.2c11.39-1.77,13.45,8.33,2.19,13.44c-11.27,5.11-23.21,5.76-23.21,5.76"/>
	<path class="st0" d="M922.16,200.74c2.07-0.14,10.52,6.14,13.45-4.06c1.52-5.29,1.07-7.2,1.8-10.44
		c1.94-8.57,3.34-12.59,12.65-10.12c0,0,5.46,0.73,9.01,1.61c0,0-1.34-9.89,3.29-8.07c0.33,0.13,11.76,2.35,2.04,20.05
		c-8.96,16.31-11.95,20.32-17.57,26.34c-2.77,2.97-13.47,8.28-19.58,9.24c-3.65,0.3-7.84-0.23-12.16-2.55
		c-12.76-6.82-11.7-42.15-13.18-44.23c-1.48-2.08-5.17,0.9-4.67,4.6c0.49,3.7,28.91-12.44,28.91-12.44
		c-1.53-14.36-8.2-24.18-20.97-25.62c-14.04-1.58-21.44-1.06-21.74-8.7c-0.3-7.64-4.1-4.03-11.08-4.25
		c-6.97-0.22-9.87-1.71-15.06-5.86c-5.19-4.15-1.48-4.08,3.71-1.26s10.87,3.26,17.19,0.15c7.02-3.46,11.99-12.18,14.04-28.79
		c2.03-16.37,1.09-25.52-5.74-30.86c-6.82-5.34-25.17-9.28-40.01,1.1c-9.4,6.58-11.45,18.87-7.67,25.47
		c3.78,6.6,6.43-23.9,46.19-11.73c6.29,1.92-1.58,8.01-9.99,8.61c-8.21,0.58-18.3-5.18-23.24-1.72c-4.95,3.46-3.66,6.82-4.35,12.66
		s-4.85-4.65-4.85-4.65c-7.67-1.38-2.47,7.71,0.94,13.05c3.41,5.34,8.26,10.39,6.28,18.79c-1.98,8.41,3.63,10.1,11.57,11.47
		c9.3,1.61,22.58-0.66,16.82,4.85c-4.35,4.15-24.63,2.99-30.76-5.42c-6.13-8.41-4.71-2.39-27.35,0.87
		c-14.44,2.08-15.93,6.58-21.56,11.37c-9.79,8.33-20.63,16.13-23.49,25.96c-3.54,12.2,15.11,17.36,22.3,18.25
		c7.2,0.89,11.18-1.37,13.25-7.25c0.68-1.93-30.07-7.44-33.51-3.14c-12.33,15.42,0.06,39.81,4.48,51.04
		c3.35,8.5,8.33,23.82,20.03,28.63c8.99,3.7,31.06,0.6,39.54-3.86c15.23-8.01,15.43-28.86-1.26-22.6
		c-38.77,14.53,5.93,38.82-10.68,37.14c-10.25-1.04-16.02,9.59-16.62,17.46c-1.76,23.25,4.99,54.7,4.85,63s1.34,16.32-3.41,26.56
		s-8.16,30.91-8.16,30.91c-11.08,51.61,3.54,54.87,3.54,54.87c-6.03,7.62-8.65,18.09-9.94,24.33c-1.29,6.24-0.14,11.08,5.19,12.52
		c10.51,2.84,23.37,3.14,23.96-8.63c0.72-14.28-7.42-20.97-7.42-20.97s-7.02-4.75-14.54,3.96c-7.52,8.7-9.1,18.4-3.36,19.78
		c5.74,1.38,22.95-3.86,28.88-12.96c5.93-9.1,3.81-21.31,3.51-28.88c-0.3-7.57,1.63-18.25,6.23-30.12s4.75-31.16,4.75-39.32
		s3.26-27.6,8.46-39.46s13.65-27.6,11.42-20.92c-2.23,6.68-0.69,68.08-1.68,87.87c-0.99,19.78,2.13,45.64,2.57,53.2
		c0.45,7.57,10.44,5.83,12.24,5.07c3.49-1.48,4.01-6.31-3.04-3.26c-4.91,2.12-5.39,9.03-5.09,17.33c0.3,8.31,6.82,6.53,14.39,6.53
		c7.57,0,14.54,4.9,20.92,8.61c6.38,3.71,23.34,0.95,23.78-3.5s-6.82-6.23-13.65-8.61c-6.82-2.37-4.95-5.38-9.89-11.82
		s-18.99-6.42-19.78-2.26c-0.79,4.15,15.03,2.18,22.35-2.57s-8.66-44.53-6.58-55.51c2.08-10.98,5.93-26.11,1.78-40.06
		c-4.15-13.95,0.4-30.39,3.37-49.67c2.97-19.29,4.32-41.17-8.05-45.47c-13.2-4.6-37.13-8.29-37.8-3.19
		c-0.94,7.22,18.45,2.66,24,2.82c17.61,0.51,35.35,6.04,32.97-5.04c-2.37-11.08-1-19.31-0.74-27.3c0.33-10.3,2.12-24.8,3.36-40.61
		L922.16,200.74z"/>
</g>
<g>
	<path class="st0" d="M14.61,288.22c0,0-37.9-61.26,16.14-82.18c9.85-3.81,22.33-5.01,48.97,1.49c0,0,12.79,2.69,24.19-11.05
		c11.4-13.74,44.17-22.36,64.66,22.14s-4.41,59.18-15.76,61.56c-11.35,2.38-28.59,0.21-37.17,12.45
		c-8.58,12.24-29.48,44.59-59.08,37.55c-29.6-7.04-53.55-49.43-42.54-72.68s30.82,21.2,33.53,27.74
		c2.72,6.54,13.37,16.12,19.15,12.38l-23.66-59.07l8.45-3.73c0,0,12.62,11.21,6.14,17.45c-2.94,2.83-2.69,4.23-2.69,4.23
		l46.48-18.65c0,0-3.22-15.78,16.25-19.2c0,0,7.61-0.94,14.96,7.12l141.3-59.27c0,0,7.29-15.36,32.37-20.79
		c0,0,9.9-3.45,15.67,12.83c0,0,5.11,9.88-6.36,15.98c-11.47,6.1-28.9,10.68-34.37,7.95l-142.44,59.19c0,0,1.46,10.73-11.79,16.57
		c-13.24,5.84-21.45-5.09-21.45-5.09l-39.61,16.46l-2.72-6.54l214.75-89.24c0,0,12.57-17.89,25.22-18.48s13.7,10.68,0.8,14.93
		s-26.02,3.55-26.02,3.55"/>
	<path class="st0" d="M144.16,85.89c0,0-11.82-7.21-17.41,4.58c-8.46,17.86-4.48,36.95,2.69,52.6s1.28,24.34-0.65,31.06
		c0,0,11.91,0.09,13.75-15.59c1.13-9.59-0.53-13.93-1.52-17.42c-0.84-2.97-1.39-5.8-1.39-5.8s-4.58-9.94-2.86-23.13
		c1.97-15.15,10.04-18.91,17.01-19.25c6.97-0.34,19.82,1.85,21.92,25.15c2.16,23.98-2.81,39.18,19.27,48.93
		c0,0-9.94-16.61-7.42-36.29s-2.36-42.34-19.4-49.57S147.84,76.13,144.16,85.89z"/>
	<path class="st0" d="M170.62,313.97c15.81,19.61,13.81,10.38,23.29,39.48c9.49,29.1,13.24,77.32,23.92,102.47
		s37.38,18.73,37.38,18.73s9.12,6.43,14.96,17.7c5.17,9.98-20.3,12.78-24.07,2.84c-2.8-7.39-18.26-12.45-21.43-16.72
		c-3.16-4.27,4.2-13.24,13.85-15.92c9.65-2.69,13.04-1.9,16.52,1.58c3.48,3.48-3.76,9.78-13.41,4.6
		c-9.56-5.13-22.69-2.72-22.69-2.72c-9.79-15.03,27.76-10.65,34.72-10.65c6.96,0-0.16-4.59-3.8-9.96s3.8-5.06-2.85-14.55
		c-6.64-9.49-0.6-33.79-5.82-50.4c-5.22-16.6-15.53-32.95-15.06-65.21s-17.24-42.92-30.64-44.29c-9.69-0.99-17.14,7.1-6.45,6.9
		c12.14-0.22,29.82,1.37,33.79-3.92c5.83-7.75,1.9-16.02,2.32-22.45c0.7-10.66,2.59-10.05,3.24-20.15c0.13-2.07,0.2-8.31,0.2-8.31
		c2.07-0.14,10.52,6.14,13.45-4.06c1.52-5.29,1.07-7.2,1.8-10.44c1.94-8.57,3.34-12.59,12.65-10.12c0,0,5.46,0.73,9.01,1.61
		c0,0-1.34-9.89,3.29-8.07c0.33,0.13,11.76,2.35,2.04,20.05c-8.96,16.31-11.95,20.32-17.57,26.34c-2.77,2.97-13.47,8.28-19.58,9.24
		c-3.65,0.3-7.84-0.23-12.16-2.55c-12.76-6.82-13.58-30.27-14.47-34.65c-0.67-3.28-0.79-6.93-0.79-6.93l27.6-11.02
		c-1.53-14.36-8.85-22.75-22.95-25.95c-7.37-1.68-11.53-2.14-23.6-5.51c-13.9-3.88-13.88-7.01-13.88-12.95c0,0-5.37,7.59-11.03,8.49
		c-4.88,0.78-15.7-5.5-15.7-5.5c-8.61,9.46-11.14,9.63-46.43,12.64c-24.92,2.13-37.89,7.7-54.93,16.42
		c-17.03,8.72-11.08,23.64,1.49,30.94s41.94,24.51,52.49,27.76c10.54,3.24-0.32,15.7-11.61,14.11
		c-19.12-2.69-13.84-17.53-11.61-25.24"/>
	<path class="st0" d="M174.42,261.15c-0.39,35.37-5.07,88.81-6.1,117.16c-1.22,33.76-3.44,72.33-6.93,102.44
		c-1.34,11.51-4.42,16.91-28.91,17.76c-20.15,0.7-39.86-0.23-50.63-0.54c-8.46-0.24-23.89,1.98-23.77-4.18
		c0.32-16.93,0.68-26.98-3.13-33.35c-9.69-16.22-23.85,13.88-4.74,14.15c35.28,0.5,44.48,0.65,66.91,0.58
		c41.89-0.14,62.01-0.48,88.57,0.85c9.39,0.47,17.39,15.68,14.8,19.62c-2.27,3.45-8.8,1.48-19.77,1.69
		c-26.5,0.49-25.2,3.03-25.09-38.5c0.11-43.93-4.24-118.11-7.47-136.5c-3.05-17.3-8.19-8.98-16.63,8.73
		c-3.83,8.04-7.06,14.01-9.62,21.62c-5.91,17.58,4.15,52.82,0.79,67.46c-2.79,12.13-14.7,7.01-27.22,5.93
		c-12.51-1.08-9.4-1.98-11.51-29.57c-0.67-8.75-6.41-36.84-6.58-47.97c-0.28-17.94,20.37-24.84,21.72-40.04
		c0.51-9.2,2.82-13.03,4.48-14.74c6.36-6.56,18.15-10.53,9.99,0.49c-8.16,11.03-32.81,6.43-37.21-0.66
		c-4.4-7.1-5.06-31.43,29.47-34.67c25.9-2.43,34.87,31.25,45.83,55.09"/>
	<path class="st0" d="M124.51,427.26c6.56,12.96,12.41,11.54,6.52,17.42c-5.89,5.89-24.01,11.18-33.09,11.01
		c-9.09-0.17-7.46,8,1.46,10.02c8.92,2.02,13.46,4.04,25.75-2.02s18.68-5.38,18.68-14.81c0-9.42-2.36-10.43-3.37-19.69
		c-1.01-9.26-20.7-9.76-23.22-5.22s2.19,18.68-8.92,23.39S96.68,452.28,93,456.8"/>
</g>
<path class="st0" d="M139.34,168.16c0,0,6.21,11.3,17.74,14.08c9.68,2.33,13.15-11.33,24.43-13.67c6.58-1.36,13.46-1.56,13.46-1.56"
	/>
</svg>
