<?xml version="1.0" encoding="utf-8"?>
<!-- Generator: Adobe Illustrator 16.0.0, SVG Export Plug-In . SVG Version: 6.00 Build 0)  -->
<!DOCTYPE svg PUBLIC "-//W3C//DTD SVG 1.1//EN" "http://www.w3.org/Graphics/SVG/1.1/DTD/svg11.dtd">
<svg version="1.1" id="图层_1" xmlns="http://www.w3.org/2000/svg" xmlns:xlink="http://www.w3.org/1999/xlink" x="0px" y="0px"
	 width="560.113px" height="122.13px" viewBox="26.744 334.982 560.113 122.13"
	 enable-background="new 26.744 334.982 560.113 122.13" xml:space="preserve">
<g>
	<path fill="#FFFFFF" d="M137.845,376.198c0-7.997-3.481-14.393-10.349-18.438c-11.383-6.773-22.953-13.358-34.524-19.849
		c-6.962-3.951-14.205-3.857-21.166,0c-11.478,6.397-22.86,12.982-34.148,19.567c-6.209,3.763-9.784,9.219-10.631,16.086
		c-0.188,1.129-0.188,2.258-0.282,3.387c0,5.174,0,10.348,0,15.522c0,1.223,0,2.352,0,3.575c0,6.586,0,13.265,0,19.85
		c0,7.996,3.48,14.393,10.349,18.438c11.383,6.773,22.953,13.358,34.524,19.85c6.961,3.95,14.205,3.856,21.166,0
		c11.383-6.397,22.766-12.982,34.055-19.567c6.303-3.669,9.878-9.22,10.63-16.087c0.188-1.129,0.188-2.257,0.282-3.386
		c0-5.175,0-10.255,0-15.429c0-1.223,0-2.352,0-3.575C137.939,389.462,137.845,382.783,137.845,376.198z M66.255,397.27
		c-0.094,7.526,0,15.053,0,23.425c-12.982-10.725-15.898-27.375-7.902-40.734c7.902-13.264,24.365-18.909,38.57-13.17
		c4.892,1.975,6.961,5.174,5.268,8.655c-1.976,4.139-5.268,4.421-9.313,3.01C78.673,373.563,66.444,382.218,66.255,397.27z
		 M99.275,424.833c-6.585,2.164-13.265,3.481-20.319,1.693c0-4.139,0-7.996,0-12.511c2.822,0,5.456,0.094,8.09,0
		c3.669-0.095,6.397-1.693,6.397-5.645c0.094-3.857-2.54-5.551-6.209-5.928c-5.738-0.47-8.278-2.633-8.185-6.679
		c0.094-4.233,3.198-6.397,9.125-6.397c16.463-0.188,16.463-0.188,16.463,16.369c0,3.669-0.188,7.432,0.094,11.101
		C104.825,421.07,103.132,423.61,99.275,424.833z"/>
	<path fill="#FFFFFF" d="M346.969,389.556c0-1.976,0-3.481,0-4.986c0-1.788,1.129-2.164,2.634-2.164
		c2.069,0,2.728,0.471,2.728,2.164c0,12.041,0.188,24.082-0.188,36.124c-0.188,5.832-3.293,10.536-8.655,12.981
		c-7.996,3.669-15.804,3.011-23.424-1.316c-1.411-0.753-1.787-1.787-1.035-3.293c1.035-1.881,1.506-2.069,3.293-0.94
		c4.703,2.822,9.689,3.574,14.957,2.54c5.175-1.035,8.655-4.704,9.313-9.972c0.376-2.729,0.282-5.55,0.471-8.749
		c-0.564,0.471-0.847,0.658-0.941,0.847c-4.232,5.927-10.159,7.62-17.026,6.491c-7.244-1.223-11.76-5.645-13.923-12.605
		c-1.506-4.799-1.129-9.689,0.752-14.3c5.457-12.982,23.33-13.922,30.01-3.857C346.216,388.709,346.405,388.897,346.969,389.556z
		 M333.14,414.674c7.996,0,13.829-5.738,13.829-13.829c0-8.373-5.739-14.299-13.829-14.299c-7.902,0-13.358,5.833-13.358,14.017
		C319.875,408.936,325.238,414.674,333.14,414.674z"/>
	<path fill="#FFFFFF" d="M207.271,398.682c-4.233,0-8.278,0-12.324,0c-1.881,0-2.352-0.659-2.445-2.541
		c0-1.788,1.034-2.258,2.54-2.258c4.985,0,9.877,0,14.863,0c1.976,0,2.54,0.564,2.54,2.54c0,4.797,0.094,9.501-0.094,14.299
		c0,1.129-0.753,2.634-1.6,3.293c-9.596,6.772-19.85,7.525-30.197,2.352c-9.972-4.986-14.581-13.734-14.017-24.93
		c0.752-13.453,12.323-24.271,25.869-24.459c5.833-0.094,11.478,0.752,16.651,3.763c1.411,0.847,1.976,1.788,1.129,3.387
		c-0.94,1.881-1.6,2.164-3.48,1.129c-6.303-3.387-13.076-4.233-19.85-2.164c-9.689,2.822-15.428,12.229-14.394,22.954
		c0.847,9.596,8.373,17.027,18.156,18.25c5.456,0.658,10.536-0.094,15.334-2.822c0.94-0.564,1.317-1.129,1.317-2.258
		C207.271,405.736,207.271,402.35,207.271,398.682z"/>
	<path fill="#FFFFFF" d="M299.838,411.852c-7.149,10.724-21.354,8.748-27.187,2.634c-7.244-7.432-7.056-20.696,0.282-28.034
		c5.832-5.833,19.473-7.902,26.811,2.728c0.094-0.659,0.094-1.223,0.094-1.693c0-5.738,0-11.571,0-17.31
		c0-2.069,0.471-2.54,2.54-2.54c2.352,0,3.01,0.376,3.01,2.446c0,15.334,0,30.762,0,46.096c0,2.069-0.658,2.54-3.01,2.446
		c-2.069,0-2.54-0.471-2.54-2.541C299.838,414.955,299.838,413.639,299.838,411.852z M272.745,400.75
		c0.094,8.373,5.456,13.924,13.452,13.924c8.091,0,13.734-5.927,13.641-14.111c-0.094-8.278-5.832-14.017-13.923-13.923
		C278.108,386.64,272.745,392.472,272.745,400.75z"/>
	<path fill="#FFFFFF" d="M547.72,411.287c2.916-8.654,5.738-16.934,8.373-25.212c0.564-1.693,1.411-2.352,3.198-2.352
		c1.693,0,2.54,0.752,3.104,2.352c2.54,7.808,5.174,15.522,7.808,23.33c0.188,0.564,0.377,1.129,0.753,1.976
		c0.376-0.94,0.658-1.6,0.94-2.258c3.011-8.09,6.021-16.181,9.031-24.271c0.847-2.258,2.445-3.011,4.798-2.352
		c1.316,0.376,1.316,1.317,0.847,2.446c-1.693,4.421-3.387,8.937-5.08,13.358c-2.258,6.021-4.609,12.136-6.773,18.25
		c-0.753,2.07-2.069,2.258-3.857,2.258c-1.787,0-2.539-0.752-3.01-2.352c-2.54-7.525-5.08-15.052-7.62-22.672
		c-0.188-0.564-0.47-1.223-0.847-2.257c-1.223,3.48-2.163,6.397-3.198,9.408c-1.693,5.079-3.387,10.159-5.08,15.239
		c-0.471,1.505-1.035,2.728-3.011,2.634c-2.916-0.094-3.104-0.094-4.045-2.445c-3.856-10.16-7.714-20.32-11.57-30.574
		c-0.377-1.129-1.411-2.446,0.47-3.198c1.882-0.752,3.951-0.094,4.609,1.505c1.129,2.917,2.164,5.927,3.293,8.843
		c2.069,5.644,4.233,11.289,6.303,16.838C547.156,410.252,547.344,410.534,547.72,411.287z"/>
	<path fill="#FFFFFF" d="M252.614,411.852c-0.564,0.564-0.753,0.846-0.94,1.129c-6.491,9.595-23.519,8.937-29.351-2.822
		c-3.011-6.115-3.011-12.418-0.188-18.626c5.55-11.947,22.859-13.076,29.633-3.011c0.188,0.282,0.376,0.471,0.94,1.035
		c0-1.882,0-3.292,0-4.798c0-1.788,0.564-2.258,2.54-2.352c2.164,0,2.822,0.471,2.822,2.258c0,10.63,0,21.166,0,31.797
		c0,1.881-0.47,2.258-2.822,2.258c-2.069,0-2.54-0.377-2.54-2.258C252.614,415.144,252.614,413.732,252.614,411.852z
		 M238.973,414.674c7.996,0,13.734-5.833,13.734-13.924c0-8.372-5.832-14.204-14.11-14.11c-7.62,0-13.076,5.833-13.076,14.017
		C225.427,408.936,230.977,414.674,238.973,414.674z"/>
	<path fill="#FFFFFF" d="M367.006,400.563c-0.188,4.422,1.129,7.902,4.327,10.631c5.456,4.609,14.299,4.797,20.79,0.375
		c0.941-0.658,1.882-1.316,3.104-0.47c1.693,1.224,1.787,2.54,0.188,3.951c-2.822,2.352-6.021,3.763-9.689,4.233
		c-4.327,0.658-8.561,0.376-12.606-1.223c-7.619-3.011-12.417-10.631-11.665-18.439c0.941-9.125,6.962-15.992,15.429-17.497
		c4.516-0.752,8.937-0.376,12.981,1.788c5.927,3.104,8.561,8.373,9.125,14.77c0.188,1.787-1.129,1.881-2.54,1.881
		c-9.125,0-18.25,0-27.375,0C368.511,400.563,367.853,400.563,367.006,400.563z M393.441,396.235
		c-1.317-6.679-6.585-10.254-13.829-9.689c-6.773,0.564-11.57,5.926-11.759,9.689C376.32,396.235,384.785,396.235,393.441,396.235z"
		/>
	<path fill="#FFFFFF" d="M527.212,400.656c0,10.537-8.467,18.909-19.19,18.814c-10.536,0-19.003-8.467-19.003-18.908
		c0-10.348,8.654-18.909,19.003-18.909C518.558,381.654,527.212,390.214,527.212,400.656z M508.209,414.674
		c7.432,0,13.641-6.397,13.547-13.924c-0.094-7.808-6.209-14.11-13.641-14.11c-7.525,0-13.641,6.397-13.547,14.3
		C494.569,408.559,500.684,414.674,508.209,414.674z"/>
	<path fill="#FFFFFF" d="M439.254,372.435c0,6.397,0,12.512,0,18.909c0.753,0,1.411,0,1.976,0c5.927,0,11.947,0,17.874,0
		c2.163,0,2.916,0.659,2.822,2.446c0,1.788-0.659,2.258-2.822,2.258c-6.585,0-13.076,0-19.85,0c0,0.658-0.094,1.317-0.094,1.976
		c0,5.927,0,11.947,0,17.874c0,2.258-0.471,2.729-2.729,2.729c-2.54,0-2.916-0.283-2.916-2.635c0-15.24,0-30.385,0-45.625
		c0-2.258,0.47-2.728,2.728-2.728c8.843,0,17.592,0,26.435,0c1.976,0,2.634,0.564,2.634,2.352c0,1.788-0.47,2.352-2.539,2.352
		c-7.056,0-14.018,0-21.073,0C440.854,372.435,440.101,372.435,439.254,372.435z"/>
	<path fill="#FFFFFF" d="M414.513,382.5c1.693,0,3.104,0,4.609,0c1.6,0,1.6,1.035,1.6,2.164s0.188,2.258-1.506,2.258
		c-1.505,0-2.916,0-4.703,0c0,0.847,0,1.505,0,2.258c0,8.938,0,17.874-0.094,26.811c0,0.847-0.471,2.352-1.035,2.54
		c-1.129,0.376-2.54,0.282-3.763-0.094c-0.471-0.095-0.753-1.505-0.753-2.258c0-9.031,0-18.062,0.094-27.187c0-0.564,0-1.129,0-2.07
		c-1.505,0-2.916-0.094-4.327,0c-1.787,0.094-1.787-1.035-1.881-2.352c0-1.317,0.282-2.258,1.881-2.07c0.095,0,0.095,0,0.188,0
		c4.233-0.094,4.233-0.094,4.703-4.327c0.188-1.505,0.377-2.917,0.471-4.421c0.094-1.693,1.035-2.258,2.634-2.164
		c1.693,0.094,1.976,0.941,1.882,2.352C414.513,376.668,414.513,379.49,414.513,382.5z"/>
	<path fill="#FFFFFF" d="M474.343,393.319c0-7.526,0-15.146,0-22.671c0-2.258,0.471-2.822,2.634-2.822
		c2.353,0,2.822,0.47,2.822,2.822c0,15.146,0,30.292,0,45.437c0,2.541-2.445,3.951-4.515,2.541
		c-0.564-0.377-0.941-1.506-0.941-2.258C474.249,408.559,474.343,400.939,474.343,393.319z"/>
</g>
</svg>
