<svg xmlns="http://www.w3.org/2000/svg" viewBox="0 0 159.73 57.13"><defs><style>.cls-1{fill:#231815;}.cls-2{fill:#a48a40;}.cls-3{fill:#dcdddd;}</style></defs><title>资源 1</title><g id="图层_2" data-name="图层 2"><g id="圖層_1" data-name="圖層 1"><rect class="cls-1" width="159.73" height="57.13"/><path class="cls-2" d="M41.85,19.51a48.76,48.76,0,0,1,10.59,4.3V13.36H18.35v6.36C21.08,16.64,31.27,16.5,41.85,19.51Z"/><path class="cls-2" d="M39,34.25l-6.49,12h20V34.08A46.55,46.55,0,0,1,39,34.25Z"/><path class="cls-2" d="M33.48,31.88C35,27.38,44.85,26.68,51,27.72c-8.52-2.27-16.29-1.44-19.26,1.62a2.19,2.19,0,0,0-.69,2c-4.07-.46-4.45-2.1-4.15-3a1.38,1.38,0,0,1,.06-.19h0l.13-.2C29.5,24.3,41.22,24.31,51.1,26.3l-.37-.08c-8.58-2.73-21.25-2.94-24.62.61a1.87,1.87,0,0,0-.35,2.33c-3.27-.49-3.19-2.15-3-2.86a2.87,2.87,0,0,1,.3-.67c2.44-4.07,14.8-4.32,27.6-.56.17.05.33.09.49.15-12.74-5.12-26.48-4.63-29.29-.4a2.49,2.49,0,0,0-.48,1.69l0,0h0a2.45,2.45,0,0,1-1.93-1.86,2.7,2.7,0,0,1,.34-1.8c2.19-3.73,13.47-4.07,25.18-.75a59,59,0,0,1,6.32,2.17C38.73,17.54,21.15,17.71,18.81,22a3.48,3.48,0,0,0-.46,1.62s0-.08,0-.11v8.74a14.92,14.92,0,0,0,1,5.73,13.27,13.27,0,0,0,3,4.45,13.1,13.1,0,0,0,4.51,2.89,13.83,13.83,0,0,0,2.26.64l.14,0a20,20,0,0,0,2.31.2Z"/><path class="cls-3" d="M63.14,18.42c0-2.5,0-3,0-3.49s-.19-.74-.74-.89A3,3,0,0,0,61.7,14c-.17,0-.29-.06-.29-.18s.14-.15.39-.15c.89,0,2,0,2.46,0s1.75,0,2.78,0c2.13,0,5,0,6.87,1.88a5.8,5.8,0,0,1,1.61,4.19,6.39,6.39,0,0,1-1.86,4.6,8,8,0,0,1-5.73,1.94c-.62,0-1.35-.06-2-.1s-1.31-.09-1.73-.09l-1,0c-.41,0-.84,0-1.19,0s-.33-.06-.33-.18.06-.17.28-.17a2.47,2.47,0,0,0,.6-.06c.35-.08.45-.39.5-.87.08-.7.08-2,.08-3.52Zm2.29,1.83c0,1.74,0,3,0,3.33a3.15,3.15,0,0,0,.19,1.17c.22.31.9.66,2.23.66a5.36,5.36,0,0,0,3.73-1.13c1.11-.91,1.45-2.38,1.45-4.09a5.37,5.37,0,0,0-1.59-4.12,6.91,6.91,0,0,0-4.77-1.57,3.55,3.55,0,0,0-1,.12.29.29,0,0,0-.21.33c0,.56,0,1.92,0,3.22Z"/><path class="cls-3" d="M80.53,18.42c0-2.5,0-3,0-3.49s-.19-.74-.74-.89A2.94,2.94,0,0,0,79.1,14c-.18,0-.3-.06-.3-.18s.14-.15.39-.15c.89,0,2,0,2.47,0s4.32,0,4.65,0a6.88,6.88,0,0,0,.72-.1,2.46,2.46,0,0,1,.27-.08c.1,0,.12.08.12.16a6.91,6.91,0,0,0-.14,1.06c0,.18,0,.9-.09,1.09s-.06.27-.2.27-.13-.07-.13-.21a1.48,1.48,0,0,0-.12-.6c-.13-.29-.27-.53-1.13-.6-.29,0-2.32-.08-2.67-.08-.08,0-.12.06-.12.15v4.08c0,.1,0,.18.12.18.39,0,2.6,0,3,0s.65-.08.81-.26.2-.21.27-.21a.16.16,0,0,1,.14.18c0,.09,0,.36-.14,1.2,0,.33-.07,1-.07,1.1s0,.37-.18.37-.15-.06-.15-.13,0-.39-.06-.61-.31-.58-1-.64c-.32,0-2.26-.07-2.68-.07-.08,0-.1.07-.1.17v1.32c0,.57,0,2,0,2.45,0,1.12.56,1.37,2.31,1.37A4.47,4.47,0,0,0,86.74,25c.43-.19.62-.54.74-1.22,0-.18.08-.26.19-.26s.16.22.16.39a10.9,10.9,0,0,1-.24,1.83c-.11.42-.27.42-.91.42-1.28,0-2.31,0-3.14-.05s-1.48,0-2,0l-1,0c-.41,0-.84,0-1.19,0s-.32-.06-.32-.18,0-.17.27-.17a2.47,2.47,0,0,0,.6-.06c.35-.08.45-.39.5-.87.08-.7.08-2,.08-3.52Z"/><path class="cls-3" d="M92.23,25.91c-.27-.11-.33-.19-.33-.56,0-.89.08-1.92.1-2.19s.08-.43.22-.43.17.15.17.27a3.46,3.46,0,0,0,.15.86,2.65,2.65,0,0,0,2.72,1.63,2.14,2.14,0,0,0,2.37-2.1c0-.72-.17-1.43-1.69-2.33l-1-.58c-2-1.18-2.68-2.29-2.68-3.75,0-2,1.94-3.31,4.31-3.31a10,10,0,0,1,2.43.27c.15,0,.23.09.23.21s-.06.68-.06,2c0,.35-.08.52-.21.52s-.18-.09-.18-.29A1.89,1.89,0,0,0,98.35,15a2.31,2.31,0,0,0-1.9-.78c-1.23,0-2.33.64-2.33,1.77,0,.73.27,1.31,1.8,2.17l.7.39c2.25,1.24,2.95,2.5,2.95,4a3.53,3.53,0,0,1-1.71,3.09,5,5,0,0,1-2.85.68A7.29,7.29,0,0,1,92.23,25.91Z"/><path class="cls-3" d="M104.72,18.42c0-2.5,0-3,0-3.49s-.22-.76-.59-.87a2.07,2.07,0,0,0-.62-.08c-.17,0-.27,0-.27-.2s.14-.13.41-.13c.64,0,1.8,0,2.29,0s1.53,0,2.19,0c.21,0,.35,0,.35.13s-.1.2-.27.2a2.35,2.35,0,0,0-.51.06c-.46.07-.6.31-.64.89s0,1,0,3.49v2.91c0,1.59,0,2.91.08,3.61.06.45.18.7.68.78a6.25,6.25,0,0,0,.87.06c.2,0,.28.09.28.17s-.14.18-.33.18c-1.13,0-2.29-.06-2.76-.06s-1.55.06-2.23.06c-.21,0-.33-.06-.33-.18s.06-.17.27-.17a2.41,2.41,0,0,0,.6-.06c.35-.08.45-.31.51-.8.08-.68.08-2,.08-3.59Z"/><path class="cls-3" d="M124.3,25c0,.45,0,.47-.22.58a10.3,10.3,0,0,1-4.17.74c-4.19,0-7.9-1.9-7.9-6.46a6.12,6.12,0,0,1,3-5.4,8.56,8.56,0,0,1,4.6-1.06,19.32,19.32,0,0,1,3,.27,13.28,13.28,0,0,0,1.36.17c.19,0,.23.08.23.2a21.57,21.57,0,0,0-.12,2.71c0,.25-.09.37-.23.37s-.16-.08-.17-.21a2.21,2.21,0,0,0-.59-1.36,5.28,5.28,0,0,0-3.7-1.26,4.79,4.79,0,0,0-3.3,1,4.82,4.82,0,0,0-1.57,4c0,3.55,2.29,6.13,5.93,6.13a2.75,2.75,0,0,0,1.21-.18.54.54,0,0,0,.33-.58V23.16c0-.82,0-1.44,0-1.94s-.2-.74-.74-.9a3,3,0,0,0-.66-.06c-.16,0-.27-.07-.27-.17s.13-.15.37-.15c.89,0,2.11,0,2.62,0l2,0c.23,0,.34,0,.34.15s-.09.17-.21.17a2.4,2.4,0,0,0-.47.06c-.46.08-.63.31-.65.9s0,1.16,0,2Z"/><path class="cls-3" d="M131.6,23.88c0,1.28.25,1.66.58,1.78a2.8,2.8,0,0,0,.89.12c.2,0,.29.07.29.17s-.15.18-.39.18c-1.1,0-1.9-.06-2.21-.06-.15,0-1,.06-1.84.06-.23,0-.39,0-.39-.18s.12-.17.27-.17a3.5,3.5,0,0,0,.78-.08c.45-.12.5-.56.52-2l.16-9.78c0-.33.11-.56.29-.56s.45.25.74.54,2.77,2.83,5.25,5.26c1.17,1.14,3.44,3.47,3.69,3.7h.08l-.18-7.33c0-1-.17-1.3-.58-1.45a2.77,2.77,0,0,0-.89-.1c-.21,0-.27-.08-.27-.18s.17-.15.43-.15c.89,0,1.8,0,2.17,0,.19,0,.83,0,1.67,0,.23,0,.39,0,.39.15s-.1.18-.3.18a1.66,1.66,0,0,0-.52.06c-.46.13-.6.42-.62,1.35l-.19,10.41c0,.36-.14.52-.28.52a1.05,1.05,0,0,1-.7-.35c-1.06-1-3.2-3-5-4.75s-3.67-3.79-4-4.08h-.06Z"/><path class="cls-3" d="M65.33,41.38c-.09,0-.11,0-.15.12l-.91,2.21a3,3,0,0,0-.26,1c0,.29.16.47.68.47H65c.21,0,.25.08.25.17s-.1.18-.27.18c-.57,0-1.36-.06-1.9-.06-.18,0-1.09.06-2,.06-.21,0-.31,0-.31-.18s.06-.17.2-.17l.5,0c.78-.12,1.07-.62,1.42-1.46l4.46-10.38c.2-.47.33-.66.51-.66s.33.16.5.52c.41.92,3.26,7.67,4.35,10.17.66,1.5,1.14,1.71,1.45,1.77a4.11,4.11,0,0,0,.64.06c.16,0,.24.06.24.17s-.1.18-.74.18-1.84,0-3.28,0c-.31,0-.5,0-.5-.14s0-.15.21-.17a.26.26,0,0,0,.15-.37L69.52,41.5a.15.15,0,0,0-.17-.12ZM69,40.47c.08,0,.1,0,.08-.1l-1.61-4.19s0-.15-.08-.15-.08.1-.1.15l-1.65,4.17c0,.08,0,.12.06.12Z"/><path class="cls-3" d="M77.33,34.67c-.22-.6-.35-1-.6-1.14a1.38,1.38,0,0,0-.66-.14q-.27,0-.27-.18c0-.11.13-.15.38-.15.88,0,1.83,0,2,0s1,0,2,0c.25,0,.37,0,.37.15s-.14.18-.31.18a1.09,1.09,0,0,0-.43.08c-.15.06-.17.15-.17.33A9,9,0,0,0,80,35.31c.29,1.09,1.84,6.07,2.09,6.83h.06l3.26-8.42c.18-.47.35-.6.51-.6s.35.25.56.77L89.86,42h.06c.33-1,1.63-5.3,2.23-7.23a3.36,3.36,0,0,0,.18-.94c0-.28-.16-.47-.84-.47-.15,0-.29-.08-.29-.18s.14-.15.41-.15c.89,0,1.67,0,1.82,0s.86,0,1.42,0c.19,0,.31,0,.31.13s-.08.2-.23.2a2.11,2.11,0,0,0-.6.08c-.41.15-.6.77-1,1.72-.8,2.08-2.55,7.32-3.38,9.79-.19.58-.29.77-.54.77s-.35-.19-.61-.79l-3.47-8.14h0c-.29.7-2.58,6.54-3.28,8.06-.31.68-.4.87-.66.87s-.31-.17-.46-.6Z"/><path class="cls-3" d="M100.41,41.38c-.1,0-.12,0-.16.12l-.91,2.21a2.88,2.88,0,0,0-.25,1c0,.29.15.47.68.47H100c.21,0,.25.08.25.17s-.1.18-.27.18c-.56,0-1.36-.06-1.9-.06-.18,0-1.09.06-2,.06-.22,0-.31,0-.31-.18a.17.17,0,0,1,.19-.17l.5,0c.78-.12,1.07-.62,1.42-1.46l4.47-10.38c.19-.47.33-.66.5-.66s.33.16.5.52c.41.92,3.26,7.67,4.35,10.17.66,1.5,1.15,1.71,1.46,1.77a3.91,3.91,0,0,0,.64.06c.15,0,.23.06.23.17s-.1.18-.74.18-1.84,0-3.28,0c-.31,0-.5,0-.5-.14s0-.15.21-.17a.27.27,0,0,0,.16-.37L104.6,41.5a.17.17,0,0,0-.18-.12Zm3.64-.91c.08,0,.1,0,.08-.1l-1.61-4.19s0-.15-.08-.15-.07.1-.09.15l-1.65,4.17c0,.08,0,.12,0,.12Z"/><path class="cls-3" d="M114.85,37.83c0-2.5,0-3,0-3.49s-.2-.74-.74-.89a3.1,3.1,0,0,0-.68-.06c-.17,0-.29-.06-.29-.18s.13-.15.39-.15c.89,0,2,0,2.33,0l2.66,0a6,6,0,0,1,3.24.7,2.89,2.89,0,0,1,1.2,2.27c0,1.22-.7,2.31-2.37,3.65,1.51,1.86,2.72,3.35,3.75,4.38a3.23,3.23,0,0,0,1.82,1.09,1.57,1.57,0,0,0,.41,0,.2.2,0,0,1,.21.17c0,.14-.11.18-.33.18H124.8a3.71,3.71,0,0,1-1.86-.33,7.74,7.74,0,0,1-2.33-2.43c-.68-.89-1.4-2-1.61-2.25a.4.4,0,0,0-.31-.12l-1.53,0a.13.13,0,0,0-.14.14v.23c0,1.54,0,2.82.1,3.52.06.48.13.79.66.87a6.23,6.23,0,0,0,.83.06.19.19,0,0,1,.21.17c0,.12-.13.18-.34.18-1,0-2.41-.06-2.66-.06s-1.42.06-2.1.06c-.21,0-.33-.06-.33-.18s.06-.17.27-.17a2.36,2.36,0,0,0,.6-.06c.35-.08.45-.39.51-.87.08-.7.08-2,.08-3.52ZM117,39.11c0,.18,0,.24.16.3a4.88,4.88,0,0,0,1.3.15,1.74,1.74,0,0,0,1.2-.27,2.81,2.81,0,0,0,1.1-2.45,2.59,2.59,0,0,0-2.6-2.93,5.9,5.9,0,0,0-1,.06.2.2,0,0,0-.16.23Z"/><path class="cls-3" d="M131.07,37.83c0-2.5,0-3,0-3.49s-.19-.74-.73-.89a3.1,3.1,0,0,0-.68-.06c-.18,0-.3-.06-.3-.18s.14-.15.39-.15c.9,0,2,0,2.47,0s1.75,0,2.77,0c2.14,0,5,0,6.87,1.88a5.76,5.76,0,0,1,1.61,4.19,6.39,6.39,0,0,1-1.86,4.6,8,8,0,0,1-5.72,1.94c-.63,0-1.36-.06-2-.09s-1.3-.1-1.73-.1l-1,0c-.41,0-.83,0-1.18,0s-.33-.06-.33-.18.06-.17.27-.17a2.41,2.41,0,0,0,.6-.06c.35-.08.45-.39.51-.87.07-.7.07-2,.07-3.52Zm2.29,1.83c0,1.74,0,3,0,3.33a3,3,0,0,0,.2,1.17c.21.31.89.66,2.23.66a5.33,5.33,0,0,0,3.72-1.13c1.11-.91,1.46-2.38,1.46-4.09a5.4,5.4,0,0,0-1.59-4.12,6.93,6.93,0,0,0-4.78-1.57,3.43,3.43,0,0,0-1,.12.29.29,0,0,0-.22.33c0,.56,0,1.92,0,3.22Z"/></g></g></svg>