<?xml version="1.0" encoding="UTF-8"?>
<!DOCTYPE svg PUBLIC "-//W3C//DTD SVG 1.1//EN" "http://www.w3.org/Graphics/SVG/1.1/DTD/svg11.dtd">
<!-- Creator: CorelDRAW X6 -->
<svg xmlns="http://www.w3.org/2000/svg" xml:space="preserve" width="209.617mm" height="43.3321mm" version="1.1" style="shape-rendering:geometricPrecision; text-rendering:geometricPrecision; image-rendering:optimizeQuality; fill-rule:evenodd; clip-rule:evenodd"
viewBox="0 0 4886 1010"
 xmlns:xlink="http://www.w3.org/1999/xlink">
 <defs>
  <style type="text/css">
   <![CDATA[
    .fil0 {fill:#FEFEFE;fill-rule:nonzero}
   ]]>
  </style>
 </defs>
 <g id="图层_x0020_1">
  <metadata id="CorelCorpID_0Corel-Layer"/>
  <path class="fil0" d="M4596 507c0,-57 7,-100 20,-131 13,-30 35,-46 65,-46 30,0 52,16 66,49 14,33 22,76 22,131 0,55 -7,100 -21,133 -14,33 -37,50 -69,50 -32,0 -54,-15 -66,-44 -12,-29 -18,-77 -18,-142zm173 -507l0 321 -2 0c-10,-24 -25,-45 -45,-61 -20,-16 -46,-24 -77,-24 -51,0 -91,24 -120,73 -29,48 -44,116 -44,204 0,38 3,74 10,107 6,33 16,63 30,88 13,25 31,45 52,59 21,14 46,21 74,21 34,0 60,-8 80,-25 20,-17 35,-39 46,-66l3 0c0,35 1,62 4,83l106 0c-2,-17 -4,-48 -4,-91l0 -688 -114 0zm-488 548c0,50 -7,88 -22,114 -15,26 -38,39 -71,39 -22,0 -40,-8 -53,-23 -13,-15 -20,-35 -20,-59 0,-37 13,-64 39,-78 26,-15 65,-22 116,-22l10 0 0 30zm-217 -168c14,-13 33,-25 56,-36 23,-11 48,-16 73,-16 31,0 53,10 67,29 14,19 21,44 21,73l0 20 -23 0c-38,0 -73,3 -102,8 -30,6 -55,15 -77,29 -22,14 -39,32 -51,56 -12,24 -18,54 -18,89 0,48 14,86 42,114 28,28 61,43 99,43 31,0 57,-7 77,-21 20,-14 38,-34 55,-60l2 0c0,33 2,57 6,73l103 0c-2,-12 -3,-27 -5,-44 -1,-17 -2,-34 -2,-51l0 -234c0,-36 -3,-67 -8,-93 -5,-26 -15,-48 -28,-66 -13,-18 -31,-32 -55,-42 -24,-10 -53,-15 -89,-15 -32,0 -59,4 -81,11 -22,7 -45,17 -68,29l6 104zm-481 -223l39 0c64,0 112,23 144,69 32,46 48,110 48,192 0,82 -16,147 -48,192 -32,46 -80,69 -144,69l-39 0 0 -522zm-117 623l167 0c93,0 167,-31 223,-93 56,-62 83,-152 83,-270 0,-120 -26,-210 -78,-271 -52,-61 -128,-91 -228,-91l-167 0 0 725zm-489 0l114 0 0 -312c0,-37 6,-68 19,-91 13,-23 33,-35 61,-35 23,0 40,9 50,27 10,18 15,48 15,89l0 321 114 0 0 -345c0,-28 -2,-55 -7,-78 -5,-24 -12,-45 -23,-63 -11,-18 -25,-32 -43,-42 -18,-10 -40,-15 -66,-15 -31,0 -55,7 -71,21 -16,14 -32,33 -46,56l-3 0 0 -313 -114 0 0 779zm-78 -115c-9,6 -21,12 -37,18 -16,6 -31,8 -44,8 -42,0 -73,-16 -96,-49 -22,-33 -33,-75 -33,-127 0,-59 10,-104 30,-134 20,-30 51,-46 93,-46 14,0 27,2 40,7 13,5 26,11 39,19l6 -102c-12,-6 -28,-11 -46,-15 -19,-4 -36,-7 -53,-7 -38,0 -72,7 -101,21 -29,14 -53,34 -71,59 -19,25 -33,54 -42,88 -9,34 -14,70 -14,109 0,39 4,75 13,108 9,33 22,62 40,87 18,25 42,45 70,59 28,14 61,21 99,21 21,0 42,-2 61,-6 19,-4 36,-9 51,-16l-6 -102zm-678 -198c0,-39 7,-73 21,-101 14,-28 35,-42 63,-42 53,0 79,47 79,142l-163 0zm244 186c-15,12 -31,23 -49,30 -18,8 -43,11 -74,11 -43,0 -73,-12 -92,-37 -19,-25 -28,-61 -28,-109l273 0 0 -25c0,-53 -5,-98 -15,-135 -10,-37 -23,-67 -40,-89 -17,-22 -37,-38 -60,-48 -23,-10 -47,-15 -74,-15 -29,0 -56,7 -80,21 -24,14 -45,34 -62,60 -17,26 -30,56 -39,90 -9,34 -13,72 -13,112 0,37 4,72 13,104 9,32 22,60 40,85 18,25 41,44 69,58 28,14 60,21 97,21 29,0 55,-3 78,-10 23,-7 44,-15 63,-24l-5 -102zm-595 128l117 0 0 -619 142 0 0 -106 -402 0 0 106 143 0 0 619zm-589 0l114 0 0 -312c0,-37 6,-68 19,-91 13,-23 33,-35 61,-35 23,0 40,9 50,27 10,18 15,48 15,89l0 321 114 0 0 -345c0,-28 -2,-55 -7,-78 -5,-24 -12,-45 -23,-63 -11,-18 -25,-32 -43,-42 -18,-10 -40,-15 -66,-15 -31,0 -55,7 -71,21 -16,14 -32,33 -46,56l-3 0 0 -313 -114 0 0 779zm-486 197c21,8 45,16 72,23 27,7 57,10 90,10 42,0 77,-7 106,-21 28,-14 51,-33 67,-59 16,-25 28,-55 35,-89 7,-34 10,-74 10,-118l0 -395c0,-19 1,-47 4,-84l-103 0c0,5 -1,16 -2,33 -1,21 -2,37 -2,50l-4 0c-15,-28 -31,-51 -50,-67 -19,-16 -44,-24 -75,-24 -30,0 -56,7 -77,22 -22,15 -39,35 -53,60 -14,26 -24,55 -30,88 -6,33 -10,69 -10,107 0,51 5,94 16,129 10,35 24,63 40,83 16,20 34,34 53,42 19,8 38,12 56,12 33,0 59,-8 78,-25 19,-17 35,-39 46,-65l2 0 0 51c0,24 -2,45 -5,64 -3,19 -9,37 -18,52 -9,16 -21,28 -38,37 -17,9 -38,14 -64,14 -26,0 -51,-5 -75,-14 -24,-9 -21,-8 -40,-18l-31 101zm96 -471c0,-57 7,-100 20,-128 13,-29 34,-43 63,-44 28,0 50,15 67,45 16,30 25,72 25,127 0,62 -8,107 -23,136 -16,29 -41,44 -77,44 -21,0 -38,-15 -53,-45 -14,-30 -22,-75 -22,-134zm-334 273l114 0 0 -535 -114 0 0 535zm-557 0l117 0 0 -320 190 0 0 320 117 0 0 -725 -117 0 0 295 -190 0 0 -295 -117 0 0 725zm616 -758c33,0 60,27 60,60 0,33 -27,60 -60,60 -33,0 -60,-27 -60,-60 0,-33 27,-60 60,-60z"/>
 </g>
</svg>
