<?xml version="1.0" encoding="utf-8"?>
<!-- Generator: Adobe Illustrator 16.0.0, SVG Export Plug-In . SVG Version: 6.00 Build 0)  -->
<!DOCTYPE svg PUBLIC "-//W3C//DTD SVG 1.1//EN" "http://www.w3.org/Graphics/SVG/1.1/DTD/svg11.dtd">
<svg version="1.1" id="图层_1" xmlns="http://www.w3.org/2000/svg" xmlns:xlink="http://www.w3.org/1999/xlink" x="0px" y="0px"
	 width="150px" height="150.608px" viewBox="424.319 426.048 150 150.608" enable-background="new 424.319 426.048 150 150.608"
	 xml:space="preserve">
<path id="形状_4" fill="#FFFFFF" d="M546.577,576.657h-94.516c-15.336-0.016-27.757-12.462-27.742-27.798c0-0.009,0-0.017,0-0.025
	v-94.963c-0.029-15.337,12.38-27.793,27.717-27.822c0.008,0,0.017,0,0.024,0h94.516c15.337,0.015,27.758,12.461,27.742,27.798
	c0,0.008,0,0.016,0,0.024v94.963c0.028,15.337-12.381,27.794-27.717,27.823C546.595,576.657,546.585,576.657,546.577,576.657z
	 M559.21,548.428v-94.151c0.014-7.197-5.8-13.047-12.997-13.079h-93.745c-7.211,0.014-13.047,5.868-13.038,13.079v94.151
	c-0.009,7.211,5.827,13.064,13.038,13.078h93.745C553.41,561.475,559.224,555.625,559.21,548.428L559.21,548.428z M537.236,501.555
	c-0.089,20.952-17.147,37.863-38.099,37.774c-20.952-0.09-37.863-17.147-37.774-38.099c0.09-20.888,17.048-37.773,37.936-37.774
	c20.994,0.042,37.98,17.096,37.937,38.09C537.236,501.549,537.236,501.552,537.236,501.555L537.236,501.555z M499.299,476.86
	c-13.639-0.067-24.749,10.935-24.816,24.573c-0.067,13.639,10.935,24.75,24.574,24.817c13.638,0.066,24.749-10.935,24.816-24.574
	c0-0.041,0-0.081,0-0.122C523.902,487.952,512.902,476.898,499.299,476.86L499.299,476.86z M550.68,461.954
	c-0.011,5.395-4.394,9.759-9.788,9.748c-5.396-0.011-9.76-4.394-9.749-9.789c0.012-5.379,4.369-9.737,9.749-9.748
	C546.295,452.172,550.673,456.55,550.68,461.954L550.68,461.954z"/>
</svg>
