<?xml version="1.0" encoding="utf-8"?>
<!-- Generator: Adobe Illustrator 23.0.0, SVG Export Plug-In . SVG Version: 6.00 Build 0)  -->
<svg version="1.1" id="图层_1" xmlns="http://www.w3.org/2000/svg" xmlns:xlink="http://www.w3.org/1999/xlink" x="0px" y="0px"
	 viewBox="0 0 37.98 37.98" style="enable-background:new 0 0 37.98 37.98;" xml:space="preserve">
<style type="text/css">
	.st0{fill:#FFFFFF;}
	.st1{fill:none;stroke:#FFFFFF;stroke-width:0.9441;stroke-linecap:round;stroke-miterlimit:10;}
	.st2{fill:none;stroke:#FFFFFF;stroke-width:1.3139;stroke-miterlimit:10;}
	.st3{fill:none;stroke:#FFFFFF;stroke-width:1.3906;stroke-miterlimit:10;}
	.st4{fill:none;stroke:#FFFFFF;stroke-width:0.5226;stroke-miterlimit:10;}
	.st5{fill:none;stroke:#FFFFFF;stroke-width:0.9441;stroke-miterlimit:10;}
	.st6{fill:none;stroke:#FFFFFF;stroke-width:0.5915;stroke-miterlimit:10;}
	.st7{fill:#FFFFFF;stroke:#FFFFFF;stroke-width:0;stroke-miterlimit:10;}
	.st8{fill:none;stroke:#FFFFFF;stroke-miterlimit:10;}
	.st9{fill:none;stroke:#FFFFFF;stroke-linecap:round;stroke-linejoin:round;stroke-miterlimit:10;}
	.st10{fill:none;stroke:#FFFFFF;stroke-width:1.3906;stroke-linecap:round;stroke-miterlimit:10;}
	.st11{fill-rule:evenodd;clip-rule:evenodd;fill:none;stroke:#FFFFFF;stroke-width:1.3906;stroke-miterlimit:10;}
	.st12{fill-rule:evenodd;clip-rule:evenodd;fill:none;stroke:#FFFFFF;stroke-width:0.9441;stroke-miterlimit:10;}
	.st13{fill-rule:evenodd;clip-rule:evenodd;fill:none;stroke:#FFFFFF;stroke-width:0.5915;stroke-miterlimit:10;}
	.st14{fill:none;stroke:#FFFFFF;stroke-width:1.4964;stroke-miterlimit:10;}
	.st15{fill:none;stroke:#FFFFFF;stroke-width:1.4979;stroke-linecap:round;stroke-miterlimit:10;}
	.st16{fill:none;stroke:#FFFFFF;stroke-width:0.4896;stroke-miterlimit:10;}
	.st17{fill:none;stroke:#FFFFFF;stroke-width:0.5515;stroke-miterlimit:10;}
	.st18{fill-rule:evenodd;clip-rule:evenodd;fill:none;stroke:#FFFFFF;stroke-width:1.8871;stroke-miterlimit:10;}
	.st19{fill:none;stroke:#FFFFFF;stroke-width:1.3098;stroke-miterlimit:10;}
	.st20{fill:none;stroke:#FFFFFF;stroke-width:1.8871;stroke-linecap:round;stroke-miterlimit:10;}
	.st21{fill-rule:evenodd;clip-rule:evenodd;fill:none;stroke:#FFFFFF;stroke-width:0.6173;stroke-miterlimit:10;}
	.st22{fill-rule:evenodd;clip-rule:evenodd;fill:none;stroke:#FFFFFF;stroke-width:0.3868;stroke-miterlimit:10;}
	.st23{fill:none;stroke:#FFFFFF;stroke-width:1.6605;stroke-miterlimit:10;}
	.st24{fill-rule:evenodd;clip-rule:evenodd;fill:none;stroke:#FFFFFF;stroke-width:1.4489;stroke-miterlimit:10;}
	.st25{fill-rule:evenodd;clip-rule:evenodd;fill:none;stroke:#FFFFFF;stroke-width:0.9077;stroke-miterlimit:10;}
	.st26{fill:none;stroke:#FFFFFF;stroke-width:0.0145;stroke-miterlimit:10;}
	.st27{fill:none;stroke:#FFFFFF;stroke-width:1.1586;stroke-miterlimit:10;}
	.st28{fill:none;stroke:#FFFFFF;stroke-width:1.3665;stroke-miterlimit:10;}
	.st29{fill:none;stroke:#FFFFFF;stroke-width:1.5609;stroke-miterlimit:10;}
	.st30{fill:none;stroke:#FFFFFF;stroke-width:1.6987;stroke-miterlimit:10;}
	.st31{fill:#221814;stroke:#FFFFFF;stroke-miterlimit:10;}
	.st32{fill:none;stroke:#FFFFFF;stroke-width:1.6838;stroke-miterlimit:10;}
	.st33{fill:none;stroke:#FFFFFF;stroke-width:1.2082;stroke-miterlimit:10;}
	.st34{fill:none;stroke:#FFFFFF;stroke-width:1.1058;stroke-miterlimit:10;}
</style>
<g>
	<g>
		<path class="st0" d="M19.04,3.15c0.28,0.15,0.57,0.29,0.85,0.42c2.84,1.36,5.9,2.05,9.08,2.05c1.09,0,2.17-0.08,3.24-0.25v12.82
			c0,3.94-1.42,7.66-4,10.47c-2.54,2.76-5.69,4.93-9.15,6.29c-3.57-1.41-6.8-3.66-9.36-6.52c-2.53-2.83-3.92-6.52-3.92-10.39V5.35
			c1.1,0.18,2.22,0.26,3.34,0.26c3.18,0,6.23-0.69,9.08-2.05C18.47,3.44,18.75,3.3,19.04,3.15 M19.05,1.68
			c-0.45,0.26-0.92,0.5-1.4,0.73c-2.59,1.23-5.48,1.92-8.53,1.92c-1.59,0-3.14-0.19-4.63-0.54v14.24c0,4.14,1.49,8.16,4.25,11.25
			c2.77,3.1,6.28,5.53,10.25,7.02h0.14c3.86-1.45,7.28-3.79,10.03-6.77c2.83-3.08,4.33-7.15,4.33-11.34V3.81
			c-1.45,0.34-2.97,0.52-4.53,0.52c-3.05,0-5.94-0.69-8.52-1.92C19.96,2.19,19.49,1.95,19.05,1.68L19.05,1.68z"/>
	</g>
</g>
<g>
	<g>
		<path class="st0" d="M19.03,6.11c0.25,0.14,0.5,0.26,0.75,0.38c2.25,1.08,4.68,1.62,7.2,1.62c0.93,0,1.85-0.08,2.76-0.23v10.46
			c0,3.2-1.15,6.22-3.24,8.5c-2.06,2.24-4.64,4-7.46,5.11c-2.91-1.14-5.54-2.96-7.62-5.29c-2.05-2.3-3.19-5.3-3.19-8.44V7.87
			c0.93,0.16,1.88,0.24,2.84,0.24c2.52,0,4.95-0.55,7.21-1.62C18.53,6.37,18.78,6.25,19.03,6.11 M19.03,5.12
			c-0.36,0.21-0.74,0.4-1.12,0.59c-2.07,0.99-4.39,1.54-6.84,1.54c-1.28,0-2.52-0.15-3.71-0.44v11.41c0,3.32,1.19,6.54,3.41,9.01
			c2.22,2.48,5.03,4.43,8.21,5.62h0.12c3.09-1.16,5.84-3.04,8.03-5.42c2.26-2.47,3.47-5.73,3.47-9.08V6.83
			c-1.17,0.27-2.38,0.42-3.63,0.42c-2.45,0-4.76-0.55-6.83-1.54C19.77,5.53,19.39,5.33,19.03,5.12L19.03,5.12z"/>
	</g>
</g>
<g>
	<g>
		<path class="st0" d="M19.02,9.05c0.19,0.1,0.37,0.19,0.56,0.28c1.76,0.84,3.65,1.27,5.62,1.27c0.7,0,1.4-0.06,2.08-0.17v8.06
			c0,2.47-0.89,4.8-2.5,6.56c-1.59,1.73-3.57,3.09-5.75,3.94c-2.24-0.88-4.27-2.29-5.88-4.09c-1.59-1.78-2.46-4.09-2.46-6.51v-7.97
			c0.7,0.12,1.42,0.18,2.15,0.18c1.97,0,3.86-0.43,5.62-1.27C18.65,9.25,18.83,9.15,19.02,9.05 M19.02,8.22
			c-0.28,0.16-0.57,0.31-0.87,0.45c-1.61,0.77-3.41,1.2-5.31,1.2c-0.99,0-1.96-0.12-2.88-0.34v8.86c0,2.58,0.93,5.08,2.65,7
			c1.73,1.93,3.91,3.44,6.38,4.37h0.09c2.4-0.9,4.53-2.36,6.24-4.21c1.76-1.92,2.7-4.45,2.7-7.06V9.54
			c-0.91,0.21-1.85,0.32-2.82,0.32c-1.9,0-3.7-0.43-5.31-1.2C19.59,8.53,19.3,8.38,19.02,8.22L19.02,8.22z"/>
	</g>
</g>
<g>
	<g>
		<path class="st0" d="M19.01,12.05c0.13,0.07,0.25,0.13,0.38,0.19c1.24,0.59,2.57,0.89,3.96,0.89c0.48,0,0.96-0.04,1.43-0.11v5.62
			c0,1.72-0.62,3.35-1.75,4.58c-1.11,1.21-2.49,2.16-4.01,2.75c-1.56-0.62-2.98-1.6-4.1-2.86c-1.11-1.24-1.72-2.86-1.72-4.55v-5.55
			c0.48,0.08,0.98,0.12,1.47,0.12c1.39,0,2.72-0.3,3.96-0.89C18.76,12.18,18.89,12.12,19.01,12.05 M19.01,11.43
			c-0.2,0.11-0.4,0.22-0.61,0.32c-1.13,0.54-2.39,0.84-3.73,0.84c-0.7,0-1.37-0.08-2.02-0.24v6.22c0,1.81,0.65,3.57,1.86,4.92
			c1.21,1.36,2.74,2.41,4.48,3.07h0.06c1.69-0.63,3.18-1.66,4.38-2.96c1.23-1.35,1.89-3.13,1.89-4.96v-6.28
			c-0.64,0.15-1.3,0.23-1.98,0.23c-1.33,0-2.6-0.3-3.73-0.84C19.41,11.65,19.21,11.54,19.01,11.43L19.01,11.43z"/>
	</g>
</g>
<g>
	<g>
		<path class="st0" d="M19,15.04c0.05,0.03,0.11,0.06,0.16,0.08c0.75,0.36,1.56,0.54,2.4,0.54c0.24,0,0.48-0.02,0.71-0.05v3.16
			c0,0.99-0.35,1.92-1,2.62c-0.63,0.69-1.41,1.23-2.27,1.57c-0.89-0.36-1.69-0.92-2.32-1.63c-0.63-0.71-0.98-1.63-0.98-2.6v-3.13
			c0.24,0.03,0.49,0.05,0.74,0.05c0.84,0,1.65-0.18,2.4-0.54C18.89,15.1,18.95,15.07,19,15.04 M19,14.52
			c-0.12,0.07-0.24,0.13-0.36,0.19c-0.67,0.32-1.41,0.5-2.2,0.5c-0.41,0-0.81-0.05-1.2-0.14v3.68c0,1.07,0.38,2.11,1.1,2.9
			c0.72,0.8,1.62,1.43,2.65,1.81h0.04c1-0.37,1.88-0.98,2.59-1.75c0.73-0.8,1.12-1.85,1.12-2.93v-3.71
			c-0.38,0.09-0.77,0.13-1.17,0.13c-0.79,0-1.54-0.18-2.2-0.5C19.24,14.65,19.12,14.59,19,14.52L19,14.52z"/>
	</g>
</g>
</svg>
