<svg id="图层_1" data-name="图层 1" xmlns="http://www.w3.org/2000/svg" viewBox="0 0 150 150"><defs><style>.cls-1,.cls-2,.cls-3{fill:none;stroke:#fff;stroke-miterlimit:10;}.cls-1,.cls-3{stroke-width:3px;}.cls-2{stroke-width:5px;}.cls-3{stroke-linecap:round;}</style></defs><title>icon</title><path class="cls-1" d="M97.27,138.11H52.68a5.56,5.56,0,0,1-3.89-1.56l-8-8a4.64,4.64,0,0,1-1.41-3.3v-100a4.65,4.65,0,0,1,1.32-3.22l8.11-8.46a5.56,5.56,0,0,1,4-1.64H97.19a5.54,5.54,0,0,1,4,1.64l8.12,8.46a4.65,4.65,0,0,1,1.32,3.22v100a4.68,4.68,0,0,1-1.41,3.3l-8,8A5.53,5.53,0,0,1,97.27,138.11Z"/><path class="cls-2" d="M104.36,147.45H45.58a6,6,0,0,1-4-1.45l-10.95-9.66a4.58,4.58,0,0,1-1.61-3.43V17.72a4.58,4.58,0,0,1,1.51-3.34l11-10.24a6,6,0,0,1,4.07-1.53h58.61a6,6,0,0,1,4.07,1.53l11,10.24a4.55,4.55,0,0,1,1.52,3.34V132.91a4.56,4.56,0,0,1-1.62,3.43l-11,9.66A6,6,0,0,1,104.36,147.45Z"/><path class="cls-3" d="M115.58,122.64v5.86a5,5,0,0,1-1.61,3.62l-9.17,8.71a6.47,6.47,0,0,1-4.43,1.7H95.14"/><path class="cls-3" d="M56,142.53H49.57a5.94,5.94,0,0,1-3.94-1.48l-9.49-8.41a5.45,5.45,0,0,1-1.86-4.07v-4.8"/><path class="cls-3" d="M115.32,27.29V21.43a5,5,0,0,0-1.61-3.62L104.55,9.1a6.47,6.47,0,0,0-4.43-1.7H94.89"/><path class="cls-3" d="M56.87,7.4H50.48a5.94,5.94,0,0,0-3.94,1.48l-9.49,8.41a5.44,5.44,0,0,0-1.85,4.07v4.8"/></svg>