<?xml version="1.0" encoding="utf-8"?>
<!-- Generator: Adobe Illustrator 16.0.0, SVG Export Plug-In . SVG Version: 6.00 Build 0)  -->
<!DOCTYPE svg PUBLIC "-//W3C//DTD SVG 1.1//EN" "http://www.w3.org/Graphics/SVG/1.1/DTD/svg11.dtd">
<svg version="1.1" id="图层_1" xmlns="http://www.w3.org/2000/svg" xmlns:xlink="http://www.w3.org/1999/xlink" x="0px" y="0px"
	 width="194px" height="38.98px" viewBox="-5.759 10.01 194 38.98" enable-background="new -5.759 10.01 194 38.98"
	 xml:space="preserve">
<g>
	<path fill="#FFFFFF" d="M75.291,20.109c1.341,0.608,2.38,1.471,3.11,2.591c0.729,1.12,1.09,2.44,1.09,3.97
		c0,1.512-0.359,2.83-1.09,3.96s-1.76,1.99-3.11,2.59c-1.34,0.603-2.93,0.9-4.75,0.9h-4.149v5.681h-4.771V19.2h8.92
		C72.361,19.2,73.951,19.5,75.291,20.109 M73.542,29.311c0.75-0.621,1.12-1.5,1.12-2.631c0-1.16-0.37-2.052-1.12-2.66
		c-0.75-0.619-1.84-0.932-3.271-0.932h-3.889v7.15h3.889C71.712,30.24,72.802,29.93,73.542,29.311"/>
	<rect x="85.821" y="19.2" fill="#FFFFFF" width="4.77" height="20.61"/>
	<polygon fill="#FFFFFF" points="102.689,23.08 96.091,23.08 96.091,19.2 114.053,19.2 114.053,23.08 107.462,23.08 107.462,39.801 
		102.689,39.801 	"/>
	<polygon fill="#FFFFFF" points="127.331,23.88 124.063,31.771 122.529,35.391 120.702,39.801 115.82,39.801 125.001,19.2 
		129.712,19.2 138.932,39.801 133.921,39.801 	"/>
	<polygon fill="#FFFFFF" points="151.529,31.71 148.762,34.59 148.762,39.801 144.021,39.801 144.021,19.2 148.762,19.2 
		148.762,28.82 157.893,19.2 163.189,19.2 154.65,28.38 163.689,39.801 158.122,39.801 	"/>
	<polyline fill="#FFFFFF" points="176.643,23.88 170.021,39.801 165.132,39.801 174.313,19.2 179.021,19.2 188.241,39.801 
		183.241,39.801 	"/>
	<polygon fill="#FFFFFF" points="22.761,20.29 3.041,31.8 -5.759,26.641 22.761,10.01 22.761,10.01 51.291,26.641 42.491,31.8 	"/>
	<polygon fill="#FFFFFF" points="30.642,48.99 9.991,36.939 18.802,31.8 30.642,38.721 42.491,31.8 51.302,36.939 	"/>
</g>
</svg>
