<svg id="图层_1" data-name="图层 1" xmlns="http://www.w3.org/2000/svg" viewBox="0 0 595.3 94"><defs><style>.cls-1{fill:#fff;}</style></defs><title>m-bestslimwallet</title><path class="cls-1" d="M1.3,467.4V375.2H13.2c8.1,0,14.3,1.5,18.4,5.4s6.3,9.9,6.3,19.1c0,4.4-.3,7.7-1.7,10.7s-3.6,5.5-6.7,8.4c3.5,1.8,5.9,5.4,8,11.2a35.82,35.82,0,0,1,1.4,11.3c0,6.9-1.2,13.1-4.3,17.8S26.1,467,18,467.4Zm13.5-54.3c1.2,0,3.8.2,6-1.3s4-4.5,4-10.9-1.7-9.5-4-11a11.14,11.14,0,0,0-6-1.3Zm0,40.8c1.2,0,3.8.2,6-1.4s4-5.2,4-12.7-1.7-11.2-4-12.8-4.9-1.3-6-1.3Zm32.7-78.8H78.4V389H61v24.3H73.5v14.8H61v25.4H78.4v13.9H47.5Zm61.4,24.7c0-3-.1-6.4-1-9s-2.3-4.3-4.4-4.3c-3.5.1-4.6,3.8-4.6,9.2,0,3.1,1.4,6.4,3.5,9.9,1.9,3.5,4.6,7.1,7.2,11a132.09,132.09,0,0,1,8.6,14c2.4,4.6,4.1,9.4,4.1,14.5,0,6.1-1.1,11.9-3.9,16.2s-7.5,7-15,7c-8.6,0-13.5-3.2-16.3-8.3s-3.3-11.7-3.3-18.6l13.3-1.3c0,4,.1,7.9,1.1,10.7,1,3,2.5,5.1,5.3,5.1,4,0,5.5-4.3,5.5-10.1,0-3-1.5-6.6-3.5-10.2-1.2-1.7-2.3-3.6-3.6-5.5-2.6-3.8-5.5-8-8.5-12.6a49.82,49.82,0,0,1-6.6-14.3,23.25,23.25,0,0,1-1.2-7.3c0-5.1,1.2-10.5,4-14.6a16.47,16.47,0,0,1,13.7-7c8.2-.1,12.9,3.2,15.5,8.2s3.5,11.1,3.5,16.3ZM125.3,389V375.1h39.1V389H151.6v78.3H138.1V389Zm67.4,10.8c0-3-.1-6.4-1-9s-2.3-4.3-4.4-4.3c-3.6.1-4.6,3.8-4.6,9.2,0,3.1,1.4,6.4,3.3,9.9s4.6,7.1,7.3,11a132.09,132.09,0,0,1,8.6,14,31.28,31.28,0,0,1,4,14.5c0,6.1-1,11.9-3.9,16.2s-7.5,7-14.9,7c-8.6,0-13.6-3.2-16.3-8.3s-3.5-11.7-3.5-18.6l13.4-1.3c0,4,.1,7.9,1.1,10.7.9,3,2.4,5.1,5.3,5.1,4,0,5.5-4.3,5.5-10.1,0-3-1.5-6.6-3.6-10.2-1.1-1.7-2.2-3.6-3.5-5.5-2.6-3.8-5.5-8-8.5-12.6a53,53,0,0,1-6.7-14.3,23.11,23.11,0,0,1-1.1-7.3c0-5.1,1.1-10.5,4-14.6a16.33,16.33,0,0,1,13.7-7c8.1-.1,12.8,3.2,15.5,8.2s3.3,11.1,3.3,16.3Zm21.1-24.7h13.5v79.6h18v12.6H213.8Zm37.5,0h13.6v92.2H251.3V375.1ZM298,467.4l-8.7-57.9-.5-3.9H288v61.8H275.5V375.2h16.6l8,42.2.6,4.9h.2l.6-4.9,8-42.2h16.6v92.2H313.5V405.6h-.8l-.4,3.9-8.6,57.9Zm58.1,0H345.6l-12.5-92.2h12.6l5.4,47.9.2,3h1l.4-3,5.7-47.9h9.8L374,423l.3,3h1.1l.2-3,5.4-47.9h12.5l-12.4,92.2H370.6l-6.3-43.7-.8-5.4H363l-.8,5.4Zm40.9,0,13.9-92.2h16.5l13.9,92.2H428.1l-2.5-18.9h-13l-2.5,18.9Zm23-62.3-.4-2.4h-.8l-.3,2.4-3.9,29.1h9.3Zm28.1-30h13.6v79.6h17.9v12.6H448.1Zm37.5,0h13.6v79.6h17.9v12.6H485.6V375.1Zm37.7,0h30.9V389H536.7v24.3h12.5v14.8H536.7v25.4h17.5v13.9H523.3ZM557.6,389V375.1h39V389H583.9v78.3H570.3V389Z" transform="translate(-1.3 -374.3)"/></svg>