<svg id="图层_1" data-name="图层 1" xmlns="http://www.w3.org/2000/svg" viewBox="0 0 595.2 50"><defs><style>.cls-1{fill:#fff;}</style></defs><title>m-beaver</title><path class="cls-1" d="M14.9,382.4H0V377H36.2v5.4h-15v43.5H14.8V382.4Z" transform="translate(0 -376.7)"/><path class="cls-1" d="M47.9,377v20.5H71.5V377H78v48.9H71.6V403H47.9v22.9H41.6V377Z" transform="translate(0 -376.7)"/><path class="cls-1" d="M114.2,403h-19v17.6h21.2v5.3H88.9V377h26.4v5.3H95.2v15.4h19Z" transform="translate(0 -376.7)"/><path class="cls-1" d="M140,377h26.3v5.3h-20v16.2h18.5v5.2H146.3v22.1H140Z" transform="translate(0 -376.7)"/><path class="cls-1" d="M181.6,377v29c0,11,4.9,15.6,11.4,15.6,7.3,0,11.9-4.8,11.9-15.6V377h6.4v28.5c0,15-7.9,21.2-18.5,21.2-10,0-17.6-5.7-17.6-20.9V377Z" transform="translate(0 -376.7)"/><path class="cls-1" d="M222.2,425.9V377h6.9l15.7,24.7a137.66,137.66,0,0,1,8.8,15.9l.1-.1c-.6-6.5-.7-12.5-.7-20.1V377h5.9v48.9h-6.4L237,401.1a141,141,0,0,1-9.1-16.3l-.2.1c.4,6.2.5,12,.5,20.2V426h-6Z" transform="translate(0 -376.7)"/><path class="cls-1" d="M269.9,425.9V377h6.9l15.7,24.7a137.66,137.66,0,0,1,8.8,15.9l.1-.1c-.6-6.5-.7-12.5-.7-20.1V377h5.9v48.9h-6.4l-15.5-24.8a141,141,0,0,1-9.1-16.3l-.2.1c.4,6.2.5,12,.5,20.2V426h-6Z" transform="translate(0 -376.7)"/><path class="cls-1" d="M328,425.9V405.2L312.6,377h7.2l6.9,13.5c1.9,3.7,3.3,6.7,4.9,10.1h.1c1.4-3.2,3-6.4,4.9-10.1l7-13.5h7.2l-16.4,28.1v20.8Z" transform="translate(0 -376.7)"/><path class="cls-1" d="M371.8,377.7a59.86,59.86,0,0,1,11.5-1c6.3,0,10.4,1.1,13.4,3.6a10.4,10.4,0,0,1,4.1,8.6c0,4.7-3.1,8.8-8.3,10.7v.1c4.6,1.2,10.1,5,10.1,12.3a13.45,13.45,0,0,1-4.1,9.8c-3.4,3.1-8.9,4.6-16.9,4.6a70.91,70.91,0,0,1-9.8-.6V377.7Zm6.3,20h5.7c6.7,0,10.6-3.5,10.6-8.2,0-5.7-4.4-8-10.7-8a29.47,29.47,0,0,0-5.6.4Zm0,23.4a35.08,35.08,0,0,0,5.3.3c6.5,0,12.5-2.4,12.5-9.5,0-6.7-5.7-9.4-12.6-9.4h-5.2v18.6Z" transform="translate(0 -376.7)"/><path class="cls-1" d="M436.4,403h-19v17.6h21.2v5.3H411.1V377h26.4v5.3H417.4v15.4h19Z" transform="translate(0 -376.7)"/><path class="cls-1" d="M454.7,410.5l-5.1,15.4H443L459.6,377h7.6l16.7,48.9h-6.7L472,410.5Zm16-4.9-4.8-14.1c-1.1-3.2-1.8-6.1-2.5-8.9h-.1c-.7,2.9-1.5,5.9-2.5,8.8L456,405.5h14.7Z" transform="translate(0 -376.7)"/><path class="cls-1" d="M498,425.9,482,377h6.8l7.6,24.1c2.1,6.6,3.9,12.5,5.2,18.3h.1c1.4-5.7,3.4-11.8,5.6-18.2l8.3-24.1h6.7L505,425.9Z" transform="translate(0 -376.7)"/><path class="cls-1" d="M553.1,403h-19v17.6h21.2v5.3H527.8V377h26.4v5.3H534.1v15.4h19V403Z" transform="translate(0 -376.7)"/><path class="cls-1" d="M563.4,377.7a62.23,62.23,0,0,1,12.1-1c6.7,0,11.1,1.2,14.1,4a12.05,12.05,0,0,1,3.8,9.3c0,6.5-4.1,10.7-9.2,12.5v.2c3.8,1.3,6,4.8,7.2,9.9,1.6,6.8,2.8,11.5,3.8,13.4h-6.5c-.8-1.4-1.9-5.6-3.3-11.7-1.5-6.7-4.1-9.3-9.8-9.5h-5.9V426h-6.3V377.7Zm6.3,22.2h6.5c6.7,0,11-3.7,11-9.3,0-6.3-4.6-9.1-11.2-9.1a25,25,0,0,0-6.2.6v17.8Z" transform="translate(0 -376.7)"/></svg>