<svg id="图层_1" data-name="图层 1" xmlns="http://www.w3.org/2000/svg" viewBox="0 0 595.3 108.3"><defs><style>.cls-1{fill:#fff;}</style></defs><title>m-echora</title><polygon class="cls-1" points="0 44.7 26.9 44.7 26.9 107 45 107 45 44.7 66.2 44.7 77 23.8 10.5 23.8 0 44.7"/><polygon class="cls-1" points="137.6 46.7 149.7 24.5 81.8 24.5 81.8 24.5 81.8 108.3 138.2 108.3 149.7 87 100 87 100 74.9 136.5 74.9 146 57.4 99.9 57.4 99.9 46.7 137.6 46.7"/><path class="cls-1" d="M190.6,412.5h29.5l10-21.1H191a35.51,35.51,0,0,0-35.5,35.5V439A35.51,35.51,0,0,0,191,474.5h28.7l10.4-21H190.6a16.73,16.73,0,0,1-16.7-16.7v-7.6A16.73,16.73,0,0,1,190.6,412.5Z" transform="translate(-1 -367.7)"/><polygon class="cls-1" points="288.4 23.8 288.4 53.4 254.2 53.4 254.2 23.8 236.3 23.8 236.3 106.8 254.2 106.8 254.2 74.5 288.4 74.5 288.4 106.8 306.3 106.8 306.3 23.8 288.4 23.8"/><path class="cls-1" d="M387.2,447.9a9.86,9.86,0,0,1-9.9,9.9H346.4a9.86,9.86,0,0,1-9.9-9.9V417a9.86,9.86,0,0,1,9.9-9.9h14.8V391.4H331.4a12,12,0,0,0-12,12V463a12,12,0,0,0,12,12H391a12,12,0,0,0,12-12V433.8H387.2v14.1Z" transform="translate(-1 -367.7)"/><path class="cls-1" d="M413,398.9a17.49,17.49,0,0,0-18.2-17.5,17.72,17.72,0,0,0-16.9,17,17.41,17.41,0,0,0,5.2,13,10.57,10.57,0,0,1,3.2,7.7v3.4h18.3v-3.4a10.49,10.49,0,0,1,3.1-7.6A18.11,18.11,0,0,0,413,398.9Z" transform="translate(-1 -367.7)"/><rect class="cls-1" x="386.7" y="56.2" width="15.4" height="2.9"/><path class="cls-1" d="M389.4,428.2a7.66,7.66,0,0,0,12,0Z" transform="translate(-1 -367.7)"/><rect class="cls-1" x="372.32" y="380.87" width="2.8" height="10.2" transform="translate(-159.01 95.11) rotate(-54.15)"/><rect class="cls-1" x="381.33" y="370.92" width="2.8" height="11.9" transform="translate(-147.68 -81.63) rotate(-34.83)"/><rect class="cls-1" x="401.98" y="375.45" width="12" height="2.8" transform="translate(-136.65 122.84) rotate(-54.54)"/><rect class="cls-1" x="412.2" y="384.51" width="10" height="2.8" transform="translate(-144.8 -72.7) rotate(-33.56)"/><rect class="cls-1" x="393" width="2.8" height="11.2"/><path class="cls-1" d="M493.2,425.6v-7.8a26.33,26.33,0,0,0-26.3-26.3H426.3l-12,21.1h52a9.9,9.9,0,0,1,0,19.8h-52v42.1h18.4V452h26.6L472,474.5h25.3l-17.5-25.9A26.32,26.32,0,0,0,493.2,425.6Z" transform="translate(-1 -367.7)"/><path class="cls-1" d="M528.1,474.5h68.2l-38.2-78a11.83,11.83,0,0,0-21.3,0l-38.2,78h21.1l27.8-54.7,16.1,33.7H539Z" transform="translate(-1 -367.7)"/></svg>