<svg id="图层_1" data-name="图层 1" xmlns="http://www.w3.org/2000/svg" viewBox="0 0 595.28 145.28"><defs><style>.cls-1{fill:#fff;}</style></defs><title>m-gadgets-reviews</title><path class="cls-1" d="M325.76,477.33V452.55H308.58c-9.43,0-14.38-4.67-14.64-14.21-.21-7.95-.06-15.91-.06-23.87q0-32.57,0-65.14c0-11.32,5.77-17,17.21-17H578.63c11.26,0,16.64,5.43,16.64,16.76q0,43.51,0,87c0,11.14-5.23,16.39-16.42,16.39q-110.89,0-221.78-.07c-4,0-6.79,1-9.49,4-6.53,7.23-13.41,14.15-20.15,21.19Zm235.6-81.07-.73,0c-.31-1.74-.71-3.48-.92-5.23-1.71-14.14-3.58-28.27-5-42.44-.41-4.24-2.62-4.21-5.6-4.09-2.72.12-5.39-.71-5.82,3.82-1.33,13.85-3.2,27.64-4.87,41.45-.26,2.12-.61,4.23-.91,6.34l-.89-.1q-2.91-25.57-5.83-51.13H517.7c4.31,32,8.56,63.62,12.81,95.19h11.1c2.38-16.41,4.72-32.54,7.07-48.67l.71,0,7.07,48.71h11.08c4.28-31.82,8.53-63.43,12.82-95.37-2-.1-3.43-.27-4.9-.24-9,.24-8.08-1.89-9.18,8.32C564.73,367.36,563,381.8,561.36,396.26Zm-238,43.91c0-12.18-.06-23.91.08-35.63,0-1.47,1.1-2.93,1.69-4.39.84,1.39,2.14,2.68,2.43,4.17,2.1,10.73,3.93,21.51,6,32.25.27,1.36,1.4,3.55,2.3,3.64,4,.4,8,.17,12.48.17-2.82-14.74-5.5-28.54-8.07-42.36-.28-1.5-.55-3.67.25-4.61,7.9-9.15,7.42-19.9,5.75-30.66-1.24-8-5.27-14.82-13.72-16.56-7.47-1.54-15.26-1.5-23.17-2.18v96.16Zm117.9-94.84a7.89,7.89,0,0,0-1.26-.63c-12.49-.93-12.4-.92-14,11.35-1.87,14.6-3.91,29.18-5.88,43.77-2.8-14.7-4.83-29.39-6.75-44.1-1.62-12.44-1.56-12.45-14.2-10.88a4.15,4.15,0,0,0-.84.44c.15,1.26.27,2.7.49,4.12,4.09,27,8.24,54.06,12.29,81.1,1.51,10.13,1.4,10,11.5,10,3.42,0,4.42-1.19,4.89-4.43,2.76-19.19,5.76-38.34,8.68-57.51C437.9,367.49,439.59,356.38,441.26,345.33Zm69.12,14V345H478.64v95.17h31.64V425.61H492.86v-26H505.2V384.05H492.93V359.3ZM385.93,399.83V384H373.77V359.15h17.28V344.88H359.49v95.24H391V425.58H373.62V399.83Zm78.64,40.37V345H451.12V440.2Z" transform="translate(0 -332.36)"/><path class="cls-1" d="M102.7,345.27c7.76.6,15.34.81,22.79,1.88,6.86,1,11,5.65,13,12.18a25.79,25.79,0,0,1,1.53,7.27c0,18.67.59,37.39-.55,56-.75,12.36-7.1,17.32-19.5,18.32-5.57.44-11.21.07-17.3.07Zm14,15.15v66.24c6.15.39,8.59-1.19,8.93-7.33.68-12.05.85-24.14.94-36.21a117.19,117.19,0,0,0-1-16.32C124.84,361.5,122.57,360.07,116.73,360.42Z" transform="translate(0 -332.36)"/><path class="cls-1" d="M176.23,406.07l-5.4-.62V394.17h19v47.05c-3.8.11-8,2.1-9.78-3.79-5.51,5.12-11.52,6.52-18.09,3.4-6.88-3.27-9-9.69-9.1-16.51-.28-19.89-.42-39.78,0-59.66.3-14.12,9.88-21.91,22.8-19.5,7.85,1.46,12.23,6.77,13.52,14.11,1.16,6.59,1,13.41,1.46,20.52H176.23c0-3.89,0-7.65,0-11.41,0-1.81.29-3.9-.49-5.36-1-1.79-2.91-3-4.42-4.53-1.35,1.48-3,2.78-4,4.49-.65,1.18-.4,2.91-.41,4.39,0,17.9-.05,35.8,0,53.7,0,3.55-.52,8.38,4.5,8.46s4.62-4.72,4.73-8.29C176.34,416.3,176.23,411.35,176.23,406.07Z" transform="translate(0 -332.36)"/><path class="cls-1" d="M27.2,437.24c-5.78,5.48-11.84,6.7-18.34,3.51s-8.66-9-8.7-15.64C0,404.39-.19,383.66.29,363,.6,350,10.47,342.74,23,345.18c7.94,1.55,13.54,8.57,14.1,18.22.31,5.28.06,10.59.06,16.31h-14c0-1.78,0-3.69,0-5.6,0-3.64.36-7.38-.35-10.89-.37-1.8-2.75-3.18-4.21-4.75-1.46,1.56-3.22,2.95-4.26,4.75-.66,1.15-.32,2.91-.32,4.4,0,17.74-.07,35.47,0,53.21,0,3.64-.78,8.82,4.7,8.69,4.89-.12,4.36-4.95,4.4-8.56.06-4.79,0-9.59,0-14.71l-5.23-.9V394.22H36.81v47.06C33.17,441.17,29,443.52,27.2,437.24Z" transform="translate(0 -332.36)"/><path class="cls-1" d="M79,441.17c-.93-6.54-1.82-12.72-2.72-19.07H63.1c-.71,5.19-1.6,10.35-2.08,15.55-.27,2.93-1.39,4.09-4.35,3.89s-6.2,0-10,0c4.84-32.18,9.58-63.69,14.4-95.75,5,0,9.79-.25,14.5.18,1.21.11,3,2.27,3.2,3.7C82.31,372,85.62,394.44,89,416.85c1.19,8,2.41,16,3.67,24.32ZM70.26,376l-1.13,0c-1.35,10.12-2.7,20.25-4.08,30.65h9.31C73,396.12,71.61,386,70.26,376Z" transform="translate(0 -332.36)"/><path class="cls-1" d="M203.85,346.07h31.56v14.08H218v24.91h12.27v15.62H218V426.8h17.47v14.35H203.85Z" transform="translate(0 -332.36)"/><path class="cls-1" d="M254.83,441.11v-80.8H242.05V346.15h39.79V360H269.21v81.1Z" transform="translate(0 -332.36)"/><path class="cls-1" d="M323.68,359.18c7.15.41,9.8,4.24,9.84,13.51,0,9.52-2.61,13.39-9.84,13.95Z" transform="translate(0 -332.36)"/></svg>