<?xml version="1.0" encoding="UTF-8"?>
<!DOCTYPE svg PUBLIC "-//W3C//DTD SVG 1.1//EN" "http://www.w3.org/Graphics/SVG/1.1/DTD/svg11.dtd">
<!-- Creator: CorelDRAW X6 -->
<svg xmlns="http://www.w3.org/2000/svg" xml:space="preserve" width="209.965mm" height="52.844mm" version="1.1" style="shape-rendering:geometricPrecision; text-rendering:geometricPrecision; image-rendering:optimizeQuality; fill-rule:evenodd; clip-rule:evenodd"
viewBox="0 0 21064 5301"
 xmlns:xlink="http://www.w3.org/1999/xlink">
 <defs>
  <style type="text/css">
   <![CDATA[
    .fil0 {fill:white}
   ]]>
  </style>
 </defs>
 <g id="图层_x0020_1">
  <metadata id="CorelCorpID_0Corel-Layer"/>
  <g id="_235336432">
   <g>
    <g>
     <path class="fil0" d="M149 4456l690 85c11,81 39,134 78,166 57,42 149,64 272,64 159,0 276,-25 354,-71 53,-32 92,-81 120,-152 18,-50 28,-142 28,-276l0 -333c-180,248 -407,368 -683,368 -308,0 -549,-131 -729,-389 -142,-205 -212,-460 -212,-764 0,-382 92,-676 276,-878 184,-202 414,-304 687,-304 283,0 517,124 697,372l0 -319 566 0 0 2049c0,269 -21,471 -67,605 -46,134 -106,237 -188,315 -81,74 -188,134 -322,177 -134,42 -304,64 -510,64 -386,0 -662,-67 -825,-198 -163,-131 -244,-301 -244,-503 11,-25 11,-50 11,-78zm541 -1338c0,241 46,421 142,531 96,113 209,170 347,170 149,0 272,-57 375,-173 103,-117 152,-287 152,-513 0,-237 -50,-411 -145,-527 -99,-113 -219,-173 -368,-173 -145,0 -265,57 -357,170 -99,113 -145,287 -145,517z"/>
     <path class="fil0" d="M1214 5301c-407,0 -690,-71 -867,-216 -177,-145 -269,-333 -269,-559 0,-21 0,-46 4,-78l4 -74 817 99 7 53c7,60 25,99 50,120 46,35 124,50 230,50 145,0 251,-21 319,-60 39,-25 71,-64 92,-117 11,-28 25,-96 25,-251l0 -145c-170,166 -379,251 -612,251 -329,0 -595,-142 -786,-418 -152,-216 -227,-488 -227,-807 0,-400 99,-711 294,-924 198,-216 446,-326 740,-326 244,0 453,85 630,255l0 -205 704 0 0 2120c0,280 -21,485 -71,626 -50,145 -117,258 -205,343 -88,81 -205,149 -347,195 -142,46 -319,67 -531,67zm-998 -768c0,180 71,326 216,446 149,120 411,184 779,184 198,0 361,-21 488,-60 124,-39 223,-96 294,-163 71,-67 127,-163 170,-287 42,-127 64,-322 64,-580l0 -1978 -425 0 0 464 -127 -170c-170,-230 -382,-343 -641,-343 -255,0 -464,92 -633,280 -173,184 -258,464 -258,825 0,290 67,534 198,725 166,241 386,357 672,357 255,0 460,-113 626,-340l127 -173 0 549c0,145 -11,244 -32,301 -32,85 -85,149 -149,188 -92,53 -219,81 -389,81 -142,0 -244,-25 -311,-78 -46,-32 -78,-85 -96,-159l-573 -67zm963 -648c-159,0 -294,-64 -400,-195 -106,-127 -156,-315 -156,-577 0,-248 53,-435 156,-559 106,-127 244,-195 411,-195 170,0 311,67 425,198 110,127 163,319 163,573 0,244 -57,432 -170,559 -120,131 -262,195 -428,195zm11 -1384c-124,0 -223,46 -304,145 -81,99 -124,258 -124,471 0,223 42,389 124,488 81,96 177,145 294,145 127,0 234,-50 322,-149 88,-103 134,-258 134,-467 0,-219 -42,-379 -131,-481 -85,-103 -188,-152 -315,-152z"/>
    </g>
    <g>
     <path class="fil0" d="M3344 2718l-549 -99c60,-219 166,-382 319,-488 149,-106 375,-159 669,-159 269,0 471,32 602,96 131,64 223,145 280,244 53,99 81,280 81,541l-7 704c0,202 11,347 28,442 18,96 57,198 110,308l-598 0c-14,-39 -35,-99 -57,-177 -11,-35 -18,-60 -21,-71 -103,99 -212,177 -333,226 -117,50 -244,74 -375,74 -234,0 -421,-64 -556,-191 -134,-127 -202,-290 -202,-485 0,-127 32,-244 92,-343 60,-103 149,-177 258,-234 110,-53 272,-99 481,-142 283,-53 478,-103 587,-149l0 -60c0,-117 -28,-198 -85,-248 -57,-50 -166,-74 -326,-74 -106,0 -191,21 -251,64 -60,39 -110,113 -149,219zm810 492c-78,25 -198,57 -368,92 -166,35 -276,71 -329,106 -78,57 -117,127 -117,212 0,85 32,159 96,219 64,60 142,92 241,92 110,0 212,-35 311,-106 74,-53 120,-120 145,-198 14,-53 25,-149 25,-294l0 -124 -4 0z"/>
     <path class="fil0" d="M3493 4427c-251,0 -457,-71 -605,-209 -149,-142 -226,-322 -226,-534 0,-142 35,-269 103,-382 67,-113 166,-198 287,-258 117,-57 280,-106 499,-145 241,-46 421,-88 531,-127l0 -11c0,-96 -21,-159 -60,-195 -32,-25 -103,-57 -280,-57 -92,0 -163,18 -212,50 -46,32 -88,96 -120,188l-21 57 -683 -124 21 -74c67,-237 180,-414 347,-527 163,-113 400,-173 711,-173 283,0 488,32 633,103 145,71 248,163 308,272 60,110 88,297 88,573l-7 704c0,195 11,340 28,428 18,88 53,188 103,290l50 99 -757 0 -18 -46c-14,-35 -32,-85 -50,-149 -85,71 -173,124 -269,166 -120,53 -258,81 -400,81zm251 -2063c177,0 301,28 372,92 74,64 110,163 110,301l0 106 -42 18c-113,50 -311,99 -602,152 -202,39 -357,85 -464,134 -99,50 -173,117 -230,205 -53,88 -81,195 -81,308 0,177 60,319 180,432 120,113 294,173 506,173 124,0 241,-25 350,-71 110,-46 212,-117 308,-212l78 -74 39 99c4,14 14,39 25,78 14,50 28,92 39,127l439 0c-32,-78 -53,-152 -71,-223 -21,-103 -32,-251 -32,-457l7 -704c0,-311 -39,-446 -71,-506 -46,-85 -131,-156 -248,-212 -120,-60 -315,-88 -570,-88 -280,0 -492,50 -630,145 -120,85 -209,212 -269,379l414 74c39,-92 88,-159 149,-202 74,-50 170,-74 294,-74zm-71 1639c-117,0 -212,-39 -290,-113 -78,-74 -117,-166 -117,-269 0,-110 50,-202 149,-269 64,-42 173,-78 354,-117 163,-35 287,-67 361,-92l92 -32 0 216c0,152 -7,255 -28,315 -28,92 -85,173 -170,237 -106,81 -226,124 -350,124zm411 -701c-74,21 -166,42 -283,67 -198,42 -276,74 -304,96 -60,42 -88,92 -88,156 0,67 25,120 74,170 50,50 113,71 191,71 96,0 184,-32 269,-96 60,-46 99,-99 117,-163 11,-32 21,-103 21,-276l0 -25 4 0z"/>
    </g>
    <g>
     <path class="fil0" d="M7435 4307l-559 0 0 -336c-92,131 -202,226 -329,290 -127,64 -255,96 -382,96 -262,0 -488,-106 -672,-319 -188,-212 -280,-506 -280,-885 0,-386 92,-679 272,-881 180,-202 411,-301 690,-301 255,0 474,106 662,319l0 -1136 605 0 0 3153 -7 0zm-1614 -1193c0,244 35,421 103,527 99,159 234,237 407,237 138,0 258,-60 354,-177 99,-117 145,-294 145,-531 0,-262 -46,-449 -142,-566 -96,-117 -216,-173 -365,-173 -142,0 -262,57 -361,170 -92,117 -142,287 -142,513z"/>
     <path class="fil0" d="M6161 4427c-283,0 -527,-113 -725,-340 -198,-223 -297,-538 -297,-931 0,-403 99,-715 290,-931 195,-216 446,-326 743,-326 219,0 418,74 591,219l0 -1037 743 0 0 3291 -701 0 0 -216c-71,67 -145,124 -230,163 -134,71 -276,106 -414,106zm7 -2385c-258,0 -467,92 -637,280 -170,188 -255,467 -255,835 0,357 88,641 262,839 173,198 379,294 623,294 117,0 237,-28 354,-88 117,-57 219,-149 304,-269l127 -177 0 485 421 0 0 -3012 -467 0 0 1249 -124 -138c-173,-202 -372,-297 -609,-297zm163 1907c-198,0 -357,-92 -467,-269 -74,-120 -110,-308 -110,-566 0,-241 53,-428 163,-556 110,-131 248,-195 414,-195 170,0 308,67 418,198 106,131 159,329 159,612 0,251 -53,442 -163,573 -113,134 -251,202 -414,202zm-4 -1447c-124,0 -223,50 -308,145 -85,99 -127,258 -127,464 0,230 32,396 92,492 85,138 198,202 350,202 117,0 216,-50 301,-152 85,-106 131,-269 131,-485 0,-244 -42,-421 -127,-520 -81,-96 -184,-145 -311,-145z"/>
    </g>
    <g>
     <path class="fil0" d="M7973 4456l690 85c11,81 39,134 78,166 57,42 149,64 272,64 159,0 276,-25 354,-71 53,-32 92,-81 120,-152 18,-50 28,-142 28,-276l0 -333c-180,248 -407,368 -683,368 -308,0 -549,-131 -729,-389 -142,-205 -212,-460 -212,-764 0,-382 92,-676 276,-878 184,-202 414,-304 687,-304 283,0 517,124 697,372l0 -319 566 0 0 2049c0,269 -21,471 -67,605 -46,134 -106,237 -188,315 -81,74 -188,134 -322,177 -134,42 -304,64 -510,64 -386,0 -662,-67 -825,-198 -163,-131 -244,-301 -244,-503 11,-25 11,-50 11,-78zm541 -1338c0,241 46,421 142,531 96,113 209,170 347,170 149,0 272,-57 375,-173 103,-117 152,-287 152,-513 0,-237 -50,-411 -145,-527 -99,-113 -219,-173 -368,-173 -145,0 -265,57 -357,170 -99,113 -145,287 -145,517z"/>
     <path class="fil0" d="M9038 5301c-407,0 -690,-71 -867,-216 -177,-145 -269,-333 -269,-559 0,-21 0,-46 4,-78l4 -74 817 99 7 53c7,60 25,99 50,120 46,35 124,50 230,50 145,0 251,-21 319,-60 39,-25 71,-64 92,-117 11,-28 25,-96 25,-251l0 -145c-170,166 -379,251 -612,251 -329,0 -595,-142 -786,-418 -149,-216 -223,-488 -223,-803 0,-400 99,-711 294,-924 198,-216 446,-326 740,-326 244,0 453,85 630,255l0 -205 701 0 0 2120c0,280 -21,485 -71,626 -50,145 -117,258 -205,343 -88,81 -205,149 -347,195 -142,42 -319,64 -531,64zm-994 -768c0,180 71,326 216,446 149,120 411,184 779,184 198,0 361,-21 488,-60 124,-39 223,-96 294,-163 71,-67 127,-163 170,-287 42,-127 64,-322 64,-580l0 -1978 -425 0 0 464 -127 -170c-170,-230 -382,-343 -641,-343 -255,0 -464,92 -633,280 -170,188 -258,467 -258,828 0,290 67,534 198,725 166,241 386,357 672,357 255,0 460,-113 626,-340l127 -173 0 549c0,145 -11,244 -32,301 -32,85 -85,149 -149,188 -92,53 -219,81 -389,81 -142,0 -244,-25 -311,-78 -46,-32 -78,-85 -96,-159l-573 -71zm959 -648c-159,0 -294,-64 -400,-195 -106,-127 -156,-315 -156,-577 0,-248 53,-435 156,-559 106,-127 244,-195 411,-195 170,0 311,67 425,198 110,127 163,319 163,573 0,244 -57,432 -170,559 -117,131 -262,195 -428,195zm11 -1384c-124,0 -223,46 -304,145 -81,99 -124,258 -124,471 0,223 42,389 124,488 81,96 177,145 294,145 127,0 234,-50 322,-149 88,-103 134,-258 134,-467 0,-219 -42,-379 -131,-481 -85,-103 -188,-152 -315,-152z"/>
    </g>
    <g>
     <path class="fil0" d="M12039 3578l602 103c-78,219 -198,389 -368,503 -166,117 -375,173 -626,173 -396,0 -690,-131 -881,-389 -152,-209 -226,-471 -226,-786 0,-379 99,-676 297,-888 198,-216 449,-322 750,-322 340,0 609,113 803,336 195,223 290,566 283,1030l-1515 0c4,180 53,319 145,418 92,99 209,149 347,149 96,0 173,-25 237,-78 71,-50 120,-131 152,-248zm35 -609c-4,-173 -50,-308 -134,-400 -85,-92 -191,-138 -315,-138 -131,0 -241,50 -326,145 -85,96 -127,226 -127,393l902 0z"/>
     <path class="fil0" d="M11650 4427c-418,0 -733,-142 -938,-418 -159,-219 -241,-499 -241,-828 0,-396 106,-711 315,-938 212,-226 481,-343 800,-343 357,0 648,120 856,361 209,237 308,598 297,1079l0 67 -1508 0c14,127 53,226 124,301 81,85 177,127 297,127 78,0 142,-21 195,-64 53,-42 96,-113 124,-212l18 -60 747 124 -28 78c-81,234 -216,414 -393,538 -177,124 -403,188 -665,188zm-60 -2385c-283,0 -513,99 -697,297 -184,198 -280,481 -280,842 0,301 71,552 212,747 177,241 446,361 825,361 234,0 432,-53 587,-159 134,-92 237,-223 311,-393l-457 -78c-35,99 -85,173 -149,226 -78,60 -173,92 -283,92 -159,0 -294,-57 -400,-170 -106,-113 -159,-269 -166,-464l0 -71 1515 0c-4,-407 -92,-715 -265,-913 -188,-216 -432,-318 -754,-318zm556 998l-1044 0 0 -71c0,-180 46,-329 145,-439 99,-110 226,-166 379,-166 142,0 265,53 365,159 99,103 149,255 156,446l0 71zm-902 -142l757 0c-14,-120 -50,-216 -113,-280 -74,-78 -159,-113 -262,-113 -113,0 -202,39 -276,120 -60,67 -96,159 -106,272z"/>
    </g>
    <g>
     <path class="fil0" d="M14212 2024l0 481 -411 0 0 920c0,188 4,294 11,326 7,32 25,57 53,78 28,21 64,32 103,32 57,0 138,-18 244,-57l53 467c-142,60 -301,92 -478,92 -110,0 -209,-18 -294,-53 -88,-35 -152,-85 -191,-142 -42,-57 -71,-138 -85,-237 -14,-71 -18,-212 -18,-425l0 -994 -283 0 0 -481 276 0 0 -460 605 -354 0 807 414 0z"/>
     <path class="fil0" d="M13784 4427c-117,0 -226,-21 -322,-60 -99,-42 -173,-99 -223,-166 -46,-67 -78,-156 -96,-265 -14,-74 -21,-216 -21,-435l0 -924 -276 0 0 -623 276 0 0 -425 747 -435 0 856 414 0 0 623 -411 0 0 849c0,251 7,301 11,308 4,14 11,25 28,35 14,11 35,18 60,18 32,0 96,-11 219,-53l85 -32 67 609 -46 21c-156,67 -326,99 -513,99zm-796 -1992l276 0 0 1065c0,209 7,347 18,414 14,88 39,159 74,209 32,46 88,85 163,117 78,32 170,50 269,50 149,0 283,-21 403,-67l-35 -329c-74,21 -134,35 -184,35 -57,0 -103,-14 -142,-42 -42,-28 -67,-67 -81,-117 -7,-28 -14,-88 -14,-343l0 -991 414 0 0 -340 -418 0 0 -754 -467 272 0 485 -276 0 0 336z"/>
    </g>
    <g>
     <path class="fil0" d="M15954 3578l602 103c-78,219 -198,389 -368,503 -166,117 -375,173 -626,173 -396,0 -690,-131 -881,-389 -152,-209 -226,-471 -226,-786 0,-379 99,-676 297,-888 198,-216 449,-322 750,-322 340,0 609,113 803,336 195,223 290,566 283,1030l-1511 0c4,180 53,319 145,418 92,99 209,149 347,149 96,0 173,-25 237,-78 67,-50 117,-131 149,-248zm35 -609c-4,-173 -50,-308 -134,-400 -85,-92 -191,-138 -315,-138 -131,0 -241,50 -326,145 -85,96 -127,226 -127,393l902 0z"/>
     <path class="fil0" d="M15564 4427c-418,0 -733,-142 -938,-418 -159,-219 -241,-499 -241,-828 0,-396 106,-711 315,-938 212,-226 481,-343 800,-343 357,0 648,120 856,361 209,237 308,598 297,1079l0 67 -1508 0c14,127 53,226 124,301 81,85 177,127 297,127 78,0 142,-21 195,-64 53,-42 96,-113 124,-212l18 -60 747 124 -28 78c-81,234 -216,414 -393,538 -177,124 -403,188 -665,188zm-60 -2385c-283,0 -513,99 -697,297 -184,198 -280,481 -280,842 0,301 71,552 212,747 177,241 446,361 825,361 234,0 432,-53 587,-159 134,-92 237,-223 311,-393l-457 -78c-35,99 -85,173 -149,226 -78,60 -173,92 -283,92 -159,0 -294,-57 -400,-170 -106,-113 -159,-269 -166,-464l0 -71 1515 0c-4,-407 -92,-715 -265,-913 -188,-216 -432,-318 -754,-318zm556 998l-1044 0 0 -71c0,-180 46,-329 145,-439 99,-110 226,-166 379,-166 142,0 265,53 365,159 99,103 149,255 156,446l0 71zm-902 -142l757 0c-14,-120 -50,-216 -113,-280 -74,-78 -159,-113 -262,-113 -113,0 -202,39 -276,120 -60,67 -96,159 -106,272z"/>
    </g>
    <g>
     <path class="fil0" d="M18402 3578l602 103c-78,219 -198,389 -368,503 -166,117 -375,173 -626,173 -396,0 -690,-131 -881,-389 -152,-209 -226,-471 -226,-786 0,-379 99,-676 297,-888 198,-216 449,-322 750,-322 340,0 609,113 803,336 195,223 290,566 283,1030l-1515 0c4,180 53,319 145,418 92,99 209,149 347,149 96,0 173,-25 237,-78 71,-50 120,-131 152,-248zm35 -609c-4,-173 -50,-308 -134,-400 -85,-92 -191,-138 -315,-138 -131,0 -241,50 -326,145 -85,96 -127,226 -127,393l902 0z"/>
     <path class="fil0" d="M18010 4427c-418,0 -733,-142 -938,-418 -159,-219 -241,-499 -241,-828 0,-396 106,-711 315,-938 212,-226 481,-343 800,-343 357,0 648,120 856,361 209,237 308,598 297,1079l0 67 -1508 0c14,127 53,226 124,301 81,85 177,127 297,127 78,0 142,-21 195,-64 53,-42 96,-113 124,-212l18 -60 747 124 -28 78c-81,234 -216,414 -393,538 -177,124 -400,188 -665,188zm-60 -2385c-283,0 -513,99 -697,297 -184,198 -280,481 -280,842 0,301 71,552 212,747 177,241 446,361 825,361 234,0 432,-53 587,-159 134,-92 237,-223 311,-393l-457 -78c-35,99 -85,173 -149,226 -78,60 -173,92 -283,92 -159,0 -294,-57 -400,-170 -106,-113 -159,-269 -166,-464l0 -71 1515 0c-4,-407 -92,-715 -265,-913 -184,-216 -432,-318 -754,-318zm559 998l-1044 0 0 -71c0,-180 46,-329 145,-439 99,-110 226,-166 379,-166 142,0 265,53 365,159 99,103 149,255 156,446l0 71zm-902 -142l757 0c-14,-120 -50,-216 -113,-280 -74,-78 -159,-113 -262,-113 -113,0 -202,39 -276,120 -60,67 -96,159 -106,272z"/>
    </g>
    <g>
     <path class="fil0" d="M20108 4307l-605 0 0 -2283 559 0 0 326c96,-152 184,-255 258,-304 78,-50 163,-74 262,-74 138,0 269,39 396,113l-188 527c-103,-67 -195,-99 -283,-99 -85,0 -156,25 -216,71 -60,46 -106,131 -138,251 -35,120 -50,375 -50,764l0 708 4 0z"/>
     <path class="fil0" d="M20175 4374l-743 0 0 -2421 701 0 0 173c53,-64 103,-110 152,-142 88,-57 188,-85 297,-85 149,0 294,42 432,124l50 28 -237 665 -74 -50c-173,-113 -322,-110 -418,-32 -46,35 -85,110 -113,216 -32,117 -50,368 -50,747l0 775 4 0zm-602 -138l464 0 0 -633c0,-400 18,-655 53,-782 39,-138 92,-234 163,-290 127,-99 308,-120 506,-18l138 -393c-99,-50 -205,-78 -311,-78 -85,0 -159,21 -223,64 -67,42 -149,138 -237,280l-131 205 0 -499 -421 0 0 2145z"/>
    </g>
   </g>
   <g>
    <g>
     <path class="fil0" d="M3960 467l0 258 -223 0 0 495c0,99 4,159 7,177 4,18 14,32 28,42 14,11 32,18 57,18 32,0 74,-11 131,-32l28 251c-74,32 -163,50 -258,50 -60,0 -110,-11 -159,-28 -46,-21 -81,-46 -103,-78 -21,-32 -39,-74 -46,-127 -7,-39 -11,-113 -11,-230l0 -534 -149 0 0 -258 149 0 0 -244 326 -191 0 435 223 0 0 -4z"/>
    </g>
    <g>
     <path class="fil0" d="M4512 0l0 623c106,-124 230,-184 375,-184 74,0 142,14 202,42 60,28 106,64 134,106 32,42 50,92 64,145 11,53 18,134 18,244l0 722 -326 0 0 -648c0,-127 -7,-212 -18,-244 -11,-35 -35,-64 -64,-81 -32,-21 -71,-32 -117,-32 -53,0 -103,14 -145,39 -42,25 -74,67 -92,120 -21,53 -28,131 -28,234l0 616 -326 0 0 -1695 322 0 0 -7z"/>
    </g>
    <g>
     <path class="fil0" d="M6345 1306l326 53c-42,120 -106,209 -198,272 -88,64 -202,92 -336,92 -212,0 -372,-71 -474,-209 -81,-113 -120,-251 -120,-425 0,-205 53,-365 159,-478 106,-117 241,-173 403,-173 184,0 326,60 432,180 106,120 156,304 152,556l-814 0c4,96 28,170 78,226 50,53 113,81 188,81 50,0 92,-14 127,-42 35,-28 60,-71 78,-134zm18 -329c-4,-96 -28,-166 -74,-216 -46,-50 -103,-74 -170,-74 -71,0 -131,25 -177,78 -46,53 -71,120 -67,212l488 0z"/>
    </g>
   </g>
  </g>
 </g>
</svg>
