<svg id="图层_1" data-name="图层 1" xmlns="http://www.w3.org/2000/svg" viewBox="0 0 595.2 117.8"><defs><style>.cls-1{fill:#fff;}</style></defs><title>m-nextluxury</title><path class="cls-1" d="M10.3,401.7h.2a31.53,31.53,0,0,1,3.5-3.8,22.29,22.29,0,0,1,9.6-5.2,24.54,24.54,0,0,1,6.2-.7,25.64,25.64,0,0,1,7.5,1.1,14.56,14.56,0,0,1,6.1,3.6,17.24,17.24,0,0,1,4.1,6.4,27.67,27.67,0,0,1,1.5,9.8V452H39.5V414.4c0-5-1-8.7-2.9-10.9s-4.8-3.3-8.5-3.3a18.26,18.26,0,0,0-9.5,2.7,24.49,24.49,0,0,0-7.9,7.5V452H1.1V393.5H8.5Z" transform="translate(-1.1 -362.9)"/><path class="cls-1" d="M101.6,445.3a44.93,44.93,0,0,0,8.6-.8,45.58,45.58,0,0,0,7.8-2.2v7.9a32.75,32.75,0,0,1-7.8,2.4,52.06,52.06,0,0,1-9.9.9,41,41,0,0,1-11.8-1.6,23.47,23.47,0,0,1-15.8-14.5,38.14,38.14,0,0,1-2.3-13.9,39,39,0,0,1,2.2-13.9,28.8,28.8,0,0,1,5.9-9.8,24.6,24.6,0,0,1,8.5-5.9,26.24,26.24,0,0,1,10-2,25.43,25.43,0,0,1,9.2,1.6,19.69,19.69,0,0,1,7.4,5.1,25,25,0,0,1,4.9,9,43.21,43.21,0,0,1,1.8,13.3v1.3c0,.3,0,1.1-.1,2.4H80a24.45,24.45,0,0,0,1.7,9.5,16.63,16.63,0,0,0,4.6,6.3,17.34,17.34,0,0,0,6.9,3.5A23.16,23.16,0,0,0,101.6,445.3Zm-5-45.1a13.93,13.93,0,0,0-6.1,1.3,17.36,17.36,0,0,0-5,3.5,16.73,16.73,0,0,0-3.4,5.2,19.43,19.43,0,0,0-1.6,6.4h29.9a22,22,0,0,0-.9-6.4,16.91,16.91,0,0,0-2.6-5.2,12.3,12.3,0,0,0-4.3-3.5A12.92,12.92,0,0,0,96.6,400.2Z" transform="translate(-1.1 -362.9)"/><path class="cls-1" d="M162.6,416.1l15.9-22.5H189l-21.4,28.9L189.8,452H179.5l-17.1-23.4h-.2l-17,23.4H134.9l22.2-29.8-21.4-28.7h10.5L162.3,416h.3Z" transform="translate(-1.1 -362.9)"/><path class="cls-1" d="M237.4,452.2a23.86,23.86,0,0,1-3.8.9,34.53,34.53,0,0,1-6,.5,27.13,27.13,0,0,1-8-1.1,14.12,14.12,0,0,1-5.6-3.3,13.85,13.85,0,0,1-3.4-5.1,20,20,0,0,1-1.1-6.7V401.8H198.2v-8.2h11.3v-16H219v16h17.5v8.2H219v34.1a11.64,11.64,0,0,0,.6,3.8,7.78,7.78,0,0,0,5,5,13.3,13.3,0,0,0,4.7.7,28,28,0,0,0,4-.3,38.23,38.23,0,0,0,3.9-.8v7.9Z" transform="translate(-1.1 -362.9)"/><path class="cls-1" d="M257.3,452V362.9h9.5V452Z" transform="translate(-1.1 -362.9)"/><path class="cls-1" d="M315.4,453.6a29.72,29.72,0,0,1-8.2-1,24.81,24.81,0,0,1-6.4-2.8,17.2,17.2,0,0,1-4.6-4.3,20.58,20.58,0,0,1-3-5.4,18.52,18.52,0,0,1-1.2-4.9,51.15,51.15,0,0,1-.4-5.8V393.5h9.5v35.8a21.15,21.15,0,0,0,1.3,8.1,11.93,11.93,0,0,0,4.8,5.8,15.39,15.39,0,0,0,8.4,2.1,15.18,15.18,0,0,0,8.7-2.3,12.86,12.86,0,0,0,4.7-6.3,22.84,22.84,0,0,0,1-7.4V393.5h9.5v35.9a46.78,46.78,0,0,1-.3,5.5,21.59,21.59,0,0,1-1.1,4.7,23.21,23.21,0,0,1-3,5.6,18.4,18.4,0,0,1-4.8,4.4,24.88,24.88,0,0,1-6.6,2.9A29.79,29.79,0,0,1,315.4,453.6Z" transform="translate(-1.1 -362.9)"/><path class="cls-1" d="M383.4,416.1l15.9-22.5h10.5l-21.4,28.9L410.6,452H400.3l-17.1-23.4H383L366.1,452H355.8L378,422.2l-21.4-28.7h10.5L383.2,416h.2Z" transform="translate(-1.1 -362.9)"/><path class="cls-1" d="M450.6,453.6a29.72,29.72,0,0,1-8.2-1,24.81,24.81,0,0,1-6.4-2.8,17.2,17.2,0,0,1-4.6-4.3,20.58,20.58,0,0,1-3-5.4,18.52,18.52,0,0,1-1.2-4.9,51.15,51.15,0,0,1-.4-5.8V393.5h9.5v35.8a21.15,21.15,0,0,0,1.3,8.1,11.93,11.93,0,0,0,4.8,5.8,15.39,15.39,0,0,0,8.4,2.1,15.18,15.18,0,0,0,8.7-2.3,12.86,12.86,0,0,0,4.7-6.3,22.84,22.84,0,0,0,1-7.4V393.5h9.5v35.9a46.78,46.78,0,0,1-.3,5.5,21.59,21.59,0,0,1-1.1,4.7,23.21,23.21,0,0,1-3,5.6,18.4,18.4,0,0,1-4.8,4.4,24.88,24.88,0,0,1-6.6,2.9A29.79,29.79,0,0,1,450.6,453.6Z" transform="translate(-1.1 -362.9)"/><path class="cls-1" d="M531,401.3h-.7a35.22,35.22,0,0,0-6.6.6,24.11,24.11,0,0,0-6.1,1.9,24.66,24.66,0,0,0-5.2,3.1,16.11,16.11,0,0,0-3.8,4.4V452H499V393.5h7.4l1.8,9.3h.2a19.54,19.54,0,0,1,3.5-4.2,21.91,21.91,0,0,1,4.6-3.4,20.64,20.64,0,0,1,5.7-2.3,22.72,22.72,0,0,1,6.5-.8H530c.4,0,.8.1,1.1.1v9.1Z" transform="translate(-1.1 -362.9)"/><path class="cls-1" d="M540.1,393.6h9.5l18.2,45.9h.4l18.6-45.9h9.5l-36.2,87.1h-9.5l12.5-29.8Z" transform="translate(-1.1 -362.9)"/></svg>