<?xml version="1.0" encoding="utf-8"?>
<!-- Generator: Adobe Illustrator 23.0.0, SVG Export Plug-In . SVG Version: 6.00 Build 0)  -->
<svg version="1.1" id="图层_1" xmlns="http://www.w3.org/2000/svg" xmlns:xlink="http://www.w3.org/1999/xlink" x="0px" y="0px"
	 viewBox="0 0 99.21 99.21" style="enable-background:new 0 0 99.21 99.21;" xml:space="preserve">
<style type="text/css">
	.st0{fill:none;stroke:#FFFFFF;stroke-width:2;stroke-linecap:round;stroke-linejoin:round;stroke-miterlimit:10;}
</style>
<g>
	<g>
		<circle class="st0" cx="49.6" cy="49.6" r="18.65"/>
		<path class="st0" d="M68.73,66.18c3.85-4.44,6.19-10.24,6.19-16.58s-2.33-12.14-6.19-16.58"/>
		<path class="st0" d="M30.47,33.01c-3.85,4.44-6.19,10.24-6.19,16.58s2.33,12.14,6.19,16.58"/>
		<circle class="st0" cx="49.6" cy="58.88" r="3.31"/>
		<path class="st0" d="M49.6,52.59L49.6,52.59c-0.88,0-1.6-0.72-1.6-1.6V37.87c0-0.88,0.72-1.6,1.6-1.6l0,0c0.88,0,1.6,0.72,1.6,1.6
			v13.12C51.2,51.88,50.49,52.59,49.6,52.59z"/>
	</g>
	<circle class="st0" cx="49.6" cy="49.6" r="39"/>
</g>
</svg>
