<?xml version="1.0" encoding="utf-8"?>
<!-- Generator: Adobe Illustrator 23.0.0, SVG Export Plug-In . SVG Version: 6.00 Build 0)  -->
<svg version="1.1" id="图层_1" xmlns="http://www.w3.org/2000/svg" xmlns:xlink="http://www.w3.org/1999/xlink" x="0px" y="0px"
	 viewBox="0 0 37.98 37.98" style="enable-background:new 0 0 37.98 37.98;" xml:space="preserve">
<style type="text/css">
	.st0{clip-path:url(#SVGID_2_);}
	.st1{fill:none;stroke:#000000;stroke-width:0.1574;stroke-linejoin:round;stroke-miterlimit:10;}
	.st2{fill:none;stroke:#000000;stroke-width:0.9441;stroke-linecap:round;stroke-miterlimit:10;}
	.st3{fill:none;stroke:#000000;stroke-width:1.3139;stroke-miterlimit:10;}
	.st4{fill:none;stroke:#000000;stroke-width:1.3906;stroke-miterlimit:10;}
	.st5{fill:none;stroke:#000000;stroke-width:0.5226;stroke-miterlimit:10;}
	.st6{fill:none;stroke:#000000;stroke-width:0.9441;stroke-miterlimit:10;}
	.st7{fill:none;stroke:#000000;stroke-width:0.5915;stroke-miterlimit:10;}
	.st8{fill:none;stroke:#000000;stroke-miterlimit:10;}
	.st9{fill:none;stroke:#000000;stroke-linecap:round;stroke-linejoin:round;stroke-miterlimit:10;}
	.st10{fill:none;stroke:#000000;stroke-width:1.3906;stroke-linecap:round;stroke-miterlimit:10;}
	.st11{fill-rule:evenodd;clip-rule:evenodd;fill:none;stroke:#000000;stroke-width:1.3906;stroke-miterlimit:10;}
	.st12{fill-rule:evenodd;clip-rule:evenodd;fill:none;stroke:#000000;stroke-width:0.9441;stroke-miterlimit:10;}
	.st13{fill-rule:evenodd;clip-rule:evenodd;fill:none;stroke:#000000;stroke-width:0.5915;stroke-miterlimit:10;}
	.st14{fill:none;stroke:#000000;stroke-width:1.4964;stroke-miterlimit:10;}
	.st15{fill:none;stroke:#FFFFFF;stroke-width:0.9441;stroke-miterlimit:10;}
	.st16{fill:none;stroke:#000000;stroke-width:1.4979;stroke-linecap:round;stroke-miterlimit:10;}
	.st17{fill:#FFFFFF;}
	.st18{fill:none;stroke:#000000;stroke-width:0.4896;stroke-miterlimit:10;}
	.st19{fill:none;stroke:#000000;stroke-width:0.5515;stroke-miterlimit:10;}
	.st20{fill-rule:evenodd;clip-rule:evenodd;fill:none;stroke:#000000;stroke-width:1.8871;stroke-miterlimit:10;}
	.st21{fill:none;stroke:#000000;stroke-width:1.3098;stroke-miterlimit:10;}
	.st22{fill:none;stroke:#000000;stroke-width:1.8871;stroke-linecap:round;stroke-miterlimit:10;}
	.st23{fill-rule:evenodd;clip-rule:evenodd;fill:none;stroke:#000000;stroke-width:0.6173;stroke-miterlimit:10;}
	.st24{fill-rule:evenodd;clip-rule:evenodd;fill:none;stroke:#000000;stroke-width:0.3868;stroke-miterlimit:10;}
	.st25{fill-rule:evenodd;clip-rule:evenodd;fill:none;stroke:#000000;stroke-width:1.4489;stroke-miterlimit:10;}
	.st26{fill-rule:evenodd;clip-rule:evenodd;fill:none;stroke:#000000;stroke-width:0.9077;stroke-miterlimit:10;}
	.st27{fill:none;stroke:#000000;stroke-width:0.0145;stroke-miterlimit:10;}
	.st28{fill:none;stroke:#000000;stroke-width:1.1586;stroke-miterlimit:10;}
	.st29{fill:none;stroke:#FFFFFF;stroke-width:1.3906;stroke-miterlimit:10;}
	.st30{fill:none;stroke:#000000;stroke-width:1.3665;stroke-miterlimit:10;}
	.st31{fill:none;stroke:#000000;stroke-width:1.5609;stroke-miterlimit:10;}
	.st32{fill:none;stroke:#000000;stroke-width:1.6987;stroke-miterlimit:10;}
	.st33{fill:#221814;}
	.st34{fill:none;}
	.st35{fill:none;stroke:#000000;stroke-width:1.6838;stroke-miterlimit:10;}
	.st36{fill:none;stroke:#000000;stroke-width:1.6605;stroke-miterlimit:10;}
	.st37{fill:none;stroke:#000000;stroke-width:1.2082;stroke-miterlimit:10;}
	.st38{fill:none;stroke:#000000;stroke-width:1.1058;stroke-miterlimit:10;}
	.st39{fill:none;stroke:#000000;stroke-width:1.391;stroke-linejoin:round;stroke-miterlimit:10;}
	.st40{fill:none;stroke:#000000;stroke-width:1.3476;stroke-linejoin:round;stroke-miterlimit:10;}
	.st41{fill:none;stroke:#000000;stroke-width:0.7027;stroke-miterlimit:10;}
	.st42{fill:none;stroke:#FFFFFF;stroke-width:0.818;stroke-miterlimit:22.926;}
	.st43{opacity:0.5;fill:none;stroke:#FFFFFF;stroke-width:0.818;stroke-miterlimit:10;}
	.st44{opacity:0.5;fill:#FFFFFF;}
	.st45{fill:none;stroke:#000000;stroke-width:0.818;stroke-miterlimit:22.926;}
	.st46{opacity:0.5;fill:none;stroke:#231815;stroke-width:0.818;stroke-miterlimit:10;}
	.st47{opacity:0.5;fill:#231815;}
	.st48{fill:none;stroke:#231815;stroke-width:0.215;stroke-miterlimit:10;}
	.st49{fill:none;stroke:#231815;stroke-width:0.209;stroke-miterlimit:10;}
	.st50{fill:none;stroke:#231815;stroke-width:0.186;stroke-miterlimit:10;}
</style>
<g>
	<g>
		<line class="st15" x1="4.85" y1="35.43" x2="2.45" y2="33.04"/>
	</g>
	<g>
		<line class="st15" x1="8.64" y1="31.64" x2="6.25" y2="29.25"/>
	</g>
	<g>
		<line class="st15" x1="4.85" y1="31.62" x2="2.45" y2="29.23"/>
	</g>
	<g>
		<line class="st15" x1="6.76" y1="31.13" x2="4.36" y2="33.53"/>
	</g>
	<g>
		<line class="st15" x1="6.85" y1="27.42" x2="4.46" y2="29.82"/>
	</g>
	<g>
		<line class="st15" x1="4.87" y1="20.18" x2="2.47" y2="17.78"/>
	</g>
	<g>
		<line class="st15" x1="8.66" y1="16.38" x2="6.26" y2="13.99"/>
	</g>
	<g>
		<line class="st15" x1="4.87" y1="16.36" x2="2.47" y2="13.97"/>
	</g>
	<g>
		<line class="st15" x1="6.77" y1="15.87" x2="4.38" y2="18.27"/>
	</g>
	<g>
		<line class="st15" x1="6.87" y1="12.16" x2="4.47" y2="14.56"/>
	</g>
	<g>
		<line class="st15" x1="4.95" y1="27.91" x2="2.55" y2="25.52"/>
	</g>
	<g>
		<line class="st15" x1="8.78" y1="24.08" x2="6.38" y2="21.69"/>
	</g>
	<g>
		<line class="st15" x1="12.49" y1="27.8" x2="10.09" y2="25.4"/>
	</g>
	<g>
		<line class="st15" x1="16.28" y1="24" x2="13.88" y2="21.61"/>
	</g>
	<g>
		<line class="st15" x1="8.68" y1="20.18" x2="6.28" y2="17.78"/>
	</g>
	<g>
		<line class="st15" x1="4.87" y1="23.99" x2="2.47" y2="21.59"/>
	</g>
	<g>
		<line class="st15" x1="8.68" y1="27.8" x2="6.28" y2="25.4"/>
	</g>
	<g>
		<line class="st15" x1="12.49" y1="23.99" x2="10.09" y2="21.59"/>
	</g>
	<g>
		<line class="st15" x1="6.77" y1="23.49" x2="4.38" y2="25.89"/>
	</g>
	<g>
		<line class="st15" x1="6.88" y1="19.8" x2="4.49" y2="22.19"/>
	</g>
	<g>
		<line class="st15" x1="10.68" y1="23.59" x2="8.28" y2="25.99"/>
	</g>
	<g>
		<line class="st15" x1="10.69" y1="15.99" x2="8.3" y2="18.38"/>
	</g>
	<g>
		<line class="st15" x1="10.58" y1="27.31" x2="8.19" y2="29.7"/>
	</g>
	<g>
		<line class="st15" x1="14.39" y1="23.49" x2="12" y2="25.89"/>
	</g>
	<g>
		<line class="st15" x1="14.49" y1="19.78" x2="12.09" y2="22.18"/>
	</g>
	<g>
		<line class="st15" x1="10.58" y1="19.68" x2="8.19" y2="22.08"/>
	</g>
	<g>
		<line class="st15" x1="4.99" y1="12.63" x2="2.59" y2="10.24"/>
	</g>
	<g>
		<line class="st15" x1="8.81" y1="8.8" x2="6.42" y2="6.41"/>
	</g>
	<g>
		<line class="st15" x1="12.53" y1="12.51" x2="10.13" y2="10.12"/>
	</g>
	<g>
		<line class="st15" x1="16.32" y1="8.72" x2="13.92" y2="6.33"/>
	</g>
	<g>
		<line class="st15" x1="8.72" y1="4.89" x2="6.32" y2="2.5"/>
	</g>
	<g>
		<line class="st15" x1="4.91" y1="8.7" x2="2.51" y2="6.31"/>
	</g>
	<g>
		<line class="st15" x1="8.72" y1="12.51" x2="6.32" y2="10.12"/>
	</g>
	<g>
		<line class="st15" x1="12.53" y1="8.7" x2="10.13" y2="6.31"/>
	</g>
	<g>
		<line class="st15" x1="6.81" y1="8.21" x2="4.41" y2="10.61"/>
	</g>
	<g>
		<line class="st15" x1="6.92" y1="4.52" x2="4.53" y2="6.91"/>
	</g>
	<g>
		<line class="st15" x1="10.72" y1="8.31" x2="8.32" y2="10.71"/>
	</g>
	<g>
		<line class="st15" x1="10.62" y1="12.02" x2="8.23" y2="14.42"/>
	</g>
	<g>
		<line class="st15" x1="14.43" y1="8.21" x2="12.04" y2="10.61"/>
	</g>
	<g>
		<line class="st15" x1="14.53" y1="4.5" x2="12.13" y2="6.9"/>
	</g>
	<g>
		<line class="st15" x1="10.62" y1="4.4" x2="8.23" y2="6.8"/>
	</g>
	<g>
		<line class="st15" x1="12.61" y1="20.25" x2="10.21" y2="17.86"/>
	</g>
	<g>
		<line class="st15" x1="16.44" y1="16.42" x2="14.04" y2="14.03"/>
	</g>
	<g>
		<line class="st15" x1="20.15" y1="20.14" x2="17.75" y2="17.74"/>
	</g>
	<g>
		<line class="st15" x1="23.94" y1="16.34" x2="21.54" y2="13.95"/>
	</g>
	<g>
		<line class="st15" x1="16.34" y1="12.51" x2="13.94" y2="10.12"/>
	</g>
	<g>
		<line class="st15" x1="12.53" y1="16.33" x2="10.13" y2="13.93"/>
	</g>
	<g>
		<line class="st15" x1="16.34" y1="20.14" x2="13.94" y2="17.74"/>
	</g>
	<g>
		<line class="st15" x1="20.15" y1="16.33" x2="17.75" y2="13.93"/>
	</g>
	<g>
		<line class="st15" x1="14.43" y1="15.83" x2="12.04" y2="18.23"/>
	</g>
	<g>
		<line class="st15" x1="14.54" y1="12.14" x2="12.15" y2="14.53"/>
	</g>
	<g>
		<line class="st15" x1="18.34" y1="15.93" x2="15.94" y2="18.33"/>
	</g>
	<g>
		<line class="st15" x1="18.36" y1="8.33" x2="15.96" y2="10.72"/>
	</g>
	<g>
		<line class="st15" x1="18.24" y1="19.64" x2="15.85" y2="22.04"/>
	</g>
	<g>
		<line class="st15" x1="22.05" y1="15.83" x2="19.66" y2="18.23"/>
	</g>
	<g>
		<line class="st15" x1="22.15" y1="12.12" x2="19.76" y2="14.52"/>
	</g>
	<g>
		<line class="st15" x1="18.24" y1="12.02" x2="15.85" y2="14.42"/>
	</g>
	<g>
		<line class="st15" x1="12.62" y1="5" x2="10.23" y2="2.6"/>
	</g>
	<g>
		<line class="st15" x1="20.16" y1="4.88" x2="17.77" y2="2.48"/>
	</g>
	<g>
		<line class="st15" x1="16.35" y1="4.88" x2="13.96" y2="2.48"/>
	</g>
	<g>
		<line class="st15" x1="18.26" y1="4.39" x2="15.86" y2="6.78"/>
	</g>
	<g>
		<line class="st15" x1="20.24" y1="12.62" x2="17.85" y2="10.22"/>
	</g>
	<g>
		<line class="st15" x1="24.07" y1="8.79" x2="21.67" y2="6.39"/>
	</g>
	<g>
		<line class="st15" x1="27.78" y1="12.5" x2="25.39" y2="10.1"/>
	</g>
	<g>
		<line class="st15" x1="31.58" y1="8.71" x2="29.18" y2="6.31"/>
	</g>
	<g>
		<line class="st15" x1="23.97" y1="4.88" x2="21.58" y2="2.48"/>
	</g>
	<g>
		<line class="st15" x1="20.16" y1="8.69" x2="17.77" y2="6.29"/>
	</g>
	<g>
		<line class="st15" x1="23.97" y1="12.5" x2="21.58" y2="10.1"/>
	</g>
	<g>
		<line class="st15" x1="27.78" y1="8.69" x2="25.39" y2="6.29"/>
	</g>
	<g>
		<line class="st15" x1="22.07" y1="8.2" x2="19.67" y2="10.6"/>
	</g>
	<g>
		<line class="st15" x1="22.18" y1="4.5" x2="19.78" y2="6.9"/>
	</g>
	<g>
		<line class="st15" x1="25.98" y1="8.3" x2="23.58" y2="10.69"/>
	</g>
	<g>
		<line class="st15" x1="25.88" y1="12.01" x2="23.48" y2="14.41"/>
	</g>
	<g>
		<line class="st15" x1="29.69" y1="8.2" x2="27.29" y2="10.6"/>
	</g>
	<g>
		<line class="st15" x1="29.79" y1="4.49" x2="27.39" y2="6.88"/>
	</g>
	<g>
		<line class="st15" x1="25.88" y1="4.39" x2="23.48" y2="6.78"/>
	</g>
	<g>
		<line class="st15" x1="27.9" y1="4.96" x2="25.51" y2="2.56"/>
	</g>
	<g>
		<line class="st15" x1="35.44" y1="4.84" x2="33.05" y2="2.44"/>
	</g>
	<g>
		<line class="st15" x1="31.63" y1="4.84" x2="29.24" y2="2.44"/>
	</g>
	<g>
		<line class="st15" x1="33.54" y1="4.35" x2="31.14" y2="6.75"/>
	</g>
	<g>
		<line class="st15" x1="8.66" y1="35.43" x2="6.26" y2="33.04"/>
	</g>
	<g>
		<line class="st15" x1="10.68" y1="31.24" x2="8.28" y2="33.64"/>
	</g>
	<g>
		<line class="st15" x1="12.57" y1="35.53" x2="10.17" y2="33.14"/>
	</g>
	<g>
		<line class="st15" x1="16.4" y1="31.71" x2="14" y2="29.31"/>
	</g>
	<g>
		<line class="st15" x1="20.11" y1="35.42" x2="17.71" y2="33.02"/>
	</g>
	<g>
		<line class="st15" x1="23.9" y1="31.63" x2="21.5" y2="29.23"/>
	</g>
	<g>
		<line class="st15" x1="16.3" y1="27.8" x2="13.9" y2="25.4"/>
	</g>
	<g>
		<line class="st15" x1="12.49" y1="31.61" x2="10.09" y2="29.21"/>
	</g>
	<g>
		<line class="st15" x1="16.3" y1="35.42" x2="13.9" y2="33.02"/>
	</g>
	<g>
		<line class="st15" x1="20.11" y1="31.61" x2="17.71" y2="29.21"/>
	</g>
	<g>
		<line class="st15" x1="14.39" y1="31.12" x2="12" y2="33.51"/>
	</g>
	<g>
		<line class="st15" x1="14.51" y1="27.42" x2="12.11" y2="29.81"/>
	</g>
	<g>
		<line class="st15" x1="18.3" y1="31.21" x2="15.91" y2="33.61"/>
	</g>
	<g>
		<line class="st15" x1="18.32" y1="23.61" x2="15.92" y2="26"/>
	</g>
	<g>
		<line class="st15" x1="22.01" y1="31.12" x2="19.62" y2="33.51"/>
	</g>
	<g>
		<line class="st15" x1="22.11" y1="27.4" x2="19.72" y2="29.8"/>
	</g>
	<g>
		<line class="st15" x1="18.2" y1="27.31" x2="15.81" y2="29.7"/>
	</g>
	<g>
		<line class="st15" x1="23.92" y1="35.42" x2="21.52" y2="33.02"/>
	</g>
	<g>
		<line class="st15" x1="25.94" y1="31.23" x2="23.54" y2="33.62"/>
	</g>
	<g>
		<line class="st15" x1="20.23" y1="27.87" x2="17.83" y2="25.48"/>
	</g>
	<g>
		<line class="st15" x1="24.06" y1="24.04" x2="21.66" y2="21.65"/>
	</g>
	<g>
		<line class="st15" x1="27.77" y1="27.76" x2="25.37" y2="25.36"/>
	</g>
	<g>
		<line class="st15" x1="31.56" y1="23.96" x2="29.17" y2="21.57"/>
	</g>
	<g>
		<line class="st15" x1="23.96" y1="20.14" x2="21.56" y2="17.74"/>
	</g>
	<g>
		<line class="st15" x1="20.15" y1="23.95" x2="17.75" y2="21.55"/>
	</g>
	<g>
		<line class="st15" x1="23.96" y1="27.76" x2="21.56" y2="25.36"/>
	</g>
	<g>
		<line class="st15" x1="27.77" y1="23.95" x2="25.37" y2="21.55"/>
	</g>
	<g>
		<line class="st15" x1="22.05" y1="23.46" x2="19.66" y2="25.85"/>
	</g>
	<g>
		<line class="st15" x1="22.17" y1="19.76" x2="19.77" y2="22.15"/>
	</g>
	<g>
		<line class="st15" x1="25.96" y1="23.55" x2="23.57" y2="25.95"/>
	</g>
	<g>
		<line class="st15" x1="25.98" y1="15.95" x2="23.58" y2="18.34"/>
	</g>
	<g>
		<line class="st15" x1="25.86" y1="27.27" x2="23.47" y2="29.66"/>
	</g>
	<g>
		<line class="st15" x1="29.67" y1="23.46" x2="27.28" y2="25.85"/>
	</g>
	<g>
		<line class="st15" x1="29.77" y1="19.74" x2="27.38" y2="22.14"/>
	</g>
	<g>
		<line class="st15" x1="25.86" y1="19.64" x2="23.47" y2="22.04"/>
	</g>
	<g>
		<line class="st15" x1="27.85" y1="35.49" x2="25.45" y2="33.1"/>
	</g>
	<g>
		<line class="st15" x1="31.68" y1="31.67" x2="29.28" y2="29.27"/>
	</g>
	<g>
		<line class="st15" x1="35.39" y1="35.38" x2="32.99" y2="32.98"/>
	</g>
	<g>
		<line class="st15" x1="31.58" y1="27.76" x2="29.18" y2="25.36"/>
	</g>
	<g>
		<line class="st15" x1="27.77" y1="31.57" x2="25.37" y2="29.17"/>
	</g>
	<g>
		<line class="st15" x1="31.58" y1="35.38" x2="29.18" y2="32.98"/>
	</g>
	<g>
		<line class="st15" x1="35.39" y1="31.57" x2="32.99" y2="29.17"/>
	</g>
	<g>
		<line class="st15" x1="29.67" y1="31.08" x2="27.28" y2="33.47"/>
	</g>
	<g>
		<line class="st15" x1="29.79" y1="27.38" x2="27.39" y2="29.77"/>
	</g>
	<g>
		<line class="st15" x1="33.58" y1="31.17" x2="31.19" y2="33.57"/>
	</g>
	<g>
		<line class="st15" x1="33.6" y1="23.57" x2="31.2" y2="25.96"/>
	</g>
	<g>
		<line class="st15" x1="33.48" y1="27.27" x2="31.09" y2="29.66"/>
	</g>
	<g>
		<line class="st15" x1="27.86" y1="20.24" x2="25.47" y2="17.84"/>
	</g>
	<g>
		<line class="st15" x1="31.69" y1="16.41" x2="29.3" y2="14.01"/>
	</g>
	<g>
		<line class="st15" x1="35.4" y1="20.12" x2="33.01" y2="17.73"/>
	</g>
	<g>
		<line class="st15" x1="31.59" y1="12.5" x2="29.2" y2="10.1"/>
	</g>
	<g>
		<line class="st15" x1="27.78" y1="16.31" x2="25.39" y2="13.91"/>
	</g>
	<g>
		<line class="st15" x1="31.59" y1="20.12" x2="29.2" y2="17.73"/>
	</g>
	<g>
		<line class="st15" x1="35.4" y1="16.31" x2="33.01" y2="13.91"/>
	</g>
	<g>
		<line class="st15" x1="29.69" y1="15.82" x2="27.29" y2="18.22"/>
	</g>
	<g>
		<line class="st15" x1="29.8" y1="12.12" x2="27.4" y2="14.52"/>
	</g>
	<g>
		<line class="st15" x1="33.6" y1="15.92" x2="31.2" y2="18.31"/>
	</g>
	<g>
		<line class="st15" x1="33.61" y1="8.31" x2="31.22" y2="10.71"/>
	</g>
	<g>
		<line class="st15" x1="33.5" y1="19.63" x2="31.1" y2="22.03"/>
	</g>
	<g>
		<line class="st15" x1="33.5" y1="12.01" x2="31.1" y2="14.41"/>
	</g>
	<g>
		<line class="st15" x1="35.48" y1="27.86" x2="33.09" y2="25.46"/>
	</g>
	<g>
		<line class="st15" x1="35.4" y1="23.93" x2="33.01" y2="21.54"/>
	</g>
	<g>
		<line class="st15" x1="35.52" y1="12.58" x2="33.13" y2="10.18"/>
	</g>
	<g>
		<line class="st15" x1="35.44" y1="8.65" x2="33.05" y2="6.25"/>
	</g>
</g>
</svg>
