<?xml version="1.0" encoding="utf-8"?>
<!-- Generator: Adobe Illustrator 23.0.0, SVG Export Plug-In . SVG Version: 6.00 Build 0)  -->
<svg version="1.1" id="图层_1" xmlns="http://www.w3.org/2000/svg" xmlns:xlink="http://www.w3.org/1999/xlink" x="0px" y="0px"
	 viewBox="0 0 99.21 99.21" style="enable-background:new 0 0 99.21 99.21;" xml:space="preserve">
<style type="text/css">
	.st0{fill:none;stroke:#FFFFFF;stroke-width:2;stroke-linecap:round;stroke-linejoin:round;stroke-miterlimit:10;}
</style>
<g>
	<circle class="st0" cx="49.6" cy="49.6" r="39"/>
	<g>
		<polyline class="st0" points="49.22,33.94 39.78,36.1 31.05,61.24 		"/>
		<polyline class="st0" points="69.6,54.47 61.11,29.33 50.93,28.05 47.61,40.91 		"/>
		<polyline class="st0" points="54.49,40.27 43.92,41.25 37.58,61.24 		"/>
		<path class="st0" d="M67.38,47.91l5.64,4.52c1.09,0.87,0.47,2.63-0.92,2.63H47.77c-1.7,0-3.08,1.38-3.08,3.08l0,0
			c0,1.7-1.38,3.08-3.08,3.08H25.19"/>
		<path class="st0" d="M67.38,47.91l7.61,4.92c3.08,1.99,1.67,6.78-2,6.78H53.13c-1.7,0-3.08,1.38-3.08,3.08l0,0
			c0,2.13-1.73,3.85-3.85,3.85h-21"/>
	</g>
</g>
</svg>
