<?xml version="1.0" encoding="utf-8"?>
<!-- Generator: Adobe Illustrator 23.0.0, SVG Export Plug-In . SVG Version: 6.00 Build 0)  -->
<svg version="1.1" id="图层_1" xmlns="http://www.w3.org/2000/svg" xmlns:xlink="http://www.w3.org/1999/xlink" x="0px" y="0px"
	 viewBox="0 0 37.98 37.98" style="enable-background:new 0 0 37.98 37.98;" xml:space="preserve">
<style type="text/css">
	.st0{clip-path:url(#SVGID_2_);}
	.st1{fill:none;stroke:#000000;stroke-width:0.1574;stroke-linejoin:round;stroke-miterlimit:10;}
	.st2{fill:none;stroke:#000000;stroke-width:0.9441;stroke-linecap:round;stroke-miterlimit:10;}
	.st3{fill:none;stroke:#000000;stroke-width:1.3139;stroke-miterlimit:10;}
	.st4{fill:none;stroke:#000000;stroke-width:1.3906;stroke-miterlimit:10;}
	.st5{fill:none;stroke:#000000;stroke-width:0.5226;stroke-miterlimit:10;}
	.st6{fill:none;stroke:#000000;stroke-width:0.9441;stroke-miterlimit:10;}
	.st7{fill:none;stroke:#000000;stroke-width:0.5915;stroke-miterlimit:10;}
	.st8{fill:none;stroke:#000000;stroke-miterlimit:10;}
	.st9{fill:none;stroke:#000000;stroke-linecap:round;stroke-linejoin:round;stroke-miterlimit:10;}
	.st10{fill:none;stroke:#000000;stroke-width:1.3906;stroke-linecap:round;stroke-miterlimit:10;}
	.st11{fill-rule:evenodd;clip-rule:evenodd;fill:none;stroke:#000000;stroke-width:1.3906;stroke-miterlimit:10;}
	.st12{fill-rule:evenodd;clip-rule:evenodd;fill:none;stroke:#000000;stroke-width:0.9441;stroke-miterlimit:10;}
	.st13{fill-rule:evenodd;clip-rule:evenodd;fill:none;stroke:#000000;stroke-width:0.5915;stroke-miterlimit:10;}
	.st14{fill:none;stroke:#000000;stroke-width:1.4964;stroke-miterlimit:10;}
	.st15{fill:none;stroke:#000000;stroke-width:1.4979;stroke-linecap:round;stroke-miterlimit:10;}
	.st16{fill:none;stroke:#000000;stroke-width:0.4896;stroke-miterlimit:10;}
	.st17{fill:none;stroke:#000000;stroke-width:0.5515;stroke-miterlimit:10;}
	.st18{fill-rule:evenodd;clip-rule:evenodd;fill:none;stroke:#000000;stroke-width:1.8871;stroke-miterlimit:10;}
	.st19{fill:none;stroke:#000000;stroke-width:1.3098;stroke-miterlimit:10;}
	.st20{fill:none;stroke:#000000;stroke-width:1.8871;stroke-linecap:round;stroke-miterlimit:10;}
	.st21{fill-rule:evenodd;clip-rule:evenodd;fill:none;stroke:#000000;stroke-width:0.6173;stroke-miterlimit:10;}
	.st22{fill-rule:evenodd;clip-rule:evenodd;fill:none;stroke:#000000;stroke-width:0.3868;stroke-miterlimit:10;}
	.st23{fill-rule:evenodd;clip-rule:evenodd;fill:none;stroke:#000000;stroke-width:1.4489;stroke-miterlimit:10;}
	.st24{fill-rule:evenodd;clip-rule:evenodd;fill:none;stroke:#000000;stroke-width:0.9077;stroke-miterlimit:10;}
	.st25{fill:none;stroke:#000000;stroke-width:0.0145;stroke-miterlimit:10;}
	.st26{fill:none;stroke:#000000;stroke-width:1.1586;stroke-miterlimit:10;}
	.st27{fill:none;stroke:#000000;stroke-width:1.3665;stroke-miterlimit:10;}
	.st28{fill:none;stroke:#000000;stroke-width:1.5609;stroke-miterlimit:10;}
	.st29{fill:none;stroke:#000000;stroke-width:1.6987;stroke-miterlimit:10;}
	.st30{fill:#221814;}
	.st31{fill:none;}
	.st32{fill:none;stroke:#000000;stroke-width:1.6838;stroke-miterlimit:10;}
	.st33{fill:none;stroke:#000000;stroke-width:1.6605;stroke-miterlimit:10;}
	.st34{fill:none;stroke:#000000;stroke-width:1.2082;stroke-miterlimit:10;}
	.st35{fill:none;stroke:#000000;stroke-width:1.1058;stroke-miterlimit:10;}
	.st36{fill:none;stroke:#000000;stroke-width:1.391;stroke-linejoin:round;stroke-miterlimit:10;}
	.st37{fill:none;stroke:#000000;stroke-width:1.3476;stroke-linejoin:round;stroke-miterlimit:10;}
	.st38{fill:none;stroke:#000000;stroke-width:0.7027;stroke-miterlimit:10;}
	.st39{fill:none;stroke:#9A1E23;stroke-width:0.818;stroke-miterlimit:22.926;}
	.st40{fill:none;stroke:#231815;stroke-width:0.818;stroke-miterlimit:10;}
	.st41{fill:#231815;}
	.st42{fill:#932023;}
	.st43{fill:none;stroke:#231815;stroke-width:0.215;stroke-miterlimit:10;}
	.st44{fill:none;stroke:#231815;stroke-width:0.209;stroke-miterlimit:10;}
	.st45{fill:none;stroke:#231815;stroke-width:0.186;stroke-miterlimit:10;}
	.st46{fill:#FFFFFF;}
	.st47{fill:none;stroke:#FFFFFF;stroke-width:1.3906;stroke-miterlimit:10;}
	.st48{fill:none;stroke:#FFFFFF;stroke-width:0.7027;stroke-miterlimit:10;}
	.st49{fill:none;stroke:#FFFFFF;stroke-width:1.3906;stroke-linecap:round;stroke-miterlimit:10;}
</style>
<g>
	<g>
		<path class="st46" d="M32.5,7.19v19.57c0,0.11-0.16,0.34-0.33,0.37l-12.02,2.78V10.34c0-0.11,0.16-0.34,0.33-0.37L32.5,7.19
			 M32.8,5.73c-0.1,0-0.21,0.01-0.32,0.04L20.16,8.61c-0.78,0.18-1.41,0.95-1.41,1.73v19.92c0,0.67,0.46,1.12,1.09,1.12
			c0.1,0,0.21-0.01,0.32-0.04l12.32-2.84c0.78-0.18,1.41-0.95,1.41-1.73V6.85C33.89,6.18,33.42,5.73,32.8,5.73L32.8,5.73z"/>
	</g>
</g>
<path class="st47" d="M25.61,29.59c0,1.38-1.12,2.76-2.5,3.08l-13.08,3.02c-1.38,0.32-2.5-0.54-2.5-1.92V7.52
	c0-1.38,1.12-2.76,2.5-3.08l13.08-3.02c1.38-0.32,2.5,0.54,2.5,1.92v4.78"/>
<path class="st48" d="M13.48,10.33l-2.34,0.54c-0.56,0.13-1.02-0.22-1.02-0.79V7.79c0-0.56,0.46-1.13,1.02-1.26l2.34-0.54
	c0.56-0.13,1.02,0.22,1.02,0.79v2.29C14.5,9.64,14.04,10.2,13.48,10.33z"/>
<path class="st47" d="M19.54,21.6c-0.79,0.62-1.7,1.08-2.66,1.3c-3.05,0.7-5.52-1.2-5.52-4.25s2.47-6.09,5.52-6.8
	c0.88-0.2,1.72-0.19,2.46,0.01"/>
<line class="st49" x1="16.57" y1="24.77" x2="16.57" y2="27.91"/>
</svg>
