<?xml version="1.0" encoding="utf-8"?>
<!-- Generator: Adobe Illustrator 23.0.0, SVG Export Plug-In . SVG Version: 6.00 Build 0)  -->
<svg version="1.1" id="图层_1" xmlns="http://www.w3.org/2000/svg" xmlns:xlink="http://www.w3.org/1999/xlink" x="0px" y="0px"
	 viewBox="0 0 38 38" style="enable-background:new 0 0 38 38;" xml:space="preserve">
<style type="text/css">
	.st0{fill:#FFFFFF;}
</style>
<g>
	<path class="st0" d="M20.7,35.4c-6.4,0-11.6-5.2-11.6-11.6V11.7h5.5v12c0,3.4,2.7,6.1,6.1,6.1c3.4,0,6.1-2.7,6.1-6.1v-12h5.5v12.1
		C32.3,30.2,27.1,35.4,20.7,35.4z M10.1,12.7v11.1c0,5.8,4.7,10.6,10.6,10.6c5.8,0,10.6-4.7,10.6-10.6V12.7h-3.5v11
		c0,3.9-3.2,7.1-7.1,7.1s-7.1-3.2-7.1-7.1v-11H10.1z"/>
</g>
<g>
	<path class="st0" d="M32.1,9.6h-5.3V5.9h5.3V9.6z M27.8,8.6h3.3V6.9h-3.3V8.6z"/>
</g>
<g>
	<path class="st0" d="M14.4,9.6H9.1V5.9h5.3V9.6z M10.1,8.6h3.3V6.9h-3.3V8.6z"/>
</g>
</svg>
