<?xml version="1.0" encoding="utf-8"?>
<!-- Generator: Adobe Illustrator 23.0.0, SVG Export Plug-In . SVG Version: 6.00 Build 0)  -->
<svg version="1.1" id="图层_1" xmlns="http://www.w3.org/2000/svg" xmlns:xlink="http://www.w3.org/1999/xlink" x="0px" y="0px"
	 viewBox="0 0 37.98 37.98" style="enable-background:new 0 0 37.98 37.98;" xml:space="preserve">
<style type="text/css">
	.st0{clip-path:url(#SVGID_2_);}
	.st1{fill:none;stroke:#000000;stroke-width:0.1574;stroke-linejoin:round;stroke-miterlimit:10;}
	.st2{fill:none;stroke:#000000;stroke-width:0.9441;stroke-linecap:round;stroke-miterlimit:10;}
	.st3{fill:none;stroke:#000000;stroke-width:1.3139;stroke-miterlimit:10;}
	.st4{fill:none;stroke:#000000;stroke-width:1.3906;stroke-miterlimit:10;}
	.st5{fill:none;stroke:#000000;stroke-width:0.5226;stroke-miterlimit:10;}
	.st6{fill:none;stroke:#000000;stroke-width:0.9441;stroke-miterlimit:10;}
	.st7{fill:none;stroke:#000000;stroke-width:0.5915;stroke-miterlimit:10;}
	.st8{fill:none;stroke:#000000;stroke-miterlimit:10;}
	.st9{fill:none;stroke:#000000;stroke-linecap:round;stroke-linejoin:round;stroke-miterlimit:10;}
	.st10{fill:none;stroke:#000000;stroke-width:1.3906;stroke-linecap:round;stroke-miterlimit:10;}
	.st11{fill-rule:evenodd;clip-rule:evenodd;fill:none;stroke:#000000;stroke-width:1.3906;stroke-miterlimit:10;}
	.st12{fill-rule:evenodd;clip-rule:evenodd;fill:none;stroke:#000000;stroke-width:0.9441;stroke-miterlimit:10;}
	.st13{fill-rule:evenodd;clip-rule:evenodd;fill:none;stroke:#000000;stroke-width:0.5915;stroke-miterlimit:10;}
	.st14{fill:none;stroke:#000000;stroke-width:1.4964;stroke-miterlimit:10;}
	.st15{fill:none;stroke:#000000;stroke-width:1.4979;stroke-linecap:round;stroke-miterlimit:10;}
	.st16{fill:none;stroke:#000000;stroke-width:0.4896;stroke-miterlimit:10;}
	.st17{fill:none;stroke:#000000;stroke-width:0.5515;stroke-miterlimit:10;}
	.st18{fill-rule:evenodd;clip-rule:evenodd;fill:none;stroke:#FFFFFF;stroke-width:1.8871;stroke-miterlimit:10;}
	.st19{fill:none;stroke:#FFFFFF;stroke-width:1.3098;stroke-miterlimit:10;}
	.st20{fill-rule:evenodd;clip-rule:evenodd;fill:none;stroke:#000000;stroke-width:1.8871;stroke-miterlimit:10;}
	.st21{fill:none;stroke:#000000;stroke-width:1.3098;stroke-miterlimit:10;}
	.st22{fill:none;stroke:#000000;stroke-width:1.8871;stroke-linecap:round;stroke-miterlimit:10;}
	.st23{fill-rule:evenodd;clip-rule:evenodd;fill:none;stroke:#000000;stroke-width:0.6173;stroke-miterlimit:10;}
	.st24{fill-rule:evenodd;clip-rule:evenodd;fill:none;stroke:#000000;stroke-width:0.3868;stroke-miterlimit:10;}
	.st25{fill:none;stroke:#000000;stroke-width:1.6605;stroke-miterlimit:10;}
	.st26{fill-rule:evenodd;clip-rule:evenodd;fill:none;stroke:#000000;stroke-width:1.4489;stroke-miterlimit:10;}
	.st27{fill-rule:evenodd;clip-rule:evenodd;fill:none;stroke:#000000;stroke-width:0.9077;stroke-miterlimit:10;}
	.st28{fill:none;stroke:#000000;stroke-width:0.0145;stroke-miterlimit:10;}
	.st29{fill:none;stroke:#000000;stroke-width:1.1586;stroke-miterlimit:10;}
	.st30{fill:none;stroke:#000000;stroke-width:1.3665;stroke-miterlimit:10;}
	.st31{fill:none;stroke:#000000;stroke-width:1.5609;stroke-miterlimit:10;}
	.st32{fill:none;stroke:#000000;stroke-width:1.6987;stroke-miterlimit:10;}
	.st33{fill:none;stroke:#FFFFFF;stroke-width:1.3906;stroke-linecap:round;stroke-miterlimit:10;}
	.st34{fill:#221814;}
	.st35{fill:none;}
	.st36{fill:none;stroke:#FFFFFF;stroke-width:1.3906;stroke-miterlimit:10;}
	.st37{fill:none;stroke:#FFFFFF;stroke-width:1.6838;stroke-miterlimit:10;}
	.st38{fill:#FFFFFF;}
	.st39{fill:none;stroke:#000000;stroke-width:1.6838;stroke-miterlimit:10;}
	.st40{fill:none;stroke:#000000;stroke-width:1.2082;stroke-miterlimit:10;}
	.st41{fill:none;stroke:#000000;stroke-width:1.1058;stroke-miterlimit:10;}
	.st42{fill:none;stroke:#000000;stroke-width:1.391;stroke-linejoin:round;stroke-miterlimit:10;}
	.st43{fill:none;stroke:#000000;stroke-width:1.3476;stroke-linejoin:round;stroke-miterlimit:10;}
	.st44{fill:none;stroke:#FFFFFF;stroke-width:1.4997;stroke-linejoin:round;stroke-miterlimit:10;}
	.st45{fill:none;stroke:#FFFFFF;stroke-width:1.6438;stroke-miterlimit:10;}
	.st46{fill:none;stroke:#FFFFFF;stroke-width:1.3683;stroke-miterlimit:10;}
	.st47{fill:none;stroke:#000000;stroke-width:1.4997;stroke-linejoin:round;stroke-miterlimit:10;}
	.st48{fill:none;stroke:#000000;stroke-width:1.6438;stroke-miterlimit:10;}
	.st49{fill:none;stroke:#000000;stroke-width:1.3683;stroke-miterlimit:10;}
</style>
<g>
	<defs>
		<path id="SVGID_1_" d="M126.75-79.96c0,8.48-6.87,15.35-15.35,15.35s-15.35-6.87-15.35-15.35s6.87-15.35,15.35-15.35
			S126.75-88.43,126.75-79.96z M111.41-92.25c-6.79,0-12.3,5.51-12.3,12.3c0,6.79,5.51,12.3,12.3,12.3s12.3-5.51,12.3-12.3
			C123.7-86.75,118.2-92.25,111.41-92.25z"/>
	</defs>
	<clipPath id="SVGID_2_">
		<use xlink:href="#SVGID_1_"  style="overflow:visible;"/>
	</clipPath>
	<g class="st0">
		<line class="st1" x1="25.85" y1="-100.43" x2="140.17" y2="13.89"/>
		<line class="st1" x1="26.57" y1="-101.15" x2="140.89" y2="13.17"/>
		<line class="st1" x1="27.29" y1="-101.87" x2="141.61" y2="12.45"/>
		<line class="st1" x1="28.01" y1="-102.59" x2="142.33" y2="11.73"/>
		<line class="st1" x1="28.73" y1="-103.31" x2="143.05" y2="11.01"/>
		<line class="st1" x1="29.45" y1="-104.03" x2="143.77" y2="10.3"/>
		<line class="st1" x1="30.17" y1="-104.74" x2="144.49" y2="9.58"/>
		<line class="st1" x1="30.88" y1="-105.46" x2="145.21" y2="8.86"/>
		<line class="st1" x1="31.6" y1="-106.18" x2="145.92" y2="8.14"/>
		<line class="st1" x1="32.32" y1="-106.9" x2="146.64" y2="7.42"/>
		<line class="st1" x1="33.04" y1="-107.62" x2="147.36" y2="6.7"/>
		<line class="st1" x1="33.76" y1="-108.34" x2="148.08" y2="5.98"/>
		<line class="st1" x1="34.48" y1="-109.06" x2="148.8" y2="5.26"/>
		<line class="st1" x1="35.2" y1="-109.78" x2="149.52" y2="4.55"/>
		<line class="st1" x1="35.92" y1="-110.49" x2="150.24" y2="3.83"/>
		<line class="st1" x1="36.63" y1="-111.21" x2="150.96" y2="3.11"/>
		<line class="st1" x1="37.35" y1="-111.93" x2="151.67" y2="2.39"/>
	</g>
</g>
<path class="st44" d="M13.9,35.83l-6.14-1.36c0,0-1.01-0.1-1.01-1.86c0-1.68,0.11-27.04,0.11-27.04S6.81,3.83,7.58,3.7
	C8.49,3.54,14,2.46,14,2.46s1.84-0.66,1.84,1.67s0,29.95,0,29.95S15.84,36.14,13.9,35.83z"/>
<path class="st44" d="M31.4,35.99l-6.86-1.52c0,0-1.01-0.1-1.01-1.86c0-1.68,0.11-27.04,0.11-27.04s-0.05-1.73,0.72-1.86
	c0.9-0.15,7.19-1.39,7.19-1.39s1.07-0.51,1.07,1.82s0,29.95,0,29.95S32.68,36.27,31.4,35.99z"/>
<polygon class="st38" points="20.37,6.41 21.74,6.61 21.68,6.21 22.58,6.07 21.25,5.85 21.31,6.26 "/>
<polygon class="st38" points="20.37,31.72 21.74,31.91 21.68,31.51 22.58,31.37 21.25,31.16 21.31,31.56 "/>
<path class="st38" d="M19.84,7.72l-1.15,0.04c-0.76,0.03-1.41-0.56-1.44-1.32v0c-0.03-0.76,0.57-1.41,1.33-1.44l1.17-0.04l0.02,0.74
	l-1.15,0.04C18.28,5.76,18,6.06,18.02,6.41v0c0.01,0.35,0.31,0.63,0.67,0.61l1.13-0.04L19.84,7.72z"/>
<rect x="19.88" y="7.09" transform="matrix(0.0312 0.9995 -0.9995 0.0312 26.9526 -13.1196)" class="st38" width="0.74" height="0.51"/>
<rect x="19.88" y="5.07" transform="matrix(0.0312 0.9995 -0.9995 0.0312 24.9349 -15.0753)" class="st38" width="0.74" height="0.51"/>
<path class="st38" d="M19.84,33.07l-1.15,0.04c-0.76,0.03-1.41-0.56-1.44-1.32v0c-0.03-0.76,0.57-1.41,1.33-1.44l1.17-0.04
	l0.02,0.74l-1.15,0.04c-0.35,0.01-0.63,0.31-0.61,0.67l0,0c0.01,0.35,0.31,0.63,0.67,0.61l1.13-0.04L19.84,33.07z"/>
<rect x="19.94" y="32.44" transform="matrix(0.0312 0.9995 -0.9995 0.0312 52.3485 11.3729)" class="st38" width="0.74" height="0.51"/>
<rect x="19.88" y="30.42" transform="matrix(0.0312 0.9995 -0.9995 0.0312 50.2696 9.4803)" class="st38" width="0.74" height="0.51"/>
</svg>
