<?xml version="1.0" encoding="utf-8"?>
<!-- Generator: Adobe Illustrator 23.0.0, SVG Export Plug-In . SVG Version: 6.00 Build 0)  -->
<svg version="1.1" id="图层_1" xmlns="http://www.w3.org/2000/svg" xmlns:xlink="http://www.w3.org/1999/xlink" x="0px" y="0px"
	 viewBox="0 0 300 300" style="enable-background:new 0 0 300 300;" xml:space="preserve">
<style type="text/css">
	.st0{fill:#FFFFFF;}
	.st1{fill:#0FB7D4;}
	.st2{fill:#C2E4EE;}
	.st3{fill:#231815;}
</style>
<g>
	<g>
		<path class="st0" d="M211.5,20c5,0,9,4,9,9v242c0,5-4,9-9,9h-123c-5,0-9-4-9-9V29c0-5,4-9,9-9H211.5 M211.5,8.7h-123
			c-11.2,0-20.3,9.1-20.3,20.3v242c0,11.2,9.1,20.3,20.3,20.3h123c11.2,0,20.3-9.1,20.3-20.3V29C231.8,17.8,222.7,8.7,211.5,8.7
			L211.5,8.7z"/>
	</g>
	<g>
		<path class="st0" d="M122.1,72h-21.1c-6.7,0-12.1-5.4-12.1-12.1V39.2c0-6.7,5.4-12.1,12.1-12.1h21.1c6.7,0,12.1,5.4,12.1,12.1
			v20.8C134.2,66.6,128.7,72,122.1,72z M100.9,32.8c-3.5,0-6.4,2.9-6.4,6.4v20.8c0,3.5,2.9,6.4,6.4,6.4h21.1c3.5,0,6.4-2.9,6.4-6.4
			V39.2c0-3.5-2.9-6.4-6.4-6.4H100.9z"/>
	</g>
	<path class="st0" d="M150,97.7c24.5,0,44.5,20,44.5,44.5s-20,44.5-44.5,44.5s-44.5-20-44.5-44.5S125.5,97.7,150,97.7 M150,86.4
		c-30.8,0-55.8,25-55.8,55.8s25,55.8,55.8,55.8s55.8-25,55.8-55.8S180.8,86.4,150,86.4L150,86.4z"/>
	<g>
		<path class="st0" d="M150,240.3c-3.1,0-5.6-2.5-5.6-5.6v-28.4c0-3.1,2.5-5.6,5.6-5.6c3.1,0,5.6,2.5,5.6,5.6v28.4
			C155.6,237.8,153.1,240.3,150,240.3z"/>
	</g>
</g>
</svg>
