<?xml version="1.0" encoding="utf-8"?>
<!-- Generator: Adobe Illustrator 23.0.0, SVG Export Plug-In . SVG Version: 6.00 Build 0)  -->
<svg version="1.1" id="图层_1" xmlns="http://www.w3.org/2000/svg" xmlns:xlink="http://www.w3.org/1999/xlink" x="0px" y="0px"
	 viewBox="0 0 37.98 37.98" style="enable-background:new 0 0 37.98 37.98;" xml:space="preserve">
<style type="text/css">
	.st0{clip-path:url(#SVGID_2_);}
	.st1{fill:none;stroke:#000000;stroke-width:0.1574;stroke-linejoin:round;stroke-miterlimit:10;}
	.st2{fill:none;stroke:#000000;stroke-width:0.9441;stroke-linecap:round;stroke-miterlimit:10;}
	.st3{fill:none;stroke:#000000;stroke-width:1.3139;stroke-miterlimit:10;}
	.st4{fill:none;stroke:#000000;stroke-width:1.3906;stroke-miterlimit:10;}
	.st5{fill:none;stroke:#000000;stroke-width:0.5226;stroke-miterlimit:10;}
	.st6{fill:none;stroke:#000000;stroke-width:0.9441;stroke-miterlimit:10;}
	.st7{fill:none;stroke:#000000;stroke-width:0.5915;stroke-miterlimit:10;}
	.st8{fill:none;stroke:#000000;stroke-miterlimit:10;}
	.st9{fill:none;stroke:#000000;stroke-linecap:round;stroke-linejoin:round;stroke-miterlimit:10;}
	.st10{fill:none;stroke:#000000;stroke-width:1.3906;stroke-linecap:round;stroke-miterlimit:10;}
	.st11{fill-rule:evenodd;clip-rule:evenodd;fill:none;stroke:#000000;stroke-width:1.3906;stroke-miterlimit:10;}
	.st12{fill-rule:evenodd;clip-rule:evenodd;fill:none;stroke:#000000;stroke-width:0.9441;stroke-miterlimit:10;}
	.st13{fill-rule:evenodd;clip-rule:evenodd;fill:none;stroke:#000000;stroke-width:0.5915;stroke-miterlimit:10;}
	.st14{fill:none;stroke:#000000;stroke-width:1.4964;stroke-miterlimit:10;}
	.st15{fill:none;stroke:#FFFFFF;stroke-width:0.9441;stroke-miterlimit:10;}
	.st16{fill:none;stroke:#000000;stroke-width:1.4979;stroke-linecap:round;stroke-miterlimit:10;}
	.st17{fill:#FFFFFF;}
	.st18{fill:#F7F8F8;}
	.st19{fill:none;stroke:#000000;stroke-width:0.4896;stroke-miterlimit:10;}
	.st20{fill:none;stroke:#000000;stroke-width:0.5515;stroke-miterlimit:10;}
	.st21{fill-rule:evenodd;clip-rule:evenodd;fill:none;stroke:#000000;stroke-width:1.8871;stroke-miterlimit:10;}
	.st22{fill:none;stroke:#000000;stroke-width:1.3098;stroke-miterlimit:10;}
	
		.st23{fill-rule:evenodd;clip-rule:evenodd;fill:none;stroke:#000000;stroke-width:1.3906;stroke-linecap:round;stroke-miterlimit:10;}
	.st24{fill:none;stroke:#000000;stroke-width:1.8871;stroke-linecap:round;stroke-miterlimit:10;}
	.st25{fill-rule:evenodd;clip-rule:evenodd;fill:none;stroke:#000000;stroke-width:0.6173;stroke-miterlimit:10;}
	.st26{fill-rule:evenodd;clip-rule:evenodd;fill:none;stroke:#000000;stroke-width:0.3868;stroke-miterlimit:10;}
	.st27{fill-rule:evenodd;clip-rule:evenodd;fill:none;stroke:#000000;stroke-width:1.4489;stroke-miterlimit:10;}
	.st28{fill-rule:evenodd;clip-rule:evenodd;fill:none;stroke:#000000;stroke-width:0.9077;stroke-miterlimit:10;}
	.st29{fill:none;stroke:#000000;stroke-width:0.0145;stroke-miterlimit:10;}
	.st30{fill:none;stroke:#000000;stroke-width:1.1586;stroke-miterlimit:10;}
	.st31{fill:none;stroke:#FFFFFF;stroke-width:1.3906;stroke-miterlimit:10;}
	.st32{fill:none;stroke:#000000;stroke-width:1.3665;stroke-miterlimit:10;}
	.st33{fill:none;stroke:#000000;stroke-width:1.5609;stroke-miterlimit:10;}
	.st34{fill:none;stroke:#000000;stroke-width:1.6987;stroke-miterlimit:10;}
	.st35{fill:#221814;}
	.st36{fill:none;}
	.st37{fill:none;stroke:#000000;stroke-width:1.6838;stroke-miterlimit:10;}
	.st38{fill:none;stroke:#000000;stroke-width:1.6605;stroke-miterlimit:10;}
	.st39{fill:none;stroke:#000000;stroke-width:1.2082;stroke-miterlimit:10;}
	.st40{fill:none;stroke:#000000;stroke-width:1.1058;stroke-miterlimit:10;}
	.st41{fill:none;stroke:#000000;stroke-width:1.391;stroke-linejoin:round;stroke-miterlimit:10;}
	.st42{fill:none;stroke:#000000;stroke-width:1.3476;stroke-linejoin:round;stroke-miterlimit:10;}
	.st43{fill:none;stroke:#000000;stroke-width:0.7027;stroke-miterlimit:10;}
	.st44{fill:none;stroke:#FFFFFF;stroke-width:0.818;stroke-miterlimit:22.926;}
	.st45{opacity:0.5;fill:none;stroke:#FFFFFF;stroke-width:0.818;stroke-miterlimit:10;}
	.st46{opacity:0.5;fill:#FFFFFF;}
	.st47{fill:none;stroke:#000000;stroke-width:0.818;stroke-miterlimit:22.926;}
	.st48{opacity:0.5;fill:none;stroke:#231815;stroke-width:0.818;stroke-miterlimit:10;}
	.st49{opacity:0.5;fill:#231815;}
	.st50{fill:none;stroke:#231815;stroke-width:0.215;stroke-miterlimit:10;}
	.st51{fill:none;stroke:#231815;stroke-width:0.209;stroke-miterlimit:10;}
	.st52{fill:none;stroke:#231815;stroke-width:0.186;stroke-miterlimit:10;}
	.st53{fill:none;stroke:#FFFFFF;stroke-width:0.7027;stroke-miterlimit:10;}
	.st54{fill:none;stroke:#FFFFFF;stroke-width:1.3906;stroke-linecap:round;stroke-miterlimit:10;}
	.st55{fill:#14B8D5;}
	.st56{fill:#C3E5EE;}
	.st57{fill:#FFFFFF;stroke:#FFFFFF;stroke-width:0.25;stroke-miterlimit:10;}
	.st58{stroke:#000000;stroke-width:0.25;stroke-miterlimit:10;}
	.st59{fill:none;stroke:#000000;stroke-width:2;stroke-linecap:round;stroke-miterlimit:10;}
	.st60{fill:none;stroke:#000000;stroke-width:2;stroke-miterlimit:10;}
	.st61{fill:none;stroke:#FFFFFF;stroke-miterlimit:10;}
	.st62{fill:none;stroke:#FFFFFF;stroke-linecap:round;stroke-linejoin:round;stroke-miterlimit:10;}
	.st63{fill:none;stroke:#FFFFFF;stroke-linecap:round;stroke-miterlimit:10;}
	.st64{fill:none;stroke:#F7F8F8;stroke-miterlimit:10;}
	.st65{fill:none;stroke:#F7F8F8;stroke-linecap:round;stroke-linejoin:round;stroke-miterlimit:10;}
	.st66{fill:none;stroke:#F7F8F8;stroke-linecap:round;stroke-miterlimit:10;}
</style>
<g>
	<path class="st17" d="M18.28,4.15c1.27,0,2.3,1.03,2.3,2.3v25.04c0,1.27-1.03,2.3-2.3,2.3H6.88c-1.27,0-2.3-1.03-2.3-2.3V6.45
		c0-1.27,1.03-2.3,2.3-2.3H18.28 M18.28,3.15H6.88c-1.82,0-3.3,1.48-3.3,3.3v25.04c0,1.82,1.48,3.3,3.3,3.3h11.4
		c1.82,0,3.3-1.48,3.3-3.3V6.45C21.58,4.63,20.1,3.15,18.28,3.15L18.28,3.15z"/>
</g>
<g>
	<g>
		<path class="st17" d="M32.04,4.3c0.66,0,1.2,0.54,1.2,1.2v4.63c0,0.66-0.54,1.2-1.2,1.2h-7.23c-0.66,0-1.2-0.54-1.2-1.2V5.49
			c0-0.66,0.54-1.2,1.2-1.2H32.04 M32.04,3.3h-7.23c-1.21,0-2.2,0.98-2.2,2.2v4.63c0,1.21,0.98,2.2,2.2,2.2h7.23
			c1.21,0,2.2-0.98,2.2-2.2V5.49C34.24,4.28,33.25,3.3,32.04,3.3L32.04,3.3z"/>
	</g>
	<g>
		<line class="st61" x1="23.24" y1="6.5" x2="34.24" y2="6.5"/>
	</g>
</g>
<line class="st62" x1="8" y1="31.16" x2="17.16" y2="31.16"/>
<g>
	<path class="st17" d="M32.79,19.09c0.31,0,0.58,0.26,0.58,0.58v10.68c0,0.31-0.26,0.58-0.58,0.58h-8.4c-0.31,0-0.58-0.26-0.58-0.58
		V19.67c0-0.31,0.26-0.58,0.58-0.58H32.79 M32.79,18.09h-8.4c-0.87,0-1.58,0.71-1.58,1.58v10.68c0,0.87,0.71,1.58,1.58,1.58h8.4
		c0.87,0,1.58-0.71,1.58-1.58V19.67C34.37,18.8,33.66,18.09,32.79,18.09L32.79,18.09z"/>
</g>
<g>
	<path class="st17" d="M31.83,16.13c0.13,0.53,0.28,1.03,0.42,1.46h-7.26c0.18-0.55,0.29-1.05,0.36-1.46H31.83 M32.64,15.13h-8.18
		c0,0-0.07,1.74-0.98,3.46H33.7C33.7,18.58,32.94,16.88,32.64,15.13L32.64,15.13z"/>
</g>
<polyline class="st63" points="24.22,25.21 26.14,25.21 27.1,22.83 28.2,27.22 29.63,23.58 30.57,25.98 31.03,25.2 33.05,25.2 "/>
<g>
	<path class="st17" d="M32.2,32.37c-0.18,0.55-0.29,1.05-0.36,1.46h-6.48c-0.13-0.53-0.28-1.03-0.42-1.46H32.2 M33.7,31.37H23.48
		c0,0,0.77,1.7,1.06,3.46h8.18C32.72,34.83,32.79,33.09,33.7,31.37L33.7,31.37z"/>
</g>
</svg>
