<?xml version="1.0" encoding="UTF-8"?>
<!DOCTYPE svg PUBLIC "-//W3C//DTD SVG 1.1//EN" "http://www.w3.org/Graphics/SVG/1.1/DTD/svg11.dtd">
<!-- Creator: CorelDRAW X6 -->
<svg xmlns="http://www.w3.org/2000/svg" xml:space="preserve" width="207.949mm" height="45.7621mm" version="1.1" style="shape-rendering:geometricPrecision; text-rendering:geometricPrecision; image-rendering:optimizeQuality; fill-rule:evenodd; clip-rule:evenodd"
viewBox="0 0 4712 1037"
 xmlns:xlink="http://www.w3.org/1999/xlink">
 <defs>
  <style type="text/css">
   <![CDATA[
    .fil0 {fill:#FEFEFE}
   ]]>
  </style>
 </defs>
 <g id="图层_x0020_1">
  <metadata id="CorelCorpID_0Corel-Layer"/>
  <g id="_973937264">
   <path class="fil0" d="M1089 577c-85,-172 -166,-348 -216,-557 -60,-6 -148,-1 -210,-1 -63,0 -139,2 -181,35 -47,37 -45,113 3,143 54,34 142,-9 102,-67 -45,-9 -45,3 -53,40 -64,8 -96,-109 60,-118 41,-2 100,-3 141,0 59,4 61,35 50,89 -48,243 -197,612 -435,713 -95,40 -263,39 -304,-75 -13,-37 -12,-93 18,-112 49,-31 43,47 90,45 48,-2 34,-61 -4,-80 -61,-31 -156,1 -149,117 10,169 230,199 378,130 124,-58 208,-173 277,-297 53,-95 134,-297 158,-417 9,10 68,176 76,193 27,64 55,124 87,184 110,203 318,514 591,493 165,-12 185,-175 107,-208 -44,-18 -84,17 -50,49 32,7 71,-16 62,44 -13,89 -134,92 -218,61 -130,-48 -246,-194 -317,-304 -49,-76 -44,-55 -14,-149 43,-134 113,-320 212,-413 42,-40 79,-60 151,-34 90,33 112,-55 50,-76 -56,-19 -127,7 -167,32 -152,93 -231,347 -285,518l-10 21z"/>
   <path class="fil0" d="M3579 472c2,-17 55,-185 63,-198 93,-6 189,2 144,118 -30,78 -110,82 -207,80zm-68 -199c25,2 35,5 48,16 10,17 -84,309 -101,358 -28,81 -68,23 -78,76l159 1c27,0 27,5 30,-21 -40,-15 -67,10 -37,-88 10,-33 25,-89 38,-117l66 0 113 227 254 0 5 -24c-78,-4 -56,-30 -24,-134 11,-35 15,-58 67,-84 43,48 118,304 343,412 86,41 232,56 289,-13 31,-37 40,-101 -1,-134 -41,-32 -124,-17 -105,45 31,15 32,3 47,-13 43,-45 104,69 -4,113 -90,37 -198,-23 -248,-63 -58,-45 -111,-106 -153,-174 -24,-38 -100,-171 -108,-220 17,-18 182,-147 226,-158 25,-6 27,0 29,-27l-163 1 -6 20c8,3 65,12 13,56 -20,17 -45,35 -66,50 -23,17 -43,33 -66,50 -17,13 -51,43 -68,51 8,-39 26,-85 37,-124 17,-57 17,-75 82,-82l7 -22 -189 0 -6 23c26,2 36,2 49,18 8,26 -81,300 -96,346 -9,28 -19,59 -52,61 -35,2 -49,-27 -61,-53 -23,-47 -57,-106 -73,-153 77,-16 155,-73 145,-166 -11,-108 -186,-78 -318,-78 -25,0 -27,-3 -28,23z"/>
   <path class="fil0" d="M2440 18l-7 24 15 5c17,4 26,4 44,17 41,30 51,115 66,172 14,56 126,487 119,508 -13,34 -112,140 -150,171 -56,45 -135,90 -234,82 -92,-7 -157,-64 -166,-152 -18,-171 159,-252 247,-188 14,10 31,31 13,53 -13,17 -34,15 -23,57 80,71 128,-163 -71,-157 -112,3 -198,91 -205,201 -15,245 300,291 479,115 87,-86 108,-116 175,-222 47,-74 366,-574 396,-605 67,-71 116,-26 119,-79l-196 0c-35,0 -40,-8 -45,24l11 4c5,1 10,2 15,3 82,20 17,101 -2,131 -89,142 -210,318 -289,453 -14,-20 -96,-398 -115,-476 -20,-83 -18,-102 66,-113l7 -26 -268 0z"/>
   <path class="fil0" d="M1689 270c39,15 47,3 54,81l31 370 35 2 188 -366c14,28 24,305 33,366 48,0 33,-2 61,-55 35,-64 172,-339 202,-368 28,-28 27,-18 64,-30l5 -20 -137 -1c-21,0 -19,-1 -22,21 29,12 65,9 26,82 -25,48 -136,274 -150,285 -1,-40 -22,-313 -18,-332 4,-17 12,-25 27,-29 26,-7 27,4 32,-26l-146 -1c-26,0 -27,-3 -30,21 43,17 69,0 11,114 -22,44 -118,238 -131,252l-20 -306c-3,-65 15,-46 53,-60l6 -20 -143 -1c-25,0 -27,-3 -30,21z"/>
   <path class="fil0" d="M3356 421c-12,101 -62,208 -121,252 -106,79 -197,10 -183,-127 30,-292 336,-393 304,-125zm-135 -178c-271,50 -341,536 -28,487 261,-40 337,-545 28,-487z"/>
   <path class="fil0" d="M1329 270c64,27 73,-36 -16,258 -11,38 -23,77 -36,115 -27,81 -69,28 -76,79l406 0 73 -144 -22 -4c-14,14 -21,31 -41,50 -77,73 -185,75 -291,73 8,-35 21,-73 32,-107 7,-23 20,-90 37,-102 0,0 73,-4 97,12 26,18 13,45 16,73 27,-1 22,-13 41,-78 8,-28 22,-66 27,-94 -41,-3 -11,15 -51,44 -30,22 -85,18 -126,18l57 -192c86,-5 158,0 190,84 9,24 0,20 26,16l-17 -123 -272 0c-35,0 -48,-10 -53,21z"/>
  </g>
 </g>
</svg>
