<svg xmlns="http://www.w3.org/2000/svg" xmlns:xlink="http://www.w3.org/1999/xlink" viewBox="0 0 32 32"><defs><style>.cls-1{fill:none;}.cls-2{clip-path:url(#clip-path);}.cls-3{fill:#383c42;}.cls-4{fill:#82995b;}.cls-5{fill:#8c100a;}.cls-6{fill:#0c0e11;}</style><clipPath id="clip-path" transform="translate(0 0)"><circle class="cls-1" cx="16" cy="16" r="16"/></clipPath></defs><title>序曲</title><g id="图层_2" data-name="图层 2"><g id="图层_1-2" data-name="图层 1"><g class="cls-2"><rect class="cls-3" x="20" width="4" height="4"/><rect class="cls-3" x="20" y="4" width="4" height="4"/><rect class="cls-3" x="24" y="4" width="4" height="4"/><rect class="cls-3" x="16" y="4" width="4" height="4"/><rect class="cls-3" x="12" y="4" width="4" height="4"/><rect class="cls-3" x="12" y="8" width="4" height="4"/><rect class="cls-3" x="12" y="20" width="4" height="4"/><rect class="cls-3" x="12" y="24" width="4" height="4"/><rect class="cls-3" x="8" y="24" width="4" height="4"/><rect class="cls-3" x="8" y="28" width="4" height="4"/><rect class="cls-4" x="12" width="4" height="4"/><rect class="cls-4" x="12" y="28" width="4" height="4"/><rect class="cls-4" x="12" y="12" width="4" height="4"/><rect class="cls-4" x="12" y="16" width="4" height="4"/><rect class="cls-4" x="8" y="16" width="4" height="4"/><rect class="cls-4" x="8" y="20" width="4" height="4"/><rect class="cls-3" x="8" y="8" width="4" height="4"/><rect class="cls-3" x="8" y="12" width="4" height="4"/><rect class="cls-3" x="4" y="12" width="4" height="4"/><rect class="cls-3" x="4" y="16" width="4" height="4"/><rect class="cls-3" y="16" width="4" height="4"/><rect class="cls-3" y="20" width="4" height="4"/><rect class="cls-3" y="4" width="4" height="4"/><rect class="cls-3" width="4" height="4"/><rect class="cls-4" x="8" width="4" height="4"/><rect class="cls-4" x="8" y="4" width="4" height="4"/><rect class="cls-4" x="4" y="4" width="4" height="4"/><rect class="cls-4" x="4" y="8" width="4" height="4"/><rect class="cls-4" y="8" width="4" height="4"/><rect class="cls-4" y="12" width="4" height="4"/><rect class="cls-4" y="24" width="4" height="4"/><rect class="cls-4" y="28" width="4" height="4"/><rect class="cls-3" x="4" y="28" width="4" height="4"/><rect class="cls-3" x="4" width="4" height="4"/><rect class="cls-4" x="4" y="20" width="4" height="4"/><rect class="cls-4" x="4" y="24" width="4" height="4"/><rect class="cls-5" x="24" width="4" height="4"/><rect class="cls-5" x="16" width="4" height="4"/><rect class="cls-3" x="20" y="8" width="4" height="4"/><rect class="cls-3" x="20" y="12" width="4" height="4"/><rect class="cls-3" x="24" y="12" width="4" height="4"/><rect class="cls-3" x="16" y="12" width="4" height="4"/><rect class="cls-5" x="24" y="8" width="4" height="4"/><rect class="cls-5" x="16" y="8" width="4" height="4"/><rect class="cls-3" x="20" y="16" width="4" height="4"/><rect class="cls-3" x="20" y="20" width="4" height="4"/><rect class="cls-3" x="24" y="20" width="4" height="4"/><rect class="cls-3" x="16" y="20" width="4" height="4"/><rect class="cls-5" x="24" y="16" width="4" height="4"/><rect class="cls-5" x="16" y="16" width="4" height="4"/><rect class="cls-3" x="20" y="24" width="4" height="4"/><rect class="cls-3" x="28" y="20" width="4" height="4"/><rect class="cls-3" x="28" y="24" width="4" height="4"/><rect class="cls-3" x="28" y="4" width="4" height="4"/><rect class="cls-3" x="28" y="8" width="4" height="4"/><rect class="cls-3" x="20" y="28" width="4" height="4"/><rect class="cls-3" x="24" y="28" width="4" height="4"/><rect class="cls-3" x="16" y="28" width="4" height="4"/><rect class="cls-5" x="24" y="24" width="4" height="4"/><rect class="cls-5" x="16" y="24" width="4" height="4"/><rect class="cls-6" x="28" y="12" width="4" height="4"/><rect class="cls-6" x="28" y="16" width="4" height="4"/><rect class="cls-6" x="28" width="4" height="4"/><rect class="cls-6" x="28" y="28" width="4" height="4"/></g></g></g></svg>