<?xml version="1.0" encoding="UTF-8"?>
<svg width="512px" height="513px" viewBox="0 0 512 513" version="1.1" xmlns="http://www.w3.org/2000/svg" xmlns:xlink="http://www.w3.org/1999/xlink">
    <title>750_图标</title>
    <defs>
        <linearGradient x1="0%" y1="100%" x2="192.386934%" y2="-37.7415975%" id="linearGradient-1">
            <stop stop-color="#52EC69" offset="0%"></stop>
            <stop stop-color="#33BCB1" offset="15.2347435%"></stop>
            <stop stop-color="#52EC69" offset="50.1259117%"></stop>
            <stop stop-color="#37DAB8" offset="63.69885%"></stop>
            <stop stop-color="#14CC70" offset="72.7444216%"></stop>
            <stop stop-color="#04BB42" stop-opacity="0" offset="100%"></stop>
        </linearGradient>
    </defs>
    <g id="页面-1" stroke="none" stroke-width="1" fill="none" fill-rule="evenodd">
        <g id="环保页面_iphone_750" transform="translate(-118.000000, -10248.000000)">
            <g id="05" transform="translate(0.000000, 9938.405797)">
                <g id="750_图标" transform="translate(119.565217, 311.594203)">
                    <circle id="椭圆形" stroke="url(#linearGradient-1)" stroke-width="2.17391304" fill-opacity="0.17729219" fill="#3BD18A" stroke-linecap="square" cx="254.528986" cy="254.528986" r="254.528986"></circle>
                    <g id="回收" transform="translate(108.695652, 108.695652)" fill="#09C75A" fill-rule="nonzero">
                        <path d="M260.047615,194.630348 L193.176631,194.630348 L193.176631,168.575266 L159.070193,229.295909 L193.176631,290.072464 L193.176631,264.129206 L227.28307,264.129206 C235.837635,264.129206 243.721255,259.544406 247.858757,252.108084 L290.072464,177.018007 C283.86621,187.920885 272.40421,194.798085 260.047615,194.630348 L260.047615,194.630348 Z M212.186777,90.0745449 L246.40504,29.353902 L224.48746,42.4373554 C224.48746,42.4373554 215.932894,27.1174142 212.410426,20.9670728 C207.601977,12.4684193 198.656026,6.98902428 189.039129,7.10084867 C179.310407,7.21267306 170.364456,12.5243315 165.667832,21.0788972 C165.667832,21.0788972 157.840124,34.9451214 150.012417,49.0909066 L165.947393,77.438389 L143.917988,90.2422815 L212.186777,90.0745449 Z M80.5135597,159.349754 L47.0221554,218.784416 C40.7599896,229.799118 40.7040774,243.329869 46.8544188,254.344572 L4.64071212,179.254495 C0.39138536,171.650436 0.447297554,162.424924 4.80844871,154.876778 L21.9175801,124.628281 L0,111.712564 L68.3247014,111.712564 L102.43114,172.489119 L80.5135597,159.349754 Z M229.463645,187.361763 L195.357207,126.64112 L253.953186,91.9196473 C267.316201,115.905979 284.257596,145.930827 284.257596,145.930827 C289.177869,154.485393 289.233781,164.996885 284.425332,173.663275 C279.616883,182.106017 270.670932,187.361763 260.942211,187.361763 L229.463645,187.361763 Z M52.7811114,223.369216 C52.7811114,223.369216 60.6088186,209.502992 68.6042623,195.245382 L136.928964,195.245382 L136.928964,264.800152 L76.1524086,264.800152 C66.3677746,264.911976 57.3659113,259.65623 52.669287,251.101664 C47.8608383,242.435274 47.9167505,231.923782 52.7811114,223.369216 L52.7811114,223.369216 Z M159.852963,17.6123412 C151.85752,31.7581263 107.630974,110.370671 107.798711,110.370671 L48.8672578,75.4814622 C48.8672578,75.4814622 76.9910915,24.7131899 84.4274133,12.3565949 C88.6208279,5.03209748 96.0012375,0 104.891276,0 L189.31869,0 C176.962095,0 166.059217,6.54172673 159.852963,17.6123412 L159.852963,17.6123412 Z" id="形状"></path>
                    </g>
                </g>
            </g>
        </g>
    </g>
</svg>