<?xml version="1.0" encoding="utf-8"?>
<!-- Generator: Adobe Illustrator 23.0.0, SVG Export Plug-In . SVG Version: 6.00 Build 0)  -->
<svg version="1.1" id="图层_1" xmlns="http://www.w3.org/2000/svg" xmlns:xlink="http://www.w3.org/1999/xlink" x="0px" y="0px"
	 viewBox="0 0 136 136" style="enable-background:new 0 0 136 136;" xml:space="preserve">
<style type="text/css">
	.st0{fill:#212327;}
	.st1{fill:#FFFFFF;stroke:#000000;stroke-miterlimit:10;}
	.st2{fill:#E6E6E6;}
	.st3{fill:none;stroke:#FFFFFF;stroke-width:2;stroke-miterlimit:10;}
	.st4{fill:#808080;}
	.st5{fill:none;stroke:#1F3DA0;stroke-width:4;stroke-linecap:round;stroke-miterlimit:10;}
	.st6{fill:none;stroke:#808080;stroke-width:4;stroke-miterlimit:10;}
	.st7{fill:#0000FF;}
	.st8{fill:none;stroke:#ED1C24;stroke-width:2;stroke-miterlimit:10;}
	.st9{fill:none;stroke:#ED1C24;stroke-width:2;stroke-linecap:round;stroke-linejoin:round;stroke-miterlimit:10;}
	.st10{fill:#FBB03B;}
	.st11{fill:#666666;stroke:#ED1C24;stroke-width:2;stroke-linecap:round;stroke-linejoin:round;stroke-miterlimit:10;}
	.st12{fill:#9E005D;}
	.st13{fill:#ED1C24;}
	.st14{fill:#FF00FF;}
</style>
<g>
	<path class="st0" d="M123,135H13c-6.6,0-12-5.4-12-12V13C1,6.4,6.4,1,13,1h110c6.6,0,12,5.4,12,12v110C135,129.6,129.6,135,123,135
		z"/>
	<g>
		<g>
			<path class="st2" d="M100.75,46.75H78.71c-1.71,0-3.1,1.39-3.1,3.09v14.68c0,1.71,1.39,3.09,3.1,3.09h22.04
				c1.71,0,3.1-1.39,3.1-3.09V49.84C103.84,48.13,102.46,46.75,100.75,46.75z M87.39,61.84l-0.86-2.09h-4.52l-0.86,2.09h-2.31
				l4.34-9.73h2.22l4.35,9.73H87.39z M99.88,59.53c-0.45,0.73-1.08,1.3-1.89,1.7c-0.81,0.4-1.75,0.61-2.8,0.61h-4.42v-9.73h4.42
				c1.06,0,1.99,0.2,2.8,0.6c0.81,0.4,1.44,0.97,1.89,1.7c0.45,0.73,0.67,1.59,0.67,2.56C100.56,57.95,100.33,58.8,99.88,59.53z"/>
			<path class="st2" d="M95.08,53.96h-2.06v6.03h2.06c0.97,0,1.75-0.27,2.33-0.81c0.58-0.54,0.87-1.28,0.87-2.2
				c0-0.93-0.29-1.66-0.87-2.2C96.83,54.23,96.05,53.96,95.08,53.96z"/>
			<path class="st2" d="M104.34,25.42H31.66c-5.57,0-10.13,4.56-10.13,10.13V85.5c0,5.57,4.56,10.13,10.13,10.13h28.12
				c-0.08,0.33-0.13,0.67-0.13,1.02v12.01c0,0.35,0.05,0.69,0.13,1.02H49.72c-1.91,0-3.45,1.55-3.45,3.45v0
				c0,1.91,1.55,3.45,3.45,3.45h36.55c1.91,0,3.45-1.55,3.45-3.45v0c0-1.91-1.55-3.45-3.45-3.45H76.9c0.08-0.33,0.13-0.67,0.13-1.02
				V96.65c0-0.35-0.05-0.69-0.13-1.02h27.45c5.57,0,10.13-4.56,10.13-10.13V35.55C114.47,29.98,109.91,25.42,104.34,25.42z
				 M66.33,70.15H30.22c-0.7,0-1.27-0.57-1.27-1.27c0-0.7,0.57-1.27,1.27-1.27h36.11c0.7,0,1.27,0.57,1.27,1.27
				C67.59,69.58,67.03,70.15,66.33,70.15z M66.33,62.12H30.22c-0.7,0-1.27-0.57-1.27-1.27c0-0.7,0.57-1.27,1.27-1.27h36.11
				c0.7,0,1.27,0.57,1.27,1.27C67.59,61.56,67.03,62.12,66.33,62.12z M66.33,54.1H30.22c-0.7,0-1.27-0.57-1.27-1.27
				c0-0.7,0.57-1.27,1.27-1.27h36.11c0.7,0,1.27,0.57,1.27,1.27C67.59,53.53,67.03,54.1,66.33,54.1z M66.33,46.08H30.22
				c-0.7,0-1.27-0.57-1.27-1.27c0-0.7,0.57-1.27,1.27-1.27h36.11c0.7,0,1.27,0.57,1.27,1.27C67.59,45.51,67.03,46.08,66.33,46.08z
				 M106.38,64.52c0,3.1-2.52,5.63-5.63,5.63H78.71c-3.1,0-5.63-2.52-5.63-5.63V49.84c0-3.1,2.52-5.63,5.63-5.63h22.04
				c3.1,0,5.63,2.52,5.63,5.63V64.52z M105.11,38.05H30.22c-0.7,0-1.27-0.57-1.27-1.27c0-0.7,0.57-1.27,1.27-1.27h74.89
				c0.7,0,1.27,0.57,1.27,1.27C106.38,37.49,105.81,38.05,105.11,38.05z"/>
			<polygon class="st2" points="82.73,58.05 85.82,58.05 84.28,54.32 			"/>
		</g>
		<polygon class="st0" points="94.12,64.52 94.12,83.24 99.47,75.22 108.83,75.22 		"/>
	</g>
</g>
</svg>
