<?xml version="1.0" encoding="utf-8"?>
<!-- Generator: Adobe Illustrator 23.0.0, SVG Export Plug-In . SVG Version: 6.00 Build 0)  -->
<svg version="1.1" id="图层_1" xmlns="http://www.w3.org/2000/svg" xmlns:xlink="http://www.w3.org/1999/xlink" x="0px" y="0px"
	 viewBox="0 0 136 136" style="enable-background:new 0 0 136 136;" xml:space="preserve">
<style type="text/css">
	.st0{fill:#212327;}
	.st1{fill:#FFFFFF;stroke:#000000;stroke-miterlimit:10;}
	.st2{fill:#E6E6E6;}
	.st3{fill:none;stroke:#FFFFFF;stroke-width:2;stroke-miterlimit:10;}
	.st4{fill:#808080;}
	.st5{fill:none;stroke:#1F3DA0;stroke-width:4;stroke-linecap:round;stroke-miterlimit:10;}
	.st6{fill:none;stroke:#808080;stroke-width:4;stroke-miterlimit:10;}
	.st7{fill:#0000FF;}
	.st8{fill:none;stroke:#ED1C24;stroke-width:2;stroke-miterlimit:10;}
	.st9{fill:none;stroke:#ED1C24;stroke-width:2;stroke-linecap:round;stroke-linejoin:round;stroke-miterlimit:10;}
	.st10{fill:#FBB03B;}
	.st11{fill:#666666;stroke:#ED1C24;stroke-width:2;stroke-linecap:round;stroke-linejoin:round;stroke-miterlimit:10;}
	.st12{fill:#9E005D;}
	.st13{fill:#ED1C24;}
	.st14{fill:#FF00FF;}
</style>
<g>
	<path class="st0" d="M123,135H13c-6.6,0-12-5.4-12-12V13C1,6.4,6.4,1,13,1h110c6.6,0,12,5.4,12,12v110C135,129.6,129.6,135,123,135
		z"/>
	<g>
		<path class="st2" d="M65.31,42.71c0,0.5,0.19,0.91,0.57,1.23c0.38,0.32,0.93,0.59,1.65,0.81v-4.27c-0.76,0.18-1.32,0.47-1.68,0.86
			C65.49,41.74,65.31,42.19,65.31,42.71z"/>
		<path class="st2" d="M68.79,28.66c-10.31,0-18.67,8.36-18.67,18.67c0,5.4,2.29,10.26,5.96,13.67C59.41,64.1,69,74,69,74
			s9.61-10.09,12.99-13.47c3.38-3.38,5.47-8.05,5.47-13.2C87.46,37.02,79.1,28.66,68.79,28.66z M75.73,55.86
			c-1.2,1.17-2.93,1.9-5.2,2.18v3.36h-3v-3.27c-1.48-0.08-2.89-0.34-4.24-0.78c-1.34-0.44-2.42-0.98-3.24-1.62l1.65-3.66
			c0.76,0.56,1.65,1.03,2.67,1.41c1.02,0.38,2.07,0.62,3.15,0.72v-5.02c-1.42-0.34-2.62-0.72-3.61-1.14
			c-0.98-0.42-1.8-1.04-2.46-1.85c-0.66-0.81-0.99-1.89-0.99-3.23c0-1.66,0.61-3.09,1.82-4.28c1.21-1.19,2.96-1.92,5.24-2.18v-3.33
			h3v3.27c2.46,0.2,4.5,0.81,6.1,1.83l-1.5,3.7c-1.5-0.86-3.03-1.38-4.6-1.56v5.11c1.4,0.32,2.59,0.69,3.56,1.1
			c0.97,0.41,1.79,1.02,2.45,1.83c0.66,0.81,0.99,1.88,0.99,3.2C77.53,53.28,76.93,54.68,75.73,55.86z"/>
		<path class="st2" d="M70.53,49.92v4.15c0.72-0.16,1.26-0.42,1.62-0.78c0.36-0.36,0.54-0.79,0.54-1.29c0-0.5-0.19-0.91-0.56-1.23
			C71.77,50.44,71.23,50.16,70.53,49.92z"/>
	</g>
	<path class="st2" d="M131.28,56.27c-0.68-1.81-2.7-2.73-4.51-2.05l-19.47,7.3c-1.41-1.25-3.27-2.02-5.3-2.02c-4.42,0-8,3.58-8,8
		c0,0.64,0.08,1.25,0.22,1.85L74.47,83.87C73.2,83,71.66,82.5,70,82.5c-3.54,0-6.55,2.31-7.6,5.5H37.19c-1.3-2.66-4.02-4.5-7.19-4.5
		c-4.42,0-8,3.58-8,8c0,0.6,0.07,1.19,0.2,1.76L7.81,104.77c-1.51,1.21-1.75,3.41-0.55,4.92C7.96,110.55,8.98,111,10,111
		c0.77,0,1.54-0.25,2.18-0.77l14.39-11.51c1.04,0.49,2.2,0.78,3.42,0.78c3.16,0,5.89-1.84,7.19-4.5h26.2
		c1.44,2.11,3.86,3.5,6.61,3.5c4.42,0,8-3.58,8-8c0-0.18-0.02-0.35-0.03-0.52l20.69-15.22c1.02,0.47,2.14,0.73,3.33,0.73
		c4.25,0,7.72-3.32,7.97-7.5l19.25-7.22C131.04,60.1,131.96,58.08,131.28,56.27z"/>
</g>
</svg>
