<?xml version="1.0" encoding="utf-8"?>
<!-- Generator: Adobe Illustrator 23.0.0, SVG Export Plug-In . SVG Version: 6.00 Build 0)  -->
<svg version="1.1" id="图层_1" xmlns="http://www.w3.org/2000/svg" xmlns:xlink="http://www.w3.org/1999/xlink" x="0px" y="0px"
	 viewBox="0 0 136 136" style="enable-background:new 0 0 136 136;" xml:space="preserve">
<style type="text/css">
	.st0{fill:#212327;}
	.st1{fill:#FFFFFF;stroke:#000000;stroke-miterlimit:10;}
	.st2{fill:#E6E6E6;}
	.st3{fill:none;stroke:#FFFFFF;stroke-width:2;stroke-miterlimit:10;}
	.st4{fill:#808080;}
	.st5{fill:none;stroke:#1F3DA0;stroke-width:4;stroke-linecap:round;stroke-miterlimit:10;}
	.st6{fill:none;stroke:#808080;stroke-width:4;stroke-miterlimit:10;}
	.st7{fill:#0000FF;}
	.st8{fill:none;stroke:#ED1C24;stroke-width:2;stroke-miterlimit:10;}
	.st9{fill:none;stroke:#ED1C24;stroke-width:2;stroke-linecap:round;stroke-linejoin:round;stroke-miterlimit:10;}
	.st10{fill:#FBB03B;}
	.st11{fill:#666666;stroke:#ED1C24;stroke-width:2;stroke-linecap:round;stroke-linejoin:round;stroke-miterlimit:10;}
	.st12{fill:#9E005D;}
	.st13{fill:#ED1C24;}
	.st14{fill:#FF00FF;}
</style>
<g>
	<path class="st0" d="M123,135H13c-6.6,0-12-5.4-12-12V13C1,6.4,6.4,1,13,1h110c6.6,0,12,5.4,12,12v110C135,129.6,129.6,135,123,135
		z"/>
	<g>
		<path class="st2" d="M58.29,82.98c0.77-1.1,1.15-2.73,1.15-4.9c0-2.16-0.38-3.8-1.15-4.9c-0.77-1.1-1.82-1.65-3.16-1.65
			c-1.3,0-2.34,0.56-3.13,1.68c-0.79,1.12-1.18,2.74-1.18,4.87s0.39,3.75,1.18,4.87c0.79,1.12,1.83,1.68,3.13,1.68
			C56.47,84.63,57.53,84.08,58.29,82.98z"/>
		<path class="st2" d="M83.17,91c-1.3,0-2.34,0.55-3.13,1.65c-0.79,1.1-1.18,2.74-1.18,4.9c0,2.16,0.39,3.8,1.18,4.9
			c0.79,1.1,1.83,1.65,3.13,1.65c1.34,0,2.39-0.56,3.16-1.68c0.77-1.12,1.15-2.74,1.15-4.87c0-2.12-0.38-3.75-1.15-4.87
			C85.56,91.56,84.51,91,83.17,91z"/>
		<path class="st2" d="M114.04,56.32L70.1,20.17c-0.96-0.79-2.36-0.79-3.32,0L22.84,56.32c-1.89,1.56-0.79,4.63,1.66,4.63h9.65
			v54.42c0,2,1.63,3.63,3.63,3.63H99.1c2,0,3.63-1.63,3.63-3.63V60.95h9.65C114.83,60.95,115.94,57.87,114.04,56.32z M44.86,78.08
			c0-3.46,0.95-6.23,2.86-8.29c1.91-2.07,4.38-3.1,7.41-3.1c3.03,0,5.49,1.03,7.38,3.1s2.83,4.83,2.83,8.29
			c0,3.46-0.94,6.23-2.83,8.29c-1.89,2.07-4.35,3.1-7.38,3.1c-3.03,0-5.5-1.03-7.41-3.1C45.82,84.3,44.86,81.54,44.86,78.08z
			 M51.53,108.48l28.22-41.32h7.03l-28.22,41.32H51.53z M90.58,105.85c-1.91,2.07-4.38,3.1-7.41,3.1c-1.97,0-3.73-0.46-5.28-1.39
			c-1.56-0.92-2.77-2.25-3.63-3.98c-0.87-1.73-1.3-3.74-1.3-6.02c0-2.28,0.43-4.29,1.3-6.02c0.87-1.73,2.08-3.06,3.63-3.98
			c1.56-0.92,3.32-1.39,5.28-1.39c3.03,0,5.5,1.03,7.41,3.1c1.91,2.07,2.86,4.83,2.86,8.29C93.44,101.02,92.49,103.78,90.58,105.85z
			"/>
	</g>
</g>
</svg>
