<svg xmlns="http://www.w3.org/2000/svg" xmlns:xlink="http://www.w3.org/1999/xlink" fill="none" version="1.1" width="62.142822265625" height="63" viewBox="0 0 62.142822265625 63"><path d="M62.1428,31.5Q62.1428,37.5039,59.964,43.0879Q57.5973,49.1523,53.0498,53.7656Q48.4999,58.3828,42.5155,60.7852Q37.002,63,31.0714,63Q25.1409,63,19.6273,60.7852Q13.6429,58.3828,9.09302,53.7656Q4.54553,49.1523,2.17883,43.0879Q0,37.5039,0,31.5Q0,25.4961,2.17883,19.9121Q4.54553,13.8477,9.09302,9.23438Q13.6429,4.61719,19.6273,2.21484Q25.1409,0,31.0714,0Q37.002,0,42.5155,2.21484Q48.4999,4.61719,53.0498,9.23438Q57.5973,13.8477,59.964,19.9121Q62.1428,25.4961,62.1428,31.5ZM59.1428,31.5Q59.1428,26.0605,57.1692,21.002Q55.0271,15.5137,50.9133,11.3398Q46.802,7.16797,41.3975,4.99805Q36.422,3,31.0714,3Q25.7208,3,20.7454,4.99805Q15.3408,7.16797,11.2295,11.3398Q7.11572,15.5137,4.97363,21.002Q3,26.0605,3,31.5Q3,36.9395,4.97363,41.998Q7.11572,47.4863,11.2295,51.6602Q15.3408,55.832,20.7454,58.002Q25.7208,60,31.0714,60Q36.422,60,41.3975,58.002Q46.802,55.832,50.9133,51.6602Q55.0271,47.4863,57.1692,41.998Q59.1428,36.9395,59.1428,31.5ZM27.6383,14.7207L31.2812,17.8817L34.9226,14.7207Q35.8707,13.8965,37.08,13.5742Q38.2911,13.25,39.5208,13.4922L44.4567,14.4785L40.0365,19.3047L48.0374,19.3047Q49.4871,19.3047,50.5122,20.3301Q51.5374,21.3555,51.5374,22.8047L51.5374,26.0996Q51.5374,27.5488,50.5122,28.5742Q49.4871,29.5996,48.0374,29.5996L47.1175,29.5996Q47.1497,29.843,47.1497,30.0996L47.1497,47.9922Q47.1497,49.4414,46.1245,50.4668Q45.0995,51.4922,43.6497,51.4922L18.9969,51.4922Q17.5472,51.4922,16.5221,50.4668Q15.4969,49.4414,15.4969,47.9922L15.4969,30.0996Q15.4969,29.843,15.5291,29.5996L14.6128,29.5996Q13.1631,29.5996,12.1379,28.5742Q11.1128,27.5488,11.1128,26.0996L11.1128,22.8047Q11.1128,21.3555,12.1379,20.3301Q13.1631,19.3047,14.6128,19.3047L22.5269,19.3047L18.1029,14.4805L23.042,13.4941Q24.2709,13.252,25.4813,13.5762Q26.6896,13.8984,27.6383,14.7207ZM28.6201,22.3047L14.6128,22.3047Q14.4056,22.3047,14.2593,22.4512Q14.1128,22.5977,14.1128,22.8047L14.1128,26.0996Q14.1128,26.3066,14.2593,26.4531Q14.4056,26.5996,14.6128,26.5996L30.2592,26.5996L30.2592,22.3047L29.2058,22.3047Q28.9126,22.3154,28.6201,22.3047ZM33.2592,22.3047L33.2592,26.5996L48.0374,26.5996Q48.2444,26.5996,48.3909,26.4531Q48.5374,26.3066,48.5374,26.0996L48.5374,22.8047Q48.5374,22.5977,48.3909,22.4512Q48.2444,22.3047,48.0374,22.3047L33.917,22.3047Q33.653,22.3135,33.3885,22.3047L33.2592,22.3047ZM18.9969,29.5996Q18.7898,29.5996,18.6434,29.7461Q18.4969,29.8926,18.4969,30.0996L18.4969,47.9922Q18.4969,48.1992,18.6434,48.3457Q18.7898,48.4922,18.9969,48.4922L30.2592,48.4922L30.2592,29.5996L18.9969,29.5996ZM33.2592,29.5996L33.2592,48.4922L43.6497,48.4922Q43.8568,48.4922,44.0033,48.3457Q44.1497,48.1992,44.1497,47.9922L44.1497,30.0996Q44.1497,29.8926,44.0033,29.7461Q43.8568,29.5996,43.6497,29.5996L33.2592,29.5996ZM34.2583,19.2695Q34.7198,19.2148,35.1792,19.0742Q36.5695,18.6504,37.5594,17.5684L38.6355,16.3926Q37.6658,16.3125,36.8894,16.9863L34.2583,19.2695ZM28.3049,19.2715L25.6725,16.9883Q24.8967,16.3145,23.9283,16.3945L25.0049,17.5684Q25.9955,18.6523,27.3857,19.0762Q27.8442,19.2168,28.3049,19.2715Z" fill-rule="evenodd" fill="#FFFFFF" fill-opacity="1"/></svg>