<?xml version="1.0" encoding="utf-8"?>
<!-- Generator: Adobe Illustrator 23.0.0, SVG Export Plug-In . SVG Version: 6.00 Build 0)  -->
<svg version="1.1" id="图层_1" xmlns="http://www.w3.org/2000/svg" xmlns:xlink="http://www.w3.org/1999/xlink" x="0px" y="0px"
	 viewBox="0 0 136 136" style="enable-background:new 0 0 136 136;" xml:space="preserve">
<style type="text/css">
	.st0{fill:#212327;}
	.st1{fill:#FFFFFF;stroke:#000000;stroke-miterlimit:10;}
	.st2{fill:#E6E6E6;}
	.st3{fill:none;stroke:#FFFFFF;stroke-width:2;stroke-miterlimit:10;}
	.st4{fill:#808080;}
	.st5{fill:none;stroke:#1F3DA0;stroke-width:4;stroke-linecap:round;stroke-miterlimit:10;}
	.st6{fill:none;stroke:#808080;stroke-width:4;stroke-miterlimit:10;}
	.st7{fill:#0000FF;}
	.st8{fill:none;stroke:#ED1C24;stroke-width:2;stroke-miterlimit:10;}
	.st9{fill:none;stroke:#ED1C24;stroke-width:2;stroke-linecap:round;stroke-linejoin:round;stroke-miterlimit:10;}
	.st10{fill:#FBB03B;}
	.st11{fill:#666666;stroke:#ED1C24;stroke-width:2;stroke-linecap:round;stroke-linejoin:round;stroke-miterlimit:10;}
	.st12{fill:#9E005D;}
	.st13{fill:#ED1C24;}
	.st14{fill:#FF00FF;}
</style>
<g>
	<path class="st0" d="M123,135H13c-6.6,0-12-5.4-12-12V13C1,6.4,6.4,1,13,1h110c6.6,0,12,5.4,12,12v110C135,129.6,129.6,135,123,135
		z"/>
	<g>
		<g>
			<path class="st2" d="M65.93,116.5c-26.74,0-48.5-21.76-48.5-48.5s21.76-48.5,48.5-48.5c13.33,0,25.76,5.3,35,14.92
				c1.72,1.79,1.66,4.64-0.13,6.36c-1.8,1.72-4.64,1.66-6.36-0.13c-7.52-7.84-17.64-12.15-28.5-12.15c-21.78,0-39.5,17.72-39.5,39.5
				s17.72,39.5,39.5,39.5s39.5-17.72,39.5-39.5c0-2.49,2.01-4.5,4.5-4.5s4.5,2.01,4.5,4.5C114.43,94.74,92.68,116.5,65.93,116.5z"/>
		</g>
		<g>
			<path class="st2" d="M105.84,54.43L94.02,74.9c-1.42,2.47,0.36,5.55,3.2,5.55h23.63c2.85,0,4.63-3.08,3.2-5.55l-11.82-20.47
				C110.82,51.96,107.27,51.96,105.84,54.43z"/>
		</g>
		<g>
			<path class="st2" d="M66.16,42.67c-13.87,0-25.11,11.24-25.11,25.11s11.24,25.11,25.11,25.11s25.11-11.24,25.11-25.11
				S80.02,42.67,66.16,42.67z M67.71,69.78H49.93c-0.98,0-1.78-0.8-1.78-1.78s0.8-1.78,1.78-1.78h14.22V52
				c0-0.98,0.8-1.78,1.78-1.78c0.98,0,1.78,0.8,1.78,1.78V69.78z"/>
		</g>
	</g>
</g>
</svg>
