<svg xmlns="http://www.w3.org/2000/svg" xmlns:xlink="http://www.w3.org/1999/xlink" fill="none" version="1.1" width="47.000003814697266" height="60.500083923339844" viewBox="0 0 47.000003814697266 60.500083923339844"><g><path d="M34.3967,44.8231Q35.3673,43.008,37.0842,41.8296L37.0908,41.825Q41.7554,38.5863,44.3794,33.6092Q47.0063,28.6268,47,23.0186Q47.0007,18.3856,45.1894,14.1419Q43.4406,10.0447,40.2477,6.86736Q37.0582,3.69333,32.9095,1.917Q28.6192,0.080035,23.9019,0.0030911Q19.1386,-0.0730457,14.7055,1.72613Q10.4389,3.45771,7.1058,6.66151Q3.76831,9.86948,1.92217,14.0195Q0.000010848,18.3405,0.00000929832,23.0203Q-0.00495219,28.6282,2.62404,33.6107Q5.25021,38.5879,9.91705,41.8254Q11.6431,43.007,12.6154,44.8211Q13.5848,46.6299,13.5966,48.6706L13.5965,51.3516Q13.5993,52.7703,14.6174,53.7666Q15.622,54.7497,17.0361,54.7523L29.9611,54.7523Q31.3744,54.7601,32.388,53.7757Q33.4154,52.7779,33.4181,51.3545L33.4181,48.6655Q33.4289,46.6327,34.3967,44.8231ZM35.3864,39.3562Q35.3831,39.3585,35.3798,39.3608Q33.0648,40.952,31.7512,43.4083Q30.4328,45.8735,30.4181,48.6655L30.4181,51.3487Q30.4178,51.5071,30.2979,51.6236Q30.1642,51.7534,29.9611,51.7523L17.0417,51.7523Q16.8479,51.7519,16.7156,51.6225Q16.5968,51.5062,16.5965,51.3516L16.5965,48.6532Q16.5804,45.8686,15.2596,43.404Q13.9416,40.9448,11.627,39.3604Q7.56181,36.5403,5.27735,32.2107Q2.99571,27.8865,3.00001,23.0203Q3.00001,18.9776,4.6632,15.2389Q6.27065,11.6254,9.18474,8.82438Q12.1018,6.02049,15.8337,4.50592Q19.7011,2.93633,23.853,3.00269Q27.9805,3.07002,31.7287,4.67484Q35.3493,6.22505,38.1316,8.99384Q40.9106,11.7593,42.4302,15.3196Q44.0006,18.9988,44,23.022Q44.0055,27.886,41.7257,32.2101Q39.4449,36.536,35.3864,39.3562Z" fill-rule="evenodd" fill="#FFFFFF" fill-opacity="1"/><path d="M32.137989973449706,57.500083923339844L15.331089973449707,57.500083923339844C14.502662973449707,57.500083923339844,13.831089973449707,58.171656923339846,13.831089973449707,59.000083923339844C13.831089973449707,59.82851392333984,14.502662973449707,60.500083923339844,15.331089973449707,60.500083923339844L32.137989973449706,60.500083923339844C32.96638997344971,60.500083923339844,33.637989973449706,59.82851392333984,33.637989973449706,59.000083923339844C33.637989973449706,58.171656923339846,32.96638997344971,57.500083923339844,32.137989973449706,57.500083923339844Z" fill-rule="evenodd" fill="#FFFFFF" fill-opacity="1"/></g></svg>