<?xml version="1.0" encoding="UTF-8"?>
<svg width="288px" height="1668px" viewBox="0 0 288 1668" version="1.1" xmlns="http://www.w3.org/2000/svg" xmlns:xlink="http://www.w3.org/1999/xlink">
    <title>750_时间线</title>
    <defs>
        <linearGradient x1="0%" y1="100%" x2="100%" y2="100%" id="linearGradient-1">
            <stop stop-color="#52EC69" offset="0%"></stop>
            <stop stop-color="#33BCB1" offset="24.0317321%"></stop>
            <stop stop-color="#52EC69" offset="43.0212672%"></stop>
            <stop stop-color="#37DAB8" offset="63.69885%"></stop>
            <stop stop-color="#14CC70" offset="100%"></stop>
        </linearGradient>
    </defs>
    <g id="页面-1" stroke="none" stroke-width="1" fill="none" fill-rule="evenodd">
        <g id="环保页面_iphone_750" transform="translate(-11.000000, -13496.000000)">
            <g id="编组-4" transform="translate(11.322464, 13328.434783)">
                <g id="750_时间线" transform="translate(0.000000, 167.666667)">
                    <text id="Now-(2022)备份" font-family="Montserrat-Bold, Montserrat" font-size="35.9963768" font-weight="bold" line-spacing="52.3007246" fill="#3BD18A">
                        <tspan x="77.4456522" y="35">Now (2022)</tspan>
                    </text>
                    <text id="2023" font-family="Montserrat-Bold, Montserrat" font-size="35.9963768" font-weight="bold" line-spacing="52.3007246" fill="#3BD18A">
                        <tspan x="77.4456522" y="446.449275">2023</tspan>
                    </text>
                    <g id="编组-3" transform="translate(0.000000, 11.681159)">
                        <line x1="-804.322467" y1="833.217391" x2="833.865057" y2="836.298139" id="直线-2备份" stroke="url(#linearGradient-1)" stroke-width="3.62318841" stroke-linecap="square" transform="translate(14.771296, 834.757765) rotate(89.892251) translate(-14.771296, -834.757765) "></line>
                        <g id="编组-8备份" transform="translate(0.000000, -0.000000)" fill="#00D583">
                            <path d="M15.3985507,30.7971014 C23.9029355,30.7971014 30.7971014,23.9029355 30.7971014,15.3985507 C30.7971014,6.89416599 23.9029355,0 15.3985507,0 C6.89416599,0 0,6.89416599 0,15.3985507 C0,23.9029355 6.89416599,30.7971014 15.3985507,30.7971014 Z" id="椭圆形备份" opacity="0.364583333"></path>
                            <path d="M15.3985507,22.242351 C19.1782773,22.242351 22.242351,19.1782773 22.242351,15.3985507 C22.242351,11.6188242 19.1782773,8.5547504 15.3985507,8.5547504 C11.6188242,8.5547504 8.5547504,11.6188242 8.5547504,15.3985507 C8.5547504,19.1782773 11.6188242,22.242351 15.3985507,22.242351 Z" id="椭圆形"></path>
                        </g>
                        <line x1="22.192029" y1="430.992754" x2="22.192029" y2="420.123188" id="直线-3备份-3" stroke="#35BEAD" stroke-width="3.62318841" stroke-linecap="square" transform="translate(22.192029, 425.557971) rotate(90.000000) translate(-22.192029, -425.557971) "></line>
                        <line x1="22.192029" y1="839.992754" x2="22.192029" y2="829.123188" id="直线-3备份-4" stroke="#49E684" stroke-width="3.62318841" stroke-linecap="square" transform="translate(22.192029, 834.557971) rotate(90.000000) translate(-22.192029, -834.557971) "></line>
                        <line x1="22.192029" y1="1248.99275" x2="22.192029" y2="1238.12319" id="直线-3备份-5" stroke="#24D392" stroke-width="3.62318841" stroke-linecap="square" transform="translate(22.192029, 1243.557971) rotate(90.000000) translate(-22.192029, -1243.557971) "></line>
                    </g>
                    <text id="2024" font-family="Montserrat-Bold, Montserrat" font-size="35.9963768" font-weight="bold" line-spacing="52.3007246" fill="#3BD18A">
                        <tspan x="77.4456522" y="854.376812">2024</tspan>
                    </text>
                    <text id="2025" font-family="Montserrat-Bold, Montserrat" font-size="35.9963768" font-weight="bold" line-spacing="52.3007246" fill="#3BD18A">
                        <tspan x="77.4456522" y="1263.36232">2025</tspan>
                    </text>
                </g>
            </g>
        </g>
    </g>
</svg>