<?xml version="1.0" encoding="utf-8"?>
<!-- Generator: Adobe Illustrator 23.0.0, SVG Export Plug-In . SVG Version: 6.00 Build 0)  -->
<svg version="1.1" id="图层_1" xmlns="http://www.w3.org/2000/svg" xmlns:xlink="http://www.w3.org/1999/xlink" x="0px" y="0px"
	 viewBox="0 0 136 136" style="enable-background:new 0 0 136 136;" xml:space="preserve">
<style type="text/css">
	.st0{fill:#212327;}
	.st1{fill:#FFFFFF;stroke:#000000;stroke-miterlimit:10;}
	.st2{fill:#E6E6E6;}
	.st3{fill:none;stroke:#FFFFFF;stroke-width:2;stroke-miterlimit:10;}
	.st4{fill:#808080;}
	.st5{fill:none;stroke:#1F3DA0;stroke-width:4;stroke-linecap:round;stroke-miterlimit:10;}
	.st6{fill:none;stroke:#808080;stroke-width:4;stroke-miterlimit:10;}
	.st7{fill:#0000FF;}
	.st8{fill:none;stroke:#ED1C24;stroke-width:2;stroke-miterlimit:10;}
	.st9{fill:none;stroke:#ED1C24;stroke-width:2;stroke-linecap:round;stroke-linejoin:round;stroke-miterlimit:10;}
	.st10{fill:#FBB03B;}
	.st11{fill:#666666;stroke:#ED1C24;stroke-width:2;stroke-linecap:round;stroke-linejoin:round;stroke-miterlimit:10;}
	.st12{fill:#9E005D;}
	.st13{fill:#ED1C24;}
	.st14{fill:#FF00FF;}
</style>
<g>
	<path class="st0" d="M123,135H13c-6.6,0-12-5.4-12-12V13C1,6.4,6.4,1,13,1h110c6.6,0,12,5.4,12,12v110C135,129.6,129.6,135,123,135
		z"/>
	<g>
		<path class="st2" d="M118.78,52.22L83.25,11.01c-0.91-1.06-2.55-1.06-3.46,0L46.56,49.55c0.64-0.03,1.29-0.05,1.94-0.05
			c21.54,0,39,17.46,39,39c0,14.24-7.63,26.69-19.03,33.5h26.36c2.3,0,4.17-1.87,4.17-4.17V56h18.05
			C119.01,56,120.06,53.7,118.78,52.22z"/>
		<g>
			<path class="st2" d="M42.38,79.91c0,0.89,0.34,1.62,1.01,2.19c0.67,0.57,1.65,1.05,2.93,1.44v-7.57
				c-1.35,0.32-2.35,0.83-2.99,1.52S42.38,78.98,42.38,79.91z"/>
			<path class="st2" d="M48.56,54.98c-18.29,0-33.13,14.83-33.13,33.13s14.83,33.13,33.13,33.13S81.69,106.4,81.69,88.1
				S66.86,54.98,48.56,54.98z M60.88,103.23c-2.13,2.08-5.21,3.37-9.22,3.86v5.97h-5.33v-5.81c-2.63-0.14-5.14-0.6-7.52-1.39
				c-2.38-0.78-4.3-1.74-5.76-2.88l2.93-6.5c1.35,1,2.93,1.83,4.74,2.51c1.81,0.68,3.68,1.1,5.6,1.28v-8.9
				c-2.52-0.6-4.66-1.28-6.4-2.03c-1.74-0.75-3.2-1.84-4.37-3.28c-1.17-1.44-1.76-3.35-1.76-5.73c0-2.95,1.07-5.48,3.23-7.6
				c2.15-2.11,5.25-3.4,9.3-3.86v-5.92h5.33v5.81c4.37,0.36,7.98,1.44,10.82,3.25l-2.67,6.56c-2.67-1.53-5.38-2.45-8.16-2.77v9.06
				c2.49,0.57,4.59,1.22,6.32,1.95c1.72,0.73,3.17,1.81,4.34,3.25c1.17,1.44,1.76,3.33,1.76,5.68
				C64.07,98.65,63.01,101.15,60.88,103.23z"/>
			<path class="st2" d="M51.65,92.7v7.36c1.28-0.28,2.24-0.75,2.88-1.39s0.96-1.4,0.96-2.29c0-0.89-0.33-1.62-0.99-2.19
				C53.85,93.63,52.9,93.13,51.65,92.7z"/>
		</g>
	</g>
</g>
</svg>
