<svg xmlns="http://www.w3.org/2000/svg" xmlns:xlink="http://www.w3.org/1999/xlink" fill="none" version="1.1" width="62.99696731567383" height="66.5028305053711" viewBox="0 0 62.99696731567383 66.5028305053711"><g><path d="M40.1181,54.2841L40.1181,66.5028L43.1181,66.5028L43.1181,57.2841L48.3877,57.2841Q51.5975,57.2841,53.8799,54.9175Q56.1261,52.5884,56.2,49.2747L56.3511,42.5122Q56.3629,41.651,56.7759,40.9132Q57.1873,40.1782,57.8961,39.7338L61.4031,37.5963Q62.4897,36.901,62.8492,35.6921Q63.2076,34.4869,62.6967,33.3387L55.9993,18.1401Q53.9418,13.4042,50.4427,9.61655Q46.9424,5.82764,42.3972,3.42162Q35.1585,-0.41518,26.9948,0.050378Q18.8315,0.515907,12.0666,5.15125Q8.64956,7.49741,6.12775,10.4161Q3.41121,13.5601,2.08918,16.9709Q-1.09856,25.1966,0.577656,33.0441Q1.22525,36.076,2.67213,39.4103Q3.51587,41.3547,5.35158,44.8683Q6.2893,46.6631,6.71136,47.5213Q9.11225,52.4451,9.10014,57.9394L9.10013,66.5028L12.1001,66.5028L12.1001,57.946Q12.1138,51.7558,9.4034,46.1973Q8.96521,45.3063,8.01055,43.4791Q6.2249,40.0613,5.4242,38.2161Q4.09652,35.1565,3.51148,32.4175Q2.02232,25.4456,4.88641,18.0551Q6.02076,15.1285,8.39778,12.3774Q10.6666,9.75155,13.7623,7.62603Q19.8373,3.46342,27.1656,3.04551Q34.4934,2.62763,40.9937,6.07305Q45.0863,8.2395,48.2391,11.6523Q51.393,15.0662,53.254,19.3498L59.9558,34.5582Q60.0953,34.8718,59.8417,35.0347L56.3026,37.192Q54.9441,38.0437,54.1581,39.4479Q53.3736,40.8493,53.3518,42.4452L53.2007,49.2078Q53.153,51.3496,51.7205,52.835Q50.3229,54.2841,48.3877,54.2841L40.1181,54.2841Z" fill-rule="evenodd" fill="#FFFFFF" fill-opacity="1"/><path d="M30.52235221862793,1.5093834400177002L53.93605221862793,1.5093834400177002L53.93605221862793,4.5093834400177L30.52235221862793,4.5093834400177L30.52235221862793,1.5093834400177002Z" fill-rule="evenodd" transform="matrix(6.123234262925839e-17,1,-1,6.123234262925839e-17,32.03173565864563,-29.01296877861023)" fill="#FFFFFF" fill-opacity="1"/><path d="M38.895439947509765,38.67171333312989Q39.66873994750976,36.698813333129884,39.66873994750976,34.57741333312988Q39.66873994750976,32.455953333129884,38.895439947509765,30.483123333129882Q38.055139947509765,28.339533333129882,36.44023994750977,26.70854333312988Q34.823539947509765,25.075813333129883,32.69673994750977,24.225452333129883Q30.736539947509765,23.441713333129883,28.627939947509766,23.441713333129883Q26.519279947509766,23.441713333129883,24.559079947509765,24.225452333129883Q22.432259947509767,25.075813333129883,20.815599947509767,26.70854333312988Q19.200659947509767,28.339533333129882,18.360382947509766,30.483123333129882Q17.587039947509766,32.45596333312989,17.587039947509766,34.57741333312988Q17.587039947509766,36.698813333129884,18.360381947509765,38.67171333312989Q19.200659947509767,40.81531333312988,20.815599947509767,42.44631333312988Q22.432259947509767,44.07901333312988,24.559079947509765,44.92931333312988Q26.519279947509766,45.71311333312988,28.627939947509766,45.71311333312988Q30.736539947509765,45.71311333312988,32.69673994750977,44.92931333312988Q34.823539947509765,44.07901333312988,36.44023994750977,42.44631333312988Q38.055139947509765,40.81531333312988,38.895439947509765,38.67171333312989ZM36.10233994750976,31.577993333129882Q36.66873994750976,33.02294333312988,36.66873994750976,34.57741333312988Q36.66873994750976,36.131813333129884,36.10233994750976,37.576813333129884Q35.487939947509766,39.14421333312988,34.30843994750977,40.33541333312988Q33.13063994750976,41.52491333312989,31.582939947509765,42.14371333312988Q30.159039947509765,42.71311333312988,28.627939947509766,42.71311333312988Q27.096799947509766,42.71311333312988,25.672839947509765,42.14371333312988Q24.125179947509764,41.52491333312989,22.947379947509766,40.33541333312988Q21.767869947509766,39.14421333312988,21.153459947509766,37.576813333129884Q20.587039947509766,36.131813333129884,20.587039947509766,34.57741333312988Q20.587039947509766,33.022953333129884,21.153459947509766,31.577993333129882Q21.767869947509766,30.010573333129884,22.947379947509766,28.819343333129883Q24.125179947509764,27.629843333129884,25.672839947509765,27.011053333129883Q27.096799947509766,26.441713333129883,28.627939947509766,26.441713333129883Q30.159039947509765,26.441713333129883,31.582939947509765,27.011053333129883Q33.13063994750976,27.629843333129884,34.30843994750977,28.819343333129883Q35.487939947509766,30.010583333129883,36.10233994750976,31.577993333129882Z" fill-rule="evenodd" fill="#FFFFFF" fill-opacity="1"/><path d="M46.508262250976564,49.901223072509765Q47.66553225097656,48.73244307250977,47.66553225097656,47.08258307250976Q47.66553225097656,45.432723072509766,46.508262250976564,44.26394307250977Q45.344872250976564,43.088993072509766,43.696482250976565,43.088993072509766Q42.04810225097656,43.088993191718764,40.88471225097656,44.26394307250977Q39.72743225097656,45.432723072509766,39.72743225097656,47.08258307250976Q39.72743225097656,48.73244307250977,40.88471225097656,49.901223072509765Q42.04810225097656,51.076183072509764,43.696482250976565,51.076183072509764Q45.344872250976564,51.076183072509764,46.508262250976564,49.901223072509765ZM44.37647225097656,46.37475307250976Q44.66553225097656,46.66668307250976,44.66553225097656,47.08258307250976Q44.66553225097656,47.498483072509764,44.37647225097656,47.79042307250977Q44.093532250976565,48.076183072509764,43.696482250976565,48.076183072509764Q43.29944225097656,48.076183072509764,43.01649225097656,47.79042307250977Q42.72743225097656,47.498483072509764,42.72743225097656,47.08258307250976Q42.72743225097656,46.66668307250976,43.01649225097656,46.37475307250976Q43.29944225097656,46.088993072509766,43.696482250976565,46.088993072509766Q44.093532250976565,46.088993072509766,44.37647225097656,46.37475307250976Z" fill-rule="evenodd" fill="#FFFFFF" fill-opacity="1"/><path d="M36.8313102722168,39.70366287231445L44.286290272216796,39.70366287231445L44.286290272216796,42.70366287231445L36.8313102722168,42.70366287231445L36.8313102722168,39.70366287231445Z" fill-rule="evenodd" transform="matrix(0.8062372207641602,0.5915924310684204,-0.5839826464653015,0.8117660880088806,30.322787159782592,-14.315548600543707)" fill="#FFFFFF" fill-opacity="1"/></g></svg>