<?xml version="1.0" encoding="utf-8"?>
<!-- Generator: Adobe Illustrator 23.0.0, SVG Export Plug-In . SVG Version: 6.00 Build 0)  -->
<svg version="1.1" id="图层_1" xmlns="http://www.w3.org/2000/svg" xmlns:xlink="http://www.w3.org/1999/xlink" x="0px" y="0px"
	 viewBox="0 0 136 136" style="enable-background:new 0 0 136 136;" xml:space="preserve">
<style type="text/css">
	.st0{fill:#212327;}
	.st1{fill:#FFFFFF;stroke:#000000;stroke-miterlimit:10;}
	.st2{fill:#E6E6E6;}
	.st3{fill:none;stroke:#FFFFFF;stroke-width:2;stroke-miterlimit:10;}
	.st4{fill:#808080;}
	.st5{fill:none;stroke:#1F3DA0;stroke-width:4;stroke-linecap:round;stroke-miterlimit:10;}
	.st6{fill:none;stroke:#808080;stroke-width:4;stroke-miterlimit:10;}
	.st7{fill:#0000FF;}
	.st8{fill:none;stroke:#ED1C24;stroke-width:2;stroke-miterlimit:10;}
	.st9{fill:none;stroke:#ED1C24;stroke-width:2;stroke-linecap:round;stroke-linejoin:round;stroke-miterlimit:10;}
	.st10{fill:#FBB03B;}
	.st11{fill:#666666;stroke:#ED1C24;stroke-width:2;stroke-linecap:round;stroke-linejoin:round;stroke-miterlimit:10;}
	.st12{fill:#9E005D;}
	.st13{fill:#ED1C24;}
	.st14{fill:#FF00FF;}
</style>
<g>
	<path class="st0" d="M123,135H13c-6.6,0-12-5.4-12-12V13C1,6.4,6.4,1,13,1h110c6.6,0,12,5.4,12,12v110C135,129.6,129.6,135,123,135
		z"/>
	<g>
		<g>
			<path class="st2" d="M100.5,24c-4.34,0-8.22,1.92-10.88,4.94C89.86,30.26,90,31.61,90,33c0,3.99-1.07,7.72-2.93,10.95
				c2.16,5.3,7.35,9.05,13.43,9.05c8.01,0,14.5-6.49,14.5-14.5S108.51,24,100.5,24z"/>
			<path class="st2" d="M127.04,70.21c-0.39-5.79-1.93-8.1-4.24-10.42c-4.03-4.03-13.19-5.61-14.19-5.77
				c-0.06-0.01-0.11,0-0.16,0.03c-0.46,0.3-3.25,1.95-7.45,1.95c-2.24,0-3,0-4.48-0.23c1.41,0.85,1.72,0.81,2.81,1.91
				c3.7,3.7,6.1,7.68,6.66,16.06c0.3,4.48,0.18,10.94,0.07,14.55l10.25-0.77c0.11-0.01,0.2-0.09,0.23-0.2l1.55-7.74
				c0.06-0.29,0.48-0.26,0.5,0.04c0.07,1.84,0.17,4.45,0.23,6.11c0.01,0.18,0.19,0.28,0.35,0.21l7.73-3.31
				c0.09-0.04,0.15-0.12,0.15-0.22C127.09,81.3,127.32,74.44,127.04,70.21z"/>
		</g>
		<g>
			<path class="st2" d="M35.75,24c4.34,0,8.22,1.92,10.88,4.94c-0.25,1.32-0.38,2.67-0.38,4.06c0,3.99,1.07,7.72,2.93,10.95
				C47.02,49.26,41.82,53,35.75,53c-8.01,0-14.5-6.49-14.5-14.5S27.74,24,35.75,24z"/>
			<path class="st2" d="M9.21,70.21c0.39-5.79,1.93-8.1,4.24-10.42c4.03-4.03,13.19-5.61,14.19-5.77c0.06-0.01,0.11,0,0.16,0.03
				c0.46,0.3,3.25,1.95,7.45,1.95c2.24,0,3,0,4.48-0.23c-1.41,0.85-1.72,0.81-2.81,1.91c-3.7,3.7-6.1,7.68-6.66,16.06
				c-0.3,4.48-0.18,10.94-0.07,14.55l-10.25-0.77c-0.11-0.01-0.2-0.09-0.23-0.2l-1.55-7.74c-0.06-0.29-0.48-0.26-0.5,0.04
				c-0.07,1.84-0.17,4.45-0.23,6.11c-0.01,0.18-0.19,0.28-0.35,0.21l-7.73-3.31C9.26,82.58,9.2,82.5,9.2,82.4
				C9.16,81.3,8.92,74.44,9.21,70.21z"/>
		</g>
		<g>
			<circle class="st2" cx="68" cy="33" r="18"/>
			<g>
				<path class="st2" d="M75.34,86.39c-0.22-0.08-0.5-0.16-0.85-0.25c-0.33-0.07-0.58-0.15-0.74-0.22
					c-0.16-0.08-0.24-0.19-0.24-0.35c0-0.16,0.07-0.28,0.21-0.38c0.14-0.09,0.36-0.14,0.65-0.14c0.42,0,0.84,0.12,1.26,0.36
					l0.32-0.8c-0.21-0.13-0.45-0.23-0.73-0.3c-0.28-0.07-0.56-0.1-0.85-0.1c-0.41,0-0.77,0.06-1.05,0.19
					c-0.29,0.13-0.5,0.3-0.64,0.51c-0.14,0.21-0.21,0.45-0.21,0.72c0,0.3,0.08,0.54,0.24,0.73c0.16,0.18,0.35,0.31,0.57,0.4
					c0.22,0.08,0.5,0.16,0.85,0.25c0.22,0.05,0.4,0.1,0.53,0.14c0.13,0.04,0.24,0.1,0.32,0.17c0.08,0.07,0.13,0.16,0.13,0.27
					c0,0.15-0.07,0.26-0.21,0.35c-0.14,0.09-0.36,0.13-0.66,0.13c-0.27,0-0.54-0.04-0.8-0.13c-0.27-0.09-0.5-0.2-0.69-0.34
					l-0.36,0.79c0.2,0.16,0.47,0.28,0.81,0.38c0.33,0.1,0.68,0.15,1.04,0.15c0.42,0,0.77-0.06,1.06-0.19
					c0.29-0.13,0.51-0.29,0.65-0.51c0.14-0.21,0.22-0.45,0.22-0.71c0-0.3-0.08-0.54-0.24-0.72C75.75,86.6,75.56,86.47,75.34,86.39z"
					/>
				<path class="st2" d="M70.13,82.84h-3.62c-1.56,0.96-3.25,1.59-5.71,2.06v3.02h4.45v15.53h-5.28v3.95h14.77v-3.95h-4.61V82.84z"
					/>
				<polygon class="st2" points="76.29,85.15 77.74,85.15 77.74,88.83 78.79,88.83 78.79,85.15 80.24,85.15 80.24,84.29 
					76.29,84.29 				"/>
				<path class="st2" d="M102,75c-0.5-7.5-2.5-10.5-5.5-13.5c-4.61-4.61-14.4-6.75-17.52-7.33c-0.6-0.11-1.2-0.01-1.73,0.28
					c-1.33,0.72-4.38,2.05-8.75,2.05c-3.84,0-7.28-1.42-8.75-2.12c-0.51-0.24-1.08-0.32-1.63-0.21
					C42.92,57.11,40.93,60.08,37.5,64.5c-3.95,5.08-4.11,18.77-4.04,23.42c0.01,0.96,0.56,1.84,1.41,2.28l7.15,3.66
					C42.01,94.16,42,94.45,42,94.75c0,14.22,11.53,25.75,25.75,25.75c14.13,0,25.59-11.38,25.74-25.47l7.08-3.35
					c0.88-0.42,1.46-1.29,1.49-2.27C102.15,86.35,102.3,79.52,102,75z M67.75,117.5C55.19,117.5,45,107.31,45,94.75
					C45,82.19,55.19,72,67.75,72S90.5,82.19,90.5,94.75C90.5,107.31,80.31,117.5,67.75,117.5z"/>
			</g>
		</g>
	</g>
</g>
</svg>
