<?xml version="1.0" encoding="utf-8"?>
<!-- Generator: Adobe Illustrator 16.0.0, SVG Export Plug-In . SVG Version: 6.00 Build 0)  -->
<!DOCTYPE svg PUBLIC "-//W3C//DTD SVG 1.1//EN" "http://www.w3.org/Graphics/SVG/1.1/DTD/svg11.dtd">
<svg version="1.1" id="图层_1" xmlns="http://www.w3.org/2000/svg" xmlns:xlink="http://www.w3.org/1999/xlink" x="0px" y="0px"
	 width="107px" height="86.738px" viewBox="243.589 377.852 107 86.738" enable-background="new 243.589 377.852 107 86.738"
	 xml:space="preserve">
<path fill="#FFFFFF" d="M350.589,402.206c0-0.798-0.3-1.497-0.799-2.096c-0.499-0.599-1.298-0.898-1.996-0.898h-12.077
	c0.299-2.695,0.398-5.39,0.398-8.085c0-3.094-0.199-6.288-0.599-9.482c-0.299-2.096-2.096-3.793-4.192-3.793h-68.472
	c-2.196,0-3.992,1.597-4.192,3.793c-0.399,3.194-0.599,6.388-0.599,9.482c0,2.695,0.1,5.39,0.399,8.085h-12.078
	c-0.798,0-1.497,0.299-1.996,0.898c-0.499,0.599-0.798,1.297-0.798,2.096c0,0.2,1.098,20.861,24.554,25.952c0,0,0,0,0,0.1
	c6.688,10.38,16.07,16.769,26.051,17.767V459h-17.068c-1.597,0-2.795,1.298-2.795,2.795c0,1.597,1.298,2.795,2.795,2.795h19.863
	h19.863c1.597,0,2.795-1.298,2.795-2.795c0-1.597-1.298-2.795-2.795-2.795h-16.868v-12.976c9.98-0.998,19.363-7.387,26.051-17.767
	c0,0,0,0,0-0.1C349.591,423.167,350.589,402.506,350.589,402.206z M249.678,405.001h9.582c0.998,5.689,2.695,11.179,4.991,16.17
	C253.97,417.178,250.776,409.293,249.678,405.001z M297.089,437.64c-8.185,0-15.97-4.99-21.759-14.073
	c-3.992-6.188-6.787-13.774-7.985-22.059c-0.499-3.394-0.798-6.887-0.798-10.281c0-1.497,0.1-3.094,0.2-4.691h60.686
	c0.1,1.597,0.2,3.094,0.2,4.691c0,3.394-0.3,6.887-0.799,10.281l0,0c-1.298,8.285-3.992,15.97-7.985,22.059
	C313.059,432.649,305.274,437.64,297.089,437.64z M329.927,421.171c2.296-4.991,3.993-10.381,4.991-16.17h9.582
	C343.403,409.293,340.208,417.178,329.927,421.171z"/>
<path fill="#FFFFFF" d="M321.943,392.225c-0.799,0.199-1.198,0.998-0.998,1.796c1.297,4.492-2.097,12.377-5.19,13.974
	c-0.699,0.299-0.998,1.198-0.6,1.896c0.2,0.499,0.799,0.798,1.298,0.798c0.2,0,0.399,0,0.599-0.1
	c4.691-2.296,8.285-11.678,6.588-17.268C323.44,392.424,322.641,392.025,321.943,392.225z"/>
</svg>
