<?xml version="1.0" encoding="utf-8"?>
<!-- Generator: Adobe Illustrator 16.0.0, SVG Export Plug-In . SVG Version: 6.00 Build 0)  -->
<!DOCTYPE svg PUBLIC "-//W3C//DTD SVG 1.1//EN" "http://www.w3.org/Graphics/SVG/1.1/DTD/svg11.dtd">
<svg version="1.1" id="图层_1" xmlns="http://www.w3.org/2000/svg" xmlns:xlink="http://www.w3.org/1999/xlink" x="0px" y="0px"
	 width="132.339px" height="60px" viewBox="175.689 372.346 132.339 60" enable-background="new 175.689 372.346 132.339 60"
	 xml:space="preserve">
<g>
	<path fill="#E3C18C" d="M215.659,390.791c1.669,14.892-18.486,20.412-25.547,30.041h25.547v10.142h-39.926
		c-1.027-16.433,15.919-22.723,26.446-33.764c9.757-14.764-15.406-22.723-14.378-4.108h-11.297
		C173.423,367.041,216.173,365.372,215.659,390.791z"/>
	<path fill="#E3C18C" d="M244.031,372.433c9.243-0.128,16.561,6.034,16.946,15.277H249.68c0.128-3.852-2.696-6.291-6.419-6.034
		c-8.216,0.385-9.243,8.216-9.885,16.304c10.912-11.554,30.169-1.284,28.885,14.122c1.541,18.487-24.905,27.73-35.047,12.838
		C217.713,410.047,218.997,370.25,244.031,372.433z M233.376,412.487c-0.642,13.737,18.358,14.378,17.203,0
		C251.605,399.392,232.349,399.392,233.376,412.487z"/>
	<path fill="#E3C18C" d="M289.734,372.433c9.243-0.128,16.561,6.034,16.946,15.277h-11.298c0.129-3.852-2.695-6.291-6.418-6.034
		c-8.216,0.385-9.244,8.216-9.885,16.304c10.912-11.554,30.168-1.284,28.884,14.122c1.541,18.487-24.905,27.73-35.047,12.838
		C263.417,410.047,264.7,370.25,289.734,372.433z M279.079,412.487c-0.642,13.737,18.357,14.378,17.203,0
		C297.308,399.392,278.051,399.392,279.079,412.487z"/>
</g>
</svg>
