<?xml version="1.0" encoding="utf-8"?>
<!-- Generator: Adobe Illustrator 16.0.0, SVG Export Plug-In . SVG Version: 6.00 Build 0)  -->
<!DOCTYPE svg PUBLIC "-//W3C//DTD SVG 1.1//EN" "http://www.w3.org/Graphics/SVG/1.1/DTD/svg11.dtd">
<svg version="1.1" id="图层_1" xmlns="http://www.w3.org/2000/svg" xmlns:xlink="http://www.w3.org/1999/xlink" x="0px" y="0px"
	 width="131.769px" height="60px" viewBox="175.271 372.512 131.769 60" enable-background="new 175.271 372.512 131.769 60"
	 xml:space="preserve">
<g>
	<path fill="#E3C18C" d="M202.137,389.527c0-2.303-0.64-4.094-1.919-5.501s-3.07-2.047-5.245-2.047
		c-2.559,0-4.478,0.768-5.757,2.431c-1.407,1.536-2.047,3.838-2.175,6.781h-10.49c0.128-5.885,1.791-10.491,5.117-13.689
		s8.06-4.861,14.073-4.861c5.245,0,9.467,1.535,12.793,4.605s4.989,6.908,4.989,11.77c0,4.094-1.791,7.548-5.245,10.107
		l-1.535,1.023c1.279,0.512,2.559,1.151,3.582,2.047c3.326,2.559,4.989,6.524,4.989,11.642c0,5.756-1.791,10.234-5.373,13.688
		c-3.582,3.326-8.443,4.989-14.584,4.989c-6.269,0-11.258-1.663-14.712-4.989s-5.245-8.06-5.373-14.201h11.13
		c0,3.326,0.768,5.757,2.175,7.548c1.407,1.664,3.454,2.559,6.141,2.559c2.559,0,4.734-0.896,6.269-2.559
		c1.535-1.791,2.431-3.965,2.431-6.78c0-2.43-0.768-4.478-2.431-6.013c-1.407-1.279-3.198-2.047-5.374-2.175
		c-1.151-0.128-2.302-0.128-3.326-0.128c-1.023,0-1.663,0-1.919,0.128v-8.443c0.256,0,1.024,0,2.047,0
		c1.024,0,2.175-0.128,3.327-0.256c1.791-0.256,3.198-0.896,4.35-1.919C201.498,393.749,202.137,391.958,202.137,389.527z"/>
	<path fill="#E3C18C" d="M243.203,372.64c4.861,0,8.827,1.407,11.897,4.222c3.071,2.814,4.734,6.524,4.99,11.002h-11.258
		c0-1.792-0.512-3.327-1.535-4.35c-1.023-1.152-2.559-1.664-4.35-1.664h-0.512c-3.454,0-6.013,1.664-7.548,4.989
		c-1.279,2.559-2.047,6.397-2.303,11.258c3.07-3.198,6.78-4.861,11.258-4.861c5.117,0,9.339,1.791,12.666,5.373
		c3.326,3.582,4.989,8.06,4.989,13.688c0,5.885-1.919,10.747-5.629,14.457s-8.571,5.629-14.456,5.629
		c-6.524,0-11.514-2.431-14.968-7.42c-3.454-4.862-5.117-12.153-5.117-21.493c0-10.362,1.919-18.294,5.629-23.54
		c3.455-4.989,8.572-7.42,15.224-7.42L243.203,372.64z M232.585,412.554c0,3.07,0.768,5.629,2.431,7.676
		c1.663,2.047,3.71,3.07,6.141,3.07c2.814,0,4.989-0.896,6.396-2.687s2.175-4.478,2.175-7.932c0-3.07-0.768-5.501-2.303-7.292
		s-3.71-2.814-6.269-2.814s-4.605,0.896-6.269,2.814C233.353,407.053,232.585,409.484,232.585,412.554z"/>
	<path fill="#E3C18C" d="M288.747,372.64c4.862,0,8.827,1.407,11.897,4.222c3.071,2.814,4.734,6.524,4.989,11.002h-11.257
		c0-1.792-0.512-3.327-1.535-4.35c-1.023-1.152-2.559-1.664-4.35-1.664h-0.512c-3.454,0-6.013,1.664-7.548,4.989
		c-1.28,2.559-2.047,6.397-2.303,11.258c3.07-3.198,6.78-4.861,11.258-4.861c5.117,0,9.34,1.791,12.665,5.373
		c3.327,3.582,4.989,8.06,4.989,13.688c0,5.885-1.919,10.747-5.629,14.457s-8.571,5.629-14.456,5.629
		c-6.524,0-11.514-2.431-14.968-7.42c-3.454-4.862-5.117-12.153-5.117-21.493c0-10.362,1.918-18.294,5.628-23.54
		c3.455-4.989,8.572-7.42,15.224-7.42L288.747,372.64z M278.128,412.554c0,3.07,0.768,5.629,2.431,7.676
		c1.664,2.047,3.71,3.07,6.141,3.07c2.814,0,4.989-0.896,6.396-2.687s2.175-4.478,2.175-7.932c0-3.07-0.768-5.501-2.303-7.292
		s-3.71-2.814-6.268-2.814c-2.559,0-4.606,0.896-6.269,2.814C278.896,407.053,278.128,409.484,278.128,412.554z"/>
</g>
</svg>
