<?xml version="1.0" encoding="utf-8"?>
<!-- Generator: Adobe Illustrator 16.0.0, SVG Export Plug-In . SVG Version: 6.00 Build 0)  -->
<!DOCTYPE svg PUBLIC "-//W3C//DTD SVG 1.1//EN" "http://www.w3.org/Graphics/SVG/1.1/DTD/svg11.dtd">
<svg version="1.1" id="图层_1" xmlns="http://www.w3.org/2000/svg" xmlns:xlink="http://www.w3.org/1999/xlink" x="0px" y="0px"
	 width="595.46px" height="191.789px" viewBox="0 325.051 595.46 191.789" enable-background="new 0 325.051 595.46 191.789"
	 xml:space="preserve">
<g>
	<g>
		
			<linearGradient id="SVGID_1_" gradientUnits="userSpaceOnUse" x1="30.9971" y1="788.3848" x2="104.1017" y2="832.8941" gradientTransform="matrix(1.7941 0 0 -1.7941 -0.0705 1834.3419)">
			<stop  offset="0" style="stop-color:#FFFFFF"/>
			<stop  offset="1" style="stop-color:#B28247"/>
		</linearGradient>
		<polygon fill="url(#SVGID_1_)" points="187.842,325.051 154.472,325.051 71.943,444.537 71.943,444.537 		"/>
		
			<linearGradient id="SVGID_2_" gradientUnits="userSpaceOnUse" x1="34.2227" y1="783.0791" x2="107.8795" y2="827.9247" gradientTransform="matrix(1.7941 0 0 -1.7941 -0.0705 1834.3419)">
			<stop  offset="0" style="stop-color:#FFFFFF"/>
			<stop  offset="1" style="stop-color:#B28247"/>
		</linearGradient>
		<polygon fill="url(#SVGID_2_)" points="191.43,362.009 191.43,328.639 71.943,444.537 71.943,444.537 		"/>
		
			<linearGradient id="SVGID_3_" gradientUnits="userSpaceOnUse" x1="26.9126" y1="795.5488" x2="73.4636" y2="823.8911" gradientTransform="matrix(1.7941 0 0 -1.7941 -0.0705 1834.3419)">
			<stop  offset="0" style="stop-color:#FFFFFF"/>
			<stop  offset="1" style="stop-color:#B28247"/>
		</linearGradient>
		<polygon fill="url(#SVGID_3_)" points="71.943,444.537 71.943,444.537 119.307,325.051 97.599,325.051 		"/>
		
			<linearGradient id="SVGID_4_" gradientUnits="userSpaceOnUse" x1="28.7847" y1="792.2744" x2="86.9065" y2="827.6616" gradientTransform="matrix(1.7941 0 0 -1.7941 -0.0705 1834.3419)">
			<stop  offset="0" style="stop-color:#FFFFFF"/>
			<stop  offset="1" style="stop-color:#B28247"/>
		</linearGradient>
		<polygon fill="url(#SVGID_4_)" points="149.089,325.051 123.613,325.051 71.943,444.537 71.943,444.537 		"/>
		
			<linearGradient id="SVGID_5_" gradientUnits="userSpaceOnUse" x1="45.5166" y1="764.8047" x2="103.0044" y2="799.8059" gradientTransform="matrix(1.7941 0 0 -1.7941 -0.0705 1834.3419)">
			<stop  offset="0" style="stop-color:#FFFFFF"/>
			<stop  offset="1" style="stop-color:#B28247"/>
		</linearGradient>
		<polygon fill="url(#SVGID_5_)" points="191.43,418.882 191.43,397.173 71.943,444.537 71.943,444.537 		"/>
		
			<linearGradient id="SVGID_6_" gradientUnits="userSpaceOnUse" x1="41.6992" y1="770.9561" x2="106.2312" y2="810.246" gradientTransform="matrix(1.7941 0 0 -1.7941 -0.0705 1834.3419)">
			<stop  offset="0" style="stop-color:#FFFFFF"/>
			<stop  offset="1" style="stop-color:#B28247"/>
		</linearGradient>
		<polygon fill="url(#SVGID_6_)" points="191.43,392.868 191.43,367.392 71.943,444.537 71.943,444.537 		"/>
		
			<linearGradient id="SVGID_7_" gradientUnits="userSpaceOnUse" x1="48.7388" y1="759.6162" x2="100.2102" y2="790.9542" gradientTransform="matrix(1.7941 0 0 -1.7941 -0.0705 1834.3419)">
			<stop  offset="0" style="stop-color:#FFFFFF"/>
			<stop  offset="1" style="stop-color:#B28247"/>
		</linearGradient>
		<polygon fill="url(#SVGID_7_)" points="71.943,444.537 71.943,444.537 191.43,444.537 191.43,422.649 		"/>
		
			<linearGradient id="SVGID_8_" gradientUnits="userSpaceOnUse" x1="25.0542" y1="798.7705" x2="61.7261" y2="821.098" gradientTransform="matrix(1.7941 0 0 -1.7941 -0.0705 1834.3419)">
			<stop  offset="0" style="stop-color:#FFFFFF"/>
			<stop  offset="1" style="stop-color:#B28247"/>
		</linearGradient>
		<polygon fill="url(#SVGID_8_)" points="93.831,325.051 71.943,325.051 71.943,444.537 		"/>
	</g>
	<polygon fill="#B28247" points="0,459.249 0,325.051 71.943,325.051 	"/>
	<path fill="#B28247" d="M84.322,474.678c0,23.323-18.838,42.162-42.161,42.162S0,498.001,0,474.678
		c0-23.322,18.838-42.161,42.161-42.161S84.322,451.534,84.322,474.678z"/>
	<path fill="#B28247" d="M235.744,367.392c-7.356,0-12.917-4.665-12.917-12.917c0-3.768,1.614-7.356,3.588-11.124l8.791-17.941
		h8.253l-8.612,17.223c1.077-0.359,2.153-0.538,3.05-0.538c5.562,0,10.944,4.665,10.944,12.379
		C248.841,362.547,243.1,367.392,235.744,367.392z M235.744,348.374c-3.05,0-5.382,2.153-5.382,6.1c0,3.768,2.332,6.1,5.382,6.1
		c3.05,0,5.382-2.153,5.382-6.1C241.126,350.707,238.973,348.374,235.744,348.374z"/>
	<path fill="#B28247" d="M272.523,332.586v34.267h-8.074v-34.267h-10.944v-7.176h29.782v7.176H272.523z"/>
	<path fill="#B28247" d="M306.791,367.033v-18.659c0-3.947-2.512-5.382-5.023-5.382c-2.332,0-4.845,1.435-4.845,5.382v18.479h-7.535
		V325.41h7.535v13.994c1.974-2.153,4.665-3.229,7.356-3.229c6.637,0,10.227,4.665,10.227,11.123v19.735H306.791z"/>
	<path fill="#B28247" d="M360.253,367.033l-2.512-7.356h-14.711l-2.512,7.356h-8.432l15.07-41.623h6.279l15.25,41.623H360.253z
		 M350.566,337.609l-5.203,15.07h10.406L350.566,337.609z"/>
	<path fill="#B28247" d="M398.468,367.033l-16.506-25.476v25.476h-8.072V325.41h7.176l16.506,25.476V325.41h8.072v41.623H398.468z"
		/>
	<path fill="#B28247" d="M439.912,367.033l-16.506-25.476v25.476h-8.072V325.41h7.176l16.506,25.476V325.41h8.072v41.623H439.912z"
		/>
	<path fill="#B28247" d="M456.957,367.033V325.41h8.072v41.623H456.957z"/>
	<path fill="#B28247" d="M489.789,367.033h-6.102l-13.635-41.623h8.432l8.434,27.091l8.252-27.091h8.434L489.789,367.033z"/>
	<path fill="#B28247" d="M555.451,362.727c-2.869,2.871-6.457,4.485-11.123,4.485c-4.664,0-8.432-1.615-11.303-4.485
		c-4.127-4.126-4.127-9.329-4.127-16.505s-0.178-12.379,4.127-16.506c2.871-2.871,6.459-4.485,11.303-4.485
		c4.666,0,8.254,1.615,11.123,4.485c4.127,4.126,4.127,9.33,4.127,16.506S559.578,358.601,555.451,362.727z M549.531,334.56
		c-1.256-1.256-3.051-2.153-5.203-2.153s-4.125,0.897-5.203,2.153c-1.613,1.794-1.973,3.768-1.973,11.662
		c0,8.073,0.359,9.867,1.973,11.662c1.256,1.256,3.051,2.153,5.203,2.153c2.154,0,3.947-0.897,5.203-2.153
		c1.615-1.794,1.975-3.768,1.975-11.662C551.505,338.147,550.966,336.174,549.531,334.56z"/>
	<path fill="#B28247" d="M576.083,332.586v10.227h16.326v7.176h-16.326v16.864h-8.074V325.41h27.451v7.176H576.083z"/>
	<path fill="#B28247" d="M240.947,428.929h-8.073v15.608H224.8v-41.623h16.147c8.612,0,13.635,5.92,13.635,12.917
		S249.559,428.929,240.947,428.929z M240.588,410.27h-7.535v11.303h7.535c3.768,0,6.1-2.333,6.1-5.741
		C246.688,412.603,244.355,410.27,240.588,410.27z"/>
	<path fill="#B28247" d="M261.579,444.537v-41.623h8.073v41.623H261.579L261.579,444.537z"/>
	<path fill="#B28247" d="M295.308,410.27v34.267h-8.252V410.27h-10.765v-7.176h29.781v7.176H295.308z"/>
	<path fill="#B28247" d="M332.804,444.537l-2.512-7.355h-14.711l-2.512,7.355h-8.434l15.072-41.623h6.279l15.248,41.623H332.804z
		 M323.117,415.294l-5.203,15.07h10.406L323.117,415.294z"/>
	<path fill="#B28247" d="M370.66,444.537l-10.764-18.838l-5.383,6.459v12.559h-8.074v-41.802h8.074v18.12l14.711-18.12h9.867
		l-13.814,16.505l14.713,25.117H370.66L370.66,444.537z"/>
	<path fill="#B28247" d="M408.875,444.537l-2.512-7.355H391.65l-2.512,7.355h-8.432l15.07-41.623h6.279l15.25,41.623H408.875z
		 M399.185,415.294l-5.201,15.07h10.404L399.185,415.294z"/>
	<rect x="503.603" y="358.78" fill="#B28247" width="8.072" height="8.073"/>
</g>
</svg>
