<?xml version="1.0" encoding="utf-8"?>
<!-- Generator: Adobe Illustrator 16.0.0, SVG Export Plug-In . SVG Version: 6.00 Build 0)  -->
<!DOCTYPE svg PUBLIC "-//W3C//DTD SVG 1.1//EN" "http://www.w3.org/Graphics/SVG/1.1/DTD/svg11.dtd">
<svg version="1.1" id="图层_1" xmlns="http://www.w3.org/2000/svg" xmlns:xlink="http://www.w3.org/1999/xlink" x="0px" y="0px"
	 width="128.461px" height="60px" viewBox="176.587 373.357 128.461 60" enable-background="new 176.587 373.357 128.461 60"
	 xml:space="preserve">
<g>
	<path fill="#E3C18C" d="M190.562,391.563h-13.974v-8.205c3.589,0.128,6.794-0.641,9.615-2.308c2.82-1.795,5-4.231,6.538-7.564
		h9.359v58.333h-5.77h-5.769V391.563z"/>
	<path fill="#E3C18C" d="M241.202,373.486c4.872,0,8.846,1.41,11.923,4.23c3.077,2.821,4.744,6.539,5,11.026h-11.282
		c0-1.795-0.513-3.333-1.539-4.359c-1.025-1.154-2.564-1.667-4.359-1.667h-0.513c-3.461,0-6.025,1.667-7.564,5
		c-1.282,2.564-2.051,6.41-2.308,11.282c3.077-3.205,6.794-4.872,11.282-4.872c5.128,0,9.359,1.795,12.692,5.385s5,8.077,5,13.718
		c0,5.897-1.923,10.769-5.641,14.487c-3.718,3.718-8.59,5.642-14.487,5.642c-6.539,0-11.539-2.436-15-7.437
		c-3.462-4.872-5.128-12.179-5.128-21.538c0-10.384,1.923-18.333,5.641-23.589c3.461-5,8.59-7.436,15.256-7.436L241.202,373.486z
		 M230.562,413.485c0,3.077,0.769,5.641,2.436,7.692c1.667,2.051,3.718,2.949,6.154,2.949c2.821,0,5-0.898,6.411-2.693
		c1.41-1.794,2.179-4.487,2.179-7.949c0-3.077-0.769-5.513-2.308-7.308s-3.718-2.82-6.282-2.82c-2.564,0-4.615,0.897-6.282,2.82
		C231.331,407.973,230.562,410.409,230.562,413.485z"/>
	<path fill="#E3C18C" d="M286.715,373.486c4.871,0,8.846,1.41,11.923,4.23c3.077,2.821,4.743,6.539,5,11.026h-11.282
		c0-1.795-0.513-3.333-1.539-4.359c-1.025-1.154-2.564-1.667-4.359-1.667h-0.513c-3.461,0-6.025,1.667-7.564,5
		c-1.282,2.564-2.051,6.41-2.308,11.282c3.078-3.205,6.795-4.872,11.283-4.872c5.128,0,9.358,1.795,12.692,5.385
		c3.333,3.59,5,8.077,5,13.718c0,5.897-1.923,10.769-5.641,14.487c-3.718,3.718-8.59,5.642-14.488,5.642
		c-6.538,0-11.538-2.436-15-7.437c-3.461-4.872-5.128-12.179-5.128-21.538c0-10.384,1.923-18.333,5.641-23.589
		c3.462-5,8.589-7.436,15.256-7.436L286.715,373.486z M276.203,413.485c0,3.077,0.769,5.641,2.436,7.692
		c1.667,2.051,3.718,3.077,6.154,3.077c2.82,0,5-0.897,6.41-2.692c1.411-1.795,2.18-4.487,2.18-7.949
		c0-3.077-0.769-5.513-2.308-7.308s-3.718-2.821-6.282-2.821c-2.564,0-4.615,0.897-6.282,2.821
		C276.972,407.973,276.203,410.409,276.203,413.485z"/>
</g>
</svg>
