<?xml version="1.0" encoding="utf-8"?>
<!-- Generator: Adobe Illustrator 16.0.0, SVG Export Plug-In . SVG Version: 6.00 Build 0)  -->
<!DOCTYPE svg PUBLIC "-//W3C//DTD SVG 1.1//EN" "http://www.w3.org/Graphics/SVG/1.1/DTD/svg11.dtd">
<svg version="1.1" id="图层_1" xmlns="http://www.w3.org/2000/svg" xmlns:xlink="http://www.w3.org/1999/xlink" x="0px" y="0px"
	 width="85.897px" height="60px" viewBox="199.561 371.666 85.897 60" enable-background="new 199.561 371.666 85.897 60"
	 xml:space="preserve">
<g>
	<path fill="#E3C18C" d="M221.483,371.794c4.872,0,8.846,1.41,11.923,4.231c3.077,2.82,4.744,6.538,5,11.025h-11.282
		c0-1.795-0.513-3.333-1.538-4.359c-1.026-1.154-2.564-1.667-4.359-1.667h-0.513c-3.461,0-6.025,1.667-7.564,5
		c-1.282,2.564-2.051,6.41-2.308,11.282c3.077-3.205,6.795-4.872,11.282-4.872c5.128,0,9.359,1.795,12.692,5.385
		c3.333,3.589,5,8.077,5,13.718c0,5.897-1.923,10.77-5.641,14.487c-3.718,3.718-8.589,5.641-14.487,5.641
		c-6.539,0-11.539-2.436-15-7.436c-3.461-4.872-5.128-12.18-5.128-21.539c0-10.385,1.923-18.333,5.641-23.59
		c3.461-5,8.59-7.436,15.256-7.436L221.483,371.794z M210.842,411.794c0,3.077,0.77,5.641,2.436,7.692s3.718,3.077,6.154,3.077
		c2.821,0,5-0.897,6.411-2.692c1.41-1.795,2.179-4.487,2.179-7.948c0-3.077-0.769-5.513-2.308-7.308s-3.718-2.82-6.282-2.82
		c-2.564,0-4.615,0.897-6.282,2.82C211.612,406.41,210.842,408.846,210.842,411.794z"/>
	<path fill="#E3C18C" d="M267.125,371.794c4.872,0,8.846,1.41,11.923,4.231c3.077,2.82,4.744,6.538,5,11.025h-11.282
		c0-1.795-0.513-3.333-1.539-4.359c-1.026-1.154-2.564-1.667-4.359-1.667h-0.513c-3.462,0-6.026,1.667-7.564,5
		c-1.282,2.564-2.051,6.41-2.308,11.282c3.077-3.205,6.795-4.872,11.282-4.872c5.128,0,9.358,1.795,12.692,5.385
		c3.333,3.589,5,8.077,5,13.718c0,5.897-1.923,10.77-5.641,14.487s-8.589,5.641-14.487,5.641c-6.539,0-11.539-2.436-15-7.436
		c-3.461-4.872-5.128-12.18-5.128-21.539c0-10.385,1.923-18.333,5.641-23.59c3.462-5,8.59-7.436,15.257-7.436L267.125,371.794z
		 M256.483,411.794c0,3.077,0.77,5.641,2.436,7.692s3.718,3.077,6.154,3.077c2.82,0,5-0.897,6.411-2.692
		c1.538-1.923,2.179-4.487,2.179-8.077c0-3.077-0.769-5.513-2.308-7.308c-1.538-1.795-3.718-2.821-6.282-2.821
		c-2.564,0-4.615,0.897-6.282,2.821C257.253,406.41,256.483,408.846,256.483,411.794z"/>
</g>
</svg>
