<?xml version="1.0" encoding="utf-8"?>
<!-- Generator: Adobe Illustrator 23.0.0, SVG Export Plug-In . SVG Version: 6.00 Build 0)  -->
<svg version="1.1" id="图层_1" xmlns="http://www.w3.org/2000/svg" xmlns:xlink="http://www.w3.org/1999/xlink" x="0px" y="0px"
	 viewBox="0 0 300 150" style="enable-background:new 0 0 300 150;" xml:space="preserve">
<style type="text/css">
	.st0{fill:#FFFFFF;}
	.st1{fill:#0FB7D4;}
	.st2{fill:#C2E4EE;}
	.st3{fill:#231815;}
	.st4{fill:#FFFFFF;stroke:#FFFFFF;stroke-width:0.25;stroke-miterlimit:10;}
	.st5{font-family:'Montserrat-SemiBold';}
	.st6{font-size:26.2991px;}
</style>
<g>
	<g>
		<path class="st4" d="M274.1,134.6H25.9c-13.5,0-24.4-10.9-24.4-24.4V39.8c0-13.5,10.9-24.4,24.4-24.4h248.2
			c13.5,0,24.4,10.9,24.4,24.4v70.4C298.5,123.7,287.6,134.6,274.1,134.6z M25.9,18.8c-11.6,0-21,9.4-21,21v70.4
			c0,11.6,9.4,21,21,21h248.2c11.6,0,21-9.4,21-21V39.8c0-11.6-9.4-21-21-21H25.9z"/>
	</g>
	<text transform="matrix(1 0 0 1 29.4006 114.1665)" class="st0 st5 st6">for Phones</text>
	<path class="st0" d="M57.9,44.5c2.1,1.7,3.2,4.1,3.2,7.2c0,2.6-0.6,4.9-1.9,6.9c-1.2,1.9-3,3.4-5.3,4.5c-2.3,1-5,1.6-8.1,1.6h-7
		l-1.7,8.6H30l6.2-31.2h12.6C52.8,41.9,55.8,42.8,57.9,44.5z M51.8,57c1.3-1.1,2-2.7,2-4.7c0-1.5-0.5-2.6-1.5-3.3
		c-1-0.7-2.4-1.1-4.3-1.1h-5.7l-2.2,10.8h6.1C48.7,58.6,50.5,58.1,51.8,57z"/>
	<path class="st0" d="M66.6,49.1h6.9l-4.8,24h-6.9L66.6,49.1z M68.3,44.7c-0.8-0.7-1.1-1.6-1.1-2.6c0-1.2,0.4-2.2,1.3-3
		c0.8-0.8,2-1.2,3.3-1.2c1.2,0,2.2,0.3,3,1c0.8,0.7,1.1,1.5,1.1,2.5c0,1.3-0.4,2.3-1.3,3.1c-0.9,0.8-2,1.2-3.3,1.2
		C70,45.8,69,45.4,68.3,44.7z"/>
	<path class="st0" d="M84.6,64.7c-0.1,0.2-0.1,0.6-0.1,1c0,1.5,0.8,2.3,2.5,2.3c0.9,0,1.9-0.3,2.8-0.8l1,5c-1.5,1-3.5,1.4-6,1.4
		c-2.3,0-4.1-0.6-5.4-1.8c-1.4-1.2-2.1-2.8-2.1-4.9c0-0.6,0.1-1.3,0.2-2.1l1.9-9.7h-3.7l1.1-5.4h3.7l1.2-5.8h7l-1.2,5.8h6L92.5,55
		h-6L84.6,64.7z"/>
	<path class="st0" d="M123,49.1l-4.8,24h-6.6l0.4-2.4c-2,1.8-4.4,2.7-7.4,2.7c-1.9,0-3.6-0.4-5.2-1.3c-1.6-0.9-2.8-2.1-3.8-3.7
		c-0.9-1.6-1.4-3.5-1.4-5.7c0-2.6,0.6-5,1.8-7.2c1.2-2.1,2.8-3.8,4.8-5c2-1.2,4.3-1.8,6.7-1.8c3.7,0,6.3,1.2,7.8,3.6l0.6-3.3H123z
		 M110.5,66.7c1.1-0.7,1.9-1.6,2.5-2.8c0.6-1.2,0.9-2.6,0.9-4.1c0-1.6-0.5-2.9-1.5-3.9c-1-1-2.3-1.4-4-1.4c-1.4,0-2.6,0.3-3.7,1
		c-1.1,0.7-1.9,1.6-2.5,2.8c-0.6,1.2-0.9,2.6-0.9,4.1c0,1.6,0.5,2.9,1.5,3.9c1,1,2.3,1.4,4,1.4C108.2,67.7,109.4,67.4,110.5,66.7z"
		/>
	<path class="st0" d="M173.1,47.7l-1.7,8.3H186l-1.2,5.8h-14.4l-2.3,11.4h-7.3l6.2-31.2h23.6l-1.2,5.8H173.1z"/>
	<path class="st0" d="M195.5,40h7l-6.6,33.1h-7L195.5,40z"/>
	<path class="st0" d="M208.5,72.2c-1.8-0.9-3.2-2.1-4.2-3.8c-1-1.6-1.5-3.5-1.5-5.6c0-2.6,0.6-5,1.9-7.1c1.2-2.1,3-3.8,5.2-5
		c2.2-1.2,4.7-1.8,7.5-1.8c2.4,0,4.6,0.4,6.4,1.3c1.8,0.9,3.2,2.1,4.2,3.8c1,1.6,1.5,3.5,1.5,5.6c0,2.6-0.6,5-1.9,7.1
		c-1.2,2.1-3,3.8-5.2,5c-2.2,1.2-4.7,1.8-7.5,1.8C212.4,73.5,210.3,73.1,208.5,72.2z M218.9,66.7c1.1-0.7,1.9-1.6,2.5-2.8
		c0.6-1.2,0.9-2.6,0.9-4.1c0-1.6-0.5-2.9-1.4-3.9c-1-1-2.3-1.4-4-1.4c-1.4,0-2.6,0.3-3.7,1c-1.1,0.7-1.9,1.6-2.5,2.8
		c-0.6,1.2-0.9,2.6-0.9,4.1c0,1.6,0.5,2.9,1.5,3.9c1,1,2.3,1.4,4,1.4C216.6,67.7,217.8,67.4,218.9,66.7z"/>
	<path class="st0" d="M274.5,49.1l-13.3,24h-6.9l-2.8-15l-8.3,15h-6.8l-4.2-24h6.3l2.6,16.2l9-16.2h6l2.7,16.2l8.9-16.2H274.5z"/>
	<g>
		<polygon class="st1" points="135,33.1 132.2,47.9 144,54.8 158.1,46.5 		"/>
		<polygon class="st2" points="125.7,81.9 158.1,63 144,54.8 129.2,63.4 		"/>
	</g>
</g>
</svg>
