<?xml version="1.0" encoding="utf-8"?>
<!-- Generator: Adobe Illustrator 23.0.0, SVG Export Plug-In . SVG Version: 6.00 Build 0)  -->
<svg version="1.1" id="图层_1" xmlns="http://www.w3.org/2000/svg" xmlns:xlink="http://www.w3.org/1999/xlink" x="0px" y="0px"
	 viewBox="0 0 38 38" style="enable-background:new 0 0 38 38;" xml:space="preserve">
<style type="text/css">
	.st0{fill:#FFFFFF;}
</style>
<g>
	<g>
		<polygon class="st0" points="30.8,34.7 30.2,34.7 30.2,34.5 30.6,34.5 30.6,34.1 30.8,34.1 		"/>
		<path class="st0" d="M29.2,34.7h-1v-0.2h1V34.7z M27.3,34.7h-1v-0.2h1V34.7z M25.3,34.7h-1v-0.2h1V34.7z M23.4,34.7h-1v-0.2h1
			V34.7z M21.4,34.7h-1v-0.2h1V34.7z M19.5,34.7h-1v-0.2h1V34.7z M17.5,34.7h-1v-0.2h1V34.7z M15.6,34.7h-1v-0.2h1V34.7z M13.6,34.7
			h-1v-0.2h1V34.7z M11.7,34.7h-1v-0.2h1V34.7z M9.7,34.7h-1v-0.2h1V34.7z"/>
		<polygon class="st0" points="7.8,34.7 7.2,34.7 7.2,34.1 7.4,34.1 7.4,34.5 7.8,34.5 		"/>
		<path class="st0" d="M7.4,33.1H7.2v-1h0.2V33.1z M7.4,31.2H7.2v-1h0.2V31.2z M7.4,29.2H7.2v-1h0.2V29.2z M7.4,27.3H7.2v-1h0.2
			V27.3z M7.4,25.3H7.2v-1h0.2V25.3z M7.4,23.4H7.2v-1h0.2V23.4z M7.4,21.4H7.2v-1h0.2V21.4z M7.4,19.5H7.2v-1h0.2V19.5z M7.4,17.5
			H7.2v-1h0.2V17.5z M7.4,15.6H7.2v-1h0.2V15.6z M7.4,13.6H7.2v-1h0.2V13.6z M7.4,11.7H7.2v-1h0.2V11.7z M7.4,9.7H7.2v-1h0.2V9.7z
			 M7.4,7.8H7.2v-1h0.2V7.8z M7.4,5.8H7.2v-1h0.2V5.8z"/>
		<polygon class="st0" points="7.4,3.9 7.2,3.9 7.2,3.3 7.8,3.3 7.8,3.5 7.4,3.5 		"/>
		<path class="st0" d="M29.2,3.5h-1V3.3h1V3.5z M27.3,3.5h-1V3.3h1V3.5z M25.3,3.5h-1V3.3h1V3.5z M23.4,3.5h-1V3.3h1V3.5z M21.4,3.5
			h-1V3.3h1V3.5z M19.5,3.5h-1V3.3h1V3.5z M17.5,3.5h-1V3.3h1V3.5z M15.6,3.5h-1V3.3h1V3.5z M13.6,3.5h-1V3.3h1V3.5z M11.7,3.5h-1
			V3.3h1V3.5z M9.7,3.5h-1V3.3h1V3.5z"/>
		<polygon class="st0" points="30.8,3.9 30.6,3.9 30.6,3.5 30.2,3.5 30.2,3.3 30.8,3.3 		"/>
		<path class="st0" d="M30.8,33.1h-0.2v-1h0.2V33.1z M30.8,31.2h-0.2v-1h0.2V31.2z M30.8,29.2h-0.2v-1h0.2V29.2z M30.8,27.3h-0.2v-1
			h0.2V27.3z M30.8,25.3h-0.2v-1h0.2V25.3z M30.8,23.4h-0.2v-1h0.2V23.4z M30.8,21.4h-0.2v-1h0.2V21.4z M30.8,19.5h-0.2v-1h0.2V19.5
			z M30.8,17.5h-0.2v-1h0.2V17.5z M30.8,15.6h-0.2v-1h0.2V15.6z M30.8,13.6h-0.2v-1h0.2V13.6z M30.8,11.7h-0.2v-1h0.2V11.7z
			 M30.8,9.7h-0.2v-1h0.2V9.7z M30.8,7.8h-0.2v-1h0.2V7.8z M30.8,5.8h-0.2v-1h0.2V5.8z"/>
	</g>
	<path class="st0" d="M35.1,31.2H2.9V6.8h32.3V31.2z M3.9,30.2h30.3V7.8H3.9V30.2z"/>
</g>
</svg>
