<?xml version="1.0" encoding="utf-8"?>
<!-- Generator: Adobe Illustrator 23.0.0, SVG Export Plug-In . SVG Version: 6.00 Build 0)  -->
<svg version="1.1" id="图层_1" xmlns="http://www.w3.org/2000/svg" xmlns:xlink="http://www.w3.org/1999/xlink" x="0px" y="0px"
	 viewBox="0 0 37.98 37.98" style="enable-background:new 0 0 37.98 37.98;" xml:space="preserve">
<style type="text/css">
	.st0{fill:#FFFFFF;}
	.st1{fill:none;stroke:#FFFFFF;stroke-width:0.9441;stroke-linecap:round;stroke-miterlimit:10;}
	.st2{fill:none;stroke:#FFFFFF;stroke-width:1.3139;stroke-miterlimit:10;}
	.st3{fill:none;stroke:#FFFFFF;stroke-width:1.3906;stroke-miterlimit:10;}
	.st4{fill:none;stroke:#FFFFFF;stroke-width:0.5226;stroke-miterlimit:10;}
	.st5{fill:none;stroke:#FFFFFF;stroke-width:0.9441;stroke-miterlimit:10;}
	.st6{fill:none;stroke:#FFFFFF;stroke-width:0.5915;stroke-miterlimit:10;}
	.st7{fill:#FFFFFF;stroke:#FFFFFF;stroke-width:0;stroke-miterlimit:10;}
	.st8{fill:none;stroke:#FFFFFF;stroke-miterlimit:10;}
	.st9{fill:none;stroke:#FFFFFF;stroke-linecap:round;stroke-linejoin:round;stroke-miterlimit:10;}
	.st10{fill:none;stroke:#FFFFFF;stroke-width:1.3906;stroke-linecap:round;stroke-miterlimit:10;}
	.st11{fill-rule:evenodd;clip-rule:evenodd;fill:none;stroke:#FFFFFF;stroke-width:1.3906;stroke-miterlimit:10;}
	.st12{fill-rule:evenodd;clip-rule:evenodd;fill:none;stroke:#FFFFFF;stroke-width:0.9441;stroke-miterlimit:10;}
	.st13{fill-rule:evenodd;clip-rule:evenodd;fill:none;stroke:#FFFFFF;stroke-width:0.5915;stroke-miterlimit:10;}
	.st14{fill:none;stroke:#FFFFFF;stroke-width:1.4964;stroke-miterlimit:10;}
	.st15{fill:none;stroke:#FFFFFF;stroke-width:1.4979;stroke-linecap:round;stroke-miterlimit:10;}
	.st16{fill:none;stroke:#FFFFFF;stroke-width:0.4896;stroke-miterlimit:10;}
	.st17{fill:none;stroke:#FFFFFF;stroke-width:0.5515;stroke-miterlimit:10;}
	.st18{fill-rule:evenodd;clip-rule:evenodd;fill:none;stroke:#FFFFFF;stroke-width:1.8871;stroke-miterlimit:10;}
	.st19{fill:none;stroke:#FFFFFF;stroke-width:1.3098;stroke-miterlimit:10;}
	.st20{fill:none;stroke:#FFFFFF;stroke-width:1.8871;stroke-linecap:round;stroke-miterlimit:10;}
	.st21{fill-rule:evenodd;clip-rule:evenodd;fill:none;stroke:#FFFFFF;stroke-width:0.6173;stroke-miterlimit:10;}
	.st22{fill-rule:evenodd;clip-rule:evenodd;fill:none;stroke:#FFFFFF;stroke-width:0.3868;stroke-miterlimit:10;}
	.st23{fill:none;stroke:#FFFFFF;stroke-width:1.6605;stroke-miterlimit:10;}
	.st24{fill-rule:evenodd;clip-rule:evenodd;fill:none;stroke:#FFFFFF;stroke-width:1.4489;stroke-miterlimit:10;}
	.st25{fill-rule:evenodd;clip-rule:evenodd;fill:none;stroke:#FFFFFF;stroke-width:0.9077;stroke-miterlimit:10;}
	.st26{fill:none;stroke:#FFFFFF;stroke-width:0.0145;stroke-miterlimit:10;}
	.st27{fill:none;stroke:#FFFFFF;stroke-width:1.1586;stroke-miterlimit:10;}
	.st28{fill:none;stroke:#FFFFFF;stroke-width:1.3665;stroke-miterlimit:10;}
	.st29{fill:none;stroke:#FFFFFF;stroke-width:1.5609;stroke-miterlimit:10;}
	.st30{fill:none;stroke:#FFFFFF;stroke-width:1.6987;stroke-miterlimit:10;}
	.st31{fill:#221814;stroke:#FFFFFF;stroke-miterlimit:10;}
	.st32{fill:none;stroke:#FFFFFF;stroke-width:1.6838;stroke-miterlimit:10;}
	.st33{fill:none;stroke:#FFFFFF;stroke-width:1.2082;stroke-miterlimit:10;}
	.st34{fill:none;stroke:#FFFFFF;stroke-width:1.1058;stroke-miterlimit:10;}
</style>
<g>
	<path class="st0" d="M25.48,4.54c1.27,0,2.3,1.03,2.3,2.3v27.34c0,1.27-1.03,2.3-2.3,2.3H12.5c-1.27,0-2.3-1.03-2.3-2.3V6.84
		c0-1.27,1.03-2.3,2.3-2.3H25.48 M25.48,3.15H12.5c-2.04,0-3.69,1.65-3.69,3.69v27.34c0,2.04,1.65,3.69,3.69,3.69h12.98
		c2.04,0,3.69-1.65,3.69-3.69V6.84C29.17,4.8,27.52,3.15,25.48,3.15L25.48,3.15z"/>
</g>
<g>
	<path class="st0" d="M22.18,1.49v1.36H15.8V1.49H22.18 M22.43,0.1h-6.88c-0.63,0-1.14,0.51-1.14,1.14v3h9.17v-3
		C23.57,0.61,23.06,0.1,22.43,0.1L22.43,0.1z"/>
</g>
<g>
	<polygon class="st0" points="14.16,21.24 18.72,22.03 20.44,12.15 	"/>
	<polygon class="st0" points="23.81,19.78 19.25,18.99 17.54,28.87 	"/>
</g>
</svg>
