<?xml version="1.0" encoding="utf-8"?>
<!-- Generator: Adobe Illustrator 16.0.0, SVG Export Plug-In . SVG Version: 6.00 Build 0)  -->
<!DOCTYPE svg PUBLIC "-//W3C//DTD SVG 1.1//EN" "http://www.w3.org/Graphics/SVG/1.1/DTD/svg11.dtd">
<svg version="1.1" id="图层_1" xmlns="http://www.w3.org/2000/svg" xmlns:xlink="http://www.w3.org/1999/xlink" x="0px" y="0px"
	 width="80px" height="24.417px" viewBox="265.64 384.151 80 24.417" enable-background="new 265.64 384.151 80 24.417"
	 xml:space="preserve">
<path id="形状_2" fill="#FFFFFF" d="M333.383,408.567H278.09c-6.755,0.097-12.352-5.308-12.448-12.063
	c-0.097-6.755,5.307-12.255,12.062-12.352c0.097,0,0.193,0,0.29,0h55.294c6.754-0.096,12.255,5.308,12.352,12.063
	c0.097,6.755-5.308,12.255-12.063,12.352C333.576,408.567,333.48,408.567,333.383,408.567z M278.09,392.163
	c-2.316,0-4.149,1.833-4.149,4.149s1.833,4.149,4.149,4.149c0,0,0,0,0.096,0h55.294c2.316,0,4.149-1.833,4.149-4.149
	s-1.833-4.149-4.149-4.149c0,0,0,0-0.097,0H278.09z M330.295,396.987h-49.214v-1.351h49.214V396.987L330.295,396.987z"/>
</svg>
