<?xml version="1.0" encoding="utf-8"?>
<!-- Generator: Adobe Illustrator 16.0.0, SVG Export Plug-In . SVG Version: 6.00 Build 0)  -->
<!DOCTYPE svg PUBLIC "-//W3C//DTD SVG 1.1//EN" "http://www.w3.org/Graphics/SVG/1.1/DTD/svg11.dtd">
<svg version="1.1" id="图层_1" xmlns="http://www.w3.org/2000/svg" xmlns:xlink="http://www.w3.org/1999/xlink" x="0px" y="0px"
	 width="80px" height="79.925px" viewBox="271 356.397 80 79.925" enable-background="new 271 356.397 80 79.925"
	 xml:space="preserve">
<path id="形状_3" fill="#FFFFFF" d="M290.104,429.218c0,3.866-3.134,7.104-7,7.104s-7.104-3.134-7.104-7
	c0-3.865,3.134-7.104,7-7.104l0,0C286.97,422.218,290.104,425.353,290.104,429.218z M308.806,429.218c0,3.866-3.135,7.104-7,7.104
	c-3.866,0-7.104-3.134-7.104-7c0-3.865,3.134-7.104,7-7.104l0,0C305.567,422.218,308.806,425.353,308.806,429.218z M327.403,429.218
	c0,3.866-3.134,7.104-7,7.104c-3.865,0-7.104-3.134-7.104-7c0-3.865,3.135-7.104,7-7.104l0,0
	C324.269,422.218,327.403,425.353,327.403,429.218L327.403,429.218z M346,429.218c0,3.866-3.135,7.104-7,7.104
	c-3.866,0-7.104-3.134-7.104-7c0-3.865,3.134-7.104,7-7.104l0,0C342.865,422.218,346,425.353,346,429.218L346,429.218z
	 M323.746,356.397l-13.479,34.06l-13.164-5.12L323.746,356.397z M301.701,412.293l13.478-34.06l13.06,5.12L301.701,412.293z"/>
</svg>
