<?xml version="1.0" encoding="utf-8"?>
<!-- Generator: Adobe Illustrator 16.0.0, SVG Export Plug-In . SVG Version: 6.00 Build 0)  -->
<!DOCTYPE svg PUBLIC "-//W3C//DTD SVG 1.1//EN" "http://www.w3.org/Graphics/SVG/1.1/DTD/svg11.dtd">
<svg version="1.1" id="图层_1" xmlns="http://www.w3.org/2000/svg" xmlns:xlink="http://www.w3.org/1999/xlink" x="0px" y="0px"
	 width="80px" height="14.829px" viewBox="266 388.585 80 14.829" enable-background="new 266 388.585 80 14.829"
	 xml:space="preserve">
<path id="形状_4" fill="#FFFFFF" d="M287.854,388.878l-7.708,1.756c-0.39,0.098-0.585,0.488-0.488,0.781
	c0.098,0.292,0.293,0.488,0.585,0.488l8.098,1.268c0.585,0.098,1.17,0.098,1.756,0.098h40.779c0.879,0,1.563-0.683,1.563-1.561
	v-1.561c0-0.878-0.684-1.561-1.563-1.561h-40.486C289.512,388.585,288.732,388.683,287.854,388.878z M341.903,403.414h-71.804
	c-2.342-0.097-4.098-1.95-4.098-4.292c0.097-2.244,1.854-4,4.098-4.098h71.804c2.342,0.098,4.098,1.952,4.098,4.293
	C345.903,401.561,344.147,403.414,341.903,403.414z"/>
</svg>
