<?xml version="1.0" encoding="utf-8"?>
<!-- Generator: Adobe Illustrator 26.0.0, SVG Export Plug-In . SVG Version: 6.00 Build 0)  -->
<svg version="1.1" id="图层_1" xmlns="http://www.w3.org/2000/svg" xmlns:xlink="http://www.w3.org/1999/xlink" x="0px" y="0px"
	 viewBox="0 0 38 38" style="enable-background:new 0 0 38 38;" xml:space="preserve">
<style type="text/css">
	.st0{fill:#FFFFFF;}
</style>
<g>
	<g>
		<g>
			<g>
				<path class="st0" d="M19.6,15c2.3,0,4.2,1.9,4.2,4.2s-1.9,4.2-4.2,4.2s-4.2-1.9-4.2-4.2S17.3,15,19.6,15 M19.6,14.4
					c-2.7,0-4.8,2.2-4.8,4.8s2.2,4.8,4.8,4.8s4.8-2.2,4.8-4.8S22.3,14.4,19.6,14.4L19.6,14.4z"/>
			</g>
		</g>
	</g>
	<g>
		<g>
			<g>
				<path class="st0" d="M19.6,4.4c2.3,0,4.2,1.9,4.2,4.2s-1.9,4.2-4.2,4.2s-4.2-1.9-4.2-4.2S17.3,4.4,19.6,4.4 M19.6,3.8
					c-2.7,0-4.8,2.2-4.8,4.8s2.2,4.8,4.8,4.8s4.8-2.2,4.8-4.8S22.3,3.8,19.6,3.8L19.6,3.8z"/>
			</g>
		</g>
	</g>
	<g>
		<g>
			<g>
				<path class="st0" d="M19.6,25.6c2.3,0,4.2,1.9,4.2,4.2s-1.9,4.2-4.2,4.2s-4.2-1.9-4.2-4.2S17.3,25.6,19.6,25.6 M19.6,25
					c-2.7,0-4.8,2.2-4.8,4.8s2.2,4.8,4.8,4.8s4.8-2.2,4.8-4.8S22.3,25,19.6,25L19.6,25z"/>
			</g>
		</g>
	</g>
</g>
<g>
	<g>
		<path class="st0" d="M21.9,37.7H10.7V7.5c0-3.7,3-6.7,6.7-6.7h11.2V31C28.6,34.7,25.6,37.7,21.9,37.7z M12.2,36.2h9.7
			c2.9,0,5.3-2.4,5.3-5.3V2.2h-9.7c-2.9,0-5.3,2.4-5.3,5.3V36.2z"/>
	</g>
</g>
</svg>
