<?xml version="1.0" encoding="utf-8"?>
<!-- Generator: Adobe Illustrator 23.0.0, SVG Export Plug-In . SVG Version: 6.00 Build 0)  -->
<svg version="1.1" id="图层_1" xmlns="http://www.w3.org/2000/svg" xmlns:xlink="http://www.w3.org/1999/xlink" x="0px" y="0px"
	 viewBox="0 0 37.98 37.98" style="enable-background:new 0 0 37.98 37.98;" xml:space="preserve">
<style type="text/css">
	.st0{fill:#FFFFFF;}
	.st1{fill:none;stroke:#FFFFFF;stroke-width:0.9441;stroke-linecap:round;stroke-miterlimit:10;}
	.st2{fill:none;stroke:#FFFFFF;stroke-width:1.3139;stroke-miterlimit:10;}
	.st3{fill:none;stroke:#FFFFFF;stroke-width:1.3906;stroke-miterlimit:10;}
	.st4{fill:none;stroke:#FFFFFF;stroke-width:0.5226;stroke-miterlimit:10;}
	.st5{fill:none;stroke:#FFFFFF;stroke-width:0.9441;stroke-miterlimit:10;}
	.st6{fill:none;stroke:#FFFFFF;stroke-width:0.5915;stroke-miterlimit:10;}
	.st7{fill:#FFFFFF;stroke:#FFFFFF;stroke-width:0;stroke-miterlimit:10;}
	.st8{fill:none;stroke:#FFFFFF;stroke-miterlimit:10;}
	.st9{fill:none;stroke:#FFFFFF;stroke-linecap:round;stroke-linejoin:round;stroke-miterlimit:10;}
	.st10{fill:none;stroke:#FFFFFF;stroke-width:1.3906;stroke-linecap:round;stroke-miterlimit:10;}
	.st11{fill-rule:evenodd;clip-rule:evenodd;fill:none;stroke:#FFFFFF;stroke-width:1.3906;stroke-miterlimit:10;}
	.st12{fill-rule:evenodd;clip-rule:evenodd;fill:none;stroke:#FFFFFF;stroke-width:0.9441;stroke-miterlimit:10;}
	.st13{fill-rule:evenodd;clip-rule:evenodd;fill:none;stroke:#FFFFFF;stroke-width:0.5915;stroke-miterlimit:10;}
	.st14{fill:none;stroke:#FFFFFF;stroke-width:1.4964;stroke-miterlimit:10;}
	.st15{fill:none;stroke:#FFFFFF;stroke-width:1.4979;stroke-linecap:round;stroke-miterlimit:10;}
	.st16{fill:none;stroke:#FFFFFF;stroke-width:0.4896;stroke-miterlimit:10;}
	.st17{fill:none;stroke:#FFFFFF;stroke-width:0.5515;stroke-miterlimit:10;}
	.st18{fill-rule:evenodd;clip-rule:evenodd;fill:none;stroke:#FFFFFF;stroke-width:1.8871;stroke-miterlimit:10;}
	.st19{fill:none;stroke:#FFFFFF;stroke-width:1.3098;stroke-miterlimit:10;}
	.st20{fill:none;stroke:#FFFFFF;stroke-width:1.8871;stroke-linecap:round;stroke-miterlimit:10;}
	.st21{fill-rule:evenodd;clip-rule:evenodd;fill:none;stroke:#FFFFFF;stroke-width:0.6173;stroke-miterlimit:10;}
	.st22{fill-rule:evenodd;clip-rule:evenodd;fill:none;stroke:#FFFFFF;stroke-width:0.3868;stroke-miterlimit:10;}
	.st23{fill:none;stroke:#FFFFFF;stroke-width:1.6605;stroke-miterlimit:10;}
	.st24{fill-rule:evenodd;clip-rule:evenodd;fill:none;stroke:#FFFFFF;stroke-width:1.4489;stroke-miterlimit:10;}
	.st25{fill-rule:evenodd;clip-rule:evenodd;fill:none;stroke:#FFFFFF;stroke-width:0.9077;stroke-miterlimit:10;}
	.st26{fill:none;stroke:#FFFFFF;stroke-width:0.0145;stroke-miterlimit:10;}
	.st27{fill:none;stroke:#FFFFFF;stroke-width:1.1586;stroke-miterlimit:10;}
	.st28{fill:none;stroke:#FFFFFF;stroke-width:1.3665;stroke-miterlimit:10;}
	.st29{fill:none;stroke:#FFFFFF;stroke-width:1.5609;stroke-miterlimit:10;}
	.st30{fill:none;stroke:#FFFFFF;stroke-width:1.6987;stroke-miterlimit:10;}
	.st31{fill:#221814;stroke:#FFFFFF;stroke-miterlimit:10;}
	.st32{fill:none;stroke:#FFFFFF;stroke-width:1.6838;stroke-miterlimit:10;}
	.st33{fill:none;stroke:#FFFFFF;stroke-width:1.2082;stroke-miterlimit:10;}
	.st34{fill:none;stroke:#FFFFFF;stroke-width:1.1058;stroke-miterlimit:10;}
</style>
<g>
	<path class="st0" d="M18.99,1.49c5.67,0,10.28,4.61,10.28,10.28V26.2c0,5.67-4.61,10.28-10.28,10.28S8.71,31.87,8.71,26.2V11.77
		C8.71,6.1,13.32,1.49,18.99,1.49 M18.99,0.1c-6.45,0-11.67,5.23-11.67,11.67V26.2c0,6.45,5.23,11.67,11.67,11.67
		s11.67-5.23,11.67-11.67V11.77C30.66,5.33,25.44,0.1,18.99,0.1L18.99,0.1z"/>
</g>
<g>
	<g>
		<path class="st0" d="M18.99,3.88c4.35,0,7.89,3.54,7.89,7.89V26.2c0,4.35-3.54,7.89-7.89,7.89c-4.35,0-7.89-3.54-7.89-7.89V11.77
			C11.09,7.42,14.64,3.88,18.99,3.88 M18.99,2.93c-4.88,0-8.84,3.96-8.84,8.84V26.2c0,4.88,3.96,8.84,8.84,8.84
			c4.88,0,8.84-3.96,8.84-8.84V11.77C27.83,6.89,23.87,2.93,18.99,2.93L18.99,2.93z"/>
	</g>
</g>
<g>
	<g>
		<path class="st0" d="M18.99,6.76c2.34,0,4.24,1.9,4.24,4.24s-1.9,4.24-4.24,4.24s-4.24-1.9-4.24-4.24S16.65,6.76,18.99,6.76
			 M18.99,6.16c-2.67,0-4.83,2.16-4.83,4.83s2.16,4.83,4.83,4.83s4.83-2.16,4.83-4.83S21.66,6.16,18.99,6.16L18.99,6.16z"/>
	</g>
</g>
<g>
	<g>
		<path class="st0" d="M18.99,22.78c2.34,0,4.24,1.9,4.24,4.24s-1.9,4.24-4.24,4.24s-4.24-1.9-4.24-4.24S16.65,22.78,18.99,22.78
			 M18.99,22.19c-2.67,0-4.83,2.16-4.83,4.83s2.16,4.83,4.83,4.83s4.83-2.16,4.83-4.83S21.66,22.19,18.99,22.19L18.99,22.19z"/>
	</g>
</g>
</svg>
