<?xml version="1.0" encoding="utf-8"?>
<!-- Generator: Adobe Illustrator 23.0.0, SVG Export Plug-In . SVG Version: 6.00 Build 0)  -->
<svg version="1.1" id="图层_1" xmlns="http://www.w3.org/2000/svg" xmlns:xlink="http://www.w3.org/1999/xlink" x="0px" y="0px"
	 viewBox="0 0 37.98 37.98" style="enable-background:new 0 0 37.98 37.98;" xml:space="preserve">
<style type="text/css">
	.st0{fill:#FFFFFF;}
	.st1{fill:none;stroke:#FFFFFF;stroke-width:0.9441;stroke-linecap:round;stroke-miterlimit:10;}
	.st2{fill:none;stroke:#FFFFFF;stroke-width:1.3139;stroke-miterlimit:10;}
	.st3{fill:none;stroke:#FFFFFF;stroke-width:1.3906;stroke-miterlimit:10;}
	.st4{fill:none;stroke:#FFFFFF;stroke-width:0.5226;stroke-miterlimit:10;}
	.st5{fill:none;stroke:#FFFFFF;stroke-width:0.9441;stroke-miterlimit:10;}
	.st6{fill:none;stroke:#FFFFFF;stroke-width:0.5915;stroke-miterlimit:10;}
	.st7{fill:#FFFFFF;stroke:#FFFFFF;stroke-width:0;stroke-miterlimit:10;}
	.st8{fill:none;stroke:#FFFFFF;stroke-miterlimit:10;}
	.st9{fill:none;stroke:#FFFFFF;stroke-linecap:round;stroke-linejoin:round;stroke-miterlimit:10;}
	.st10{fill:none;stroke:#FFFFFF;stroke-width:1.3906;stroke-linecap:round;stroke-miterlimit:10;}
	.st11{fill-rule:evenodd;clip-rule:evenodd;fill:none;stroke:#FFFFFF;stroke-width:1.3906;stroke-miterlimit:10;}
	.st12{fill-rule:evenodd;clip-rule:evenodd;fill:none;stroke:#FFFFFF;stroke-width:0.9441;stroke-miterlimit:10;}
	.st13{fill-rule:evenodd;clip-rule:evenodd;fill:none;stroke:#FFFFFF;stroke-width:0.5915;stroke-miterlimit:10;}
	.st14{fill:none;stroke:#FFFFFF;stroke-width:1.4964;stroke-miterlimit:10;}
	.st15{fill:none;stroke:#FFFFFF;stroke-width:1.4979;stroke-linecap:round;stroke-miterlimit:10;}
	.st16{fill:none;stroke:#FFFFFF;stroke-width:0.4896;stroke-miterlimit:10;}
	.st17{fill:none;stroke:#FFFFFF;stroke-width:0.5515;stroke-miterlimit:10;}
	.st18{fill-rule:evenodd;clip-rule:evenodd;fill:none;stroke:#FFFFFF;stroke-width:1.8871;stroke-miterlimit:10;}
	.st19{fill:none;stroke:#FFFFFF;stroke-width:1.3098;stroke-miterlimit:10;}
	.st20{fill:none;stroke:#FFFFFF;stroke-width:1.8871;stroke-linecap:round;stroke-miterlimit:10;}
	.st21{fill-rule:evenodd;clip-rule:evenodd;fill:none;stroke:#FFFFFF;stroke-width:0.6173;stroke-miterlimit:10;}
	.st22{fill-rule:evenodd;clip-rule:evenodd;fill:none;stroke:#FFFFFF;stroke-width:0.3868;stroke-miterlimit:10;}
	.st23{fill:none;stroke:#FFFFFF;stroke-width:1.6605;stroke-miterlimit:10;}
	.st24{fill-rule:evenodd;clip-rule:evenodd;fill:none;stroke:#FFFFFF;stroke-width:1.4489;stroke-miterlimit:10;}
	.st25{fill-rule:evenodd;clip-rule:evenodd;fill:none;stroke:#FFFFFF;stroke-width:0.9077;stroke-miterlimit:10;}
	.st26{fill:none;stroke:#FFFFFF;stroke-width:0.0145;stroke-miterlimit:10;}
	.st27{fill:none;stroke:#FFFFFF;stroke-width:1.1586;stroke-miterlimit:10;}
	.st28{fill:none;stroke:#FFFFFF;stroke-width:1.3665;stroke-miterlimit:10;}
	.st29{fill:none;stroke:#FFFFFF;stroke-width:1.5609;stroke-miterlimit:10;}
	.st30{fill:none;stroke:#FFFFFF;stroke-width:1.6987;stroke-miterlimit:10;}
	.st31{fill:#221814;stroke:#FFFFFF;stroke-miterlimit:10;}
	.st32{fill:none;stroke:#FFFFFF;stroke-width:1.6838;stroke-miterlimit:10;}
	.st33{fill:none;stroke:#FFFFFF;stroke-width:1.2082;stroke-miterlimit:10;}
	.st34{fill:none;stroke:#FFFFFF;stroke-width:1.1058;stroke-miterlimit:10;}
</style>
<path class="st3" d="M27.04,35.68h-16.1c-4.77,0-8.64-3.87-8.64-8.64v-16.1c0-4.77,3.87-8.64,8.64-8.64h16.1
	c4.77,0,8.64,3.87,8.64,8.64v16.1C35.68,31.81,31.81,35.68,27.04,35.68z"/>
<path class="st4" d="M26.9,33.03H11.08c-3.39,0-6.13-2.75-6.13-6.13V11.08c0-3.39,2.75-6.13,6.13-6.13H26.9
	c3.39,0,6.13,2.75,6.13,6.13V26.9C33.03,30.29,30.29,33.03,26.9,33.03z"/>
<g>
	<g>
		<g>
			<path class="st0" d="M12.84,7.29c2.78,0,5.04,2.26,5.04,5.04s-2.26,5.04-5.04,5.04S7.8,15.11,7.8,12.33S10.07,7.29,12.84,7.29
				 M12.84,6.59c-3.17,0-5.74,2.57-5.74,5.74s2.57,5.74,5.74,5.74s5.74-2.57,5.74-5.74S16.02,6.59,12.84,6.59L12.84,6.59z"/>
		</g>
	</g>
	<g>
		<g>
			<path class="st0" d="M12.84,20.61c2.78,0,5.04,2.26,5.04,5.04c0,2.78-2.26,5.04-5.04,5.04S7.8,28.43,7.8,25.65
				C7.8,22.87,10.07,20.61,12.84,20.61 M12.84,19.91c-3.17,0-5.74,2.57-5.74,5.74c0,3.17,2.57,5.74,5.74,5.74s5.74-2.57,5.74-5.74
				C18.59,22.48,16.02,19.91,12.84,19.91L12.84,19.91z"/>
		</g>
	</g>
	<g>
		<g>
			<path class="st0" d="M25.13,13.95c2.78,0,5.04,2.26,5.04,5.04s-2.26,5.04-5.04,5.04s-5.04-2.26-5.04-5.04
				S22.36,13.95,25.13,13.95 M25.13,13.25c-3.17,0-5.74,2.57-5.74,5.74s2.57,5.74,5.74,5.74c3.17,0,5.74-2.57,5.74-5.74
				S28.31,13.25,25.13,13.25L25.13,13.25z"/>
		</g>
	</g>
</g>
</svg>
