<svg xmlns="http://www.w3.org/2000/svg" xmlns:xlink="http://www.w3.org/1999/xlink" viewBox="0 0 32 32"><defs><style>.cls-1{fill:none;}.cls-2{clip-path:url(#clip-path);}.cls-3{clip-path:url(#clip-path-2);}.cls-4{fill:#8c100a;}.cls-5{fill:#c72d02;}</style><clipPath id="clip-path"><circle class="cls-1" cx="16" cy="16" r="16"/></clipPath><clipPath id="clip-path-2"><rect class="cls-1" width="32" height="32"/></clipPath></defs><title>红橙斜纹</title><g id="图层_2" data-name="图层 2"><g id="图层_1-2" data-name="图层 1"><g class="cls-2"><g class="cls-3"><rect class="cls-4" y="28" width="4" height="4"/><rect class="cls-5" y="20" width="4" height="8"/><rect class="cls-5" x="4" y="24" width="4" height="8"/><rect class="cls-5" x="8" y="28" width="4" height="4"/><rect class="cls-5" y="4" width="4" height="8"/><rect class="cls-5" x="4" y="8" width="4" height="8"/><rect class="cls-4" y="12" width="4" height="8"/><rect class="cls-4" x="4" y="16" width="4" height="8"/><rect class="cls-4" x="8" y="20" width="4" height="8"/><rect class="cls-5" x="8" y="12" width="4" height="8"/><rect class="cls-5" x="12" y="16" width="4" height="8"/><rect class="cls-5" x="16" y="20" width="4" height="8"/><rect class="cls-5" x="20" y="24" width="4" height="8"/><rect class="cls-4" x="12" y="24" width="4" height="8"/><rect class="cls-4" x="16" y="28" width="4" height="4"/><rect class="cls-4" x="4" width="4" height="8"/><rect class="cls-4" width="4" height="4"/><rect class="cls-4" x="8" y="4" width="4" height="8"/><rect class="cls-5" x="8" width="4" height="4"/><rect class="cls-5" x="12" width="4" height="8"/><rect class="cls-5" x="16" y="4" width="4" height="8"/><rect class="cls-4" x="12" y="8" width="4" height="8"/><rect class="cls-4" x="16" y="12" width="4" height="8"/><rect class="cls-4" x="20" y="16" width="4" height="8"/><rect class="cls-5" x="20" y="8" width="4" height="8"/><rect class="cls-5" x="24" y="12" width="4" height="8"/><rect class="cls-5" x="28" y="16" width="4" height="8"/><rect class="cls-4" x="24" y="20" width="4" height="8"/><rect class="cls-4" x="16" width="4" height="4"/><rect class="cls-5" x="24" width="4" height="4"/><rect class="cls-4" x="20" width="4" height="8"/><rect class="cls-4" x="24" y="4" width="4" height="8"/><rect class="cls-4" x="28" y="8" width="4" height="8"/><rect class="cls-5" x="28" width="4" height="8"/><rect class="cls-5" x="24" y="28" width="4" height="4"/><rect class="cls-4" x="28" y="24" width="4" height="8"/></g></g></g></g></svg>