<?xml version="1.0" encoding="utf-8"?>
<!-- Generator: Adobe Illustrator 23.0.0, SVG Export Plug-In . SVG Version: 6.00 Build 0)  -->
<svg version="1.1" id="图层_1" xmlns="http://www.w3.org/2000/svg" xmlns:xlink="http://www.w3.org/1999/xlink" x="0px" y="0px"
	 viewBox="0 0 37.98 37.98" style="enable-background:new 0 0 37.98 37.98;" xml:space="preserve">
<style type="text/css">
	.st0{clip-path:url(#SVGID_2_);}
	.st1{fill:none;stroke:#000000;stroke-width:0.1574;stroke-linejoin:round;stroke-miterlimit:10;}
	.st2{fill:none;stroke:#000000;stroke-width:0.9441;stroke-linecap:round;stroke-miterlimit:10;}
	.st3{fill:none;stroke:#000000;stroke-width:1.3139;stroke-miterlimit:10;}
	.st4{fill:none;stroke:#000000;stroke-width:1.3906;stroke-miterlimit:10;}
	.st5{fill:none;stroke:#000000;stroke-width:0.5226;stroke-miterlimit:10;}
	.st6{fill:none;stroke:#000000;stroke-width:0.9441;stroke-miterlimit:10;}
	.st7{fill:none;stroke:#000000;stroke-width:0.5915;stroke-miterlimit:10;}
	.st8{fill:none;stroke:#000000;stroke-miterlimit:10;}
	.st9{fill:none;stroke:#000000;stroke-linecap:round;stroke-linejoin:round;stroke-miterlimit:10;}
	.st10{fill:none;stroke:#000000;stroke-width:1.3906;stroke-linecap:round;stroke-miterlimit:10;}
	.st11{fill-rule:evenodd;clip-rule:evenodd;fill:none;stroke:#000000;stroke-width:1.3906;stroke-miterlimit:10;}
	.st12{fill-rule:evenodd;clip-rule:evenodd;fill:none;stroke:#000000;stroke-width:0.9441;stroke-miterlimit:10;}
	.st13{fill-rule:evenodd;clip-rule:evenodd;fill:none;stroke:#000000;stroke-width:0.5915;stroke-miterlimit:10;}
	.st14{fill:none;stroke:#000000;stroke-width:1.4964;stroke-miterlimit:10;}
	.st15{fill:none;stroke:#000000;stroke-width:1.4979;stroke-linecap:round;stroke-miterlimit:10;}
	.st16{fill:none;stroke:#000000;stroke-width:0.4896;stroke-miterlimit:10;}
	.st17{fill:none;stroke:#000000;stroke-width:0.5515;stroke-miterlimit:10;}
	.st18{fill-rule:evenodd;clip-rule:evenodd;fill:none;stroke:#FFFFFF;stroke-width:1.8871;stroke-miterlimit:10;}
	.st19{fill:none;stroke:#FFFFFF;stroke-width:1.3098;stroke-miterlimit:10;}
	.st20{fill-rule:evenodd;clip-rule:evenodd;fill:none;stroke:#000000;stroke-width:1.8871;stroke-miterlimit:10;}
	.st21{fill:none;stroke:#000000;stroke-width:1.3098;stroke-miterlimit:10;}
	.st22{fill:none;stroke:#000000;stroke-width:1.8871;stroke-linecap:round;stroke-miterlimit:10;}
	.st23{fill-rule:evenodd;clip-rule:evenodd;fill:none;stroke:#000000;stroke-width:0.6173;stroke-miterlimit:10;}
	.st24{fill-rule:evenodd;clip-rule:evenodd;fill:none;stroke:#000000;stroke-width:0.3868;stroke-miterlimit:10;}
	.st25{fill:none;stroke:#000000;stroke-width:1.6605;stroke-miterlimit:10;}
	.st26{fill-rule:evenodd;clip-rule:evenodd;fill:none;stroke:#000000;stroke-width:1.4489;stroke-miterlimit:10;}
	.st27{fill-rule:evenodd;clip-rule:evenodd;fill:none;stroke:#000000;stroke-width:0.9077;stroke-miterlimit:10;}
	.st28{fill:none;stroke:#000000;stroke-width:0.0145;stroke-miterlimit:10;}
	.st29{fill:none;stroke:#000000;stroke-width:1.1586;stroke-miterlimit:10;}
	.st30{fill:none;stroke:#000000;stroke-width:1.3665;stroke-miterlimit:10;}
	.st31{fill:none;stroke:#000000;stroke-width:1.5609;stroke-miterlimit:10;}
	.st32{fill:none;stroke:#000000;stroke-width:1.6987;stroke-miterlimit:10;}
	.st33{fill:none;stroke:#FFFFFF;stroke-width:1.3906;stroke-linecap:round;stroke-miterlimit:10;}
	.st34{fill:#221814;}
	.st35{fill:none;}
	.st36{fill:none;stroke:#FFFFFF;stroke-width:1.3906;stroke-miterlimit:10;}
	.st37{fill:none;stroke:#FFFFFF;stroke-width:1.6838;stroke-miterlimit:10;}
	.st38{fill:#FFFFFF;}
	.st39{fill:none;stroke:#000000;stroke-width:1.6838;stroke-miterlimit:10;}
	.st40{fill:none;stroke:#000000;stroke-width:1.2082;stroke-miterlimit:10;}
	.st41{fill:none;stroke:#000000;stroke-width:1.1058;stroke-miterlimit:10;}
	.st42{fill:none;stroke:#000000;stroke-width:1.391;stroke-linejoin:round;stroke-miterlimit:10;}
	.st43{fill:none;stroke:#000000;stroke-width:1.3476;stroke-linejoin:round;stroke-miterlimit:10;}
	.st44{fill:none;stroke:#FFFFFF;stroke-width:1.4997;stroke-linejoin:round;stroke-miterlimit:10;}
	.st45{fill:none;stroke:#FFFFFF;stroke-width:1.6438;stroke-miterlimit:10;}
	.st46{fill:none;stroke:#FFFFFF;stroke-width:1.3683;stroke-miterlimit:10;}
	.st47{fill:none;stroke:#000000;stroke-width:1.4997;stroke-linejoin:round;stroke-miterlimit:10;}
	.st48{fill:none;stroke:#000000;stroke-width:1.6438;stroke-miterlimit:10;}
	.st49{fill:none;stroke:#000000;stroke-width:1.3683;stroke-miterlimit:10;}
</style>
<g>
	<defs>
		<path id="SVGID_1_" d="M-61.76-79.96c0,8.48-6.87,15.35-15.35,15.35s-15.35-6.87-15.35-15.35s6.87-15.35,15.35-15.35
			S-61.76-88.43-61.76-79.96z M-77.11-92.25c-6.79,0-12.3,5.51-12.3,12.3c0,6.79,5.51,12.3,12.3,12.3s12.3-5.51,12.3-12.3
			C-64.81-86.75-70.32-92.25-77.11-92.25z"/>
	</defs>
	<clipPath id="SVGID_2_">
		<use xlink:href="#SVGID_1_"  style="overflow:visible;"/>
	</clipPath>
	<g class="st0">
		<line class="st1" x1="-104.45" y1="5.98" x2="9.87" y2="-108.34"/>
		<line class="st1" x1="-105.17" y1="5.26" x2="9.16" y2="-109.06"/>
		<line class="st1" x1="-105.88" y1="4.55" x2="8.44" y2="-109.78"/>
		<line class="st1" x1="-106.6" y1="3.83" x2="7.72" y2="-110.49"/>
		<line class="st1" x1="-107.32" y1="3.11" x2="7" y2="-111.21"/>
		<line class="st1" x1="-108.04" y1="2.39" x2="6.28" y2="-111.93"/>
		<line class="st1" x1="-108.76" y1="1.67" x2="5.56" y2="-112.65"/>
		<line class="st1" x1="-109.48" y1="0.95" x2="4.84" y2="-113.37"/>
		<line class="st1" x1="-110.2" y1="0.23" x2="4.12" y2="-114.09"/>
	</g>
</g>
<g>
	<polyline class="st36" points="2.87,24.88 5.56,26.81 8.24,24.88 10.92,26.81 13.61,24.88 16.29,26.81 18.97,24.88 21.66,26.81 
		24.35,24.88 27.03,26.81 29.72,24.88 32.41,26.81 35.11,24.88 	"/>
</g>
<g>
	<polyline class="st36" points="2.87,27.95 5.56,29.88 8.24,27.95 10.92,29.88 13.61,27.95 16.29,29.88 18.97,27.95 21.66,29.88 
		24.35,27.95 27.03,29.88 29.72,27.95 32.41,29.88 35.11,27.95 	"/>
</g>
<g>
	<g>
		<polyline class="st37" points="9.1,10.72 23.55,22.77 31.93,13.84 		"/>
		<g>
			<polygon class="st38" points="35.11,10.46 32.58,17.05 31.7,14.09 28.69,13.39 			"/>
		</g>
	</g>
</g>
<g>
	<g>
		<polyline class="st37" points="2.87,14.34 13.44,22.77 23.9,11.62 		"/>
		<g>
			<polygon class="st38" points="27.08,8.24 24.55,14.83 23.67,11.88 20.66,11.18 			"/>
		</g>
	</g>
</g>
</svg>
