<?xml version="1.0" encoding="utf-8"?>
<!-- Generator: Adobe Illustrator 23.0.0, SVG Export Plug-In . SVG Version: 6.00 Build 0)  -->
<svg version="1.1" id="图层_1" xmlns="http://www.w3.org/2000/svg" xmlns:xlink="http://www.w3.org/1999/xlink" x="0px" y="0px"
	 viewBox="0 0 37.98 37.98" style="enable-background:new 0 0 37.98 37.98;" xml:space="preserve">
<style type="text/css">
	.st0{fill:#FFFFFF;}
	.st1{fill:none;stroke:#FFFFFF;stroke-width:0.9441;stroke-linecap:round;stroke-miterlimit:10;}
	.st2{fill:none;stroke:#FFFFFF;stroke-width:1.3139;stroke-miterlimit:10;}
	.st3{fill:none;stroke:#FFFFFF;stroke-width:1.3906;stroke-miterlimit:10;}
	.st4{fill:none;stroke:#FFFFFF;stroke-width:0.5226;stroke-miterlimit:10;}
	.st5{fill:none;stroke:#FFFFFF;stroke-width:0.9441;stroke-miterlimit:10;}
	.st6{fill:none;stroke:#FFFFFF;stroke-width:0.5915;stroke-miterlimit:10;}
	.st7{fill:#FFFFFF;stroke:#FFFFFF;stroke-width:0;stroke-miterlimit:10;}
	.st8{fill:none;stroke:#FFFFFF;stroke-miterlimit:10;}
	.st9{fill:none;stroke:#FFFFFF;stroke-linecap:round;stroke-linejoin:round;stroke-miterlimit:10;}
	.st10{fill:none;stroke:#FFFFFF;stroke-width:1.3906;stroke-linecap:round;stroke-miterlimit:10;}
	.st11{fill-rule:evenodd;clip-rule:evenodd;fill:none;stroke:#FFFFFF;stroke-width:1.3906;stroke-miterlimit:10;}
	.st12{fill-rule:evenodd;clip-rule:evenodd;fill:none;stroke:#FFFFFF;stroke-width:0.9441;stroke-miterlimit:10;}
	.st13{fill-rule:evenodd;clip-rule:evenodd;fill:none;stroke:#FFFFFF;stroke-width:0.5915;stroke-miterlimit:10;}
	.st14{fill:none;stroke:#FFFFFF;stroke-width:1.4964;stroke-miterlimit:10;}
	.st15{fill:none;stroke:#FFFFFF;stroke-width:1.4979;stroke-linecap:round;stroke-miterlimit:10;}
	.st16{fill:none;stroke:#FFFFFF;stroke-width:0.4896;stroke-miterlimit:10;}
	.st17{fill:none;stroke:#FFFFFF;stroke-width:0.5515;stroke-miterlimit:10;}
	.st18{fill-rule:evenodd;clip-rule:evenodd;fill:none;stroke:#FFFFFF;stroke-width:1.8871;stroke-miterlimit:10;}
	.st19{fill:none;stroke:#FFFFFF;stroke-width:1.3098;stroke-miterlimit:10;}
	.st20{fill:none;stroke:#FFFFFF;stroke-width:1.8871;stroke-linecap:round;stroke-miterlimit:10;}
	.st21{fill-rule:evenodd;clip-rule:evenodd;fill:none;stroke:#FFFFFF;stroke-width:0.6173;stroke-miterlimit:10;}
	.st22{fill-rule:evenodd;clip-rule:evenodd;fill:none;stroke:#FFFFFF;stroke-width:0.3868;stroke-miterlimit:10;}
	.st23{fill:none;stroke:#FFFFFF;stroke-width:1.6605;stroke-miterlimit:10;}
	.st24{fill-rule:evenodd;clip-rule:evenodd;fill:none;stroke:#FFFFFF;stroke-width:1.4489;stroke-miterlimit:10;}
	.st25{fill-rule:evenodd;clip-rule:evenodd;fill:none;stroke:#FFFFFF;stroke-width:0.9077;stroke-miterlimit:10;}
	.st26{fill:none;stroke:#FFFFFF;stroke-width:0.0145;stroke-miterlimit:10;}
	.st27{font-family:'SourceHanSansCN-Bold-GBpc-EUC-H';}
	.st28{font-size:9.5533px;}
	.st29{fill:none;stroke:#FFFFFF;stroke-width:1.1586;stroke-miterlimit:10;}
	.st30{fill:none;stroke:#FFFFFF;stroke-width:1.3665;stroke-miterlimit:10;}
	.st31{fill:none;stroke:#FFFFFF;stroke-width:1.5609;stroke-miterlimit:10;}
	.st32{fill:none;stroke:#FFFFFF;stroke-width:1.6987;stroke-miterlimit:10;}
	.st33{fill:#221814;stroke:#FFFFFF;stroke-miterlimit:10;}
	.st34{fill:none;stroke:#FFFFFF;stroke-width:1.6838;stroke-miterlimit:10;}
	.st35{fill:none;stroke:#FFFFFF;stroke-width:1.2082;stroke-miterlimit:10;}
	.st36{fill:none;stroke:#FFFFFF;stroke-width:1.1058;stroke-miterlimit:10;}
</style>
<g>
	<g>
		<path class="st0" d="M4.91,23.35c-0.55,0.92-1.01,1.95-1.03,2.88c0,0.46,0.11,0.87,0.42,1.15c0.1,0.18,0.33,0.26,0.5,0.39
			c0.21,0.1,0.44,0.17,0.67,0.25c0.98,0.23,2.1,0.16,3.19-0.02c1.09-0.17,2.18-0.46,3.25-0.82c4.28-1.44,8.3-3.69,12.01-6.31
			c1.85-1.32,3.62-2.77,5.24-4.36c1.61-1.59,3.13-3.33,4.12-5.34c0.47-0.99,0.79-2.16,0.34-3.11c-0.44-0.98-1.67-1.29-2.75-1.35
			c-2.26-0.06-4.5,0.59-6.64,1.36l-0.08-0.2c2.14-0.82,4.38-1.52,6.73-1.51c0.59,0.02,1.18,0.1,1.75,0.32
			c0.56,0.22,1.11,0.61,1.37,1.19c0.57,1.17,0.19,2.46-0.27,3.51c-1,2.13-2.51,3.93-4.12,5.58c-1.62,1.65-3.39,3.15-5.24,4.53
			c-3.71,2.74-7.73,5.11-12.13,6.68c-1.1,0.39-2.23,0.72-3.4,0.92c-1.16,0.21-2.38,0.34-3.64,0.07C4.89,29.09,4.57,29,4.27,28.85
			c-0.3-0.19-0.62-0.33-0.85-0.64c-0.55-0.51-0.78-1.3-0.78-1.97c0.01-1.38,0.56-2.51,1.14-3.56L4.91,23.35z"/>
		<g>
			<polygon class="st0" points="1.68,23.15 3.97,23.64 5.21,25.64 6.4,20.2 			"/>
		</g>
	</g>
</g>
<g>
	<g>
		<path class="st0" d="M33.57,22.69c0.58,1.05,1.13,2.18,1.14,3.56c0,0.67-0.23,1.46-0.78,1.97c-0.23,0.3-0.56,0.45-0.85,0.64
			c-0.31,0.14-0.63,0.24-0.94,0.33c-1.27,0.26-2.48,0.14-3.64-0.07c-1.17-0.21-2.3-0.54-3.4-0.92c-4.39-1.58-8.41-3.94-12.13-6.68
			c-1.85-1.38-3.62-2.88-5.24-4.53c-1.61-1.65-3.12-3.45-4.12-5.58c-0.46-1.04-0.84-2.33-0.27-3.51C3.59,7.3,4.15,6.9,4.7,6.69
			c0.57-0.22,1.16-0.3,1.75-0.32c2.35-0.01,4.59,0.69,6.73,1.51l-0.08,0.2c-2.14-0.77-4.38-1.42-6.64-1.36
			C5.38,6.78,4.15,7.09,3.71,8.07c-0.45,0.95-0.13,2.12,0.34,3.11c0.99,2.01,2.51,3.75,4.12,5.34c1.62,1.59,3.39,3.03,5.24,4.36
			c3.71,2.63,7.73,4.88,12.01,6.31c1.07,0.35,2.16,0.64,3.25,0.82c1.08,0.18,2.21,0.25,3.19,0.02c0.23-0.07,0.46-0.15,0.67-0.25
			c0.17-0.13,0.4-0.22,0.5-0.39c0.31-0.28,0.42-0.69,0.42-1.15c-0.01-0.94-0.48-1.96-1.03-2.88L33.57,22.69z"/>
		<g>
			<polygon class="st0" points="32.12,25.64 33.36,23.64 35.66,23.15 30.94,20.2 			"/>
		</g>
	</g>
</g>
<g>
	<text transform="matrix(1 0 0 1 9.5139 16.9483)" class="st0 st27 st28">360°</text>
</g>
</svg>
