<?xml version="1.0" encoding="utf-8"?>
<!-- Generator: Adobe Illustrator 16.0.0, SVG Export Plug-In . SVG Version: 6.00 Build 0)  -->
<!DOCTYPE svg PUBLIC "-//W3C//DTD SVG 1.1//EN" "http://www.w3.org/Graphics/SVG/1.1/DTD/svg11.dtd">
<svg version="1.1" id="图层_1" xmlns="http://www.w3.org/2000/svg" xmlns:xlink="http://www.w3.org/1999/xlink" x="0px" y="0px"
	 width="150px" height="150px" viewBox="231 321 150 150" enable-background="new 231 321 150 150" xml:space="preserve">
<rect x="231" y="321" fill="none" width="150" height="150"/>
<g>
	<g>
		<path fill="#FFFFFF" d="M307.555,470l-0.94-0.295c-14.713-4.884-58.495-35.25-61.084-66.262
			c-2.354-28.365-1.235-69.969-1.177-70.381l0.059-2.883l2.825,0.647c29.658,6.826,56.846-7.945,57.14-8.062L305.73,322l1.237,1
			c20.302,15.771,57.787,9.121,58.141,9.062l2.707-0.53l0.117,2.767c0.06,2.412,0.236,59.788-1.766,74.146
			c-4.883,34.131-55.61,60.142-57.788,61.26L307.555,470z M249.002,336.005c-0.177,9.886-0.706,43.252,1.295,67.027
			c2.295,27.834,42.546,56.375,56.904,61.789c6.827-3.59,50.079-27.835,54.316-57.2c1.766-12.239,2.179-58.846,1.825-70.615
			c-9.063,1.294-39.017,4.119-57.965-9.475C299.493,330.591,275.719,341.125,249.002,336.005z"/>
	</g>
	<g>
		<path fill="#FFFFFF" d="M336.979,416.331h-37.663c-4.825,0-8.709-3.885-8.709-8.71v-47.96c0-4.826,3.884-8.708,8.709-8.708h37.663
			c4.825,0,8.71,3.883,8.71,8.708v47.96C345.689,412.446,341.804,416.331,336.979,416.331z M299.375,353.306
			c-3.472,0-6.355,2.825-6.355,6.355v47.96c0,3.473,2.825,6.355,6.355,6.355h37.664c3.471,0,6.354-2.824,6.354-6.355v-47.96
			c0-3.471-2.823-6.355-6.354-6.355H299.375z"/>
	</g>
	<g>
		<g>
			<rect x="308.673" y="416.331" fill="#FFFFFF" width="2.354" height="16.653"/>
		</g>
		<g>
			<rect x="325.327" y="416.331" fill="#FFFFFF" width="2.354" height="16.653"/>
		</g>
	</g>
	<g>
		<path fill="#FFFFFF" d="M318.206,385.437c-3.295,0-5.943-2.649-5.943-5.945c0-3.294,2.648-5.944,5.943-5.944
			s5.944,2.65,5.944,5.944C324.151,382.729,321.443,385.437,318.206,385.437z M318.206,375.903c-1.942,0-3.59,1.589-3.59,3.589
			c0,1.942,1.589,3.59,3.59,3.59s3.59-1.589,3.59-3.59C321.738,377.492,320.149,375.903,318.206,375.903z"/>
	</g>
	<g>
		<path fill="#FFFFFF" d="M329.033,397.323h-21.713c-4.826,0-8.71-3.885-8.71-8.71v-19.419c0-4.825,3.884-8.708,8.71-8.708h21.713
			c4.825,0,8.711,3.883,8.711,8.708v19.419C337.744,393.381,333.859,397.323,329.033,397.323z M307.321,362.839
			c-3.473,0-6.357,2.825-6.357,6.355v19.419c0,3.473,2.825,6.356,6.357,6.356h21.713c3.473,0,6.356-2.825,6.356-6.356v-19.419
			c0-3.471-2.825-6.355-6.356-6.355H307.321z"/>
	</g>
	<g>
		<g>
			<path fill="#FFFFFF" d="M265.126,391.321l-1.177-2.06c1.412-0.765,2.294-2.53,2.294-4.473c0-1.941-0.941-3.766-2.354-4.53
				l1.118-2.119c2.237,1.178,3.649,3.766,3.649,6.649C268.598,387.614,267.245,390.143,265.126,391.321z"/>
		</g>
		<g>
			<path fill="#FFFFFF" d="M268.893,396.558l-1.295-2c2.883-1.941,4.708-5.708,4.708-9.769c0-4.177-1.825-7.945-4.768-9.827
				l1.295-2.001c3.649,2.353,5.884,6.885,5.884,11.828C274.659,389.673,272.423,394.205,268.893,396.558z"/>
		</g>
		<g>
			<path fill="#FFFFFF" d="M272.246,401.796l-1.176-2.06c4.708-2.649,7.708-8.474,7.708-14.83c0-6.591-3.177-12.476-8.062-15.007
				l1.119-2.117c5.708,2.942,9.356,9.65,9.356,17.124C281.192,392.086,277.66,398.736,272.246,401.796z"/>
		</g>
	</g>
</g>
</svg>
