<svg xmlns="http://www.w3.org/2000/svg" width="72" height="40" viewBox="0 0 72 40">
  <defs>
    <style>
      .cls-1 {
        fill: #6a8c77;
      }

      .cls-1, .cls-2 {
        fill-rule: evenodd;
      }

      .cls-2 {
        fill: #fff;
      }
    </style>
  </defs>
  <g id="_50_" data-name="50%">
    <path id="矩形_1145_拷贝" data-name="矩形 1145 拷贝" class="cls-1" d="M1955.3,478.656h81.4v50.877h-81.4V478.656Z" transform="translate(-1964 -480)"/>
    <path id="形状_7" data-name="形状 7" class="cls-2" d="M2010.44,493.675a3.73,3.73,0,0,1,0-4.088,2.035,2.035,0,0,1,3.2,0,3.7,3.7,0,0,1,0,4.1A2.037,2.037,0,0,1,2010.44,493.675Zm2.71-.461a3.257,3.257,0,0,0,0-3.164,1.305,1.305,0,0,0-1.1-.574,1.283,1.283,0,0,0-1.11.581,3.23,3.23,0,0,0,0,3.15,1.285,1.285,0,0,0,1.11.578A1.3,1.3,0,0,0,2013.15,493.214Zm4.84-4.332h0.82l-6.69,10.4h-0.83Zm-1.53,9.7a3.676,3.676,0,0,1,0-4.086,2.031,2.031,0,0,1,3.2,0,3.726,3.726,0,0,1,0,4.086A2.028,2.028,0,0,1,2016.46,498.578Zm2.71-.468a3.3,3.3,0,0,0,0-3.15,1.3,1.3,0,0,0-1.11-.578,1.278,1.278,0,0,0-1.1.571,3.191,3.191,0,0,0,0,3.165,1.282,1.282,0,0,0,1.1.573A1.307,1.307,0,0,0,2019.17,498.11Zm-7.88,12.719a3.85,3.85,0,0,1-1.45-1.484,4.569,4.569,0,0,1,0-4.234,3.837,3.837,0,0,1,1.45-1.484,4.022,4.022,0,0,1,2.07-.541,3.975,3.975,0,0,1,2.05.536,3.835,3.835,0,0,1,1.44,1.482,4.517,4.517,0,0,1,0,4.246,3.827,3.827,0,0,1-1.44,1.484,3.965,3.965,0,0,1-2.05.536A4.022,4.022,0,0,1,2011.29,510.829Zm3.71-.664a3.019,3.019,0,0,0,1.15-1.21,3.761,3.761,0,0,0,0-3.454,3,3,0,0,0-1.15-1.21,3.308,3.308,0,0,0-3.29,0,3.048,3.048,0,0,0-1.17,1.21,3.761,3.761,0,0,0,0,3.454,3.068,3.068,0,0,0,1.17,1.21A3.308,3.308,0,0,0,2015,510.165Zm4.14-6.264v3.2h3.97v0.745h-3.97V511.3h-0.82v-8.144h5.27V503.9h-4.45Zm6.06,0v3.2h3.97v0.745h-3.97V511.3h-0.81v-8.144h5.27V503.9h-4.46Zm-38.46-3.97a6.776,6.776,0,0,1,1.89,5.03,8.015,8.015,0,0,1-.86,3.706,6.451,6.451,0,0,1-2.6,2.673,8.585,8.585,0,0,1-4.32,1,12.489,12.489,0,0,1-3.89-.619,9.426,9.426,0,0,1-3.25-1.767l1.71-3.947a8.054,8.054,0,0,0,5.32,2,3.951,3.951,0,0,0,2.57-.765,2.6,2.6,0,0,0,.93-2.131,2.537,2.537,0,0,0-.97-2.166,5.845,5.845,0,0,0-3.38-.73h-4.79l0.97-12.541h11.41v4.139h-7.81l-0.29,4.232h1.52Q1984.86,498.053,1986.74,499.931Zm7.52,11.044a8.878,8.878,0,0,1-2.84-3.963,19.118,19.118,0,0,1,0-12.381,8.9,8.9,0,0,1,2.84-3.962,6.964,6.964,0,0,1,8.29,0,8.9,8.9,0,0,1,2.84,3.962,19.118,19.118,0,0,1,0,12.381,8.878,8.878,0,0,1-2.84,3.963A6.964,6.964,0,0,1,1994.26,510.975Zm6.83-4.742a15.428,15.428,0,0,0,0-10.822,2.911,2.911,0,0,0-5.34,0,15.428,15.428,0,0,0,0,10.822A2.911,2.911,0,0,0,2001.09,506.233Z" transform="translate(-1964 -480)"/>
  </g>
</svg>
