<svg xmlns="http://www.w3.org/2000/svg" width="48" height="40" viewBox="0 0 48 40">
  <defs>
    <style>
      .cls-1 {
        fill: #6a8c77;
      }

      .cls-1, .cls-2 {
        fill-rule: evenodd;
      }

      .cls-2 {
        fill: #fff;
      }
    </style>
  </defs>
  <g id="Hot">
    <path id="矩形_1145_拷贝" data-name="矩形 1145 拷贝" class="cls-1" d="M987.3,478.656h81.4v50.877H987.3V478.656Z" transform="translate(-1006 -480)"/>
    <path id="形状_8" data-name="形状 8" class="cls-2" d="M1024.23,493.019v13.833h-1.48v-6.383h-8.88v6.383h-1.5V493.019h1.5v6.165h8.88v-6.165h1.48Zm5.9,13.251a5.035,5.035,0,0,1-1.94-1.888,5.59,5.59,0,0,1,0-5.453,4.962,4.962,0,0,1,1.94-1.878,6.078,6.078,0,0,1,5.56,0,4.962,4.962,0,0,1,1.94,1.878,5.66,5.66,0,0,1,0,5.453,5.035,5.035,0,0,1-1.94,1.888A6.023,6.023,0,0,1,1030.13,506.27Zm4.82-1.068a3.582,3.582,0,0,0,1.41-1.433,4.721,4.721,0,0,0,0-4.229,3.564,3.564,0,0,0-1.41-1.431,4.373,4.373,0,0,0-4.08,0,3.653,3.653,0,0,0-1.42,1.431,4.638,4.638,0,0,0,0,4.229,3.671,3.671,0,0,0,1.42,1.433A4.388,4.388,0,0,0,1034.95,505.2Zm11.93,1.018a2.73,2.73,0,0,1-1,.543,4.214,4.214,0,0,1-1.25.187,3.167,3.167,0,0,1-2.31-.79,2.978,2.978,0,0,1-.81-2.233v-6.283h-1.91v-1.185h1.91v-2.274h1.44v2.274h3.24v1.185h-3.24v6.2a1.969,1.969,0,0,0,.47,1.414,1.848,1.848,0,0,0,1.37.483,2.769,2.769,0,0,0,.87-0.138,2.289,2.289,0,0,0,.72-0.4Z" transform="translate(-1006 -480)"/>
  </g>
</svg>
