<svg xmlns="http://www.w3.org/2000/svg" width="72" height="40" viewBox="0 0 72 40">
  <defs>
    <style>
      .cls-1 {
        fill: #6a8c77;
      }

      .cls-1, .cls-2 {
        fill-rule: evenodd;
      }

      .cls-2 {
        fill: #fff;
      }
    </style>
  </defs>
  <g id="_40_" data-name="40%">
    <path id="矩形_1145_拷贝" data-name="矩形 1145 拷贝" class="cls-1" d="M1792.3,478.656h81.4v50.877h-81.4V478.656Z" transform="translate(-1800 -480)"/>
    <path id="形状_2_拷贝" data-name="形状 2 拷贝" class="cls-2" d="M1824.25,507.174h-3.01v4.78h-4.18v-4.78h-9.97v-3.546l8.73-14.438h4.49l-8.09,13.692h4.97v-4.261h4.05v4.261h3.01v4.292Zm5.11,3.771a9.109,9.109,0,0,1-2.82-4.048,20.121,20.121,0,0,1,0-12.65,9.14,9.14,0,0,1,2.82-4.049,6.715,6.715,0,0,1,8.2,0,9.206,9.206,0,0,1,2.81,4.049,20.121,20.121,0,0,1,0,12.65,9.173,9.173,0,0,1-2.81,4.048A6.711,6.711,0,0,1,1829.36,510.945Zm6.75-4.845a16.24,16.24,0,0,0,0-11.057,2.85,2.85,0,0,0-5.29,0,16.4,16.4,0,0,0,0,11.057A2.85,2.85,0,0,0,1836.11,506.1Zm9.33-12.425a3.73,3.73,0,0,1,0-4.088,2.035,2.035,0,0,1,3.2,0,3.7,3.7,0,0,1,0,4.1A2.037,2.037,0,0,1,1845.44,493.675Zm2.71-.461a3.257,3.257,0,0,0,0-3.164,1.305,1.305,0,0,0-1.1-.574,1.283,1.283,0,0,0-1.11.581,3.23,3.23,0,0,0,0,3.15,1.285,1.285,0,0,0,1.11.578A1.3,1.3,0,0,0,1848.15,493.214Zm4.84-4.332h0.82l-6.69,10.4h-0.83Zm-1.53,9.7a3.676,3.676,0,0,1,0-4.086,2.031,2.031,0,0,1,3.2,0,3.726,3.726,0,0,1,0,4.086A2.028,2.028,0,0,1,1851.46,498.578Zm2.71-.468a3.3,3.3,0,0,0,0-3.15,1.3,1.3,0,0,0-1.11-.578,1.278,1.278,0,0,0-1.1.571,3.191,3.191,0,0,0,0,3.165,1.282,1.282,0,0,0,1.1.573A1.307,1.307,0,0,0,1854.17,498.11Zm-7.88,12.719a3.85,3.85,0,0,1-1.45-1.484,4.569,4.569,0,0,1,0-4.234,3.837,3.837,0,0,1,1.45-1.484,4.022,4.022,0,0,1,2.07-.541,3.975,3.975,0,0,1,2.05.536,3.835,3.835,0,0,1,1.44,1.482,4.517,4.517,0,0,1,0,4.246,3.827,3.827,0,0,1-1.44,1.484,3.965,3.965,0,0,1-2.05.536A4.022,4.022,0,0,1,1846.29,510.829Zm3.71-.664a3.019,3.019,0,0,0,1.15-1.21,3.761,3.761,0,0,0,0-3.454,3,3,0,0,0-1.15-1.21,3.308,3.308,0,0,0-3.29,0,3.048,3.048,0,0,0-1.17,1.21,3.761,3.761,0,0,0,0,3.454,3.068,3.068,0,0,0,1.17,1.21A3.308,3.308,0,0,0,1850,510.165Zm4.14-6.264v3.2h3.97v0.745h-3.97V511.3h-0.82v-8.144h5.27V503.9h-4.45Zm6.06,0v3.2h3.97v0.745h-3.97V511.3h-0.81v-8.144h5.27V503.9h-4.46Z" transform="translate(-1800 -480)"/>
  </g>
</svg>
