<svg xmlns="http://www.w3.org/2000/svg" width="72" height="40" viewBox="0 0 72 40">
  <defs>
    <style>
      .cls-1 {
        fill: #6a8c77;
      }

      .cls-1, .cls-2 {
        fill-rule: evenodd;
      }

      .cls-2 {
        fill: #fff;
      }
    </style>
  </defs>
  <g id="_10_" data-name="10%">
    <path id="矩形_1145_拷贝" data-name="矩形 1145 拷贝" class="cls-1" d="M1299.3,478.656h81.4v50.877h-81.4V478.656Z" transform="translate(-1308 -480)"/>
    <path id="形状_2_拷贝" data-name="形状 2 拷贝" class="cls-2" d="M1325.57,489.692V511.95h-4.9V493.827h-4.24v-4.135h9.14Zm8.08,21.272a9.084,9.084,0,0,1-3.22-3.959,16.928,16.928,0,0,1,0-12.368,9.112,9.112,0,0,1,3.22-3.959,8.751,8.751,0,0,1,9.39,0,9.112,9.112,0,0,1,3.22,3.959,16.928,16.928,0,0,1,0,12.368,9.084,9.084,0,0,1-3.22,3.959A8.751,8.751,0,0,1,1333.65,510.964Zm7.74-4.738a13.832,13.832,0,0,0,0-10.811,3.5,3.5,0,0,0-6.06,0,13.832,13.832,0,0,0,0,10.811A3.5,3.5,0,0,0,1341.39,506.226Zm10.05-12.551a3.73,3.73,0,0,1,0-4.088,2.035,2.035,0,0,1,3.2,0,3.7,3.7,0,0,1,0,4.1A2.037,2.037,0,0,1,1351.44,493.675Zm2.71-.461a3.257,3.257,0,0,0,0-3.164,1.305,1.305,0,0,0-1.1-.574,1.283,1.283,0,0,0-1.11.581,3.23,3.23,0,0,0,0,3.15,1.285,1.285,0,0,0,1.11.578A1.3,1.3,0,0,0,1354.15,493.214Zm4.84-4.332h0.82l-6.69,10.4h-0.83Zm-1.53,9.7a3.676,3.676,0,0,1,0-4.086,2.031,2.031,0,0,1,3.2,0,3.726,3.726,0,0,1,0,4.086A2.028,2.028,0,0,1,1357.46,498.578Zm2.71-.468a3.3,3.3,0,0,0,0-3.15,1.3,1.3,0,0,0-1.11-.578,1.278,1.278,0,0,0-1.1.571,3.191,3.191,0,0,0,0,3.165,1.282,1.282,0,0,0,1.1.573A1.307,1.307,0,0,0,1360.17,498.11Zm-7.88,12.719a3.85,3.85,0,0,1-1.45-1.484,4.569,4.569,0,0,1,0-4.234,3.837,3.837,0,0,1,1.45-1.484,4.022,4.022,0,0,1,2.07-.541,3.975,3.975,0,0,1,2.05.536,3.835,3.835,0,0,1,1.44,1.482,4.517,4.517,0,0,1,0,4.246,3.827,3.827,0,0,1-1.44,1.484,3.965,3.965,0,0,1-2.05.536A4.022,4.022,0,0,1,1352.29,510.829Zm3.71-.664a3.019,3.019,0,0,0,1.15-1.21,3.761,3.761,0,0,0,0-3.454,3,3,0,0,0-1.15-1.21,3.308,3.308,0,0,0-3.29,0,3.048,3.048,0,0,0-1.17,1.21,3.761,3.761,0,0,0,0,3.454,3.068,3.068,0,0,0,1.17,1.21A3.308,3.308,0,0,0,1356,510.165Zm4.14-6.264v3.2h3.97v0.745h-3.97V511.3h-0.82v-8.144h5.27V503.9h-4.45Zm6.06,0v3.2h3.97v0.745h-3.97V511.3h-0.81v-8.144h5.27V503.9h-4.46Z" transform="translate(-1308 -480)"/>
  </g>
</svg>
