<svg xmlns="http://www.w3.org/2000/svg" width="72" height="40" viewBox="0 0 72 40">
  <defs>
    <style>
      .cls-1 {
        fill: #6a8c77;
      }

      .cls-1, .cls-2 {
        fill-rule: evenodd;
      }

      .cls-2 {
        fill: #fff;
      }
    </style>
  </defs>
  <g id="_15_" data-name="15% ">
    <path id="矩形_1145_拷贝" data-name="矩形 1145 拷贝" class="cls-1" d="M1463.3,478.656h81.4v50.877h-81.4V478.656Z" transform="translate(-1472 -480)"/>
    <path id="形状_4" data-name="形状 4" class="cls-2" d="M1515.44,493.675a3.73,3.73,0,0,1,0-4.088,2.035,2.035,0,0,1,3.2,0,3.7,3.7,0,0,1,0,4.1A2.037,2.037,0,0,1,1515.44,493.675Zm2.71-.461a3.257,3.257,0,0,0,0-3.164,1.305,1.305,0,0,0-1.1-.574,1.283,1.283,0,0,0-1.11.581,3.23,3.23,0,0,0,0,3.15,1.285,1.285,0,0,0,1.11.578A1.3,1.3,0,0,0,1518.15,493.214Zm4.84-4.332h0.82l-6.69,10.4h-0.83Zm-1.53,9.7a3.676,3.676,0,0,1,0-4.086,2.031,2.031,0,0,1,3.2,0,3.726,3.726,0,0,1,0,4.086A2.028,2.028,0,0,1,1521.46,498.578Zm2.71-.468a3.3,3.3,0,0,0,0-3.15,1.3,1.3,0,0,0-1.11-.578,1.278,1.278,0,0,0-1.1.571,3.191,3.191,0,0,0,0,3.165,1.282,1.282,0,0,0,1.1.573A1.307,1.307,0,0,0,1524.17,498.11Zm-7.88,12.719a3.85,3.85,0,0,1-1.45-1.484,4.569,4.569,0,0,1,0-4.234,3.837,3.837,0,0,1,1.45-1.484,4.022,4.022,0,0,1,2.07-.541,3.975,3.975,0,0,1,2.05.536,3.835,3.835,0,0,1,1.44,1.482,4.517,4.517,0,0,1,0,4.246,3.827,3.827,0,0,1-1.44,1.484,3.965,3.965,0,0,1-2.05.536A4.022,4.022,0,0,1,1516.29,510.829Zm3.71-.664a3.019,3.019,0,0,0,1.15-1.21,3.761,3.761,0,0,0,0-3.454,3,3,0,0,0-1.15-1.21,3.308,3.308,0,0,0-3.29,0,3.048,3.048,0,0,0-1.17,1.21,3.761,3.761,0,0,0,0,3.454,3.068,3.068,0,0,0,1.17,1.21A3.308,3.308,0,0,0,1520,510.165Zm4.14-6.264v3.2h3.97v0.745h-3.97V511.3h-0.82v-8.144h5.27V503.9h-4.45Zm6.06,0v3.2h3.97v0.745h-3.97V511.3h-0.81v-8.144h5.27V503.9h-4.46Zm-40.68-14.6v22.65h-4.86V493.51h-4.2V489.3h9.06Zm17.43,10.419a6.551,6.551,0,0,1,2.11,5.114,7.522,7.522,0,0,1-.96,3.768,6.927,6.927,0,0,1-2.92,2.717,10.48,10.48,0,0,1-4.85,1.019,15.41,15.41,0,0,1-4.37-.629,10.855,10.855,0,0,1-3.64-1.8l1.92-4.013a8.984,8.984,0,0,0,2.76,1.506,9.843,9.843,0,0,0,3.21.532,4.748,4.748,0,0,0,2.88-.776,2.543,2.543,0,0,0,1.05-2.168,2.5,2.5,0,0,0-1.1-2.2,7.082,7.082,0,0,0-3.79-.742h-5.37l1.08-12.75h12.81v4.207h-8.76l-0.33,4.3h1.71C1503.35,497.813,1505.53,498.45,1506.95,499.722Z" transform="translate(-1472 -480)"/>
  </g>
</svg>
