<svg xmlns="http://www.w3.org/2000/svg" width="72" height="40" viewBox="0 0 72 40">
  <defs>
    <style>
      .cls-1 {
        fill: #6a8c77;
      }

      .cls-1, .cls-2 {
        fill-rule: evenodd;
      }

      .cls-2 {
        fill: #fff;
      }
    </style>
  </defs>
  <g id="_35_" data-name="35% ">
    <path id="矩形_1145_拷贝" data-name="矩形 1145 拷贝" class="cls-1" d="M1627.3,478.656h81.4v50.877h-81.4V478.656Z" transform="translate(-1636 -480)"/>
    <path id="形状_2_拷贝" data-name="形状 2 拷贝" class="cls-2" d="M1659.1,500.747a6.257,6.257,0,0,1,1.54,4.289,6.934,6.934,0,0,1-1.01,3.644,7.07,7.07,0,0,1-3.06,2.672,11.462,11.462,0,0,1-5.04,1,16.776,16.776,0,0,1-4.57-.63,11.582,11.582,0,0,1-3.81-1.8l1.98-4.015a9.391,9.391,0,0,0,2.9,1.507,10.878,10.878,0,0,0,3.38.532,5.229,5.229,0,0,0,3.01-.759,2.475,2.475,0,0,0,1.1-2.155q0-2.781-4.11-2.782h-2.33V498.79l4.52-5.277h-9.35V489.3h15.38v3.4l-4.96,5.825A7.331,7.331,0,0,1,1659.1,500.747Zm17.98-1.019a6.434,6.434,0,0,1,2.21,5.116,7.27,7.27,0,0,1-1.01,3.77,7.09,7.09,0,0,1-3.06,2.719,11.337,11.337,0,0,1-5.07,1.02,16.776,16.776,0,0,1-4.57-.63,11.582,11.582,0,0,1-3.81-1.8l2.01-4.015a9.45,9.45,0,0,0,2.89,1.507,10.662,10.662,0,0,0,3.36.532,5.129,5.129,0,0,0,3.01-.777,2.511,2.511,0,0,0,1.1-2.168,2.451,2.451,0,0,0-1.15-2.2,7.714,7.714,0,0,0-3.97-.743h-5.62l1.13-12.756h13.41v4.21h-9.17l-0.35,4.305h1.79Q1674.86,497.818,1677.08,499.728Zm5.36-6.053a3.73,3.73,0,0,1,0-4.088,2.035,2.035,0,0,1,3.2,0,3.7,3.7,0,0,1,0,4.1A2.037,2.037,0,0,1,1682.44,493.675Zm2.71-.461a3.257,3.257,0,0,0,0-3.164,1.305,1.305,0,0,0-1.1-.574,1.283,1.283,0,0,0-1.11.581,3.23,3.23,0,0,0,0,3.15,1.285,1.285,0,0,0,1.11.578A1.3,1.3,0,0,0,1685.15,493.214Zm4.84-4.332h0.82l-6.69,10.4h-0.83Zm-1.53,9.7a3.676,3.676,0,0,1,0-4.086,2.031,2.031,0,0,1,3.2,0,3.726,3.726,0,0,1,0,4.086A2.028,2.028,0,0,1,1688.46,498.578Zm2.71-.468a3.3,3.3,0,0,0,0-3.15,1.3,1.3,0,0,0-1.11-.578,1.278,1.278,0,0,0-1.1.571,3.191,3.191,0,0,0,0,3.165,1.282,1.282,0,0,0,1.1.573A1.307,1.307,0,0,0,1691.17,498.11Zm-7.88,12.719a3.85,3.85,0,0,1-1.45-1.484,4.569,4.569,0,0,1,0-4.234,3.837,3.837,0,0,1,1.45-1.484,4.022,4.022,0,0,1,2.07-.541,3.975,3.975,0,0,1,2.05.536,3.835,3.835,0,0,1,1.44,1.482,4.517,4.517,0,0,1,0,4.246,3.827,3.827,0,0,1-1.44,1.484,3.965,3.965,0,0,1-2.05.536A4.022,4.022,0,0,1,1683.29,510.829Zm3.71-.664a3.019,3.019,0,0,0,1.15-1.21,3.761,3.761,0,0,0,0-3.454,3,3,0,0,0-1.15-1.21,3.308,3.308,0,0,0-3.29,0,3.048,3.048,0,0,0-1.17,1.21,3.761,3.761,0,0,0,0,3.454,3.068,3.068,0,0,0,1.17,1.21A3.308,3.308,0,0,0,1687,510.165Zm4.14-6.264v3.2h3.97v0.745h-3.97V511.3h-0.82v-8.144h5.27V503.9h-4.45Zm6.06,0v3.2h3.97v0.745h-3.97V511.3h-0.81v-8.144h5.27V503.9h-4.46Z" transform="translate(-1636 -480)"/>
  </g>
</svg>
