<?xml version="1.0" encoding="utf-8"?>
<!-- Generator: Adobe Illustrator 23.0.0, SVG Export Plug-In . SVG Version: 6.00 Build 0)  -->
<svg version="1.1" id="图层_1" xmlns="http://www.w3.org/2000/svg" xmlns:xlink="http://www.w3.org/1999/xlink" x="0px" y="0px"
	 viewBox="0 0 63.7 74.8" style="enable-background:new 0 0 63.7 74.8;" xml:space="preserve">
<style type="text/css">
	.st0{fill:none;stroke:#FFFFFF;stroke-width:0.3;stroke-miterlimit:10;}
	.st1{fill:none;stroke:#FFFFFF;stroke-width:0.2;stroke-miterlimit:10;}
	.st2{fill:#FFFFFF;stroke:#FFFFFF;stroke-miterlimit:10;}
	.st3{fill:none;stroke:#FFFFFF;stroke-miterlimit:10;}
	.st4{fill:#FFFFFF;}
</style>
<g>
	<g>
		<g>
			<g>
				<path class="st0" d="M24.1,0.4l-0.6-0.2c0,0-0.2,0-0.3,0S21,0.7,19.6,3.9L18,8.3c0,0-0.3,0.9,0.2,1"/>
				<line class="st0" x1="40.2" y1="14.7" x2="36.4" y2="25.9"/>
				<path class="st0" d="M40,17.7L37.9,24c0,0-0.2,0.7,0.3,0.9s0.8-0.5,0.8-0.5l2-6c0,0,0.3-1-0.2-1.2C40.3,17,40,17.7,40,17.7z"/>
				<path class="st0" d="M26.6,2l-0.2,0.7c0,0-0.2,1.2,1,1.2c1.2,0,9.2,0,9.2,0s1.2,0,1.6-1.2l0.2-0.6c0,0,0.1-0.4,0.8-0.4
					s2.1,0.1,2.1,0.1s2.2,0.3,1.3,3S24.1,59.2,24.1,59.2s-1.4,4.3-5.1,4.1c-3.5-0.2-15.6-1-15.6-1s-2.9-0.1-1.8-3.9
					C2.5,55.6,20.8,4.1,20.8,4.1s1-2.7,3.6-2.5l1.9,0.1C26.3,1.6,26.7,1.8,26.6,2z"/>
				<path class="st0" d="M31.4,2.2l2,0c0,0,0.4,0,0.4,0.3s-0.4,0.3-0.4,0.3l-2.1,0c0,0-0.3,0-0.3-0.3C31.1,2.2,31.4,2.2,31.4,2.2z"
					/>
				
					<ellipse transform="matrix(9.393378e-02 -0.9956 0.9956 9.393378e-02 28.9928 36.8961)" class="st0" cx="34.8" cy="2.5" rx="0.3" ry="0.2"/>
				<path class="st0" d="M10.5,64.3l3.1,0.2c0,0,0.3,0,0.3,0.2S13.6,65,13.6,65l-2.7-0.2c0,0-0.6,0-0.6-0.3
					C10.3,64.3,10.5,64.3,10.5,64.3z"/>
				<ellipse transform="matrix(0.866 -0.5 0.5 0.866 -30.3251 16.6774)" class="st1" cx="16" cy="64.9" rx="0.1" ry="0.1"/>
				<ellipse transform="matrix(0.866 -0.5 0.5 0.866 -30.273 16.9669)" class="st1" cx="16.5" cy="65" rx="0.1" ry="0.1"/>
				<ellipse transform="matrix(0.866 -0.5 0.5 0.866 -30.2228 17.2615)" class="st1" cx="17.1" cy="65" rx="0.1" ry="0.1"/>
				<ellipse transform="matrix(0.866 -0.5 0.5 0.866 -30.1781 17.5402)" class="st1" cx="17.6" cy="65.1" rx="0.1" ry="0.1"/>
				<ellipse transform="matrix(0.866 -0.5 0.5 0.866 -30.1398 17.8268)" class="st1" cx="18.2" cy="65.2" rx="0.1" ry="0.1"/>
				<ellipse transform="matrix(0.866 -0.5 0.5 0.866 -30.083 18.1099)" class="st1" cx="18.8" cy="65.2" rx="0.1" ry="0.1"/>
				<ellipse transform="matrix(0.866 -0.5 0.5 0.866 -30.0291 18.4059)" class="st1" cx="19.3" cy="65.2" rx="0.1" ry="0.1"/>
				<ellipse transform="matrix(0.866 -0.5 0.5 0.866 -31.317 11.2355)" class="st1" cx="5.3" cy="64.1" rx="0.1" ry="0.1"/>
				<ellipse transform="matrix(0.866 -0.5 0.5 0.866 -31.2649 11.525)" class="st1" cx="5.9" cy="64.1" rx="0.1" ry="0.1"/>
				<ellipse transform="matrix(0.866 -0.5 0.5 0.866 -31.2147 11.8196)" class="st1" cx="6.4" cy="64.2" rx="0.1" ry="0.1"/>
				<ellipse transform="matrix(0.866 -0.5 0.5 0.866 -31.17 12.0983)" class="st1" cx="7" cy="64.2" rx="0.1" ry="0.1"/>
				<ellipse transform="matrix(0.866 -0.5 0.5 0.866 -31.1317 12.3848)" class="st1" cx="7.5" cy="64.3" rx="0.1" ry="0.1"/>
				<ellipse transform="matrix(0.866 -0.5 0.5 0.866 -31.0749 12.668)" class="st1" cx="8.1" cy="64.3" rx="0.1" ry="0.1"/>
				<ellipse transform="matrix(0.866 -0.5 0.5 0.866 -31.021 12.9639)" class="st1" cx="8.7" cy="64.4" rx="0.1" ry="0.1"/>
			</g>
		</g>
		<g>
			<path class="st2" d="M32.9,19l-0.3,0.9c0,0,0,0,0,0L32.9,19 M30.8,21.7l-10.3-0.3c-0.6,0-0.9-0.5-0.7-1l1.1-3.5
				c0.1-0.2,0.3-0.5,0.5-0.7c0.2-0.2,0.5-0.2,0.8-0.2c0,0,0,0,0,0l10.3,0.3c0.3,0,0.5,0.1,0.6,0.3c0.1,0.2,0.2,0.4,0.1,0.7l-1.1,3.5
				C32,21.3,31.4,21.7,30.8,21.7L30.8,21.7 M22.3,15.8c-0.3,0-0.7,0.1-1,0.3c-0.3,0.2-0.5,0.5-0.6,0.8l-1.1,3.5
				c-0.2,0.7,0.2,1.2,0.9,1.2L30.8,22l0,0c0.7,0,1.4-0.5,1.6-1.2l0.2-0.6c0,0-0.1,0-0.1,0l-0.2,0l0.7-2.3l0.1,0c0,0,0.1,0,0.1,0
				l0.2-0.6c0.1-0.3,0.1-0.6-0.1-0.9c-0.2-0.2-0.5-0.4-0.8-0.4L22.3,15.8"/>
			<path class="st2" d="M32.9,19l0.3-0.9c0.1,0,0.2,0.1,0.3,0.2c0,0.1,0,0.2,0,0.3l-0.3,0.8c-0.1,0.3-0.4,0.4-0.5,0.4c0,0,0,0,0,0
				L32.9,19 M33,17.9l-0.7,2.3l0.2,0c0,0,0.1,0,0.1,0c0.3-0.1,0.7-0.2,0.9-0.7l0.3-0.9c0.1-0.2,0.1-0.3,0-0.4
				c-0.1-0.1-0.2-0.3-0.5-0.3c0,0-0.1,0-0.1,0L33,17.9"/>
			<polyline class="st2" points="27.2,16.6 25.3,19.1 25.9,19.1 25.3,20.9 27.2,18.5 26.6,18.4 27.2,16.6 			"/>
		</g>
	</g>
	<line class="st0" x1="44.2" y1="63.7" x2="45.2" y2="67.3"/>
	<path class="st0" d="M57.5,66.1l2.3,0c0,0,1-0.1,0.8,1.1l-0.2,0.4c0,0,0,0.2,0,0.3c0.1,0.1-0.3,0.5-0.3,0.5l-1.4,2.4
		c0,0-0.2,0.3-0.5,0.2"/>
	<line class="st0" x1="57.9" y1="69.3" x2="59.7" y2="66.2"/>
	<path class="st0" d="M53.8,61.5l-1,3.3c0,0-0.1,0.5,0,0.5c0.1,0,0.7,0.1,0.7,0.1s0.3,0,0.3,0.2c-0.1,0.2-0.4,1-0.4,1
		s-0.1,0.3,0.1,0.3c0.2,0,3.3,0.2,3.3,0.2s0.3,0,0.3-0.2c0.1-0.2,0.2-0.9,0.2-0.9s0.1-0.2,0.3-0.2c0.2,0,0.5,0,0.5,0s0.2,0,0.3-0.2
		c0.1-0.2,1-3.4,1-3.4s0.1-0.3-0.2-0.3c-0.3,0-5.2-0.4-5.2-0.4S53.9,61.4,53.8,61.5z"/>
	<path class="st0" d="M52.9,65.3c0,0-0.3,0-0.6,0c-0.2,0-0.3,0-0.3,0c0,0-0.3-0.1-0.1-0.7c0.1-0.6,0.8-2.9,0.8-2.9s0.1-0.4,0.4-0.4
		c0.3,0,1.4,0.1,1.4,0.1"/>
	<line class="st0" x1="52.2" y1="65.3" x2="52.1" y2="65.8"/>
	<path class="st0" d="M58.8,61.7l1.5,0.1c0,0,0.7,0,0.6,0.4c-0.1,0.4-1.1,4-1.1,4"/>
	<path class="st0" d="M54.2,38.7l2.6,1.9c0,0,1,0.3,1.3-0.4c0.3-0.6-0.2-1-0.2-1"/>
	<path class="st0" d="M61.6,53.9l-0.2,3.3c0,0,0.1,0.7,0.7,0.7"/>
	<ellipse class="st0" cx="45" cy="63.3" rx="0" ry="0.1"/>
	<ellipse class="st0" cx="46" cy="67.4" rx="0" ry="0.1"/>
	<ellipse class="st0" cx="47.8" cy="70.4" rx="0" ry="0.1"/>
	<ellipse class="st0" cx="50.1" cy="72.7" rx="0" ry="0.1"/>
	<ellipse class="st0" cx="52.9" cy="73.5" rx="0" ry="0.1"/>
	<ellipse class="st0" cx="55.7" cy="72.8" rx="0" ry="0.1"/>
	<ellipse class="st0" cx="58.2" cy="70.2" rx="0" ry="0.1"/>
	<ellipse class="st0" cx="60" cy="67" rx="0" ry="0.1"/>
	<ellipse class="st0" cx="61.5" cy="61.1" rx="0" ry="0.1"/>
	<ellipse class="st0" cx="62.2" cy="57.1" rx="0" ry="0.1"/>
	<ellipse class="st0" cx="62.5" cy="52.9" rx="0" ry="0.1"/>
	<ellipse class="st0" cx="62.3" cy="48.9" rx="0" ry="0.1"/>
	<ellipse class="st0" cx="57" cy="39.6" rx="0" ry="0.1"/>
	<ellipse class="st0" cx="54.5" cy="38.1" rx="0" ry="0.1"/>
</g>
<g id="XMLID_3_">
	<g>
		<path class="st0" d="M50.2,68.7c0,0-0.1-0.3,0-0.5c0.2-0.2,1.4-2.2,1.4-2.2s0.2-0.2,0.5-0.2c0.3,0,1.4,0.1,1.4,0.1"/>
		<polyline class="st0" points="56,71.8 56,71.8 57.9,69.4 		"/>
		<polyline class="st0" points="53.2,72.7 56,71.8 56,71.8 56,71.8 		"/>
		<line class="st0" x1="36.4" y1="62.7" x2="36.4" y2="63"/>
		<path class="st0" d="M41.7,72.8C41.7,72.8,41.7,72.8,41.7,72.8c0,0.1,0.2,0.4,0.5,0.5c0.3,0.1,3.3,0.8,3.3,0.8s0.5,0.1,0.8,0.1
			c0.3,0,5.9,0.4,5.9,0.4s0.3,0,0.4-0.3c0,0,0-0.1,0.3-0.1c0.2,0,0.6-0.1,0.6-0.7c0-0.6-0.4-0.8-0.4-0.8l-2.6-0.6"/>
		<line class="st0" x1="49.5" y1="73.5" x2="52.6" y2="74.3"/>
		<path class="st0" d="M48.5,70.4l1.4-1.4c0,0,0.2-0.2,0.3-0.2c0.1,0,1.5,0.1,1.5,0.1s0.4,0,0.2,0.2c-0.2,0.3-0.2,0.3-0.2,0.3
			s-0.2,0.3,0,0.4c0.2,0,2.9,0.2,2.9,0.2s0.6,0,0.7-0.3l0.2-0.3c0,0,0.1-0.1,0.4-0.1c0.3,0,1.8,0.1,1.8,0.1s0,0,0.1,0
			c0.2,0,1,0.2,0.7,1.2L58.2,71c0,0-0.1,0.1,0,0.1c0,0.1,0,0.4-0.1,0.5c-0.1,0.1-1.6,1.8-1.6,1.8s-0.5,0.4-0.6,0.3c0,0-0.2,0-0.3,0
			c0,0,0,0,0,0"/>
		<path class="st0" d="M49.2,71.1h0.5c0,0,0.3,0,0.2,0.1c-0.1,0.1-0.2,0.3-0.2,0.3"/>
		<path class="st0" d="M49.8,71.5c0,0,2.9,0.3,3.3,0.3c0.4,0.1,0.5-0.1,0.5-0.1s0.1-0.1,0.2-0.2c0.1,0,0.2-0.1,0.2-0.1l2,0.3
			c0,0,0,0,0,0c0,0,0,0,0,0c0.4,0.2,0.5,0.7,0.5,0.7s0.1,0.5-0.3,0.7c-0.4,0.2-0.4,0.3-0.4,0.3c-0.1,0.1-0.2,0.2-0.2,0.2
			c0,0,0,0,0,0c0,0.1-0.1,0.2-0.1,0.2s-2.3,0.7-2.5,0.7c-0.2,0-0.7,0-0.7,0"/>
		<path class="st0" d="M45.4,63.9c0.1,0,0.2,0.1,0.2,0.1s0.8,3,1,3.5c0.1,0.4-0.3,0.5-0.3,0.5c-0.3,0.1-0.5-0.1-0.6-0.3
			c-0.1-0.1-0.1-0.3-0.2-0.3c0-0.1-0.3-0.1-0.3-0.1s-7.4-0.4-7.7-0.4c-0.3,0-0.3-0.3-0.3-0.3s-0.9-2.7-1-3.1
			c-0.1-0.4,0.2-0.4,0.2-0.4l7.9,0.5l0.2,0"/>
		<line class="st0" x1="56.8" y1="40.6" x2="57.5" y2="41.2"/>
		<path class="st0" d="M61.1,65.6c0,0-0.2,0.4-0.5,0.2c-0.2-0.2-0.1-0.6-0.1-0.6l0.6-2.5c0,0,0.2-0.5,0.4-0.4c0.2,0,0.4,0.2,0.3,0.5
			"/>
		<path class="st0" d="M52.5,45.7c-0.2,0.1-0.3,0.1-0.5,0.1c-0.6-0.1-0.9-0.9-0.8-1.9c0.1-0.7,0.4-1.2,0.7-1.4
			c0.2-0.1,0.4-0.2,0.5-0.2c0.2,0,0.5,0.2,0.6,0.5c0.2,0.3,0.3,0.8,0.2,1.4"/>
		<path class="st0" d="M53.2,44.5c0,0.1,0,0.2-0.1,0.3c-0.1,0.2-0.1,0.3-0.2,0.5c-0.1,0.1-0.1,0.2-0.3,0.3c0,0-0.1,0.1-0.1,0.1"/>
		<path class="st0" d="M52.5,45.7C52.4,45.7,52.4,45.7,52.5,45.7c-0.2,0.2-0.4,0.3-0.6,0.3l-0.5-0.1c-0.8-0.1-1.2-1-1-2.1
			c0.1-0.7,0.4-1.3,0.8-1.5c0.2-0.2,0.5-0.3,0.8-0.2c0,0,0.8,0.1,0.8,0.2c0,0,0.3,0.2,0.4,0.6c0.1,0.3,0.2,0.7,0.1,1.3c0,0,0,0,0,0
			c0,0.1,0,0.2,0,0.3c0,0.1,0,0.2-0.1,0.3c-0.1,0.2-0.1,0.3-0.2,0.5c-0.1,0.1-0.2,0.2-0.3,0.3C52.6,45.6,52.6,45.6,52.5,45.7
			C52.5,45.7,52.5,45.7,52.5,45.7z"/>
		<path class="st0" d="M45.1,60.2c-0.2,0.1-0.7,0.1-0.7-0.2c-0.1-0.5-0.2-1-0.2-1l-0.2,0l-0.2,0l-4.2-0.2l-3.8-0.1l0.1,1.4l0.1,2.1
			c0,0,0,0.5,0.4,0.5c0.4,0,7.6,0.5,7.6,0.5s0.1,0,0.2,0s0.2,0,0.2,0.1c0,0.1,0.1,0.3,0.1,0.4c0,0.1,0.1,0.2,0.1,0.2
			s0.1,0.3,0.6,0.3c0.2,0,0.2-0.1,0.3-0.2c0.1-0.1,0.1-0.3,0.1-0.3l-0.3-3.4"/>
		<path class="st0" d="M45.2,60.2C45.2,60.2,45.2,60.2,45.2,60.2"/>
		<path class="st0" d="M52.1,38.5l2.5,0.2c0,0,0.7,0,0.8-0.7c0,0,0.1-0.6-0.4-0.9c-0.1,0-0.2-0.1-0.3-0.1"/>
		<path class="st0" d="M51.7,36.7c0,0-0.5,0.2-0.5,1.1v0"/>
		<path class="st0" d="M52,46c0,0,0.5,1.5-0.3,4.1S49,54.2,49,54.2"/>
		<path class="st0" d="M62,61.2c0,0,0.3,0.3,0.1,0.8c0,0.1-0.1,0.4-0.2,0.8c-0.4,1.4-1.1,3.9-1.1,3.9s-0.1,0.3-0.3,0.4"/>
		<path class="st0" d="M62.6,57.3C62.6,57.3,62.6,57.3,62.6,57.3c0-0.2,0-0.6,0.1-0.6c0.1,0,0.2-0.2,0.2-0.2l0.2-3.6"/>
		<path class="st0" d="M61.3,57.8l-0.5,3.4c0,0-0.1,0.7,0.4,0.8c0,0,0,0,0,0"/>
		<path class="st0" d="M61.9,49.6c0,0,0.5,0.2,0.8-0.2c0.3-0.4,0.2-0.6,0.2-0.6s0.3-0.3,0.3,0c0,0.3,0.2,3.4,0.2,3.4
			s-0.1,0.3-0.2,0.4c-0.1,0-0.1,0.1-0.1,0.3c0,0.2,0.1,0.9-0.5,1c-0.6,0.1-0.8-0.6-0.8-0.6l-0.1-3.1"/>
		<path class="st0" d="M23.9,69.9c-0.1,0-0.2,0-0.2,0s-7.4-0.6-13.7-1.1c-4.2-0.3-7.8-0.6-8.5-0.7c-1.6-0.1-1-2.3-1-2.3l0.9-2.9"/>
		<path class="st0" d="M39.3,38.1c-0.4-0.2-0.8-0.4-1.1-0.5c-0.2-0.1-0.4-0.1-0.5-0.1c0,0,0,0,0,0c-0.9,0-1.3,1-1.3,1
			s-9.1,26.8-9.9,29.2c-0.6,1.7-1.7,2.1-2.2,2.2"/>
		<path class="st0" d="M47,68.2c0.9-0.1,1.6-0.1,2-0.1c0.1,0,0.2,0,0.2,0c1.5-0.1,1.1-1.8,1.1-1.8s-0.7-2.5-1.7-6"/>
		<path class="st0" d="M24.2,69.9c1.6-0.1,8.1-0.6,14.1-1.1"/>
		<path class="st0" d="M24.2,69.9c-0.1,0-0.2,0-0.2,0"/>
		<path class="st0" d="M23.8,70c0,0,0.1,0,0.1,0"/>
		<path class="st0" d="M38.8,38.7c-0.3-0.1-0.5-0.3-0.6-0.3c-0.1,0-0.1,0-0.2-0.1c-0.3-0.1-0.9,0.1-1.3,1.3
			C36.2,41.1,27.1,68,27.1,68s-0.5,1.6-1.5,1.8"/>
		<path class="st0" d="M49,68c0,0,1-0.5,0.8-1.3c0-0.3-0.8-3-1.8-6.5"/>
		<path class="st0" d="M10.1,68.9v2.6c0,0,0.2,1.9,15.3,1.9c11,0,14.1-1,14.9-1.5"/>
		<path class="st0" d="M40.4,21.6L40.4,21.6c0.1,0.2,0.3,0.4,0.4,0.5c0.5,0.9,0.7,1.9,0.4,2.9c0,0,0,0,0,0
			c-0.4,1.3-3.6,10.5-4.3,12.5c-0.1,0.2-0.1,0.4-0.1,0.4"/>
		<path class="st0" d="M43.1,0.9c0-0.1-0.1-0.1-0.1-0.2c0,0,0-0.5,0.2-0.3c0.2,0.1,2.5,1.8,2.5,1.8s1.4,1.3,0.3,4.8
			c-0.4,1.1-2.5,7.3-5.1,15.1c-1.6,4.8-3.5,10.2-5.3,15.4c-4.1,12.1-7.9,23.2-7.9,23.2s-1.5,5-5.3,5.5c0,0-0.7,0-1.5,0
			c-0.8,0-16-1.4-16-1.4S4,64.6,3.7,64.4c-0.2-0.2-1.5-1-2.1-1.3c-0.2-0.1-0.3-0.2-0.3-0.2s0,0,0,0c-0.2-0.1-1.6-1.4-0.7-4.4
			c1-3.2,11.2-32.3,11.2-32.3s0.3-0.4,0.6-0.3"/>
		<path class="st0" d="M22.3,66.1c0,0-0.4-0.6-0.8-0.9C21.2,65,21.2,65,21.2,65s-0.6-0.6,0.5-1.5c1.1-0.9,2-1.2,3.6-5.8
			c1.6-4.6,10.9-31.5,10.9-31.5s0.5-0.9,1.3-0.5c0.8,0.4,0.8,0.4,0.8,0.4s0.6,0.2,0.8-0.4l1.4-4l1.3-3.9c0,0,0.4-0.9-0.1-1.2
			c-0.5-0.3-1.8-1.5-1.4-2.6c0.4-1.1,3-8.8,3-8.8l0.3-1c0,0,0.3-1.9-0.4-3"/>
		<path class="st0" d="M1.3,62.1c-1-1.3-0.2-3.8-0.2-3.8S18.9,7.2,20.2,3.6c1.5-3.3,5.1-3.4,5.1-3.4l16.3,0.2c0,0,1.1,0.1,1.6,0.5
			c0,0,0.1,0.1,0.1,0.1"/>
		<path class="st0" d="M21.5,63.6C21,64,19.6,64,19.6,64S6.4,63.2,3,62.9c-0.8-0.1-1.3-0.3-1.7-0.8"/>
		<path class="st0" d="M1.3,62.9c0,0,0.4-0.2,0.1-0.7c0,0,0,0,0-0.1"/>
		<path class="st0" d="M53,41.1l4.5,0.1h0.2l2.3,0l1.7,0c0,0,0.1,0,0.2,0c0.5,0.2,2,0.8,1.3,3.7l-0.6,1.8l-1,3.2l-2.4,7.5l-0.5,1.4
			c0,0-0.5,1.6-1.8,1.8c-0.1,0-0.2,0-0.3,0c-0.5,0-2.1-0.1-3.8-0.3c-1.4-0.1-2.9-0.2-4.2-0.4c-0.2,0-0.4,0-0.6-0.1
			c-1.3-0.1-2.3-0.2-2.5-0.2c0,0,0,0,0,0"/>
		<path class="st0" d="M48.3,70.3l0.9,0.8l0.5,0.4l0.7,0.6c0,0,0.6,0.5,0.2,1c-0.4,0.5-0.8,0.1-0.8,0.1s-0.2,0-0.2,0.1
			c-0.1,0.1-0.4,0.2-0.4,0.2l-7.4-0.7l-0.2,0c0,0-0.3-0.1-0.5-0.3c-0.1-0.1-0.4-0.4-0.7-0.7c-0.5-0.5-1-1-1-1s-0.2-0.3,0-0.4"/>
		<path class="st0" d="M47,68.2l1.3,2.1c0,0,0.2,0.5-0.1,0.8c-0.3,0.2-0.6,0.1-0.6,0.1s-0.4-0.4-0.4-0.4c0,0-0.4,0-0.4,0
			s-4.2-0.2-6.2-0.3c-0.6,0-1,0-1,0c-0.1,0-0.2,0-0.3-0.1c-0.1,0-0.2-0.1-0.2-0.1s-0.5-0.8-1-1.5c-0.4-0.7-0.8-1.3-0.9-1.4
			c0-0.2,0.1-0.2,0.1-0.2l7.7,0.4l0.4,0"/>
		<line class="st0" x1="46.6" y1="67.5" x2="47" y2="68.2"/>
		<path class="st0" d="M33.5,54.4c0.1,0.9,0.6,1.9,2.3,2.1c1.6,0.1,3.1,0.3,4.3,0.3c1.3,0.1,2.1,0.1,2.1,0.1s2.5,0.3,4-2.8
			c0.1-0.3,0.2-0.5,0.3-0.8c0,0,0,0,0,0c1.1-3.2,3-8.9,3.7-11.1c0.2-0.6,0.3-0.9,0.3-0.9s1.4-3.7-2.7-3.9L42.2,37h0
			c0,0-1.5-0.1-2.9,1.1c-0.2,0.2-0.4,0.3-0.5,0.5c-0.2,0.2-0.4,0.5-0.5,0.8l-4.5,13c0,0-0.2,0.7-0.3,1.4"/>
		<path class="st0" d="M42.2,37c0.4,0,1.1,0,1.4,0c0.4,0,5.3,0,5.3,0s1.2,0.1,2.2,0.7c1.1,0.7,2.1,2,1.7,4.6"/>
		<path class="st0" d="M41.9,37c0,0,0.1,0,0.3,0"/>
		<path class="st0" d="M47.3,57.2c0,0.1-0.1,0.1-0.2,0.2c0,0,0,0-0.1,0.1c-0.3,0.3-0.7,0.6-1.1,0.8"/>
		<path class="st0" d="M51.6,46l-1.1,3.4l-1.4,4.3c0,0-0.5,1.7-1.5,3.1c-0.1,0.1-0.2,0.2-0.3,0.3"/>
		<path class="st0" d="M42.2,37C42.2,37,42.2,37,42.2,37C42.2,37,42.2,37,42.2,37c0.2-0.1,1.3-0.5,1.7-0.6c0.3-0.1,6.5,0.2,9,0.3
			c0.8,0,1.5,0.2,2.2,0.4c0.1,0,0.1,0,0.2,0.1c0.1,0,0.2,0.1,0.3,0.1c0.3,0.2,2.7,2,2.7,2l2,2l0.1,0.1"/>
		<polyline class="st0" points="45.3,67.8 45.5,68.3 46.9,70.8 		"/>
		<line class="st0" x1="43.9" y1="59" x2="44.1" y2="63.1"/>
		<line class="st0" x1="46.9" y1="70.9" x2="49.4" y2="73.3"/>
		<path class="st0" d="M59.2,57.6L59.2,57.6l2.3,0.2c0,0,0.5,0.1,0.7,0c0.2-0.1,0.4-0.3,0.4-0.5c0,0,0,0,0-0.1c0,0,0.2-0.1,0.2,0
			c0,0.2-0.5,3.5-0.5,3.5s-0.1,0.2-0.3,0.2c-0.1,0-0.1,0.5-0.1,0.5s-0.1,0.5-0.7,0.5c-0.1,0-0.3,0-0.6-0.1"/>
		<path class="st0" d="M62.2,41.5c0,0-1.5-0.6-2.1,1.2c-0.6,1.8-4.6,14.6-4.6,14.6s-1,3.2,1.4,3.5c0,0,0,0,0,0"/>
		<path class="st0" d="M57.8,41.2c0,0-1,0.3-1.3,1.2c-0.1,0.1-0.2,0.5-0.4,1.1C54.8,47.1,51.6,57,51.6,57s-0.1,0.2-0.1,0.5
			c-0.1,0.8-0.2,2.3,1.4,3"/>
		<path class="st0" d="M33.5,53.9c0,0,0,0.2,0,0.5c0,0.5,0.1,1.3,0.5,2c0.3,0.8,1,1.5,2,1.5c1,0.1,2.4,0.1,3.7,0.2
			c2.2,0.1,4.2,0.1,4.2,0.1s0.9,0,1.5-0.7c0.5-0.6,0.9-1.1,1.4-1.2c0.1,0,0.2,0,0.3,0c0.4,0.2,0.3,0.6,0.1,0.8c0,0,0,0,0,0
			c0,0.1,0,0.1,0,0.1"/>
		<path class="st0" d="M34.1,56.8c0,0,1.7,2.7,1.8,3.3"/>
		<line class="st0" x1="60.6" y1="53.6" x2="61.7" y2="53.6"/>
		<path class="st0" d="M62.6,46.9l0.1,0.8c0,0,0.1,0.3,0,0.3c-0.1,0,0,1,0,1"/>
		<path class="st0" d="M53,60.7c0,0-0.1,0.4,0.1,0.5"/>
		<path class="st0" d="M47.1,57.4C47.1,57.4,47.1,57.4,47.1,57.4c-0.1,0-0.7-0.1-1,0.6c0,0.1-0.1,0.2-0.1,0.3c0,0,0,0,0,0.1
			c-0.3,0.7-0.5,1.6-0.5,1.6s0,0,0,0.1c0,0.1-0.1,0.2-0.3,0.2v0c0,0-0.1,0-0.1,0c0,0,0,0,0,0"/>
		<path class="st0" d="M49.1,53.7c-0.3,0.4-0.6,0.2-0.6,0.2c-0.7-0.4-0.4-1.3-0.4-1.3l1.1-3.4c0,0,0.2-0.6,0.9-0.5
			c0,0,0.5,0.2,0.5,0.7"/>
		<path class="st0" d="M44.2,47.2c-0.1,0.3-0.2,0.6-0.3,0.9c-0.4,1.2-1.2,2-2,2.5c-0.6,0.3-1.2,0.4-1.7,0.2c-1.3-0.5-1.7-2.5-1-4.5
			c0.8-2,2.4-3.2,3.7-2.7c0.1,0,0.2,0.1,0.2,0.1c0.3,0.1,0.5,0.3,0.6,0.6C44.3,45,44.5,46.1,44.2,47.2z"/>
	</g>
</g>
<polygon class="st4" points="42.2,45.1 40.1,47.5 41.3,47.5 40.9,49.4 42.9,47.2 41.8,47.1 "/>
</svg>
