<?xml version="1.0" encoding="utf-8"?>
<!-- Generator: Adobe Illustrator 23.0.0, SVG Export Plug-In . SVG Version: 6.00 Build 0)  -->
<svg version="1.1" id="图层_1" xmlns="http://www.w3.org/2000/svg" xmlns:xlink="http://www.w3.org/1999/xlink" x="0px" y="0px"
	 viewBox="0 0 68.5 72.3" style="enable-background:new 0 0 68.5 72.3;" xml:space="preserve">
<style type="text/css">
	.st0{fill:none;stroke:#FFFFFF;stroke-width:0.3;stroke-miterlimit:10;}
	.st1{fill:none;stroke:#FFFFFF;stroke-width:0.2;stroke-miterlimit:10;}
</style>
<ellipse transform="matrix(0.9667 -0.2558 0.2558 0.9667 -17.3701 6.7997)" class="st1" cx="17.5" cy="70.2" rx="0.1" ry="0.1"/>
<ellipse transform="matrix(0.9667 -0.2558 0.2558 0.9667 -16.8257 7.1477)" class="st1" cx="19.1" cy="68.3" rx="0.1" ry="0.1"/>
<ellipse transform="matrix(0.9667 -0.2558 0.2558 0.9667 -16.1304 7.432)" class="st1" cx="20.5" cy="65.7" rx="0.1" ry="0.1"/>
<ellipse transform="matrix(0.9667 -0.2558 0.2558 0.9667 -14.6181 7.5127)" class="st1" cx="21.6" cy="60" rx="0.1" ry="0.1"/>
<ellipse transform="matrix(0.9667 -0.2558 0.2558 0.9667 -13.6125 7.4991)" class="st1" cx="22" cy="56.1" rx="0.1" ry="0.1"/>
<ellipse class="st1" cx="22.2" cy="52.6" rx="0.1" ry="0.1"/>
<ellipse class="st1" cx="21.9" cy="48.8" rx="0.1" ry="0.1"/>
<ellipse class="st1" cx="21.2" cy="45.1" rx="0.1" ry="0.1"/>
<ellipse class="st1" cx="19.9" cy="42.1" rx="0.1" ry="0.1"/>
<ellipse class="st1" cx="18.5" cy="39.6" rx="0.1" ry="0.1"/>
<ellipse class="st1" cx="16.6" cy="37.9" rx="0.1" ry="0.1"/>
<ellipse class="st1" cx="14.2" cy="37.2" rx="0.1" ry="0.1"/>
<ellipse transform="matrix(0.9667 -0.2558 0.2558 0.9667 -17.3692 6.3373)" class="st1" cx="15.7" cy="69.9" rx="0.1" ry="0.1"/>
<ellipse transform="matrix(0.9667 -0.2558 0.2558 0.9667 -17.0816 5.8242)" class="st1" cx="13.8" cy="68.6" rx="0.1" ry="0.1"/>
<ellipse transform="matrix(0.9667 -0.2558 0.2558 0.9667 -16.4916 5.3744)" class="st1" cx="12.4" cy="66.1" rx="0.1" ry="0.1"/>
<ellipse transform="matrix(0.9667 -0.2558 0.2558 0.9667 -15.734 5.0107)" class="st1" cx="11.4" cy="63" rx="0.1" ry="0.1"/>
<ellipse transform="matrix(0.9667 -0.2558 0.2558 0.9667 -14.8334 4.7176)" class="st1" cx="10.7" cy="59.4" rx="0.1" ry="0.1"/>
<path class="st0" d="M24.5,36.1c0,0,2.8-11,2.9-11.5c0.1-0.5,0.6-0.3,0.6-0.3s0.1,0.2,0.4,0.5s0.5,0,0.5,0s1.9-7.2,2-8
	c0.2-0.7-0.1-1.3-0.1-1.3s-0.2-0.3-0.5-0.7c-0.3-0.4-0.1-1.2-0.1-1.2l2.2-8.9c0,0,0.5-3.1,4-4.6c0,0,0.7-0.2,1.1,0.2
	C37.9,0.9,38,1.1,38,1.1s0,0.3,1,0.3c1,0,21.2-0.1,21.2-0.1"/>
<path class="st0" d="M57.9,22.8c0,0,3.8-13.8,4.5-16.5s-0.3-3.7-0.3-3.7s-2-2.2-2.3-2.4c0,0-0.5-0.1-0.5,0s0,0.3,0.3,0.4
	c0,0,0.9,0.5,0.5,0.5"/>
<line class="st0" x1="30.2" y1="14.8" x2="27.8" y2="24.3"/>
<path class="st0" d="M37.5,0.4c0,0,0.2-0.2,1-0.2s19.3,0.1,19.3,0.1s1.4,0,1.6,0.1"/>
<path class="st0" d="M40.2,3.4h5.9c0,0,2.9,0,2,3.8c-1.1,3.8-1.6,6.1-1.6,6.1s-1,3.6-4.3,3.7h-5.7c0,0-3.3,0-2.4-3.7
	C35.1,9.6,36.2,6,36.2,6S37.1,3.5,40.2,3.4z"/>
<path class="st0" d="M47.6,3.9c0,0-1.1-1.1-2.1-1.1c-0.4,0-3.8,0-5.4,0c-1.1,0-2.1,0.3-2.9,1c-0.5,0.4-1.1,1.1-1.3,2
	c-0.8,2.6-2.1,7.5-2.1,7.5s-0.7,2.9,2.4,3.5"/>
<ellipse transform="matrix(0.7071 -0.7071 0.7071 0.7071 6.5549 29.8607)" class="st0" cx="39.3" cy="7" rx="2.9" ry="2.4"/>
<ellipse transform="matrix(0.7071 -0.7071 0.7071 0.7071 1.6541 30.6278)" class="st0" cx="37.8" cy="13.3" rx="2.9" ry="2.4"/>
<ellipse transform="matrix(0.7071 -0.7071 0.7071 0.7071 5.6495 33.993)" class="st0" cx="43.9" cy="10.2" rx="2.8" ry="2.3"/>
<ellipse transform="matrix(0.7071 -0.7071 0.7071 0.7071 9.2021 33.3251)" class="st0" cx="44.8" cy="5.6" rx="1.4" ry="1.1"/>
<ellipse transform="matrix(0.7071 -0.7071 0.7071 0.7071 2.2591 34.3324)" class="st0" cx="42.6" cy="14.4" rx="1.4" ry="1.1"/>
<path class="st0" d="M26.2,36.9L34,6c0,0,0.6-4.1,5.3-4.2c4.7-0.1,20.7,0,20.7,0s2.7,0.3,2.6,3.2"/>
<path class="st0" d="M28.7,40.4h1.6c0,0,0.5,0.1,0.6,1.1c0.1,1,0,4.7,0,4.7"/>
<path class="st0" d="M18.6,40.8H7.5c0,0-0.8-0.1-1.1,1.3C6,43.4,3.7,53.5,3.7,53.5s-0.7,3.5,0.8,4c0,0,0.8,0,1.4,0l4.3-0.2"/>
<path class="st0" d="M4.7,57.5c0,0,0.7,0,1.1-1.3c0.3-1.4,2.9-12.4,2.9-12.4s0.5-2.6-1-3"/>
<path class="st0" d="M11.6,40.8c0,0,1.7,0.7,1.1,4c-0.6,3.3-2.6,11-2.6,11s-0.4,1.4-1.5,1.6"/>
<path class="st0" d="M14.1,36.7c0,0-3.9,0.3-4.3,4.1"/>
<path class="st0" d="M16.3,38.4c0,0-0.9,0-2,0c-0.3,0-0.5,0-0.7,0.1c-0.5,0.1-0.8,0.3-1.5,0.5c-1,0.4-1-0.1-1-0.1
	c0-0.7,0.8-1,1.2-1.1c0.4-0.1,1.2-0.6,1.4-0.7c0,0,0.5-0.5,0.8-0.4c0.2,0.1,0.4,0.5,0.4,0.5s0.1,0.3-0.1,0.4s-0.9,0.8-0.9,0.8"/>
<path class="st0" d="M14.5,36.7c0,0,0.3-0.3,0.7-0.3c0.4,0,9.1-0.2,9.1-0.2s0.9,0,1.4,0.4c0.5,0.4,1.6,1.5,1.6,1.5l1.7,2.8l1.5,3.3
	l0.9,3.8l0.3,3.9l-0.3,4.3l-0.4,3.7l-1.3,5.9l-1.3,2.6l-1.6,1.8l-8.9,0.7L16,70.7"/>
<line class="st0" x1="10" y1="57.3" x2="21.5" y2="56.8"/>
<path class="st0" d="M14.8,36.5l1.8,0.5c0,0,0.3,0.1,0.3,0.2c0,0.1,0.1,0.2,0.2,0.2c0,0,0.1,0,0.2,0.3c0,0.1,0,0.3,0,0.4
	c-0.1,0.6-0.7,0.4-0.7,0.4l-2-0.8"/>
<path class="st0" d="M17.2,37.6l1.4,1.4c0,0,0.1,0.2,0.2,0.2c0,0,0.2,0.2,0.2,0.5c0,0.1,0,0.3-0.1,0.4c-0.3,0.3-0.7-0.1-0.7-0.1
	l-1.5-1.5"/>
<path class="st0" d="M18.9,39.5l1.1,1.7c0,0,0.2,0.2,0.1,0.3c0,0,0.1,0.4,0.2,0.4c0.1,0.1,0.1,0.6-0.1,0.8c-0.2,0.2-0.5-0.1-0.6-0.4
	S18.2,40,18.2,40"/>
<path class="st0" d="M20.5,42.2l0.9,2.1c0,0,0,0.3,0,0.4c0,0.1,0.2,0.4,0.2,0.5c0,0.1,0,0.6-0.3,0.7c-0.3,0.1-0.4-0.4-0.4-0.4
	l-1-2.7"/>
<path class="st0" d="M21.5,45.1l0.7,2.6c0,0,0,0.5,0,0.6c0,0.1,0.3,1.1-0.1,1.3c-0.4,0.2-0.5-0.5-0.5-0.5L21,45.9"/>
<path class="st0" d="M22.3,48.9l0.3,3.1c0,0,0,0.5-0.1,0.7c0,0.2,0,0.8-0.3,0.8c-0.3,0-0.4-0.3-0.4-0.6c0-0.3-0.3-3.8-0.3-3.8"/>
<line class="st0" x1="18.3" y1="38.6" x2="27.3" y2="38.1"/>
<line class="st0" x1="20.1" y1="41.3" x2="28.9" y2="40.8"/>
<line class="st0" x1="21.4" y1="44.5" x2="30.3" y2="44.1"/>
<line class="st0" x1="22.3" y1="48.6" x2="31.3" y2="48.2"/>
<line class="st0" x1="22.6" y1="52.9" x2="31.5" y2="52.6"/>
<path class="st0" d="M22.5,53.1l0,2.8c0,0,0,0.5-0.1,0.6s-0.1,0.2-0.1,0.3c0,0.2-0.2,0.4-0.4,0.4s-0.3-0.2-0.2-0.5
	c0-0.3,0.2-3.7,0.2-3.7"/>
<line class="st0" x1="22.3" y1="56.7" x2="31.2" y2="56.4"/>
<path class="st0" d="M22.4,56.8l-0.3,3.1c0,0-0.1,0.4-0.2,0.4c-0.1,0-0.1,0.2-0.1,0.3c0,0.1-0.1,0.4-0.4,0.4c-0.3,0-0.2-0.6-0.2-0.6
	l0.4-3.3"/>
<line class="st0" x1="21.9" y1="60.4" x2="30.8" y2="60"/>
<line class="st0" x1="19.4" y1="68.9" x2="28.3" y2="68.4"/>
<polyline class="st0" points="19.6,56.9 19.6,59.4 20.7,63.5 "/>
<line class="st0" x1="29.6" y1="65.7" x2="38.1" y2="67.2"/>
<path class="st0" d="M28.1,68.7c0,0,3.4,1.5,9.8,1.5c6.6,0,12.5-0.1,12.5-0.1"/>
<path class="st0" d="M57.8,70.4c-0.4,0.3-1.1,0.1-1.1,0.1s-0.8-0.3-0.6-1.4c0.2-1.2,1.4-0.8,1.4-0.8s0.5,0.1,0.5,0.6"/>
<path class="st0" d="M68.5,70.4l-11.1-1.7c0,0-0.4,0.1-0.5,0.9s0.5,0.9,0.5,0.9l11.1,1.8"/>
<path class="st0" d="M57.2,68.2l-1.6-0.2c0,0-0.7,0.1-0.8,1c-0.1,0.8,0.2,1.1,0.2,1.1s0.1,0.2,0.4,0.2c0.3,0,1.6,0.2,1.6,0.2"/>
<path class="st0" d="M50,66.6l5.4,0.4c0,0,1.5,0.2,1.5,1.1"/>
<path class="st0" d="M26.8,37.5l0.2-0.7c0,0,0.2-0.8,0.8-0.3c0.4,0.4,1.7,1.6,2.2,2.2c0.2,0.2,0.4,0.4,0.5,0.7
	c0.2,0.4,0.4,1.1,0.5,1.6"/>
<path class="st0" d="M31,41l4.7,24.1c0,0,0.1,1.2,0.9,1.8"/>
<polyline class="st0" points="21.9,60.3 21,65.9 19.5,68.9 "/>
<line class="st0" x1="29.5" y1="65.7" x2="21" y2="66"/>
<path class="st0" d="M12,63.2l1.5-0.1c0,0,0.5,0,0.5-0.4s0-0.6,0-0.6s-0.1-0.3,0.2-0.3c0.3,0,3.6,0,3.6,0s0.3,0,0.3,0.3s0,0.6,0,0.6
	s0,0.3,0.3,0.2c0.3,0,2.2-0.1,2.2-0.1"/>
<path class="st0" d="M21.1,60.4l-0.6,4c0,0,0,0.2,0.1,0.4c0.2,0.2,0.4,0,0.4,0.8"/>
<path class="st0" d="M11.2,59.7l1.8-0.1c0,0,0.5,0,0.5-0.3s0-0.7,0-0.7s0-0.4,0.2-0.4c0.2,0,3.2-0.1,3.2-0.1s0.4,0,0.4,0.3
	c0,0.3,0,0.7,0,0.7s0,0.3,0.4,0.3c0.4,0,1.8-0.2,1.8-0.2"/>
<path class="st0" d="M13.1,66.3l1.4-0.1c0,0,0.5,0,0.5-0.3c0-0.3-0.1-0.7-0.1-0.7S14.8,65,15.1,65c0.3,0,3,0,3,0s0.4,0,0.4,0.3
	l0.1,0.4c0,0,0,0.3,0.2,0.3c0.2,0,1-0.2,1-0.2"/>
<path class="st0" d="M14.4,68.5l1.4,0c0,0,0.5,0,0.5-0.3c0-0.3-0.1-0.7-0.1-0.7s-0.1-0.3,0.3-0.3c0.3,0,3,0,3,0"/>
<path class="st0" d="M10.9,57.5l0.2,2c0,0,0,0.2,0,0.4c0,0.1-0.1,0.2-0.2,0.2c-0.4,0-0.5-0.1-0.5-0.1s-0.1-0.3-0.1-0.6
	c0-0.3-0.3-2.1-0.3-2.1"/>
<path class="st0" d="M11.1,59.7l0.7,3.3c0,0,0.1,0.7-0.3,0.8C11,63.8,11,63.3,11,63.3s0-0.3-0.1-0.4c-0.1-0.1-0.6-2.9-0.6-2.9"/>
<path class="st0" d="M11.9,63.2l1,2.9c0,0,0.2,0.6-0.2,0.8s-0.6-0.2-0.6-0.2s-0.2-0.3-0.3-0.4c-0.1-0.2-0.8-2.6-0.8-2.6"/>
<path class="st0" d="M13,66.1l1.3,2.1c0,0,0.3,0.7,0,0.9C14,69.4,13.5,69,13.5,69L12,66.3"/>
<path class="st0" d="M14.3,68.3l1.6,1.3c0,0,0.5,0.3,0.2,0.8c-0.2,0.5-1,0.1-1,0.1l-1.3-1.2"/>
<path class="st0" d="M15.7,69.4l1.6,0.1c0,0,0.7,0,0.8,0.5s-0.1,0.9-0.6,0.9s-2-0.2-2-0.2"/>
<path class="st0" d="M17.8,69.6c0,0-0.1-0.3,0.3-0.8s1-1.2,1-1.2s0.4-0.3,0.6,0.1c0.2,0.4-0.3,1.4-0.3,1.4L18,70.5"/>
<path class="st0" d="M19.2,67.4l0.9-2c0,0,0.4-0.6,0.6-0.5"/>
<path class="st0" d="M21.7,54.2c-1.8,1.3-4.1,1.6-5.9,0.5c-2.5-1.5-3.1-5.2-1.2-8.2c1.3-2.1,3.4-3.3,5.4-3.3"/>
<ellipse transform="matrix(0.1424 -0.9898 0.9898 0.1424 20.8502 59.73)" class="st0" cx="44.9" cy="17.8" rx="0.1" ry="0.2"/>
<ellipse transform="matrix(0.1424 -0.9898 0.9898 0.1424 22.1963 61.1988)" class="st0" cx="46.4" cy="17.8" rx="0.1" ry="0.2"/>
<ellipse transform="matrix(0.1424 -0.9898 0.9898 0.1424 23.5534 62.7225)" class="st0" cx="48" cy="17.8" rx="0.1" ry="0.2"/>
<ellipse transform="matrix(0.1424 -0.9898 0.9898 0.1424 24.6913 64.3941)" class="st0" cx="49.5" cy="17.9" rx="0.1" ry="0.2"/>
<path class="st0" d="M47.4,41.8c0,0.1,0.2,0.6,0.8,0.6l8.5-0.4c0.4,0,0.8-0.4,0.7-0.8l0,0"/>
<ellipse class="st0" cx="53.1" cy="44.4" rx="0.2" ry="0.2"/>
<g>
	<path class="st0" d="M58.3,58.4l-10,0.3c0,0-3.2,0.1-4,1.1c-1.1,1.3,0.2,1.4,0.2,1.4l12.8-0.7c0,0,1.1-0.2,2.1-1
		C61,58.1,58.3,58.4,58.3,58.4z"/>
	<g id="XMLID_1_">
		<path class="st0" d="M46.3,54.7c-0.2,0.2-1.2,0.8-2.1,1.3c-0.2,0.1-0.4,0.2-0.5,0.3c-0.2,0.1-0.5,0.2-0.7,0.3
			c-0.6,0.3-1,0.4-1.3,0.6c0,0,0,0,0,0c-1.1,0.7-1.2,2.3-0.3,3.3c0.9,1.1,2.3,1.1,2.3,1.1s13.4-0.8,14.1-0.8c0.7,0,0.9-0.2,0.9-0.2
			l4.4-3.2c-0.3,0.2-0.6,0.3-1,0.3l-14.1,0.5c-1,0-1.9-0.7-2.1-1.7c0-0.1,0-0.2,0-0.3c0,0,0,0,0-0.1C45.6,55.6,45.9,55.1,46.3,54.7z
			"/>
		<path class="st0" d="M50.4,28.8c0.3,0.4,0.5,0.8,0.6,1.3c-3.1,1.9-9.1,0.8-9.9,0.7c0.3-0.4,0.7-0.8,1.1-1.2
			C45,27.1,48.7,26.8,50.4,28.8z"/>
		<path class="st0" d="M51,30.1c0.3,1.7-0.7,4.1-2.3,5.7l-5.6,0.2c0,0-1.5,0.1-2.9,0.8c0,0-0.1,0-0.1,0c-0.6-1.7-0.4-4.1,1-6
			C41.8,30.9,47.9,32,51,30.1z"/>
		<path class="st0" d="M41,30.8c-1.4,1.9-1.7,4.3-1,6c-0.5,0-1.1,0-1.7,0c-0.2,0-0.3,0-0.4,0c-1-2.7,0.2-6.4,3.2-8.9
			c3.6-3,8.3-3.3,10.5-0.7c1.8,2.2,1.6,5.6-0.7,8.5l-0.5,0l-1.7,0.1c1.6-1.6,2.6-3.9,2.3-5.7c-0.1-0.5-0.3-1-0.6-1.3
			c-1.7-2-5.4-1.6-8.2,0.8C41.7,29.9,41.4,30.3,41,30.8z"/>
		<path class="st0" d="M54.8,35.6h0.1l1.3,0c0,0,1.7,0,3.3,1.3c1,0.7,1.9,1.8,2.5,3.6c0,0.1,0,0.2,0.1,0.2c-0.1-0.2-0.5-0.3-0.8-0.3
			c-0.5-0.1-1.1-0.1-1.1-0.1s-15.9,0.7-19,1c-3,0.3-4,1.5-4.2,1.7c0-0.1,0-0.2,0-0.3c-0.3-3.4,1.5-5.1,3.2-5.9
			c1.5-0.8,2.9-0.8,2.9-0.8l5.6-0.2l1.7-0.1l0.5,0L54.8,35.6z"/>
		<path class="st0" d="M31.8,36.5c-0.4-0.2-0.7-0.3-0.9-0.5c-0.3-0.3-0.8-0.4-1.2-0.4h-0.6l2.4-9.6c2.3-6.7,8.3-7.8,8.3-7.8
			s6-1.6,12.3-0.2C58.5,19.4,58,24,58,24L55.1,35c0,0-0.1,0.3-0.3,0.6l-3.9,0.1c2.3-2.9,2.5-6.3,0.7-8.5c-2.2-2.6-6.9-2.4-10.5,0.7
			c-3,2.6-4.3,6.3-3.2,8.9c-1.9,0-3.9,0-4.8,0C32.6,36.7,32.2,36.6,31.8,36.5z"/>
		<path class="st0" d="M40,36.8c0,0,0.1,0,0.1,0c-1.7,0.8-3.4,2.5-3.2,5.9c0,0.1,0,0.2,0,0.3c0.1,0.3,0.1,0.6,0.2,0.9
			c1.1,5.9,1.5,7.3,1.5,7.3s0.8,4.1,5,5.3c-0.2,0.1-0.5,0.2-0.7,0.3c-0.6,0.3-1,0.4-1.3,0.6c0,0,0,0,0,0c-1.1,0.7-1.2,2.3-0.3,3.3
			c0.9,1.1,2.3,1.1,2.3,1.1s13.4-0.8,14.1-0.8c0.7,0,0.9-0.2,0.9-0.2l4.4-3.2c0.6-0.4,0.9-1,0.9-1.7c0,0,0,0,0-0.1
			c0-0.9-0.6-1.6-1.4-1.9c0.7-0.8,1-1.6,1.3-2.5c1.3,5.8,2.5,11.8,2.5,11.8s0.5,2.6-1.4,2.6c-0.6,0-3.7,0.2-7.5,0.4
			c-2.4,0.1-5,0.3-7.6,0.5C44.1,67,39,67.3,39,67.3s-2,0.3-2.4-2c-0.5-2.3-5.3-25.5-5.3-25.5s-0.3-1-0.8-1.6
			c-0.5-0.6-2.8-2.5-2.8-2.5s-0.2-0.1-0.5-0.1h1.8h0.6c0.4,0,0.8,0.1,1.2,0.4c0.2,0.2,0.5,0.3,0.9,0.5c0.3,0.1,0.8,0.2,1.3,0.3
			c0.9,0.1,2.9,0.1,4.8,0c0.2,0,0.3,0,0.4,0C38.9,36.8,39.5,36.8,40,36.8z"/>
		<path class="st0" d="M62.4,53.8c-0.2-0.1-0.4-0.1-0.7-0.1l-14.2,0.5c-0.5,0-0.9,0.2-1.2,0.5c0,0,0,0,0,0c-0.4,0.4-0.7,0.9-0.7,1.5
			c0,0,0,0,0,0.1c0,0.1,0,0.2,0,0.3c0.2,1,1,1.7,2.1,1.7l14.1-0.5c0.4,0,0.7-0.1,1-0.3c0.6-0.4,0.9-1,0.9-1.7c0,0,0,0,0-0.1
			C63.8,54.8,63.2,54.1,62.4,53.8C62.4,53.8,62.4,53.8,62.4,53.8z"/>
		<path class="st0" d="M61.5,41.2c-0.6-0.1-1.3-0.1-1.3-0.1s-15.9,0.7-19,1c-3.3,0.3-4,1.7-4,1.7c0-0.3-0.1-0.6-0.2-0.9
			c0.2-0.2,1.2-1.3,4.2-1.7c3.1-0.3,19-1,19-1s0.6,0,1.1,0.1c0.3,0,0.6,0.2,0.8,0.3c0.1,0.3,0.1,0.5,0.2,0.8
			C62.1,41.3,61.8,41.2,61.5,41.2z"/>
		<path class="st0" d="M62.3,41.5c0.1,0.3,0.1,0.6,0.2,0.9c0.9,3.7,1.2,5.3,1.2,5.3s0.5,1.7,0,3.6c-0.2,0.8-0.6,1.7-1.3,2.5
			c0,0,0,0,0,0c-0.2-0.1-0.4-0.1-0.7-0.1l-14.2,0.5c-0.5,0-0.9,0.2-1.2,0.5c0,0,0,0,0,0c-0.2,0.2-1.2,0.8-2.1,1.3
			c-0.2,0.1-0.4,0.2-0.5,0.3c-4.2-1.2-5-5.3-5-5.3s-0.4-1.4-1.5-7.3c0,0,0.7-1.3,4-1.7c3.1-0.3,19-1,19-1s0.7,0,1.3,0.1
			C61.8,41.2,62.1,41.3,62.3,41.5z"/>
		<path class="st0" d="M62.5,42.4C62.5,42.4,62.5,42.4,62.5,42.4"/>
		<path class="st0" d="M62.3,41.5C62.3,41.5,62.3,41.5,62.3,41.5"/>
		<path class="st0" d="M61.6,41.9c0.4,0.1,0.7,0.2,0.8,0.5"/>
		<path class="st0" d="M61.6,41.9c-1.2-0.3-3.2-0.1-3.4-0.1C58,41.9,58,42,58,42c0,0.4-0.3,0.8-0.8,0.8l-9.4,0.5
			c-0.6,0-0.8-0.5-0.8-0.6c0-0.1-0.3-0.1-0.3-0.1c-2.7,0.1-4.2,0.3-5.2,0.4c-3.3,0.3-4.1,1.7-4.1,1.7"/>
		<line class="st0" x1="57.4" y1="66.2" x2="57.4" y2="68.2"/>
		<path class="st0" d="M59.5,36.8c-0.5-0.4-2-1.8-2.1-1.9c-0.2-0.2-0.8-0.3-0.8-0.3h-1.4"/>
		<path class="st0" d="M54.9,35.5c0,0,0,0.1,0,0.1"/>
		<path class="st0" d="M55.2,70.3h-3c0,0-2.4-0.2-3.3-0.6S48.3,68,48.3,68s0.2-1.1,1.5-1.3"/>
		<path class="st0" d="M41,30.7C41,30.7,41,30.7,41,30.7"/>
		<path class="st0" d="M40,36.8C40,36.8,40,36.8,40,36.8"/>
		<path class="st0" d="M50.4,35.7c2.2-2.7,2.6-6.1,0.9-8.2c-2.1-2.5-6.5-2.1-9.9,0.7c-2.9,2.4-4,5.9-3.1,8.4"/>
		<path class="st0" d="M37,43C37,43,37,43,37,43"/>
		<path class="st0" d="M58,23.7c-1.5-5.5-17.1-2.1-17.1-2.1s-1.8,0.6-3.9,1.8c-3.1,1.8-3.2,4.3-3.2,4.3l-2,8.8"/>
		<line class="st0" x1="31.8" y1="36.6" x2="31.8" y2="36.5"/>
		<path class="st0" d="M27.3,35.6c-0.3,0-0.6,0.1-0.8,0.5L26.3,37"/>
	</g>
</g>
</svg>
