<svg xmlns="http://www.w3.org/2000/svg" width="46" height="75" viewBox="0 0 46 75">
  <defs>
    <style>
      .cls-1 {
        fill: #fff;
        fill-rule: evenodd;
      }
    </style>
  </defs>
  <path id="圆角矩形_1" data-name="圆角矩形 1" class="cls-1" d="M1228,3921a22.55,22.55,0,1,1-22.55,22.55A22.555,22.555,0,0,1,1228,3921Zm-0.18,52.79a3,3,0,0,1,3,3v6.2a3,3,0,0,1-6,0v-6.2A3,3,0,0,1,1227.82,3973.79Zm0.18-47.74a17.5,17.5,0,1,1-17.5,17.5A17.5,17.5,0,0,1,1228,3926.05Z" transform="translate(-1205 -3916)"/>
</svg>
