<?xml version="1.0" encoding="utf-8"?>
<!-- Generator: Adobe Illustrator 23.0.0, SVG Export Plug-In . SVG Version: 6.00 Build 0)  -->
<svg version="1.1" id="图层_1" xmlns="http://www.w3.org/2000/svg" xmlns:xlink="http://www.w3.org/1999/xlink" x="0px" y="0px"
	 viewBox="0 0 83.5 61.6" style="enable-background:new 0 0 83.5 61.6;" xml:space="preserve">
<style type="text/css">
	.st0{fill:none;stroke:#FFFFFF;stroke-width:0.3;stroke-miterlimit:10;}
</style>
<path class="st0" d="M12.1,22.5l5.8,3.1c0,0,0.4,0.3,0.2,0.7c-0.2,0.4-0.7,0.1-0.7,0.1l-5.2-2.9c0,0-0.4-0.2-0.5-0.6
	C11.5,22.4,12.1,22.5,12.1,22.5z"/>
<ellipse transform="matrix(2.165832e-02 -0.9998 0.9998 2.165832e-02 -6.9786 19.8068)" class="st0" cx="6.6" cy="13.5" rx="1.6" ry="2.8"/>
<ellipse transform="matrix(2.165832e-02 -0.9998 0.9998 2.165832e-02 0.8366 25.5053)" class="st0" cx="13.5" cy="12.3" rx="1.6" ry="2.8"/>
<ellipse transform="matrix(2.165832e-02 -0.9998 0.9998 2.165832e-02 -4.5532 28.0574)" class="st0" cx="12.1" cy="16.4" rx="1.6" ry="2.8"/>
<ellipse transform="matrix(2.165832e-02 -0.9998 0.9998 2.165832e-02 -1.0842 20.1868)" class="st0" cx="9.8" cy="10.6" rx="0.9" ry="1.5"/>
<path class="st0" d="M66.5,17.7c-1.7-3.6-4.2-4.3-4.2-4.3s-1.6-0.9-2.6-1.6c-0.9-0.7-2.5-2.1-4.4-3.9s-5.9-5.8-7.3-6.9
	s-2.7-0.8-2.7-0.8S44,0.4,42.6,0.3c-1.4-0.1-5.1,0.5-6.4,1.4c-1.2,0.8-2.4,1.6-2.4,1.6l-0.4,0.3"/>
<path class="st0" d="M48.3,1.2c0,0,1.6-1,2.9-0.3s3.1,2.2,3.9,3.1c0.9,0.9,4,4.8,5.9,6.6s3,2.9,4,3.6c1.1,0.8,2.4,2,3.2,3.7
	s3.7,4.7,6.5,7.6c2.8,2.9,7.2,8.3,8.7,9.5"/>
<path class="st0" d="M29.5,39.3c0,0-0.5-2.5,0.7-3.8"/>
<path class="st0" d="M32.3,35.8c0,0-0.3,3.3-1.3,4"/>
<g id="XMLID_3_">
	<g>
		<path class="st0" d="M41.7,6.8c0,0,1.1,0.5,1.4,1.1c0.3,0.5,1.6,2.4,2,3c0.1,0.1,0.1,0.1,0.1,0.1"/>
		<path class="st0" d="M22.3,30.1c-1.8-1-3-1.6-3.1-1.6c-0.4-0.2-0.3-0.8-0.3-0.8s0-0.1,0-1c0-0.9-0.6-1.2-0.6-1.2s-6.4-3.5-6.9-3.6
			c-0.5-0.2-0.7,0.4-0.7,0.4s0,0.7-0.1,1.1c-0.1,0.4-0.6,0.2-0.6,0.2S3.1,20,1.7,18.9s-1.4-2-1.4-2l0.1-2.5c0-0.6,0.2-1.1,0.6-1.6
			c0.6-0.8,1.6-1.3,1.6-1.3l15.1-8.9c1-0.6,2-0.9,3.1-1c0.7-0.1,1.6,0,2.4,0.4c0,0,0,0,0,0"/>
		<line class="st0" x1="10.6" y1="23.3" x2="18.9" y2="27.8"/>
		<path class="st0" d="M2.4,12.8c-0.1,0.2-0.1,0.3-0.1,0.5c0.1,0.5,0.4,1,1.3,1.6c3,1.6,6.6,3.4,6.6,3.4s2.4,1.2,5.1-0.8l1.8-1.2
			l0,0"/>
		<path class="st0" d="M19,12C19,12,19,12,19,12c-0.4-0.2-4.6-2.4-6.6-3.3c-2.1-0.9-3.9-0.1-3.9-0.1l-5.5,3.3c0,0-0.5,0.3-0.7,0.9"
			/>
		<path class="st0" d="M0.9,12.9c0,0-0.8,1.6,2.3,3.3C4.5,16.9,14,22,24,27.3"/>
		<path class="st0" d="M35.7,6.4c0.3,0.1,0.7,0.3,1.1,0.5c0.8,0.4,4.5,2.3,8.9,4.6"/>
		<path class="st0" d="M48.4,31.7c-1.8,0.4-3.8,0.6-5.1-0.1L21.7,20.2c-1.1-0.6-2.1-1.5-2.7-2.6c-0.8-1.6-1.2-3.9,1.5-6.5
			c0,0,2.5-2.2,5.9-3.8"/>
		<path class="st0" d="M26,6.9c-1.1,0.5-2.4,1.2-3.7,2.2c0,0-1.8,1-3.3,2.9c-0.8,0.9-1.4,2.1-1.7,3.5c-0.1,0.3-0.1,0.6-0.2,0.9
			c0,0.3,0,0.5,0,0.8c0,0-0.5,3.8,2.8,5.4c2.4,1.2,14.5,7.6,20.7,10.8"/>
		<path class="st0" d="M17.4,15.5C17.3,15.5,17.3,15.5,17.4,15.5c-0.8,0-1.5-0.4-1.4-0.9c0-0.5,0.7-0.8,1.5-0.8c0.1,0,0.3,0,0.4,0"
			/>
		<path class="st0" d="M2.4,12.8L2.4,12.8l-0.1,0.5l0,0.3c0,0.7,0.3,1.3,0.9,1.6c0,0,0,0,0,0c0.9,0.5,7.4,3.7,7.4,3.7
			s2.1,0.7,4.1-0.5c2-1.2,2.3-1.5,2.3-1.5"/>
		<line class="st0" x1="35.4" y1="4.8" x2="35.4" y2="4.8"/>
		<path class="st0" d="M27.2,0.7c0.5,0.2,1.4,0.5,1.8,0.7c0.6,0.2,3.9,1.9,3.9,1.9l2.4,1.3"/>
		<path class="st0" d="M22.7,28.1c0.3-0.4,0.8-0.7,1.3-0.9c0.2-0.1,0.5-0.1,0.7-0.2c0.8-0.1,1.8,0,2.7,0.4c1.5,0.7,4.1,1.9,4.1,1.9
			s2.7,1.8,3.2,2.1c0.6,0.3,1.3,1.3,1.3,1.3"/>
		<path class="st0" d="M74.3,61.3c-3.8-3.1-7.5-3.8-7.5-3.8c-6.7-2-18.7-8.7-21.2-9.8C43.1,46.6,32,40.7,30,39.9
			c-2-0.8-2.6-3.5-3.9-5.1c-0.6-0.8-1.1-1.2-1.5-1.5c-0.7-0.6-1.4-1.2-1.8-2c-0.2-0.4-0.5-0.8-0.6-1.2c-0.1-0.4-0.1-0.7,0-1.1
			c0-0.1,0.1-0.3,0.2-0.4c0-0.1,0.1-0.2,0.2-0.3"/>
		<path class="st0" d="M23,1.9c0-0.4,0.3-1,1.2-1.5c0.9-0.4,2-0.1,2.6,0.2c0.1,0.1,0.3,0.1,0.3,0.1c0.2,0.1,0.3,0.2,0.3,0.2
			s1.5,0.5,1.1,1.3c0,0-2.6,2.2-3.9,1.6c-1.3-0.6-1.5-1.1-1.5-1.1S23.1,2.4,23,2.1C23,2,23,2,23,1.9"/>
		<path class="st0" d="M31,32.7c0,0-0.9,0.3-1.7,1.1c-0.6,0.6-1.1,1.6-1.1,2.9"/>
		<path class="st0" d="M24.8,33.4l0.9-1.5l0.6-1c0,0,0.8-1.3,0.4-1.8s-1.6-1.2-1.6-1.2s-1.5-0.6-2.4,0.2c-0.1,0.1-0.1,0.1-0.2,0.2"
			/>
		<path class="st0" d="M53,16.5c0,0,3.1,0.6,4.4,1.3c1.2,0.6,2.6,3.1,2.6,3.1"/>
		<path class="st0" d="M40.1,18.9c-1.6,0.7-3.7,1-5.8,0.8c-5.1-0.3-9-2.9-8.9-5.8c0.1-1.8,1.7-3.3,4.1-4.1c0.3-0.1,0.6-0.2,0.9-0.3"
			/>
		<path class="st0" d="M34.1,19.2c-4.4-0.3-7.9-2.6-7.8-5.2c0.1-1.6,1.6-3,3.8-3.7c0,0,0,0,0.1,0"/>
		<path class="st0" d="M39.5,18.4c-1.5,0.6-3.3,0.9-5.3,0.8c-0.1,0-0.1,0-0.2,0"/>
		<path class="st0" d="M31.3,17.1c-1.7-0.5-3-1.4-3.5-2.4c-0.2-0.4-0.3-0.7-0.2-1.1c0.1-1.1,1-1.9,2.5-2.5"/>
		<path class="st0" d="M34.1,19.2C34.1,19.2,34.1,19.2,34.1,19.2c0.2-0.1,2.7-1.3,2.9-1.4c0.3-0.1,0-0.3,0-0.3s-0.2-0.1-0.4-0.2
			c-0.2-0.1-0.6,0-0.6,0c-0.7,0.1-1.5,0.2-2.3,0.2"/>
		<path class="st0" d="M31.8,11.4c1.3,1,2.9,2.3,4,3.5c0.9,1,2.3,2.3,3.7,3.5c0.2,0.2,0.4,0.3,0.5,0.5c1.6,1.5,3.1,2.7,3.4,2.8
			c0,0,1.2,1.1,1.9,2.4c0.7,1.3,2.5,3.6,2.6,3.7"/>
		<path class="st0" d="M23,1.9C23,1.9,23,1.9,23,1.9C23,2,23,2,23,2.1c0,0.5,0.1,1.8,1.1,3c0.5,0.6,1.2,1.2,1.8,1.8
			c0.1,0.1,0.2,0.2,0.4,0.3c0.9,0.8,1.7,1.5,1.7,1.5l1.4,1.1l0.1,0.1c0,0,0.2,0.1,0.5,0.4c0,0,0,0,0,0"/>
		<path class="st0" d="M47.8,27.6c0,0,0.6,1.2,0.6,1.9c0,0.4,0,1.3-0.1,2.2c0,0.5-0.2,1-0.3,1.3c-0.5,0.7-1.8,1-1.8,1
			c-2.7,0.1-4-0.3-4-0.3s-0.8-0.1-1.7-0.2c0,0,0,0,0,0c-1-0.2-2.2-0.3-2.8-0.6c-1-0.4-2.1,0.1-2.1,0.1"/>
		<path class="st0" d="M38.9,6.2c0.3,0.2,1,0.5,1.6,0.9c0.1,0.1,0.2,0.2,0.3,0.3c0.8,0.7,2.7,2.1,4.3,3.4c0.2,0.2,0.4,0.4,0.6,0.5
			c0.7,0.6,1.3,1.1,1.6,1.4c0,0,1.5,1.1,2.7,1.9c0,0,1.6,1.2,3,1.8"/>
		<path class="st0" d="M40.7,7.5C40.7,7.5,40.8,7.5,40.7,7.5c0.4,0,1.3-0.1,1.6-0.2"/>
		<path class="st0" d="M35.5,18.4c-0.7-0.2-1.3-0.5-1.8-0.9c-1.5-1.3-2.3-3.6-1.9-6c0-0.1,0-0.2,0.1-0.3c0-0.2,0.1-0.4,0.2-0.6
			c0.1-0.3,0.2-0.5,0.3-0.8c0.1-0.2,0.2-0.4,0.3-0.6c0.8-1.4,1.9-2.3,3.1-2.7c1-0.4,2-0.4,2.9-0.2c0.1,0,0.1,0,0.2,0c0,0,0,0,0,0
			c0.5,0.2,1.2,0.5,1.5,0.7l0.4,0.4c-0.7-1.2-2-2.4-3.3-2.7c-0.8-0.2-1.5-0.2-2.3,0c-0.7,0.2-1.4,0.5-2,1C32,6.5,31,7.9,30.4,9.5
			c-0.1,0.2-0.2,0.5-0.2,0.7c0,0,0,0,0,0.1c0,0.1-0.1,0.2-0.1,0.4c0,0.1-0.1,0.3-0.1,0.4c-0.4,2.3,0.1,4.5,1.3,6c0.7,1,1.8,1.7,3,2"
			/>
	</g>
</g>
</svg>
