<?xml version="1.0" encoding="utf-8"?>
<!-- Generator: Adobe Illustrator 23.0.0, SVG Export Plug-In . SVG Version: 6.00 Build 0)  -->
<svg version="1.1" id="图层_1" xmlns="http://www.w3.org/2000/svg" xmlns:xlink="http://www.w3.org/1999/xlink" x="0px" y="0px"
	 viewBox="0 0 67.6 80.3" style="enable-background:new 0 0 67.6 80.3;" xml:space="preserve">
<style type="text/css">
	.st0{enable-background:new    ;}
	.st1{clip-path:url(#SVGID_2_);}
	.st2{fill:#FFFFFF;}
	.st3{fill:none;stroke:#FFFFFF;stroke-width:0.3;stroke-miterlimit:10;}
	.st4{fill:none;stroke:#FFFFFF;stroke-width:0.2;stroke-miterlimit:10;}
	.st5{clip-path:url(#SVGID_4_);}
</style>
<g>
	<g>
		<g class="st0">
			<defs>
				<polygon id="SVGID_1_" class="st0" points="14.2,71.4 14.6,69.2 17.8,69.5 17.3,71.7 				"/>
			</defs>
			<clipPath id="SVGID_2_">
				<use xlink:href="#SVGID_1_"  style="overflow:visible;"/>
			</clipPath>
			<g class="st1">
				<g>
					<g>
						<g>
							<polyline class="st2" points="16.2,69.3 14.5,70.1 14.9,70.4 16.1,69.9 17.1,70.7 17.6,70.4 16.2,69.3 							"/>
							<polyline class="st2" points="17.1,70.7 16.3,71 15.8,70.5 15.2,70.8 16.2,71.6 17.5,71 17.1,70.7 							"/>
						</g>
					</g>
				</g>
			</g>
		</g>
	</g>
</g>
<path class="st3" d="M37.7,16.8l-2,5.9c0,0-0.1,0.7,0.3,0.9c0.4,0.2,0.7-0.4,0.7-0.4l1.9-5.6c0,0,0.3-0.9-0.2-1.1
	C38,16.1,37.7,16.8,37.7,16.8z"/>
<path class="st3" d="M29.6,2.1l1.9,0c0,0,0.4,0,0.4,0.3s-0.4,0.3-0.4,0.3l-2,0c0,0-0.3,0-0.2-0.3S29.6,2.1,29.6,2.1z"/>
<ellipse transform="matrix(9.393378e-02 -0.9956 0.9956 9.393378e-02 27.2871 34.8253)" class="st3" cx="32.8" cy="2.4" rx="0.3" ry="0.2"/>
<ellipse transform="matrix(0.866 -0.5 0.5 0.866 -28.5979 15.7292)" class="st4" cx="15.1" cy="61.2" rx="0.1" ry="0.1"/>
<ellipse transform="matrix(0.866 -0.5 0.5 0.866 -28.5488 16.002)" class="st4" cx="15.6" cy="61.3" rx="0.1" ry="0.1"/>
<ellipse transform="matrix(0.866 -0.5 0.5 0.866 -28.5015 16.2796)" class="st4" cx="16.1" cy="61.3" rx="0.1" ry="0.1"/>
<ellipse transform="matrix(0.866 -0.5 0.5 0.866 -28.4594 16.5422)" class="st4" cx="16.6" cy="61.4" rx="0.1" ry="0.1"/>
<ellipse transform="matrix(0.866 -0.5 0.5 0.866 -28.4233 16.8123)" class="st4" cx="17.2" cy="61.4" rx="0.1" ry="0.1"/>
<ellipse transform="matrix(0.866 -0.5 0.5 0.866 -28.3697 17.0791)" class="st4" cx="17.7" cy="61.5" rx="0.1" ry="0.1"/>
<ellipse transform="matrix(0.866 -0.5 0.5 0.866 -28.3189 17.358)" class="st4" cx="18.2" cy="61.5" rx="0.1" ry="0.1"/>
<ellipse transform="matrix(0.866 -0.5 0.5 0.866 -29.4835 10.8739)" class="st4" cx="5.5" cy="60.5" rx="0.1" ry="0.1"/>
<ellipse transform="matrix(0.866 -0.5 0.5 0.866 -29.4362 11.1515)" class="st4" cx="6.1" cy="60.5" rx="0.1" ry="0.1"/>
<ellipse transform="matrix(0.866 -0.5 0.5 0.866 -29.3941 11.4141)" class="st4" cx="6.6" cy="60.6" rx="0.1" ry="0.1"/>
<ellipse transform="matrix(0.866 -0.5 0.5 0.866 -29.358 11.6841)" class="st4" cx="7.1" cy="60.6" rx="0.1" ry="0.1"/>
<ellipse transform="matrix(0.866 -0.5 0.5 0.866 -29.3044 11.9509)" class="st4" cx="7.6" cy="60.7" rx="0.1" ry="0.1"/>
<ellipse transform="matrix(0.866 -0.5 0.5 0.866 -29.2536 12.2298)" class="st4" cx="8.2" cy="60.7" rx="0.1" ry="0.1"/>
<g>
	<g class="st0">
		<defs>
			<polygon id="SVGID_3_" class="st0" points="18,20.7 19.6,14.9 32.6,14.9 31,20.8 			"/>
		</defs>
		<clipPath id="SVGID_4_">
			<use xlink:href="#SVGID_3_"  style="overflow:visible;"/>
		</clipPath>
		<g class="st5">
			<path class="st2" d="M31.3,17.2l-0.5,1.7c0,0,0,0,0,0L31.3,17.2C31.3,17.2,31.3,17.2,31.3,17.2 M21,14.9c-0.3,0-0.6,0.1-0.9,0.3
				c-0.3,0.2-0.5,0.5-0.6,0.8l-1,3.3c-0.2,0.6,0.2,1.1,0.9,1.2l9.7,0.3l0,0c0.7,0,1.3-0.5,1.5-1.1l0.2-0.6c0,0-0.1,0-0.1,0l-0.2,0
				l-0.2,0.5c-0.1,0.5-0.7,0.9-1.2,0.9l0,0l-9.7-0.3c-0.5,0-0.8-0.4-0.7-0.9l1-3.3c0.1-0.2,0.2-0.5,0.5-0.6c0.2-0.2,0.5-0.2,0.7-0.2
				l0,0l9.7,0.3c0.5,0,0.8,0.4,0.7,0.9l-0.6,2l0.4-1.4l0.1,0c0,0,0.1,0,0.1,0l0.2-0.6c0.2-0.6-0.2-1.1-0.9-1.2L21,14.9
				C21,14.9,21,14.9,21,14.9"/>
			<path class="st2" d="M30.8,18.8l0.5-1.7c0,0,0,0,0,0c0.1,0,0.2,0.1,0.2,0.2c0,0.1,0,0.2,0,0.3l-0.2,0.8
				C31.2,18.7,31,18.8,30.8,18.8C30.8,18.8,30.8,18.8,30.8,18.8 M31.1,16.9l-0.4,1.4l-0.2,0.8l0,0l0.2,0c0,0,0.1,0,0.1,0
				c0.3-0.1,0.7-0.2,0.8-0.6l0.2-0.8c0-0.2,0-0.3,0-0.4c-0.1-0.1-0.2-0.3-0.4-0.3c0,0-0.1,0-0.1,0L31.1,16.9"/>
			<polyline class="st2" points="25.6,15.7 23.8,18 24.4,18 23.8,19.8 25.6,17.5 25.1,17.4 25.6,15.7 			"/>
		</g>
	</g>
</g>
<g id="XMLID_2_">
	<g>
		<path class="st3" d="M33.7,41.3c2.3,0,4.1,0,4.1,0"/>
		<path class="st3" d="M42.1,40.3l-2.4,0c-0.1,0-1,0-1.7,1.1c-0.2,0.2-0.3,0.5-0.4,0.8c-0.7,2-5.9,17.2-5.9,17.2s-1.9,6.1-9.4,6.8
			c-0.2,0-0.4,0-0.7,0c-0.1,0-0.3,0-0.5,0c-2.3,0-4-0.1-5.5-0.3c-3.9-0.5-4.9-1.7-4.9-1.7s-1.4-0.8-1.9-2.8"/>
		<line class="st3" x1="42.3" y1="40.3" x2="42.1" y2="40.3"/>
		<path class="st3" d="M26.9,76.3C26.9,76.3,26.9,76.3,26.9,76.3c0,0-8.2-0.6-15.2-1.2c-4.6-0.4-8.7-0.7-9.4-0.7
			c-1.8-0.2-1.1-2.5-1.1-2.5L5,61.2"/>
		<path class="st3" d="M27.2,76.3c0,0-0.1,0-0.1,0"/>
		<path class="st3" d="M48.9,46.4c-0.2-0.7-0.4-1.2-0.4-1.5c-0.6-1.9-1.7-2.5-1.7-2.5s-2.5-1.5-4-2.1c-0.2-0.1-0.4-0.1-0.6-0.1
			c-0.1,0-0.1,0-0.2,0c0,0,0,0-0.1,0c-0.9,0.1-1.3,1.1-1.3,1.1s-10.1,29.8-11,32.4c-0.6,1.9-1.8,2.3-2.4,2.4"/>
		<path class="st3" d="M27.4,76.2c3.4-0.3,24.7-1.9,27.5-2.1c0.1,0,0.2,0,0.2,0c1.7-0.1,1.3-2,1.3-2s-0.9-3.2-2.1-7.4"/>
		<path class="st3" d="M27.4,76.2C27.3,76.2,27.3,76.2,27.4,76.2c-0.1,0-0.1,0-0.2,0"/>
		<path class="st3" d="M27.1,76.3c0,0,0.1,0,0.1,0"/>
		<path class="st3" d="M27.1,76.3c-0.1,0-0.1,0-0.2,0"/>
		<path class="st3" d="M15.6,65.9c-3-0.8-4.2-2.6-4.6-4.2"/>
		<path class="st3" d="M18.7,66.1l0.5-1.5c0,0,0.1-0.3,0.3-0.3c0.3,0,2.5,0.2,2.5,0.2s0.6,0.3,0.6,0.5c0,0.2-0.3,0.9-0.3,1.2
			c0,0,0,0.1,0,0.1"/>
		<line class="st3" x1="22" y1="64.5" x2="21.6" y2="66.2"/>
		<path class="st3" d="M48.2,46.4c-0.3-0.9-0.4-1.5-0.4-1.5s-0.3-1.1-1-1.5c-0.5-0.3-3.4-1.9-4-2.2c-0.1,0-0.1,0-0.2-0.1
			c-0.3-0.1-1,0.1-1.4,1.4c-0.6,1.7-10.7,31.6-10.7,31.6s-0.5,1.7-1.7,2"/>
		<path class="st3" d="M54.8,74.1c0,0,1.1-0.6,0.9-1.5c-0.1-0.3-1-3.7-2.3-8"/>
		<path class="st3" d="M11.7,75.1V78c0,0,0.2,2.1,17,2.1s16.9-2.1,16.9-2.1v-3.1"/>
		<path class="st3" d="M38.7,20.3l1,1c0,0,0.6,0.9,0.1,2.2c-0.2,0.7-3.3,9.6-6.2,17.8C31.2,48.4,29,55,29,55s-0.9,3.1-3.8,4.2"/>
		<path class="st3" d="M40.7,1c0-0.1-0.1-0.2-0.2-0.2c0,0,0-0.4,0.2-0.3c0.2,0.1,2.3,1.7,2.3,1.7s1.3,1.3,0.2,4.5
			c-0.7,2-7,20.6-11.8,34.6c-3,8.8-5.4,15.9-5.4,15.9s-0.3,0.9-0.9,2c-0.8,1.4-2.1,3-4.1,3.2c0,0-0.7,0-1.4,0
			c-0.4,0-4.7-0.4-8.6-0.7c-0.8-0.1-1.5-0.1-2.2-0.2c-1.8-0.2-3.2-0.3-3.9-0.3c-0.2,0-0.4,0-0.4,0S3.8,61,3.5,60.8
			c-0.3-0.2-2.3-1.4-2.3-1.4s0,0,0,0c-0.1-0.1-1.5-1.4-0.7-4.2c0.9-3,10.6-30.4,10.6-30.4s0.2-0.3,0.5-0.3"/>
		<path class="st3" d="M21,62.3c0,0-0.4-0.6-0.7-0.8C20,61.3,20,61.3,20,61.3s-0.6-0.6,0.5-1.4c1-0.9,1.9-1.1,3.4-5.4
			c0.6-1.8,2.5-7.3,4.5-13.2c2.8-8,5.7-16.5,5.7-16.5s0.1-0.2,0.2-0.3c0.2-0.2,0.5-0.4,1-0.2c0.8,0.4,0.8,0.4,0.8,0.4
			s0.6,0.2,0.8-0.4l2.6-7.5c0,0,0.4-0.8-0.1-1.2c-0.5-0.3-1.7-1.4-1.3-2.4c0.4-1.1,2.8-8.3,2.8-8.3l0.3-1c0,0,0.2-1.8-0.4-2.8"/>
		<path class="st3" d="M1.3,58.7c0.3,0.4,0.8,0.6,1.6,0.7c0.6,0,1.5,0.1,2.7,0.2c0.9,0.1,2,0.1,3.1,0.2c0.8,0,1.5,0.1,2.3,0.2
			c3.9,0.3,7.6,0.5,7.6,0.5s1.3,0,1.8-0.4"/>
		<path class="st3" d="M40.7,1C40.7,1,40.7,1,40.7,1c-0.4-0.5-1.6-0.6-1.6-0.6L23.8,0.3c0,0-3.4,0.1-4.8,3.2C17.8,6.8,1.1,55,1.1,55
			s-0.8,2.4,0.2,3.6"/>
		<path class="st3" d="M5.8,58.9c-1.5-0.1-2.5-0.2-2.5-0.2S0.5,58.6,1.6,55C2.4,52.4,19.6,3.9,19.6,3.9s1-2.5,3.4-2.4l1.8,0.1
			c0,0,0.4,0.1,0.3,0.4l-0.2,0.7c0,0-0.2,1.1,0.9,1.1c1.1,0,8.7,0,8.7,0s1.1,0,1.5-1.1L36.3,2c0,0,0.1-0.4,0.8-0.4
			c0.6,0,2,0.1,2,0.1s2.1,0.3,1.3,2.8c-0.5,1.6-7.6,22.2-12.6,36.7c-2.8,8.2-5,14.5-5,14.5s-1.3,4-4.8,3.8c-1.4-0.1-4.2-0.3-7-0.4
			c-0.8-0.1-1.5-0.1-2.3-0.1C7.6,59,6.6,58.9,5.8,58.9z"/>
		<path class="st3" d="M22.7,0.4l-0.6-0.2c0,0-0.1,0-0.3,0c-0.1,0.1-2.1,0.4-3.4,3.4L17,7.9c0,0-0.3,0.8,0.2,0.9"/>
		<line class="st3" x1="37.9" y1="13.9" x2="34.3" y2="24.4"/>
		<path class="st3" d="M11,61.1l-0.7,0c0,0-0.5,0-0.5-0.3c0-0.2,0.2-0.2,0.2-0.2l1,0.1l1.9,0.2c0,0,0.3,0,0.3,0.2
			c0,0.2-0.4,0.2-0.4,0.2L11,61.1z"/>
		<path class="st4" d="M5.1,60.4c0,0.1,0,0.1,0,0.2c-0.1,0-0.1,0-0.2-0.1c0-0.1,0-0.1,0-0.2C5,60.3,5.1,60.3,5.1,60.4z"/>
		<path class="st3" d="M1.2,59.3c0,0,0.4-0.2,0.1-0.7c0,0,0,0-0.1-0.1"/>
		<path class="st3" d="M65.6,47.2c-1.9-0.1-12.2-0.6-16.7-0.8c-0.3,0-0.5,0-0.7,0c-0.9,0-1.4-0.1-1.4-0.1s-1.2-0.1-1.5,0.9L41,60.4
			c0,0-1.1,3.3,1.7,3.5c1.5,0.1,6.4,0.4,10.8,0.7c0.2,0,0.5,0,0.7,0c3.7,0.3,6.9,0.5,6.9,0.5"/>
		<path class="st3" d="M62.2,47.1c0,0-0.8,0-1.7,2.8c-1,2.8-3.7,11.3-3.7,11.3s-1,2.9,0.7,3.8"/>
		<path class="st3" d="M49.6,48.7c1.9-1.2,3.9-1.4,5.4-0.5c2.4,1.5,2.5,5.6,0.3,9.1c-0.7,1.1-1.5,1.9-2.4,2.6
			c-0.2,0.2-0.4,0.3-0.6,0.4c-1.9,1.2-3.9,1.4-5.4,0.5c-2.4-1.5-2.5-5.6-0.3-9.1c0.7-1.1,1.5-2,2.4-2.6C49.2,49,49.4,48.9,49.6,48.7
			z"/>
		<path class="st3" d="M50.2,50.7c1.2-0.7,2.4-0.8,3.3-0.3c1.5,1,1.6,3.6,0.2,5.8c-0.4,0.6-0.9,1.2-1.5,1.6
			c-0.2,0.1-0.4,0.3-0.6,0.4c-1.2,0.7-2.4,0.8-3.3,0.2c-1.5-1-1.6-3.6-0.2-5.8c0.4-0.6,0.9-1.2,1.4-1.6C49.8,50.9,50,50.8,50.2,50.7
			z"/>
		<path class="st3" d="M61.4,65.1C59.3,65,60,62.4,60,62.4L64.5,48c0,0,0.3-0.7,1.1-0.8c0.2,0,0.4,0,0.7,0.1c0.6,0.2,0.9,1,1,1.7
			c0.1,0.7,0,1.4-0.3,2.1l-4,12.6C63,63.7,62.5,65.2,61.4,65.1z"/>
	</g>
</g>
<polygon class="st2" points="42.4,30.2 41,34 42.8,34.6 44.2,30.9 45.5,31.4 44.1,28.3 41,29.7 "/>
<polygon class="st2" points="2.8,25.4 1.2,29 3,29.8 4.6,26.2 5.9,26.7 4.7,23.6 1.5,24.8 "/>
</svg>
