<svg xmlns="http://www.w3.org/2000/svg" width="46.03" height="75" viewBox="0 0 46.03 75">
  <defs>
    <style>
      .cls-1 {
        fill: #fff;
        fill-rule: evenodd;
      }
    </style>
  </defs>
  <path id="圆角矩形_3" data-name="圆角矩形 3" class="cls-1" d="M1351.29,3920.42l-2.06,4.81,2.75,0.69-2.07,4.12h2.07l2.06-4.81-2.75-.69,1.37-4.12h-1.37Zm41,0-2.06,4.81,2.75,0.69-2.07,4.12h2.07l2.06-4.81-2.75-.69,1.37-4.12h-1.37ZM1349,3935.03h46V3963a23,23,0,0,1-46,0v-27.97Zm5,0h36V3963a18,18,0,0,1-36,0v-27.97Z" transform="translate(-1349 -3915.705)"/>
</svg>
