<?xml version="1.0" encoding="utf-8"?>
<!-- Generator: Adobe Illustrator 23.0.0, SVG Export Plug-In . SVG Version: 6.00 Build 0)  -->
<svg version="1.1" id="图层_1" xmlns="http://www.w3.org/2000/svg" xmlns:xlink="http://www.w3.org/1999/xlink" x="0px" y="0px"
	 viewBox="0 0 37.98 37.98" style="enable-background:new 0 0 37.98 37.98;" xml:space="preserve">
<style type="text/css">
	.st0{fill:#FFFFFF;}
	.st1{fill:none;stroke:#FFFFFF;stroke-width:0.5687;stroke-miterlimit:10;}
</style>
<g>
	<path class="st0" d="M13.44,18.9c0,3.38,1.42,6.54,3.87,8.78c0.32,0.3,0.35,0.8,0.05,1.12c-0.3,0.32-0.8,0.35-1.12,0.05
		c-2.77-2.54-4.38-6.11-4.38-9.95c0-3.94,3.19-7.14,7.14-7.14s7.14,3.19,7.14,7.14c0,0.44-0.35,0.79-0.79,0.79
		c-0.44,0-0.79-0.35-0.79-0.79c0-3.07-2.48-5.55-5.55-5.55S13.44,15.83,13.44,18.9L13.44,18.9z M16.61,18.9
		c0,3.76,2.4,7.06,5.9,8.25c0.41,0.14,0.64,0.59,0.49,1.01c-0.14,0.41-0.59,0.64-1.01,0.49c-4.13-1.42-6.97-5.31-6.97-9.75
		c0-2.19,1.77-3.96,3.96-3.96c2.19,0,3.96,1.77,3.96,3.96c0,1.31,1.06,2.38,2.38,2.38c1.31,0,2.38-1.06,2.38-2.38
		c0-4.82-3.9-8.72-8.72-8.72c-4.82,0-8.72,3.9-8.72,8.72c0,2.71,0.71,5.31,2.05,7.59c0.22,0.38,0.09,0.86-0.28,1.08
		c-0.38,0.22-0.86,0.09-1.08-0.28c-1.48-2.53-2.27-5.4-2.27-8.39c0-5.69,4.61-10.31,10.31-10.31S29.3,13.21,29.3,18.9
		c0,2.19-1.77,3.96-3.96,3.96c-2.19,0-3.96-1.77-3.96-3.96c0-1.31-1.06-2.38-2.38-2.38C17.68,16.52,16.61,17.59,16.61,18.9
		L16.61,18.9z M18.2,18.9c0-0.44,0.35-0.79,0.79-0.79c0.44,0,0.79,0.35,0.79,0.79c0,3.07,2.48,5.55,5.55,5.55
		c0.72,0,1.42-0.14,2.07-0.4c0.41-0.16,0.87,0.03,1.03,0.44c0.16,0.41-0.03,0.87-0.44,1.03c-0.84,0.34-1.74,0.51-2.66,0.51
		C21.39,26.03,18.2,22.84,18.2,18.9L18.2,18.9z M18.2,18.9"/>
</g>
<circle class="st1" cx="18.99" cy="18.82" r="16.97"/>
</svg>
