<?xml version="1.0" encoding="utf-8"?>
<!-- Generator: Adobe Illustrator 23.0.0, SVG Export Plug-In . SVG Version: 6.00 Build 0)  -->
<svg version="1.1" id="图层_1" xmlns="http://www.w3.org/2000/svg" xmlns:xlink="http://www.w3.org/1999/xlink" x="0px" y="0px"
	 viewBox="0 0 37.98 37.98" style="enable-background:new 0 0 37.98 37.98;" xml:space="preserve">
<style type="text/css">
	.st0{fill:#FFFFFF;}
	.st1{font-family:'Montserrat-Medium';}
	.st2{font-size:2.4366px;}
</style>
<g>
	<g>
		<path class="st0" d="M34.08,9.58c0.46,0,0.83,0.37,0.83,0.83v17.16c0,0.46-0.37,0.83-0.83,0.83H3.9c-0.46,0-0.83-0.37-0.83-0.83
			V10.41c0-0.46,0.37-0.83,0.83-0.83H34.08 M34.08,8.19H3.9c-1.23,0-2.22,1-2.22,2.22v17.16c0,1.23,1,2.22,2.22,2.22h30.18
			c1.23,0,2.22-1,2.22-2.22V10.41C36.31,9.18,35.31,8.19,34.08,8.19L34.08,8.19z"/>
	</g>
	
		<rect x="16.68" y="6.47" transform="matrix(6.123234e-17 -1 1 6.123234e-17 -4.798 42.7822)" class="st0" width="4.63" height="34.63"/>
	<text transform="matrix(1 0 0 1 4.9368 15.8056)" class="st0 st1 st2">Card</text>
</g>
</svg>
