<?xml version="1.0" encoding="utf-8"?>
<!-- Generator: Adobe Illustrator 24.0.1, SVG Export Plug-In . SVG Version: 6.00 Build 0)  -->
<svg version="1.1" id="图层_1" xmlns="http://www.w3.org/2000/svg" xmlns:xlink="http://www.w3.org/1999/xlink" x="0px" y="0px"
	 viewBox="0 0 10.9 5.9" style="enable-background:new 0 0 10.9 5.9;" xml:space="preserve">
<style type="text/css">
	.st0{fill:#FFFFFF;}
</style>
<title>资源 8</title>
<g id="图层_2_1_">
	<g id="图层_1-2">
		<path class="st0" d="M5.6,3.9c0-0.1,0-0.2-0.1-0.2C5.4,3.6,5.3,3.6,5.2,3.5v0.7c0.1,0,0.2,0,0.3-0.1C5.6,4.1,5.6,4,5.6,3.9z"/>
		<path class="st0" d="M4.9,2.4c-0.1,0-0.2,0-0.3,0.1C4.5,2.6,4.5,2.7,4.5,2.8c0,0.1,0,0.2,0.1,0.2c0.1,0.1,0.2,0.1,0.3,0.1V2.4z"/>
		<path class="st0" d="M0,5.9h10.1V0.7H0V5.9z M4.5,3.3c-0.1,0-0.2-0.1-0.3-0.2C4.2,3,4.2,2.9,4.2,2.8c0-0.2,0.1-0.3,0.2-0.5
			c0.2-0.1,0.4-0.2,0.6-0.2V1.7h0.2v0.4c0.1,0,0.2,0,0.4,0.1c0.1,0,0.2,0.1,0.3,0.1L5.7,2.6C5.6,2.5,5.4,2.4,5.2,2.4v0.8
			c0.1,0,0.3,0.1,0.4,0.1c0.1,0,0.2,0.1,0.3,0.2c0.1,0.1,0.1,0.2,0.1,0.3c0,0.2-0.1,0.3-0.2,0.4C5.6,4.5,5.4,4.5,5.2,4.5v0.4H4.9
			V4.5c-0.2,0-0.3,0-0.5-0.1c-0.1,0-0.2-0.1-0.3-0.2L4.2,4c0.1,0.1,0.2,0.1,0.3,0.2c0.1,0,0.3,0.1,0.4,0.1V3.5
			C4.8,3.4,4.7,3.4,4.5,3.3z"/>
		<polygon class="st0" points="0.4,0.4 0.4,0.6 10.2,0.6 10.2,5.6 10.5,5.6 10.5,0.6 10.5,0.4 10.2,0.4 		"/>
		<polygon class="st0" points="10.6,0 0.9,0 0.9,0.3 10.6,0.3 10.6,5.2 10.9,5.2 10.9,0.3 10.9,0 		"/>
	</g>
</g>
</svg>
