<?xml version="1.0" encoding="utf-8"?>
<!-- Generator: Adobe Illustrator 24.0.1, SVG Export Plug-In . SVG Version: 6.00 Build 0)  -->
<svg version="1.1" id="图层_1" xmlns="http://www.w3.org/2000/svg" xmlns:xlink="http://www.w3.org/1999/xlink" x="0px" y="0px"
	 viewBox="0 0 9.3 9.3" style="enable-background:new 0 0 9.3 9.3;" xml:space="preserve">
<style type="text/css">
	.st0{fill:#FFFFFF;}
</style>
<title>资源 10</title>
<g id="图层_2_1_">
	<g id="图层_1-2">
		<path class="st0" d="M8.4,0.3C8.3,0.1,8.1,0,7.9,0H5v1.9h4.3L8.4,0.3z"/>
		<path class="st0" d="M4.3,0H1.4C1.1,0,0.9,0.1,0.8,0.3L0,1.9h4.3V0z"/>
		<path class="st0" d="M0,8.7C0,9,0.2,9.3,0.5,9.3c0,0,0,0,0,0h8.2C9,9.3,9.3,9,9.3,8.7c0,0,0,0,0,0V2.5H0V8.7z M6.5,5.6h1.2
			L7.4,5.3L7.7,5l0.9,0.8L7.7,6.6L7.4,6.3L7.7,6H6.5V5.6z M1.1,5.4h2.4v0.8H1.1V5.4z M1.1,6.9h3.2v0.8H1.1V6.9z"/>
	</g>
</g>
</svg>
