<?xml version="1.0" encoding="utf-8"?>
<!-- Generator: Adobe Illustrator 24.0.1, SVG Export Plug-In . SVG Version: 6.00 Build 0)  -->
<svg version="1.1" id="图层_1" xmlns="http://www.w3.org/2000/svg" xmlns:xlink="http://www.w3.org/1999/xlink" x="0px" y="0px"
	 viewBox="0 0 8.7 9.2" style="enable-background:new 0 0 8.7 9.2;" xml:space="preserve">
<style type="text/css">
	.st0{fill:#FFFFFF;}
</style>
<title>资源 11</title>
<g id="图层_2_1_">
	<g id="图层_1-2">
		<path class="st0" d="M2.9,1.6L0.2,6.4C0,6.6,0,6.9,0,7.1l0.3,2l1.9-0.8C2.4,8.2,2.6,8,2.7,7.8l2.8-4.7L2.9,1.6z M3.3,1l0.5-0.9
			C3.8,0,4-0.1,4.1,0c0,0,0,0,0,0l2.2,1.3c0.1,0.1,0.1,0.2,0.1,0.3L5.8,2.5C5.8,2.6,5.6,2.6,5.5,2.6c0,0,0,0,0,0L3.3,1.3
			C3.2,1.3,3.2,1.1,3.3,1C3.3,1,3.3,1,3.3,1z M3.2,8.4h5.5v0.8H3.2V8.4z"/>
	</g>
</g>
</svg>
