<?xml version="1.0" encoding="utf-8"?>
<!-- Generator: Adobe Illustrator 24.0.1, SVG Export Plug-In . SVG Version: 6.00 Build 0)  -->
<svg version="1.1" id="图层_1" xmlns="http://www.w3.org/2000/svg" xmlns:xlink="http://www.w3.org/1999/xlink" x="0px" y="0px"
	 viewBox="0 0 518.8 518.8" style="enable-background:new 0 0 518.8 518.8;" xml:space="preserve">
<style type="text/css">
	.st0{fill:#FFFFFF;}
</style>
<title>资源 1</title>
<g id="图层_2_1_">
	<g id="图层_1-2">
		<path class="st0" d="M465.1,348.1H345.5v-46.6l-61,108.6l61,108.7v-46.4h61c15.3,0,29.4-8.2,36.8-21.5l75.5-134.3
			C507.7,336.1,487.2,348.4,465.1,348.1L465.1,348.1z M379.5,161.1l61.2-108.6l-39.2,23.4c0,0-15.3-27.4-21.6-38.4
			c-8.6-15.2-24.6-25-41.8-24.8c-17.4,0.2-33.4,9.7-41.8,25c0,0-14,24.8-28,50.1l28.5,50.7l-39.4,22.9L379.5,161.1z M144,285
			L84.1,391.3c-11.2,19.7-11.3,43.9-0.3,63.6L8.3,320.6c-7.6-13.6-7.5-30.1,0.3-43.6l30.6-54.1L0,199.8h122.2l61,108.7L144,285z
			 M410.4,335.1l-61-108.6l104.8-62.1c23.9,42.9,54.2,96.6,54.2,96.6c8.8,15.3,8.9,34.1,0.3,49.6c-8.6,15.1-24.6,24.5-42,24.5
			L410.4,335.1z M94.4,399.5c0,0,14-24.8,28.3-50.3h122.2v124.4H136.2c-17.5,0.2-33.6-9.2-42-24.5C85.6,433.6,85.7,414.8,94.4,399.5
			L94.4,399.5z M285.9,31.5c-14.3,25.3-93.4,165.9-93.1,165.9L87.4,135c0,0,50.3-90.8,63.6-112.9C158.5,9,171.7,0,187.6,0h151
			C316.5,0,297,11.7,285.9,31.5L285.9,31.5z"/>
	</g>
</g>
</svg>
