<?xml version="1.0" encoding="utf-8"?>
<!-- Generator: Adobe Illustrator 24.0.1, SVG Export Plug-In . SVG Version: 6.00 Build 0)  -->
<svg version="1.1" id="图层_1" xmlns="http://www.w3.org/2000/svg" xmlns:xlink="http://www.w3.org/1999/xlink" x="0px" y="0px"
	 viewBox="0 0 8.7 9.7" style="enable-background:new 0 0 8.7 9.7;" xml:space="preserve">
<style type="text/css">
	.st0{fill:#FFFFFF;}
</style>
<title>资源 9</title>
<g id="图层_2_1_">
	<g id="图层_1-2">
		<path class="st0" d="M8.7,2.2L8.7,2.2C8.4,2.2,8,2.1,7.6,2L7.3,1.9C7,1.8,6.7,1.7,6.4,1.5l0,0L6.1,1.4L5.8,1.1l0,0L5.5,0.9
			L5.3,0.8L5.2,0.7C4.9,0.5,4.6,0.3,4.4,0C4.1,0.3,3.8,0.5,3.5,0.7L3.4,0.8L3.2,0.9L3,1.1l0,0L2.7,1.3L2.4,1.5l0,0
			C2.1,1.6,1.8,1.8,1.5,1.8L1.1,2C0.8,2.1,0.4,2.2,0,2.2l0,0c0,0.2,0,0.4,0,0.7l0,0c0.1,1,0.2,2,0.5,3c0,0.1,0,0.1,0.1,0.1l0,0
			c0.5,1.6,1.7,2.9,3.3,3.5l0,0c0.2,0.1,0.3,0.1,0.5,0.1c0.2,0,0.3-0.1,0.5-0.1l0,0C6.4,8.9,7.6,7.6,8.1,6l0,0c0,0,0-0.1,0-0.1
			c0.3-1,0.5-2,0.5-3l0,0c0-0.3,0-0.5,0-0.7L8.7,2.2z M4.1,6.8L2.4,5l0.3-0.3l1.4,1.4l2.5-2.3l0.3,0.4L4.1,6.8z"/>
	</g>
</g>
</svg>
