<?xml version="1.0" encoding="utf-8"?>
<!-- Generator: Adobe Illustrator 23.0.0, SVG Export Plug-In . SVG Version: 6.00 Build 0)  -->
<svg version="1.1" id="图层_1" xmlns="http://www.w3.org/2000/svg" xmlns:xlink="http://www.w3.org/1999/xlink" x="0px" y="0px"
	 viewBox="0 0 37.98 37.98" style="enable-background:new 0 0 37.98 37.98;" xml:space="preserve">
<style type="text/css">
	.st0{fill:#FFFFFF;}
	.st1{fill:none;stroke:#FFFFFF;stroke-width:0.9441;stroke-linecap:round;stroke-miterlimit:10;}
	.st2{fill:none;stroke:#FFFFFF;stroke-width:1.3139;stroke-miterlimit:10;}
	.st3{fill:none;stroke:#FFFFFF;stroke-width:1.3906;stroke-miterlimit:10;}
	.st4{fill:none;stroke:#FFFFFF;stroke-width:0.5226;stroke-miterlimit:10;}
	.st5{fill:none;stroke:#FFFFFF;stroke-width:0.9441;stroke-miterlimit:10;}
	.st6{fill:none;stroke:#FFFFFF;stroke-width:0.5915;stroke-miterlimit:10;}
	.st7{fill:#FFFFFF;stroke:#FFFFFF;stroke-width:0;stroke-miterlimit:10;}
	.st8{fill:none;stroke:#FFFFFF;stroke-miterlimit:10;}
	.st9{fill:none;stroke:#FFFFFF;stroke-linecap:round;stroke-linejoin:round;stroke-miterlimit:10;}
	.st10{fill:none;stroke:#FFFFFF;stroke-width:1.3906;stroke-linecap:round;stroke-miterlimit:10;}
	.st11{fill-rule:evenodd;clip-rule:evenodd;fill:none;stroke:#FFFFFF;stroke-width:1.3906;stroke-miterlimit:10;}
	.st12{fill-rule:evenodd;clip-rule:evenodd;fill:none;stroke:#FFFFFF;stroke-width:0.9441;stroke-miterlimit:10;}
	.st13{fill-rule:evenodd;clip-rule:evenodd;fill:none;stroke:#FFFFFF;stroke-width:0.5915;stroke-miterlimit:10;}
	.st14{fill:none;stroke:#FFFFFF;stroke-width:1.4964;stroke-miterlimit:10;}
	.st15{fill:none;stroke:#FFFFFF;stroke-width:1.4979;stroke-linecap:round;stroke-miterlimit:10;}
	.st16{fill:none;stroke:#FFFFFF;stroke-width:0.4896;stroke-miterlimit:10;}
	.st17{fill:none;stroke:#FFFFFF;stroke-width:0.5515;stroke-miterlimit:10;}
	.st18{fill-rule:evenodd;clip-rule:evenodd;fill:none;stroke:#FFFFFF;stroke-width:1.8871;stroke-miterlimit:10;}
	.st19{fill:none;stroke:#FFFFFF;stroke-width:1.3098;stroke-miterlimit:10;}
	.st20{fill:none;stroke:#FFFFFF;stroke-width:1.8871;stroke-linecap:round;stroke-miterlimit:10;}
	.st21{fill-rule:evenodd;clip-rule:evenodd;fill:none;stroke:#FFFFFF;stroke-width:0.6173;stroke-miterlimit:10;}
	.st22{fill-rule:evenodd;clip-rule:evenodd;fill:none;stroke:#FFFFFF;stroke-width:0.3868;stroke-miterlimit:10;}
	.st23{fill:none;stroke:#FFFFFF;stroke-width:1.6605;stroke-miterlimit:10;}
	.st24{fill-rule:evenodd;clip-rule:evenodd;fill:none;stroke:#FFFFFF;stroke-width:1.4489;stroke-miterlimit:10;}
	.st25{fill-rule:evenodd;clip-rule:evenodd;fill:none;stroke:#FFFFFF;stroke-width:0.9077;stroke-miterlimit:10;}
	.st26{fill:none;stroke:#FFFFFF;stroke-width:0.0145;stroke-miterlimit:10;}
	.st27{fill:none;stroke:#FFFFFF;stroke-width:1.1586;stroke-miterlimit:10;}
	.st28{fill:none;stroke:#FFFFFF;stroke-width:1.3665;stroke-miterlimit:10;}
	.st29{fill:none;stroke:#FFFFFF;stroke-width:1.5609;stroke-miterlimit:10;}
	.st30{fill:none;stroke:#FFFFFF;stroke-width:1.6987;stroke-miterlimit:10;}
	.st31{fill:#221814;stroke:#FFFFFF;stroke-miterlimit:10;}
	.st32{fill:none;stroke:#FFFFFF;stroke-width:1.6838;stroke-miterlimit:10;}
	.st33{fill:none;stroke:#FFFFFF;stroke-width:1.2082;stroke-miterlimit:10;}
	.st34{fill:none;stroke:#FFFFFF;stroke-width:1.1058;stroke-miterlimit:10;}
</style>
<g>
	<path class="st0" d="M18.99,1.49c4.67,0,9.07,1.82,12.37,5.13c6.82,6.82,6.82,17.92,0,24.75c-3.31,3.3-7.7,5.13-12.37,5.13
		c-4.67,0-9.07-1.82-12.37-5.13c-6.82-6.82-6.82-17.92,0-24.75C9.92,3.31,14.31,1.49,18.99,1.49 M18.99,0.1
		c-4.83,0-9.67,1.84-13.36,5.53c-7.38,7.38-7.38,19.34,0,26.71c3.69,3.69,8.52,5.53,13.36,5.53c4.83,0,9.67-1.84,13.36-5.53
		c7.38-7.38,7.38-19.34,0-26.71C28.66,1.94,23.82,0.1,18.99,0.1L18.99,0.1z"/>
</g>
<g>
	<path class="st0" d="M18.99,1.49c4.67,0,9.07,1.82,12.37,5.13c6.82,6.82,6.82,17.92,0,24.75c-3.31,3.3-7.7,5.13-12.37,5.13
		c-4.67,0-9.07-1.82-12.37-5.13c-6.82-6.82-6.82-17.92,0-24.75C9.92,3.31,14.31,1.49,18.99,1.49 M18.99,0.1
		c-4.83,0-9.67,1.84-13.36,5.53c-7.38,7.38-7.38,19.34,0,26.71c3.69,3.69,8.52,5.53,13.36,5.53c4.83,0,9.67-1.84,13.36-5.53
		c7.38-7.38,7.38-19.34,0-26.71C28.66,1.94,23.82,0.1,18.99,0.1L18.99,0.1z"/>
</g>
<g>
	<path class="st0" d="M18.99,7.11c3.17,0,6.16,1.24,8.4,3.48c4.63,4.63,4.63,12.17,0,16.8c-2.24,2.24-5.23,3.48-8.4,3.48
		c-3.17,0-6.16-1.24-8.4-3.48c-4.63-4.63-4.63-12.17,0-16.8C12.83,8.34,15.82,7.11,18.99,7.11 M18.99,6.16
		c-3.28,0-6.56,1.25-9.07,3.76c-5.01,5.01-5.01,13.13,0,18.14c2.5,2.5,5.79,3.76,9.07,3.76s6.56-1.25,9.07-3.76
		c5.01-5.01,5.01-13.13,0-18.14C25.55,7.42,22.27,6.16,18.99,6.16L18.99,6.16z"/>
</g>
<g>
	<path class="st0" d="M18.99,11.55c1.99,0,3.86,0.77,5.26,2.18c1.41,1.41,2.18,3.27,2.18,5.26c0,1.99-0.77,3.86-2.18,5.26
		c-1.41,1.41-3.27,2.18-5.26,2.18c-1.99,0-3.86-0.77-5.26-2.18c-1.41-1.41-2.18-3.27-2.18-5.26s0.77-3.86,2.18-5.26
		C15.13,12.32,17,11.55,18.99,11.55 M18.99,10.95c-2.06,0-4.11,0.78-5.68,2.35c-3.14,3.14-3.14,8.22,0,11.36
		c1.57,1.57,3.63,2.35,5.68,2.35s4.11-0.78,5.68-2.35c3.14-3.14,3.14-8.22,0-11.36C23.1,11.74,21.05,10.95,18.99,10.95L18.99,10.95z
		"/>
</g>
<g>
	<polygon class="st0" points="15.7,19.49 18.81,20.03 19.98,13.28 	"/>
	<polygon class="st0" points="22.28,18.49 19.17,17.95 18,24.7 	"/>
</g>
</svg>
