<?xml version="1.0" encoding="utf-8"?>
<!-- Generator: Adobe Illustrator 23.0.0, SVG Export Plug-In . SVG Version: 6.00 Build 0)  -->
<svg version="1.1" id="图层_1" xmlns="http://www.w3.org/2000/svg" xmlns:xlink="http://www.w3.org/1999/xlink" x="0px" y="0px"
	 viewBox="0 0 37.98 37.98" style="enable-background:new 0 0 37.98 37.98;" xml:space="preserve">
<style type="text/css">
	.st0{fill:#FFFFFF;}
	.st1{fill:none;stroke:#FFFFFF;stroke-width:0.9441;stroke-linecap:round;stroke-miterlimit:10;}
	.st2{fill:none;stroke:#FFFFFF;stroke-width:1.3139;stroke-miterlimit:10;}
	.st3{fill:none;stroke:#FFFFFF;stroke-width:1.3906;stroke-miterlimit:10;}
	.st4{fill:none;stroke:#FFFFFF;stroke-width:0.5226;stroke-miterlimit:10;}
	.st5{fill:none;stroke:#FFFFFF;stroke-width:0.9441;stroke-miterlimit:10;}
	.st6{fill:none;stroke:#FFFFFF;stroke-width:0.5915;stroke-miterlimit:10;}
	.st7{fill:#FFFFFF;stroke:#FFFFFF;stroke-width:0;stroke-miterlimit:10;}
	.st8{fill:none;stroke:#FFFFFF;stroke-miterlimit:10;}
	.st9{fill:none;stroke:#FFFFFF;stroke-linecap:round;stroke-linejoin:round;stroke-miterlimit:10;}
	.st10{fill:none;stroke:#FFFFFF;stroke-width:1.3906;stroke-linecap:round;stroke-miterlimit:10;}
	.st11{fill-rule:evenodd;clip-rule:evenodd;fill:none;stroke:#FFFFFF;stroke-width:1.3906;stroke-miterlimit:10;}
	.st12{fill-rule:evenodd;clip-rule:evenodd;fill:none;stroke:#FFFFFF;stroke-width:0.9441;stroke-miterlimit:10;}
	.st13{fill-rule:evenodd;clip-rule:evenodd;fill:none;stroke:#FFFFFF;stroke-width:0.5915;stroke-miterlimit:10;}
	.st14{fill:none;stroke:#FFFFFF;stroke-width:1.4964;stroke-miterlimit:10;}
	.st15{fill:none;stroke:#FFFFFF;stroke-width:1.4979;stroke-linecap:round;stroke-miterlimit:10;}
	.st16{fill:none;stroke:#FFFFFF;stroke-width:0.4896;stroke-miterlimit:10;}
	.st17{fill:none;stroke:#FFFFFF;stroke-width:0.5515;stroke-miterlimit:10;}
	.st18{fill-rule:evenodd;clip-rule:evenodd;fill:none;stroke:#FFFFFF;stroke-width:1.8871;stroke-miterlimit:10;}
	.st19{fill:none;stroke:#FFFFFF;stroke-width:1.3098;stroke-miterlimit:10;}
	.st20{fill:none;stroke:#FFFFFF;stroke-width:1.8871;stroke-linecap:round;stroke-miterlimit:10;}
	.st21{fill-rule:evenodd;clip-rule:evenodd;fill:none;stroke:#FFFFFF;stroke-width:0.6173;stroke-miterlimit:10;}
	.st22{fill-rule:evenodd;clip-rule:evenodd;fill:none;stroke:#FFFFFF;stroke-width:0.3868;stroke-miterlimit:10;}
	.st23{fill:none;stroke:#FFFFFF;stroke-width:1.6605;stroke-miterlimit:10;}
	.st24{fill-rule:evenodd;clip-rule:evenodd;fill:none;stroke:#FFFFFF;stroke-width:1.4489;stroke-miterlimit:10;}
	.st25{fill-rule:evenodd;clip-rule:evenodd;fill:none;stroke:#FFFFFF;stroke-width:0.9077;stroke-miterlimit:10;}
	.st26{fill:none;stroke:#FFFFFF;stroke-width:0.0145;stroke-miterlimit:10;}
	.st27{fill:none;stroke:#FFFFFF;stroke-width:1.1586;stroke-miterlimit:10;}
	.st28{fill:none;stroke:#FFFFFF;stroke-width:1.3665;stroke-miterlimit:10;}
	.st29{fill:none;stroke:#FFFFFF;stroke-width:1.5609;stroke-miterlimit:10;}
	.st30{fill:none;stroke:#FFFFFF;stroke-width:1.6987;stroke-miterlimit:10;}
	.st31{fill:#221814;stroke:#FFFFFF;stroke-miterlimit:10;}
	.st32{fill:none;stroke:#FFFFFF;stroke-width:1.6838;stroke-miterlimit:10;}
	.st33{fill:none;stroke:#FFFFFF;stroke-width:1.2082;stroke-miterlimit:10;}
	.st34{fill:none;stroke:#FFFFFF;stroke-width:1.1058;stroke-miterlimit:10;}
</style>
<g>
	<polygon class="st0" points="13.54,18.58 16.28,19.05 17.31,13.11 	"/>
	<polygon class="st0" points="19.34,17.7 16.6,17.22 15.57,23.17 	"/>
</g>
<g>
	<g>
		<path class="st0" d="M21.7,17.1c0.01-2.19-1.17-4.35-3.09-5.39c-1.9-1.06-4.38-0.93-6.15,0.33c-1.8,1.24-2.73,3.5-2.52,5.67
			c0.15,2.19,1.2,4.3,2.89,5.7c1.67,1.41,3.95,2.05,6.11,1.76c2.16-0.28,4.16-1.54,5.38-3.34c1.26-1.8,1.69-4.07,1.34-6.25
			c-0.27-2.19-1.31-4.25-2.81-5.84c-1.54-1.55-3.57-2.64-5.75-2.9c-1.08-0.13-2.19-0.11-3.26,0.1c-1.07,0.23-2.1,0.63-3.03,1.18
			c-1.89,1.1-3.33,2.89-4.17,4.9c-0.4,1.02-0.64,2.09-0.74,3.18c-0.09,1.09,0.01,2.2,0.19,3.28c0.81,4.33,4.07,8.12,8.28,9.43
			c2.09,0.62,4.36,0.74,6.47,0.14c2.12-0.54,4.04-1.75,5.55-3.32c1.49-1.6,2.58-3.58,3.06-5.72c0.53-2.12,0.4-4.39-0.11-6.51
			c-1.02-4.29-4.13-7.99-8.15-9.75c-4.02-1.72-8.88-1.42-12.56,0.97C4.88,7.02,2.41,11.15,1.95,15.5
			c-0.46,4.36,0.92,8.91,3.75,12.26c2.79,3.39,7.01,5.53,11.38,5.72c4.37,0.26,8.77-1.46,11.85-4.57c3.12-3.07,4.87-7.44,4.84-11.81
			c0-0.41,0.33-0.75,0.74-0.75c0.41,0,0.75,0.33,0.75,0.74l0,0l0,0.01c0.01,4.76-1.92,9.5-5.32,12.83
			c-3.36,3.37-8.19,5.23-12.94,4.93c-4.75-0.23-9.33-2.58-12.33-6.26c-3.04-3.65-4.5-8.53-3.99-13.24C1.2,10.64,3.9,6.17,7.99,3.7
			c4.02-2.58,9.31-2.89,13.66-1c4.35,1.92,7.68,5.93,8.76,10.54c0.54,2.29,0.67,4.71,0.09,7.03c-0.54,2.32-1.72,4.46-3.35,6.19
			c-1.65,1.7-3.74,3.01-6.05,3.58c-2.3,0.64-4.76,0.5-7.02-0.18c-4.56-1.44-8.04-5.54-8.89-10.19c-0.19-1.16-0.3-2.34-0.19-3.53
			c0.11-1.18,0.37-2.35,0.81-3.45c0.92-2.18,2.49-4.12,4.56-5.32c1.02-0.6,2.15-1.03,3.31-1.28c1.17-0.23,2.37-0.25,3.54-0.1
			c2.36,0.29,4.57,1.48,6.22,3.17c1.62,1.73,2.72,3.95,3,6.3c0.37,2.32-0.11,4.84-1.49,6.79c-1.35,1.96-3.54,3.34-5.91,3.64
			c-2.36,0.31-4.84-0.4-6.66-1.94c-1.83-1.53-2.96-3.83-3.11-6.19c-0.23-2.36,0.82-4.88,2.82-6.25c1.97-1.4,4.72-1.53,6.82-0.34
			c2.12,1.16,3.4,3.56,3.38,5.93c0,0.16-0.13,0.29-0.29,0.3C21.83,17.4,21.7,17.26,21.7,17.1z"/>
	</g>
</g>
<rect x="31.6" y="11.05" class="st15" width="5.83" height="5.94"/>
<rect x="32.47" y="8.57" class="st15" width="4.09" height="2.48"/>
</svg>
